<?xml version="1.0" encoding="utf-8"?>
<!-- Generator: Adobe Illustrator 29.8.1, SVG Export Plug-In . SVG Version: 9.03 Build 0)  -->
<svg version="1.0" id="Layer_1" xmlns="http://www.w3.org/2000/svg" xmlns:xlink="http://www.w3.org/1999/xlink" x="0px" y="0px"
	 viewBox="0 0 326.66 546.96" style="enable-background:new 0 0 326.66 546.96;" xml:space="preserve">
<style type="text/css">
	.st0{clip-path:url(#SVGID_00000049942408037334505170000002740239454597721261_);}
	.st1{fill:currentColor;}
</style>
<g>
	<defs>
		<rect id="SVGID_1_" x="0.02" width="320" height="546.96"/>
	</defs>
	<clipPath id="SVGID_00000109025654436418424110000005614630802351059848_">
		<use xlink:href="#SVGID_1_"  style="overflow:visible;"/>
	</clipPath>
	<g style="clip-path:url(#SVGID_00000109025654436418424110000005614630802351059848_);">
		<path class="st1" d="M314.61,5.52c-3.46-3.47-8.07-5.39-12.97-5.39H18.34c-4.9,0-9.51,1.91-12.97,5.39C1.91,8.99,0,13.6,0,18.52
			v509.89c0,4.91,1.91,9.52,5.37,12.99c3.46,3.47,8.07,5.38,12.97,5.38h283.3c4.9,0,9.51-1.91,12.96-5.38
			c3.47-3.47,5.38-8.09,5.38-12.99V18.52C319.98,13.6,318.07,8.99,314.61,5.52z M315.25,273.46v254.95c0,3.77-1.52,7.18-3.98,9.65
			c-2.46,2.47-5.87,3.99-9.62,3.99H18.34c-3.76,0-7.16-1.53-9.63-3.99s-3.99-5.88-3.99-9.65V18.52c0-3.77,1.53-7.18,3.99-9.65
			s5.86-3.99,9.63-3.99h283.3c3.76,0,7.16,1.53,9.62,3.99c2.46,2.47,3.98,5.88,3.98,9.65V273.46z M307.36,18.52
			c0-1.54-0.6-2.98-1.68-4.06c-1.08-1.09-2.53-1.69-4.06-1.69H18.33c-1.53,0-2.97,0.6-4.05,1.69c-1.08,1.08-1.68,2.53-1.68,4.06
			v467.93c0.04,2.2,1.83,3.97,4.03,3.97h286.59c2.23,0,4.17-1.94,4.17-4.18l-0.02-212.79V18.52z M286.08,44.64
			c2.46,3.15,5.99,8.36,7.34,13.76c-1.67,4.78-2.62,9.41-3.16,13.18c-2.15-3.92-4.43-7.28-6.68-10.18
			C283.05,55.52,284.77,48.74,286.08,44.64z M289.77,81.44c0.38,0.89,1.24,1.45,2.18,1.45c0.16,0,0.32-0.02,0.48-0.05
			c1.11-0.23,1.9-1.22,1.88-2.35c0-0.19-0.14-17.17,8.32-30.46v48.21h-18.61c-2.99-4.78-11.22-19.72-15.75-45.36
			C273.22,56.52,283.01,65.27,289.77,81.44z M285.62,102.98h17.02v11.93h-17.03L285.62,102.98z M302.34,17.8
			c0.19,0.19,0.3,0.43,0.3,0.71v23.66c-2.69,3.03-4.81,6.36-6.51,9.77c-3.36-7.45-8.9-13.29-9.18-13.59
			c-0.55-0.58-1.35-0.84-2.14-0.69c-0.78,0.15-1.44,0.68-1.75,1.41c-0.17,0.42-3.44,8.36-4.17,16.85
			c-6.14-6.41-11.18-9.12-11.56-9.32c-0.02-0.01-0.04-0.01-0.05-0.02c-1.22-8.62-2.01-18.3-2.07-29.07h36.42
			C301.91,17.51,302.15,17.6,302.34,17.8z M260.48,17.51c0.28,50.45,15.67,77.4,19.86,83.8c0.11,0.36,0.3,0.68,0.55,0.95
			l-0.09,383.44H38.81l0.27-368.3c0-0.04,0.01-0.07,0.01-0.11s-0.01-0.07-0.01-0.11l0.01-15.04c3.22-4.62,20.72-32.14,21.21-84.63
			H260.48z M37.41,59.86c-0.01,0.08,0,0.15,0,0.23c-2.6,3.2-5.27,7.04-7.77,11.6c-0.6-4.09-1.68-9.21-3.64-14.45
			c1.53-5.49,5.29-10.52,7.69-13.29C35.48,47.43,38.1,53.79,37.41,59.86z M25.67,80.52c0,1.13,0.79,2.1,1.9,2.33
			c0.16,0.03,0.31,0.05,0.47,0.05c0.93,0,1.8-0.56,2.18-1.45c7.07-16.9,17.44-25.71,22.14-29.04
			c-4.74,25.79-13.31,41.01-16.38,45.84H17.32v-7.28h3.15c1.31,0,2.36-1.06,2.36-2.37s-1.06-2.37-2.36-2.37h-3.15V50.15
			C25.56,63.42,25.67,80.33,25.67,80.52z M17.32,102.98h17.04l-0.01,11.93H17.32V102.98z M17.61,17.8c0.2-0.2,0.44-0.3,0.71-0.3
			h37.24c-0.1,10.66-0.94,20.28-2.23,28.87c-0.24,0.04-0.47,0.1-0.7,0.22c-0.35,0.19-4.89,2.65-10.56,8.33
			c-0.95-8.56-5.69-15.88-5.93-16.25c-0.39-0.58-1.01-0.97-1.71-1.05c-0.69-0.08-1.39,0.15-1.9,0.64
			c-0.29,0.28-5.81,5.61-9.24,12.82c-1.6-3.1-3.57-6.12-5.97-8.89v-4.52h5.98c1.3,0,2.36-1.06,2.36-2.36c0-1.31-1.06-2.37-2.36-2.37
			h-5.98v-5.93h23.19c1.31,0,2.36-1.06,2.36-2.37c0-1.31-1.06-2.37-2.36-2.37H17.32v-3.75C17.32,18.23,17.42,17.99,17.61,17.8z
			 M17.32,477.16h4.65c1.31,0,2.36-1.06,2.36-2.37c0-1.31-1.06-2.37-2.36-2.37h-4.65v-6.06h4.65c1.31,0,2.36-1.06,2.36-2.36
			c0-1.31-1.06-2.37-2.36-2.37h-4.65v-6.06h4.65c1.31,0,2.36-1.06,2.36-2.37c0-1.31-1.06-2.37-2.36-2.37h-4.65v-6.06h4.65
			c1.31,0,2.36-1.06,2.36-2.36c0-1.31-1.06-2.37-2.36-2.37h-4.65v-6.06h4.65c1.31,0,2.36-1.06,2.36-2.37c0-1.31-1.06-2.36-2.36-2.36
			h-4.65v-6.06h4.65c1.31,0,2.36-1.06,2.36-2.37c0-1.31-1.06-2.37-2.36-2.37h-4.65v-6.06h4.65c1.31,0,2.36-1.06,2.36-2.37
			s-1.06-2.37-2.36-2.37h-4.65v-6.06h4.65c1.31,0,2.36-1.06,2.36-2.36s-1.06-2.37-2.36-2.37h-4.65v-6.06h4.65
			c1.31,0,2.36-1.06,2.36-2.37c0-1.31-1.06-2.37-2.36-2.37h-4.65v-6.06h4.65c1.31,0,2.36-1.06,2.36-2.36c0-1.31-1.06-2.37-2.36-2.37
			h-4.65v-6.06h4.65c1.31,0,2.36-1.06,2.36-2.37c0-1.31-1.06-2.36-2.36-2.36h-4.65v-6.06h4.65c1.31,0,2.36-1.06,2.36-2.37
			c0-1.31-1.06-2.37-2.36-2.37h-4.65v-6.06h4.65c1.31,0,2.36-1.06,2.36-2.37c0-1.31-1.06-2.36-2.36-2.36h-4.65v-6.06h4.65
			c1.31,0,2.36-1.06,2.36-2.37c0-1.31-1.06-2.36-2.36-2.36h-4.65v-6.07h4.65c1.31,0,2.36-1.06,2.36-2.36c0-1.31-1.06-2.37-2.36-2.37
			h-4.65v-6.06h4.65c1.31,0,2.36-1.06,2.36-2.37c0-1.31-1.06-2.37-2.36-2.37h-4.65v-6.06h4.65c1.31,0,2.36-1.06,2.36-2.37
			c0-1.31-1.06-2.37-2.36-2.37h-4.65v-6.06h4.65c1.31,0,2.36-1.06,2.36-2.37c0-1.31-1.06-2.37-2.36-2.37h-4.65v-6.06h4.65
			c1.31,0,2.36-1.06,2.36-2.36c0-1.31-1.06-2.37-2.36-2.37h-4.65v-6.06h4.65c1.31,0,2.36-1.06,2.36-2.36c0-1.31-1.06-2.37-2.36-2.37
			h-4.65v-6.06h4.65c1.31,0,2.36-1.06,2.36-2.37s-1.06-2.37-2.36-2.37h-4.65v-6.06h4.65c1.31,0,2.36-1.06,2.36-2.37
			c0-1.31-1.06-2.36-2.36-2.36h-4.65v-6.06h4.65c1.31,0,2.36-1.06,2.36-2.37c0-1.31-1.06-2.37-2.36-2.37h-4.65v-6.06h4.65
			c1.31,0,2.36-1.06,2.36-2.37c0-1.31-1.06-2.36-2.36-2.36h-4.65v-6.06h4.65c1.31,0,2.36-1.06,2.36-2.37c0-1.31-1.06-2.37-2.36-2.37
			h-4.65v-6.06h4.65c1.31,0,2.36-1.06,2.36-2.37c0-1.31-1.06-2.36-2.36-2.36h-4.65v-6.06h4.65c1.31,0,2.36-1.06,2.36-2.37
			c0-1.31-1.06-2.37-2.36-2.37h-4.65v-6.06h4.65c1.31,0,2.36-1.06,2.36-2.37c0-1.31-1.06-2.36-2.36-2.36h-4.65v-6.06h4.65
			c1.31,0,2.36-1.06,2.36-2.37c0-1.31-1.06-2.37-2.36-2.37h-4.65v-6.06h4.65c1.31,0,2.36-1.06,2.36-2.37c0-1.31-1.06-2.36-2.36-2.36
			h-4.65v-6.06h4.65c1.31,0,2.36-1.06,2.36-2.37s-1.06-2.37-2.36-2.37h-4.65v-6.06h4.65c1.31,0,2.36-1.06,2.36-2.37
			c0-1.31-1.06-2.36-2.36-2.36h-4.65v-6.06h4.65c1.31,0,2.36-1.06,2.36-2.37c0-1.31-1.06-2.37-2.36-2.37h-4.65v-7.2h17.03
			l-0.27,366.04H17.32L17.32,477.16L17.32,477.16z M285.53,485.69l0.09-366.04h17.03v153.81l0.02,212.23H285.53z M149.97,56.78V31.8
			c0-1.31,1.06-2.37,2.36-2.37c1.3,0,2.36,1.06,2.36,2.37v24.98c0,1.31-1.06,2.37-2.36,2.37C151.03,59.15,149.97,58.08,149.97,56.78
			z M165.28,56.78V31.8c0-1.31,1.06-2.37,2.36-2.37c1.3,0,2.36,1.06,2.36,2.37v24.98c0,1.31-1.06,2.37-2.36,2.37
			C166.34,59.15,165.28,58.08,165.28,56.78z M168.26,221.44c1.28-0.29,2.54,0.51,2.83,1.78c0.29,1.27-0.51,2.54-1.78,2.83
			c-3.45,0.79-6.69,1.06-9.49,1.06c-5.47,0-9.23-1.02-9.46-1.08c-1.26-0.35-1.99-1.65-1.65-2.91c0.35-1.26,1.65-1.99,2.91-1.65
			C151.7,221.48,159.27,223.49,168.26,221.44z M165.49,231.59c0.15,1.3-0.78,2.47-2.08,2.62c-1.19,0.14-2.34,0.18-3.36,0.18
			c-1.98,0-3.43-0.18-3.52-0.19c-1.3-0.16-2.21-1.34-2.06-2.64c0.16-1.3,1.31-2.23,2.63-2.06c0.03,0.01,2.83,0.33,5.77-0.01
			C164.19,229.36,165.35,230.3,165.49,231.59z M159.99,212.6c0.74,0,1.55-0.28,1.8-0.38c1.2-0.52,2.58,0.03,3.1,1.22
			c0.52,1.19-0.01,2.58-1.2,3.11c-0.18,0.08-1.81,0.78-3.7,0.78s-3.52-0.7-3.7-0.78c-1.19-0.53-1.73-1.93-1.2-3.12
			c0.53-1.19,1.91-1.73,3.11-1.21C158.44,212.33,159.24,212.6,159.99,212.6z M95.89,137.68c0.12,0.03,12.81,2.3,20.24,13.04
			c6.69,9.67,6.6,22.72,6.6,22.72l-0.39,5.14C79.38,226.29,66.19,294.4,62.61,320.16c-2.4-8.65-3.71-17.74-3.71-27.14
			c0-0.44,0.02-0.88,0.03-1.31l0.03-0.9c0.02-1.15-0.78-2.15-1.9-2.37c-1.12-0.22-2.24,0.39-2.67,1.45
			c-5.27,13.35-7.94,27.41-7.94,41.78c0,62.74,50.93,113.78,113.54,113.78s113.54-51.04,113.54-113.78
			c0-14.37-2.67-28.43-7.94-41.79c-0.42-1.06-1.55-1.67-2.67-1.45c-1.12,0.23-1.92,1.23-1.9,2.38l0.03,0.86
			c0.02,0.45,0.03,0.89,0.03,1.34c0,9.89-1.45,19.44-4.09,28.49c-3.3-24.65-16.17-94.28-59.84-142.85l0.1-5.08
			c0-0.13-0.12-13.15,6.6-22.86c7.43-10.74,20.11-13.01,20.23-13.03c1.1-0.19,1.93-1.12,1.97-2.23c0.05-1.12-0.69-2.12-1.78-2.4
			c-0.28-0.07-24.62-6.04-39.71,10.44c-0.84-12.87-11.54-23.09-24.59-23.09c-13.05,0-23.74,10.22-24.59,23.09
			c-15.08-16.48-39.43-10.52-39.71-10.45c-1.08,0.28-1.82,1.27-1.77,2.39C93.96,136.56,94.79,137.49,95.89,137.68z M192.55,172.24
			c-0.03,0.75-0.03,1.23-0.02,1.32l-0.08,3.59c-4.32,0.65-15.85,2.11-32.46,2.11c-16.37,0-28.19-1.2-32.83-1.77l0.29-3.84
			c0.01-0.09,0.01-0.57-0.02-1.31c5.65,0.51,20.02,1.68,32.18,1.68C172.67,174.02,188.02,172.67,192.55,172.24z M184.57,194.02
			l-1.8-0.43c-0.66-0.16-1.33-0.02-1.85,0.34c-1.98,0.78-7.16,2.23-10.04,0.6c-1.13-0.65-2.57-0.25-3.22,0.89
			c-0.65,1.14-0.25,2.58,0.89,3.23c1.79,1.02,3.83,1.38,5.81,1.38c3.51,0,6.8-1.11,8.13-1.62l2.26,0.54
			c0.19,0.05,0.37,0.07,0.55,0.07c0.53,0,1.03-0.18,1.44-0.49c1.38,2.58,3.07,5.34,5.16,8.2c-0.27,2.09-0.66,4.19-1.25,6.38
			c-0.54,2.02-1.18,3.94-1.89,5.8l-4.77,9.36c-0.77,1.17-1.58,2.31-2.45,3.38c-4.59,5.65-10.49,9.39-16.63,10.52
			c-8.73,1.61-18.88-2.27-25.8-9.89c-2.62-2.89-4.78-6.29-6.56-10.29l-1.49-4.09l-1.44-4.25c-0.62-2.31-1.16-4.8-1.62-7.44
			c2.13-2.94,3.83-5.76,5.18-8.38c0.42,0.37,0.96,0.59,1.55,0.59c0.14,0,0.28-0.01,0.42-0.04l2.08-0.37
			c1.35,0.59,4.65,1.86,8.17,1.86c1.75,0,3.55-0.31,5.18-1.19c1.15-0.61,1.59-2.05,0.97-3.2c-0.61-1.16-2.05-1.59-3.2-0.97
			c-2.94,1.57-7.96-0.21-9.65-1.02c-0.42-0.2-0.87-0.27-1.3-0.22c-0.2-0.02-0.41-0.02-0.62,0.02l-1.59,0.28
			c1.93-4.57,2.77-8.19,3.11-10.27c5.74,0.39,13.06,0.71,21.71,0.71c8.49,0,15.62-0.36,21.21-0.82
			C181.61,185.48,182.53,189.3,184.57,194.02z M195.11,388.02c19.45-31.08,11.83-108.68,11.12-115.36c0.13-0.45,0.57-0.92,1.21-1.3
			c0.69-0.41,2.68-1.26,6.49-0.8c0.47,4.83,3.94,42.87,0.8,73.27c-2.8,27.18-7.78,37.27-9.1,39.55
			C202.23,385.1,198.72,386.67,195.11,388.02z M96.94,304.4c-0.24,0.09-4.73,1.8-10.74,4.84c1.08-2.89,1.93-5.8,2.58-8.64
			c0.01-0.01,0.03-0.01,0.04-0.02c3.31-1.96,6.36-3.36,8.44-4.23c-0.1,2.57-0.19,5.26-0.26,8.03
			C96.97,304.39,96.96,304.39,96.94,304.4z M90.93,278.87c1.92-1.82,3.65-3.66,5.21-5.49c0.92-0.32,1.79-0.58,2.6-0.8
			c-0.13,1.48-0.3,3.48-0.47,5.88c-1.35,0.5-4.04,1.57-7.32,3.26C90.96,280.53,90.95,279.56,90.93,278.87z M229.53,294.81
			c-5.01-2.65-8.83-3.93-9.02-3.99c-0.14-0.05-0.27-0.07-0.4-0.09c-0.14-2.73-0.29-5.28-0.44-7.59c1.82,0.7,5.22,2.15,9.04,4.34
			C228.86,289.69,229.12,292.17,229.53,294.81z M137.74,255.69c2.02,1.28,5.32,2.57,10.76,3.31l1.71,0.25
			c5.39,0.86,6.89,4.52,7.3,6.57c-0.04,0.18-0.07,0.37-0.07,0.56v1.1c-17.44-0.46-21.4-6.02-21.98-7.04
			C136.37,258.85,137.14,257.24,137.74,255.69z M162.36,266.38c0.24-1.79,1.44-6.17,7.41-7.13c0.06-0.01,0.12-0.02,0.18-0.04
			l1.43-0.34c5.09-0.63,8.29-1.85,10.33-3.17c0.62,1.74,1.45,3.56,2.46,5.35c-0.99,1.55-5.3,6.02-21.81,6.44
			c0.02-0.11,0.04-0.22,0.04-0.34C162.4,266.91,162.39,266.65,162.36,266.38z M180.44,250.67c-0.33,0.46-2.26,2.6-9.77,3.51
			c-0.09,0.01-0.18,0.03-0.28,0.05l-1.47,0.35c-4.41,0.73-7.21,2.88-8.94,5.32c-1.74-2.45-4.59-4.62-9.06-5.33l-1.77-0.26
			c-8.14-1.11-9.85-3.33-10.03-3.6c0-0.01-0.01-0.01-0.01-0.02c0.12-0.78,0.19-1.53,0.19-2.21v-8.76l0.1-0.64
			c6.29,5.25,13.9,8.16,21.34,8.16c1.68,0,3.36-0.15,5.01-0.45c5.16-0.95,10.14-3.45,14.49-7.15v8.84
			C180.26,249.16,180.33,249.9,180.44,250.67z M109.7,237.49c0.29,1.15,0.68,2.24,1.17,3.23c2.11,4.27,5.79,6.53,10.65,6.53
			c6.27,0,10.66-0.47,13.08-0.82v2.06c0,3.58-2.57,10.06-7.17,15.1c-2.75,0.24-17.95,1.61-24.92,3.45
			c-0.56,0.06-1.14,0.15-1.74,0.24C108.16,256.16,109.88,245.47,109.7,237.49z M90.73,287.22c2.81-1.59,5.36-2.76,7.19-3.52
			c-0.15,2.29-0.29,4.79-0.43,7.47c-1.41,0.52-4.19,1.64-7.57,3.39C90.32,291.91,90.57,289.42,90.73,287.22z M97.35,333.6
			c-3.33,1.47-14.34,6.75-21.72,15.16c-1.39-2.11-2.7-4.27-3.94-6.49c7.32-9.52,20.56-16.32,25.27-18.55
			C97.04,327.02,97.16,330.33,97.35,333.6z M97.68,338.68c0.14,1.9,0.31,3.78,0.5,5.63c0.13,1.28,0.27,2.52,0.41,3.72
			c-3.04,1.44-10.42,5.3-15.29,10.9c-1.7-1.98-3.33-4.02-4.88-6.14C84.21,345.72,93.35,340.76,97.68,338.68z M99.22,353.01
			c0.51,3.68,1.05,6.95,1.61,9.88c-1.89,0.93-5.45,2.93-8.06,5.72c-2.18-1.95-4.26-3.99-6.27-6.12
			C90.14,358.07,95.9,354.7,99.22,353.01z M101.84,367.7c0.97,4.23,1.95,7.54,2.87,10.08c-2.89-1.9-5.67-3.93-8.34-6.1
			C98.03,369.96,100.23,368.57,101.84,367.7z M111.9,382.11c-1.26-1.92-6.19-10.99-9.02-38.29c-2.96-28.69-0.03-64.2,0.7-72.14
			c4.65-0.38,7.12,1.05,8.92,2.23c-1.05,11.95-6.46,84.25,12.23,114.04C120.3,386.3,116.01,384.35,111.9,382.11z M132.68,390.54
			c-22-22.43-16.67-101.44-15.53-115.56c3.28-0.66,6.26-2.06,8.9-3.94c1.1,9.06,5.31,29.38,21.09,32.96
			c0.18,0.04,0.35,0.06,0.53,0.06c1.08,0,2.05-0.74,2.3-1.84c0.29-1.28-0.51-2.55-1.78-2.83c-15.07-3.42-17.45-27.85-17.76-32.18
			c0.79-0.83,1.53-1.7,2.22-2.59c2.69,2.97,9.23,7.23,24.78,7.62v122.04C148.88,394.05,140.59,392.77,132.68,390.54z M162.16,272.23
			c15.25-0.35,21.87-4.08,24.74-7.06c0.4,0.52,0.8,1.03,1.23,1.52c-0.02,0.09-0.05,0.18-0.06,0.28
			c-3.37,29.51-16.72,32.06-16.99,32.1c-1.28,0.18-2.18,1.35-2.03,2.64c0.15,1.2,1.17,2.07,2.34,2.07c0.1,0,0.2-0.01,0.3-0.02
			c0.68-0.09,16.18-2.39,20.67-33.11c2.69,2.05,5.81,3.58,9.34,4.29c1.29,13.96,7.52,93.22-14.54,115.64
			c-7.98,2.24-16.36,3.51-25.01,3.7V272.23z M215.95,367.08c1.6,0.79,4.95,2.61,7.07,5.05c-3.35,2.69-6.88,5.19-10.56,7.45
			C213.55,376.59,214.77,372.53,215.95,367.08z M226.65,369.09c-3.51-4.06-9.18-6.54-9.74-6.79c0.55-2.97,1.08-6.27,1.58-9.94
			c2.96,1.42,10.36,5.33,14.45,10.69C230.92,365.16,228.83,367.17,226.65,369.09z M236.16,359.53c-5.9-7.21-16.11-11.68-17.06-12.08
			c0.11-1.02,0.23-2.06,0.34-3.14c0.21-2.05,0.4-4.14,0.55-6.24c3.5,1.58,14.69,7.1,21.09,15.39
			C239.52,355.55,237.86,357.56,236.16,359.53z M243.91,349.44c-8.54-10.19-22.64-16-23.26-16.25c-0.11-0.05-0.23-0.08-0.35-0.1
			c0.18-3.31,0.3-6.65,0.37-9.97c2.64,1.16,18.72,8.58,26.9,19.53c0.09,0.12,0.2,0.23,0.32,0.33
			C246.64,345.17,245.32,347.34,243.91,349.44z M220.34,295.8c1.9,0.73,5.66,2.32,9.82,4.79c0.17,0.1,0.34,0.17,0.53,0.22
			c0.67,2.86,1.53,5.81,2.64,8.71c-6.28-3.21-11.03-5.03-11.29-5.12c-0.47-0.18-0.96-0.19-1.41-0.07
			C220.55,301.37,220.45,298.52,220.34,295.8z M228.46,281.95c-4.85-2.54-8.52-3.77-8.71-3.83c-0.15-0.05-0.3-0.08-0.45-0.1
			c-0.2-2.73-0.39-4.91-0.52-6.37c1.27,0.4,2.65,0.9,4.17,1.55c0.07,0.03,0.15,0.05,0.21,0.07c1.59,1.87,3.34,3.74,5.31,5.6
			C228.46,279.6,228.45,280.65,228.46,281.95z M212.67,265.7c-0.15-0.06-0.3-0.1-0.47-0.14c-0.68-0.11-15.77-2.76-21.57-3.35
			c-2.91-3.75-4.79-8.05-5.4-11.46c0-0.01,0.01-0.01,0.01-0.01c0.01-0.33-0.05-0.65-0.16-0.93c-0.06-0.46-0.08-0.91-0.08-1.32v-2.17
			c2.74,0.4,7.52,0.93,13.69,0.93c4.98,0,8.91-2.35,11.06-6.62c0.3,7.35,2.32,16.46,8.42,25.93
			C216.08,266.03,214.26,265.77,212.67,265.7z M125.57,182.07c1.47,0.19,4.16,0.52,7.95,0.84c-0.91,4.69-4.58,17.61-18.71,31.05
			l-0.81,0.71c-0.11,0.1-0.21,0.21-0.3,0.32c-2.88,2.64-6.14,5.28-9.89,7.88c-0.91,0.63-1.26,1.82-0.84,2.85
			c0.43,1.06,10.3,26.14-16.05,50.4c-0.52,0.48-0.8,1.17-0.76,1.88c0.01,0.11,0.15,3.01-0.11,7.38c-0.04,0.2-0.05,0.39-0.04,0.59
			c-0.75,11.48-4.27,32.24-19.49,40.83C68.58,308.57,79.64,233.35,125.57,182.07z M82.91,316.38c5.92-3.38,11.34-5.76,13.98-6.86
			c-0.04,2.96-0.05,5.99-0.02,9.05c-0.01,0-0.01,0-0.02,0.01c-0.75,0.31-17.58,7.47-27.56,19.15c-0.92-1.86-1.79-3.76-2.59-5.68
			C74.15,328.56,79.32,322.83,82.91,316.38z M265.24,304.02c2.36,9,3.55,18.26,3.55,27.66c0,60.12-48.81,109.04-108.81,109.04
			S51.18,391.8,51.18,331.68c0-9.4,1.19-18.66,3.56-27.66c3.64,35.2,24.53,65.34,54.03,81.77c0.35,0.37,0.8,0.59,1.27,0.68
			c14.89,8.03,31.9,12.6,49.95,12.6c17.14,0,33.34-4.11,47.67-11.39c0.41-0.09,0.79-0.3,1.1-0.59
			C239.55,370.99,261.51,340.18,265.24,304.02z M250.31,338.46c-9.9-12.11-27.42-19.56-28.19-19.89c-0.45-0.19-0.93-0.23-1.38-0.14
			c0.03-3.2,0.02-6.38-0.03-9.47c1.56,0.61,8.28,3.34,15.76,7.64c0.06,0.04,0.14,0.05,0.2,0.08c3.66,6.46,8.94,12.16,16.52,15.56
			C252.31,334.36,251.33,336.42,250.31,338.46z M233.24,278.02c0.04-0.71-0.24-1.4-0.76-1.88c-26.35-24.26-16.48-49.34-16.06-50.4
			c0.43-1.03,0.08-2.22-0.83-2.85c-0.53-0.36-1.02-0.73-1.53-1.09c-0.68-0.87-1.54-1.52-2.52-1.89
			c-19.52-15.11-24.43-31.33-25.59-37.16c3.52-0.36,6.1-0.73,7.62-0.97c46.14,51.25,57.24,126.75,59.31,145.04
			C231.42,314.72,233.22,278.4,233.24,278.02z M213.24,136.56c0.01,0,0.02,0,0.03,0c-4.4,2.25-9.42,5.84-13.3,11.46
			c-4.54,6.55-6.3,14.21-6.99,19.43c-2.43,0.24-15.07,1.43-27.43,1.76c8.04-1.86,14.57-7.67,17.47-15.27
			c0.11-0.13,0.22-0.28,0.3-0.44C190.77,139.3,204.07,136.56,213.24,136.56z M159.99,125.15c10.99,0,19.95,8.96,19.95,19.98
			c0,11.02-8.95,19.99-19.95,19.99c-11,0-19.95-8.97-19.95-19.99C140.04,134.11,148.99,125.15,159.99,125.15z M106.74,136.56
			c9.17,0,22.47,2.74,29.92,16.94c0.08,0.16,0.19,0.31,0.3,0.44c2.91,7.62,9.47,13.44,17.55,15.28c-11.35-0.26-23.3-1.28-27.49-1.67
			c-0.68-5.24-2.44-12.94-7.01-19.54c-3.89-5.62-8.91-9.21-13.3-11.46C106.72,136.56,106.73,136.56,106.74,136.56z M150.04,337.53
			c0,1.31-1.06,2.36-2.36,2.36c-19.75,0-25.67-25.49-25.91-26.57c-0.28-1.28,0.52-2.54,1.79-2.83s2.54,0.52,2.82,1.79
			c0.05,0.23,5.33,22.88,21.3,22.88C148.98,335.16,150.04,336.22,150.04,337.53z M169.08,337.53c0-1.31,1.06-2.37,2.36-2.37
			c16.01,0,21.24-22.65,21.3-22.88c0.29-1.28,1.54-2.08,2.82-1.79c1.27,0.28,2.07,1.55,1.79,2.83c-0.24,1.08-6.16,26.57-25.91,26.57
			C170.14,339.9,169.08,338.84,169.08,337.53z M145.12,146.19c-0.23-1.29,0.62-2.52,1.91-2.75c1.29-0.22,2.51,0.63,2.74,1.91
			c0.07,0.39,1.8,9.23,10.1,9.23c8.36,0,10.32-8.39,10.4-8.75c0.28-1.27,1.54-2.08,2.81-1.8c1.27,0.28,2.08,1.53,1.81,2.8
			c-0.92,4.32-5.24,12.48-15.02,12.48C150.04,159.32,145.93,150.73,145.12,146.19z M150.04,369.37c0,1.31-1.06,2.36-2.36,2.36
			c-15.72,0-21.63-17.21-21.88-17.94c-0.41-1.24,0.26-2.58,1.49-3c1.23-0.41,2.57,0.26,2.99,1.49c0.07,0.21,5.12,14.71,17.39,14.71
			C148.98,367,150.04,368.06,150.04,369.37z M171.44,371.73c-1.31,0-2.36-1.06-2.36-2.36s1.06-2.37,2.36-2.37
			c12.35,0,17.34-14.56,17.39-14.71c0.41-1.24,1.75-1.92,2.99-1.5c1.24,0.41,1.91,1.76,1.49,2.99
			C193.07,354.52,187.17,371.73,171.44,371.73z M38.73,506.49c0.44,0.44,0.66,0.96,0.66,1.58v16.78c0,0.62-0.22,1.16-0.66,1.59
			c-0.44,0.44-0.97,0.66-1.58,0.66s-1.14-0.22-1.57-0.66c-0.44-0.43-0.66-0.96-0.66-1.59v-6.16h-9.5v6.16
			c0,0.62-0.21,1.16-0.65,1.59c-0.44,0.44-0.96,0.66-1.57,0.66c-0.62,0-1.16-0.22-1.59-0.66c-0.44-0.43-0.65-0.96-0.65-1.59v-16.78
			c0-0.61,0.21-1.14,0.65-1.58c0.43-0.44,0.96-0.67,1.59-0.67c0.61,0,1.14,0.22,1.57,0.67c0.44,0.44,0.65,0.96,0.65,1.58v6.15h9.5
			v-6.15c0-0.61,0.22-1.14,0.66-1.58c0.43-0.44,0.96-0.67,1.57-0.67S38.29,506.05,38.73,506.49z M49.09,506.49
			c0.43,0.44,0.65,0.96,0.65,1.58v16.78c0,0.62-0.22,1.16-0.65,1.59c-0.43,0.44-0.96,0.66-1.57,0.66c-0.62,0-1.16-0.22-1.59-0.66
			c-0.44-0.43-0.65-0.96-0.65-1.59v-16.78c0-0.61,0.21-1.14,0.65-1.58c0.43-0.44,0.96-0.67,1.59-0.67
			C48.13,505.82,48.66,506.05,49.09,506.49z M75.05,514.84c0.47,0.45,0.7,0.98,0.7,1.6v0.02c0,2.93-1.04,5.43-3.12,7.52
			c-2.07,2.08-4.57,3.11-7.5,3.11c-2.92,0-5.42-1.04-7.5-3.11c-2.07-2.08-3.1-4.59-3.1-7.52c0-2.93,1.03-5.44,3.1-7.52
			c2.08-2.08,4.58-3.12,7.5-3.12c2.93,0,5.43,1.04,7.5,3.11c0.44,0.44,0.67,0.97,0.67,1.59c0,0.61-0.22,1.14-0.65,1.58
			c-0.44,0.43-0.96,0.65-1.59,0.65c-0.61,0.01-1.14-0.21-1.57-0.65c-1.2-1.2-2.65-1.81-4.35-1.81c-1.69,0-3.14,0.61-4.34,1.82
			c-1.2,1.2-1.8,2.66-1.8,4.35c0,1.7,0.6,3.15,1.8,4.35c1.2,1.2,2.65,1.81,4.34,1.81c1.29,0,2.45-0.37,3.51-1.1
			c1.03-0.72,1.77-1.66,2.22-2.83h-5.73c-0.61,0-1.14-0.21-1.57-0.65c-0.44-0.43-0.65-0.96-0.65-1.58c0-0.61,0.22-1.15,0.65-1.59
			c0.43-0.44,0.96-0.66,1.57-0.66h8.29C74.05,514.2,74.6,514.41,75.05,514.84z M98.29,506.49c0.43,0.44,0.65,0.96,0.65,1.58v16.78
			c0,0.62-0.22,1.16-0.65,1.59c-0.45,0.44-0.98,0.66-1.59,0.66c-0.61,0-1.14-0.22-1.58-0.66c-0.43-0.43-0.65-0.96-0.65-1.59v-6.16
			h-9.5v6.16c0,0.62-0.22,1.16-0.65,1.59c-0.43,0.44-0.96,0.66-1.57,0.66c-0.62,0-1.16-0.22-1.59-0.66
			c-0.43-0.43-0.65-0.96-0.65-1.59v-16.78c0-0.61,0.22-1.14,0.65-1.58c0.43-0.44,0.96-0.67,1.59-0.67c0.61,0,1.14,0.22,1.57,0.67
			c0.44,0.44,0.65,0.96,0.65,1.58v6.15h9.5v-6.15c0-0.61,0.22-1.14,0.65-1.58c0.44-0.44,0.96-0.67,1.58-0.67
			C97.31,505.82,97.84,506.05,98.29,506.49z M124.88,505.82h-8.36c-0.62,0-1.16,0.22-1.59,0.67c-0.44,0.44-0.65,0.96-0.65,1.58
			v16.78c0,0.62,0.21,1.16,0.65,1.59c0.43,0.44,0.96,0.66,1.59,0.66c0.61,0,1.14-0.22,1.57-0.66c0.44-0.43,0.65-0.96,0.65-1.59
			v-3.35h6.14c2.16,0,4-0.77,5.53-2.3c1.53-1.53,2.3-3.37,2.3-5.53c0-2.16-0.77-4.01-2.3-5.54
			C128.88,506.59,127.03,505.82,124.88,505.82z M127.24,516.04c-0.66,0.66-1.44,0.98-2.37,0.98h-6.14v-6.72h6.14
			c0.93,0,1.71,0.33,2.37,0.99c0.66,0.65,0.99,1.45,0.99,2.38C128.23,514.58,127.91,515.38,127.24,516.04z M154.89,517.49
			c0.67-1.19,1.01-2.46,1.01-3.82c0-2.16-0.77-4.01-2.3-5.54c-1.53-1.54-3.37-2.3-5.53-2.3h-8.36c-0.62,0-1.16,0.22-1.59,0.67
			c-0.44,0.44-0.66,0.96-0.66,1.58v16.78c0,0.62,0.22,1.16,0.66,1.59c0.43,0.44,0.96,0.66,1.59,0.66c0.61,0,1.14-0.22,1.57-0.66
			c0.43-0.43,0.65-0.96,0.65-1.59v-3.35h5.22l4.93,4.94c0.44,0.44,0.96,0.66,1.58,0.66c0.61,0,1.14-0.22,1.59-0.66
			c0.43-0.43,0.65-0.96,0.65-1.59c0-0.62-0.22-1.14-0.65-1.58l-2.99-3C153.37,519.56,154.25,518.64,154.89,517.49z M150.44,516.04
			c-0.66,0.66-1.44,0.98-2.37,0.98h-6.14v-6.72h6.14c0.93,0,1.71,0.33,2.37,0.99c0.66,0.65,0.99,1.45,0.99,2.38
			C151.43,514.58,151.1,515.38,150.44,516.04z M164.48,506.49c0.43,0.44,0.65,0.96,0.65,1.58v16.78c0,0.62-0.22,1.16-0.65,1.59
			c-0.44,0.44-0.96,0.66-1.58,0.66s-1.15-0.22-1.58-0.66c-0.44-0.43-0.66-0.96-0.66-1.59v-16.78c0-0.61,0.22-1.14,0.66-1.58
			c0.43-0.44,0.96-0.67,1.58-0.67S164.04,506.05,164.48,506.49z M175.49,510.3v3.92h8.93c0.61,0,1.15,0.22,1.59,0.66
			c0.43,0.43,0.65,0.96,0.65,1.59c0,0.61-0.22,1.14-0.65,1.58c-0.44,0.44-0.97,0.65-1.59,0.65h-8.93v3.92h11.73
			c0.61,0,1.14,0.22,1.58,0.66c0.44,0.44,0.66,0.96,0.66,1.58c0,0.62-0.22,1.16-0.66,1.59c-0.44,0.44-0.97,0.66-1.58,0.66h-13.95
			c-0.62,0-1.16-0.22-1.59-0.66c-0.44-0.43-0.66-0.96-0.66-1.59v-16.78c0-0.61,0.22-1.14,0.66-1.58c0.43-0.45,0.96-0.67,1.59-0.67
			h13.95c0.61,0,1.14,0.22,1.58,0.67c0.44,0.44,0.66,0.96,0.66,1.58c0,0.61-0.22,1.14-0.66,1.58c-0.44,0.43-0.97,0.65-1.58,0.65
			H175.49z M198.15,510.88c-0.39,0.38-0.58,0.84-0.58,1.38c0,0.54,0.19,1.01,0.58,1.39c0.38,0.38,0.84,0.57,1.38,0.57h5.59
			c1.77,0,3.28,0.63,4.54,1.89c1.26,1.26,1.89,2.78,1.89,4.55c0,1.77-0.62,3.29-1.89,4.55c-1.26,1.26-2.77,1.89-4.54,1.89h-9.77
			c-0.62,0-1.15-0.22-1.58-0.65c-0.44-0.44-0.66-0.97-0.66-1.59c0-0.61,0.22-1.14,0.66-1.58c0.43-0.44,0.96-0.65,1.58-0.65h9.77
			c0.54,0,1-0.19,1.38-0.57c0.39-0.39,0.58-0.85,0.58-1.39c0-0.54-0.19-1-0.58-1.38c-0.38-0.39-0.83-0.58-1.38-0.58h-5.58
			c-1.77,0-3.28-0.62-4.54-1.89c-1.26-1.25-1.89-2.77-1.89-4.55c0-1.77,0.63-3.29,1.89-4.55c1.26-1.26,2.77-1.89,4.54-1.89h9.77
			c0.61,0,1.15,0.22,1.59,0.67c0.44,0.43,0.65,0.96,0.65,1.58c0,0.61-0.21,1.14-0.65,1.58c-0.44,0.43-0.97,0.65-1.59,0.65h-9.77
			C198.99,510.3,198.53,510.49,198.15,510.88z M232.4,506.49c0.43,0.44,0.65,0.96,0.65,1.58c0,0.61-0.22,1.14-0.65,1.58
			c-0.45,0.43-0.97,0.65-1.59,0.65h-4.75v14.55c0,0.62-0.22,1.16-0.65,1.59c-0.44,0.44-0.96,0.66-1.57,0.66
			c-0.61,0-1.15-0.22-1.59-0.66c-0.43-0.43-0.65-0.96-0.65-1.59V510.3h-4.73c-0.62,0-1.15-0.22-1.59-0.65
			c-0.43-0.44-0.65-0.96-0.65-1.58c0-0.61,0.22-1.14,0.65-1.58c0.44-0.44,0.96-0.67,1.59-0.67h13.95
			C231.42,505.82,231.95,506.05,232.4,506.49z M241.72,510.3v3.92h8.93c0.61,0,1.15,0.22,1.59,0.66c0.44,0.43,0.66,0.96,0.66,1.59
			c0,0.61-0.22,1.14-0.66,1.58c-0.44,0.44-0.97,0.65-1.59,0.65h-8.93v3.92h11.73c0.61,0,1.14,0.22,1.59,0.66
			c0.43,0.44,0.65,0.96,0.65,1.58c0,0.62-0.22,1.16-0.65,1.59c-0.45,0.44-0.97,0.66-1.59,0.66H239.5c-0.62,0-1.16-0.22-1.59-0.66
			c-0.43-0.43-0.65-0.96-0.65-1.59v-16.78c0-0.61,0.22-1.14,0.65-1.58c0.43-0.45,0.96-0.67,1.59-0.67h13.95
			c0.61,0,1.14,0.22,1.59,0.67c0.43,0.44,0.65,0.96,0.65,1.58c0,0.61-0.22,1.14-0.65,1.58c-0.45,0.43-0.97,0.65-1.59,0.65H241.72z
			 M264.39,510.88c-0.39,0.38-0.58,0.84-0.58,1.38c0,0.54,0.19,1.01,0.58,1.39c0.38,0.38,0.83,0.57,1.38,0.57h5.58
			c1.77,0,3.28,0.63,4.54,1.89c1.26,1.26,1.89,2.78,1.89,4.55c0,1.77-0.62,3.29-1.89,4.55c-1.26,1.26-2.77,1.89-4.54,1.89h-9.77
			c-0.62,0-1.15-0.22-1.58-0.65c-0.44-0.44-0.66-0.97-0.66-1.59c0-0.61,0.22-1.14,0.66-1.58c0.43-0.44,0.96-0.65,1.58-0.65h9.77
			c0.54,0,1-0.19,1.38-0.57c0.39-0.39,0.58-0.85,0.58-1.39c0-0.54-0.19-1-0.58-1.38c-0.38-0.39-0.83-0.58-1.38-0.58h-5.58
			c-1.77,0-3.28-0.62-4.54-1.89c-1.26-1.25-1.89-2.77-1.89-4.55c0-1.77,0.63-3.29,1.89-4.55c1.26-1.26,2.77-1.89,4.54-1.89h9.77
			c0.61,0,1.15,0.22,1.59,0.67c0.44,0.43,0.65,0.96,0.65,1.58c0,0.61-0.21,1.14-0.65,1.58c-0.44,0.43-0.97,0.65-1.59,0.65h-9.77
			C265.22,510.3,264.76,510.49,264.39,510.88z M286.46,510.88c-0.39,0.38-0.58,0.84-0.58,1.38c0,0.54,0.19,1.01,0.58,1.39
			c0.38,0.38,0.83,0.57,1.38,0.57h5.58c1.77,0,3.28,0.63,4.54,1.89c1.26,1.26,1.89,2.78,1.89,4.55c0,1.77-0.64,3.29-1.89,4.55
			c-1.26,1.26-2.77,1.89-4.54,1.89h-9.77c-0.62,0-1.15-0.22-1.59-0.65c-0.43-0.44-0.65-0.97-0.65-1.59c0-0.61,0.22-1.14,0.65-1.58
			c0.44-0.44,0.96-0.65,1.59-0.65h9.77c0.54,0,0.99-0.19,1.38-0.57c0.39-0.39,0.58-0.85,0.58-1.39c0-0.54-0.19-1-0.58-1.38
			c-0.38-0.39-0.84-0.58-1.38-0.58h-5.58c-1.77,0-3.28-0.62-4.54-1.89c-1.26-1.25-1.89-2.77-1.89-4.55c0-1.77,0.63-3.29,1.89-4.55
			c1.26-1.26,2.77-1.89,4.54-1.89h9.77c0.61,0,1.15,0.22,1.59,0.67c0.44,0.43,0.65,0.96,0.65,1.58c0,0.61-0.21,1.14-0.65,1.58
			c-0.44,0.43-0.97,0.65-1.59,0.65h-9.77C287.3,510.3,286.84,510.49,286.46,510.88z M73.89,105.38c0-1.2,0.97-2.18,2.18-2.18
			c2.79,0,5.05-2.27,5.05-5.06c0-1.21,0.98-2.19,2.18-2.19s2.18,0.98,2.18,2.19c0,2.79,2.27,5.06,5.05,5.06
			c1.2,0,2.18,0.98,2.18,2.18c0,1.21-0.97,2.19-2.18,2.19c-2.79,0-5.05,2.27-5.05,5.06c0,1.2-0.98,2.18-2.18,2.18
			s-2.18-0.98-2.18-2.18c0-2.79-2.27-5.06-5.05-5.06C74.86,107.56,73.89,106.58,73.89,105.38z M68.94,172.42
			c0-1.21,0.97-2.19,2.18-2.19c2.79,0,5.05-2.27,5.05-5.06c0-1.21,0.98-2.19,2.18-2.19s2.18,0.98,2.18,2.19
			c0,2.79,2.27,5.06,5.05,5.06c1.2,0,2.18,0.98,2.18,2.19c0,1.2-0.97,2.18-2.18,2.18c-2.79,0-5.05,2.27-5.05,5.06
			c0,1.21-0.98,2.19-2.18,2.19s-2.18-0.98-2.18-2.19c0-2.79-2.27-5.06-5.05-5.06C69.92,174.6,68.94,173.62,68.94,172.42z
			 M62.28,220.97c1.2,0,2.18,0.98,2.18,2.19c0,2.79,2.27,5.06,5.05,5.06c1.21,0,2.18,0.98,2.18,2.18c0,1.21-0.97,2.19-2.18,2.19
			c-2.79,0-5.05,2.27-5.05,5.06c0,1.21-0.97,2.19-2.18,2.19c-1.21,0-2.18-0.98-2.18-2.19c0-2.79-2.27-5.06-5.05-5.06
			c-1.2,0-2.18-0.98-2.18-2.19c0-1.2,0.98-2.18,2.18-2.18c2.79,0,5.05-2.27,5.05-5.06C60.09,221.95,61.07,220.97,62.28,220.97z
			 M75.29,436.72c0,1.21-0.98,2.19-2.18,2.19c-2.79,0-5.05,2.27-5.05,5.06c0,1.21-0.98,2.19-2.18,2.19s-2.18-0.98-2.18-2.19
			c0-2.79-2.27-5.06-5.05-5.06c-1.2,0-2.18-0.98-2.18-2.19c0-1.2,0.98-2.18,2.18-2.18c2.79,0,5.05-2.27,5.05-5.06
			c0-1.21,0.97-2.19,2.18-2.19c1.21,0,2.18,0.98,2.18,2.19c0,2.79,2.27,5.06,5.05,5.06C74.31,434.54,75.29,435.52,75.29,436.72z
			 M263.58,436.72c0,1.21-0.97,2.19-2.18,2.19c-2.79,0-5.05,2.27-5.05,5.06c0,1.21-0.98,2.19-2.18,2.19s-2.18-0.98-2.18-2.19
			c0-2.79-2.27-5.06-5.05-5.06c-1.2,0-2.18-0.98-2.18-2.19c0-1.2,0.97-2.18,2.18-2.18c2.79,0,5.05-2.27,5.05-5.06
			c0-1.21,0.98-2.19,2.18-2.19s2.18,0.98,2.18,2.19c0,2.79,2.27,5.06,5.05,5.06C262.61,434.54,263.58,435.52,263.58,436.72z
			 M119.83,463.1c0,1.21-0.97,2.19-2.18,2.19c-2.79,0-5.05,2.27-5.05,5.06c0,1.2-0.98,2.18-2.18,2.18s-2.18-0.98-2.18-2.18
			c0-2.79-2.27-5.06-5.05-5.06c-1.2,0-2.18-0.98-2.18-2.19c0-1.2,0.97-2.18,2.18-2.18c2.79,0,5.05-2.27,5.05-5.06
			c0-1.21,0.98-2.19,2.18-2.19s2.18,0.98,2.18,2.19c0,2.79,2.27,5.06,5.05,5.06C118.86,460.92,119.83,461.9,119.83,463.1z
			 M218.7,463.1c0,1.21-0.97,2.19-2.18,2.19c-2.79,0-5.05,2.27-5.05,5.06c0,1.2-0.98,2.18-2.18,2.18s-2.18-0.98-2.18-2.18
			c0-2.79-2.27-5.06-5.05-5.06c-1.21,0-2.18-0.98-2.18-2.19c0-1.2,0.97-2.18,2.18-2.18c2.78,0,5.05-2.27,5.05-5.06
			c0-1.21,0.97-2.19,2.18-2.19s2.18,0.98,2.18,2.19c0,2.79,2.27,5.06,5.05,5.06C217.72,460.92,218.7,461.9,218.7,463.1z
			 M251.65,228.22c2.78,0,5.05-2.27,5.05-5.06c0-1.21,0.97-2.19,2.18-2.19s2.18,0.98,2.18,2.19c0,2.79,2.27,5.06,5.05,5.06
			c1.2,0,2.18,0.98,2.18,2.18c0,1.21-0.98,2.19-2.18,2.19c-2.79,0-5.05,2.27-5.05,5.06c0,1.21-0.98,2.19-2.18,2.19
			s-2.18-0.98-2.18-2.19c0-2.79-2.27-5.06-5.05-5.06c-1.21,0-2.18-0.98-2.18-2.19C249.46,229.2,250.44,228.22,251.65,228.22z
			 M248.55,170.23c1.21,0,2.18,0.98,2.18,2.19c0,1.2-0.97,2.18-2.18,2.18c-2.79,0-5.05,2.27-5.05,5.06c0,1.21-0.97,2.19-2.18,2.19
			c-1.21,0-2.18-0.98-2.18-2.19c0-2.79-2.27-5.06-5.05-5.06c-1.2,0-2.18-0.98-2.18-2.18c0-1.21,0.98-2.19,2.18-2.19
			c2.79,0,5.05-2.27,5.05-5.06c0-1.21,0.97-2.19,2.18-2.19c1.2,0,2.18,0.98,2.18,2.19C243.5,167.96,245.77,170.23,248.55,170.23z
			 M227.27,105.38c0-1.2,0.98-2.18,2.18-2.18c2.79,0,5.05-2.27,5.05-5.06c0-1.21,0.97-2.19,2.18-2.19c1.21,0,2.18,0.98,2.18,2.19
			c0,2.79,2.27,5.06,5.05,5.06c1.2,0,2.18,0.98,2.18,2.18c0,1.21-0.98,2.19-2.18,2.19c-2.79,0-5.05,2.27-5.05,5.06
			c0,1.2-0.97,2.18-2.18,2.18c-1.2,0-2.18-0.98-2.18-2.18c0-2.79-2.27-5.06-5.05-5.06C228.24,107.56,227.27,106.58,227.27,105.38z
			 M152.79,84.32c2.78,0,5.05-2.27,5.05-5.06c0-1.21,0.97-2.18,2.18-2.18s2.18,0.97,2.18,2.18c0,2.79,2.27,5.06,5.05,5.06
			c1.2,0,2.18,0.98,2.18,2.19c0,1.21-0.98,2.18-2.18,2.18c-2.79,0-5.05,2.27-5.05,5.06c0,1.21-0.98,2.19-2.18,2.19
			s-2.18-0.98-2.18-2.19c0-2.79-2.27-5.06-5.05-5.06c-1.21,0-2.18-0.97-2.18-2.18C150.6,85.3,151.58,84.32,152.79,84.32z"/>
	</g>
</g>
</svg>
