<svg xmlns="http://www.w3.org/2000/svg" xmlns:xlink="http://www.w3.org/1999/xlink" width="1080" zoomAndPan="magnify" viewBox="0 0 810 809.999993" height="1080" preserveAspectRatio="xMidYMid meet" version="1.0"><defs><clipPath id="7b7d9044c5"><path d="M 278.097656 203.265625 L 520.347656 203.265625 L 520.347656 615.765625 L 278.097656 615.765625 Z M 278.097656 203.265625 " clip-rule="nonzero"/></clipPath></defs><g clip-path="url(#7b7d9044c5)"><path fill="currentColor" d="M 516.253906 207.46875 C 513.632812 204.851562 510.148438 203.410156 506.4375 203.410156 L 291.96875 203.410156 C 288.261719 203.410156 284.777344 204.851562 282.152344 207.46875 C 279.53125 210.085938 278.085938 213.566406 278.085938 217.265625 L 278.085938 601.765625 C 278.085938 605.464844 279.53125 608.945312 282.152344 611.5625 C 284.777344 614.179688 288.261719 615.621094 291.96875 615.621094 L 506.4375 615.621094 C 510.148438 615.621094 513.632812 614.179688 516.253906 611.5625 C 518.878906 608.945312 520.320312 605.464844 520.320312 601.765625 L 520.320312 217.265625 C 520.320312 213.566406 518.878906 210.085938 516.253906 207.46875 Z M 516.742188 409.515625 L 516.742188 601.765625 C 516.742188 604.605469 515.589844 607.175781 513.726562 609.039062 C 511.859375 610.898438 509.285156 612.050781 506.4375 612.050781 L 291.96875 612.050781 C 289.125 612.050781 286.550781 610.898438 284.683594 609.039062 C 282.820312 607.175781 281.664062 604.605469 281.664062 601.765625 L 281.664062 217.265625 C 281.664062 214.425781 282.820312 211.855469 284.683594 209.992188 C 286.546875 208.132812 289.125 206.980469 291.96875 206.980469 L 506.4375 206.980469 C 509.285156 206.980469 511.859375 208.132812 513.726562 209.992188 C 515.589844 211.855469 516.742188 214.425781 516.742188 217.265625 Z M 321.746094 584.167969 C 322.128906 584.554688 322.320312 585.015625 322.320312 585.558594 L 322.320312 594.171875 C 322.320312 596.414062 321.523438 598.324219 319.929688 599.910156 C 318.34375 601.5 316.429688 602.296875 314.179688 602.296875 C 311.9375 602.296875 310.019531 601.5 308.433594 599.910156 C 306.839844 598.324219 306.042969 596.414062 306.042969 594.171875 C 306.042969 593.628906 306.234375 593.167969 306.617188 592.78125 C 307.003906 592.398438 307.46875 592.207031 308.019531 592.207031 C 308.5625 592.207031 309.027344 592.398438 309.410156 592.78125 C 309.796875 593.167969 309.988281 593.628906 309.988281 594.171875 C 309.988281 595.328125 310.394531 596.316406 311.214844 597.132812 C 312.03125 597.949219 313.019531 598.359375 314.179688 598.359375 C 315.335938 598.359375 316.320312 597.949219 317.136719 597.132812 C 317.964844 596.316406 318.375 595.328125 318.375 594.171875 L 318.375 587.519531 L 314.179688 587.519531 C 313.636719 587.519531 313.171875 587.328125 312.777344 586.945312 C 312.394531 586.5625 312.203125 586.097656 312.203125 585.558594 C 312.203125 585.015625 312.394531 584.554688 312.777344 584.167969 C 313.171875 583.78125 313.636719 583.582031 314.179688 583.582031 L 320.34375 583.582031 C 320.886719 583.582031 321.355469 583.777344 321.746094 584.167969 Z M 343.222656 584.167969 C 343.605469 584.554688 343.800781 585.015625 343.800781 585.558594 L 343.800781 594.171875 C 343.800781 596.414062 343 598.324219 341.40625 599.910156 C 339.820312 601.5 337.90625 602.296875 335.660156 602.296875 C 333.414062 602.296875 331.496094 601.5 329.910156 599.910156 C 328.316406 598.324219 327.519531 596.414062 327.519531 594.171875 L 327.519531 585.558594 C 327.519531 585.015625 327.710938 584.554688 328.09375 584.167969 C 328.476562 583.78125 328.945312 583.582031 329.496094 583.582031 C 330.039062 583.582031 330.503906 583.777344 330.886719 584.167969 C 331.269531 584.554688 331.464844 585.015625 331.464844 585.558594 L 331.464844 594.171875 C 331.464844 595.328125 331.871094 596.316406 332.691406 597.132812 C 333.507812 597.949219 334.496094 598.359375 335.660156 598.359375 C 336.8125 598.359375 337.796875 597.949219 338.613281 597.132812 C 339.441406 596.316406 339.855469 595.328125 339.855469 594.171875 L 339.855469 585.558594 C 339.855469 585.015625 340.046875 584.554688 340.429688 584.167969 C 340.8125 583.78125 341.277344 583.582031 341.820312 583.582031 C 342.363281 583.582031 342.832031 583.777344 343.222656 584.167969 Z M 355.894531 583.582031 L 350.972656 583.582031 C 350.421875 583.582031 349.957031 583.777344 349.570312 584.167969 C 349.1875 584.554688 348.996094 585.015625 348.996094 585.558594 L 348.996094 600.320312 C 348.996094 600.871094 349.1875 601.339844 349.570312 601.722656 C 349.957031 602.105469 350.421875 602.296875 350.972656 602.296875 L 355.894531 602.296875 C 358.484375 602.296875 360.691406 601.382812 362.519531 599.558594 C 364.359375 597.726562 365.277344 595.519531 365.277344 592.945312 C 365.277344 590.363281 364.359375 588.15625 362.519531 586.332031 C 360.691406 584.5 358.484375 583.582031 355.894531 583.582031 Z M 359.742188 596.769531 C 358.679688 597.828125 357.398438 598.359375 355.894531 598.359375 L 352.941406 598.359375 L 352.941406 587.519531 L 355.894531 587.519531 C 357.398438 587.519531 358.679688 588.054688 359.742188 589.121094 C 360.800781 590.179688 361.332031 591.453125 361.332031 592.945312 C 361.332031 594.4375 360.800781 595.710938 359.742188 596.769531 Z M 386.628906 591.519531 C 387.035156 591.914062 387.242188 592.382812 387.242188 592.933594 L 387.242188 592.945312 C 387.242188 595.519531 386.320312 597.726562 384.484375 599.558594 C 382.65625 601.382812 380.449219 602.296875 377.863281 602.296875 C 375.28125 602.296875 373.074219 601.382812 371.238281 599.558594 C 369.410156 597.726562 368.492188 595.519531 368.492188 592.945312 C 368.492188 590.363281 369.410156 588.15625 371.238281 586.332031 C 373.074219 584.5 375.28125 583.582031 377.863281 583.582031 C 380.449219 583.582031 382.65625 584.496094 384.484375 586.320312 C 384.878906 586.703125 385.074219 587.171875 385.074219 587.71875 C 385.074219 588.261719 384.882812 588.726562 384.5 589.109375 C 384.113281 589.492188 383.648438 589.683594 383.097656 589.683594 C 382.554688 589.691406 382.089844 589.5 381.707031 589.109375 C 380.644531 588.050781 379.363281 587.519531 377.863281 587.519531 C 376.367188 587.519531 375.089844 588.054688 374.03125 589.121094 C 372.96875 590.179688 372.4375 591.453125 372.4375 592.945312 C 372.4375 594.4375 372.96875 595.710938 374.03125 596.769531 C 375.089844 597.828125 376.367188 598.359375 377.863281 598.359375 C 378.996094 598.359375 380.027344 598.039062 380.953125 597.394531 C 381.863281 596.761719 382.519531 595.933594 382.917969 594.90625 L 377.863281 594.90625 C 377.320312 594.90625 376.855469 594.71875 376.472656 594.332031 C 376.085938 593.949219 375.894531 593.488281 375.894531 592.945312 C 375.894531 592.402344 376.085938 591.9375 376.472656 591.546875 C 376.855469 591.160156 377.320312 590.96875 377.863281 590.96875 L 385.1875 590.96875 C 385.746094 590.953125 386.226562 591.136719 386.628906 591.519531 Z M 395.394531 587.519531 L 395.394531 590.96875 L 403.28125 590.96875 C 403.824219 590.96875 404.292969 591.160156 404.683594 591.546875 C 405.070312 591.929688 405.261719 592.394531 405.261719 592.945312 C 405.261719 593.488281 405.070312 593.949219 404.683594 594.332031 C 404.292969 594.71875 403.824219 594.90625 403.28125 594.90625 L 395.394531 594.90625 L 395.394531 598.359375 L 405.75 598.359375 C 406.292969 598.359375 406.761719 598.550781 407.152344 598.933594 C 407.535156 599.316406 407.730469 599.78125 407.730469 600.320312 C 407.730469 600.871094 407.535156 601.339844 407.152344 601.722656 C 406.761719 602.105469 406.292969 602.296875 405.75 602.296875 L 393.425781 602.296875 C 392.875 602.296875 392.410156 602.105469 392.023438 601.722656 C 391.640625 601.339844 391.449219 600.871094 391.449219 600.320312 L 391.449219 585.558594 C 391.449219 585.015625 391.640625 584.554688 392.023438 584.167969 C 392.410156 583.777344 392.875 583.582031 393.425781 583.582031 L 405.75 583.582031 C 406.292969 583.582031 406.761719 583.777344 407.152344 584.167969 C 407.535156 584.554688 407.730469 585.015625 407.730469 585.558594 C 407.730469 586.097656 407.535156 586.5625 407.152344 586.945312 C 406.761719 587.328125 406.292969 587.519531 405.75 587.519531 Z M 430.34375 584.457031 C 430.570312 584.789062 430.683594 585.15625 430.683594 585.558594 L 430.683594 600.320312 C 430.683594 600.871094 430.488281 601.339844 430.09375 601.722656 C 429.710938 602.105469 429.246094 602.296875 428.703125 602.296875 C 428.160156 602.296875 427.699219 602.105469 427.316406 601.722656 C 426.929688 601.339844 426.738281 600.871094 426.738281 600.320312 L 426.738281 590.308594 L 422.707031 594.332031 C 422.324219 594.71875 421.855469 594.90625 421.304688 594.90625 C 420.761719 594.90625 420.296875 594.71875 419.914062 594.332031 L 415.882812 590.308594 L 415.882812 600.320312 C 415.882812 600.871094 415.6875 601.339844 415.304688 601.722656 C 414.921875 602.105469 414.457031 602.296875 413.914062 602.296875 C 413.363281 602.296875 412.898438 602.105469 412.511719 601.722656 C 412.128906 601.339844 411.9375 600.871094 411.9375 600.320312 L 411.9375 585.558594 C 411.9375 585.15625 412.050781 584.789062 412.273438 584.457031 C 412.492188 584.132812 412.785156 583.890625 413.152344 583.734375 C 413.519531 583.582031 413.898438 583.546875 414.292969 583.621094 C 414.683594 583.703125 415.019531 583.886719 415.304688 584.167969 L 421.304688 590.160156 L 427.316406 584.167969 C 427.597656 583.886719 427.933594 583.703125 428.316406 583.621094 C 428.710938 583.546875 429.089844 583.582031 429.457031 583.734375 C 429.832031 583.890625 430.128906 584.132812 430.34375 584.457031 Z M 439.8125 587.519531 L 439.8125 590.96875 L 447.703125 590.96875 C 448.246094 590.96875 448.710938 591.160156 449.105469 591.546875 C 449.488281 591.929688 449.679688 592.394531 449.679688 592.945312 C 449.679688 593.488281 449.488281 593.949219 449.105469 594.332031 C 448.710938 594.71875 448.246094 594.90625 447.703125 594.90625 L 439.8125 594.90625 L 439.8125 598.359375 L 450.167969 598.359375 C 450.710938 598.359375 451.179688 598.550781 451.574219 598.933594 C 451.957031 599.316406 452.148438 599.78125 452.148438 600.320312 C 452.148438 600.871094 451.957031 601.339844 451.574219 601.722656 C 451.179688 602.105469 450.710938 602.296875 450.167969 602.296875 L 437.847656 602.296875 C 437.296875 602.296875 436.828125 602.105469 436.445312 601.722656 C 436.058594 601.339844 435.867188 600.871094 435.867188 600.320312 L 435.867188 585.558594 C 435.867188 585.015625 436.058594 584.554688 436.445312 584.167969 C 436.828125 583.777344 437.296875 583.582031 437.847656 583.582031 L 450.167969 583.582031 C 450.710938 583.582031 451.179688 583.777344 451.574219 584.167969 C 451.957031 584.554688 452.148438 585.015625 452.148438 585.558594 C 452.148438 586.097656 451.957031 586.5625 451.574219 586.945312 C 451.179688 587.328125 450.710938 587.519531 450.167969 587.519531 Z M 472.058594 584.167969 C 472.445312 584.554688 472.636719 585.015625 472.636719 585.558594 L 472.636719 600.320312 C 472.636719 600.738281 472.515625 601.117188 472.273438 601.457031 C 472.039062 601.800781 471.726562 602.042969 471.332031 602.183594 C 471.117188 602.257812 470.890625 602.296875 470.65625 602.296875 C 470.039062 602.296875 469.535156 602.058594 469.140625 601.582031 L 460.300781 590.996094 L 460.300781 600.320312 C 460.300781 600.871094 460.109375 601.339844 459.722656 601.722656 C 459.339844 602.105469 458.875 602.296875 458.332031 602.296875 C 457.78125 602.296875 457.316406 602.105469 456.933594 601.722656 C 456.546875 601.339844 456.355469 600.871094 456.355469 600.320312 L 456.355469 585.558594 C 456.355469 585.140625 456.476562 584.761719 456.71875 584.417969 C 456.953125 584.085938 457.265625 583.847656 457.660156 583.707031 C 458.050781 583.566406 458.445312 583.550781 458.847656 583.660156 C 459.25 583.765625 459.582031 583.980469 459.847656 584.296875 L 468.691406 594.882812 L 468.691406 585.558594 C 468.691406 585.015625 468.882812 584.554688 469.269531 584.167969 C 469.652344 583.78125 470.113281 583.582031 470.65625 583.582031 C 471.199219 583.582031 471.667969 583.777344 472.058594 584.167969 Z M 492.046875 584.167969 C 492.429688 584.554688 492.621094 585.015625 492.621094 585.558594 C 492.621094 586.097656 492.429688 586.5625 492.046875 586.945312 C 491.652344 587.328125 491.1875 587.519531 490.644531 587.519531 L 486.449219 587.519531 L 486.449219 600.320312 C 486.449219 600.871094 486.257812 601.339844 485.871094 601.722656 C 485.488281 602.105469 485.023438 602.296875 484.480469 602.296875 C 483.941406 602.296875 483.472656 602.105469 483.078125 601.722656 C 482.695312 601.339844 482.503906 600.871094 482.503906 600.320312 L 482.503906 587.519531 L 478.320312 587.519531 C 477.769531 587.519531 477.300781 587.328125 476.917969 586.945312 C 476.535156 586.5625 476.34375 586.097656 476.34375 585.558594 C 476.34375 585.015625 476.535156 584.554688 476.917969 584.167969 C 477.304688 583.78125 477.769531 583.582031 478.320312 583.582031 L 490.644531 583.582031 C 491.1875 583.582031 491.65625 583.777344 492.046875 584.167969 Z M 352.832031 538.167969 L 445.578125 538.167969 C 446.566406 538.167969 447.367188 538.96875 447.367188 539.953125 C 447.367188 540.941406 446.566406 541.738281 445.578125 541.738281 L 352.832031 541.738281 C 351.84375 541.738281 351.042969 540.941406 351.042969 539.953125 C 351.042969 538.96875 351.84375 538.167969 352.832031 538.167969 Z M 430.976562 549.835938 C 431.964844 549.835938 432.765625 550.636719 432.765625 551.621094 C 432.765625 552.609375 431.964844 553.40625 430.976562 553.40625 L 367.429688 553.40625 C 366.445312 553.40625 365.640625 552.609375 365.640625 551.621094 C 365.640625 550.636719 366.445312 549.835938 367.429688 549.835938 Z M 510.773438 217.265625 C 510.773438 216.109375 510.320312 215.023438 509.5 214.203125 C 508.679688 213.382812 507.589844 212.933594 506.429688 212.933594 L 291.964844 212.933594 C 290.804688 212.933594 289.714844 213.382812 288.894531 214.203125 C 288.074219 215.023438 287.621094 216.109375 287.621094 217.269531 L 287.621094 405.976562 C 287.46875 406.382812 287.464844 406.828125 287.621094 407.238281 L 287.621094 570.125 C 287.652344 571.785156 289.003906 573.125 290.675781 573.125 L 507.628906 573.125 C 509.320312 573.125 510.789062 571.65625 510.789062 569.972656 L 510.773438 409.515625 L 510.773438 257.925781 C 510.867188 257.652344 510.941406 257.40625 510.96875 257.238281 C 511.035156 256.832031 510.953125 256.445312 510.773438 256.117188 Z M 507.195312 263.851562 C 507.023438 263.878906 506.851562 263.925781 506.691406 264.007812 L 455.800781 289.289062 C 454.914062 289.730469 454.554688 290.800781 454.996094 291.683594 C 455.304688 292.3125 455.941406 292.671875 456.597656 292.671875 C 456.867188 292.671875 457.136719 292.613281 457.394531 292.484375 L 507.195312 267.742188 L 507.195312 307.75 L 465.421875 312.257812 C 464.441406 312.363281 463.730469 313.246094 463.835938 314.222656 C 463.933594 315.140625 464.710938 315.820312 465.609375 315.820312 C 465.675781 315.820312 465.738281 315.816406 465.804688 315.808594 L 507.195312 311.339844 L 507.195312 347.421875 L 466.914062 337.160156 C 465.953125 336.914062 464.980469 337.492188 464.738281 338.449219 C 464.492188 339.40625 465.070312 340.378906 466.027344 340.621094 L 507.195312 351.109375 L 507.195312 398.070312 L 467.261719 368.039062 C 466.472656 367.445312 465.351562 367.601562 464.753906 368.390625 C 464.160156 369.179688 464.320312 370.296875 465.109375 370.890625 L 506.898438 402.324219 C 506.992188 402.390625 507.09375 402.429688 507.195312 402.476562 L 507.195312 409.515625 L 507.203125 490.742188 L 464.859375 419.980469 C 464.351562 419.136719 463.253906 418.859375 462.40625 419.363281 C 461.558594 419.871094 461.28125 420.964844 461.789062 421.8125 L 505.707031 495.214844 L 451.84375 495.214844 L 451.84375 402.402344 C 452 401 452.960938 389.390625 444.101562 379.339844 C 435.671875 369.769531 421.351562 364.917969 401.535156 364.917969 L 399.203125 364.917969 C 379.375 364.917969 364.9375 369.777344 356.300781 379.355469 C 347.210938 389.441406 347.957031 401.082031 348.074219 402.382812 L 348.074219 495.210938 L 293.019531 495.210938 L 339.457031 422.429688 C 339.988281 421.597656 339.742188 420.492188 338.910156 419.964844 C 338.078125 419.4375 336.972656 419.675781 336.4375 420.511719 L 291.199219 491.417969 L 291.199219 407.375 L 329.328125 377.148438 C 330.101562 376.535156 330.230469 375.414062 329.617188 374.640625 C 329.003906 373.871094 327.875 373.742188 327.105469 374.351562 L 291.199219 402.816406 L 291.199219 355.097656 L 330.878906 343.175781 C 331.824219 342.890625 332.359375 341.894531 332.074219 340.949219 C 331.789062 340.003906 330.792969 339.472656 329.847656 339.753906 L 291.199219 351.371094 L 291.199219 314.796875 L 332.785156 318.382812 C 332.839844 318.386719 332.890625 318.390625 332.941406 318.390625 C 333.859375 318.390625 334.640625 317.6875 334.722656 316.757812 C 334.808594 315.777344 334.078125 314.910156 333.09375 314.828125 L 291.199219 311.214844 L 291.199219 272.097656 L 338.1875 294.21875 C 338.433594 294.332031 338.691406 294.386719 338.949219 294.386719 C 339.621094 294.386719 340.261719 294.011719 340.570312 293.363281 C 340.992188 292.472656 340.605469 291.410156 339.714844 290.988281 L 291.769531 268.414062 C 291.585938 268.328125 291.390625 268.28125 291.199219 268.261719 L 291.199219 260.222656 C 293.214844 262.242188 295.589844 263.574219 298.304688 264.171875 C 304.171875 265.453125 309.921875 262.964844 312.394531 261.667969 C 319.328125 268.242188 326.746094 271.574219 334.46875 271.574219 C 334.480469 271.574219 334.488281 271.574219 334.5 271.574219 C 336.90625 271.570312 339.160156 271.238281 341.234375 270.714844 C 350.652344 282.71875 358 292.738281 363.042969 300.484375 C 374.484375 318.050781 375.8125 330.191406 375.867188 330.734375 C 375.945312 331.402344 376.359375 331.972656 376.972656 332.257812 C 377.167969 332.347656 377.414062 332.390625 377.699219 332.390625 C 380.777344 332.390625 388.566406 327.59375 388.648438 327.539062 C 392.265625 325.175781 395.648438 322.535156 398.707031 319.695312 C 401.28125 317.296875 403.683594 314.699219 405.839844 311.984375 C 406.171875 311.5625 406.527344 311.128906 406.898438 310.679688 C 409.429688 307.601562 412.582031 303.769531 412.445312 299.460938 C 412.445312 298.574219 411.777344 297.816406 410.902344 297.691406 C 410.378906 297.613281 397.921875 295.691406 381.164062 283.515625 C 375.648438 279.511719 369.613281 274.589844 363.75 269.632812 C 368.375 270.046875 372.539062 268.234375 374.859375 266.910156 C 378.058594 273.746094 384.457031 278.324219 392.761719 279.601562 C 394.179688 279.820312 395.535156 279.921875 396.84375 279.921875 C 409.160156 279.921875 416.597656 270.9375 419.277344 266.976562 C 424.039062 270.554688 429.058594 272.152344 434.226562 271.738281 C 437.476562 271.476562 440.378906 270.441406 442.816406 269.164062 L 430.285156 282.851562 C 429.617188 283.578125 429.671875 284.707031 430.398438 285.375 C 430.742188 285.6875 431.175781 285.84375 431.605469 285.84375 C 432.089844 285.84375 432.574219 285.648438 432.925781 285.261719 L 451.078125 265.4375 C 456.179688 269.621094 461.710938 271.757812 467.578125 271.757812 C 467.585938 271.757812 467.589844 271.757812 467.59375 271.757812 C 477.515625 271.753906 485.320312 265.699219 487.890625 263.4375 C 495.011719 266.257812 500.90625 266.4375 505.414062 263.96875 C 506.089844 263.601562 506.664062 263.191406 507.195312 262.765625 Z M 425.085938 440.613281 C 422.453125 441.460938 422.082031 446.914062 421.652344 449.1875 C 421.390625 450.542969 419.085938 458.675781 416.605469 457.4375 C 415.425781 456.472656 417.84375 451.59375 418.539062 448.222656 C 419.058594 445.691406 419.710938 440.605469 419.933594 438.042969 C 420.160156 435.402344 420.683594 423.210938 415.960938 427.328125 C 413.816406 429.199219 414.144531 433.570312 413.921875 436.007812 C 413.667969 438.769531 412.714844 443.105469 412.3125 445.863281 C 411.96875 448.21875 409.117188 455.820312 407.804688 455.292969 C 406.109375 454.320312 408.40625 447.964844 408.769531 444.257812 C 409.078125 441.109375 408.984375 437.21875 409.308594 434.078125 C 409.542969 431.78125 409.042969 419.875 403.832031 423.042969 C 401.363281 424.542969 402.824219 429.863281 402.4375 432.578125 C 401.96875 435.875 401.847656 441.675781 401.042969 444.898438 C 399.859375 449.613281 397.316406 460.230469 395.03125 453.152344 C 392.96875 446.765625 391.730469 440.472656 390.953125 434.71875 C 390.675781 432.6875 389.664062 426.898438 386.335938 427.21875 C 383.074219 427.535156 383.460938 433.511719 383.652344 435.578125 C 384.339844 442.929688 385.097656 447.457031 386.53125 454.160156 C 387.265625 457.601562 386.375 462.386719 386.121094 465.902344 C 386.0625 466.71875 385.136719 473.886719 384.832031 473.507812 C 384.046875 472.53125 379.671875 467.523438 379.464844 466.117188 C 379.140625 463.890625 379.722656 460.863281 379.679688 458.613281 C 379.621094 455.351562 376.121094 447.78125 374.527344 454.4375 C 373.933594 456.917969 373.390625 458.757812 372.136719 461.066406 C 370.628906 463.84375 371.167969 465.507812 371.335938 468.632812 C 371.617188 473.828125 374.113281 477.5 377.535156 481.867188 C 380.542969 485.707031 383.761719 489.089844 386.816406 492.882812 C 387.410156 493.621094 387.890625 494.40625 388.300781 495.214844 L 351.648438 495.214844 L 351.648438 402.296875 L 351.640625 402.113281 C 351.628906 402.003906 350.621094 390.957031 359.007812 381.695312 C 366.941406 372.933594 380.46875 368.488281 399.203125 368.488281 L 401.535156 368.488281 C 422.769531 368.488281 438.632812 385.296875 438.632812 400.324219 L 438.632812 495.214844 L 414.410156 495.214844 C 415.113281 492.84375 415.867188 490.46875 416.320312 488.070312 C 417.234375 483.246094 418.46875 478.421875 419.21875 473.589844 C 419.734375 470.253906 420.191406 466.449219 421.867188 463.542969 C 424.640625 458.726562 427.058594 454.8125 427.234375 449.078125 C 427.300781 446.898438 427.769531 439.75 425.085938 440.613281 Z M 352.875 265.023438 C 353.957031 265.960938 355.0625 266.914062 356.183594 267.875 L 354.429688 269.625 C 353.730469 270.320312 353.730469 271.453125 354.429688 272.148438 C 354.78125 272.496094 355.238281 272.671875 355.695312 272.671875 C 356.152344 272.671875 356.613281 272.496094 356.960938 272.148438 L 358.902344 270.210938 C 359.839844 271.011719 360.789062 271.8125 361.738281 272.613281 L 359.867188 274.480469 C 359.167969 275.175781 359.167969 276.308594 359.867188 277.007812 C 360.21875 277.355469 360.675781 277.53125 361.132812 277.53125 C 361.589844 277.53125 362.050781 277.355469 362.398438 277.007812 L 364.488281 274.917969 C 365.335938 275.625 366.175781 276.320312 367.023438 277.011719 L 364.566406 279.292969 C 363.84375 279.964844 363.804688 281.09375 364.476562 281.816406 C 364.828125 282.195312 365.304688 282.386719 365.785156 282.386719 C 366.222656 282.386719 366.660156 282.230469 367.003906 281.910156 L 369.824219 279.292969 C 370.574219 279.898438 371.324219 280.5 372.070312 281.085938 L 369.53125 283.625 C 368.832031 284.324219 368.832031 285.453125 369.53125 286.148438 C 369.878906 286.5 370.335938 286.671875 370.792969 286.671875 C 371.25 286.671875 371.710938 286.5 372.058594 286.148438 L 374.914062 283.300781 C 375.777344 283.960938 376.625 284.597656 377.46875 285.226562 L 374.867188 287.65625 C 374.144531 288.332031 374.109375 289.460938 374.785156 290.179688 C 375.136719 290.558594 375.613281 290.746094 376.089844 290.746094 C 376.527344 290.746094 376.96875 290.585938 377.3125 290.265625 L 380.414062 287.363281 C 381.394531 288.054688 382.359375 288.714844 383.308594 289.339844 L 380.503906 292.027344 C 379.789062 292.710938 379.765625 293.84375 380.453125 294.554688 C 380.804688 294.917969 381.273438 295.101562 381.742188 295.101562 C 382.1875 295.101562 382.636719 294.9375 382.980469 294.605469 L 386.414062 291.316406 C 387.417969 291.929688 388.402344 292.503906 389.359375 293.046875 L 386.289062 296.039062 C 385.582031 296.730469 385.570312 297.859375 386.257812 298.566406 C 386.609375 298.921875 387.074219 299.101562 387.539062 299.101562 C 387.988281 299.101562 388.441406 298.933594 388.789062 298.59375 L 392.582031 294.898438 C 392.609375 294.871094 392.617188 294.835938 392.640625 294.808594 C 400.25 298.714844 405.988281 300.316406 408.726562 300.914062 C 408.15625 303.519531 405.953125 306.199219 404.128906 308.417969 C 403.746094 308.882812 403.378906 309.332031 403.035156 309.765625 C 400.988281 312.34375 398.710938 314.804688 396.265625 317.082031 C 393.355469 319.789062 390.132812 322.300781 386.691406 324.546875 C 385.816406 325.101562 381.480469 327.429688 379.125 328.433594 C 378.3125 324.132812 375.457031 312.992188 366.039062 298.539062 C 361.085938 290.933594 353.949219 281.171875 344.855469 269.542969 C 348.335938 268.175781 351.078125 266.390625 352.875 265.023438 Z M 291.421875 216.726562 C 291.570312 216.582031 291.753906 216.503906 291.964844 216.503906 L 506.429688 216.503906 C 506.640625 216.503906 506.820312 216.582031 506.972656 216.730469 C 507.117188 216.875 507.195312 217.058594 507.195312 217.265625 L 507.195312 257.277344 C 506.746094 258.207031 505.652344 259.820312 503.535156 260.925781 C 499.871094 262.835938 494.574219 262.417969 488.214844 259.710938 C 487.542969 259.421875 486.761719 259.574219 486.246094 260.09375 C 486.164062 260.175781 478.0625 268.183594 467.59375 268.1875 C 467.585938 268.1875 467.582031 268.1875 467.578125 268.1875 C 461.617188 268.1875 455.984375 265.578125 450.832031 260.425781 C 450.480469 260.070312 449.996094 259.875 449.492188 259.902344 C 448.992188 259.921875 448.519531 260.152344 448.199219 260.535156 C 448.140625 260.605469 442.246094 267.507812 433.933594 268.179688 C 429.164062 268.5625 424.476562 266.8125 419.988281 262.960938 C 419.574219 262.609375 419.019531 262.460938 418.484375 262.566406 C 417.949219 262.667969 417.488281 263.011719 417.234375 263.492188 C 416.914062 264.109375 409.199219 278.527344 393.277344 276.070312 C 388.730469 275.371094 380.617188 272.824219 377.390625 263.65625 C 377.199219 263.117188 376.761719 262.699219 376.214844 262.535156 C 375.664062 262.375 375.066406 262.480469 374.613281 262.832031 C 374.5625 262.871094 369.242188 266.871094 363.472656 266.035156 C 360.386719 265.589844 357.679688 263.792969 355.425781 260.695312 C 355.121094 260.273438 354.640625 260.007812 354.121094 259.964844 C 353.601562 259.929688 353.082031 260.113281 352.710938 260.484375 C 352.664062 260.53125 347.996094 265.132812 340.902344 267.105469 C 331.539062 269.707031 322.472656 266.710938 313.945312 258.1875 C 313.351562 257.597656 312.421875 257.492188 311.710938 257.949219 C 311.648438 257.988281 305.230469 262.03125 299.074219 260.683594 C 296.109375 260.035156 293.644531 258.195312 291.738281 255.214844 C 291.597656 254.992188 291.410156 254.816406 291.199219 254.679688 L 291.199219 217.265625 C 291.199219 217.058594 291.273438 216.875 291.421875 216.726562 Z M 291.199219 569.550781 L 291.199219 563.550781 L 310.183594 563.550781 C 311.171875 563.550781 311.972656 562.75 311.972656 561.765625 C 311.972656 560.78125 311.171875 559.980469 310.183594 559.980469 L 291.199219 559.980469 L 291.199219 542.121094 L 321.773438 542.121094 C 322.761719 542.121094 323.5625 541.320312 323.5625 540.335938 C 323.5625 539.347656 322.761719 538.546875 321.773438 538.546875 L 291.199219 538.546875 L 291.199219 530.546875 L 310.613281 530.546875 C 311.601562 530.546875 312.402344 529.75 312.402344 528.761719 C 312.402344 527.777344 311.601562 526.976562 310.613281 526.976562 L 291.199219 526.976562 L 291.199219 518.976562 L 336.804688 518.976562 C 337.792969 518.976562 338.59375 518.175781 338.59375 517.1875 C 338.59375 516.203125 337.792969 515.402344 336.804688 515.402344 L 291.199219 515.402344 L 291.199219 509.453125 L 368.148438 509.453125 C 369.136719 509.453125 369.9375 508.652344 369.9375 507.664062 C 369.9375 506.679688 369.136719 505.878906 368.148438 505.878906 L 291.199219 505.878906 L 291.199219 498.785156 L 389.589844 498.785156 C 390.015625 500.542969 390.234375 502.371094 390.371094 504.21875 C 390.402344 504.628906 390.414062 505.042969 390.445312 505.453125 L 384.03125 505.453125 C 383.046875 505.453125 382.242188 506.253906 382.242188 507.238281 C 382.242188 508.222656 383.046875 509.023438 384.03125 509.023438 L 390.65625 509.023438 C 390.78125 511.445312 390.871094 513.867188 390.910156 516.292969 C 390.816406 516.277344 390.71875 516.261719 390.617188 516.261719 L 367.289062 516.261719 C 366.300781 516.261719 365.5 517.0625 365.5 518.050781 C 365.5 519.035156 366.300781 519.835938 367.289062 519.835938 L 390.617188 519.835938 C 390.734375 519.835938 390.847656 519.820312 390.960938 519.800781 C 390.953125 522.0625 390.886719 524.3125 390.613281 526.574219 C 390.558594 527.027344 390.453125 527.5 390.335938 527.976562 L 374.15625 527.976562 C 373.167969 527.976562 372.367188 528.777344 372.367188 529.765625 C 372.367188 530.75 373.167969 531.550781 374.15625 531.550781 L 427.398438 531.550781 C 428.386719 531.550781 429.1875 530.75 429.1875 529.765625 C 429.1875 528.777344 428.386719 527.976562 427.398438 527.976562 L 413.757812 527.976562 C 413.480469 525.265625 413.25 522.554688 413.089844 519.835938 L 432.550781 519.835938 C 433.539062 519.835938 434.339844 519.035156 434.339844 518.050781 C 434.339844 517.0625 433.539062 516.261719 432.550781 516.261719 L 412.917969 516.261719 C 412.832031 513.910156 412.671875 511.46875 412.605469 509.023438 L 417.523438 509.023438 C 418.511719 509.023438 419.3125 508.222656 419.3125 507.238281 C 419.3125 506.253906 418.511719 505.453125 417.523438 505.453125 L 412.605469 505.453125 C 412.652344 503.992188 412.753906 502.546875 412.96875 501.144531 C 413.089844 500.355469 413.257812 499.570312 413.441406 498.785156 L 507.203125 498.785156 L 507.203125 505.878906 L 433.410156 505.878906 C 432.421875 505.878906 431.621094 506.679688 431.621094 507.667969 C 431.621094 508.652344 432.421875 509.453125 433.410156 509.453125 L 507.203125 509.453125 L 507.203125 516.304688 C 507.085938 516.277344 506.960938 516.261719 506.832031 516.261719 L 462.609375 516.261719 C 461.621094 516.261719 460.816406 517.0625 460.816406 518.050781 C 460.816406 519.035156 461.621094 519.835938 462.609375 519.835938 L 506.832031 519.835938 C 506.960938 519.835938 507.085938 519.820312 507.203125 519.792969 L 507.207031 527.835938 L 490.085938 527.835938 C 489.097656 527.835938 488.296875 528.636719 488.296875 529.621094 C 488.296875 530.605469 489.097656 531.40625 490.085938 531.40625 L 507.207031 531.40625 L 507.207031 538.121094 L 474.628906 538.121094 C 473.640625 538.121094 472.839844 538.921875 472.839844 539.90625 C 472.839844 540.894531 473.640625 541.695312 474.628906 541.695312 L 507.207031 541.695312 L 507.207031 549.695312 L 464.753906 549.695312 C 463.765625 549.695312 462.964844 550.496094 462.964844 551.480469 C 462.964844 552.46875 463.765625 553.265625 464.753906 553.265625 L 507.207031 553.265625 L 507.207031 559.550781 L 491.375 559.550781 C 490.386719 559.550781 489.585938 560.351562 489.585938 561.339844 C 489.585938 562.324219 490.386719 563.125 491.375 563.125 L 507.210938 563.125 L 507.210938 569.554688 L 291.199219 569.554688 Z M 379.90625 242.066406 L 385.015625 235.941406 L 379.90625 229.816406 C 379.554688 229.398438 379.40625 228.917969 379.453125 228.378906 C 379.503906 227.835938 379.738281 227.390625 380.15625 227.039062 C 380.574219 226.6875 381.054688 226.539062 381.597656 226.589844 C 382.140625 226.640625 382.585938 226.875 382.9375 227.289062 L 387.582031 232.867188 L 392.226562 227.289062 C 392.582031 226.875 393.027344 226.640625 393.570312 226.589844 C 394.113281 226.539062 394.589844 226.6875 395.007812 227.039062 C 395.425781 227.390625 395.660156 227.835938 395.710938 228.378906 C 395.761719 228.917969 395.609375 229.398438 395.257812 229.816406 L 390.152344 235.941406 L 395.257812 242.066406 C 395.609375 242.484375 395.761719 242.960938 395.710938 243.503906 C 395.660156 244.046875 395.425781 244.488281 395.007812 244.828125 C 394.640625 245.136719 394.21875 245.289062 393.742188 245.289062 C 393.132812 245.289062 392.628906 245.054688 392.230469 244.578125 L 387.582031 239.015625 L 382.9375 244.578125 C 382.535156 245.054688 382.03125 245.289062 381.421875 245.289062 C 380.9375 245.289062 380.515625 245.136719 380.15625 244.828125 C 379.738281 244.488281 379.507812 244.046875 379.457031 243.503906 C 379.40625 242.960938 379.554688 242.484375 379.90625 242.066406 Z M 400.65625 242.066406 L 405.765625 235.941406 L 400.65625 229.816406 C 400.304688 229.398438 400.15625 228.917969 400.207031 228.378906 C 400.253906 227.835938 400.488281 227.390625 400.90625 227.039062 C 401.324219 226.6875 401.804688 226.539062 402.347656 226.589844 C 402.890625 226.640625 403.335938 226.875 403.6875 227.289062 L 408.332031 232.867188 L 412.980469 227.289062 C 413.332031 226.875 413.777344 226.640625 414.320312 226.589844 C 414.863281 226.539062 415.339844 226.6875 415.757812 227.039062 C 416.175781 227.390625 416.410156 227.835938 416.460938 228.378906 C 416.511719 228.917969 416.359375 229.398438 416.011719 229.816406 L 410.902344 235.941406 L 416.011719 242.066406 C 416.359375 242.484375 416.511719 242.960938 416.460938 243.503906 C 416.410156 244.046875 416.175781 244.488281 415.757812 244.828125 C 415.390625 245.136719 414.972656 245.289062 414.496094 245.289062 C 413.886719 245.289062 413.378906 245.054688 412.980469 244.578125 L 408.332031 239.015625 L 403.6875 244.578125 C 403.285156 245.054688 402.78125 245.289062 402.171875 245.289062 C 401.6875 245.289062 401.265625 245.136719 400.90625 244.828125 C 400.488281 244.488281 400.257812 244.046875 400.207031 243.503906 C 400.15625 242.960938 400.304688 242.484375 400.65625 242.066406 Z M 441.210938 518 C 441.210938 517.015625 442.011719 516.214844 443 516.214844 L 452.160156 516.214844 C 453.148438 516.214844 453.949219 517.015625 453.949219 518 C 453.949219 518.988281 453.148438 519.785156 452.160156 519.785156 L 443 519.785156 C 442.011719 519.785156 441.210938 518.988281 441.210938 518 Z M 344.699219 518.046875 C 344.699219 517.0625 345.5 516.261719 346.488281 516.261719 L 355.648438 516.261719 C 356.636719 516.261719 357.4375 517.0625 357.4375 518.046875 C 357.4375 519.035156 356.636719 519.835938 355.648438 519.835938 L 346.488281 519.835938 C 345.5 519.835938 344.699219 519.035156 344.699219 518.046875 Z M 353.976562 531.40625 L 317.769531 531.40625 C 316.78125 531.40625 315.980469 530.605469 315.980469 529.621094 C 315.980469 528.632812 316.78125 527.835938 317.769531 527.835938 L 353.976562 527.835938 C 354.964844 527.835938 355.765625 528.632812 355.765625 529.621094 C 355.765625 530.605469 354.964844 531.40625 353.976562 531.40625 Z M 446.722656 527.835938 L 480.640625 527.835938 C 481.628906 527.835938 482.429688 528.632812 482.429688 529.621094 C 482.429688 530.605469 481.628906 531.40625 480.640625 531.40625 L 446.722656 531.40625 C 445.734375 531.40625 444.933594 530.605469 444.933594 529.621094 C 444.933594 528.632812 445.734375 527.835938 446.722656 527.835938 Z M 343.460938 537.90625 C 344.445312 537.90625 345.25 538.707031 345.25 539.691406 C 345.25 540.679688 344.445312 541.476562 343.460938 541.476562 L 334.296875 541.476562 C 333.3125 541.476562 332.507812 540.679688 332.507812 539.691406 C 332.507812 538.707031 333.3125 537.90625 334.296875 537.90625 Z M 465.898438 539.691406 C 465.898438 540.679688 465.097656 541.476562 464.109375 541.476562 L 454.949219 541.476562 C 453.960938 541.476562 453.160156 540.679688 453.160156 539.691406 C 453.160156 538.707031 453.960938 537.90625 454.949219 537.90625 L 464.109375 537.90625 C 465.097656 537.90625 465.898438 538.707031 465.898438 539.691406 Z M 453.878906 551.480469 C 453.878906 552.464844 453.078125 553.265625 452.089844 553.265625 L 442.929688 553.265625 C 441.941406 553.265625 441.140625 552.464844 441.140625 551.480469 C 441.140625 550.492188 441.941406 549.695312 442.929688 549.695312 L 452.089844 549.695312 C 453.078125 549.695312 453.878906 550.492188 453.878906 551.480469 Z M 357.628906 549.695312 C 358.617188 549.695312 359.417969 550.492188 359.417969 551.480469 C 359.417969 552.464844 358.617188 553.265625 357.628906 553.265625 L 348.46875 553.265625 C 347.480469 553.265625 346.679688 552.464844 346.679688 551.480469 C 346.679688 550.492188 347.480469 549.695312 348.46875 549.695312 Z M 424.542969 345.253906 C 424.542969 346.164062 423.804688 346.902344 422.894531 346.902344 C 420.785156 346.902344 419.066406 348.613281 419.066406 350.71875 C 419.066406 351.628906 418.328125 352.367188 417.417969 352.367188 C 416.507812 352.367188 415.765625 351.628906 415.765625 350.71875 C 415.765625 348.613281 414.050781 346.902344 411.941406 346.902344 C 411.03125 346.902344 410.292969 346.164062 410.292969 345.253906 C 410.292969 344.34375 411.03125 343.605469 411.941406 343.605469 C 414.050781 343.605469 415.765625 341.894531 415.765625 339.789062 C 415.765625 338.878906 416.507812 338.140625 417.417969 338.140625 C 418.328125 338.140625 419.066406 338.878906 419.066406 339.789062 C 419.066406 341.894531 420.785156 343.605469 422.894531 343.605469 C 423.804688 343.605469 424.542969 344.34375 424.542969 345.253906 Z M 427.761719 319.539062 C 427.761719 320.449219 427.023438 321.1875 426.113281 321.1875 C 424.003906 321.1875 422.285156 322.898438 422.285156 325.003906 C 422.285156 325.914062 421.546875 326.652344 420.636719 326.652344 C 419.722656 326.652344 418.984375 325.914062 418.984375 325.003906 C 418.984375 322.898438 417.269531 321.1875 415.160156 321.1875 C 414.25 321.1875 413.511719 320.449219 413.511719 319.539062 C 413.511719 318.628906 414.25 317.890625 415.160156 317.890625 C 417.269531 317.890625 418.984375 316.175781 418.984375 314.070312 C 418.984375 313.164062 419.726562 312.425781 420.636719 312.425781 C 421.546875 312.425781 422.285156 313.164062 422.285156 314.070312 C 422.285156 316.175781 424.003906 317.890625 426.113281 317.890625 C 427.023438 317.890625 427.761719 318.628906 427.761719 319.539062 Z M 398.78125 343.96875 C 398.78125 344.878906 398.042969 345.617188 397.132812 345.617188 C 395.023438 345.617188 393.304688 347.328125 393.304688 349.433594 C 393.304688 350.34375 392.566406 351.082031 391.65625 351.082031 C 390.746094 351.082031 390.003906 350.34375 390.003906 349.433594 C 390.003906 347.328125 388.289062 345.617188 386.179688 345.617188 C 385.269531 345.617188 384.53125 344.878906 384.53125 343.96875 C 384.53125 343.058594 385.269531 342.320312 386.179688 342.320312 C 388.289062 342.320312 390.003906 340.609375 390.003906 338.503906 C 390.003906 337.59375 390.746094 336.855469 391.65625 336.855469 C 392.566406 336.855469 393.304688 337.59375 393.304688 338.503906 C 393.304688 340.609375 395.023438 342.320312 397.132812 342.320312 C 398.042969 342.320312 398.78125 343.058594 398.78125 343.96875 Z M 336.804688 552.835938 L 293.007812 552.835938 C 292.019531 552.835938 291.21875 552.035156 291.21875 551.050781 C 291.21875 550.0625 292.019531 549.265625 293.007812 549.265625 L 336.804688 549.265625 C 337.792969 549.265625 338.59375 550.0625 338.59375 551.050781 C 338.59375 552.035156 337.792969 552.835938 336.804688 552.835938 Z M 478.996094 561.335938 C 478.996094 562.320312 478.195312 563.121094 477.207031 563.121094 L 322.636719 563.121094 C 321.648438 563.121094 320.84375 562.320312 320.84375 561.335938 C 320.84375 560.351562 321.648438 559.550781 322.636719 559.550781 L 477.207031 559.550781 C 478.195312 559.550781 478.996094 560.351562 478.996094 561.335938 Z M 478.996094 561.335938 " fill-opacity="1" fill-rule="nonzero"/></g></svg>