<svg xmlns="http://www.w3.org/2000/svg" xmlns:xlink="http://www.w3.org/1999/xlink" width="1080" zoomAndPan="magnify" viewBox="0 0 810 809.999993" height="1080" preserveAspectRatio="xMidYMid meet" version="1.0"><defs><clipPath id="74cd1d6d10"><path d="M 279.332031 232.714844 L 525.332031 232.714844 L 525.332031 651.964844 L 279.332031 651.964844 Z M 279.332031 232.714844 " clip-rule="nonzero"/></clipPath></defs><g clip-path="url(#74cd1d6d10)"><path fill="#2e2e2e" d="M 521.175781 236.976562 C 518.511719 234.316406 514.972656 232.851562 511.207031 232.851562 L 293.417969 232.851562 C 289.652344 232.851562 286.113281 234.316406 283.449219 236.976562 C 280.789062 239.636719 279.320312 243.175781 279.320312 246.9375 L 279.320312 637.738281 C 279.320312 641.5 280.789062 645.039062 283.449219 647.699219 C 286.113281 650.359375 289.652344 651.824219 293.417969 651.824219 L 511.207031 651.824219 C 514.972656 651.824219 518.511719 650.359375 521.175781 647.699219 C 523.835938 645.039062 525.304688 641.5 525.304688 637.738281 L 525.304688 246.9375 C 525.304688 243.175781 523.839844 239.640625 521.175781 236.976562 Z M 521.671875 442.339844 L 521.671875 637.738281 C 521.671875 640.625 520.5 643.238281 518.605469 645.132812 C 516.710938 647.023438 514.097656 648.191406 511.207031 648.191406 L 293.417969 648.191406 C 290.527344 648.191406 287.914062 647.023438 286.019531 645.132812 C 284.125 643.238281 282.953125 640.625 282.953125 637.738281 L 282.953125 246.9375 C 282.953125 244.050781 284.125 241.4375 286.019531 239.546875 C 287.914062 237.652344 290.527344 236.484375 293.417969 236.484375 L 511.207031 236.484375 C 514.097656 236.484375 516.710938 237.652344 518.605469 239.546875 C 520.5 241.4375 521.671875 244.050781 521.671875 246.9375 Z M 515.609375 246.9375 C 515.609375 245.761719 515.148438 244.65625 514.316406 243.824219 C 513.484375 242.992188 512.375 242.535156 511.199219 242.535156 L 293.410156 242.535156 C 292.234375 242.535156 291.125 242.992188 290.292969 243.824219 C 289.460938 244.65625 289.003906 245.761719 289.003906 246.9375 L 289.003906 605.582031 C 289.035156 607.269531 290.40625 608.628906 292.101562 608.628906 L 512.417969 608.628906 C 514.132812 608.628906 515.621094 607.136719 515.621094 605.421875 L 515.609375 442.339844 Z M 390.679688 604.996094 C 393.628906 603.035156 397.972656 600.808594 402.488281 600.808594 C 407.160156 600.808594 411.113281 603.035156 413.691406 604.996094 Z M 464.429688 604.996094 C 465.375 604.132812 466.496094 603.066406 467.859375 601.714844 L 468.714844 600.925781 C 469.613281 600.101562 470.488281 599.292969 471.363281 598.515625 C 472.113281 597.851562 472.183594 596.703125 471.519531 595.953125 C 470.855469 595.203125 469.707031 595.132812 468.957031 595.796875 C 468.058594 596.589844 467.167969 597.414062 466.25 598.257812 L 465.351562 599.089844 C 462.835938 601.578125 459.65625 604.488281 458.753906 604.996094 L 419.144531 604.996094 C 417.34375 603.089844 411.082031 597.179688 402.488281 597.179688 C 393.914062 597.179688 386.34375 603.539062 384.722656 604.996094 L 347.960938 604.996094 C 347.949219 604.992188 347.941406 604.984375 347.929688 604.976562 C 344.824219 603.320312 341.996094 600.957031 339.003906 598.453125 C 336.9375 596.726562 334.804688 594.945312 332.5 593.335938 C 331.675781 592.765625 330.542969 592.964844 329.96875 593.785156 C 329.394531 594.609375 329.597656 595.738281 330.417969 596.3125 C 332.59375 597.832031 334.667969 599.5625 336.671875 601.238281 C 338.1875 602.503906 339.730469 603.792969 341.328125 604.996094 L 292.636719 604.996094 L 292.636719 602.574219 C 292.699219 602.480469 292.769531 602.394531 292.8125 602.285156 C 293.007812 601.828125 297.753906 591.097656 315.089844 591.097656 C 317.894531 591.097656 320.507812 591.535156 323.082031 592.433594 C 324.03125 592.769531 325.066406 592.265625 325.394531 591.320312 C 325.726562 590.375 325.226562 589.339844 324.28125 589.007812 C 321.316406 587.972656 318.308594 587.46875 315.089844 587.46875 C 302.910156 587.46875 296.121094 592.304688 292.636719 596.175781 L 292.636719 536.015625 C 292.703125 535.910156 292.777344 535.8125 292.824219 535.695312 C 292.996094 535.273438 297.164062 525.355469 311.921875 524.058594 C 312.921875 523.96875 313.660156 523.089844 313.570312 522.089844 C 313.484375 521.089844 312.613281 520.367188 311.601562 520.441406 C 301.589844 521.320312 295.777344 525.773438 292.636719 529.414062 L 292.636719 470.964844 C 292.710938 470.855469 292.78125 470.734375 292.832031 470.601562 C 293.023438 470.117188 297.730469 458.648438 314.886719 458.648438 C 324.21875 458.648438 330.324219 464.132812 336.226562 469.441406 C 340.972656 473.710938 345.882812 478.125 352.296875 479.371094 C 352.414062 479.394531 352.53125 479.40625 352.648438 479.40625 C 353.5 479.40625 354.257812 478.804688 354.429688 477.9375 C 354.621094 476.953125 353.976562 476 352.992188 475.808594 C 347.566406 474.753906 343.238281 470.863281 338.65625 466.742188 C 332.542969 461.246094 325.613281 455.019531 314.886719 455.019531 C 302.835938 455.019531 296.105469 460.117188 292.636719 464.226562 L 292.636719 436.28125 C 292.710938 436.171875 292.785156 436.0625 292.835938 435.933594 C 292.878906 435.816406 297.613281 423.984375 314.886719 423.984375 C 317.65625 423.984375 320.230469 424.449219 322.765625 425.402344 C 323.703125 425.753906 324.75 425.28125 325.105469 424.339844 C 325.460938 423.402344 324.984375 422.355469 324.046875 422.003906 C 321.09375 420.894531 318.097656 420.355469 314.886719 420.355469 C 302.835938 420.355469 296.105469 425.453125 292.636719 429.5625 L 292.636719 246.9375 C 292.636719 246.726562 292.710938 246.539062 292.863281 246.390625 C 293.015625 246.238281 293.199219 246.164062 293.410156 246.164062 L 511.199219 246.164062 C 511.410156 246.164062 511.597656 246.238281 511.746094 246.390625 C 511.898438 246.542969 511.972656 246.726562 511.972656 246.9375 L 511.972656 430.214844 C 508.5 425.949219 501.605469 420.355469 489.3125 420.355469 C 486.230469 420.355469 483.390625 420.84375 480.625 421.84375 C 479.683594 422.183594 479.195312 423.226562 479.539062 424.167969 C 479.878906 425.109375 480.929688 425.601562 481.863281 425.253906 C 484.226562 424.402344 486.660156 423.984375 489.3125 423.984375 C 506.210938 423.984375 511.363281 435.789062 511.589844 436.328125 C 511.679688 436.546875 511.816406 436.726562 511.976562 436.890625 L 511.976562 464.996094 C 508.621094 460.738281 501.792969 455.019531 489.3125 455.019531 C 478.730469 455.019531 471.898438 461.25 465.875 466.75 C 463.503906 468.914062 461.238281 470.972656 458.855469 472.613281 L 461.382812 456.050781 C 461.628906 456.082031 461.886719 456.105469 462.160156 456.105469 C 463.589844 456.105469 465.34375 455.589844 467.1875 453.839844 C 471.148438 450.085938 473.6875 442.21875 472.90625 438.648438 C 472.429688 436.449219 471.695312 434.570312 470.886719 432.976562 L 471.023438 432.855469 C 472.105469 431.898438 472.753906 431.324219 474.257812 430.15625 C 475.050781 429.539062 475.191406 428.402344 474.578125 427.609375 C 473.964844 426.820312 472.824219 426.671875 472.027344 427.289062 C 470.609375 428.390625 469.878906 429.023438 468.964844 429.832031 C 467.460938 427.78125 466.140625 426.710938 466.035156 426.628906 C 465.949219 426.5625 465.859375 426.507812 465.765625 426.457031 L 480.132812 333.21875 L 495.910156 326.085938 C 496.09375 326.003906 496.273438 325.890625 496.449219 325.742188 L 496.546875 325.65625 C 496.738281 325.480469 496.898438 325.285156 497.0625 324.980469 C 497.1875 324.738281 497.269531 324.492188 497.316406 324.210938 L 501.835938 291.261719 C 502.539062 292.011719 503.75 292.246094 504.695312 291.769531 C 505.273438 291.480469 505.703125 290.980469 505.90625 290.367188 C 506.109375 289.753906 506.0625 289.097656 505.769531 288.519531 L 502.621094 282.25 C 502.261719 281.535156 501.570312 281.042969 500.785156 280.941406 C 499.992188 280.820312 499.195312 281.117188 498.652344 281.71875 L 493.992188 286.894531 C 493.101562 287.886719 493.179688 289.417969 494.171875 290.3125 C 494.65625 290.746094 495.300781 290.957031 495.921875 290.929688 C 496.324219 290.910156 496.703125 290.792969 497.039062 290.589844 L 492.8125 321.386719 L 481.996094 321.007812 L 487.480469 285.097656 C 488.117188 286.132812 489.535156 286.550781 490.644531 285.984375 C 491.21875 285.691406 491.648438 285.191406 491.847656 284.578125 C 492.046875 283.960938 491.996094 283.304688 491.699219 282.730469 L 488.21875 275.914062 C 487.859375 275.207031 487.175781 274.722656 486.386719 274.613281 C 485.597656 274.507812 484.808594 274.792969 484.277344 275.375 L 479.164062 280.941406 C 478.261719 281.925781 478.324219 283.460938 479.308594 284.363281 C 480.285156 285.257812 481.800781 285.199219 482.710938 284.242188 L 477.234375 320.101562 L 466.867188 316.597656 L 472.34375 286.261719 C 472.367188 286.285156 472.390625 286.308594 472.410156 286.332031 C 473.007812 286.953125 473.757812 287.148438 474.519531 286.878906 C 475.128906 286.664062 475.621094 286.226562 475.898438 285.644531 C 476.179688 285.058594 476.214844 284.402344 476 283.792969 L 473.699219 277.25 C 473.421875 276.460938 472.742188 275.863281 471.925781 275.6875 C 471.101562 275.503906 470.253906 275.761719 469.664062 276.378906 L 464.542969 281.730469 C 463.617188 282.691406 463.652344 284.226562 464.617188 285.152344 C 465.429688 285.925781 466.648438 286.023438 467.566406 285.460938 L 461.726562 317.789062 C 461.707031 317.902344 461.714844 317.992188 461.71875 318.042969 C 461.710938 318.179688 461.710938 318.308594 461.722656 318.4375 C 461.738281 318.605469 461.769531 318.769531 461.820312 318.929688 C 461.859375 319.050781 461.898438 319.167969 461.957031 319.285156 C 462.050781 319.472656 462.164062 319.625 462.253906 319.734375 L 475.332031 332.5625 L 467.53125 383.351562 C 467.042969 375.679688 466.289062 369.984375 465.109375 364.972656 L 466.292969 364.21875 C 467.066406 363.722656 467.351562 362.726562 466.949219 361.898438 L 461.734375 351.144531 C 461.507812 350.679688 461.089844 350.332031 460.589844 350.191406 C 460.351562 350.125 460.109375 350.113281 459.871094 350.140625 C 458.714844 347.570312 457.457031 344.945312 456.246094 342.453125 C 455.464844 340.851562 454.585938 339.410156 453.640625 338.097656 C 454.183594 332.972656 450.398438 328.621094 446.597656 325.609375 C 449.734375 326.289062 451.066406 327.023438 451.074219 327.03125 C 451.636719 327.363281 452.335938 327.371094 452.902344 327.046875 C 453.46875 326.726562 453.820312 326.121094 453.820312 325.46875 C 453.820312 322.867188 452.921875 320.660156 451.148438 318.910156 C 446.0625 313.878906 434.996094 314.007812 427.667969 314.082031 C 425.582031 314.105469 423.210938 314.132812 422.644531 313.957031 C 421.242188 313.488281 420.472656 313.085938 420.070312 312.828125 C 421.980469 307.460938 421.964844 301.117188 421.964844 300.8125 C 421.960938 300.433594 421.839844 300.085938 421.640625 299.796875 C 421.691406 299.683594 421.757812 299.582031 421.785156 299.457031 C 423.34375 293.015625 423.128906 287.527344 421.140625 283.140625 C 420.976562 282.78125 420.816406 282.453125 420.65625 282.128906 L 429.96875 269.734375 C 430.445312 269.101562 430.453125 268.230469 429.992188 267.585938 C 429.527344 266.941406 428.695312 266.671875 427.945312 266.921875 L 422.109375 268.859375 L 422.316406 263.261719 C 422.34375 262.546875 421.945312 261.878906 421.300781 261.566406 C 420.65625 261.25 419.886719 261.34375 419.335938 261.804688 L 414.953125 265.46875 L 413.429688 259.972656 C 413.242188 259.304688 412.691406 258.800781 412.011719 258.675781 C 411.324219 258.554688 410.632812 258.820312 410.21875 259.375 L 407.214844 263.410156 L 405.121094 258.664062 C 404.832031 258.003906 404.179688 257.578125 403.460938 257.578125 C 403.457031 257.578125 403.457031 257.578125 403.453125 257.578125 C 402.730469 257.582031 402.078125 258.011719 401.792969 258.675781 L 399.792969 263.304688 L 397.226562 259.324219 C 396.824219 258.699219 396.078125 258.378906 395.347656 258.527344 C 394.617188 258.671875 394.046875 259.246094 393.914062 259.976562 L 392.914062 265.363281 L 388.089844 261.875 C 387.515625 261.460938 386.746094 261.417969 386.125 261.773438 C 385.507812 262.125 385.152344 262.808594 385.21875 263.519531 L 385.65625 268.125 L 380.464844 266.34375 C 379.753906 266.101562 378.96875 266.320312 378.484375 266.894531 C 378 267.46875 377.921875 268.28125 378.285156 268.941406 L 384.808594 280.726562 C 384.34375 281.515625 383.890625 282.339844 383.476562 283.230469 C 381.03125 288.441406 380.640625 294.296875 382.335938 300.167969 C 382.382812 300.320312 382.460938 300.457031 382.539062 300.585938 C 382.527344 300.660156 382.515625 300.734375 382.515625 300.8125 C 382.511719 301.164062 382.484375 309.515625 385.410156 315.175781 C 385.945312 316.207031 386.722656 317.421875 387.730469 318.660156 L 387.539062 320.921875 L 374.445312 325.851562 C 372.203125 325.984375 359.367188 327.167969 354.695312 337.144531 C 352.269531 342.320312 351.570312 352.964844 351.371094 359.421875 C 350.320312 357.757812 349.191406 355.96875 347.980469 354.046875 C 347.410156 353.140625 344.496094 349.433594 344.257812 349.136719 C 344.253906 349.128906 344.246094 349.128906 344.242188 349.121094 C 344.238281 349.117188 344.238281 349.113281 344.234375 349.109375 L 342.515625 347.046875 C 342.308594 346.78125 338.605469 342.144531 332.460938 340.140625 L 332.460938 339.367188 L 334.085938 335.730469 C 334.289062 335.28125 334.296875 334.773438 334.113281 334.316406 L 333.425781 332.601562 C 336.273438 331.925781 338.640625 330.628906 340.476562 328.695312 C 345.882812 323 345.371094 313.269531 345.0625 307.457031 C 345.003906 306.320312 344.949219 305.320312 344.949219 304.511719 C 344.949219 303.511719 344.132812 302.699219 343.132812 302.699219 L 313.300781 302.699219 C 313.292969 302.699219 313.285156 302.699219 313.273438 302.699219 C 312.28125 302.730469 311.429688 303.5 311.429688 304.511719 C 311.429688 305.320312 311.375 306.320312 311.316406 307.457031 C 311.011719 313.269531 310.496094 323 315.902344 328.695312 C 317.734375 330.621094 320.089844 331.917969 322.929688 332.597656 L 322.257812 334.335938 C 322.082031 334.789062 322.097656 335.289062 322.292969 335.730469 L 323.921875 339.367188 L 323.921875 339.519531 C 322.53125 339.972656 321.550781 341.214844 321.359375 342.867188 C 321.285156 343.523438 321.355469 344.226562 321.550781 344.902344 C 321.164062 345.070312 320.785156 345.28125 320.433594 345.566406 C 319.480469 346.335938 318.910156 347.441406 318.792969 348.753906 C 318.777344 348.933594 318.753906 349.105469 318.734375 349.277344 C 318.671875 349.75 318.605469 350.289062 318.65625 350.855469 C 318.234375 351.566406 318.039062 352.582031 318.039062 354 C 318.039062 355.289062 318.261719 356.203125 318.574219 356.84375 C 318.390625 357.632812 318.375 358.730469 318.742188 360.25 C 319.015625 361.386719 319.449219 362.125 319.921875 362.597656 C 319.933594 363.175781 320.070312 363.875 320.402344 364.648438 L 314.734375 364.648438 C 313.734375 364.648438 312.917969 365.464844 312.917969 366.464844 L 312.917969 368.863281 C 312.917969 369.863281 313.734375 370.675781 314.734375 370.675781 L 328.171875 370.675781 C 328.179688 370.675781 328.183594 370.675781 328.191406 370.675781 C 328.195312 370.675781 328.203125 370.675781 328.207031 370.675781 L 338.585938 370.675781 C 340.113281 376.339844 342.449219 383.914062 345.828125 389.339844 C 347.5 392.023438 351.148438 397.882812 356.726562 397.882812 C 357.476562 397.882812 358.257812 397.777344 359.078125 397.542969 C 361.78125 396.769531 362.757812 394.8125 363.621094 393.078125 C 364.929688 390.449219 365.925781 387.699219 366.757812 385.328125 C 368.558594 380.183594 370.121094 374.90625 371.4375 369.597656 C 371.964844 371.574219 376.472656 388.785156 376.472656 401.523438 C 376.472656 407.472656 375.199219 413.855469 373.726562 421.25 C 372.695312 426.4375 371.597656 432.03125 370.8125 438.101562 C 369.742188 438.933594 365.734375 441.433594 356.082031 441.433594 C 348.933594 441.433594 343.734375 436.882812 338.234375 432.0625 C 336.132812 430.226562 333.964844 428.324219 331.617188 426.613281 C 330.808594 426.019531 329.671875 426.195312 329.078125 427.007812 C 328.488281 427.816406 328.664062 428.953125 329.476562 429.542969 C 331.6875 431.160156 333.796875 433.007812 335.839844 434.792969 C 341.605469 439.84375 347.566406 445.066406 356.082031 445.066406 C 363.144531 445.066406 367.609375 443.804688 370.3125 442.570312 C 369.972656 446.125 369.75 449.824219 369.75 453.730469 C 369.75 459.714844 370.410156 466.023438 371.484375 472.40625 C 370.53125 473.113281 367.882812 474.746094 362.855469 475.578125 C 361.863281 475.742188 361.195312 476.679688 361.359375 477.667969 C 361.507812 478.554688 362.277344 479.183594 363.152344 479.183594 C 363.25 479.183594 363.351562 479.175781 363.449219 479.160156 C 367.632812 478.464844 370.433594 477.277344 372.175781 476.28125 C 375.414062 493.0625 381.242188 509.992188 385.558594 522.527344 C 385.828125 523.3125 386.09375 524.085938 386.355469 524.851562 C 384.035156 526.117188 381.785156 527.632812 379.664062 529.367188 C 378.316406 530.46875 377.007812 531.683594 375.742188 532.855469 C 371.886719 536.429688 368.246094 539.804688 363.316406 540.582031 C 362.328125 540.738281 361.648438 541.667969 361.804688 542.65625 C 361.945312 543.550781 362.71875 544.1875 363.597656 544.1875 C 363.691406 544.1875 363.785156 544.183594 363.882812 544.167969 C 369.902344 543.21875 374.128906 539.304688 378.214844 535.515625 C 379.492188 534.328125 380.703125 533.207031 381.964844 532.171875 C 383.742188 530.71875 385.621094 529.441406 387.550781 528.347656 C 389.390625 533.789062 390.808594 538.304688 391.140625 540.800781 C 384.269531 545.578125 341.984375 575.726562 341.5625 594.28125 C 341.5625 594.316406 341.570312 594.347656 341.574219 594.378906 C 341.574219 594.453125 341.582031 594.527344 341.589844 594.597656 C 341.597656 594.652344 341.609375 594.703125 341.621094 594.753906 C 341.640625 594.824219 341.660156 594.894531 341.6875 594.960938 C 341.707031 595.011719 341.722656 595.058594 341.746094 595.105469 C 341.777344 595.171875 341.816406 595.234375 341.859375 595.296875 C 341.886719 595.34375 341.910156 595.386719 341.941406 595.425781 C 341.988281 595.484375 342.039062 595.535156 342.09375 595.589844 C 342.121094 595.621094 342.148438 595.660156 342.179688 595.6875 C 342.1875 595.691406 342.195312 595.695312 342.203125 595.699219 C 342.210938 595.710938 342.21875 595.71875 342.230469 595.726562 C 342.324219 595.804688 342.433594 595.847656 342.535156 595.902344 C 342.613281 595.941406 342.679688 595.996094 342.761719 596.027344 C 342.960938 596.101562 343.171875 596.140625 343.378906 596.140625 C 343.378906 596.140625 343.382812 596.140625 343.382812 596.140625 C 343.472656 596.140625 343.5625 596.132812 343.65625 596.117188 C 345.367188 595.859375 384.671875 589.609375 401.859375 566.246094 C 418.816406 589.222656 456.929688 595.667969 459.628906 596.097656 C 459.648438 596.101562 459.667969 596.105469 459.6875 596.109375 C 459.703125 596.109375 459.738281 596.117188 459.75 596.117188 C 459.808594 596.125 459.863281 596.128906 459.921875 596.132812 C 459.949219 596.132812 459.976562 596.140625 460.003906 596.140625 C 460.007812 596.140625 460.011719 596.136719 460.011719 596.136719 C 460.019531 596.136719 460.023438 596.140625 460.03125 596.140625 C 460.46875 596.140625 460.894531 595.980469 461.226562 595.6875 C 461.632812 595.335938 461.859375 594.820312 461.847656 594.28125 C 461.421875 575.535156 419.160156 545.167969 413.128906 540.929688 C 413.105469 540.859375 413.105469 540.785156 413.078125 540.71875 C 413.445312 538.140625 414.933594 533.480469 416.84375 527.898438 C 418.09375 528.617188 419.269531 529.410156 420.351562 530.285156 C 422.113281 531.710938 423.699219 533.347656 425.378906 535.082031 C 428.113281 537.902344 430.9375 540.820312 434.605469 542.773438 C 437.820312 544.488281 441.691406 545.253906 444.558594 545.253906 C 445.222656 545.253906 445.832031 545.214844 446.363281 545.132812 C 447.355469 544.988281 448.039062 544.0625 447.894531 543.074219 C 447.746094 542.078125 446.820312 541.386719 445.828125 541.542969 C 444.074219 541.804688 439.9375 541.5 436.3125 539.570312 C 433.152344 537.882812 430.644531 535.296875 427.988281 532.554688 C 426.308594 530.820312 424.570312 529.027344 422.636719 527.464844 C 421.230469 526.328125 419.6875 525.304688 418.046875 524.410156 C 418.261719 523.789062 418.476562 523.164062 418.695312 522.53125 C 423.074219 509.921875 428.996094 492.863281 432.246094 475.984375 C 434.976562 477.617188 440.117188 479.726562 448.441406 479.726562 C 450.125 479.726562 451.507812 479.488281 452.964844 479.089844 L 446.410156 522.039062 C 446.3125 522.675781 446.46875 523.316406 446.851562 523.835938 C 447.234375 524.355469 447.800781 524.699219 448.4375 524.792969 C 448.5625 524.8125 448.683594 524.824219 448.804688 524.824219 C 449.992188 524.824219 451.019531 523.9375 451.199219 522.769531 L 458.160156 477.15625 C 458.375 477.125 458.589844 477.066406 458.792969 476.953125 C 462.234375 474.988281 465.332031 472.164062 468.320312 469.433594 C 474.132812 464.132812 480.136719 458.648438 489.3125 458.648438 C 506.199219 458.648438 511.144531 470.335938 511.355469 470.855469 C 511.484375 471.1875 511.707031 471.453125 511.976562 471.648438 L 511.980469 529.660156 C 508.652344 525.6875 502.121094 520.609375 490.34375 520.304688 C 489.382812 520.265625 488.507812 521.070312 488.484375 522.074219 C 488.457031 523.078125 489.246094 523.910156 490.253906 523.933594 C 506.789062 524.359375 511.378906 535.203125 511.578125 535.695312 C 511.671875 535.925781 511.816406 536.117188 511.980469 536.285156 L 511.988281 596.855469 C 508.472656 592.832031 501.410156 587.46875 488.738281 587.46875 C 484.507812 587.46875 480.785156 588.269531 477.351562 589.910156 C 476.445312 590.34375 476.0625 591.429688 476.496094 592.332031 C 476.925781 593.234375 478.007812 593.617188 478.917969 593.183594 C 481.851562 591.78125 485.0625 591.101562 488.738281 591.101562 C 506.113281 591.101562 511.390625 602.179688 511.613281 602.664062 C 511.703125 602.867188 511.839844 603.039062 511.988281 603.1875 L 511.988281 605 L 464.429688 605 Z M 414.191406 555.320312 C 414.273438 555.386719 422.335938 561.777344 430.570312 568.90625 C 437.871094 575.222656 444.566406 581.542969 449.59375 586.445312 C 428.3125 574.03125 411.882812 559.035156 411.695312 558.859375 C 410.960938 558.183594 409.808594 558.230469 409.128906 558.96875 C 408.449219 559.703125 408.496094 560.851562 409.234375 561.53125 C 409.425781 561.707031 426.128906 576.960938 447.792969 589.59375 C 434.300781 585.726562 413.417969 577.523438 403.394531 562.097656 C 402.847656 561.253906 401.722656 561.015625 400.882812 561.5625 C 400.757812 561.644531 400.648438 561.742188 400.550781 561.84375 C 400.445312 561.941406 400.351562 562.050781 400.269531 562.175781 C 390.167969 577.71875 368.941406 585.894531 355.386719 589.703125 C 377.40625 576.964844 394.386719 562.101562 394.582031 561.933594 C 395.332031 561.273438 395.40625 560.125 394.742188 559.371094 C 394.082031 558.621094 392.929688 558.546875 392.179688 559.210938 C 391.984375 559.382812 374.621094 574.574219 352.328125 587.269531 C 357.164062 582.320312 364.292969 575.488281 373.617188 567.761719 C 382.5625 560.347656 388.808594 556.296875 388.871094 556.253906 C 389.710938 555.710938 389.953125 554.585938 389.410156 553.746094 C 388.863281 552.902344 387.742188 552.660156 386.898438 553.207031 C 386.636719 553.375 380.425781 557.402344 371.300781 564.96875 C 360.175781 574.183594 352.238281 582.027344 347.4375 587.09375 C 355.113281 572.445312 380.632812 552.53125 392.757812 544.09375 L 400.671875 552.867188 C 401.015625 553.246094 401.503906 553.464844 402.011719 553.46875 C 402.5 553.429688 403.011719 553.257812 403.359375 552.882812 L 411.402344 544.148438 C 423.457031 552.625 449.753906 573.410156 456.566406 588.226562 C 451.457031 583.113281 442.742188 574.636719 432.949219 566.164062 C 424.65625 558.984375 416.53125 552.542969 416.449219 552.476562 C 415.664062 551.855469 414.519531 551.984375 413.898438 552.773438 C 413.273438 553.554688 413.40625 554.699219 414.191406 555.320312 Z M 402.355469 401.4375 C 391.855469 401.4375 382.613281 399.019531 380.019531 398.277344 C 379.597656 389.527344 377.621094 379.785156 376.246094 373.878906 C 376.742188 374.058594 377.257812 374.210938 377.816406 374.289062 C 377.90625 374.300781 377.992188 374.308594 378.074219 374.308594 C 378.964844 374.308594 379.742188 373.65625 379.871094 372.75 C 380.011719 371.757812 379.324219 370.835938 378.332031 370.695312 C 373.769531 370.046875 372.511719 361.929688 372.5 361.847656 C 372.363281 360.855469 371.457031 360.152344 370.457031 360.296875 C 369.460938 360.433594 368.765625 361.347656 368.902344 362.339844 C 368.914062 362.425781 368.976562 362.867188 369.121094 363.535156 C 369.007812 364.074219 368.890625 364.613281 368.769531 365.152344 C 367.328125 371.550781 365.5 377.9375 363.328125 384.125 C 362.53125 386.394531 361.582031 389.019531 360.367188 391.464844 C 359.535156 393.132812 359.148438 393.746094 358.078125 394.050781 C 354.316406 395.117188 351.453125 391.496094 348.914062 387.421875 C 345.9375 382.644531 343.78125 375.871094 342.3125 370.546875 C 342.984375 370.277344 343.460938 369.625 343.460938 368.859375 L 343.460938 366.464844 C 343.460938 365.460938 342.648438 364.648438 341.644531 364.648438 L 333.371094 364.648438 C 333.449219 364.472656 333.539062 364.3125 333.601562 364.117188 C 333.980469 362.921875 334.410156 361.5625 334.417969 358.417969 C 334.582031 358.582031 334.75 358.734375 334.921875 358.867188 C 335.253906 359.128906 335.648438 359.253906 336.039062 359.253906 C 336.578125 359.253906 337.113281 359.011719 337.472656 358.554688 C 338.089844 357.765625 337.949219 356.625 337.160156 356.007812 C 336.171875 355.238281 334.996094 353.023438 334.417969 351.675781 C 334.304688 350.59375 333.9375 349.628906 332.832031 347.945312 C 332.832031 347.945312 332.832031 347.945312 332.828125 347.945312 C 331.1875 345.449219 328.726562 344.273438 325.296875 344.378906 C 325.148438 344.234375 325.046875 344.003906 325 343.800781 C 324.898438 343.351562 325.011719 343.007812 325.0625 342.960938 C 333.746094 341.90625 339.589844 349.203125 339.683594 349.320312 L 341.417969 351.402344 C 342.011719 352.140625 344.527344 355.382812 344.902344 355.976562 C 351.039062 365.714844 355.101562 372.09375 357.324219 375.574219 C 357.671875 376.117188 358.257812 376.410156 358.855469 376.410156 C 359.191406 376.410156 359.53125 376.320312 359.832031 376.125 C 360.679688 375.585938 360.925781 374.464844 360.386719 373.617188 C 359.144531 371.675781 357.328125 368.828125 354.902344 364.996094 C 354.917969 364.898438 354.929688 364.796875 354.929688 364.691406 C 354.929688 364.605469 354.898438 360.417969 355.191406 355.285156 C 355.234375 355.285156 355.277344 355.304688 355.320312 355.304688 C 355.519531 355.304688 355.722656 355.269531 355.921875 355.199219 C 356.867188 354.867188 357.367188 353.832031 357.03125 352.886719 C 356.042969 350.078125 356.078125 346.347656 356.082031 346.308594 C 356.082031 346.269531 356.074219 346.234375 356.070312 346.191406 C 356.515625 343.210938 357.128906 340.507812 357.984375 338.683594 C 362.050781 330 374.75 329.46875 374.875 329.464844 C 374.980469 329.460938 375.078125 329.425781 375.179688 329.402344 L 378.675781 330.132812 C 378.679688 330.132812 378.683594 330.132812 378.691406 330.132812 C 378.691406 330.132812 378.695312 330.132812 378.695312 330.132812 L 384.382812 331.25 C 384.5 331.273438 384.617188 331.285156 384.734375 331.285156 C 385.585938 331.285156 386.347656 330.683594 386.515625 329.816406 C 386.710938 328.835938 386.066406 327.878906 385.082031 327.6875 L 381.652344 327.015625 L 387.820312 324.695312 C 387.925781 325.371094 388.046875 326.101562 388.191406 326.921875 C 388.804688 330.371094 389.539062 333.488281 390.425781 336.457031 C 391.230469 339.148438 392.5625 343.140625 394.789062 346.714844 C 395.660156 348.109375 396.542969 349.246094 397.496094 350.1875 L 397.605469 350.296875 C 398.027344 350.710938 398.484375 351.15625 399.003906 351.5625 C 398.78125 351.734375 398.566406 351.917969 398.375 352.136719 C 397.238281 353.4375 396.871094 355.398438 397.25 358.132812 C 397.460938 359.671875 398.347656 360.953125 399.464844 362.117188 C 397.597656 363.773438 395.769531 365.667969 395.769531 368.160156 C 395.769531 368.785156 396.085938 369.363281 396.613281 369.695312 C 396.910156 369.882812 397.246094 369.976562 397.585938 369.976562 C 397.851562 369.976562 398.117188 369.917969 398.367188 369.800781 L 402.136719 368.003906 L 405.910156 369.800781 C 406.160156 369.917969 406.425781 369.976562 406.691406 369.976562 C 407.03125 369.976562 407.367188 369.882812 407.660156 369.695312 C 408.191406 369.363281 408.507812 368.785156 408.507812 368.160156 C 408.507812 365.675781 406.707031 363.78125 404.855469 362.125 C 405.984375 360.945312 406.863281 359.648438 407.035156 358.078125 C 407.339844 355.277344 406.933594 353.296875 405.789062 352.027344 C 405.644531 351.867188 405.496094 351.730469 405.34375 351.601562 C 406.691406 350.574219 407.648438 349.226562 408.324219 348.121094 C 410.039062 345.316406 411.109375 342.1875 411.855469 339.773438 C 413.15625 335.550781 414.160156 330.945312 415.109375 324.84375 C 415.125 324.746094 415.140625 324.648438 415.15625 324.550781 L 422.683594 326.984375 L 420.253906 327.484375 C 419.273438 327.6875 418.640625 328.648438 418.84375 329.628906 C 419.023438 330.488281 419.777344 331.078125 420.621094 331.078125 C 420.742188 331.078125 420.867188 331.066406 420.992188 331.039062 L 425.378906 330.132812 C 425.378906 330.132812 425.382812 330.132812 425.382812 330.132812 L 429.285156 329.320312 C 429.496094 329.277344 429.683594 329.191406 429.855469 329.085938 C 432.734375 329.320312 446.683594 331.113281 452.976562 344.042969 C 454.226562 346.617188 455.527344 349.332031 456.703125 351.964844 L 440.363281 362.488281 C 438.917969 360.425781 436.976562 358.359375 434.769531 358.714844 C 433.125 358.984375 432.203125 360.476562 431.917969 361.671875 C 431.90625 361.730469 431.894531 361.789062 431.886719 361.851562 C 431.878906 361.902344 431.402344 365.023438 429.953125 367.554688 C 429.949219 367.5625 429.945312 367.570312 429.941406 367.574219 C 429.050781 369.125 427.796875 370.449219 426.058594 370.695312 C 425.0625 370.835938 424.375 371.757812 424.515625 372.75 C 424.644531 373.65625 425.421875 374.308594 426.3125 374.308594 C 426.394531 374.308594 426.484375 374.300781 426.570312 374.289062 C 427.1875 374.203125 427.753906 374.027344 428.289062 373.816406 C 426.871094 379.753906 424.902344 389.191406 424.402344 397.683594 C 421.824219 398.578125 412.792969 401.4375 402.355469 401.4375 Z M 328.730469 360.425781 L 330.695312 360.425781 C 330.582031 361.597656 330.375 362.28125 330.140625 363.019531 C 329.832031 363.992188 328.214844 364 328.214844 364 C 328.144531 364 328.070312 364 328 364.007812 C 326.421875 364.15625 324.53125 364.023438 323.996094 363.730469 C 323.535156 362.996094 323.535156 362.527344 323.554688 362.367188 C 323.925781 361.792969 323.871094 361.15625 323.507812 360.558594 C 323.269531 360.164062 322.863281 359.9375 322.414062 359.847656 C 322.371094 359.746094 322.324219 359.601562 322.273438 359.402344 C 322.039062 358.417969 322.066406 357.921875 322.09375 357.738281 C 322.414062 357.347656 322.566406 356.835938 322.492188 356.320312 C 322.425781 355.84375 322.167969 355.421875 321.796875 355.140625 C 321.75 354.984375 321.671875 354.636719 321.671875 354 C 321.671875 353.496094 321.703125 353.167969 321.738281 352.960938 C 321.890625 352.855469 322.03125 352.726562 322.148438 352.570312 C 322.589844 351.988281 322.644531 351.214844 322.28125 350.582031 C 322.246094 350.453125 322.300781 350.015625 322.339844 349.730469 C 322.363281 349.519531 322.390625 349.300781 322.410156 349.078125 C 322.449219 348.660156 322.585938 348.496094 322.714844 348.390625 C 323.199219 347.992188 324.222656 347.957031 324.632812 348.003906 C 324.730469 348.015625 324.824219 348.015625 324.921875 348.011719 C 324.929688 348.011719 324.9375 348.011719 324.941406 348.011719 C 324.953125 348.011719 324.960938 348.015625 324.96875 348.011719 C 327.367188 347.855469 328.800781 348.433594 329.792969 349.9375 C 329.894531 350.09375 329.976562 350.222656 330.058594 350.351562 L 328.730469 350.351562 C 327.726562 350.351562 326.910156 351.167969 326.910156 352.167969 C 326.910156 353.171875 327.726562 353.984375 328.730469 353.984375 L 330.816406 353.984375 C 330.816406 354.113281 330.8125 354.242188 330.8125 354.386719 C 330.8125 355.398438 330.804688 355.886719 330.796875 356.375 C 330.796875 356.511719 330.792969 356.648438 330.792969 356.796875 L 328.730469 356.796875 C 327.726562 356.796875 326.914062 357.609375 326.914062 358.613281 C 326.914062 359.613281 327.726562 360.425781 328.730469 360.425781 Z M 341.589844 314.070312 C 341.472656 318.507812 340.695312 323.1875 337.84375 326.195312 C 335.714844 328.433594 332.652344 329.523438 328.488281 329.523438 L 327.894531 329.523438 C 323.726562 329.523438 320.667969 328.433594 318.539062 326.195312 C 315.683594 323.1875 314.910156 318.507812 314.792969 314.070312 Z M 314.816406 310.441406 C 314.851562 309.460938 314.898438 308.515625 314.945312 307.648438 C 314.96875 307.183594 314.996094 306.742188 315.011719 306.328125 L 341.367188 306.328125 C 341.386719 306.742188 341.410156 307.183594 341.433594 307.648438 C 341.480469 308.515625 341.527344 309.460938 341.5625 310.441406 Z M 327.394531 338.238281 L 325.917969 334.9375 L 326.625 333.105469 C 327.046875 333.128906 327.460938 333.15625 327.894531 333.15625 L 328.488281 333.15625 C 328.910156 333.15625 329.308594 333.128906 329.714844 333.109375 L 330.457031 334.953125 L 328.988281 338.238281 C 328.882812 338.472656 328.828125 338.722656 328.828125 338.980469 L 328.828125 339.347656 C 328.414062 339.300781 327.984375 339.277344 327.554688 339.261719 L 327.554688 338.980469 C 327.554688 338.722656 327.5 338.472656 327.394531 338.238281 Z M 437.925781 324.429688 C 440.464844 325.621094 445.613281 328.714844 448.3125 332.484375 C 440.550781 326.273438 431.460938 325.519531 429.695312 325.433594 L 415.40625 320.816406 L 415.425781 320.144531 C 416.738281 318.78125 417.78125 317.375 418.527344 316.128906 C 419.253906 316.542969 420.210938 316.972656 421.496094 317.398438 C 422.5625 317.753906 424.273438 317.753906 427.710938 317.714844 C 434.023438 317.640625 444.585938 317.527344 448.59375 321.492188 C 448.933594 321.824219 449.21875 322.183594 449.445312 322.570312 C 447.199219 321.933594 443.757812 321.253906 438.800781 320.972656 C 437.894531 320.929688 437.152344 321.5 436.9375 322.339844 C 436.722656 323.183594 437.140625 324.058594 437.925781 324.429688 Z M 418.929688 291.535156 C 418.882812 291.414062 418.824219 291.296875 418.753906 291.1875 C 418.628906 290.992188 415.640625 286.347656 412.648438 283.855469 C 409.425781 281.175781 403.835938 283.113281 402.238281 283.75 C 400.640625 283.113281 395.050781 281.175781 391.828125 283.855469 C 388.835938 286.347656 385.847656 290.992188 385.722656 291.1875 C 385.652344 291.296875 385.59375 291.414062 385.550781 291.535156 L 384.933594 293.207031 C 384.902344 290.277344 385.507812 287.453125 386.765625 284.769531 C 387.140625 283.964844 387.546875 283.230469 387.960938 282.527344 C 387.992188 282.511719 388.027344 282.5 388.054688 282.480469 C 388.09375 282.453125 392.183594 279.792969 402.304688 279.792969 C 411.082031 279.792969 415.390625 281.804688 416.851562 282.679688 C 417.167969 283.25 417.488281 283.886719 417.832031 284.640625 C 418.800781 286.78125 419.234375 289.304688 419.160156 292.160156 Z M 410.144531 305.1875 C 409.15625 304.734375 407.652344 304.160156 406.332031 304.058594 C 406.203125 303.585938 405.917969 303.167969 405.507812 302.890625 C 404.71875 302.359375 403.804688 302.488281 403.328125 302.613281 C 403.199219 302.648438 403.070312 302.699219 402.953125 302.761719 C 402.726562 302.875 402.417969 303 402.246094 303.042969 C 402.046875 302.988281 401.664062 302.824219 401.386719 302.675781 C 401.078125 302.507812 400.722656 302.4375 400.371094 302.460938 C 399.726562 302.515625 398.84375 302.726562 398.316406 303.429688 C 398.167969 303.628906 398.0625 303.847656 398.007812 304.070312 C 396.71875 304.203125 395.285156 304.75 394.335938 305.1875 C 391.441406 303.285156 386.980469 299.496094 387.457031 296.847656 L 388.886719 292.984375 C 389.414062 292.1875 391.871094 288.546875 394.15625 286.644531 C 395.617188 285.429688 399.511719 286.515625 401.167969 287.234375 C 401.519531 287.386719 401.890625 287.417969 402.238281 287.351562 C 402.585938 287.417969 402.957031 287.386719 403.308594 287.234375 C 404.964844 286.515625 408.859375 285.429688 410.324219 286.644531 C 412.601562 288.542969 415.0625 292.183594 415.589844 292.984375 L 417.019531 296.847656 C 417.496094 299.496094 413.035156 303.285156 410.144531 305.1875 Z M 393.300781 308.828125 C 393.585938 308.996094 393.90625 309.082031 394.226562 309.082031 C 394.523438 309.082031 394.820312 309.007812 395.089844 308.863281 C 396.003906 308.375 397.730469 307.648438 398.535156 307.648438 C 400.125 307.648438 400.875 308.210938 400.953125 308.273438 C 401.160156 308.460938 401.402344 308.578125 401.65625 308.65625 C 402.28125 308.890625 403.003906 308.777344 403.519531 308.277344 C 403.550781 308.253906 404.292969 307.648438 405.941406 307.648438 C 406.746094 307.648438 408.472656 308.371094 409.386719 308.863281 C 409.65625 309.007812 409.953125 309.078125 410.25 309.078125 C 410.570312 309.078125 410.890625 308.996094 411.175781 308.824219 C 411.847656 308.429688 415.660156 306.082031 418.253906 302.902344 C 418.082031 305.550781 417.550781 310.199219 415.839844 313.507812 C 415.199219 314.742188 414.039062 316.410156 412.445312 317.980469 C 412.402344 318.015625 412.363281 318.054688 412.324219 318.09375 C 409.882812 320.457031 406.445312 322.5625 402.238281 322.585938 C 395.179688 322.546875 390.257812 316.636719 388.636719 313.507812 C 386.925781 310.199219 386.394531 305.554688 386.222656 302.902344 C 388.816406 306.082031 392.628906 308.429688 393.300781 308.828125 Z M 401.84375 349.105469 C 401.28125 348.824219 400.742188 348.289062 400.167969 347.722656 L 400.054688 347.609375 C 399.308594 346.867188 398.59375 345.945312 397.871094 344.792969 C 395.878906 341.59375 394.65625 337.910156 393.90625 335.414062 C 393.058594 332.582031 392.359375 329.597656 391.769531 326.289062 C 391.480469 324.660156 391.289062 323.410156 391.152344 322.238281 C 391.144531 322.167969 391.121094 322.105469 391.105469 322.039062 C 393.9375 324.335938 397.628906 326.140625 402.054688 326.207031 C 402.09375 326.210938 402.132812 326.21875 402.175781 326.21875 C 402.195312 326.21875 402.21875 326.214844 402.238281 326.214844 C 402.261719 326.214844 402.28125 326.21875 402.304688 326.21875 C 402.34375 326.21875 402.382812 326.210938 402.421875 326.207031 C 406.011719 326.152344 409.113281 324.953125 411.671875 323.277344 C 411.621094 323.613281 411.574219 323.953125 411.523438 324.285156 C 410.601562 330.207031 409.632812 334.652344 408.382812 338.707031 C 407.703125 340.917969 406.726562 343.769531 405.226562 346.226562 C 404.671875 347.132812 403.910156 348.253906 402.910156 348.914062 C 402.285156 349.328125 402.082031 349.222656 401.84375 349.105469 Z M 402.222656 356.933594 L 402.195312 359.644531 C 402.1875 359.65625 402.175781 359.664062 402.167969 359.675781 C 402.152344 359.660156 402.136719 359.644531 402.121094 359.628906 L 402.113281 356.929688 C 402.136719 356.929688 402.15625 356.9375 402.179688 356.9375 C 402.195312 356.9375 402.207031 356.933594 402.222656 356.933594 Z M 459.359375 354.574219 L 462.972656 362.027344 L 462.167969 362.542969 C 462.078125 362.59375 461.992188 362.644531 461.910156 362.707031 L 444.757812 373.660156 C 444.738281 373.667969 444.714844 373.671875 444.695312 373.683594 C 444.695312 373.683594 444.695312 373.683594 444.691406 373.6875 L 441.046875 366.371094 Z M 433.265625 369.046875 C 434.804688 366.226562 435.355469 363.199219 435.464844 362.484375 C 435.472656 362.46875 435.476562 362.457031 435.480469 362.445312 C 435.804688 362.667969 436.429688 363.226562 437.359375 364.535156 C 436.878906 365.074219 436.734375 365.855469 437.070312 366.53125 L 442.347656 377.121094 C 442.574219 377.585938 442.992188 377.925781 443.488281 378.0625 C 443.648438 378.109375 443.808594 378.128906 443.972656 378.128906 C 444.253906 378.128906 444.527344 378.046875 444.78125 377.921875 C 447.15625 382.996094 449.0625 388.804688 449.449219 390.007812 C 449.5625 392.777344 450.601562 415.246094 455.164062 430.644531 C 453.855469 432.4375 450.992188 436.929688 451.519531 441.171875 C 450.839844 441.367188 450.015625 441.433594 448.441406 441.433594 C 438.363281 441.433594 434.375 438.648438 433.558594 437.976562 C 432.777344 431.953125 431.6875 426.402344 430.660156 421.246094 C 429.1875 413.855469 427.914062 407.472656 427.914062 401.523438 C 427.914062 388.679688 432.78125 370.800781 433.265625 369.046875 Z M 434.636719 453.730469 C 434.636719 449.800781 434.414062 446.078125 434.070312 442.503906 C 436.753906 443.761719 441.257812 445.0625 448.441406 445.0625 C 450.308594 445.0625 451.546875 444.976562 452.800781 444.570312 C 454.214844 447.023438 455.589844 449.320312 457.386719 450.128906 L 453.5625 475.167969 C 453.429688 475.179688 453.296875 475.203125 453.164062 475.246094 C 451.472656 475.785156 450.15625 476.097656 448.441406 476.097656 C 439.09375 476.097656 434.410156 473.203125 432.945312 472.078125 C 433.996094 465.808594 434.636719 459.613281 434.636719 453.730469 Z M 455.792969 442.492188 L 455.589844 442.140625 C 453.808594 439.0625 457.136719 433.902344 458.570312 432.171875 C 458.964844 431.699219 459.089844 431.058594 458.910156 430.472656 C 454.050781 414.859375 453.078125 389.875 453.070312 389.625 C 453.0625 389.464844 453.039062 389.304688 452.988281 389.152344 C 452.890625 388.835938 450.722656 381.9375 447.878906 375.972656 L 461.851562 367.054688 C 462.960938 372.183594 463.640625 378.171875 464.070312 386.449219 C 464.074219 386.5 464.078125 386.550781 464.085938 386.601562 C 464.085938 386.601562 464.957031 392.984375 465.394531 396.300781 C 465.40625 396.410156 465.460938 396.503906 465.492188 396.609375 L 458.917969 439.410156 L 458.941406 439.410156 C 458.910156 439.589844 458.894531 439.773438 458.917969 439.960938 L 459.542969 444.90625 C 459.546875 444.929688 459.613281 445.445312 459.242188 446.070312 C 459.019531 446.449219 458.847656 446.648438 458.742188 446.746094 C 457.964844 446.253906 456.566406 443.832031 455.792969 442.492188 Z M 464.394531 441.039062 C 464.117188 440.917969 463.824219 440.875 463.539062 440.894531 L 465.09375 430.808594 C 466.4375 432.359375 468.449219 435.238281 469.359375 439.417969 C 469.808594 441.480469 467.972656 448.09375 464.6875 451.207031 C 463.433594 452.394531 462.492188 452.519531 461.945312 452.46875 C 461.953125 452.347656 461.976562 452.195312 462.035156 451.976562 C 462.28125 451.050781 463.277344 448.234375 463.667969 447.144531 L 465.316406 443.4375 C 465.722656 442.519531 465.3125 441.449219 464.394531 441.039062 Z M 397.492188 312.417969 C 397.765625 311.457031 398.765625 310.902344 399.726562 311.164062 C 399.757812 311.171875 400.636719 311.402344 402.011719 311.402344 C 403.613281 311.402344 404.347656 311.1875 404.355469 311.183594 C 405.292969 310.90625 406.320312 311.425781 406.625 312.367188 C 406.925781 313.308594 406.433594 314.3125 405.496094 314.632812 C 405.300781 314.699219 404.210938 315.03125 402.011719 315.03125 C 400.109375 315.03125 398.875 314.699219 398.742188 314.660156 C 397.777344 314.386719 397.214844 313.378906 397.492188 312.417969 Z M 393.390625 377.820312 C 394.15625 378.460938 394.253906 379.601562 393.617188 380.371094 C 393.585938 380.40625 390.601562 384.082031 390.460938 389.816406 C 390.433594 390.800781 389.625 391.585938 388.644531 391.585938 C 388.628906 391.585938 388.613281 391.585938 388.597656 391.585938 C 387.59375 391.558594 386.800781 390.726562 386.824219 389.722656 C 387.003906 382.667969 390.671875 378.226562 390.828125 378.039062 C 391.476562 377.273438 392.621094 377.175781 393.390625 377.820312 Z M 420.207031 391.34375 C 420.324219 392.339844 419.613281 393.238281 418.617188 393.359375 C 418.542969 393.367188 418.46875 393.371094 418.398438 393.371094 C 417.492188 393.371094 416.707031 392.691406 416.597656 391.769531 C 415.550781 382.957031 408.789062 376.710938 408.722656 376.648438 C 407.980469 375.976562 407.925781 374.828125 408.605469 374.085938 C 409.28125 373.34375 410.429688 373.292969 411.167969 373.96875 C 411.488281 374.257812 419.003906 381.199219 420.207031 391.34375 Z M 407.535156 392.855469 C 407.535156 393.859375 406.71875 394.671875 405.71875 394.671875 L 404.28125 394.671875 L 404.28125 396.378906 C 404.28125 397.382812 403.46875 398.195312 402.464844 398.195312 C 401.460938 398.195312 400.648438 397.382812 400.648438 396.378906 L 400.648438 394.671875 L 399.210938 394.671875 C 398.210938 394.671875 397.394531 393.859375 397.394531 392.855469 C 397.394531 391.855469 398.210938 391.039062 399.210938 391.039062 L 400.648438 391.039062 L 400.648438 386.382812 C 399.660156 386.367188 398.859375 385.5625 398.859375 384.570312 C 398.859375 383.578125 399.660156 382.773438 400.648438 382.757812 L 400.648438 378.71875 C 400.648438 377.71875 401.460938 376.90625 402.464844 376.90625 C 403.46875 376.90625 404.28125 377.71875 404.28125 378.71875 L 404.28125 382.753906 L 404.417969 382.753906 C 405.417969 382.753906 406.234375 383.566406 406.234375 384.570312 C 406.234375 385.570312 405.417969 386.386719 404.417969 386.386719 L 404.28125 386.386719 L 404.28125 391.039062 L 405.71875 391.039062 C 406.71875 391.039062 407.535156 391.855469 407.535156 392.855469 Z M 400.683594 295.925781 C 401.097656 296.839844 400.6875 297.914062 399.773438 298.328125 C 398.914062 298.714844 397.910156 298.371094 397.453125 297.5625 C 397.363281 298.480469 396.597656 299.199219 395.65625 299.199219 C 394.652344 299.199219 393.839844 298.386719 393.839844 297.386719 L 393.839844 297.300781 C 393.121094 297.679688 392.675781 298.140625 392.667969 298.148438 C 392.308594 298.550781 391.808594 298.753906 391.308594 298.753906 C 390.878906 298.753906 390.449219 298.605469 390.101562 298.296875 C 389.351562 297.628906 389.285156 296.480469 389.953125 295.734375 C 390.183594 295.472656 392.3125 293.191406 395.652344 293.191406 C 398.652344 293.191406 400.226562 294.910156 400.683594 295.925781 Z M 413.925781 295.421875 C 414.589844 296.175781 414.511719 297.324219 413.757812 297.984375 C 413.003906 298.648438 411.855469 298.570312 411.195312 297.816406 C 411.183594 297.804688 410.875 297.496094 410.3125 297.222656 L 410.3125 297.386719 C 410.3125 298.386719 409.496094 299.203125 408.496094 299.203125 C 407.5625 299.203125 406.800781 298.496094 406.699219 297.589844 C 406.367188 298.148438 405.78125 298.488281 405.152344 298.488281 C 404.902344 298.488281 404.648438 298.4375 404.40625 298.324219 C 403.492188 297.914062 403.085938 296.839844 403.5 295.925781 C 403.949219 294.925781 405.496094 293.246094 408.414062 293.203125 C 408.441406 293.199219 408.46875 293.195312 408.492188 293.195312 C 408.5 293.195312 408.503906 293.195312 408.507812 293.195312 C 408.515625 293.195312 408.519531 293.195312 408.527344 293.195312 C 411.875 293.191406 413.726562 295.195312 413.925781 295.421875 Z M 319.042969 396.640625 C 319.042969 399.875 316.421875 402.496094 313.183594 402.496094 C 309.949219 402.496094 307.324219 399.875 307.324219 396.640625 C 307.324219 393.40625 309.949219 390.785156 313.183594 390.785156 C 316.421875 390.785156 319.042969 393.40625 319.042969 396.640625 Z M 500.949219 396.640625 C 500.949219 399.875 498.328125 402.496094 495.089844 402.496094 C 491.855469 402.496094 489.230469 399.875 489.230469 396.640625 C 489.230469 393.40625 491.855469 390.785156 495.089844 390.785156 C 498.328125 390.785156 500.949219 393.40625 500.949219 396.640625 Z M 344.597656 421 C 344.597656 418.800781 346.378906 417.015625 348.582031 417.015625 C 350.78125 417.015625 352.566406 418.800781 352.566406 421 C 352.566406 423.195312 350.78125 424.980469 348.582031 424.980469 C 346.378906 424.980469 344.597656 423.199219 344.597656 421 Z M 311.308594 500.628906 C 311.308594 502.828125 309.523438 504.609375 307.324219 504.609375 C 305.121094 504.609375 303.339844 502.828125 303.339844 500.628906 C 303.339844 498.429688 305.121094 496.648438 307.324219 496.648438 C 309.523438 496.648438 311.308594 498.429688 311.308594 500.628906 Z M 495.324219 500.628906 C 495.324219 498.429688 497.109375 496.648438 499.308594 496.648438 C 501.511719 496.648438 503.292969 498.429688 503.292969 500.628906 C 503.292969 502.828125 501.511719 504.609375 499.308594 504.609375 C 497.109375 504.609375 495.324219 502.828125 495.324219 500.628906 Z M 324.90625 265.71875 C 324.90625 263.519531 326.6875 261.738281 328.890625 261.738281 C 331.089844 261.738281 332.875 263.519531 332.875 265.71875 C 332.875 267.917969 331.089844 269.699219 328.890625 269.699219 C 326.6875 269.699219 324.90625 267.917969 324.90625 265.71875 Z M 471.882812 265.71875 C 471.882812 263.519531 473.667969 261.738281 475.867188 261.738281 C 478.070312 261.738281 479.851562 263.519531 479.851562 265.71875 C 479.851562 267.917969 478.070312 269.699219 475.867188 269.699219 C 473.667969 269.699219 471.882812 267.917969 471.882812 265.71875 Z M 325.375 441.609375 C 325.375 443.289062 324.007812 444.652344 322.328125 444.652344 C 320.644531 444.652344 319.277344 443.289062 319.277344 441.609375 C 319.277344 439.925781 320.644531 438.5625 322.328125 438.5625 C 324.007812 438.5625 325.375 439.925781 325.375 441.609375 Z M 481.496094 441.609375 C 481.496094 439.925781 482.859375 438.5625 484.542969 438.5625 C 486.226562 438.5625 487.589844 439.925781 487.589844 441.609375 C 487.589844 443.289062 486.226562 444.652344 484.542969 444.652344 C 482.859375 444.652344 481.496094 443.289062 481.496094 441.609375 Z M 354.207031 492.902344 C 354.207031 491.21875 355.570312 489.855469 357.253906 489.855469 C 358.9375 489.855469 360.300781 491.21875 360.300781 492.902344 C 360.300781 494.582031 358.9375 495.945312 357.253906 495.945312 C 355.570312 495.945312 354.207031 494.582031 354.207031 492.902344 Z M 446.097656 492.902344 C 446.097656 494.582031 444.734375 495.945312 443.050781 495.945312 C 441.367188 495.945312 440.003906 494.582031 440.003906 492.902344 C 440.003906 491.21875 441.367188 489.855469 443.050781 489.855469 C 444.734375 489.855469 446.097656 491.21875 446.097656 492.902344 Z M 357.957031 307.40625 C 357.957031 305.726562 359.320312 304.363281 361.003906 304.363281 C 362.6875 304.363281 364.050781 305.726562 364.050781 307.40625 C 364.050781 309.089844 362.6875 310.453125 361.003906 310.453125 C 359.320312 310.453125 357.957031 309.089844 357.957031 307.40625 Z M 443.285156 307.40625 C 443.285156 305.726562 444.648438 304.363281 446.332031 304.363281 C 448.015625 304.363281 449.378906 305.726562 449.378906 307.40625 C 449.378906 309.089844 448.015625 310.453125 446.332031 310.453125 C 444.648438 310.453125 443.285156 309.089844 443.285156 307.40625 Z M 307.792969 291.949219 C 307.792969 293.632812 306.429688 294.992188 304.746094 294.992188 C 303.0625 294.992188 301.699219 293.632812 301.699219 291.949219 C 301.699219 290.269531 303.0625 288.90625 304.746094 288.90625 C 306.429688 288.90625 307.792969 290.269531 307.792969 291.949219 Z M 361.941406 272.042969 C 361.941406 270.359375 363.308594 268.996094 364.988281 268.996094 C 366.671875 268.996094 368.039062 270.359375 368.039062 272.042969 C 368.039062 273.722656 366.671875 275.085938 364.988281 275.085938 C 363.308594 275.085938 361.941406 273.722656 361.941406 272.042969 Z M 502.589844 355.886719 C 502.589844 357.570312 501.226562 358.933594 499.542969 358.933594 C 497.859375 358.933594 496.496094 357.570312 496.496094 355.886719 C 496.496094 354.207031 497.859375 352.84375 499.542969 352.84375 C 501.226562 352.84375 502.589844 354.207031 502.589844 355.886719 Z M 437.894531 272.042969 C 437.894531 270.359375 439.257812 268.996094 440.941406 268.996094 C 442.625 268.996094 443.988281 270.359375 443.988281 272.042969 C 443.988281 273.722656 442.625 275.085938 440.941406 275.085938 C 439.257812 275.085938 437.894531 273.722656 437.894531 272.042969 Z M 384.21875 363.734375 C 384.21875 364.738281 383.378906 365.550781 382.375 365.550781 C 381.589844 365.550781 380.613281 365.179688 380.230469 365.019531 C 379.304688 364.632812 378.867188 363.570312 379.253906 362.644531 C 379.640625 361.722656 380.699219 361.285156 381.628906 361.667969 C 381.90625 361.78125 382.296875 361.90625 382.429688 361.921875 C 383.433594 361.921875 384.21875 362.734375 384.21875 363.734375 Z M 424.214844 365.019531 C 423.832031 365.179688 422.855469 365.550781 422.070312 365.550781 C 421.066406 365.550781 420.253906 364.738281 420.253906 363.734375 C 420.253906 362.734375 421.066406 361.917969 422.070312 361.917969 C 422.164062 361.902344 422.574219 361.769531 422.816406 361.667969 C 423.746094 361.28125 424.808594 361.71875 425.191406 362.644531 C 425.578125 363.570312 425.140625 364.632812 424.214844 365.019531 Z M 317.085938 623.128906 L 313.027344 629.226562 L 317.085938 635.3125 C 317.375 635.75 317.472656 636.222656 317.375 636.742188 C 317.269531 637.257812 317 637.664062 316.5625 637.960938 C 316.242188 638.171875 315.886719 638.277344 315.5 638.277344 C 314.820312 638.277344 314.289062 637.996094 313.910156 637.429688 L 309.707031 631.125 L 305.480469 631.125 L 305.480469 636.363281 C 305.480469 636.898438 305.296875 637.347656 304.925781 637.71875 C 304.554688 638.089844 304.105469 638.277344 303.582031 638.277344 C 303.046875 638.277344 302.59375 638.089844 302.222656 637.71875 C 301.851562 637.347656 301.667969 636.898438 301.667969 636.363281 L 301.667969 622.074219 C 301.667969 621.550781 301.851562 621.101562 302.222656 620.730469 C 302.59375 620.351562 303.046875 620.160156 303.582031 620.160156 C 304.105469 620.160156 304.554688 620.351562 304.925781 620.730469 C 305.296875 621.101562 305.480469 621.550781 305.480469 622.074219 L 305.480469 627.3125 L 309.707031 627.3125 L 313.910156 621.019531 C 314.203125 620.578125 314.605469 620.304688 315.125 620.199219 C 315.640625 620.101562 316.117188 620.199219 316.5625 620.488281 C 317 620.777344 317.269531 621.183594 317.375 621.699219 C 317.472656 622.214844 317.375 622.691406 317.085938 623.128906 Z M 324.738281 620.730469 C 325.109375 621.101562 325.296875 621.550781 325.296875 622.074219 L 325.296875 636.367188 C 325.296875 636.898438 325.109375 637.351562 324.738281 637.722656 C 324.367188 638.09375 323.917969 638.277344 323.394531 638.277344 C 322.863281 638.277344 322.410156 638.09375 322.039062 637.722656 C 321.664062 637.351562 321.480469 636.898438 321.480469 636.367188 L 321.480469 622.074219 C 321.480469 621.550781 321.664062 621.101562 322.039062 620.730469 C 322.410156 620.351562 322.863281 620.160156 323.394531 620.160156 C 323.917969 620.160156 324.367188 620.351562 324.738281 620.730469 Z M 345.523438 620.730469 C 345.894531 621.101562 346.078125 621.550781 346.078125 622.074219 L 346.078125 636.367188 C 346.078125 636.769531 345.960938 637.136719 345.726562 637.46875 C 345.5 637.796875 345.199219 638.03125 344.820312 638.167969 C 344.609375 638.242188 344.390625 638.277344 344.164062 638.277344 C 343.566406 638.277344 343.078125 638.046875 342.699219 637.589844 L 334.148438 627.339844 L 334.148438 636.367188 C 334.148438 636.898438 333.964844 637.351562 333.59375 637.722656 C 333.21875 638.09375 332.773438 638.277344 332.246094 638.277344 C 331.714844 638.277344 331.261719 638.09375 330.890625 637.722656 C 330.519531 637.351562 330.332031 636.898438 330.332031 636.367188 L 330.332031 622.074219 C 330.332031 621.671875 330.453125 621.304688 330.6875 620.972656 C 330.910156 620.652344 331.214844 620.421875 331.59375 620.285156 C 331.972656 620.148438 332.355469 620.132812 332.746094 620.234375 C 333.132812 620.339844 333.457031 620.546875 333.714844 620.851562 L 342.265625 631.101562 L 342.265625 622.074219 C 342.265625 621.550781 342.449219 621.101562 342.820312 620.730469 C 343.191406 620.351562 343.640625 620.164062 344.164062 620.164062 C 344.691406 620.160156 345.140625 620.351562 345.523438 620.730469 Z M 367.683594 627.847656 C 368.082031 628.226562 368.277344 628.683594 368.277344 629.214844 L 368.277344 629.226562 C 368.277344 631.71875 367.390625 633.851562 365.613281 635.628906 C 363.847656 637.394531 361.710938 638.277344 359.207031 638.277344 C 356.710938 638.277344 354.578125 637.394531 352.800781 635.628906 C 351.03125 633.851562 350.148438 631.71875 350.148438 629.226562 C 350.148438 626.726562 351.03125 624.589844 352.800781 622.824219 C 354.578125 621.050781 356.710938 620.160156 359.207031 620.160156 C 361.710938 620.160156 363.84375 621.046875 365.613281 622.8125 C 365.992188 623.183594 366.183594 623.636719 366.183594 624.167969 C 366.183594 624.691406 366 625.140625 365.625 625.511719 C 365.253906 625.882812 364.804688 626.066406 364.269531 626.066406 C 363.746094 626.074219 363.296875 625.890625 362.925781 625.511719 C 361.898438 624.488281 360.660156 623.972656 359.207031 623.972656 C 357.761719 623.972656 356.527344 624.492188 355.5 625.523438 C 354.476562 626.546875 353.960938 627.78125 353.960938 629.226562 C 353.960938 630.667969 354.476562 631.90625 355.5 632.929688 C 356.527344 633.953125 357.761719 634.464844 359.207031 634.464844 C 360.304688 634.464844 361.300781 634.15625 362.199219 633.535156 C 363.078125 632.921875 363.710938 632.117188 364.101562 631.125 L 359.207031 631.125 C 358.679688 631.125 358.234375 630.941406 357.863281 630.570312 C 357.492188 630.199219 357.304688 629.75 357.304688 629.226562 C 357.304688 628.703125 357.492188 628.25 357.863281 627.871094 C 358.234375 627.5 358.679688 627.3125 359.207031 627.3125 L 366.292969 627.3125 C 366.832031 627.296875 367.296875 627.476562 367.683594 627.847656 Z M 435.242188 625.511719 C 434.21875 626.535156 433.703125 627.773438 433.703125 629.226562 C 433.703125 630.667969 434.21875 631.90625 435.242188 632.929688 C 436.269531 633.953125 437.503906 634.464844 438.949219 634.464844 C 440.394531 634.464844 441.628906 633.953125 442.65625 632.929688 C 443.027344 632.558594 443.476562 632.371094 444.011719 632.371094 C 444.535156 632.371094 444.984375 632.558594 445.355469 632.929688 C 445.726562 633.300781 445.914062 633.746094 445.914062 634.269531 C 445.914062 634.804688 445.726562 635.257812 445.355469 635.628906 C 443.585938 637.394531 441.449219 638.277344 438.949219 638.277344 C 436.445312 638.277344 434.308594 637.394531 432.542969 635.628906 C 430.773438 633.859375 429.890625 631.726562 429.890625 629.226562 C 429.890625 626.71875 430.773438 624.582031 432.542969 622.824219 C 434.308594 621.050781 436.445312 620.160156 438.949219 620.160156 C 441.449219 620.160156 443.585938 621.050781 445.355469 622.824219 C 445.726562 623.195312 445.914062 623.644531 445.914062 624.167969 C 445.914062 624.691406 445.726562 625.140625 445.355469 625.511719 C 444.984375 625.890625 444.535156 626.078125 444.011719 626.078125 C 443.476562 626.078125 443.027344 625.890625 442.65625 625.511719 C 441.628906 624.488281 440.394531 623.972656 438.949219 623.972656 C 437.503906 623.972656 436.269531 624.488281 435.242188 625.511719 Z M 464.890625 620.730469 C 465.261719 621.101562 465.449219 621.550781 465.449219 622.074219 L 465.449219 630.410156 C 465.449219 632.582031 464.679688 634.433594 463.136719 635.964844 C 461.601562 637.507812 459.75 638.277344 457.578125 638.277344 C 455.402344 638.277344 453.550781 637.507812 452.019531 635.964844 C 450.476562 634.433594 449.703125 632.582031 449.703125 630.410156 L 449.703125 622.074219 C 449.703125 621.550781 449.886719 621.101562 450.261719 620.730469 C 450.632812 620.351562 451.085938 620.160156 451.617188 620.160156 C 452.140625 620.160156 452.589844 620.351562 452.960938 620.730469 C 453.332031 621.101562 453.519531 621.550781 453.519531 622.074219 L 453.519531 630.410156 C 453.519531 631.535156 453.914062 632.488281 454.703125 633.28125 C 455.496094 634.070312 456.453125 634.464844 457.578125 634.464844 C 458.691406 634.464844 459.644531 634.070312 460.433594 633.28125 C 461.234375 632.488281 461.632812 631.535156 461.632812 630.410156 L 461.632812 622.074219 C 461.632812 621.550781 461.820312 621.101562 462.191406 620.730469 C 462.5625 620.351562 463.011719 620.160156 463.535156 620.160156 C 464.058594 620.160156 464.511719 620.351562 464.890625 620.730469 Z M 479.535156 620.160156 L 472.386719 620.160156 C 471.855469 620.160156 471.402344 620.351562 471.03125 620.730469 C 470.660156 621.101562 470.476562 621.550781 470.476562 622.074219 L 470.476562 636.367188 C 470.476562 636.898438 470.660156 637.351562 471.03125 637.722656 C 471.402344 638.09375 471.855469 638.277344 472.386719 638.277344 C 472.914062 638.277344 473.363281 638.09375 473.734375 637.722656 C 474.105469 637.351562 474.289062 636.898438 474.289062 636.367188 L 474.289062 633.511719 L 479.535156 633.511719 C 481.375 633.511719 482.949219 632.855469 484.257812 631.550781 C 485.566406 630.25 486.21875 628.683594 486.21875 626.84375 C 486.21875 625.003906 485.566406 623.429688 484.257812 622.125 C 482.949219 620.816406 481.375 620.160156 479.535156 620.160156 Z M 481.554688 628.863281 C 481 629.417969 480.328125 629.699219 479.535156 629.699219 L 474.289062 629.699219 L 474.289062 623.972656 L 479.535156 623.972656 C 480.328125 623.972656 481 624.257812 481.554688 624.820312 C 482.121094 625.378906 482.40625 626.050781 482.40625 626.839844 C 482.40625 627.625 482.121094 628.300781 481.554688 628.863281 Z M 493.644531 624.46875 C 493.3125 624.792969 493.148438 625.183594 493.148438 625.644531 C 493.148438 626.105469 493.3125 626.5 493.644531 626.832031 C 493.96875 627.152344 494.359375 627.3125 494.820312 627.3125 L 499.589844 627.3125 C 501.101562 627.3125 502.390625 627.851562 503.464844 628.921875 C 504.539062 629.996094 505.078125 631.289062 505.078125 632.796875 C 505.078125 634.304688 504.539062 635.59375 503.464844 636.667969 C 502.390625 637.742188 501.101562 638.277344 499.589844 638.277344 L 491.246094 638.277344 C 490.714844 638.277344 490.261719 638.09375 489.890625 637.722656 C 489.519531 637.351562 489.332031 636.898438 489.332031 636.367188 C 489.332031 635.839844 489.519531 635.394531 489.890625 635.023438 C 490.261719 634.652344 490.710938 634.464844 491.246094 634.464844 L 499.589844 634.464844 C 500.050781 634.464844 500.441406 634.304688 500.765625 633.980469 C 501.097656 633.652344 501.261719 633.253906 501.261719 632.796875 C 501.261719 632.335938 501.097656 631.945312 500.765625 631.621094 C 500.441406 631.292969 500.050781 631.125 499.589844 631.125 L 494.820312 631.125 C 493.308594 631.125 492.015625 630.589844 490.941406 629.515625 C 489.867188 628.453125 489.332031 627.160156 489.332031 625.644531 C 489.332031 624.136719 489.867188 622.84375 490.941406 621.769531 C 492.015625 620.699219 493.308594 620.160156 494.820312 620.160156 L 503.164062 620.160156 C 503.6875 620.160156 504.140625 620.351562 504.519531 620.730469 C 504.890625 621.101562 505.078125 621.550781 505.078125 622.074219 C 505.078125 622.597656 504.890625 623.046875 504.519531 623.417969 C 504.140625 623.789062 503.6875 623.972656 503.164062 623.972656 L 494.820312 623.972656 C 494.359375 623.972656 493.96875 624.140625 493.644531 624.46875 Z M 392.664062 622.851562 C 390.429688 622.851562 388.460938 623.730469 387.113281 625.332031 C 385.9375 626.722656 385.289062 628.570312 385.289062 630.53125 C 385.289062 634.320312 387.824219 638.15625 392.664062 638.15625 C 394.878906 638.15625 396.835938 637.277344 398.167969 635.679688 C 399.320312 634.292969 399.957031 632.457031 399.957031 630.503906 C 399.957031 626.699219 397.453125 622.851562 392.664062 622.851562 Z M 395.375 633.355469 C 394.726562 634.132812 393.816406 634.527344 392.664062 634.527344 C 389.902344 634.527344 388.925781 632.375 388.925781 630.53125 C 388.925781 629.441406 389.277344 628.398438 389.890625 627.667969 C 390.554688 626.882812 391.488281 626.480469 392.664062 626.480469 C 395.554688 626.480469 396.324219 629.007812 396.324219 630.503906 C 396.324219 631.59375 395.976562 632.632812 395.375 633.355469 Z M 413.53125 624.78125 C 413.53125 625.78125 412.71875 626.59375 411.714844 626.59375 L 407.472656 626.59375 L 407.472656 629.523438 L 410.910156 629.523438 C 411.914062 629.523438 412.726562 630.335938 412.726562 631.339844 C 412.726562 632.339844 411.914062 633.152344 410.910156 633.152344 L 407.472656 633.152344 L 407.472656 636.03125 C 407.472656 637.03125 406.660156 637.847656 405.65625 637.847656 C 404.65625 637.847656 403.839844 637.03125 403.839844 636.03125 L 403.839844 624.78125 C 403.839844 623.777344 404.65625 622.964844 405.65625 622.964844 L 411.714844 622.964844 C 412.71875 622.964844 413.53125 623.777344 413.53125 624.78125 Z M 344.203125 566.476562 C 345.277344 566.160156 346.390625 565.832031 347.484375 565.332031 C 348.964844 564.652344 350.921875 563.378906 351.820312 561.167969 C 351.875 561.03125 351.925781 560.890625 351.976562 560.75 C 352.027344 560.617188 352.066406 560.484375 352.128906 560.359375 C 352.195312 560.230469 352.328125 560.054688 352.472656 559.867188 L 352.667969 559.601562 C 353.371094 558.636719 353.878906 557.5625 354.183594 556.414062 C 354.335938 555.855469 354.507812 555.003906 354.308594 554.085938 C 354.257812 553.863281 354.1875 553.644531 354.113281 553.429688 C 354.085938 553.351562 354.054688 553.261719 354.039062 553.289062 C 354.054688 553.171875 354.101562 553.058594 354.160156 552.882812 C 354.488281 551.882812 354.742188 550.84375 354.914062 549.796875 C 355.0625 548.914062 355.144531 547.878906 354.628906 546.871094 C 354.238281 546.101562 353.628906 545.625 353.183594 545.277344 C 353.003906 545.136719 352.820312 544.996094 352.734375 544.894531 C 352.722656 544.875 352.714844 544.859375 352.707031 544.839844 C 352.46875 544.503906 352.414062 543.738281 352.375 543.214844 C 352.375 543.191406 352.367188 543.167969 352.367188 543.148438 C 352.363281 543.125 352.367188 543.101562 352.363281 543.082031 L 352.328125 542.835938 C 352.183594 541.824219 352.097656 541.214844 351.574219 540.007812 C 350.855469 538.355469 349.65625 537.148438 348.199219 536.605469 C 348.089844 536.5625 347.976562 536.527344 347.863281 536.488281 C 347.8125 536.472656 347.757812 536.457031 347.703125 536.4375 C 347.632812 536.308594 347.535156 536.035156 347.441406 535.785156 C 346.425781 533.015625 344.792969 531.203125 342.722656 530.554688 C 342.164062 530.382812 341.628906 530.308594 341.152344 530.246094 C 340.707031 530.183594 340.285156 530.128906 340.023438 530.003906 C 339.660156 529.832031 339.28125 529.394531 338.878906 528.925781 C 338.585938 528.589844 338.292969 528.253906 337.972656 527.953125 C 336.164062 526.230469 333.53125 525.5 331.09375 526.035156 C 330.863281 526.085938 330.632812 526.148438 330.40625 526.210938 C 330.042969 526.308594 329.691406 526.402344 329.492188 526.390625 C 329.246094 526.375 328.871094 526.183594 328.46875 525.984375 C 328.109375 525.804688 327.742188 525.625 327.367188 525.488281 C 325.1875 524.695312 322.613281 525.265625 320.976562 526.921875 C 320.859375 527.039062 320.746094 527.164062 320.632812 527.289062 C 320.519531 527.414062 320.347656 527.605469 320.316406 527.632812 C 320.304688 527.636719 320.296875 527.644531 320.285156 527.648438 C 320.277344 527.652344 320.269531 527.648438 320.265625 527.652344 C 320.152344 527.636719 319.964844 527.589844 319.832031 527.554688 C 319.292969 527.421875 318.550781 527.234375 317.703125 527.402344 C 317.070312 527.527344 316.570312 527.808594 316.207031 528.015625 C 315.152344 528.613281 313.957031 529.289062 312.925781 530.230469 C 312.675781 530.453125 312.441406 530.691406 312.207031 530.929688 C 311.886719 531.257812 311.582031 531.566406 311.28125 531.78125 C 311.023438 531.964844 310.691406 532.136719 310.34375 532.316406 C 310.082031 532.449219 309.824219 532.582031 309.574219 532.726562 C 307.242188 534.074219 305.519531 536.445312 304.941406 539.164062 C 304.71875 539.269531 304.429688 539.421875 304.144531 539.667969 C 303.324219 540.394531 303.148438 541.378906 303.058594 541.914062 L 302.621094 544.433594 C 302.429688 545.539062 302.210938 546.792969 302.285156 548.089844 C 302.4375 550.714844 303.765625 553.363281 306.234375 555.964844 C 307.113281 556.894531 308.054688 557.75 308.964844 558.578125 C 309.289062 558.875 309.617188 559.171875 309.941406 559.472656 C 311.25 560.6875 312.488281 561.972656 313.691406 563.289062 C 313.632812 563.949219 313.578125 564.617188 313.527344 565.292969 C 313.453125 566.214844 313.378906 567.140625 313.296875 568.015625 C 313.246094 568.566406 313.140625 569.703125 313.949219 570.652344 C 314.8125 571.664062 316.0625 571.683594 316.664062 571.695312 C 317.957031 571.714844 319.261719 571.835938 320.550781 572.03125 C 321.144531 572.660156 322.027344 573.152344 323.085938 573.40625 C 323.773438 573.574219 324.480469 573.65625 325.183594 573.65625 C 326.066406 573.65625 326.949219 573.527344 327.796875 573.269531 C 327.800781 573.265625 327.808594 573.265625 327.8125 573.261719 C 327.835938 573.269531 327.851562 573.285156 327.875 573.292969 L 331.992188 574.773438 C 332.191406 574.839844 332.554688 574.96875 333.007812 574.96875 C 333.144531 574.96875 333.292969 574.957031 333.445312 574.929688 C 334.503906 574.726562 335.035156 573.882812 335.207031 573.609375 C 336.140625 572.128906 336.847656 570.605469 337.371094 568.996094 C 337.886719 568.792969 338.40625 568.589844 338.9375 568.375 C 339.652344 568.085938 340.367188 567.796875 341.042969 567.539062 C 341.613281 567.324219 342.183594 567.105469 342.761719 566.914062 C 343.238281 566.757812 343.71875 566.617188 344.203125 566.476562 Z M 339.753906 564.148438 C 339.023438 564.425781 338.296875 564.714844 337.570312 565.007812 C 336.855469 565.296875 336.140625 565.585938 335.46875 565.84375 C 335.445312 565.851562 335.429688 565.863281 335.40625 565.871094 C 335.386719 565.878906 335.367188 565.882812 335.347656 565.894531 L 328.300781 569.152344 C 327.753906 569.402344 327.238281 569.640625 326.738281 569.792969 C 322.871094 570.96875 321.632812 567.164062 319.625 564.625 C 317.425781 561.84375 315.011719 559.226562 312.414062 556.8125 C 312.078125 556.503906 311.742188 556.199219 311.40625 555.890625 C 310.507812 555.074219 309.660156 554.300781 308.871094 553.46875 C 307.007812 551.503906 306.015625 549.625 305.910156 547.878906 C 305.859375 547 306.027344 546.054688 306.199219 545.054688 L 306.378906 544.023438 C 308.296875 546.996094 309.648438 549.855469 309.664062 549.890625 C 309.972656 550.550781 310.628906 550.9375 311.308594 550.9375 C 311.566406 550.9375 311.832031 550.882812 312.082031 550.765625 C 312.988281 550.339844 313.378906 549.261719 312.953125 548.351562 C 312.871094 548.171875 310.972656 544.144531 308.351562 540.460938 C 308.417969 540.246094 308.46875 540.035156 308.503906 539.859375 C 308.816406 538.363281 309.730469 537.007812 310.984375 536.136719 C 311.429688 537.300781 311.796875 538.332031 312.152344 539.328125 C 312.847656 541.292969 313.570312 543.324219 314.886719 546.390625 C 315.183594 547.078125 315.855469 547.492188 316.558594 547.492188 C 316.796875 547.492188 317.039062 547.441406 317.273438 547.34375 C 318.195312 546.949219 318.621094 545.882812 318.226562 544.960938 C 316.953125 541.996094 316.285156 540.113281 315.578125 538.117188 C 315.144531 536.90625 314.695312 535.644531 314.109375 534.144531 C 314.359375 533.914062 314.589844 533.6875 314.800781 533.472656 C 314.988281 533.28125 315.171875 533.089844 315.371094 532.910156 C 316.101562 532.246094 317.023438 531.726562 318 531.171875 C 318.121094 531.101562 318.332031 530.984375 318.386719 530.96875 C 318.429688 530.96875 318.519531 530.984375 318.621094 531.003906 C 318.777344 532.289062 319.003906 533.742188 319.242188 535.265625 C 319.632812 537.757812 320.039062 540.332031 320.210938 542.570312 C 320.285156 543.523438 321.082031 544.246094 322.019531 544.246094 C 322.066406 544.246094 322.113281 544.246094 322.160156 544.242188 C 323.164062 544.164062 323.910156 543.292969 323.832031 542.292969 C 323.648438 539.910156 323.234375 537.265625 322.832031 534.703125 C 322.609375 533.269531 322.394531 531.890625 322.242188 530.699219 C 322.71875 530.394531 323.0625 530.015625 323.328125 529.71875 C 323.40625 529.636719 323.480469 529.550781 323.558594 529.472656 C 324.195312 528.832031 325.273438 528.589844 326.121094 528.898438 C 326.371094 528.988281 326.605469 529.113281 326.84375 529.230469 C 326.992188 529.304688 327.152344 529.382812 327.316406 529.460938 C 327.179688 531.558594 327.03125 533.402344 326.832031 535.511719 C 326.671875 537.226562 326.589844 538.015625 326.511719 538.804688 C 326.429688 539.597656 326.351562 540.394531 326.1875 542.121094 C 326.09375 543.121094 326.824219 544.003906 327.824219 544.097656 C 327.882812 544.105469 327.941406 544.109375 328 544.109375 C 328.925781 544.109375 329.714844 543.402344 329.804688 542.464844 C 329.964844 540.75 330.046875 539.957031 330.125 539.167969 C 330.207031 538.375 330.289062 537.578125 330.449219 535.851562 C 330.648438 533.746094 330.796875 531.90625 330.933594 529.824219 C 331.085938 529.785156 331.234375 529.746094 331.371094 529.707031 C 331.539062 529.664062 331.707031 529.617188 331.875 529.578125 C 333.121094 529.300781 334.535156 529.695312 335.46875 530.578125 C 335.699219 530.804688 335.914062 531.054688 336.128906 531.300781 C 336.464844 531.6875 336.832031 532.097656 337.265625 532.476562 C 336.445312 534.738281 336.066406 535.882812 335.699219 536.980469 C 335.277344 538.253906 334.839844 539.570312 333.6875 542.710938 C 333.339844 543.652344 333.824219 544.695312 334.769531 545.039062 C 334.972656 545.117188 335.183594 545.152344 335.390625 545.152344 C 336.132812 545.152344 336.828125 544.695312 337.097656 543.960938 C 338.269531 540.765625 338.714844 539.421875 339.148438 538.125 C 339.5 537.070312 339.867188 535.96875 340.667969 533.839844 C 341.027344 533.890625 341.371094 533.9375 341.636719 534.019531 C 342.902344 534.417969 343.679688 536.078125 344.058594 537.109375 C 344.113281 537.261719 344.175781 537.433594 344.25 537.609375 C 342.921875 539.789062 342.714844 540.136719 342.613281 540.304688 C 342.503906 540.484375 342.503906 540.484375 341.28125 542.492188 C 339.109375 546.035156 338.832031 546.492188 340.03125 547.523438 C 340.355469 547.800781 340.773438 547.9375 341.195312 547.9375 C 341.648438 547.9375 342.109375 547.78125 342.460938 547.484375 C 342.75 547.238281 342.945312 546.925781 343.039062 546.585938 C 343.269531 546.195312 343.71875 545.464844 344.378906 544.382812 C 345.617188 542.355469 345.617188 542.355469 345.730469 542.171875 C 345.820312 542.019531 346 541.722656 347.015625 540.050781 C 347.492188 540.265625 347.949219 540.777344 348.242188 541.453125 C 348.570312 542.207031 348.601562 542.425781 348.730469 543.339844 L 348.757812 543.542969 C 348.785156 543.984375 348.832031 544.511719 348.949219 545.066406 C 346.652344 546.949219 344.222656 549.195312 344.105469 549.304688 C 343.371094 549.984375 343.324219 551.132812 344.007812 551.867188 C 344.363281 552.253906 344.851562 552.449219 345.339844 552.449219 C 345.78125 552.449219 346.226562 552.289062 346.574219 551.96875 C 346.601562 551.941406 348.808594 549.902344 350.949219 548.140625 C 351.105469 548.265625 351.34375 548.449219 351.378906 548.492188 C 351.394531 548.539062 351.414062 548.695312 351.332031 549.199219 C 351.1875 550.066406 350.976562 550.925781 350.6875 551.8125 C 350.679688 551.824219 350.675781 551.84375 350.671875 551.859375 C 348.171875 553.308594 343.703125 556.144531 343.5 556.273438 C 342.652344 556.8125 342.402344 557.933594 342.941406 558.78125 C 343.289062 559.324219 343.875 559.621094 344.476562 559.621094 C 344.808594 559.621094 345.148438 559.53125 345.449219 559.335938 C 345.488281 559.316406 348.070312 557.675781 350.386719 556.261719 C 350.207031 556.6875 349.996094 557.101562 349.730469 557.46875 L 349.574219 557.675781 C 349.363281 557.953125 349.101562 558.296875 348.886719 558.71875 C 348.757812 558.976562 348.65625 559.25 348.558594 559.523438 C 348.523438 559.617188 348.488281 559.710938 348.453125 559.804688 C 347.976562 560.96875 346.691406 561.699219 345.96875 562.03125 C 345.113281 562.421875 344.171875 562.699219 343.179688 562.992188 C 342.023438 563.332031 340.882812 563.726562 339.753906 564.148438 Z M 477.484375 573.261719 C 477.488281 573.261719 477.492188 573.265625 477.5 573.265625 C 478.351562 573.527344 479.230469 573.65625 480.113281 573.65625 C 480.816406 573.65625 481.523438 573.574219 482.210938 573.40625 C 483.269531 573.152344 484.15625 572.65625 484.746094 572.03125 C 486.035156 571.835938 487.339844 571.714844 488.636719 571.695312 C 489.238281 571.683594 490.488281 571.660156 491.351562 570.648438 C 492.160156 569.699219 492.046875 568.515625 492 568.015625 C 491.917969 567.140625 491.847656 566.214844 491.773438 565.289062 C 491.71875 564.617188 491.664062 563.949219 491.605469 563.289062 C 492.8125 561.972656 494.050781 560.6875 495.359375 559.472656 C 495.683594 559.167969 496.015625 558.867188 496.34375 558.566406 C 497.25 557.746094 498.1875 556.894531 499.066406 555.964844 C 501.53125 553.363281 502.859375 550.714844 503.011719 548.089844 C 503.085938 546.792969 502.871094 545.539062 502.679688 544.433594 L 502.238281 541.910156 C 502.148438 541.378906 501.972656 540.390625 501.148438 539.664062 C 500.867188 539.421875 500.578125 539.265625 500.359375 539.160156 C 500.355469 539.148438 500.351562 539.136719 500.351562 539.121094 C 499.800781 536.472656 498.070312 534.082031 495.722656 532.726562 C 495.472656 532.582031 495.214844 532.449219 494.957031 532.316406 C 494.605469 532.136719 494.273438 531.964844 494.015625 531.78125 C 493.714844 531.566406 493.410156 531.257812 493.089844 530.929688 C 492.855469 530.691406 492.621094 530.453125 492.375 530.230469 C 491.339844 529.289062 490.144531 528.613281 489.089844 528.015625 C 488.726562 527.808594 488.230469 527.527344 487.59375 527.402344 C 486.742188 527.238281 486.003906 527.421875 485.464844 527.554688 C 485.332031 527.589844 485.144531 527.636719 485.03125 527.652344 C 485.027344 527.652344 485.023438 527.652344 485.019531 527.648438 C 484.949219 527.601562 484.777344 527.414062 484.664062 527.289062 C 484.554688 527.164062 484.441406 527.039062 484.320312 526.917969 C 482.683594 525.269531 480.113281 524.691406 477.929688 525.488281 C 477.554688 525.625 477.191406 525.804688 476.828125 525.984375 C 476.425781 526.183594 476.050781 526.375 475.800781 526.390625 C 475.617188 526.410156 475.253906 526.308594 474.890625 526.210938 C 474.664062 526.148438 474.4375 526.085938 474.207031 526.035156 C 471.769531 525.5 469.132812 526.234375 467.324219 527.953125 C 467.003906 528.253906 466.710938 528.589844 466.421875 528.925781 C 466.015625 529.394531 465.636719 529.832031 465.277344 530.003906 C 465.011719 530.128906 464.589844 530.183594 464.144531 530.246094 C 463.667969 530.308594 463.132812 530.382812 462.578125 530.554688 C 460.503906 531.203125 458.871094 533.011719 457.828125 535.867188 C 457.761719 536.046875 457.664062 536.308594 457.59375 536.4375 C 457.539062 536.457031 457.488281 536.472656 457.433594 536.488281 C 457.320312 536.527344 457.207031 536.5625 457.097656 536.605469 C 455.640625 537.144531 454.441406 538.355469 453.722656 540.007812 C 453.199219 541.210938 453.113281 541.816406 452.972656 542.820312 L 452.9375 543.078125 C 452.933594 543.097656 452.9375 543.117188 452.933594 543.136719 C 452.929688 543.164062 452.921875 543.1875 452.921875 543.214844 C 452.886719 543.742188 452.828125 544.515625 452.589844 544.847656 C 452.582031 544.863281 452.574219 544.875 452.570312 544.890625 C 452.566406 544.890625 452.566406 544.890625 452.566406 544.890625 C 452.480469 544.992188 452.296875 545.136719 452.117188 545.277344 C 451.671875 545.625 451.058594 546.097656 450.667969 546.871094 C 450.15625 547.878906 450.234375 548.914062 450.382812 549.792969 C 450.554688 550.832031 450.808594 551.871094 451.15625 552.933594 C 451.195312 553.050781 451.242188 553.164062 451.261719 553.1875 C 451.246094 553.269531 451.214844 553.347656 451.183594 553.429688 C 451.109375 553.644531 451.039062 553.863281 450.988281 554.085938 C 450.789062 555.003906 450.964844 555.851562 451.109375 556.410156 C 451.417969 557.5625 451.929688 558.636719 452.632812 559.605469 L 452.824219 559.867188 C 452.96875 560.054688 453.101562 560.230469 453.164062 560.355469 C 453.230469 560.480469 453.269531 560.617188 453.320312 560.75 C 453.371094 560.890625 453.421875 561.03125 453.476562 561.167969 C 454.375 563.378906 456.328125 564.652344 457.8125 565.332031 C 458.90625 565.832031 460.015625 566.15625 461.09375 566.472656 C 461.574219 566.613281 462.058594 566.753906 462.535156 566.914062 C 463.117188 567.105469 463.6875 567.320312 464.257812 567.539062 C 464.933594 567.792969 465.648438 568.082031 466.359375 568.371094 C 466.890625 568.589844 467.410156 568.792969 467.925781 568.992188 C 468.453125 570.601562 469.15625 572.125 470.09375 573.609375 C 470.269531 573.886719 470.800781 574.726562 471.847656 574.925781 C 472.003906 574.953125 472.152344 574.96875 472.292969 574.96875 C 472.746094 574.96875 473.109375 574.839844 473.316406 574.765625 L 477.421875 573.289062 C 477.445312 573.28125 477.464844 573.269531 477.484375 573.261719 Z M 465.550781 564.125 C 464.929688 563.894531 464.304688 563.675781 463.679688 563.46875 C 463.160156 563.296875 462.640625 563.144531 462.113281 562.988281 C 461.121094 562.699219 460.179688 562.425781 459.328125 562.03125 C 458.601562 561.699219 457.316406 560.96875 456.84375 559.804688 C 456.808594 559.710938 456.773438 559.617188 456.738281 559.523438 C 456.640625 559.25 456.539062 558.980469 456.40625 558.71875 C 456.195312 558.296875 455.933594 557.953125 455.722656 557.675781 L 455.570312 557.472656 C 455.300781 557.101562 455.089844 556.6875 454.910156 556.261719 C 457.488281 557.835938 460.589844 559.792969 460.632812 559.820312 C 460.9375 560.011719 461.273438 560.101562 461.605469 560.101562 C 462.207031 560.101562 462.796875 559.804688 463.140625 559.257812 C 463.675781 558.410156 463.425781 557.289062 462.578125 556.753906 C 462.34375 556.605469 457.199219 553.355469 454.625 551.859375 C 454.613281 551.824219 454.601562 551.789062 454.589844 551.753906 C 454.320312 550.921875 454.109375 550.0625 453.964844 549.199219 C 453.882812 548.695312 453.902344 548.539062 453.898438 548.527344 C 453.953125 548.449219 454.191406 548.265625 454.359375 548.136719 C 456.488281 549.902344 458.699219 551.945312 458.722656 551.96875 C 459.074219 552.289062 459.515625 552.449219 459.957031 552.449219 C 460.445312 552.449219 460.933594 552.253906 461.292969 551.867188 C 461.972656 551.132812 461.929688 549.984375 461.191406 549.300781 C 461.074219 549.195312 458.644531 546.949219 456.347656 545.066406 C 456.464844 544.507812 456.511719 543.972656 456.539062 543.53125 L 456.570312 543.328125 C 456.695312 542.441406 456.730469 542.203125 457.054688 541.453125 C 457.351562 540.777344 457.804688 540.265625 458.28125 540.050781 C 459.296875 541.722656 459.476562 542.019531 459.566406 542.171875 C 459.675781 542.355469 459.675781 542.355469 460.917969 544.382812 C 461.574219 545.460938 462.023438 546.191406 462.257812 546.582031 C 462.351562 546.917969 462.542969 547.234375 462.832031 547.476562 C 463.1875 547.777344 463.648438 547.9375 464.101562 547.9375 C 464.523438 547.9375 464.941406 547.800781 465.261719 547.523438 C 466.46875 546.496094 466.191406 546.039062 464.019531 542.488281 C 462.792969 540.484375 462.792969 540.484375 462.683594 540.304688 C 462.582031 540.136719 462.375 539.789062 461.046875 537.609375 C 461.128906 537.40625 461.203125 537.210938 461.265625 537.03125 C 461.617188 536.078125 462.394531 534.417969 463.664062 534.019531 C 463.925781 533.9375 464.269531 533.890625 464.660156 533.835938 C 465.433594 535.976562 465.800781 537.078125 466.152344 538.136719 C 466.585938 539.433594 467.03125 540.773438 468.199219 543.960938 C 468.46875 544.695312 469.164062 545.152344 469.90625 545.152344 C 470.113281 545.152344 470.324219 545.117188 470.527344 545.039062 C 471.472656 544.695312 471.957031 543.652344 471.609375 542.710938 C 470.460938 539.578125 470.023438 538.261719 469.601562 536.992188 C 469.234375 535.890625 468.855469 534.746094 468.03125 532.472656 C 468.464844 532.097656 468.832031 531.6875 469.167969 531.300781 C 469.382812 531.050781 469.597656 530.800781 469.832031 530.578125 C 470.757812 529.695312 472.167969 529.296875 473.421875 529.578125 C 473.589844 529.613281 473.757812 529.660156 473.925781 529.707031 C 474.0625 529.746094 474.210938 529.785156 474.363281 529.824219 C 474.5 531.878906 474.644531 533.722656 474.847656 535.851562 C 475.007812 537.554688 475.089844 538.351562 475.167969 539.136719 C 475.25 539.9375 475.328125 540.722656 475.492188 542.460938 C 475.582031 543.402344 476.371094 544.105469 477.296875 544.105469 C 477.355469 544.105469 477.414062 544.105469 477.472656 544.097656 C 478.472656 544.003906 479.203125 543.117188 479.109375 542.121094 C 478.945312 540.371094 478.863281 539.578125 478.78125 538.773438 C 478.703125 537.992188 478.625 537.203125 478.464844 535.511719 C 478.261719 533.378906 478.117188 531.53125 477.980469 529.460938 C 478.144531 529.382812 478.304688 529.304688 478.453125 529.230469 C 478.691406 529.109375 478.925781 528.988281 479.175781 528.898438 C 480.023438 528.589844 481.105469 528.832031 481.738281 529.472656 C 481.816406 529.550781 481.890625 529.632812 481.96875 529.71875 C 482.234375 530.015625 482.582031 530.394531 483.054688 530.699219 C 482.902344 531.894531 482.6875 533.273438 482.460938 534.714844 C 482.0625 537.269531 481.648438 539.914062 481.464844 542.292969 C 481.386719 543.292969 482.136719 544.164062 483.136719 544.238281 C 483.183594 544.246094 483.230469 544.246094 483.277344 544.246094 C 484.214844 544.246094 485.011719 543.523438 485.085938 542.570312 C 485.257812 540.332031 485.660156 537.761719 486.050781 535.277344 C 486.292969 533.746094 486.519531 532.285156 486.679688 530.996094 C 486.785156 530.96875 486.875 530.953125 486.890625 530.964844 C 486.964844 530.984375 487.175781 531.101562 487.296875 531.171875 C 488.273438 531.722656 489.195312 532.246094 489.929688 532.910156 C 490.125 533.089844 490.308594 533.28125 490.496094 533.46875 C 490.707031 533.683594 490.9375 533.914062 491.1875 534.144531 C 490.605469 535.640625 490.152344 536.898438 489.722656 538.109375 C 489.015625 540.105469 488.34375 541.992188 487.070312 544.957031 C 486.675781 545.878906 487.101562 546.945312 488.023438 547.339844 C 488.257812 547.441406 488.5 547.488281 488.738281 547.488281 C 489.445312 547.488281 490.113281 547.078125 490.410156 546.390625 C 491.730469 543.316406 492.453125 541.285156 493.148438 539.320312 C 493.5 538.332031 493.863281 537.3125 494.304688 536.160156 C 495.554688 537.03125 496.484375 538.371094 496.808594 539.933594 C 496.839844 540.078125 496.882812 540.265625 496.941406 540.460938 C 494.324219 544.109375 492.3125 548.039062 492.222656 548.214844 C 491.765625 549.109375 492.125 550.203125 493.015625 550.65625 C 493.28125 550.792969 493.5625 550.855469 493.839844 550.855469 C 494.5 550.855469 495.140625 550.492188 495.460938 549.863281 C 495.480469 549.828125 496.9375 546.980469 498.914062 544 L 499.097656 545.054688 C 499.273438 546.054688 499.4375 547 499.386719 547.878906 C 499.28125 549.625 498.289062 551.507812 496.425781 553.46875 C 495.640625 554.296875 494.792969 555.066406 493.898438 555.882812 C 493.558594 556.191406 493.21875 556.5 492.886719 556.8125 C 491.390625 558.199219 489.980469 559.675781 488.613281 561.191406 C 488.445312 561.320312 488.308594 561.476562 488.195312 561.652344 C 485.988281 564.144531 483.941406 566.773438 482.117188 569.554688 C 481.570312 570.378906 479.273438 570.011719 478.558594 569.792969 C 478.058594 569.640625 477.542969 569.402344 476.976562 569.140625 C 473.234375 567.410156 469.441406 565.566406 465.550781 564.125 Z M 465.550781 564.125 " fill-opacity="1" fill-rule="nonzero"/></g></svg>