<svg xmlns="http://www.w3.org/2000/svg" xmlns:xlink="http://www.w3.org/1999/xlink" width="1080" zoomAndPan="magnify" viewBox="0 0 810 809.999993" height="1080" preserveAspectRatio="xMidYMid meet" version="1.0"><defs><clipPath id="caa49a310c"><path d="M 318.273438 233.621094 L 556.023438 233.621094 L 556.023438 638.621094 L 318.273438 638.621094 Z M 318.273438 233.621094 " clip-rule="nonzero"/></clipPath></defs><g clip-path="url(#caa49a310c)"><path fill="#2e2e2e" d="M 552.042969 237.6875 C 549.464844 235.109375 546.035156 233.710938 542.425781 233.710938 L 331.875 233.710938 C 328.226562 233.710938 324.796875 235.109375 322.253906 237.6875 C 319.675781 240.261719 318.273438 243.6875 318.273438 247.292969 L 318.273438 624.910156 C 318.273438 628.554688 319.675781 631.976562 322.253906 634.554688 C 324.835938 637.128906 328.261719 638.527344 331.875 638.527344 L 542.386719 638.527344 C 546.035156 638.527344 549.464844 637.128906 552.042969 634.554688 C 554.625 631.976562 556.023438 628.554688 556.023438 624.949219 L 556.023438 247.328125 C 556.023438 243.6875 554.625 240.261719 552.042969 237.6875 Z M 552.523438 436.140625 L 552.523438 624.949219 C 552.523438 627.746094 551.378906 630.246094 549.574219 632.089844 C 547.730469 633.929688 545.226562 635.03125 542.425781 635.03125 L 331.875 635.03125 C 329.074219 635.03125 326.566406 633.890625 324.722656 632.089844 C 322.882812 630.246094 321.773438 627.746094 321.773438 624.949219 L 321.773438 247.328125 C 321.773438 244.53125 322.917969 242.03125 324.722656 240.191406 C 326.566406 238.347656 329.074219 237.246094 331.875 237.246094 L 542.386719 237.246094 C 545.1875 237.246094 547.695312 238.386719 549.539062 240.191406 C 551.378906 242.03125 552.484375 244.53125 552.484375 247.328125 Z M 546.664062 512.765625 L 546.664062 476.515625 C 546.699219 476.292969 546.738281 476.070312 546.699219 475.851562 C 546.699219 475.816406 546.699219 475.777344 546.664062 475.703125 L 546.664062 247.328125 C 546.664062 246.1875 546.222656 245.121094 545.410156 244.3125 C 544.597656 243.503906 543.53125 243.058594 542.386719 243.058594 L 331.835938 243.058594 C 330.695312 243.058594 329.625 243.503906 328.816406 244.3125 C 328.003906 245.121094 327.5625 246.1875 327.5625 247.328125 L 327.5625 593.882812 C 327.597656 595.503906 328.925781 596.828125 330.546875 596.828125 L 543.53125 596.828125 C 545.1875 596.828125 546.625 595.394531 546.625 593.738281 L 546.625 513.539062 C 546.664062 513.429688 546.664062 513.28125 546.664062 513.171875 C 546.699219 513.023438 546.699219 512.914062 546.664062 512.765625 Z M 438.015625 511.40625 C 437.167969 510.777344 436.542969 509.894531 435.953125 508.535156 C 434.328125 504.816406 430.386719 491.75 427.660156 478.832031 C 423.714844 460.171875 424.894531 453.730469 426.222656 452.886719 C 428.507812 451.414062 434.257812 450.050781 440.375 448.617188 C 452.351562 445.820312 465.914062 442.617188 469.5625 435.550781 C 470.261719 434.226562 470.777344 432.863281 471.183594 431.464844 C 474.167969 433.230469 476.125 435.253906 477.449219 437.242188 C 477.523438 437.425781 477.632812 437.609375 477.78125 437.796875 C 480.363281 442.027344 479.992188 445.820312 479.957031 446.078125 C 479.84375 447.03125 480.507812 447.917969 481.46875 448.027344 C 481.539062 448.027344 481.613281 448.027344 481.6875 448.027344 C 482.574219 448.027344 483.308594 447.363281 483.421875 446.480469 C 483.457031 446.1875 483.898438 442.433594 481.835938 437.90625 C 487.289062 437.316406 500.632812 437.351562 508.261719 449.867188 C 508.335938 449.976562 508.40625 450.050781 508.480469 450.160156 C 508.480469 450.160156 508.480469 450.199219 508.519531 450.199219 C 508.554688 450.234375 512.351562 454.210938 513.789062 462.894531 C 509.21875 463.082031 506.121094 464.699219 504.28125 466.207031 C 503.542969 466.835938 503.433594 467.9375 504.023438 468.675781 C 504.648438 469.410156 505.753906 469.519531 506.492188 468.933594 C 508.074219 467.644531 510.878906 466.207031 515.335938 466.390625 C 515.484375 466.429688 515.632812 466.464844 515.777344 466.464844 C 515.851562 466.464844 515.925781 466.464844 515.964844 466.464844 C 516 466.464844 516.035156 466.464844 516.074219 466.429688 C 516.292969 466.429688 516.480469 466.429688 516.738281 466.464844 C 527.242188 467.644531 527.867188 474.488281 527.867188 474.785156 C 527.902344 475.703125 528.679688 476.441406 529.636719 476.441406 C 529.671875 476.441406 529.710938 476.441406 529.746094 476.441406 C 530.703125 476.402344 531.441406 475.558594 531.40625 474.601562 C 531.40625 474.488281 530.703125 464.589844 517.363281 463.007812 C 516.554688 457.414062 514.785156 453.4375 513.347656 450.933594 C 521.308594 451.816406 539.808594 456.011719 543.160156 476.035156 L 543.160156 511.367188 Z M 331.097656 477.214844 C 331.285156 476.992188 331.429688 476.734375 331.46875 476.402344 C 334.675781 455.757812 354.503906 451.707031 362.425781 450.898438 C 361.171875 453.363281 359.660156 457.339844 358.886719 463.082031 C 346.027344 464.847656 345.363281 474.488281 345.363281 474.601562 C 345.324219 475.558594 346.0625 476.402344 347.019531 476.441406 C 347.058594 476.441406 347.09375 476.441406 347.132812 476.441406 C 348.054688 476.441406 348.828125 475.703125 348.902344 474.785156 C 348.902344 474.710938 349.417969 467.644531 360.03125 466.464844 C 365.335938 465.878906 368.507812 467.460938 370.277344 468.894531 C 371.011719 469.519531 372.117188 469.410156 372.746094 468.636719 C 373.371094 467.902344 373.261719 466.796875 372.488281 466.171875 C 370.570312 464.589844 367.363281 462.894531 362.5 462.824219 C 363.828125 454.027344 367.03125 450.125 367.070312 450.050781 C 367.105469 450.015625 367.105469 450.015625 367.105469 449.976562 C 367.144531 449.941406 367.179688 449.867188 367.21875 449.832031 C 370.941406 443.722656 376.6875 439.964844 384.390625 438.53125 C 383.800781 441.144531 383.582031 444.125 383.800781 447.511719 C 384.796875 462.378906 396.886719 483.617188 405.695312 499.113281 C 408.273438 503.675781 410.667969 507.871094 412.4375 511.332031 C 398.617188 511.734375 361.355469 511.664062 331.097656 511.515625 Z M 389.109375 368.417969 C 389.070312 368.234375 383.984375 351.707031 390.730469 341.21875 C 393.570312 336.800781 397.03125 333.96875 400.386719 331.246094 C 405.324219 327.234375 409.96875 323.480469 410.925781 315.566406 C 413.136719 297.199219 426.332031 296.464844 426.921875 296.464844 C 427.4375 296.464844 427.917969 296.207031 428.210938 295.800781 C 430.386719 299.886719 433.851562 303.53125 439.304688 304.15625 C 438.863281 304.671875 436.171875 307.542969 426.957031 311.886719 C 421.0625 314.644531 420.066406 320.644531 419.109375 326.496094 C 418.1875 332.128906 417.230469 337.945312 411.957031 341.511719 C 411.628906 341.699219 411.257812 341.917969 410.925781 342.140625 C 410.851562 342.175781 410.78125 342.25 410.667969 342.285156 C 410.523438 342.359375 410.410156 342.46875 410.300781 342.582031 C 406.984375 344.972656 403.925781 348.875 402.632812 355.167969 C 402.449219 356.089844 403.003906 357.007812 403.925781 357.230469 C 403.960938 357.230469 404.070312 357.265625 404.21875 357.304688 C 404.070312 357.671875 403.886719 358.039062 403.742188 358.40625 C 397.363281 372.871094 391.355469 387.519531 394.15625 394.253906 C 395.964844 398.5625 410.078125 401.652344 420.65625 403.347656 C 420.546875 406.84375 419.585938 413.539062 415.753906 416.042969 C 414.613281 416.78125 412.289062 417.441406 409.5625 418.214844 C 405.472656 419.394531 400.3125 420.863281 395.632812 423.589844 C 393.605469 423.40625 384.355469 421.710938 378.089844 407.46875 C 369.835938 388.699219 388.410156 370.367188 388.59375 370.183594 C 389.144531 369.742188 389.332031 369.042969 389.109375 368.417969 Z M 455.375 296.316406 C 455.519531 296.316406 468.53125 297.089844 470.742188 315.601562 C 471.699219 323.480469 476.34375 327.269531 481.28125 331.28125 C 484.636719 334.003906 488.101562 336.800781 490.9375 341.257812 C 497.644531 351.707031 492.15625 368.085938 492.117188 368.269531 C 491.933594 368.859375 492.042969 369.484375 492.449219 369.964844 C 492.632812 370.183594 510.359375 391.566406 503.507812 407.542969 C 497.128906 422.449219 485.964844 423.625 485.375 423.699219 L 482.167969 424.175781 C 482.128906 424.175781 478.628906 424.804688 471.921875 425.023438 C 471.738281 420.792969 470.410156 416.300781 467.90625 411.589844 L 467.757812 411.332031 C 465.140625 406.402344 464.476562 396.90625 464.292969 393.261719 C 491.269531 391.015625 492.339844 388.109375 492.816406 386.785156 C 493.996094 383.542969 483.679688 363.117188 480.363281 356.675781 C 480.65625 356.605469 480.839844 356.53125 480.878906 356.53125 C 481.761719 356.234375 482.277344 355.277344 482.019531 354.394531 C 480.175781 347.953125 476.601562 344.3125 472.953125 342.210938 C 472.804688 341.992188 472.585938 341.808594 472.363281 341.699219 C 465.988281 338.421875 464.585938 332.605469 463.113281 326.421875 C 461.75 320.828125 460.386719 315.085938 454.859375 312.105469 C 454.859375 312.105469 454.859375 312.105469 454.820312 312.105469 C 454.785156 312.105469 454.785156 312.070312 454.746094 312.070312 C 446.269531 307.578125 443.359375 305.003906 442.660156 304.304688 C 448.335938 303.679688 451.800781 299.851562 453.9375 295.542969 C 454.230469 295.949219 454.746094 296.28125 455.375 296.316406 Z M 441.039062 307.433594 C 442.179688 308.390625 444.207031 309.933594 447.707031 311.996094 C 447.671875 311.996094 447.597656 311.996094 447.5625 311.996094 C 445.164062 311.996094 443.652344 313.320312 443.507812 313.503906 C 442.804688 314.167969 442.769531 315.273438 443.433594 315.972656 C 444.097656 316.671875 445.203125 316.707031 445.902344 316.042969 C 445.902344 316.042969 446.566406 315.492188 447.5625 315.492188 C 448.296875 315.492188 449.035156 315.933594 449.21875 316.117188 C 449.550781 316.375 449.957031 316.523438 450.324219 316.523438 C 450.839844 316.523438 451.320312 316.300781 451.6875 315.898438 C 451.726562 315.824219 451.761719 315.785156 451.800781 315.714844 L 451.578125 317.332031 C 451.503906 318.140625 451.320312 318.914062 451.097656 319.761719 C 450.140625 323.332031 449.070312 325.835938 447.964844 327.195312 C 446.417969 329.074219 444.464844 330.324219 442.476562 330.691406 C 439.601562 331.207031 436.246094 329.921875 433.925781 327.378906 C 432.15625 325.429688 430.902344 322.042969 430.054688 317.039062 L 429.871094 315.75 C 430.421875 316.375 431.34375 316.558594 432.082031 316.117188 C 432.082031 316.117188 432.964844 315.640625 434.070312 315.640625 C 434.917969 315.640625 435.839844 316.082031 436.136719 316.265625 C 436.429688 316.449219 436.726562 316.523438 437.058594 316.523438 C 437.648438 316.523438 438.238281 316.230469 438.566406 315.675781 C 439.085938 314.867188 438.824219 313.761719 437.976562 313.246094 C 437.792969 313.136719 436.136719 312.144531 434.183594 312.144531 C 437.792969 310.117188 439.894531 308.5 441.039062 307.433594 Z M 423.238281 410.339844 C 426.296875 412.4375 431.933594 416.117188 434.992188 417.039062 C 435.398438 417.148438 435.953125 417.222656 436.578125 417.222656 C 442.4375 417.222656 457.179688 412.4375 463.039062 408.757812 C 463.371094 409.898438 463.777344 410.964844 464.21875 411.957031 C 449.070312 420.753906 435.472656 421.710938 433.152344 420.753906 C 429.648438 419.320312 424.304688 415.492188 422.019531 413.726562 C 422.535156 412.65625 422.90625 411.480469 423.238281 410.339844 Z M 453.640625 390.425781 L 453.347656 384.757812 C 456.921875 383.214844 469.859375 377.988281 477.191406 380.785156 C 478.113281 381.117188 479.109375 380.675781 479.476562 379.789062 C 479.808594 378.871094 479.367188 377.875 478.480469 377.507812 C 477.488281 377.140625 476.453125 376.882812 475.347656 376.734375 C 474.390625 375.484375 469.785156 368.34375 466.871094 363.816406 C 466.136719 361.203125 465.289062 359.4375 465.214844 359.253906 C 464.773438 358.371094 463.738281 358.039062 462.855469 358.445312 C 461.972656 358.886719 461.640625 359.914062 462.042969 360.800781 C 462.082031 360.910156 466.910156 370.957031 462.632812 377.914062 C 457.660156 379.203125 453.347656 381.003906 451.6875 381.742188 C 450.878906 381.410156 449.328125 380.820312 446.714844 379.863281 C 446.453125 379.789062 446.308594 379.679688 446.125 379.605469 C 446.160156 379.3125 446.125 379.054688 446.011719 378.761719 L 445.535156 377.546875 C 447.855469 376.957031 449.808594 375.851562 451.355469 374.234375 C 456 369.339844 455.558594 361.058594 455.300781 356.125 C 455.300781 356.089844 455.300781 356.015625 455.300781 355.976562 C 455.335938 355.832031 455.375 355.683594 455.375 355.535156 C 455.375 355.316406 455.335938 355.132812 455.261719 354.949219 C 455.226562 354.46875 455.226562 354.027344 455.226562 353.660156 C 455.226562 352.703125 454.453125 351.890625 453.457031 351.890625 L 452.425781 351.890625 C 454.527344 349.023438 455.707031 346.039062 456.367188 343.980469 C 457.144531 344.199219 458.136719 344.421875 459.316406 344.640625 C 459.132812 348.25 460.164062 352.777344 464.515625 355.792969 C 466.761719 357.375 469.671875 357.855469 472.402344 357.855469 C 474.023438 357.855469 475.605469 357.671875 476.933594 357.449219 C 483.050781 369.117188 489.058594 382.550781 489.539062 385.496094 C 487.289062 386.96875 475.644531 389.027344 453.640625 390.425781 Z M 434.328125 334.960938 L 434.328125 332.277344 C 436.429688 333.601562 438.789062 334.335938 441.148438 334.335938 C 441.8125 334.335938 442.476562 334.261719 443.136719 334.152344 C 444.5 333.894531 445.867188 333.378906 447.117188 332.605469 L 447.117188 335.183594 C 447.117188 339.121094 450.433594 341.21875 453.015625 342.507812 C 452.351562 344.789062 450.839844 348.691406 447.707031 351.820312 L 434.660156 351.820312 C 430.792969 347.625 429.613281 344.054688 429.242188 342.46875 C 431.566406 341.070312 434.328125 338.605469 434.328125 334.960938 Z M 429.6875 357.230469 L 451.761719 357.230469 C 451.984375 361.867188 452.09375 368.234375 448.738281 371.765625 C 447.375 373.203125 445.535156 374.050781 443.175781 374.378906 C 442.992188 374.378906 442.804688 374.378906 442.585938 374.453125 C 442.070312 374.492188 441.554688 374.527344 440.964844 374.527344 C 440.890625 374.527344 440.78125 374.527344 440.707031 374.5625 C 440.632812 374.5625 440.558594 374.527344 440.449219 374.527344 C 439.894531 374.527344 439.34375 374.492188 438.824219 374.453125 C 438.640625 374.417969 438.457031 374.378906 438.238281 374.378906 C 435.878906 374.050781 434.035156 373.203125 432.671875 371.765625 C 429.355469 368.234375 429.464844 361.867188 429.6875 357.230469 Z M 449.808594 384.722656 L 450.105469 390.609375 C 448.1875 390.796875 445.902344 391.496094 443.691406 392.15625 C 441.628906 392.78125 439.304688 393.445312 438.347656 393.371094 C 437.574219 393.296875 436.320312 393.152344 435.953125 392.820312 C 435.878906 392.78125 435.804688 392.710938 435.765625 392.671875 C 435.765625 392.523438 435.804688 392.378906 435.839844 392.265625 C 436.097656 391.566406 435.878906 390.796875 435.289062 390.316406 C 435.324219 390.132812 435.398438 389.875 435.507812 389.65625 C 435.804688 389.066406 435.730469 388.402344 435.363281 387.886719 C 435.433594 387.628906 435.695312 387.261719 435.914062 387.003906 C 436.429688 386.453125 436.46875 385.605469 436.097656 384.941406 C 436.136719 384.90625 436.171875 384.90625 436.210938 384.871094 C 436.28125 384.832031 436.355469 384.757812 436.429688 384.722656 C 436.835938 384.5 438.125 384.429688 439.195312 384.648438 C 439.269531 384.648438 439.378906 384.6875 439.453125 384.6875 L 439.785156 384.6875 C 440.78125 384.722656 441.8125 384.757812 442.84375 384.6875 C 443.394531 384.613281 443.839844 384.316406 444.097656 383.914062 C 444.207031 383.765625 444.316406 383.617188 444.429688 383.433594 L 444.722656 382.773438 C 444.945312 382.882812 445.164062 382.992188 445.496094 383.101562 C 447.597656 383.875 448.960938 384.390625 449.808594 384.722656 Z M 440.484375 378.023438 C 440.558594 378.023438 440.667969 378.023438 440.742188 377.988281 C 440.816406 377.988281 440.890625 378.023438 441 378.023438 C 441.332031 378.023438 441.628906 377.988281 441.921875 377.988281 L 442.4375 379.3125 L 442.144531 379.9375 C 442.105469 380.011719 442.070312 380.085938 442.03125 380.160156 L 441.554688 381.226562 C 441.039062 381.226562 440.484375 381.226562 439.933594 381.1875 L 439.894531 381.1875 L 439.15625 379.53125 C 439.121094 379.421875 439.121094 379.347656 439.085938 379.238281 L 439.5625 377.988281 C 439.859375 377.988281 440.152344 378.023438 440.484375 378.023438 Z M 432.117188 397.640625 C 434.035156 397.347656 436.355469 397.050781 438.605469 396.941406 C 438.679688 396.941406 438.714844 396.941406 438.789062 396.941406 C 438.863281 396.941406 438.898438 396.90625 438.972656 396.90625 C 441.589844 396.757812 444.132812 396.792969 445.902344 397.125 C 445.238281 397.347656 444.5 397.566406 443.765625 397.75 L 442.804688 398.046875 C 441.886719 398.304688 441.367188 399.261719 441.628906 400.179688 C 441.886719 401.101562 442.804688 401.652344 443.765625 401.433594 C 445.71875 400.953125 450.878906 399.628906 451.429688 399.519531 C 452.535156 399.261719 453.125 399.445312 453.199219 399.664062 C 453.234375 399.847656 453.164062 400.070312 453.050781 400.070312 L 452.425781 400.253906 C 443.324219 403.199219 440.519531 403.347656 439.671875 403.160156 C 437.058594 402.644531 432.230469 401.578125 431.050781 401.320312 Z M 470.890625 376.515625 C 469.5625 376.589844 468.234375 376.734375 466.871094 376.957031 C 467.460938 375.300781 467.757812 373.570312 467.832031 371.878906 C 468.898438 373.496094 470.003906 375.191406 470.890625 376.515625 Z M 466.429688 352.847656 C 462.117188 349.832031 462.523438 345.046875 462.964844 342.875 C 466.0625 342.914062 474.425781 343.941406 478.039062 353.585938 C 474.871094 354.320312 469.488281 354.984375 466.429688 352.847656 Z M 461.417969 339.414062 C 460.753906 339.488281 460.164062 339.929688 459.945312 340.558594 C 459.871094 340.742188 459.832031 340.925781 459.757812 341.109375 C 458.175781 340.777344 456.847656 340.484375 456.332031 340.226562 C 456.074219 340.113281 455.816406 339.96875 455.558594 339.855469 C 452.867188 338.570312 450.621094 337.316406 450.621094 335.183594 L 450.621094 329.550781 C 450.65625 329.515625 450.691406 329.476562 450.730469 329.441406 C 452.058594 327.785156 453.234375 325.210938 454.269531 321.601562 C 455.519531 321.199219 456.441406 320.277344 457.105469 319.210938 C 458.285156 321.453125 458.949219 324.179688 459.6875 327.160156 C 460.679688 331.28125 461.785156 335.773438 464.550781 339.527344 C 462.707031 339.304688 461.453125 339.414062 461.417969 339.414062 Z M 424.527344 319.210938 C 425.191406 320.3125 426.148438 321.234375 427.4375 321.640625 C 428.285156 324.878906 429.390625 327.34375 430.828125 329.148438 L 430.828125 334.960938 C 430.828125 338.570312 425.003906 340.703125 424.933594 340.742188 C 424.859375 340.777344 424.785156 340.8125 424.710938 340.851562 C 424.488281 340.960938 424.269531 341.070312 424.085938 341.183594 C 423.9375 340.667969 423.753906 340.1875 423.566406 339.785156 C 423.273438 339.15625 422.683594 338.753906 422.019531 338.753906 C 421.984375 338.753906 420.804688 338.753906 419.070312 339.046875 C 421.246094 335.332031 421.984375 331.0625 422.609375 327.085938 C 423.089844 324.105469 423.53125 321.382812 424.527344 319.210938 Z M 412.4375 345.378906 C 413.066406 345.046875 413.617188 344.679688 414.171875 344.273438 C 416.75 342.875 419.292969 342.433594 420.730469 342.285156 C 421.355469 344.421875 422.128906 349.167969 418.078125 352.519531 C 415.203125 354.875 409.746094 354.652344 406.542969 354.136719 C 407.792969 349.867188 410.042969 347.109375 412.4375 345.378906 Z M 407.867188 357.855469 C 408.753906 357.929688 409.710938 358.003906 410.707031 358.003906 C 413.949219 358.003906 417.671875 357.414062 420.324219 355.242188 C 424.046875 352.1875 424.933594 348.136719 424.710938 344.714844 C 425.152344 344.53125 425.632812 344.273438 426 344.089844 C 426.515625 345.894531 427.621094 348.652344 430.054688 351.820312 L 428.101562 351.820312 C 428.101562 351.820312 428.101562 351.820312 428.066406 351.820312 C 428.027344 351.820312 428.066406 351.820312 428.027344 351.820312 C 427.070312 351.820312 426.257812 352.59375 426.257812 353.585938 C 426.257812 353.953125 426.257812 354.394531 426.222656 354.875 C 426.148438 355.058594 426.109375 355.242188 426.109375 355.460938 C 426.109375 355.609375 426.148438 355.757812 426.183594 355.902344 C 426.183594 355.941406 426.183594 356.015625 426.183594 356.050781 C 425.925781 360.984375 425.484375 369.300781 430.128906 374.160156 C 431.640625 375.777344 433.59375 376.882812 435.953125 377.472656 L 435.695312 378.132812 C 434.847656 378.28125 433.960938 378.648438 433.554688 379.644531 C 433.1875 380.527344 433.445312 381.410156 433.925781 382.183594 C 433.410156 382.585938 432.707031 383.285156 432.488281 384.316406 C 432.414062 384.6875 432.375 385.164062 432.523438 385.679688 C 431.859375 386.785156 431.566406 388 431.972656 389.101562 C 431.75 389.839844 431.601562 390.867188 431.933594 391.789062 C 432.007812 391.972656 432.117188 392.15625 432.230469 392.339844 C 432.15625 392.855469 432.191406 393.480469 432.414062 394.109375 C 432.304688 394.109375 432.230469 394.144531 432.15625 394.144531 C 431.824219 393.996094 431.050781 393.59375 430.277344 393.222656 C 428.875 392.523438 426.847656 391.496094 424.453125 390.390625 C 424.488281 388.625 424.269531 386.378906 424.046875 384.5 C 424.15625 384.539062 424.269531 384.613281 424.378906 384.648438 C 424.5625 384.722656 424.785156 384.757812 424.96875 384.757812 C 425.707031 384.757812 426.371094 384.316406 426.628906 383.582031 C 426.957031 382.660156 426.480469 381.667969 425.558594 381.335938 C 423.714844 380.710938 422.167969 379.421875 420.953125 377.582031 C 416.457031 370.738281 422.132812 361.09375 422.203125 360.984375 C 422.683594 360.136719 422.425781 359.070312 421.613281 358.589844 C 420.804688 358.074219 419.699219 358.371094 419.21875 359.179688 C 419.035156 359.472656 416.640625 363.558594 415.9375 368.675781 C 414.429688 372.28125 410.59375 381.152344 408.679688 384.464844 C 408.089844 384.316406 407.460938 384.171875 406.871094 384.023438 C 405.953125 383.800781 404.992188 384.429688 404.773438 385.386719 C 404.550781 386.34375 405.175781 387.261719 406.136719 387.484375 C 414.722656 389.324219 424.5625 394.292969 428.726562 396.425781 C 428.765625 396.464844 428.800781 396.464844 428.839844 396.5 L 427.546875 400.804688 C 413.324219 398.855469 398.507812 395.394531 397.476562 392.894531 C 395.003906 387.003906 403.113281 368.640625 407.019531 359.804688 C 407.316406 359.105469 407.609375 358.480469 407.867188 357.855469 Z M 416.492188 376.183594 C 416.859375 377.289062 417.375 378.355469 418.039062 379.421875 C 418.703125 380.417969 419.441406 381.300781 420.25 382.035156 C 420.472656 383.542969 420.839844 386.414062 420.953125 388.734375 C 418.1875 387.554688 415.164062 386.34375 412.144531 385.386719 C 413.394531 382.992188 415.089844 379.347656 416.492188 376.183594 Z M 430.089844 404.671875 C 430.828125 404.816406 436.171875 406.03125 439.011719 406.585938 C 439.378906 406.660156 439.785156 406.695312 440.261719 406.695312 C 442.769531 406.695312 446.972656 405.703125 453.566406 403.566406 L 454.15625 403.382812 C 456.074219 402.792969 457.179688 400.695312 456.625 398.707031 C 456.332031 397.605469 455.449219 396.464844 453.863281 396.058594 L 453.863281 395.726562 C 453.863281 394.84375 453.199219 394.144531 452.386719 393.996094 C 455.410156 393.8125 458.210938 393.628906 460.792969 393.445312 C 460.902344 395.910156 461.234375 400.621094 462.15625 405.1875 C 459.28125 408.019531 439.121094 414.683594 436.023438 413.726562 C 433.261719 412.878906 426.957031 408.683594 423.972656 406.585938 C 424.121094 405.554688 424.15625 404.632812 424.195312 403.898438 C 426.589844 404.230469 428.652344 404.523438 430.089844 404.671875 Z M 331.097656 247.328125 C 331.097656 247.109375 331.171875 246.960938 331.320312 246.816406 C 331.46875 246.667969 331.652344 246.59375 331.835938 246.59375 L 542.386719 246.59375 C 542.609375 246.59375 542.757812 246.667969 542.902344 246.816406 C 543.050781 246.960938 543.125 247.144531 543.125 247.328125 L 543.125 465.140625 C 534.648438 449.5 515.335938 447.511719 510.730469 447.253906 C 501.292969 432.789062 484.601562 433.96875 479.917969 434.628906 C 478.335938 432.457031 476.085938 430.285156 472.878906 428.375 C 479.292969 428.152344 482.609375 427.527344 482.71875 427.527344 L 485.742188 427.085938 C 486.296875 427.046875 499.453125 425.761719 506.710938 408.828125 C 513.714844 392.5625 499.046875 372.578125 495.730469 368.417969 C 496.871094 364.554688 500.59375 349.792969 493.886719 339.34375 C 490.753906 334.445312 486.882812 331.320312 483.492188 328.558594 C 478.738281 324.695312 475.015625 321.675781 474.207031 315.199219 C 471.625 293.742188 455.667969 292.820312 455.484375 292.820312 C 455.335938 292.820312 455.152344 292.820312 455.003906 292.859375 C 456.109375 289.914062 456.664062 287.042969 456.921875 285.054688 C 456.996094 284.578125 456.847656 284.136719 456.554688 283.765625 C 456.257812 283.398438 455.816406 283.214844 455.335938 283.214844 C 454.746094 283.214844 454.230469 283.507812 453.9375 284.023438 C 450.691406 289.730469 447.414062 293.777344 444.832031 295.175781 L 442.511719 277.363281 C 442.402344 276.554688 441.738281 275.964844 440.925781 275.964844 C 440.117188 275.964844 439.453125 276.554688 439.34375 277.363281 L 436.910156 295.765625 C 435.324219 295.285156 431.824219 293.261719 428.066406 285.054688 C 427.804688 284.464844 427.253906 284.097656 426.589844 284.097656 C 426.109375 284.097656 425.667969 284.320312 425.335938 284.6875 C 425.042969 285.054688 424.894531 285.535156 425.003906 286.011719 C 425.300781 287.816406 425.890625 290.355469 426.921875 292.96875 C 426.886719 292.96875 426.847656 292.96875 426.8125 292.96875 C 426.628906 292.96875 410.003906 293.703125 407.425781 315.160156 C 406.652344 321.640625 402.894531 324.695312 398.175781 328.519531 C 394.785156 331.28125 390.914062 334.410156 387.78125 339.304688 C 381.113281 349.683594 384.390625 364.40625 385.496094 368.417969 C 381.8125 372.28125 366.664062 389.910156 374.992188 408.828125 C 380.152344 420.570312 387.375 424.765625 391.910156 426.238281 C 389.292969 428.445312 387.082031 431.207031 385.609375 434.8125 C 376.46875 436.066406 369.28125 440.335938 364.785156 447.21875 C 360.03125 447.476562 339.539062 449.5 331.171875 466.023438 L 331.171875 436.140625 Z M 331.097656 593.332031 L 331.097656 515.085938 C 345.140625 515.160156 360.730469 515.234375 374.773438 515.234375 C 392.203125 515.234375 407.242188 515.121094 414.132812 514.863281 C 414.171875 514.976562 414.207031 515.046875 414.242188 515.160156 L 414.242188 515.195312 C 414.796875 516.484375 415.164062 517.550781 415.347656 518.359375 C 415.792969 520.714844 414.023438 523.699219 411.554688 527.855469 C 410.335938 529.917969 408.972656 532.238281 407.609375 534.921875 C 407.167969 535.769531 407.5 536.835938 408.382812 537.277344 C 408.640625 537.425781 408.898438 537.460938 409.195312 537.460938 C 409.820312 537.460938 410.449219 537.09375 410.78125 536.507812 C 412.105469 533.929688 413.433594 531.648438 414.613281 529.625 C 417.042969 525.5 418.886719 522.371094 418.960938 519.246094 L 429.429688 528.003906 C 429.761719 528.261719 430.164062 528.410156 430.570312 528.410156 C 430.792969 528.410156 430.976562 528.371094 431.195312 528.296875 C 431.785156 528.078125 432.230469 527.5625 432.304688 526.9375 L 434.550781 512.878906 C 435.105469 513.578125 435.730469 514.128906 436.394531 514.570312 C 436.542969 514.679688 436.652344 514.753906 436.835938 514.828125 C 438.566406 515.820312 440.667969 516.261719 443.285156 516.777344 C 447.007812 517.550781 452.058594 518.582031 459.5 521.785156 C 465.066406 524.175781 468.9375 527.453125 473.765625 532.308594 C 474.097656 532.640625 474.574219 532.824219 475.015625 532.824219 C 475.460938 532.824219 475.902344 532.640625 476.269531 532.308594 C 476.972656 531.648438 476.972656 530.542969 476.308594 529.84375 C 480.175781 530.765625 483.753906 532.273438 483.898438 534.222656 C 483.898438 534.261719 483.898438 534.335938 483.714844 534.554688 C 482.976562 535.328125 480.914062 536.394531 475.460938 537.242188 C 458.652344 525.464844 441.921875 521.230469 440.964844 521.011719 C 440.003906 520.789062 439.085938 521.34375 438.824219 522.300781 C 438.605469 523.257812 439.15625 524.175781 440.117188 524.433594 C 440.261719 524.46875 448.222656 526.496094 458.507812 531.5 C 447.671875 532.238281 437.425781 531.722656 437.316406 531.722656 C 436.320312 531.648438 435.507812 532.421875 435.472656 533.378906 C 435.433594 534.335938 436.171875 535.179688 437.128906 535.21875 C 437.203125 535.21875 439.746094 535.363281 443.652344 535.402344 C 443.800781 535.476562 443.949219 535.585938 444.132812 535.621094 C 444.171875 535.621094 447.632812 536.578125 453.640625 538.789062 C 451.28125 538.824219 448.738281 538.859375 446.011719 538.859375 C 445.054688 538.859375 444.242188 539.632812 444.242188 540.628906 C 444.242188 541.621094 445.019531 542.394531 446.011719 542.394531 C 452.242188 542.394531 457.472656 542.285156 461.898438 542.0625 C 461.972656 542.101562 462.042969 542.136719 462.117188 542.171875 C 470.1875 545.558594 478.003906 549.351562 485.484375 553.546875 C 477.558594 552.074219 467.351562 549.3125 459.832031 547.289062 C 453.824219 545.671875 449.476562 544.492188 447.671875 544.273438 C 447.007812 544.199219 446.382812 544.125 445.792969 544.050781 C 439.636719 543.277344 435.546875 542.761719 429.058594 550.710938 C 425.667969 550.640625 422.90625 550.527344 420.804688 550.417969 C 425.078125 541.953125 428.324219 536.875 428.394531 536.761719 C 428.910156 535.953125 428.691406 534.847656 427.878906 534.335938 C 427.070312 533.820312 425.964844 534.039062 425.449219 534.847656 C 425.410156 534.921875 424.269531 536.691406 422.460938 539.890625 L 422.460938 539.671875 C 422.351562 539.671875 421.984375 539.671875 420.730469 539.671875 C 419.773438 539.671875 418.960938 540.445312 418.960938 541.402344 C 418.960938 542.359375 419.699219 543.128906 420.65625 543.167969 C 419.550781 545.191406 418.335938 547.511719 417.042969 550.125 C 416.566406 550.085938 416.308594 550.050781 416.308594 550.050781 C 415.347656 549.941406 414.5 550.675781 414.390625 551.632812 C 414.316406 552.40625 414.761719 553.105469 415.460938 553.398438 C 412.585938 559.398438 409.488281 566.648438 406.613281 574.671875 C 408.714844 549.535156 422.867188 531.207031 423.050781 530.984375 C 423.640625 530.210938 423.53125 529.109375 422.757812 528.519531 C 421.984375 527.929688 420.878906 528.039062 420.289062 528.8125 C 419.660156 529.625 407.535156 545.300781 403.886719 568.011719 C 403.8125 562.160156 404.328125 556.636719 405.507812 551.449219 C 405.730469 550.492188 405.105469 549.570312 404.183594 549.351562 C 403.222656 549.128906 402.304688 549.753906 402.082031 550.675781 C 401.308594 554.171875 400.828125 557.816406 400.570312 561.570312 L 398.324219 561.386719 C 397.363281 561.3125 396.515625 562.011719 396.40625 562.96875 C 396.332031 563.925781 397.03125 564.773438 397.992188 564.882812 L 400.386719 565.101562 C 400.238281 572.097656 400.902344 579.566406 402.449219 587.703125 C 402.597656 588.402344 403.113281 588.914062 403.777344 589.101562 C 403.925781 589.136719 404.035156 589.136719 404.183594 589.136719 C 404.734375 589.136719 405.25 588.878906 405.582031 588.4375 C 405.582031 588.4375 405.65625 588.363281 405.695312 588.253906 C 405.839844 588.144531 405.953125 587.996094 406.023438 587.8125 C 407.90625 585.273438 415.3125 575.261719 422.019531 566.132812 L 440.851562 566.132812 C 449.625 566.132812 468.421875 564.992188 468.605469 564.992188 C 469.5625 564.917969 470.300781 564.109375 470.261719 563.152344 C 470.1875 562.195312 469.378906 561.421875 468.421875 561.496094 C 468.234375 561.496094 449.550781 562.636719 440.890625 562.636719 L 424.636719 562.636719 C 425.632812 561.3125 426.554688 559.988281 427.4375 558.773438 C 427.992188 558 427.84375 556.894531 427.070312 556.308594 C 426.296875 555.71875 425.191406 555.902344 424.601562 556.675781 C 420.066406 562.894531 414.023438 571.101562 409.414062 577.324219 C 412.546875 568.269531 416.050781 560.207031 419.183594 553.730469 C 422.277344 553.914062 427.546875 554.136719 434.773438 554.136719 C 436.394531 554.136719 438.164062 554.136719 439.96875 554.097656 C 440.925781 554.097656 441.699219 553.289062 441.699219 552.332031 C 441.699219 551.375 440.890625 550.601562 439.929688 550.601562 C 439.929688 550.601562 439.929688 550.601562 439.894531 550.601562 C 437.683594 550.640625 435.65625 550.640625 433.738281 550.640625 C 437.832031 546.441406 440.484375 546.773438 445.421875 547.398438 C 446.050781 547.472656 446.675781 547.546875 447.339844 547.621094 C 448.886719 547.804688 453.566406 549.054688 458.984375 550.527344 C 470.484375 553.65625 486.222656 557.925781 493.925781 557.925781 C 494.476562 557.925781 494.992188 557.667969 495.324219 557.226562 C 495.65625 556.785156 495.765625 556.195312 495.582031 555.679688 C 495.546875 555.496094 494.734375 552.996094 492.671875 549.167969 C 502.105469 546.628906 506.898438 542.320312 506.898438 536.320312 C 506.898438 528.039062 490.863281 522.851562 489.023438 522.261719 C 488.101562 521.96875 487.105469 522.484375 486.8125 523.402344 C 486.515625 524.324219 487.03125 525.316406 487.953125 525.613281 C 493.886719 527.453125 503.320312 531.980469 503.320312 536.320312 C 503.320312 540.738281 499.121094 543.976562 490.792969 546.039062 C 489.757812 544.34375 488.507812 542.542969 486.996094 540.589844 C 486.40625 539.816406 485.300781 539.671875 484.527344 540.261719 C 483.75 540.847656 483.605469 541.953125 484.195312 542.726562 C 485.300781 544.160156 486.257812 545.523438 487.070312 546.773438 C 487.03125 546.773438 486.996094 546.773438 486.996094 546.773438 C 484.453125 544.308594 481.871094 542.0625 479.21875 540.039062 C 483.53125 539.082031 485.261719 537.902344 486.222656 536.910156 C 487.253906 535.804688 487.402344 534.703125 487.328125 533.929688 C 486.847656 527.453125 475.054688 525.832031 471.699219 525.5 C 468.679688 522.851562 465.25 520.386719 460.863281 518.507812 C 456.921875 516.816406 453.605469 515.710938 450.804688 514.902344 L 543.199219 514.902344 L 543.199219 593.296875 Z M 462.414062 538.382812 C 459.28125 537.09375 456.480469 536.027344 454.121094 535.144531 C 457.363281 534.996094 460.828125 534.777344 464.144531 534.40625 C 466.023438 535.4375 467.941406 536.617188 469.894531 537.832031 C 467.757812 538.089844 465.289062 538.273438 462.414062 538.382812 Z M 474.355469 540.886719 C 477.449219 543.09375 480.546875 545.597656 483.492188 548.355469 C 478.925781 545.890625 474.207031 543.609375 469.414062 541.4375 C 471.257812 541.253906 472.917969 541.070312 474.355469 540.886719 Z M 475.570312 463.449219 C 474.613281 463.335938 473.949219 462.453125 474.058594 461.496094 C 474.167969 460.539062 475.054688 459.878906 476.011719 459.988281 C 476.566406 460.0625 489.242188 461.867188 493.40625 473.347656 C 493.738281 474.269531 493.261719 475.261719 492.375 475.59375 C 492.191406 475.667969 491.96875 475.703125 491.785156 475.703125 C 491.085938 475.703125 490.386719 475.261719 490.128906 474.5625 C 486.664062 464.992188 475.679688 463.449219 475.570312 463.449219 Z M 383.136719 533.636719 C 383.136719 527.527344 398.914062 526.640625 408.347656 526.640625 C 409.304688 526.640625 410.117188 527.414062 410.117188 528.410156 C 410.117188 529.402344 409.34375 530.175781 408.347656 530.175781 C 396.515625 530.175781 387.15625 532.015625 386.675781 533.671875 C 386.675781 534.738281 388.078125 538.382812 406.246094 539.339844 C 407.203125 539.375 407.941406 540.222656 407.90625 541.179688 C 407.867188 542.101562 407.09375 542.835938 406.136719 542.835938 C 406.097656 542.835938 406.0625 542.835938 406.023438 542.835938 C 390.398438 541.988281 383.136719 539.082031 383.136719 533.636719 Z M 429.761719 539.15625 L 433.59375 539.15625 C 434.550781 539.15625 435.363281 539.929688 435.363281 540.921875 C 435.363281 541.917969 434.585938 542.6875 433.59375 542.6875 L 429.761719 542.6875 C 428.800781 542.6875 427.992188 541.917969 427.992188 540.921875 C 427.992188 539.929688 428.800781 539.15625 429.761719 539.15625 Z M 361.910156 536.949219 C 361.910156 524.214844 381.222656 521.710938 382.03125 521.636719 C 382.992188 521.527344 383.875 522.1875 383.984375 523.183594 C 384.097656 524.140625 383.433594 525.023438 382.476562 525.132812 C 382.289062 525.171875 365.449219 527.339844 365.449219 536.984375 C 365.449219 545.449219 382.878906 547.878906 389.589844 548.136719 C 390.546875 548.171875 391.320312 548.984375 391.285156 549.941406 C 391.246094 550.898438 390.472656 551.632812 389.515625 551.632812 C 389.476562 551.632812 389.476562 551.632812 389.441406 551.632812 C 388.296875 551.558594 361.910156 550.453125 361.910156 536.949219 Z M 398.839844 551.007812 C 398.726562 551.890625 397.992188 552.554688 397.105469 552.554688 C 397.03125 552.554688 396.960938 552.554688 396.886719 552.554688 L 395.449219 552.367188 C 394.488281 552.257812 393.789062 551.375 393.898438 550.417969 C 394.011719 549.460938 394.894531 548.761719 395.851562 548.871094 L 397.289062 549.054688 C 398.285156 549.167969 398.984375 550.050781 398.839844 551.007812 Z M 483.125 523.109375 C 482.976562 523.957031 482.242188 524.582031 481.394531 524.582031 C 481.28125 524.582031 481.210938 524.582031 481.097656 524.542969 L 476.601562 523.808594 C 475.644531 523.660156 475.015625 522.742188 475.164062 521.785156 C 475.3125 520.828125 476.234375 520.203125 477.191406 520.347656 L 481.6875 521.085938 C 482.644531 521.269531 483.308594 522.152344 483.125 523.109375 Z M 390.953125 564.550781 C 344.21875 561.460938 341.675781 542.0625 341.566406 541.253906 C 341.457031 540.296875 342.15625 539.414062 343.113281 539.339844 C 344.074219 539.265625 344.921875 539.929688 345.03125 540.886719 C 345.066406 541.179688 347.90625 558.222656 391.136719 561.054688 C 392.09375 561.128906 392.832031 561.9375 392.757812 562.933594 C 392.683594 563.851562 391.910156 564.589844 390.988281 564.589844 C 391.027344 564.550781 390.988281 564.550781 390.953125 564.550781 Z M 523.371094 541.253906 C 523.296875 542.0625 520.71875 561.460938 473.984375 564.550781 C 473.949219 564.550781 473.910156 564.550781 473.875 564.550781 C 472.953125 564.550781 472.179688 563.851562 472.105469 562.894531 C 472.03125 561.9375 472.769531 561.089844 473.726562 561.019531 C 517.511719 558.148438 519.832031 541.03125 519.832031 540.847656 C 519.945312 539.890625 520.828125 539.191406 521.75 539.304688 C 522.746094 539.449219 523.445312 540.296875 523.371094 541.253906 Z M 361.503906 489.320312 C 360.546875 489.46875 359.660156 488.808594 359.515625 487.851562 C 359.367188 486.894531 360.03125 486.007812 360.988281 485.863281 C 371.234375 484.28125 379.710938 487.886719 386.234375 496.535156 C 388.8125 490.71875 391.984375 488.4375 392.132812 488.328125 C 392.90625 487.777344 394.011719 487.960938 394.5625 488.734375 C 395.117188 489.507812 394.933594 490.609375 394.15625 491.164062 C 394.085938 491.199219 390.839844 493.664062 388.628906 500.03125 C 388.925781 500.511719 389.183594 500.953125 389.476562 501.429688 C 389.957031 502.277344 389.660156 503.34375 388.8125 503.824219 C 388.554688 503.96875 388.261719 504.042969 387.964844 504.042969 C 387.339844 504.042969 386.75 503.710938 386.417969 503.160156 C 380.300781 492.375 371.933594 487.738281 361.503906 489.320312 Z M 355.164062 488.953125 C 355.535156 489.875 355.054688 490.867188 354.171875 491.234375 C 351.921875 492.121094 350.523438 492.929688 350.523438 492.964844 C 350.226562 493.148438 349.933594 493.222656 349.601562 493.222656 C 349.011719 493.222656 348.421875 492.929688 348.089844 492.375 C 347.574219 491.53125 347.867188 490.464844 348.679688 489.984375 C 348.753906 489.949219 350.300781 488.992188 352.878906 487.996094 C 353.800781 487.628906 354.796875 488.070312 355.164062 488.953125 Z M 461.417969 472.503906 C 461.972656 473.273438 461.824219 474.378906 461.011719 474.96875 C 460.71875 475.1875 460.347656 475.300781 459.980469 475.300781 C 459.429688 475.300781 458.910156 475.042969 458.542969 474.5625 C 449.21875 461.679688 432.890625 463.335938 432.746094 463.335938 C 431.785156 463.449219 430.902344 462.75 430.792969 461.792969 C 430.679688 460.835938 431.382812 459.953125 432.339844 459.839844 C 433.113281 459.730469 450.878906 457.890625 461.417969 472.503906 Z M 514.378906 487.851562 C 514.230469 488.808594 513.347656 489.46875 512.386719 489.320312 C 501.957031 487.703125 493.59375 492.375 487.511719 503.160156 C 487.179688 503.75 486.589844 504.042969 485.964844 504.042969 C 485.667969 504.042969 485.375 503.96875 485.117188 503.824219 C 484.269531 503.34375 483.972656 502.277344 484.453125 501.429688 C 484.710938 500.953125 485.003906 500.472656 485.300781 500.03125 C 483.050781 493.628906 479.773438 491.199219 479.773438 491.164062 C 478.996094 490.609375 478.8125 489.507812 479.367188 488.734375 C 479.917969 487.960938 481.023438 487.777344 481.796875 488.328125 C 481.945312 488.4375 485.117188 490.71875 487.695312 496.535156 C 494.21875 487.886719 502.695312 484.28125 512.941406 485.863281 C 513.863281 486.007812 514.527344 486.894531 514.378906 487.851562 Z M 525.765625 492.339844 C 525.433594 492.890625 524.84375 493.1875 524.253906 493.1875 C 523.960938 493.1875 523.628906 493.113281 523.335938 492.929688 C 523.296875 492.890625 521.898438 492.082031 519.683594 491.199219 C 518.765625 490.832031 518.320312 489.835938 518.691406 488.917969 C 519.058594 488.035156 520.054688 487.59375 520.976562 487.921875 C 523.519531 488.917969 525.101562 489.875 525.175781 489.910156 C 525.988281 490.464844 526.246094 491.53125 525.765625 492.339844 Z M 518.800781 532.9375 C 518.246094 532.125 518.46875 531.023438 519.28125 530.507812 C 520.089844 529.953125 521.160156 530.175781 521.710938 530.984375 C 522.890625 532.75 522.890625 534.554688 522.890625 534.777344 C 522.890625 535.734375 522.082031 536.507812 521.121094 536.507812 L 521.085938 536.507812 C 520.128906 536.507812 519.355469 535.695312 519.355469 534.738281 C 519.390625 534.664062 519.355469 533.78125 518.800781 532.9375 Z M 348.972656 534.886719 C 348.972656 524.027344 360.546875 519.832031 361.027344 519.648438 C 361.945312 519.316406 362.941406 519.796875 363.273438 520.714844 C 363.605469 521.636719 363.125 522.628906 362.203125 522.960938 C 361.800781 523.109375 352.511719 526.570312 352.511719 534.886719 C 352.511719 543.242188 358.226562 545.855469 358.484375 545.964844 C 359.367188 546.332031 359.773438 547.363281 359.402344 548.246094 C 359.109375 548.910156 358.484375 549.3125 357.78125 549.3125 C 357.5625 549.3125 357.339844 549.277344 357.117188 549.167969 C 356.75 549.054688 348.972656 545.671875 348.972656 534.886719 Z M 365.816406 549.867188 C 366.703125 550.308594 367.03125 551.339844 366.589844 552.222656 C 366.296875 552.847656 365.667969 553.179688 365.007812 553.179688 C 364.746094 553.179688 364.488281 553.105469 364.230469 552.996094 L 361.945312 551.851562 C 361.0625 551.410156 360.730469 550.382812 361.171875 549.496094 C 361.617188 548.613281 362.648438 548.285156 363.53125 548.726562 Z M 333.125 531.941406 C 333.125 523.84375 342.378906 517.808594 342.78125 517.550781 C 343.59375 517.035156 344.699219 517.257812 345.214844 518.066406 C 345.730469 518.875 345.511719 519.980469 344.699219 520.496094 C 344.625 520.53125 336.664062 525.722656 336.664062 531.90625 C 336.664062 532.863281 335.890625 533.671875 334.894531 533.671875 C 333.902344 533.671875 333.125 532.9375 333.125 531.941406 Z M 395.523438 583.800781 C 395.410156 584.683594 394.636719 585.347656 393.789062 585.347656 C 393.714844 585.347656 393.640625 585.347656 393.570312 585.347656 C 392.722656 585.234375 391.613281 585.125 390.324219 584.976562 C 383.984375 584.277344 372.191406 582.992188 358.1875 579.199219 C 355.238281 578.390625 352.695312 577.285156 350.449219 576.328125 C 349.5625 575.960938 349.160156 574.929688 349.527344 574.011719 C 349.894531 573.125 350.925781 572.722656 351.847656 573.089844 C 353.988281 574.011719 356.417969 575.039062 359.109375 575.777344 C 372.855469 579.492188 384.464844 580.78125 390.695312 581.445312 C 392.019531 581.59375 393.125 581.703125 394.011719 581.8125 C 394.96875 581.960938 395.667969 582.804688 395.523438 583.800781 Z M 343.554688 570.84375 C 343.226562 571.359375 342.671875 571.65625 342.082031 571.65625 C 341.75 571.65625 341.417969 571.582031 341.125 571.359375 C 335.226562 567.605469 332.683594 564.402344 332.574219 564.292969 C 331.984375 563.519531 332.09375 562.417969 332.867188 561.828125 C 333.644531 561.238281 334.75 561.347656 335.339844 562.121094 C 335.375 562.195312 337.695312 565.03125 343.003906 568.414062 C 343.851562 568.929688 344.074219 570 343.554688 570.84375 Z M 522.117188 573.972656 C 522.484375 574.855469 522.082031 575.886719 521.195312 576.292969 C 518.875 577.285156 516.367188 578.351562 513.457031 579.164062 C 497.386719 583.691406 481.394531 584.648438 478.296875 584.648438 C 477.339844 584.648438 476.527344 583.875 476.527344 582.878906 C 476.527344 581.886719 477.300781 581.113281 478.296875 581.113281 C 480.765625 581.113281 496.726562 580.191406 512.5 575.738281 C 515.1875 575.003906 517.585938 573.972656 519.796875 573.015625 C 520.71875 572.648438 521.75 573.089844 522.117188 573.972656 Z M 539.070312 564.292969 C 538.960938 564.441406 536.417969 567.605469 530.519531 571.359375 C 530.226562 571.542969 529.894531 571.65625 529.5625 571.65625 C 528.972656 571.65625 528.421875 571.359375 528.089844 570.84375 C 527.574219 570.035156 527.792969 568.929688 528.605469 568.414062 C 533.949219 564.992188 536.269531 562.121094 536.269531 562.121094 C 536.859375 561.386719 537.964844 561.238281 538.738281 561.828125 C 539.550781 562.417969 539.699219 563.519531 539.070312 564.292969 Z M 528.015625 520.53125 C 527.203125 520.015625 526.945312 518.914062 527.5 518.101562 C 528.015625 517.292969 529.121094 517.035156 529.929688 517.589844 C 530.335938 517.847656 539.585938 523.84375 539.585938 531.980469 C 539.585938 532.9375 538.8125 533.746094 537.816406 533.746094 C 536.824219 533.746094 536.050781 532.972656 536.050781 531.980469 C 536.050781 526.789062 530.261719 521.96875 528.015625 520.53125 Z M 459.871094 584.390625 C 459.945312 585.347656 459.207031 586.191406 458.25 586.265625 C 458.136719 586.265625 449.070312 586.929688 437.683594 586.929688 C 434.257812 586.929688 430.644531 586.855469 426.957031 586.707031 C 426 586.671875 425.226562 585.859375 425.261719 584.867188 C 425.300781 583.910156 426.109375 583.136719 427.105469 583.175781 C 442.695312 583.835938 457.804688 582.734375 457.953125 582.734375 C 458.910156 582.695312 459.796875 583.433594 459.871094 584.390625 Z M 468.824219 583.800781 C 468.863281 584.757812 468.125 585.605469 467.167969 585.640625 L 465.140625 585.75 C 465.101562 585.75 465.066406 585.75 465.03125 585.75 C 464.109375 585.75 463.335938 585.015625 463.261719 584.09375 C 463.222656 583.136719 463.960938 582.292969 464.917969 582.253906 L 466.945312 582.144531 C 467.976562 582.105469 468.753906 582.84375 468.824219 583.800781 Z M 444.757812 324.582031 C 444.980469 325.539062 444.390625 326.460938 443.433594 326.679688 C 442.511719 326.902344 441.664062 326.9375 440.925781 326.9375 C 439.527344 326.9375 438.566406 326.679688 438.382812 326.644531 C 437.460938 326.386719 436.910156 325.429688 437.167969 324.472656 C 437.425781 323.554688 438.382812 323 439.304688 323.257812 C 439.34375 323.257812 440.851562 323.625 442.621094 323.257812 C 443.617188 323.039062 444.539062 323.664062 444.757812 324.582031 Z M 440.632812 318.695312 C 440.707031 318.730469 440.890625 318.769531 440.964844 318.769531 C 441.109375 318.769531 441.296875 318.695312 441.296875 318.695312 C 442.179688 318.289062 443.210938 318.695312 443.617188 319.578125 C 444.023438 320.460938 443.617188 321.492188 442.734375 321.898438 C 442.585938 321.96875 441.847656 322.265625 441 322.265625 C 440.117188 322.265625 439.378906 321.96875 439.269531 321.898438 C 438.382812 321.492188 437.976562 320.460938 438.382812 319.578125 C 438.714844 318.730469 439.746094 318.328125 440.632812 318.695312 Z M 368.25 272.910156 C 368.25 272.027344 368.984375 271.289062 369.871094 271.289062 C 371.933594 271.289062 373.628906 269.597656 373.628906 267.535156 C 373.628906 266.652344 374.367188 265.917969 375.25 265.917969 C 376.136719 265.917969 376.875 266.652344 376.875 267.535156 C 376.875 269.597656 378.570312 271.289062 380.632812 271.289062 C 381.515625 271.289062 382.253906 272.027344 382.253906 272.910156 C 382.253906 273.792969 381.515625 274.527344 380.632812 274.527344 C 378.570312 274.527344 376.875 276.222656 376.875 278.28125 C 376.875 279.167969 376.136719 279.902344 375.25 279.902344 C 374.367188 279.902344 373.628906 279.167969 373.628906 278.28125 C 373.628906 276.222656 371.933594 274.527344 369.871094 274.527344 C 368.984375 274.527344 368.25 273.792969 368.25 272.910156 Z M 346.984375 315.675781 C 346.984375 314.792969 347.722656 314.058594 348.605469 314.058594 C 350.667969 314.058594 352.363281 312.363281 352.363281 310.304688 C 352.363281 309.417969 353.101562 308.683594 353.988281 308.683594 C 354.871094 308.683594 355.609375 309.417969 355.609375 310.304688 C 355.609375 312.363281 357.304688 314.058594 359.367188 314.058594 C 360.25 314.058594 360.988281 314.792969 360.988281 315.675781 C 360.988281 316.558594 360.25 317.296875 359.367188 317.296875 C 357.304688 317.296875 355.609375 318.988281 355.609375 321.050781 C 355.609375 321.933594 354.871094 322.667969 353.988281 322.667969 C 353.101562 322.667969 352.363281 321.933594 352.363281 321.050781 C 352.363281 318.988281 350.667969 317.296875 348.605469 317.296875 C 347.722656 317.296875 346.984375 316.558594 346.984375 315.675781 Z M 340.351562 367.792969 C 340.351562 366.910156 341.085938 366.171875 341.972656 366.171875 C 344.035156 366.171875 345.730469 364.480469 345.730469 362.417969 C 345.730469 361.535156 346.46875 360.800781 347.351562 360.800781 C 348.238281 360.800781 348.972656 361.535156 348.972656 362.417969 C 348.972656 364.480469 350.667969 366.171875 352.734375 366.171875 C 353.617188 366.171875 354.355469 366.910156 354.355469 367.792969 C 354.355469 368.675781 353.617188 369.410156 352.734375 369.410156 C 350.667969 369.410156 348.972656 371.105469 348.972656 373.164062 C 348.972656 374.050781 348.238281 374.785156 347.351562 374.785156 C 346.46875 374.785156 345.730469 374.050781 345.730469 373.164062 C 345.730469 371.105469 344.035156 369.410156 341.972656 369.410156 C 341.050781 369.410156 340.351562 368.675781 340.351562 367.792969 Z M 529.269531 362.417969 C 529.269531 364.480469 530.964844 366.171875 533.027344 366.171875 C 533.910156 366.171875 534.648438 366.910156 534.648438 367.792969 C 534.648438 368.675781 533.910156 369.410156 533.027344 369.410156 C 530.964844 369.410156 529.269531 371.105469 529.269531 373.164062 C 529.269531 374.050781 528.53125 374.785156 527.644531 374.785156 C 526.761719 374.785156 526.023438 374.050781 526.023438 373.164062 C 526.023438 371.105469 524.328125 369.410156 522.265625 369.410156 C 521.378906 369.410156 520.644531 368.675781 520.644531 367.792969 C 520.644531 366.910156 521.378906 366.171875 522.265625 366.171875 C 524.328125 366.171875 526.023438 364.480469 526.023438 362.417969 C 526.023438 361.535156 526.761719 360.800781 527.644531 360.800781 C 528.566406 360.800781 529.269531 361.535156 529.269531 362.417969 Z M 515.816406 413.578125 C 515.816406 412.695312 516.550781 411.957031 517.4375 411.957031 C 519.5 411.957031 521.195312 410.265625 521.195312 408.203125 C 521.195312 407.320312 521.933594 406.585938 522.816406 406.585938 C 523.703125 406.585938 524.441406 407.320312 524.441406 408.203125 C 524.441406 410.265625 526.136719 411.957031 528.199219 411.957031 C 529.082031 411.957031 529.820312 412.695312 529.820312 413.578125 C 529.820312 414.460938 529.082031 415.195312 528.199219 415.195312 C 526.136719 415.195312 524.441406 416.890625 524.441406 418.949219 C 524.441406 419.835938 523.703125 420.570312 522.816406 420.570312 C 521.933594 420.570312 521.195312 419.835938 521.195312 418.949219 C 521.195312 416.890625 519.5 415.195312 517.4375 415.195312 C 516.550781 415.195312 515.816406 414.496094 515.816406 413.578125 Z M 360.988281 413.578125 C 360.988281 414.460938 360.25 415.195312 359.367188 415.195312 C 357.304688 415.195312 355.609375 416.890625 355.609375 418.949219 C 355.609375 419.835938 354.871094 420.570312 353.988281 420.570312 C 353.101562 420.570312 352.363281 419.835938 352.363281 418.949219 C 352.363281 416.890625 350.667969 415.195312 348.605469 415.195312 C 347.722656 415.195312 346.984375 414.460938 346.984375 413.578125 C 346.984375 412.695312 347.722656 411.957031 348.605469 411.957031 C 350.667969 411.957031 352.363281 410.265625 352.363281 408.203125 C 352.363281 407.320312 353.101562 406.585938 353.988281 406.585938 C 354.871094 406.585938 355.609375 407.320312 355.609375 408.203125 C 355.609375 410.265625 357.304688 411.957031 359.367188 411.957031 C 360.25 411.957031 360.988281 412.695312 360.988281 413.578125 Z M 516 315.675781 C 516 314.792969 516.738281 314.058594 517.621094 314.058594 C 519.683594 314.058594 521.378906 312.363281 521.378906 310.304688 C 521.378906 309.417969 522.117188 308.683594 523.003906 308.683594 C 523.886719 308.683594 524.625 309.417969 524.625 310.304688 C 524.625 312.363281 526.320312 314.058594 528.382812 314.058594 C 529.269531 314.058594 530.003906 314.792969 530.003906 315.675781 C 530.003906 316.558594 529.269531 317.296875 528.382812 317.296875 C 526.320312 317.296875 524.625 318.988281 524.625 321.050781 C 524.625 321.933594 523.886719 322.667969 523.003906 322.667969 C 522.117188 322.667969 521.378906 321.933594 521.378906 321.050781 C 521.378906 318.988281 519.683594 317.296875 517.621094 317.296875 C 516.699219 317.296875 516 316.558594 516 315.675781 Z M 492.007812 272.871094 C 492.007812 271.988281 492.746094 271.253906 493.628906 271.253906 C 495.691406 271.253906 497.386719 269.558594 497.386719 267.5 C 497.386719 266.617188 498.125 265.878906 499.011719 265.878906 C 499.894531 265.878906 500.632812 266.617188 500.632812 267.5 C 500.632812 269.558594 502.328125 271.253906 504.390625 271.253906 C 505.273438 271.253906 506.011719 271.988281 506.011719 272.871094 C 506.011719 273.753906 505.273438 274.492188 504.390625 274.492188 C 502.328125 274.492188 500.632812 276.183594 500.632812 278.246094 C 500.632812 279.128906 499.894531 279.867188 499.011719 279.867188 C 498.125 279.867188 497.386719 279.128906 497.386719 278.246094 C 497.386719 276.183594 495.691406 274.492188 493.628906 274.492188 C 492.707031 274.492188 492.007812 273.792969 492.007812 272.871094 Z M 349.046875 615.121094 C 349.046875 612.691406 348.199219 610.632812 346.46875 608.9375 C 344.773438 607.207031 342.707031 606.363281 340.277344 606.363281 C 337.882812 606.363281 335.816406 607.207031 334.085938 608.9375 C 332.390625 610.632812 331.503906 612.691406 331.503906 615.121094 C 331.503906 617.511719 332.351562 619.574219 334.085938 621.304688 C 335.816406 622.996094 337.882812 623.878906 340.277344 623.878906 C 341.859375 623.878906 343.261719 624.175781 344.476562 624.726562 C 344.847656 624.910156 345.179688 625.09375 345.472656 625.316406 C 345.582031 625.390625 345.65625 625.425781 345.730469 625.5 C 345.769531 625.5 345.769531 625.535156 345.804688 625.574219 C 346.171875 625.980469 346.617188 626.164062 347.167969 626.164062 C 347.648438 626.164062 348.054688 626.015625 348.421875 625.683594 C 348.789062 625.351562 348.972656 624.910156 349.011719 624.394531 C 349.046875 623.878906 348.863281 623.4375 348.53125 623.070312 L 348.457031 622.996094 C 348.421875 622.960938 348.382812 622.886719 348.347656 622.851562 C 348.199219 622.738281 348.054688 622.59375 347.90625 622.480469 C 347.425781 622.113281 346.875 621.78125 346.285156 621.488281 C 347.167969 620.679688 347.832031 619.722656 348.3125 618.65625 C 348.789062 617.511719 349.046875 616.335938 349.046875 615.121094 Z M 343.886719 618.691406 C 342.894531 619.683594 341.675781 620.164062 340.277344 620.164062 C 338.875 620.164062 337.695312 619.683594 336.703125 618.691406 C 335.707031 617.699219 335.226562 616.519531 335.226562 615.121094 C 335.226562 613.722656 335.707031 612.542969 336.703125 611.550781 C 337.695312 610.558594 338.875 610.078125 340.277344 610.078125 C 341.675781 610.078125 342.855469 610.558594 343.886719 611.550781 C 344.882812 612.542969 345.363281 613.722656 345.363281 615.121094 C 345.363281 616.519531 344.882812 617.699219 343.886719 618.691406 Z M 366.515625 606.914062 C 366.886719 607.28125 367.070312 607.722656 367.070312 608.203125 L 367.070312 616.261719 C 367.070312 618.359375 366.332031 620.164062 364.820312 621.636719 C 363.347656 623.109375 361.542969 623.878906 359.441406 623.878906 C 357.339844 623.878906 355.535156 623.144531 354.058594 621.636719 C 352.585938 620.164062 351.8125 618.359375 351.8125 616.261719 L 351.8125 608.203125 C 351.8125 607.6875 351.996094 607.246094 352.363281 606.914062 C 352.734375 606.546875 353.175781 606.363281 353.691406 606.363281 C 354.207031 606.363281 354.613281 606.546875 354.980469 606.914062 C 355.351562 607.28125 355.535156 607.722656 355.535156 608.203125 L 355.535156 616.261719 C 355.535156 617.328125 355.902344 618.285156 356.675781 619.023438 C 357.449219 619.757812 358.371094 620.164062 359.441406 620.164062 C 360.507812 620.164062 361.429688 619.796875 362.203125 619.023438 C 362.980469 618.25 363.347656 617.328125 363.347656 616.261719 L 363.347656 608.203125 C 363.347656 607.6875 363.53125 607.246094 363.898438 606.914062 C 364.269531 606.546875 364.675781 606.363281 365.191406 606.363281 C 365.707031 606.363281 366.148438 606.546875 366.515625 606.914062 Z M 374.402344 610.042969 L 374.402344 613.28125 L 381.773438 613.28125 C 382.289062 613.28125 382.734375 613.464844 383.101562 613.832031 C 383.46875 614.199219 383.65625 614.644531 383.65625 615.15625 C 383.65625 615.671875 383.46875 616.113281 383.101562 616.445312 C 382.734375 616.8125 382.289062 617 381.773438 617 L 374.402344 617 L 374.402344 620.238281 L 384.097656 620.238281 C 384.613281 620.238281 385.054688 620.421875 385.421875 620.789062 C 385.792969 621.15625 385.976562 621.597656 385.976562 622.078125 C 385.976562 622.59375 385.792969 623.035156 385.421875 623.402344 C 385.054688 623.769531 384.613281 623.953125 384.097656 623.953125 L 372.5625 623.953125 C 372.046875 623.953125 371.601562 623.769531 371.234375 623.402344 C 370.867188 623.035156 370.679688 622.59375 370.679688 622.078125 L 370.679688 608.277344 C 370.679688 607.761719 370.867188 607.320312 371.234375 606.988281 C 371.601562 606.621094 372.046875 606.433594 372.5625 606.433594 L 384.097656 606.433594 C 384.613281 606.433594 385.054688 606.621094 385.421875 606.988281 C 385.792969 607.355469 385.976562 607.796875 385.976562 608.277344 C 385.976562 608.789062 385.792969 609.230469 385.421875 609.5625 C 385.054688 609.929688 384.613281 610.117188 384.097656 610.117188 Z M 392.390625 610.042969 L 392.390625 613.28125 L 399.761719 613.28125 C 400.277344 613.28125 400.71875 613.464844 401.085938 613.832031 C 401.457031 614.199219 401.640625 614.644531 401.640625 615.15625 C 401.640625 615.671875 401.457031 616.113281 401.085938 616.445312 C 400.71875 616.8125 400.277344 617 399.761719 617 L 392.390625 617 L 392.390625 620.238281 L 402.082031 620.238281 C 402.597656 620.238281 403.039062 620.421875 403.410156 620.789062 C 403.777344 621.15625 403.960938 621.597656 403.960938 622.078125 C 403.960938 622.59375 403.777344 623.035156 403.410156 623.402344 C 403.039062 623.769531 402.597656 623.953125 402.082031 623.953125 L 390.546875 623.953125 C 390.03125 623.953125 389.589844 623.769531 389.21875 623.402344 C 388.851562 623.035156 388.667969 622.59375 388.667969 622.078125 L 388.667969 608.277344 C 388.667969 607.761719 388.851562 607.320312 389.21875 606.988281 C 389.589844 606.621094 390.03125 606.433594 390.546875 606.433594 L 402.082031 606.433594 C 402.597656 606.433594 403.039062 606.621094 403.410156 606.988281 C 403.777344 607.355469 403.960938 607.796875 403.960938 608.277344 C 403.960938 608.789062 403.777344 609.230469 403.410156 609.5625 C 403.039062 609.929688 402.597656 610.117188 402.082031 610.117188 Z M 421.394531 606.914062 C 421.761719 607.28125 421.945312 607.722656 421.945312 608.203125 L 421.945312 622.003906 C 421.945312 622.410156 421.835938 622.738281 421.613281 623.070312 C 421.394531 623.402344 421.097656 623.621094 420.730469 623.734375 C 420.507812 623.808594 420.324219 623.84375 420.105469 623.84375 C 419.515625 623.84375 419.070312 623.625 418.703125 623.179688 L 410.449219 613.28125 L 410.449219 622.003906 C 410.449219 622.519531 410.261719 622.960938 409.894531 623.328125 C 409.527344 623.695312 409.085938 623.878906 408.605469 623.878906 C 408.089844 623.878906 407.648438 623.695312 407.277344 623.328125 C 406.910156 622.960938 406.726562 622.519531 406.726562 622.003906 L 406.726562 608.203125 C 406.726562 607.796875 406.835938 607.464844 407.058594 607.132812 C 407.277344 606.839844 407.574219 606.621094 407.941406 606.472656 C 408.308594 606.324219 408.679688 606.324219 409.046875 606.433594 C 409.414062 606.546875 409.746094 606.730469 409.96875 607.023438 L 418.222656 616.925781 L 418.222656 608.203125 C 418.222656 607.6875 418.410156 607.246094 418.777344 606.914062 C 419.144531 606.546875 419.585938 606.363281 420.066406 606.363281 C 420.582031 606.363281 421.023438 606.546875 421.394531 606.914062 Z M 477.632812 611.515625 C 476.640625 612.507812 476.160156 613.6875 476.160156 615.121094 C 476.160156 616.519531 476.640625 617.699219 477.632812 618.691406 C 478.628906 619.683594 479.808594 620.164062 481.210938 620.164062 C 482.609375 620.164062 483.789062 619.683594 484.785156 618.691406 C 485.152344 618.324219 485.59375 618.140625 486.109375 618.140625 C 486.625 618.140625 487.03125 618.324219 487.402344 618.691406 C 487.769531 619.058594 487.953125 619.5 487.953125 619.980469 C 487.953125 620.496094 487.769531 620.9375 487.402344 621.304688 C 485.707031 622.996094 483.640625 623.878906 481.210938 623.878906 C 478.777344 623.878906 476.710938 623.035156 475.015625 621.304688 C 473.320312 619.609375 472.4375 617.550781 472.4375 615.121094 C 472.4375 612.691406 473.285156 610.632812 475.015625 608.9375 C 476.710938 607.207031 478.777344 606.363281 481.210938 606.363281 C 483.640625 606.363281 485.707031 607.207031 487.402344 608.9375 C 487.769531 609.304688 487.953125 609.746094 487.953125 610.226562 C 487.953125 610.742188 487.769531 611.183594 487.402344 611.515625 C 487.03125 611.882812 486.589844 612.066406 486.109375 612.066406 C 485.59375 612.066406 485.152344 611.882812 484.785156 611.515625 C 483.789062 610.519531 482.609375 610.042969 481.210938 610.042969 C 479.808594 610.042969 478.628906 610.519531 477.632812 611.515625 Z M 505.128906 606.914062 C 505.496094 607.28125 505.679688 607.722656 505.679688 608.203125 L 505.679688 616.261719 C 505.679688 618.359375 504.945312 620.164062 503.433594 621.636719 C 501.957031 623.109375 500.152344 623.878906 498.050781 623.878906 C 495.949219 623.878906 494.144531 623.144531 492.671875 621.636719 C 491.195312 620.164062 490.421875 618.359375 490.421875 616.261719 L 490.421875 608.203125 C 490.421875 607.6875 490.605469 607.246094 490.976562 606.914062 C 491.34375 606.546875 491.785156 606.363281 492.300781 606.363281 C 492.816406 606.363281 493.222656 606.546875 493.59375 606.914062 C 493.960938 607.28125 494.144531 607.722656 494.144531 608.203125 L 494.144531 616.261719 C 494.144531 617.328125 494.511719 618.285156 495.289062 619.023438 C 496.0625 619.757812 496.984375 620.164062 498.050781 620.164062 C 499.121094 620.164062 500.042969 619.796875 500.816406 619.023438 C 501.589844 618.25 501.957031 617.328125 501.957031 616.261719 L 501.957031 608.203125 C 501.957031 607.6875 502.140625 607.246094 502.511719 606.914062 C 502.878906 606.546875 503.320312 606.363281 503.800781 606.363281 C 504.316406 606.363281 504.757812 606.546875 505.128906 606.914062 Z M 518.101562 606.363281 L 511.207031 606.363281 C 510.691406 606.363281 510.25 606.546875 509.882812 606.914062 C 509.511719 607.28125 509.328125 607.722656 509.328125 608.203125 L 509.328125 622.003906 C 509.328125 622.519531 509.511719 622.960938 509.882812 623.328125 C 510.25 623.695312 510.691406 623.878906 511.207031 623.878906 C 511.726562 623.878906 512.167969 623.695312 512.5 623.328125 C 512.867188 622.960938 513.050781 622.519531 513.050781 622.003906 L 513.050781 619.242188 L 518.136719 619.242188 C 519.90625 619.242188 521.453125 618.617188 522.707031 617.367188 C 523.960938 616.113281 524.585938 614.605469 524.585938 612.800781 C 524.585938 611.035156 523.960938 609.488281 522.707031 608.238281 C 521.417969 606.988281 519.90625 606.363281 518.101562 606.363281 Z M 520.054688 614.753906 C 519.5 615.304688 518.875 615.5625 518.101562 615.5625 L 513.050781 615.5625 L 513.050781 610.042969 L 518.136719 610.042969 C 518.910156 610.042969 519.539062 610.300781 520.089844 610.851562 C 520.644531 611.402344 520.902344 612.03125 520.902344 612.800781 C 520.902344 613.574219 520.605469 614.199219 520.054688 614.753906 Z M 530.59375 610.519531 C 530.261719 610.816406 530.117188 611.21875 530.117188 611.660156 C 530.117188 612.101562 530.261719 612.472656 530.59375 612.800781 C 530.890625 613.097656 531.292969 613.28125 531.738281 613.28125 L 536.34375 613.28125 C 537.816406 613.28125 539.035156 613.796875 540.101562 614.828125 C 541.171875 615.855469 541.652344 617.109375 541.652344 618.582031 C 541.652344 620.054688 541.136719 621.265625 540.101562 622.335938 C 539.070312 623.402344 537.816406 623.878906 536.34375 623.878906 L 528.273438 623.878906 C 527.757812 623.878906 527.3125 623.695312 526.945312 623.328125 C 526.578125 622.960938 526.394531 622.519531 526.394531 622.003906 C 526.394531 621.488281 526.578125 621.046875 526.945312 620.714844 C 527.3125 620.347656 527.757812 620.164062 528.273438 620.164062 L 536.34375 620.164062 C 536.785156 620.164062 537.15625 620.015625 537.484375 619.683594 C 537.816406 619.355469 537.964844 618.984375 537.964844 618.542969 C 537.964844 618.101562 537.816406 617.734375 537.484375 617.402344 C 537.191406 617.070312 536.785156 616.925781 536.34375 616.925781 L 531.738281 616.925781 C 530.261719 616.925781 529.046875 616.410156 527.976562 615.378906 C 526.945312 614.347656 526.429688 613.097656 526.429688 611.625 C 526.429688 610.152344 526.945312 608.9375 527.976562 607.871094 C 529.007812 606.839844 530.261719 606.324219 531.738281 606.324219 L 539.808594 606.324219 C 540.324219 606.324219 540.765625 606.507812 541.136719 606.875 C 541.503906 607.246094 541.6875 607.6875 541.6875 608.164062 C 541.6875 608.679688 541.503906 609.121094 541.136719 609.453125 C 540.765625 609.820312 540.324219 610.003906 539.808594 610.003906 L 531.738281 610.003906 C 531.257812 610.042969 530.890625 610.1875 530.59375 610.519531 Z M 443.433594 609.195312 C 441.257812 609.195312 439.378906 610.042969 438.050781 611.585938 C 436.910156 612.949219 436.28125 614.714844 436.28125 616.628906 C 436.28125 620.273438 438.714844 623.992188 443.394531 623.992188 C 445.535156 623.992188 447.414062 623.144531 448.703125 621.597656 C 449.808594 620.273438 450.433594 618.46875 450.433594 616.59375 C 450.472656 612.914062 448.078125 609.195312 443.433594 609.195312 Z M 446.050781 619.316406 C 445.421875 620.054688 444.539062 620.457031 443.433594 620.457031 C 440.78125 620.457031 439.820312 618.359375 439.820312 616.59375 C 439.820312 615.527344 440.152344 614.53125 440.742188 613.832031 C 441.367188 613.058594 442.289062 612.691406 443.433594 612.691406 C 446.234375 612.691406 446.972656 615.121094 446.972656 616.59375 C 446.972656 617.625 446.640625 618.617188 446.050781 619.316406 Z M 461.382812 611.035156 C 461.382812 611.992188 460.605469 612.800781 459.613281 612.800781 L 455.519531 612.800781 L 455.519531 615.636719 L 458.839844 615.636719 C 459.796875 615.636719 460.605469 616.410156 460.605469 617.402344 C 460.605469 618.398438 459.832031 619.167969 458.839844 619.167969 L 455.519531 619.167969 L 455.519531 621.96875 C 455.519531 622.921875 454.746094 623.734375 453.753906 623.734375 C 452.757812 623.734375 451.984375 622.960938 451.984375 621.96875 L 451.984375 611.109375 C 451.984375 610.152344 452.757812 609.34375 453.753906 609.34375 L 459.613281 609.34375 C 460.605469 609.304688 461.382812 610.078125 461.382812 611.035156 Z M 461.382812 611.035156 " fill-opacity="1" fill-rule="nonzero"/></g></svg>