<svg xmlns="http://www.w3.org/2000/svg" xmlns:xlink="http://www.w3.org/1999/xlink" width="1080" zoomAndPan="magnify" viewBox="0 0 810 809.999993" height="1080" preserveAspectRatio="xMidYMid meet" version="1.0"><defs><clipPath id="ab992cd0bf"><path d="M 300.46875 365 L 538.21875 365 L 538.21875 769.890625 L 300.46875 769.890625 Z M 300.46875 365 " clip-rule="nonzero"/></clipPath></defs><g clip-path="url(#ab992cd0bf)"><path fill="#2e2e2e" d="M 341.167969 742.664062 C 340.832031 742.992188 340.664062 743.390625 340.664062 743.855469 C 340.664062 744.320312 340.832031 744.722656 341.167969 745.058594 C 341.496094 745.386719 341.894531 745.546875 342.363281 745.546875 L 347.203125 745.546875 C 348.734375 745.546875 350.046875 746.09375 351.136719 747.179688 C 352.226562 748.269531 352.769531 749.578125 352.769531 751.109375 C 352.769531 752.640625 352.226562 753.949219 351.136719 755.039062 C 350.046875 756.125 348.734375 756.667969 347.203125 756.667969 L 338.734375 756.667969 C 338.195312 756.667969 337.734375 756.480469 337.359375 756.105469 C 336.980469 755.730469 336.792969 755.269531 336.792969 754.730469 C 336.792969 754.199219 336.980469 753.742188 337.359375 753.367188 C 337.734375 752.992188 338.195312 752.804688 338.734375 752.804688 L 347.203125 752.804688 C 347.671875 752.804688 348.070312 752.640625 348.394531 752.3125 C 348.730469 751.976562 348.902344 751.578125 348.902344 751.109375 C 348.902344 750.644531 348.730469 750.246094 348.394531 749.917969 C 348.070312 749.582031 347.671875 749.414062 347.203125 749.414062 L 342.363281 749.414062 C 340.828125 749.414062 339.519531 748.871094 338.429688 747.78125 C 337.339844 746.703125 336.792969 745.394531 336.792969 743.855469 C 336.792969 742.324219 337.339844 741.015625 338.429688 739.929688 C 339.519531 738.839844 340.828125 738.296875 342.363281 738.296875 L 350.828125 738.296875 C 351.363281 738.296875 351.820312 738.488281 352.207031 738.871094 C 352.582031 739.25 352.769531 739.703125 352.769531 740.234375 C 352.769531 740.765625 352.582031 741.222656 352.207031 741.597656 C 351.820312 741.972656 351.363281 742.160156 350.828125 742.160156 L 342.363281 742.160156 C 341.894531 742.160156 341.496094 742.328125 341.167969 742.664062 Z M 370.703125 738.296875 L 358.609375 738.296875 C 358.066406 738.296875 357.609375 738.488281 357.230469 738.871094 C 356.855469 739.25 356.667969 739.703125 356.667969 740.234375 C 356.667969 740.765625 356.855469 741.222656 357.230469 741.597656 C 357.609375 741.972656 358.066406 742.160156 358.609375 742.160156 L 362.714844 742.160156 L 362.714844 754.730469 C 362.714844 755.269531 362.902344 755.730469 363.277344 756.105469 C 363.664062 756.480469 364.121094 756.667969 364.65625 756.667969 C 365.1875 756.667969 365.644531 756.480469 366.019531 756.105469 C 366.398438 755.726562 366.585938 755.269531 366.585938 754.730469 L 366.585938 742.160156 L 370.703125 742.160156 C 371.234375 742.160156 371.695312 741.972656 372.078125 741.597656 C 372.457031 741.21875 372.644531 740.765625 372.644531 740.234375 C 372.644531 739.703125 372.457031 739.246094 372.078125 738.871094 C 371.695312 738.488281 371.234375 738.296875 370.703125 738.296875 Z M 390.34375 750.777344 L 392.9375 753.367188 C 393.3125 753.742188 393.5 754.199219 393.5 754.730469 C 393.5 755.269531 393.3125 755.726562 392.9375 756.105469 C 392.550781 756.480469 392.09375 756.667969 391.5625 756.667969 C 391.027344 756.667969 390.574219 756.480469 390.195312 756.105469 L 385.917969 751.832031 L 381.398438 751.832031 L 381.398438 754.730469 C 381.398438 755.269531 381.207031 755.726562 380.832031 756.101562 C 380.453125 756.480469 380 756.667969 379.46875 756.667969 C 378.925781 756.667969 378.46875 756.480469 378.089844 756.101562 C 377.714844 755.726562 377.523438 755.269531 377.523438 754.730469 L 377.523438 740.234375 C 377.523438 739.703125 377.714844 739.246094 378.089844 738.871094 C 378.46875 738.488281 378.925781 738.292969 379.46875 738.292969 L 386.71875 738.292969 C 388.585938 738.292969 390.183594 738.957031 391.511719 740.28125 C 392.839844 741.609375 393.503906 743.203125 393.503906 745.070312 C 393.503906 746.246094 393.210938 747.347656 392.628906 748.371094 C 392.074219 749.363281 391.308594 750.164062 390.34375 750.777344 Z M 389.632812 745.070312 C 389.632812 744.269531 389.34375 743.585938 388.769531 743.019531 C 388.203125 742.449219 387.519531 742.160156 386.71875 742.160156 L 381.394531 742.160156 L 381.394531 747.96875 L 386.71875 747.96875 C 387.519531 747.96875 388.203125 747.683594 388.769531 747.121094 C 389.34375 746.546875 389.632812 745.863281 389.632812 745.070312 Z M 412.894531 742.160156 C 413.429688 742.160156 413.886719 741.972656 414.273438 741.597656 C 414.648438 741.21875 414.839844 740.765625 414.839844 740.234375 C 414.839844 739.703125 414.648438 739.246094 414.273438 738.871094 C 413.886719 738.488281 413.429688 738.296875 412.894531 738.296875 L 400.800781 738.296875 C 400.261719 738.296875 399.800781 738.488281 399.425781 738.871094 C 399.046875 739.25 398.859375 739.703125 398.859375 740.234375 L 398.859375 754.730469 C 398.859375 755.269531 399.046875 755.730469 399.425781 756.105469 C 399.800781 756.480469 400.261719 756.667969 400.800781 756.667969 L 412.894531 756.667969 C 413.429688 756.667969 413.886719 756.480469 414.273438 756.105469 C 414.648438 755.726562 414.839844 755.269531 414.839844 754.730469 C 414.839844 754.199219 414.648438 753.742188 414.273438 753.367188 C 413.886719 752.992188 413.429688 752.804688 412.894531 752.804688 L 402.730469 752.804688 L 402.730469 749.414062 L 410.472656 749.414062 C 411.007812 749.414062 411.464844 749.226562 411.851562 748.851562 C 412.226562 748.472656 412.417969 748.019531 412.417969 747.488281 C 412.417969 746.949219 412.226562 746.492188 411.851562 746.113281 C 411.464844 745.738281 411.007812 745.546875 410.472656 745.546875 L 402.730469 745.546875 L 402.730469 742.160156 Z M 434.230469 738.296875 C 433.699219 738.296875 433.246094 738.488281 432.867188 738.871094 C 432.492188 739.25 432.300781 739.703125 432.300781 740.234375 L 432.300781 749.390625 L 423.625 738.996094 C 423.363281 738.683594 423.035156 738.476562 422.640625 738.371094 C 422.25 738.261719 421.859375 738.277344 421.476562 738.417969 C 421.089844 738.554688 420.78125 738.789062 420.550781 739.117188 C 420.316406 739.453125 420.195312 739.824219 420.195312 740.234375 L 420.195312 754.730469 C 420.195312 755.269531 420.382812 755.730469 420.761719 756.105469 C 421.140625 756.480469 421.597656 756.667969 422.136719 756.667969 C 422.671875 756.667969 423.125 756.480469 423.503906 756.105469 C 423.878906 755.730469 424.066406 755.269531 424.066406 754.730469 L 424.066406 745.574219 L 432.746094 755.96875 C 433.128906 756.433594 433.625 756.667969 434.230469 756.667969 C 434.460938 756.667969 434.683594 756.632812 434.894531 756.558594 C 435.28125 756.417969 435.585938 756.183594 435.816406 755.847656 C 436.054688 755.511719 436.175781 755.136719 436.175781 754.730469 L 436.175781 740.234375 C 436.175781 739.703125 435.984375 739.246094 435.609375 738.871094 C 435.222656 738.488281 434.765625 738.296875 434.230469 738.296875 Z M 457.914062 745.546875 L 450.726562 745.546875 C 450.191406 745.546875 449.738281 745.738281 449.363281 746.113281 C 448.984375 746.5 448.796875 746.957031 448.796875 747.488281 C 448.796875 748.019531 448.984375 748.476562 449.363281 748.851562 C 449.738281 749.226562 450.195312 749.414062 450.726562 749.414062 L 455.691406 749.414062 C 455.296875 750.421875 454.65625 751.234375 453.761719 751.859375 C 452.851562 752.488281 451.839844 752.804688 450.726562 752.804688 C 449.257812 752.804688 448.003906 752.285156 446.964844 751.242188 C 445.925781 750.207031 445.40625 748.953125 445.40625 747.488281 C 445.40625 746.023438 445.925781 744.773438 446.964844 743.734375 C 448.003906 742.6875 449.257812 742.160156 450.726562 742.160156 C 452.199219 742.160156 453.457031 742.679688 454.5 743.71875 C 454.875 744.105469 455.332031 744.292969 455.863281 744.285156 C 456.402344 744.285156 456.863281 744.097656 457.242188 743.71875 C 457.617188 743.34375 457.804688 742.890625 457.804688 742.359375 C 457.804688 741.816406 457.613281 741.359375 457.226562 740.984375 C 455.433594 739.191406 453.265625 738.296875 450.726562 738.296875 C 448.195312 738.296875 446.027344 739.195312 444.222656 740.996094 C 442.429688 742.789062 441.53125 744.953125 441.53125 747.488281 C 441.53125 750.015625 442.429688 752.179688 444.222656 753.980469 C 446.027344 755.773438 448.195312 756.671875 450.726562 756.671875 C 453.265625 756.671875 455.433594 755.773438 457.226562 753.980469 C 459.03125 752.179688 459.929688 750.015625 459.929688 747.488281 L 459.929688 747.476562 C 459.929688 746.9375 459.730469 746.476562 459.332031 746.089844 C 458.9375 745.710938 458.464844 745.53125 457.914062 745.546875 Z M 477.863281 738.296875 L 465.769531 738.296875 C 465.226562 738.296875 464.769531 738.488281 464.394531 738.871094 C 464.015625 739.25 463.828125 739.703125 463.828125 740.234375 C 463.828125 740.765625 464.015625 741.222656 464.394531 741.597656 C 464.769531 741.972656 465.226562 742.160156 465.769531 742.160156 L 469.875 742.160156 L 469.875 754.730469 C 469.875 755.269531 470.0625 755.730469 470.441406 756.105469 C 470.824219 756.480469 471.285156 756.667969 471.816406 756.667969 C 472.347656 756.667969 472.804688 756.480469 473.179688 756.105469 C 473.558594 755.726562 473.746094 755.269531 473.746094 754.730469 L 473.746094 742.160156 L 477.863281 742.160156 C 478.394531 742.160156 478.855469 741.972656 479.242188 741.597656 C 479.617188 741.21875 479.804688 740.765625 479.804688 740.234375 C 479.804688 739.703125 479.617188 739.246094 479.242188 738.871094 C 478.855469 738.488281 478.394531 738.296875 477.863281 738.296875 Z M 498.722656 738.296875 C 498.1875 738.296875 497.734375 738.488281 497.355469 738.871094 C 496.980469 739.25 496.792969 739.703125 496.792969 740.234375 L 496.792969 745.546875 L 488.554688 745.546875 L 488.554688 740.234375 C 488.554688 739.703125 488.367188 739.246094 487.992188 738.871094 C 487.613281 738.488281 487.160156 738.296875 486.628906 738.296875 C 486.085938 738.296875 485.625 738.488281 485.25 738.871094 C 484.875 739.25 484.683594 739.703125 484.683594 740.234375 L 484.683594 754.730469 C 484.683594 755.269531 484.875 755.730469 485.25 756.105469 C 485.628906 756.480469 486.085938 756.667969 486.628906 756.667969 C 487.160156 756.667969 487.613281 756.480469 487.992188 756.105469 C 488.367188 755.726562 488.554688 755.269531 488.554688 754.730469 L 488.554688 749.414062 L 496.792969 749.414062 L 496.792969 754.730469 C 496.792969 755.269531 496.980469 755.730469 497.355469 756.105469 C 497.734375 756.480469 498.1875 756.667969 498.722656 756.667969 C 499.253906 756.667969 499.710938 756.480469 500.097656 756.105469 C 500.472656 755.726562 500.664062 755.269531 500.664062 754.730469 L 500.664062 740.234375 C 500.664062 739.703125 500.472656 739.246094 500.097656 738.871094 C 499.710938 738.488281 499.253906 738.296875 498.722656 738.296875 Z M 528.828125 567.390625 L 528.84375 724.929688 C 528.84375 726.585938 527.402344 728.027344 525.746094 728.027344 L 312.8125 728.027344 C 311.171875 728.027344 309.847656 726.714844 309.816406 725.082031 L 309.816406 378.632812 C 309.816406 377.496094 310.257812 376.425781 311.0625 375.625 C 311.867188 374.820312 312.9375 374.378906 314.078125 374.378906 L 524.566406 374.378906 C 525.707031 374.378906 526.777344 374.820312 527.582031 375.625 C 528.386719 376.425781 528.828125 377.496094 528.828125 378.632812 Z M 525.324219 724.519531 L 525.308594 567.390625 L 525.308594 378.632812 C 525.308594 378.425781 525.234375 378.25 525.089844 378.101562 C 524.945312 377.957031 524.765625 377.882812 524.558594 377.882812 L 314.082031 377.882812 C 313.878906 377.882812 313.699219 377.957031 313.554688 378.101562 C 313.410156 378.25 313.335938 378.425781 313.335938 378.632812 L 313.335938 724.519531 Z M 538.191406 378.632812 L 538.191406 756.148438 C 538.191406 759.78125 536.773438 763.199219 534.203125 765.769531 C 531.628906 768.339844 528.207031 769.753906 524.566406 769.753906 L 314.082031 769.753906 C 310.445312 769.753906 307.023438 768.339844 304.449219 765.769531 C 301.875 763.199219 300.457031 759.78125 300.457031 756.148438 L 300.457031 378.632812 C 300.457031 374.996094 301.875 371.582031 304.449219 369.011719 C 307.023438 366.441406 310.445312 365.027344 314.082031 365.027344 L 524.566406 365.027344 C 528.207031 365.027344 531.628906 366.441406 534.203125 369.011719 C 536.773438 371.582031 538.191406 374.996094 538.191406 378.632812 Z M 534.679688 378.632812 C 534.679688 375.84375 533.550781 373.320312 531.71875 371.492188 C 529.890625 369.664062 527.359375 368.53125 524.566406 368.53125 L 314.082031 368.53125 C 311.289062 368.53125 308.761719 369.664062 306.933594 371.492188 C 305.101562 373.320312 303.96875 375.84375 303.96875 378.632812 L 303.96875 756.148438 C 303.96875 758.9375 305.101562 761.460938 306.933594 763.289062 C 308.761719 765.117188 311.289062 766.246094 314.082031 766.246094 L 524.566406 766.246094 C 527.359375 766.246094 529.890625 765.117188 531.71875 763.289062 C 533.550781 761.460938 534.679688 758.9375 534.679688 756.148438 Z M 401.054688 405.078125 C 401.214844 405.40625 401.453125 405.664062 401.765625 405.851562 C 402.078125 406.046875 402.417969 406.144531 402.785156 406.144531 C 403.152344 406.144531 403.496094 406.046875 403.804688 405.851562 C 404.117188 405.664062 404.355469 405.40625 404.519531 405.078125 L 411.769531 390.570312 C 412.015625 390.097656 412.050781 389.605469 411.878906 389.097656 C 411.710938 388.589844 411.382812 388.21875 410.910156 387.980469 C 410.433594 387.742188 409.941406 387.707031 409.433594 387.871094 C 408.925781 388.042969 408.554688 388.367188 408.316406 388.839844 L 402.785156 399.886719 L 397.253906 388.863281 C 397.019531 388.382812 396.644531 388.058594 396.136719 387.894531 C 395.628906 387.722656 395.132812 387.753906 394.652344 387.992188 C 394.175781 388.230469 393.855469 388.601562 393.691406 389.109375 C 393.519531 389.617188 393.550781 390.113281 393.789062 390.59375 Z M 418.800781 406.144531 C 419.332031 406.144531 419.785156 405.957031 420.164062 405.582031 C 420.539062 405.207031 420.730469 404.746094 420.730469 404.207031 L 420.730469 389.710938 C 420.730469 389.179688 420.539062 388.726562 420.164062 388.347656 C 419.785156 387.964844 419.332031 387.773438 418.800781 387.773438 C 418.257812 387.773438 417.800781 387.964844 417.421875 388.347656 C 417.046875 388.726562 416.855469 389.179688 416.855469 389.710938 L 416.855469 404.207031 C 416.855469 404.746094 417.046875 405.207031 417.421875 405.582031 C 417.800781 405.957031 418.257812 406.144531 418.800781 406.144531 Z M 429.011719 406.144531 C 429.546875 406.144531 430 405.957031 430.378906 405.582031 C 430.753906 405.207031 430.941406 404.746094 430.941406 404.207031 L 430.941406 389.710938 C 430.941406 389.179688 430.753906 388.726562 430.378906 388.347656 C 430 387.964844 429.546875 387.773438 429.011719 387.773438 C 428.472656 387.773438 428.015625 387.964844 427.636719 388.347656 C 427.257812 388.726562 427.070312 389.179688 427.070312 389.710938 L 427.070312 404.207031 C 427.070312 404.746094 427.257812 405.207031 427.636719 405.582031 C 428.015625 405.957031 428.472656 406.144531 429.011719 406.144531 Z M 439.226562 406.144531 C 439.757812 406.144531 440.214844 405.957031 440.589844 405.582031 C 440.964844 405.207031 441.15625 404.746094 441.15625 404.207031 L 441.15625 389.710938 C 441.15625 389.179688 440.96875 388.726562 440.589844 388.347656 C 440.210938 387.964844 439.757812 387.773438 439.226562 387.773438 C 438.6875 387.773438 438.226562 387.964844 437.847656 388.347656 C 437.472656 388.726562 437.285156 389.179688 437.285156 389.710938 L 437.285156 404.207031 C 437.285156 404.746094 437.472656 405.207031 437.847656 405.582031 C 438.226562 405.957031 438.6875 406.144531 439.226562 406.144531 Z M 501.984375 485.339844 C 504.054688 485.339844 505.738281 487.019531 505.738281 489.089844 C 505.738281 489.980469 506.464844 490.707031 507.359375 490.707031 C 508.253906 490.707031 508.980469 489.980469 508.980469 489.089844 C 508.980469 487.019531 510.664062 485.339844 512.734375 485.339844 C 513.628906 485.339844 514.351562 484.617188 514.351562 483.722656 C 514.351562 482.828125 513.628906 482.105469 512.734375 482.105469 C 510.664062 482.105469 508.980469 480.421875 508.980469 478.355469 C 508.980469 477.460938 508.253906 476.738281 507.359375 476.738281 C 506.464844 476.738281 505.738281 477.460938 505.738281 478.355469 C 505.738281 480.421875 504.054688 482.105469 501.984375 482.105469 C 501.089844 482.105469 500.367188 482.828125 500.367188 483.722656 C 500.367188 484.617188 501.089844 485.339844 501.984375 485.339844 Z M 500.683594 524.046875 C 502.753906 524.046875 504.4375 525.726562 504.4375 527.792969 C 504.4375 528.6875 505.164062 529.410156 506.058594 529.410156 C 506.953125 529.410156 507.675781 528.6875 507.675781 527.792969 C 507.675781 525.726562 509.359375 524.046875 511.429688 524.046875 C 512.324219 524.046875 513.050781 523.320312 513.050781 522.425781 C 513.050781 521.535156 512.324219 520.808594 511.429688 520.808594 C 509.359375 520.808594 507.675781 519.128906 507.675781 517.0625 C 507.675781 516.167969 506.953125 515.445312 506.058594 515.445312 C 505.164062 515.445312 504.4375 516.167969 504.4375 517.0625 C 504.4375 519.128906 502.753906 520.808594 500.683594 520.808594 C 499.789062 520.808594 499.0625 521.535156 499.0625 522.425781 C 499.0625 523.320312 499.789062 524.046875 500.683594 524.046875 Z M 339.054688 525.734375 C 339.949219 525.734375 340.675781 525.011719 340.675781 524.117188 C 340.675781 522.050781 342.359375 520.367188 344.429688 520.367188 C 345.324219 520.367188 346.050781 519.644531 346.050781 518.75 C 346.050781 517.859375 345.324219 517.132812 344.429688 517.132812 C 342.359375 517.132812 340.675781 515.453125 340.675781 513.386719 C 340.675781 512.492188 339.949219 511.765625 339.054688 511.765625 C 338.160156 511.765625 337.4375 512.492188 337.4375 513.386719 C 337.4375 515.453125 335.75 517.132812 333.683594 517.132812 C 332.789062 517.132812 332.0625 517.859375 332.0625 518.75 C 332.0625 519.644531 332.789062 520.367188 333.683594 520.367188 C 335.75 520.367188 337.4375 522.050781 337.4375 524.117188 C 337.433594 525.011719 338.160156 525.734375 339.054688 525.734375 Z M 336.238281 556.566406 C 334.167969 556.566406 332.484375 554.886719 332.484375 552.820312 C 332.484375 551.925781 331.757812 551.203125 330.863281 551.203125 C 329.96875 551.203125 329.242188 551.925781 329.242188 552.820312 C 329.242188 554.886719 327.558594 556.566406 325.488281 556.566406 C 324.59375 556.566406 323.871094 557.292969 323.871094 558.1875 C 323.871094 559.078125 324.59375 559.804688 325.488281 559.804688 C 327.558594 559.804688 329.242188 561.484375 329.242188 563.550781 C 329.242188 564.445312 329.96875 565.171875 330.863281 565.171875 C 331.757812 565.171875 332.484375 564.445312 332.484375 563.550781 C 332.484375 561.484375 334.167969 559.804688 336.238281 559.804688 C 337.132812 559.804688 337.855469 559.078125 337.855469 558.1875 C 337.855469 557.292969 337.132812 556.566406 336.238281 556.566406 Z M 509.875 552.820312 C 509.875 551.925781 509.152344 551.203125 508.257812 551.203125 C 507.363281 551.203125 506.636719 551.925781 506.636719 552.820312 C 506.636719 554.886719 504.953125 556.566406 502.882812 556.566406 C 501.988281 556.566406 501.261719 557.292969 501.261719 558.1875 C 501.261719 559.078125 501.988281 559.804688 502.882812 559.804688 C 504.953125 559.804688 506.636719 561.484375 506.636719 563.550781 C 506.636719 564.445312 507.363281 565.171875 508.257812 565.171875 C 509.152344 565.171875 509.875 564.445312 509.875 563.550781 C 509.875 561.484375 511.558594 559.804688 513.628906 559.804688 C 514.523438 559.804688 515.25 559.078125 515.25 558.1875 C 515.25 557.292969 514.523438 556.566406 513.628906 556.566406 C 511.558594 556.566406 509.875 554.886719 509.875 552.820312 Z M 339.484375 699.722656 C 337.414062 699.722656 335.730469 698.042969 335.730469 695.976562 C 335.730469 695.082031 335.003906 694.359375 334.109375 694.359375 C 333.214844 694.359375 332.492188 695.082031 332.492188 695.976562 C 332.492188 698.042969 330.808594 699.722656 328.738281 699.722656 C 327.84375 699.722656 327.117188 700.449219 327.117188 701.34375 C 327.117188 702.234375 327.84375 702.960938 328.738281 702.960938 C 330.808594 702.960938 332.492188 704.640625 332.492188 706.707031 C 332.492188 707.601562 333.21875 708.328125 334.109375 708.328125 C 335.007812 708.328125 335.730469 707.601562 335.730469 706.707031 C 335.730469 704.640625 337.414062 702.960938 339.484375 702.960938 C 340.378906 702.960938 341.105469 702.234375 341.105469 701.34375 C 341.105469 700.449219 340.378906 699.722656 339.484375 699.722656 Z M 328.738281 662.695312 C 328.738281 660.628906 330.421875 658.945312 332.492188 658.945312 C 333.386719 658.945312 334.109375 658.222656 334.109375 657.328125 C 334.109375 656.433594 333.386719 655.710938 332.492188 655.710938 C 330.421875 655.710938 328.738281 654.027344 328.738281 651.960938 C 328.738281 651.070312 328.011719 650.34375 327.117188 650.34375 C 326.222656 650.34375 325.496094 651.070312 325.496094 651.960938 C 325.496094 654.027344 323.8125 655.710938 321.742188 655.710938 C 320.847656 655.710938 320.125 656.433594 320.125 657.328125 C 320.125 658.222656 320.851562 658.945312 321.742188 658.945312 C 323.8125 658.945312 325.496094 660.628906 325.496094 662.695312 C 325.496094 663.585938 326.222656 664.3125 327.117188 664.3125 C 328.011719 664.3125 328.738281 663.585938 328.738281 662.695312 Z M 518.6875 655.710938 C 516.617188 655.710938 514.933594 654.027344 514.933594 651.960938 C 514.933594 651.066406 514.207031 650.34375 513.3125 650.34375 C 512.417969 650.34375 511.691406 651.066406 511.691406 651.960938 C 511.691406 654.027344 510.007812 655.710938 507.9375 655.710938 C 507.042969 655.710938 506.320312 656.433594 506.320312 657.328125 C 506.320312 658.222656 507.042969 658.945312 507.9375 658.945312 C 510.007812 658.945312 511.691406 660.628906 511.691406 662.695312 C 511.691406 663.585938 512.417969 664.3125 513.3125 664.3125 C 514.207031 664.3125 514.933594 663.585938 514.933594 662.695312 C 514.933594 660.628906 516.617188 658.945312 518.6875 658.945312 C 519.582031 658.945312 520.304688 658.222656 520.304688 657.328125 C 520.304688 656.433594 519.582031 655.710938 518.6875 655.710938 Z M 511.691406 699.722656 C 509.621094 699.722656 507.9375 698.042969 507.9375 695.976562 C 507.9375 695.082031 507.214844 694.359375 506.320312 694.359375 C 505.425781 694.359375 504.699219 695.082031 504.699219 695.976562 C 504.699219 698.042969 503.015625 699.722656 500.945312 699.722656 C 500.050781 699.722656 499.324219 700.449219 499.324219 701.34375 C 499.324219 702.234375 500.050781 702.960938 500.945312 702.960938 C 503.015625 702.960938 504.699219 704.640625 504.699219 706.707031 C 504.699219 707.601562 505.425781 708.328125 506.320312 708.328125 C 507.214844 708.328125 507.9375 707.601562 507.9375 706.707031 C 507.9375 704.640625 509.621094 702.960938 511.691406 702.960938 C 512.585938 702.960938 513.3125 702.234375 513.3125 701.34375 C 513.3125 700.449219 512.585938 699.722656 511.691406 699.722656 Z M 503.476562 431.65625 C 505.546875 431.65625 507.230469 433.335938 507.230469 435.402344 C 507.230469 436.296875 507.957031 437.023438 508.851562 437.023438 C 509.746094 437.023438 510.46875 436.296875 510.46875 435.402344 C 510.46875 433.335938 512.152344 431.65625 514.222656 431.65625 C 515.117188 431.65625 515.84375 430.929688 515.84375 430.039062 C 515.84375 429.144531 515.117188 428.417969 514.222656 428.417969 C 512.152344 428.417969 510.46875 426.738281 510.46875 424.671875 C 510.46875 423.777344 509.746094 423.054688 508.851562 423.054688 C 507.957031 423.054688 507.230469 423.777344 507.230469 424.671875 C 507.230469 426.738281 505.546875 428.417969 503.476562 428.417969 C 502.582031 428.417969 501.855469 429.144531 501.855469 430.039062 C 501.855469 430.929688 502.582031 431.65625 503.476562 431.65625 Z M 327.957031 431.65625 C 330.027344 431.65625 331.710938 433.335938 331.710938 435.402344 C 331.710938 436.296875 332.4375 437.023438 333.332031 437.023438 C 334.226562 437.023438 334.949219 436.296875 334.949219 435.402344 C 334.949219 433.335938 336.632812 431.65625 338.703125 431.65625 C 339.597656 431.65625 340.324219 430.929688 340.324219 430.039062 C 340.324219 429.144531 339.597656 428.417969 338.703125 428.417969 C 336.632812 428.417969 334.949219 426.738281 334.949219 424.671875 C 334.949219 423.777344 334.226562 423.054688 333.332031 423.054688 C 332.4375 423.054688 331.710938 423.777344 331.710938 424.671875 C 331.710938 426.738281 330.027344 428.417969 327.957031 428.417969 C 327.0625 428.417969 326.335938 429.144531 326.335938 430.039062 C 326.335938 430.929688 327.0625 431.65625 327.957031 431.65625 Z M 355.402344 448.96875 C 357.472656 448.96875 359.15625 450.648438 359.15625 452.714844 C 359.15625 453.609375 359.878906 454.335938 360.773438 454.335938 C 361.667969 454.335938 362.394531 453.609375 362.394531 452.714844 C 362.394531 450.648438 364.078125 448.96875 366.148438 448.96875 C 367.042969 448.96875 367.769531 448.242188 367.769531 447.351562 C 367.769531 446.457031 367.042969 445.730469 366.148438 445.730469 C 364.078125 445.730469 362.394531 444.050781 362.394531 441.984375 C 362.394531 441.089844 361.667969 440.367188 360.773438 440.367188 C 359.878906 440.367188 359.15625 441.089844 359.15625 441.984375 C 359.15625 444.050781 357.472656 445.730469 355.402344 445.730469 C 354.507812 445.730469 353.78125 446.457031 353.78125 447.351562 C 353.78125 448.242188 354.507812 448.96875 355.402344 448.96875 Z M 473.625 448.96875 C 475.695312 448.96875 477.378906 450.648438 477.378906 452.714844 C 477.378906 453.609375 478.105469 454.335938 478.996094 454.335938 C 479.894531 454.335938 480.617188 453.609375 480.617188 452.714844 C 480.617188 450.648438 482.300781 448.96875 484.371094 448.96875 C 485.265625 448.96875 485.992188 448.242188 485.992188 447.351562 C 485.992188 446.457031 485.265625 445.730469 484.371094 445.730469 C 482.300781 445.730469 480.617188 444.050781 480.617188 441.984375 C 480.617188 441.089844 479.890625 440.367188 478.996094 440.367188 C 478.101562 440.367188 477.378906 441.089844 477.378906 441.984375 C 477.378906 444.050781 475.695312 445.730469 473.625 445.730469 C 472.730469 445.730469 472.003906 446.457031 472.003906 447.351562 C 472.003906 448.242188 472.730469 448.96875 473.625 448.96875 Z M 340.882812 403.757812 C 342.949219 403.757812 344.636719 405.441406 344.636719 407.507812 C 344.636719 408.398438 345.359375 409.125 346.253906 409.125 C 347.148438 409.125 347.875 408.398438 347.875 407.507812 C 347.875 405.441406 349.558594 403.757812 351.628906 403.757812 C 352.523438 403.757812 353.25 403.035156 353.25 402.140625 C 353.25 401.246094 352.523438 400.523438 351.628906 400.523438 C 349.558594 400.523438 347.875 398.839844 347.875 396.773438 C 347.875 395.882812 347.148438 395.15625 346.253906 395.15625 C 345.359375 395.15625 344.636719 395.882812 344.636719 396.773438 C 344.636719 398.839844 342.949219 400.523438 340.882812 400.523438 C 339.988281 400.523438 339.261719 401.246094 339.261719 402.140625 C 339.261719 403.035156 339.988281 403.757812 340.882812 403.757812 Z M 487.023438 403.757812 C 489.09375 403.757812 490.777344 405.441406 490.777344 407.507812 C 490.777344 408.398438 491.5 409.125 492.394531 409.125 C 493.289062 409.125 494.015625 408.398438 494.015625 407.507812 C 494.015625 405.441406 495.699219 403.757812 497.769531 403.757812 C 498.664062 403.757812 499.390625 403.035156 499.390625 402.140625 C 499.390625 401.246094 498.664062 400.523438 497.769531 400.523438 C 495.699219 400.523438 494.015625 398.839844 494.015625 396.773438 C 494.015625 395.882812 493.289062 395.15625 492.394531 395.15625 C 491.5 395.15625 490.777344 395.882812 490.777344 396.773438 C 490.777344 398.839844 489.09375 400.523438 487.023438 400.523438 C 486.128906 400.523438 485.402344 401.246094 485.402344 402.140625 C 485.402344 403.035156 486.128906 403.757812 487.023438 403.757812 Z M 325.003906 477.007812 C 327.070312 477.007812 328.757812 478.6875 328.757812 480.753906 C 328.757812 481.648438 329.480469 482.375 330.375 482.375 C 331.269531 482.375 331.996094 481.648438 331.996094 480.753906 C 331.996094 478.6875 333.679688 477.007812 335.75 477.007812 C 336.644531 477.007812 337.371094 476.28125 337.371094 475.390625 C 337.371094 474.496094 336.644531 473.773438 335.75 473.773438 C 333.679688 473.773438 331.996094 472.089844 331.996094 470.023438 C 331.996094 469.128906 331.269531 468.40625 330.375 468.40625 C 329.480469 468.40625 328.757812 469.128906 328.757812 470.023438 C 328.757812 472.089844 327.070312 473.773438 325.003906 473.773438 C 324.109375 473.773438 323.382812 474.496094 323.382812 475.390625 C 323.382812 476.28125 324.109375 477.007812 325.003906 477.007812 Z M 388.90625 425.640625 C 388.90625 421.464844 391.601562 417.925781 396.121094 416.175781 C 402.589844 413.671875 413.074219 414.890625 421.511719 423.140625 C 429.953125 414.890625 440.441406 413.671875 446.902344 416.175781 C 451.421875 417.925781 454.117188 421.464844 454.117188 425.640625 C 454.117188 429.820312 451.421875 433.359375 446.902344 435.109375 C 444.976562 435.855469 442.695312 436.273438 440.21875 436.273438 C 434.375 436.273438 427.4375 433.949219 421.511719 428.160156 C 415.585938 433.949219 408.648438 436.273438 402.804688 436.273438 C 400.328125 436.273438 398.046875 435.855469 396.121094 435.109375 C 391.605469 433.359375 388.90625 429.820312 388.90625 425.640625 Z M 423.964844 425.640625 C 431.289062 432.804688 440.203125 433.945312 445.632812 431.839844 C 448.792969 430.617188 450.605469 428.355469 450.605469 425.640625 C 450.605469 422.925781 448.792969 420.667969 445.632812 419.445312 C 440.195312 417.339844 431.292969 418.476562 423.964844 425.640625 Z M 392.417969 425.640625 C 392.417969 428.355469 394.230469 430.617188 397.390625 431.839844 C 402.820312 433.941406 411.730469 432.808594 419.058594 425.640625 C 411.730469 418.476562 402.820312 417.339844 397.390625 419.445312 C 394.230469 420.667969 392.417969 422.925781 392.417969 425.640625 Z M 504.6875 598.855469 C 503.328125 612.660156 497.292969 649.941406 490.101562 675.09375 C 488.089844 682.121094 474.425781 689.042969 466.234375 692.199219 C 465.46875 693.414062 464.535156 694.621094 463.363281 695.785156 C 456.648438 702.472656 448.664062 701.960938 444.753906 701.164062 C 444.582031 704.238281 443.675781 709.625 439.730469 713.929688 C 435.929688 718.082031 430.285156 720.1875 422.953125 720.1875 C 415.648438 720.1875 410.011719 718.085938 406.210938 713.945312 C 402.253906 709.636719 401.335938 704.238281 401.15625 701.160156 C 397.25 701.957031 389.261719 702.472656 382.542969 695.785156 C 381.597656 694.847656 380.808594 693.878906 380.128906 692.90625 C 371.828125 689.710938 356.480469 682.171875 354.457031 675.09375 C 347.261719 649.929688 341.226562 612.65625 339.871094 598.855469 C 337.558594 575.375 347.429688 566.703125 348.5625 565.796875 C 353.433594 561.199219 359.386719 558.996094 365.769531 558.0625 C 360.542969 552.261719 361.652344 544.671875 363.601562 540.070312 C 361.21875 538.566406 357.171875 534.925781 357.171875 527.597656 C 357.171875 520.367188 361.394531 516.128906 364.132812 514.136719 C 361.621094 511.628906 358.132812 506.316406 361.007812 497.664062 C 363.027344 491.597656 366.914062 488.980469 369.453125 487.882812 C 367.945312 485.011719 366.066406 479.449219 369.183594 472.914062 C 372.585938 465.78125 379.027344 463.769531 382.042969 463.210938 C 382.390625 459.890625 384.492188 452.398438 395.824219 445.832031 C 408.101562 438.714844 421.402344 439.640625 421.402344 439.640625 C 421.402344 439.640625 434.707031 438.714844 446.976562 445.832031 C 458.3125 452.398438 460.414062 459.890625 460.757812 463.210938 C 463.773438 463.769531 470.214844 465.78125 473.621094 472.914062 C 476.738281 479.449219 474.859375 485.011719 473.351562 487.882812 C 475.890625 488.980469 479.777344 491.597656 481.792969 497.664062 C 484.671875 506.316406 481.183594 511.628906 478.667969 514.136719 C 481.40625 516.128906 485.628906 520.367188 485.628906 527.597656 C 485.628906 534.925781 481.585938 538.5625 479.203125 540.070312 C 481.128906 544.617188 482.230469 552.085938 477.210938 557.859375 C 484.191406 558.648438 490.726562 560.820312 495.996094 565.792969 C 497.128906 566.707031 507 575.378906 504.6875 598.855469 Z M 370.46875 557.589844 C 374.316406 557.367188 378.261719 557.488281 382.179688 557.738281 C 387.1875 558.0625 392.042969 556.285156 395.832031 552.738281 C 399.5625 549.246094 401.230469 545.058594 401.230469 542.457031 L 401.230469 529.175781 C 395.738281 523.003906 393.375 516 392.367188 511.441406 C 391.742188 509.199219 391.507812 507.765625 391.507812 507.765625 C 388.792969 504.667969 384.019531 494.019531 390.832031 490.917969 C 407.695312 483.238281 420.710938 464.3125 421.398438 464.476562 C 422.089844 464.3125 436.9375 486.042969 451.96875 490.917969 C 459.226562 493.269531 454.003906 503.636719 451.292969 506.738281 C 450.085938 516.910156 445.882812 524 442.484375 528.226562 L 443.328125 542.457031 C 443.328125 545.058594 444.996094 549.246094 448.722656 552.738281 C 452.511719 556.285156 457.371094 558.0625 462.378906 557.738281 C 465.734375 557.523438 469.113281 557.40625 472.433594 557.515625 C 481.195312 551.058594 475.597656 540.609375 475.351562 540.160156 C 475.105469 539.714844 475.066406 539.1875 475.242188 538.710938 C 475.417969 538.234375 475.792969 537.855469 476.265625 537.675781 C 476.496094 537.585938 482.117188 535.277344 482.117188 527.597656 C 482.117188 519.414062 475.210938 516.070312 474.914062 515.933594 C 474.324219 515.652344 473.929688 515.066406 473.90625 514.414062 C 473.878906 513.757812 474.21875 513.144531 474.789062 512.820312 C 475.0625 512.65625 481.734375 508.609375 478.460938 498.769531 C 476.078125 491.605469 470.632812 490.636719 470.402344 490.597656 C 469.785156 490.496094 469.261719 490.074219 469.039062 489.492188 C 468.8125 488.910156 468.910156 488.253906 469.300781 487.765625 C 469.488281 487.53125 473.949219 481.761719 470.449219 474.421875 C 466.894531 466.976562 459.042969 466.507812 458.960938 466.503906 C 458.480469 466.480469 458.027344 466.257812 457.714844 465.890625 C 457.398438 465.527344 457.25 465.046875 457.304688 464.566406 C 457.332031 464.246094 457.867188 456.195312 445.214844 448.863281 C 432.75 441.640625 410.039062 441.648438 397.585938 448.863281 C 384.773438 456.289062 385.488281 464.484375 385.496094 464.566406 C 385.550781 465.046875 385.398438 465.527344 385.085938 465.890625 C 384.769531 466.257812 384.320312 466.480469 383.835938 466.503906 C 383.519531 466.519531 375.878906 467.03125 372.351562 474.421875 C 368.851562 481.761719 373.3125 487.53125 373.503906 487.773438 C 373.890625 488.265625 373.992188 488.929688 373.761719 489.511719 C 373.527344 490.09375 373.007812 490.507812 372.386719 490.601562 C 372.167969 490.636719 366.722656 491.605469 364.339844 498.769531 C 361.066406 508.609375 367.738281 512.660156 368.019531 512.824219 C 368.585938 513.15625 368.921875 513.773438 368.890625 514.425781 C 368.859375 515.078125 368.472656 515.660156 367.878906 515.9375 C 367.589844 516.070312 360.683594 519.414062 360.683594 527.597656 C 360.683594 535.367188 366.476562 537.65625 366.535156 537.675781 C 367.007812 537.855469 367.382812 538.234375 367.558594 538.710938 C 367.734375 539.1875 367.695312 539.714844 367.449219 540.160156 C 367.203125 540.613281 361.613281 551.164062 370.46875 557.589844 Z M 470.867188 585.410156 C 470.800781 589.21875 467.769531 592.089844 467.640625 592.210938 C 467.621094 592.230469 467.59375 592.238281 467.570312 592.253906 C 468.402344 592.980469 469.199219 593.652344 469.949219 594.269531 C 471.402344 592.574219 474.199219 588.765625 474.183594 584.582031 C 474.171875 581.941406 473.675781 579.203125 471.382812 577.03125 C 464.5625 570.570312 456.433594 575.285156 453.585938 577.4375 C 454.363281 578.476562 455.164062 579.492188 455.980469 580.476562 C 457.09375 579.453125 459.734375 577.363281 462.863281 577.292969 C 464.886719 577.273438 466.761719 578.042969 468.363281 579.648438 C 470.0625 581.359375 470.90625 583.296875 470.867188 585.410156 Z M 465.871094 582.121094 C 464.964844 581.210938 464.03125 580.789062 462.9375 580.800781 C 460.875 580.84375 458.9375 582.507812 458.273438 583.140625 C 460.535156 585.664062 462.84375 587.957031 465.019531 589.964844 C 465.089844 589.859375 465.140625 589.746094 465.238281 589.65625 C 465.289062 589.605469 467.328125 587.628906 467.359375 585.332031 C 467.375 584.191406 466.886719 583.144531 465.871094 582.121094 Z M 415.507812 493.582031 C 414.921875 492.832031 413.851562 492.71875 413.128906 493.324219 C 413.105469 493.347656 410.457031 495.539062 407.632812 495.539062 C 404.746094 495.539062 401.546875 493.292969 401.472656 493.242188 C 400.707031 492.695312 399.652344 492.890625 399.121094 493.6875 C 398.589844 494.484375 398.78125 495.574219 399.550781 496.128906 C 399.714844 496.246094 403.660156 499.042969 407.632812 499.042969 C 411.683594 499.042969 415.125 496.164062 415.269531 496.042969 C 415.992188 495.429688 416.097656 494.332031 415.507812 493.582031 Z M 414.574219 509.148438 C 413.992188 509.921875 414.148438 511.019531 414.921875 511.601562 C 415.59375 512.105469 416.515625 512.054688 417.125 511.523438 C 417.164062 511.515625 417.207031 511.503906 417.253906 511.492188 C 418.191406 511.960938 419.863281 512.691406 421.140625 512.691406 C 422.492188 512.691406 424.160156 511.957031 424.902344 511.597656 C 425.269531 511.933594 425.78125 512.109375 426.308594 512.042969 C 427.269531 511.925781 427.953125 511.046875 427.832031 510.085938 C 427.75 509.421875 427.398438 508.847656 426.847656 508.476562 C 425.832031 507.792969 424.484375 508.046875 423.953125 508.191406 C 423.824219 508.222656 423.703125 508.273438 423.585938 508.332031 C 422.925781 508.679688 421.675781 509.183594 421.140625 509.183594 C 420.664062 509.183594 419.3125 508.628906 418.398438 508.132812 C 418.097656 507.96875 417.753906 507.898438 417.414062 507.925781 C 416.476562 508.003906 415.226562 508.277344 414.574219 509.148438 Z M 410.710938 521.816406 C 411.15625 521.894531 411.679688 521.941406 412.253906 521.964844 C 412.261719 522.003906 412.261719 522.042969 412.269531 522.082031 C 412.726562 524.109375 415.160156 527.945312 421.105469 527.945312 C 427.050781 527.945312 429.476562 524.109375 429.929688 522.078125 C 429.9375 522.042969 429.933594 522.007812 429.941406 521.972656 C 430.121094 521.960938 430.308594 521.953125 430.480469 521.9375 L 430.855469 521.894531 C 431.050781 521.871094 431.242188 521.847656 431.433594 521.8125 C 432.386719 521.636719 433.015625 520.71875 432.839844 519.765625 C 432.660156 518.816406 431.734375 518.191406 430.789062 518.367188 C 430.675781 518.386719 430.558594 518.398438 430.421875 518.414062 L 430.128906 518.445312 C 429.929688 518.46875 429.714844 518.480469 429.496094 518.488281 C 427.09375 515.753906 423.304688 516.082031 421.058594 516.824219 C 417.851562 515.722656 414.421875 516.410156 412.632812 518.464844 C 412.125 518.453125 411.664062 518.421875 411.320312 518.363281 C 410.371094 518.199219 409.453125 518.832031 409.285156 519.785156 C 409.117188 520.738281 409.753906 521.648438 410.710938 521.816406 Z M 434.882812 499.042969 C 438.933594 499.042969 442.375 496.164062 442.519531 496.042969 C 443.242188 495.429688 443.347656 494.332031 442.757812 493.582031 C 442.171875 492.832031 441.101562 492.71875 440.378906 493.324219 C 440.355469 493.347656 437.707031 495.539062 434.882812 495.539062 C 431.996094 495.539062 428.796875 493.292969 428.722656 493.242188 C 427.957031 492.695312 426.902344 492.890625 426.371094 493.6875 C 425.839844 494.484375 426.03125 495.574219 426.800781 496.128906 C 426.964844 496.246094 430.910156 499.042969 434.882812 499.042969 Z M 390.074219 580.296875 C 390.835938 579.371094 391.585938 578.417969 392.316406 577.441406 C 389.460938 575.296875 381.535156 570.265625 374.746094 576.695312 C 372.453125 578.871094 371.730469 581.953125 371.722656 584.601562 C 371.714844 588.800781 374.503906 592.585938 375.957031 594.273438 C 376.757812 593.613281 377.609375 592.890625 378.503906 592.105469 C 377.957031 591.5625 375.449219 588.878906 375.386719 585.410156 C 375.347656 583.296875 376.191406 581.359375 377.890625 579.648438 C 379.492188 578.042969 381.375 577.265625 383.390625 577.296875 C 386.347656 577.359375 388.863281 579.226562 390.074219 580.296875 Z M 383.304688 580.800781 C 383.28125 580.800781 383.257812 580.800781 383.234375 580.800781 C 382.203125 580.800781 381.269531 581.234375 380.382812 582.121094 C 379.363281 583.148438 378.875 584.203125 378.898438 585.347656 C 378.9375 587.652344 380.992188 589.632812 381.011719 589.652344 C 381.050781 589.6875 381.0625 589.734375 381.097656 589.769531 C 383.261719 587.761719 385.550781 585.472656 387.792969 582.964844 C 386.863281 582.125 385.070312 580.832031 383.304688 580.800781 Z M 484.292969 619.480469 C 484.207031 619.277344 484.160156 619.050781 484.15625 618.828125 C 484.011719 602.765625 477.933594 595.171875 475.355469 592.671875 C 474.441406 594.277344 473.445312 595.582031 472.691406 596.464844 C 474.707031 598.023438 475.984375 598.898438 476.027344 598.925781 C 476.828125 599.46875 477.039062 600.5625 476.496094 601.363281 C 476.15625 601.863281 475.601562 602.132812 475.039062 602.132812 C 474.703125 602.132812 474.359375 602.035156 474.058594 601.832031 C 473.46875 601.433594 459.566406 591.949219 449.769531 578.15625 C 449.683594 578.039062 449.621094 577.910156 449.570312 577.78125 C 449.5625 577.757812 449.554688 577.734375 449.546875 577.710938 C 449.480469 577.515625 449.445312 577.316406 449.449219 577.117188 C 449.449219 577.09375 449.453125 577.074219 449.453125 577.054688 C 449.464844 576.851562 449.507812 576.652344 449.585938 576.460938 C 449.59375 576.441406 449.605469 576.425781 449.617188 576.40625 C 449.703125 576.214844 449.824219 576.042969 449.976562 575.890625 C 449.984375 575.882812 449.988281 575.875 449.996094 575.867188 C 450.765625 575.140625 451.742188 574.367188 452.871094 573.640625 C 442.753906 562.5 423.886719 571.023438 423.691406 571.113281 C 423.679688 571.121094 423.664062 571.125 423.648438 571.128906 C 423.585938 571.15625 423.523438 571.175781 423.457031 571.195312 C 423.414062 571.207031 423.371094 571.222656 423.328125 571.234375 C 423.253906 571.25 423.175781 571.257812 423.101562 571.261719 C 423.066406 571.265625 423.03125 571.273438 422.996094 571.273438 C 422.914062 571.273438 422.835938 571.265625 422.757812 571.257812 C 422.722656 571.253906 422.6875 571.253906 422.65625 571.246094 C 422.585938 571.234375 422.519531 571.214844 422.453125 571.195312 C 422.40625 571.179688 422.363281 571.167969 422.316406 571.152344 C 422.300781 571.144531 422.285156 571.144531 422.269531 571.136719 C 422.050781 571.046875 401.371094 562.484375 392.902344 573.554688 C 394.089844 574.308594 395.113281 575.113281 395.914062 575.867188 C 395.917969 575.875 395.921875 575.882812 395.929688 575.890625 C 396.082031 576.042969 396.203125 576.214844 396.292969 576.402344 C 396.300781 576.425781 396.3125 576.441406 396.320312 576.460938 C 396.398438 576.652344 396.441406 576.851562 396.453125 577.054688 C 396.453125 577.074219 396.457031 577.09375 396.457031 577.117188 C 396.460938 577.316406 396.425781 577.515625 396.359375 577.710938 C 396.351562 577.734375 396.347656 577.757812 396.335938 577.777344 C 396.285156 577.910156 396.222656 578.035156 396.140625 578.15625 C 386.339844 591.949219 372.4375 601.433594 371.847656 601.832031 C 371.546875 602.035156 371.207031 602.132812 370.867188 602.132812 C 370.304688 602.132812 369.75 601.863281 369.414062 601.363281 C 368.867188 600.558594 369.078125 599.46875 369.878906 598.925781 C 369.921875 598.898438 371.199219 598.023438 373.214844 596.464844 C 372.445312 595.558594 371.417969 594.214844 370.488281 592.554688 C 367.875 594.753906 361.589844 601.835938 362.242188 618.742188 C 362.25 619.011719 362.199219 619.28125 362.089844 619.527344 C 362.023438 619.675781 355.523438 634.65625 361.875 652.96875 C 368.394531 671.773438 379.242188 673.640625 379.699219 673.710938 C 380.222656 673.792969 380.691406 674.105469 380.957031 674.558594 C 381.222656 675.015625 381.277344 675.570312 381.089844 676.066406 C 380.945312 676.457031 377.566406 685.882812 385.023438 693.300781 C 392.484375 700.726562 401.898438 697.378906 402.296875 697.230469 C 402.863281 697.027344 403.492188 697.121094 403.96875 697.484375 C 404.449219 697.847656 404.707031 698.429688 404.65625 699.027344 C 404.652344 699.097656 404.101562 706.484375 408.820312 711.597656 C 411.933594 714.96875 416.6875 716.679688 422.953125 716.679688 C 429.257812 716.679688 434.03125 714.957031 437.140625 711.5625 C 441.851562 706.417969 441.257812 699.105469 441.25 699.03125 C 441.199219 698.429688 441.457031 697.84375 441.9375 697.480469 C 442.417969 697.117188 443.054688 697.023438 443.617188 697.234375 C 444.011719 697.378906 453.429688 700.726562 460.886719 693.300781 C 468.34375 685.882812 464.964844 676.457031 464.816406 676.0625 C 464.632812 675.5625 464.683594 675.003906 464.953125 674.546875 C 465.226562 674.09375 465.691406 673.78125 466.21875 673.710938 C 466.667969 673.640625 477.511719 671.777344 484.03125 652.972656 C 490.394531 634.628906 484.355469 619.632812 484.292969 619.480469 Z M 412.203125 613.777344 C 412.175781 613.605469 411.390625 609.601562 405.8125 608.074219 C 405.808594 608.074219 405.808594 608.070312 405.808594 608.070312 C 404.386719 607.679688 402.667969 607.484375 400.699219 607.484375 C 396.636719 607.484375 393.007812 609.550781 390.738281 613.152344 C 390.222656 613.972656 390.46875 615.054688 391.292969 615.570312 C 391.582031 615.753906 391.90625 615.839844 392.226562 615.839844 C 392.808594 615.839844 393.378906 615.550781 393.710938 615.019531 C 394.320312 614.054688 395.433594 612.679688 397.167969 611.8125 C 397.128906 612.019531 397.09375 612.230469 397.09375 612.480469 C 397.09375 614.949219 399.097656 616.949219 401.570312 616.949219 C 404.042969 616.949219 406.046875 614.949219 406.046875 612.480469 C 406.046875 612.261719 406.027344 612.046875 405.996094 611.835938 C 408.304688 612.816406 408.722656 614.308594 408.757812 614.433594 C 408.921875 615.261719 409.652344 615.839844 410.472656 615.839844 C 410.578125 615.839844 410.683594 615.828125 410.789062 615.8125 C 411.742188 615.640625 412.375 614.726562 412.203125 613.777344 Z M 432 641.671875 C 434.671875 641.671875 435.886719 643.242188 435.886719 644.699219 C 435.886719 645.636719 435.410156 647.398438 432.214844 648.710938 C 430.84375 649.273438 429.121094 649.679688 427.132812 649.90625 C 425.996094 652 425.101562 654.339844 424.640625 655.917969 C 424.582031 656.09375 424.507812 656.246094 424.414062 656.386719 C 424.394531 656.417969 424.375 656.445312 424.355469 656.472656 C 423.527344 657.570312 421.671875 657.265625 421.277344 655.933594 C 420.804688 654.339844 419.90625 652 418.769531 649.90625 C 416.78125 649.675781 415.0625 649.273438 413.691406 648.710938 C 410.5 647.398438 410.023438 645.636719 410.023438 644.699219 C 410.023438 643.242188 411.238281 641.671875 413.90625 641.671875 C 416.796875 641.671875 419.125 643.917969 420.871094 646.570312 C 421.511719 646.605469 422.207031 646.625 422.953125 646.625 C 423.703125 646.625 424.398438 646.605469 425.039062 646.570312 C 426.78125 643.917969 429.109375 641.671875 432 641.671875 Z M 445.207031 607.484375 C 434.113281 607.484375 433.738281 613.75 433.726562 614.015625 C 433.6875 614.984375 434.441406 615.832031 435.40625 615.867188 C 435.433594 615.867188 435.457031 615.871094 435.480469 615.871094 C 436.417969 615.871094 437.195312 615.160156 437.230469 614.214844 C 437.308594 613.539062 438.027344 612.496094 439.917969 611.777344 C 439.882812 612.007812 439.863281 612.242188 439.863281 612.480469 C 439.863281 614.949219 441.867188 616.949219 444.335938 616.949219 C 446.808594 616.949219 448.8125 614.949219 448.8125 612.480469 C 448.8125 612.230469 448.78125 612.019531 448.738281 611.8125 C 450.472656 612.679688 451.589844 614.054688 452.195312 615.019531 C 452.710938 615.839844 453.796875 616.085938 454.617188 615.570312 C 455.4375 615.054688 455.683594 613.972656 455.167969 613.152344 C 452.898438 609.550781 449.269531 607.484375 445.207031 607.484375 Z M 469.535156 608.726562 C 469.242188 609.371094 468.601562 609.75 467.9375 609.75 C 467.691406 609.75 467.445312 609.703125 467.210938 609.59375 C 466.355469 609.203125 465.535156 608.804688 464.730469 608.394531 C 465.304688 611.871094 465.597656 617.539062 465.597656 625.363281 C 465.597656 642.085938 452.027344 651.101562 448.324219 653.25 C 447.964844 658.195312 445.117188 662.460938 441.007812 664.851562 C 441.015625 664.933594 441.019531 665.015625 441.015625 665.101562 C 440.984375 665.519531 440.144531 675.417969 433.878906 679.128906 C 432.328125 680.046875 430.613281 680.503906 428.746094 680.503906 C 426.957031 680.503906 425.015625 680.058594 422.953125 679.21875 C 420.894531 680.058594 418.953125 680.503906 417.164062 680.503906 C 415.292969 680.503906 413.578125 680.046875 412.03125 679.128906 C 405.761719 675.417969 404.925781 665.519531 404.894531 665.101562 C 404.886719 665.015625 404.894531 664.933594 404.898438 664.851562 C 400.789062 662.460938 397.945312 658.195312 397.582031 653.25 C 393.878906 651.101562 380.3125 642.085938 380.3125 625.363281 C 380.3125 616.808594 381.046875 611.414062 381.886719 608.035156 C 380.867188 608.570312 379.804688 609.089844 378.699219 609.59375 C 378.464844 609.703125 378.214844 609.75 377.972656 609.75 C 377.304688 609.75 376.667969 609.371094 376.371094 608.726562 C 375.972656 607.84375 376.359375 606.804688 377.242188 606.402344 C 393.214844 599.132812 399.960938 587.773438 400.027344 587.660156 C 400.03125 587.65625 400.03125 587.65625 400.03125 587.65625 C 400.085938 587.5625 400.152344 587.472656 400.222656 587.390625 C 400.230469 587.382812 400.234375 587.375 400.238281 587.371094 C 400.277344 587.328125 400.328125 587.289062 400.371094 587.25 C 400.414062 587.210938 400.453125 587.167969 400.496094 587.136719 C 400.5 587.132812 400.503906 587.128906 400.503906 587.125 C 412.054688 578.613281 420.101562 581.738281 422.957031 583.410156 C 425.808594 581.738281 433.859375 578.617188 445.402344 587.125 C 445.40625 587.128906 445.40625 587.128906 445.410156 587.128906 C 445.480469 587.183594 445.546875 587.246094 445.609375 587.3125 C 445.628906 587.332031 445.652344 587.347656 445.667969 587.367188 C 445.6875 587.390625 445.703125 587.417969 445.722656 587.4375 C 445.777344 587.507812 445.832031 587.578125 445.878906 587.652344 C 445.878906 587.65625 445.878906 587.65625 445.882812 587.660156 C 445.945312 587.773438 452.695312 599.132812 468.667969 606.402344 C 469.546875 606.804688 469.9375 607.84375 469.535156 608.726562 Z M 437.308594 666.378906 C 436.078125 666.703125 434.792969 666.894531 433.464844 666.894531 C 428.261719 666.894531 424.710938 664.902344 422.953125 663.613281 C 421.195312 664.902344 417.644531 666.894531 412.445312 666.894531 C 411.117188 666.894531 409.835938 666.703125 408.609375 666.382812 C 409.0625 668.96875 410.367188 674.074219 413.828125 676.117188 C 415.992188 677.394531 418.820312 677.265625 422.234375 675.730469 C 422.253906 675.722656 422.269531 675.71875 422.289062 675.710938 C 422.339844 675.691406 422.394531 675.675781 422.445312 675.660156 C 422.503906 675.640625 422.5625 675.625 422.621094 675.613281 C 422.671875 675.601562 422.726562 675.597656 422.78125 675.59375 C 422.839844 675.585938 422.894531 675.578125 422.953125 675.582031 C 423.011719 675.582031 423.070312 675.585938 423.128906 675.59375 C 423.183594 675.597656 423.234375 675.601562 423.289062 675.613281 C 423.347656 675.625 423.402344 675.640625 423.460938 675.660156 C 423.511719 675.675781 423.566406 675.691406 423.621094 675.714844 C 423.636719 675.71875 423.65625 675.722656 423.675781 675.730469 C 427.09375 677.265625 429.921875 677.390625 432.085938 676.113281 C 435.328125 674.191406 436.796875 669.332031 437.308594 666.378906 Z M 462.085938 625.363281 C 462.085938 610.464844 460.960938 607.261719 460.785156 606.855469 C 460.613281 606.613281 460.53125 606.332031 460.496094 606.046875 C 459.375 605.367188 458.308594 604.675781 457.304688 603.980469 C 457.199219 603.953125 457.089844 603.917969 456.949219 603.875 C 445.578125 600.40625 439.476562 602.007812 436.363281 603.960938 C 436.074219 604.144531 435.75 604.230469 435.429688 604.230469 C 434.847656 604.230469 434.277344 603.941406 433.945312 603.410156 C 433.429688 602.589844 433.675781 601.507812 434.496094 600.992188 C 437.460938 599.128906 442.566406 597.507812 450.875 598.847656 C 446.21875 594.566406 443.75 590.882812 443.046875 589.757812 C 431.277344 581.238281 424.363281 586.636719 424.074219 586.871094 C 424.070312 586.875 424.0625 586.878906 424.058594 586.882812 C 423.417969 587.402344 422.484375 587.414062 421.832031 586.871094 C 421.519531 586.617188 414.609375 581.25 402.859375 589.757812 C 402.15625 590.882812 399.6875 594.566406 395.03125 598.847656 C 403.339844 597.507812 408.445312 599.128906 411.410156 600.992188 C 412.234375 601.507812 412.480469 602.589844 411.964844 603.410156 C 411.628906 603.941406 411.058594 604.230469 410.476562 604.230469 C 410.15625 604.230469 409.832031 604.144531 409.542969 603.960938 C 406.429688 602.007812 400.328125 600.40625 388.957031 603.875 C 388.816406 603.917969 388.707031 603.953125 388.605469 603.980469 C 387.96875 604.421875 387.304688 604.859375 386.621094 605.296875 C 386.128906 606.078125 383.820312 610.539062 383.820312 625.363281 C 383.820312 638.238281 393.238281 646.144531 397.738281 649.1875 C 398.15625 646.035156 399.179688 642.945312 400.449219 640.007812 C 389.6875 634.792969 388.945312 625.515625 388.921875 625.109375 C 388.859375 624.144531 389.59375 623.3125 390.5625 623.25 C 391.542969 623.1875 392.359375 623.917969 392.425781 624.882812 C 392.453125 625.222656 393.136719 632.539062 401.929688 636.832031 C 402.894531 634.894531 403.914062 633.039062 404.863281 631.3125 C 406.847656 627.710938 408.722656 624.308594 408.722656 622.425781 C 408.722656 621.457031 409.507812 620.671875 410.476562 620.671875 C 411.445312 620.671875 412.234375 621.457031 412.234375 622.425781 C 412.234375 625.207031 410.339844 628.648438 407.941406 633.003906 C 404.867188 638.589844 401.039062 645.539062 401.039062 652.1875 C 401.039062 659.105469 406.960938 663.386719 412.445312 663.386719 C 418.492188 663.386719 421.652344 660.152344 421.683594 660.121094 C 421.695312 660.109375 421.707031 660.105469 421.71875 660.097656 C 421.726562 660.085938 421.730469 660.070312 421.742188 660.0625 C 421.820312 659.988281 421.917969 659.953125 422.003906 659.898438 C 422.101562 659.832031 422.191406 659.753906 422.296875 659.710938 C 422.402344 659.667969 422.515625 659.664062 422.625 659.640625 C 422.734375 659.621094 422.84375 659.585938 422.953125 659.585938 C 423.066406 659.585938 423.175781 659.621094 423.285156 659.640625 C 423.394531 659.664062 423.507812 659.671875 423.613281 659.714844 C 423.71875 659.757812 423.808594 659.835938 423.90625 659.898438 C 423.992188 659.957031 424.089844 659.988281 424.167969 660.0625 C 424.175781 660.074219 424.179688 660.085938 424.191406 660.097656 C 424.199219 660.105469 424.214844 660.109375 424.222656 660.121094 C 424.347656 660.246094 427.5 663.386719 433.464844 663.386719 C 438.949219 663.386719 444.867188 659.105469 444.867188 652.1875 C 444.867188 645.535156 441.058594 638.585938 437.996094 633 C 435.609375 628.648438 433.722656 625.207031 433.722656 622.425781 C 433.722656 621.457031 434.511719 620.671875 435.480469 620.671875 C 436.449219 620.671875 437.238281 621.457031 437.238281 622.425781 C 437.238281 624.308594 439.101562 627.714844 441.078125 631.316406 C 441.972656 632.953125 442.929688 634.703125 443.847656 636.535156 C 452.085938 632.203125 452.714844 625.191406 452.742188 624.882812 C 452.8125 623.917969 453.640625 623.195312 454.613281 623.257812 C 455.574219 623.324219 456.304688 624.148438 456.242188 625.113281 C 456.21875 625.507812 455.511719 634.4375 445.339844 639.703125 C 446.664062 642.730469 447.738281 645.925781 448.171875 649.183594 C 452.667969 646.125 462.085938 638.195312 462.085938 625.363281 Z M 421.105469 524.4375 C 424.460938 524.4375 425.773438 522.832031 426.253906 521.925781 C 425.179688 521.855469 424.132812 521.765625 423.222656 521.679688 C 422.324219 521.597656 421.476562 521.519531 421.097656 521.519531 C 420.78125 521.519531 419.941406 521.585938 419.054688 521.660156 C 417.980469 521.746094 416.929688 521.824219 415.925781 521.886719 C 416.398438 522.808594 417.707031 524.4375 421.105469 524.4375 Z M 421.105469 524.4375 " fill-opacity="1" fill-rule="nonzero"/></g></svg>