<svg xmlns="http://www.w3.org/2000/svg" xmlns:xlink="http://www.w3.org/1999/xlink" width="1080" zoomAndPan="magnify" viewBox="0 0 810 809.999993" height="1080" preserveAspectRatio="xMidYMid meet" version="1.0"><defs><clipPath id="516f047fd8"><path d="M 282.039062 160.6875 L 528.039062 160.6875 L 528.039062 579.9375 L 282.039062 579.9375 Z M 282.039062 160.6875 " clip-rule="nonzero"/></clipPath></defs><g clip-path="url(#516f047fd8)"><path fill="#2e2e2e" d="M 316.960938 547.828125 C 317.347656 548.21875 317.542969 548.691406 317.542969 549.242188 C 317.542969 549.789062 317.347656 550.261719 316.960938 550.648438 C 316.5625 551.039062 316.085938 551.234375 315.535156 551.234375 L 311.273438 551.234375 L 311.273438 564.246094 C 311.273438 564.804688 311.078125 565.28125 310.691406 565.667969 C 310.300781 566.058594 309.828125 566.253906 309.277344 566.253906 C 308.726562 566.253906 308.253906 566.058594 307.855469 565.667969 C 307.464844 565.28125 307.269531 564.804688 307.269531 564.246094 L 307.269531 551.234375 L 303.019531 551.234375 C 302.460938 551.234375 301.988281 551.039062 301.597656 550.648438 C 301.207031 550.261719 301.011719 549.792969 301.011719 549.242188 C 301.011719 548.691406 301.207031 548.21875 301.597656 547.828125 C 301.988281 547.433594 302.460938 547.234375 303.019531 547.234375 L 315.535156 547.234375 C 316.085938 547.234375 316.5625 547.433594 316.960938 547.828125 Z M 335.84375 551.234375 C 336.394531 551.234375 336.871094 551.039062 337.269531 550.652344 C 337.65625 550.261719 337.851562 549.792969 337.851562 549.242188 C 337.851562 548.691406 337.65625 548.21875 337.269531 547.828125 C 336.871094 547.433594 336.394531 547.234375 335.84375 547.234375 L 323.328125 547.234375 C 322.769531 547.234375 322.296875 547.433594 321.90625 547.828125 C 321.515625 548.21875 321.320312 548.691406 321.320312 549.242188 L 321.320312 564.246094 C 321.320312 564.804688 321.515625 565.28125 321.90625 565.667969 C 322.296875 566.058594 322.769531 566.253906 323.328125 566.253906 L 335.84375 566.253906 C 336.394531 566.253906 336.871094 566.058594 337.269531 565.667969 C 337.65625 565.28125 337.851562 564.804688 337.851562 564.246094 C 337.851562 563.695312 337.65625 563.226562 337.269531 562.835938 C 336.871094 562.445312 336.394531 562.25 335.84375 562.25 L 325.328125 562.25 L 325.328125 558.746094 L 333.339844 558.746094 C 333.890625 558.746094 334.363281 558.550781 334.761719 558.160156 C 335.152344 557.769531 335.347656 557.300781 335.347656 556.75 C 335.347656 556.191406 335.152344 555.714844 334.761719 555.328125 C 334.363281 554.9375 333.890625 554.742188 333.339844 554.742188 L 325.328125 554.742188 L 325.328125 551.234375 Z M 359.917969 547.386719 C 359.542969 547.234375 359.15625 547.195312 358.757812 547.269531 C 358.371094 547.355469 358.03125 547.542969 357.742188 547.828125 L 351.636719 553.917969 L 345.546875 547.828125 C 345.257812 547.542969 344.914062 547.355469 344.515625 547.269531 C 344.117188 547.195312 343.734375 547.234375 343.359375 547.386719 C 342.988281 547.546875 342.691406 547.792969 342.46875 548.121094 C 342.242188 548.460938 342.128906 548.835938 342.128906 549.242188 L 342.128906 564.246094 C 342.128906 564.804688 342.320312 565.28125 342.710938 565.667969 C 343.101562 566.058594 343.574219 566.253906 344.136719 566.253906 C 344.6875 566.253906 345.15625 566.058594 345.546875 565.667969 C 345.9375 565.28125 346.132812 564.804688 346.132812 564.246094 L 346.132812 554.070312 L 350.226562 558.160156 C 350.617188 558.550781 351.089844 558.746094 351.640625 558.746094 C 352.199219 558.746094 352.671875 558.550781 353.0625 558.160156 L 357.15625 554.070312 L 357.15625 564.246094 C 357.15625 564.804688 357.351562 565.28125 357.742188 565.667969 C 358.132812 566.058594 358.601562 566.253906 359.152344 566.253906 C 359.703125 566.253906 360.175781 566.058594 360.566406 565.667969 C 360.964844 565.28125 361.164062 564.804688 361.164062 564.246094 L 361.164062 549.242188 C 361.164062 548.835938 361.050781 548.460938 360.820312 548.121094 C 360.601562 547.792969 360.296875 547.546875 359.917969 547.386719 Z M 380.898438 549.292969 C 382.273438 550.664062 382.960938 552.316406 382.960938 554.246094 C 382.960938 556.175781 382.273438 557.824219 380.898438 559.191406 C 379.527344 560.5625 377.875 561.246094 375.941406 561.246094 L 370.433594 561.246094 L 370.433594 564.246094 C 370.433594 564.804688 370.238281 565.28125 369.847656 565.667969 C 369.457031 566.058594 368.988281 566.253906 368.4375 566.253906 C 367.878906 566.253906 367.402344 566.058594 367.011719 565.667969 C 366.621094 565.28125 366.425781 564.804688 366.425781 564.246094 L 366.425781 549.242188 C 366.425781 548.691406 366.621094 548.21875 367.011719 547.828125 C 367.402344 547.433594 367.878906 547.234375 368.4375 547.234375 L 375.941406 547.234375 C 377.871094 547.234375 379.527344 547.917969 380.898438 549.292969 Z M 378.953125 554.246094 C 378.953125 553.417969 378.65625 552.710938 378.0625 552.125 C 377.480469 551.53125 376.769531 551.234375 375.941406 551.234375 L 370.433594 551.234375 L 370.433594 557.246094 L 375.941406 557.246094 C 376.769531 557.246094 377.480469 556.953125 378.0625 556.367188 C 378.65625 555.777344 378.953125 555.066406 378.953125 554.246094 Z M 401.753906 551.234375 C 402.304688 551.234375 402.78125 551.039062 403.179688 550.652344 C 403.570312 550.261719 403.765625 549.792969 403.765625 549.242188 C 403.765625 548.691406 403.570312 548.21875 403.179688 547.828125 C 402.78125 547.433594 402.304688 547.234375 401.753906 547.234375 L 389.242188 547.234375 C 388.683594 547.234375 388.207031 547.433594 387.816406 547.828125 C 387.425781 548.21875 387.234375 548.691406 387.234375 549.242188 L 387.234375 564.246094 C 387.234375 564.804688 387.425781 565.28125 387.816406 565.667969 C 388.207031 566.058594 388.683594 566.253906 389.242188 566.253906 L 401.753906 566.253906 C 402.304688 566.253906 402.78125 566.058594 403.179688 565.667969 C 403.570312 565.28125 403.765625 564.804688 403.765625 564.246094 C 403.765625 563.695312 403.570312 563.226562 403.179688 562.835938 C 402.78125 562.445312 402.304688 562.25 401.753906 562.25 L 391.238281 562.25 L 391.238281 558.746094 L 399.25 558.746094 C 399.800781 558.746094 400.277344 558.550781 400.675781 558.160156 C 401.066406 557.769531 401.261719 557.300781 401.261719 556.75 C 401.261719 556.191406 401.066406 555.714844 400.675781 555.328125 C 400.277344 554.9375 399.800781 554.742188 399.25 554.742188 L 391.238281 554.742188 L 391.238281 551.234375 Z M 421.300781 560.15625 L 423.984375 562.835938 C 424.375 563.226562 424.570312 563.695312 424.570312 564.246094 C 424.570312 564.804688 424.375 565.28125 423.984375 565.667969 C 423.585938 566.058594 423.109375 566.253906 422.558594 566.253906 C 422.007812 566.253906 421.539062 566.058594 421.148438 565.667969 L 416.722656 561.246094 L 412.042969 561.246094 L 412.042969 564.246094 C 412.042969 564.804688 411.847656 565.28125 411.457031 565.667969 C 411.066406 566.058594 410.597656 566.253906 410.046875 566.253906 C 409.488281 566.253906 409.011719 566.058594 408.621094 565.667969 C 408.230469 565.28125 408.039062 564.804688 408.039062 564.246094 L 408.039062 549.242188 C 408.039062 548.691406 408.230469 548.21875 408.621094 547.828125 C 409.011719 547.433594 409.488281 547.234375 410.046875 547.234375 L 417.550781 547.234375 C 419.484375 547.234375 421.136719 547.917969 422.507812 549.292969 C 423.882812 550.664062 424.570312 552.316406 424.570312 554.246094 C 424.570312 555.464844 424.269531 556.605469 423.667969 557.664062 C 423.089844 558.691406 422.300781 559.519531 421.300781 560.15625 Z M 420.5625 554.246094 C 420.5625 553.417969 420.265625 552.710938 419.675781 552.125 C 419.089844 551.53125 418.378906 551.234375 417.550781 551.234375 L 412.042969 551.234375 L 412.042969 557.246094 L 417.550781 557.246094 C 418.378906 557.246094 419.089844 556.953125 419.675781 556.367188 C 420.265625 555.777344 420.5625 555.066406 420.5625 554.246094 Z M 446.148438 563.355469 C 446.402344 563.847656 446.441406 564.355469 446.265625 564.882812 C 446.085938 565.40625 445.75 565.792969 445.257812 566.039062 C 444.980469 566.183594 444.683594 566.253906 444.371094 566.253906 C 443.996094 566.253906 443.648438 566.15625 443.328125 565.960938 C 442.996094 565.757812 442.746094 565.484375 442.578125 565.136719 L 441.242188 562.492188 L 432.453125 562.492188 L 431.132812 565.136719 C 430.886719 565.636719 430.5 565.96875 429.972656 566.140625 C 429.449219 566.316406 428.941406 566.285156 428.449219 566.039062 C 427.949219 565.792969 427.613281 565.40625 427.445312 564.882812 C 427.265625 564.355469 427.300781 563.847656 427.546875 563.355469 L 435.0625 548.335938 C 435.230469 548 435.476562 547.726562 435.796875 547.523438 C 436.121094 547.328125 436.472656 547.234375 436.855469 547.234375 C 437.234375 547.234375 437.585938 547.328125 437.910156 547.523438 C 438.230469 547.726562 438.476562 548 438.648438 548.335938 Z M 439.246094 558.488281 L 436.855469 553.714844 L 434.464844 558.488281 Z M 464.667969 547.234375 C 464.113281 547.234375 463.644531 547.433594 463.253906 547.828125 C 462.863281 548.21875 462.667969 548.691406 462.667969 549.242188 L 462.667969 558.71875 L 453.691406 547.957031 C 453.417969 547.636719 453.082031 547.417969 452.675781 547.308594 C 452.265625 547.199219 451.863281 547.21875 451.464844 547.359375 C 451.066406 547.503906 450.75 547.746094 450.511719 548.085938 C 450.265625 548.429688 450.144531 548.816406 450.144531 549.242188 L 450.144531 564.246094 C 450.144531 564.804688 450.339844 565.28125 450.726562 565.667969 C 451.117188 566.058594 451.59375 566.253906 452.152344 566.253906 C 452.703125 566.253906 453.175781 566.058594 453.5625 565.667969 C 453.953125 565.28125 454.148438 564.804688 454.148438 564.246094 L 454.148438 554.765625 L 463.128906 565.53125 C 463.527344 566.011719 464.039062 566.253906 464.664062 566.253906 C 464.902344 566.253906 465.132812 566.214844 465.351562 566.140625 C 465.75 565.996094 466.066406 565.75 466.304688 565.402344 C 466.550781 565.054688 466.675781 564.667969 466.675781 564.246094 L 466.675781 549.242188 C 466.675781 548.691406 466.480469 548.21875 466.089844 547.828125 C 465.691406 547.433594 465.21875 547.234375 464.667969 547.234375 Z M 480.460938 551.234375 C 481.976562 551.234375 483.273438 551.773438 484.351562 552.847656 C 484.742188 553.246094 485.214844 553.445312 485.777344 553.445312 C 486.328125 553.445312 486.796875 553.246094 487.1875 552.847656 C 487.578125 552.460938 487.773438 551.988281 487.773438 551.4375 C 487.773438 550.886719 487.578125 550.417969 487.1875 550.027344 C 485.332031 548.164062 483.089844 547.234375 480.460938 547.234375 C 477.832031 547.234375 475.589844 548.164062 473.734375 550.027344 C 471.875 551.875 470.949219 554.117188 470.949219 556.75 C 470.949219 559.375 471.875 561.617188 473.734375 563.472656 C 475.589844 565.328125 477.832031 566.253906 480.460938 566.253906 C 483.089844 566.253906 485.332031 565.328125 487.1875 563.472656 C 487.578125 563.082031 487.773438 562.605469 487.773438 562.046875 C 487.773438 561.496094 487.578125 561.027344 487.1875 560.636719 C 486.796875 560.25 486.328125 560.054688 485.777344 560.054688 C 485.214844 560.054688 484.742188 560.25 484.351562 560.636719 C 483.273438 561.714844 481.976562 562.25 480.460938 562.25 C 478.941406 562.25 477.644531 561.714844 476.570312 560.636719 C 475.492188 559.5625 474.953125 558.265625 474.953125 556.75 C 474.953125 555.226562 475.492188 553.925781 476.570312 552.847656 C 477.644531 551.773438 478.941406 551.234375 480.460938 551.234375 Z M 506.273438 551.234375 C 506.828125 551.234375 507.300781 551.039062 507.699219 550.652344 C 508.089844 550.261719 508.285156 549.792969 508.285156 549.242188 C 508.285156 548.691406 508.089844 548.21875 507.699219 547.828125 C 507.300781 547.433594 506.828125 547.234375 506.273438 547.234375 L 493.761719 547.234375 C 493.203125 547.234375 492.726562 547.433594 492.339844 547.828125 C 491.949219 548.21875 491.753906 548.691406 491.753906 549.242188 L 491.753906 564.246094 C 491.753906 564.804688 491.949219 565.28125 492.339844 565.667969 C 492.726562 566.058594 493.203125 566.253906 493.761719 566.253906 L 506.273438 566.253906 C 506.828125 566.253906 507.300781 566.058594 507.699219 565.667969 C 508.089844 565.28125 508.285156 564.804688 508.285156 564.246094 C 508.285156 563.695312 508.089844 563.226562 507.699219 562.835938 C 507.300781 562.445312 506.828125 562.25 506.273438 562.25 L 495.757812 562.25 L 495.757812 558.746094 L 503.769531 558.746094 C 504.320312 558.746094 504.796875 558.550781 505.195312 558.160156 C 505.585938 557.769531 505.78125 557.300781 505.78125 556.75 C 505.78125 556.191406 505.585938 555.714844 505.195312 555.328125 C 504.796875 554.9375 504.320312 554.742188 503.769531 554.742188 L 495.757812 554.742188 L 495.757812 551.234375 Z M 528.011719 174.914062 L 528.011719 565.714844 C 528.011719 569.476562 526.546875 573.011719 523.882812 575.671875 C 521.21875 578.332031 517.679688 579.796875 513.914062 579.796875 L 296.125 579.796875 C 292.359375 579.796875 288.820312 578.332031 286.15625 575.671875 C 283.496094 573.011719 282.027344 569.476562 282.027344 565.714844 L 282.027344 174.914062 C 282.027344 171.152344 283.496094 167.613281 286.15625 164.953125 C 288.820312 162.292969 292.359375 160.828125 296.125 160.828125 L 513.914062 160.828125 C 517.679688 160.828125 521.222656 162.292969 523.882812 164.953125 C 526.546875 167.613281 528.011719 171.152344 528.011719 174.914062 Z M 524.378906 174.914062 C 524.378906 172.027344 523.207031 169.414062 521.3125 167.519531 C 519.421875 165.628906 516.804688 164.457031 513.914062 164.457031 L 296.125 164.457031 C 293.238281 164.457031 290.621094 165.628906 288.726562 167.519531 C 286.832031 169.414062 285.664062 172.027344 285.664062 174.914062 L 285.664062 565.714844 C 285.664062 568.601562 286.832031 571.214844 288.726562 573.105469 C 290.621094 575 293.238281 576.167969 296.125 576.167969 L 513.914062 576.167969 C 516.804688 576.167969 519.421875 575 521.3125 573.105469 C 523.207031 571.214844 524.378906 568.601562 524.378906 565.714844 Z M 518.324219 370.3125 L 518.339844 533.398438 C 518.339844 535.113281 516.847656 536.601562 515.132812 536.601562 L 294.8125 536.601562 C 293.117188 536.601562 291.742188 535.242188 291.710938 533.554688 L 291.710938 174.914062 C 291.710938 173.738281 292.167969 172.628906 293.003906 171.796875 C 293.835938 170.964844 294.941406 170.507812 296.121094 170.507812 L 513.914062 170.507812 C 515.09375 170.507812 516.199219 170.964844 517.03125 171.796875 C 517.863281 172.628906 518.324219 173.738281 518.324219 174.914062 Z M 514.699219 532.972656 L 514.683594 370.3125 L 514.683594 174.914062 C 514.683594 174.699219 514.605469 174.515625 514.453125 174.367188 C 514.304688 174.214844 514.121094 174.140625 513.90625 174.140625 L 296.125 174.140625 C 295.914062 174.140625 295.730469 174.214844 295.578125 174.367188 C 295.429688 174.515625 295.351562 174.699219 295.351562 174.914062 L 295.351562 532.972656 Z M 378.933594 201.578125 C 378.984375 202.128906 379.222656 202.578125 379.644531 202.925781 C 380.007812 203.238281 380.4375 203.394531 380.929688 203.394531 C 381.546875 203.394531 382.0625 203.152344 382.46875 202.671875 L 387.183594 197.015625 L 391.902344 202.671875 C 392.308594 203.152344 392.824219 203.394531 393.441406 203.394531 C 393.925781 203.394531 394.351562 203.238281 394.726562 202.925781 C 395.148438 202.578125 395.386719 202.128906 395.4375 201.578125 C 395.488281 201.027344 395.335938 200.539062 394.980469 200.117188 L 389.792969 193.890625 L 394.980469 187.667969 C 395.335938 187.242188 395.488281 186.753906 395.4375 186.203125 C 395.386719 185.652344 395.148438 185.199219 394.726562 184.84375 C 394.300781 184.488281 393.8125 184.335938 393.261719 184.386719 C 392.710938 184.4375 392.257812 184.675781 391.902344 185.097656 L 387.183594 190.765625 L 382.46875 185.097656 C 382.109375 184.675781 381.65625 184.4375 381.105469 184.386719 C 380.554688 184.335938 380.066406 184.488281 379.644531 184.84375 C 379.21875 185.199219 378.984375 185.652344 378.933594 186.203125 C 378.882812 186.753906 379.035156 187.242188 379.390625 187.667969 L 384.578125 193.890625 L 379.390625 200.117188 C 379.035156 200.539062 378.882812 201.027344 378.933594 201.578125 Z M 403.003906 203.394531 C 403.554688 203.394531 404.027344 203.199219 404.417969 202.8125 C 404.804688 202.421875 405 201.945312 405 201.386719 L 405 186.382812 C 405 185.832031 404.804688 185.359375 404.417969 184.972656 C 404.027344 184.574219 403.554688 184.375 403.003906 184.375 C 402.445312 184.375 401.96875 184.574219 401.582031 184.972656 C 401.191406 185.363281 400.996094 185.832031 400.996094 186.382812 L 400.996094 201.386719 C 400.996094 201.945312 401.191406 202.421875 401.582031 202.8125 C 401.96875 203.199219 402.445312 203.394531 403.003906 203.394531 Z M 417.78125 202.289062 C 417.953125 202.628906 418.199219 202.894531 418.519531 203.089844 C 418.84375 203.292969 419.195312 203.394531 419.574219 203.394531 C 419.957031 203.394531 420.308594 203.292969 420.632812 203.089844 C 420.953125 202.894531 421.199219 202.628906 421.371094 202.289062 L 428.871094 187.269531 C 429.128906 186.78125 429.164062 186.273438 428.988281 185.746094 C 428.808594 185.222656 428.472656 184.835938 427.980469 184.589844 C 427.488281 184.34375 426.980469 184.308594 426.457031 184.476562 C 425.929688 184.65625 425.542969 184.988281 425.300781 185.480469 L 419.578125 196.914062 L 413.855469 185.507812 C 413.609375 185.007812 413.222656 184.671875 412.695312 184.503906 C 412.171875 184.324219 411.660156 184.359375 411.160156 184.605469 C 410.667969 184.851562 410.335938 185.234375 410.164062 185.761719 C 409.988281 186.285156 410.023438 186.796875 410.269531 187.296875 Z M 438.90625 508.378906 C 438.960938 509.367188 438.738281 510.355469 438.273438 511.242188 C 435.507812 516.566406 424.234375 519.714844 411.789062 520.527344 C 411.722656 520.53125 411.652344 520.539062 411.585938 520.542969 C 410.59375 520.605469 409.589844 520.652344 408.574219 520.6875 C 408.53125 520.6875 408.484375 520.691406 408.441406 520.691406 C 407.378906 520.726562 406.308594 520.742188 405.242188 520.742188 C 400.230469 520.742188 395.203125 520.367188 390.613281 519.632812 C 389.933594 519.527344 389.261719 519.410156 388.605469 519.289062 C 385.359375 518.675781 382.382812 517.867188 379.855469 516.871094 C 377.328125 515.875 375.253906 514.691406 373.8125 513.324219 C 373.605469 513.128906 373.414062 512.929688 373.234375 512.726562 C 372.15625 511.507812 371.558594 510.15625 371.558594 508.667969 C 371.558594 503.777344 377.851562 501.039062 381.796875 499.78125 C 384.207031 499.011719 386.675781 498.433594 389.167969 497.984375 C 390.464844 497.753906 391.765625 497.558594 393.074219 497.386719 C 394.167969 497.242188 396.421875 497.449219 397.351562 496.914062 C 398.738281 496.117188 398.015625 491.835938 398.015625 490.066406 L 398.015625 479.890625 L 392.851562 471.015625 C 392.839844 470.992188 392.835938 470.96875 392.820312 470.941406 C 392.78125 470.863281 392.75 470.785156 392.710938 470.683594 C 392.699219 470.648438 392.683594 470.617188 392.671875 470.570312 C 392.644531 470.476562 392.632812 470.375 392.617188 470.246094 C 392.617188 470.234375 392.613281 470.222656 392.609375 470.179688 C 392.605469 470.121094 392.617188 470.058594 392.621094 470 C 392.621094 469.933594 392.621094 469.871094 392.636719 469.777344 C 392.640625 469.753906 392.648438 469.730469 392.671875 469.648438 C 392.695312 469.5625 392.71875 469.480469 392.753906 469.394531 C 392.761719 469.378906 392.761719 469.363281 392.769531 469.351562 C 392.769531 469.351562 395.847656 462.582031 395.847656 462.582031 C 395.84375 462.601562 390.054688 459.335938 389.640625 459.039062 C 386.640625 456.90625 383.953125 454.335938 381.664062 451.457031 C 374.59375 442.550781 371.632812 430.988281 371.484375 419.769531 C 371.46875 418.738281 371.402344 417.65625 371.660156 416.644531 C 371.679688 416.558594 371.710938 416.476562 371.734375 416.390625 C 371.777344 416.257812 371.816406 416.128906 371.867188 416.003906 C 372.5625 414.199219 374.183594 412.789062 375.78125 411.78125 C 379.5 409.433594 383.757812 408.300781 388.03125 407.457031 C 389.890625 407.089844 391.832031 406.792969 393.824219 406.554688 C 394.226562 406.507812 394.628906 406.464844 395.03125 406.421875 C 395.046875 406.417969 395.0625 406.417969 395.078125 406.417969 C 395.898438 406.332031 396.722656 406.257812 397.550781 406.195312 C 396.171875 405.054688 394.761719 403.546875 394.003906 401.75 L 322.832031 401.75 L 322.832031 237.519531 L 375.652344 237.519531 L 371.792969 227.328125 C 371.550781 226.6875 371.691406 225.964844 372.15625 225.460938 C 372.617188 224.953125 373.328125 224.753906 373.988281 224.941406 L 393.328125 230.390625 C 393.328125 230.390625 403.605469 217.671875 403.613281 217.667969 C 403.648438 217.621094 403.695312 217.582031 403.734375 217.539062 C 403.78125 217.496094 403.824219 217.445312 403.878906 217.398438 C 403.898438 217.382812 403.917969 217.375 403.9375 217.359375 C 404.015625 217.300781 404.097656 217.246094 404.179688 217.203125 C 404.210938 217.1875 404.242188 217.179688 404.273438 217.164062 C 404.347656 217.128906 404.425781 217.09375 404.507812 217.070312 C 404.546875 217.058594 404.589844 217.054688 404.628906 217.046875 C 404.703125 217.03125 404.777344 217.011719 404.851562 217.007812 C 404.894531 217.003906 404.9375 217.003906 404.976562 217.003906 C 405.050781 217.003906 405.125 217 405.199219 217.007812 C 405.242188 217.011719 405.285156 217.023438 405.328125 217.03125 C 405.398438 217.042969 405.472656 217.054688 405.542969 217.074219 C 405.59375 217.089844 405.640625 217.113281 405.691406 217.132812 C 405.75 217.15625 405.808594 217.175781 405.867188 217.207031 C 405.929688 217.238281 405.992188 217.285156 406.050781 217.328125 C 406.085938 217.351562 406.128906 217.371094 406.167969 217.40625 C 406.210938 217.441406 406.246094 217.480469 406.285156 217.519531 C 406.335938 217.570312 406.386719 217.613281 406.433594 217.671875 L 416.714844 230.390625 L 436.054688 224.941406 C 436.714844 224.753906 437.425781 224.953125 437.886719 225.460938 C 438.351562 225.964844 438.488281 226.6875 438.246094 227.328125 L 434.386719 237.519531 L 487.210938 237.519531 L 487.210938 270.894531 C 490.660156 270.585938 494.1875 273.652344 497.445312 279.808594 C 500.488281 285.558594 502.996094 293.4375 504.503906 301.992188 C 506.125 311.179688 507.550781 322.25 504.101562 331.210938 C 502.714844 334.816406 499.402344 338.585938 495.164062 336.8125 C 491.347656 335.21875 488.933594 330.835938 487.210938 327.324219 L 487.210938 401.75 L 414.703125 401.75 C 416.058594 403.421875 418.238281 404.804688 419.253906 405.324219 C 419.308594 405.351562 419.359375 405.390625 419.410156 405.425781 C 419.425781 405.433594 419.441406 405.441406 419.453125 405.449219 C 420.398438 405.960938 421.3125 406.5625 422.167969 407.214844 C 422.191406 407.234375 422.214844 407.253906 422.242188 407.273438 C 422.410156 407.402344 422.574219 407.535156 422.742188 407.671875 C 422.792969 407.679688 422.847656 407.679688 422.898438 407.691406 C 428.136719 408.8125 438.535156 411.070312 438.328125 418.21875 C 438.328125 429.125 436.140625 437.496094 433.039062 443.890625 C 433.011719 443.941406 432.988281 443.988281 432.960938 444.039062 C 427.613281 454.96875 419.601562 460.074219 415.332031 462.128906 C 415.320312 462.136719 415.308594 462.140625 415.296875 462.148438 C 415.066406 462.261719 414.855469 462.355469 414.648438 462.449219 C 414.5625 462.488281 414.46875 462.53125 414.390625 462.570312 L 417.640625 469.527344 C 417.652344 469.550781 417.652344 469.574219 417.664062 469.597656 C 417.699219 469.6875 417.726562 469.777344 417.75 469.871094 C 417.761719 469.90625 417.769531 469.941406 417.78125 469.996094 C 417.785156 470.015625 417.792969 470.03125 417.792969 470.050781 C 417.808594 470.15625 417.808594 470.261719 417.804688 470.363281 C 417.804688 470.378906 417.808594 470.390625 417.804688 470.40625 C 417.796875 470.542969 417.773438 470.675781 417.734375 470.808594 C 417.722656 470.84375 417.707031 470.875 417.695312 470.910156 C 417.660156 471.003906 417.621094 471.097656 417.570312 471.183594 C 417.558594 471.203125 417.554688 471.226562 417.542969 471.246094 L 415.789062 474.09375 L 412.207031 479.914062 L 412.207031 496.832031 C 413.824219 496.945312 415.433594 497.105469 417.015625 497.304688 C 417.097656 497.316406 417.179688 497.324219 417.257812 497.335938 C 417.546875 497.371094 417.835938 497.414062 418.121094 497.453125 C 422.554688 498.078125 427.15625 499.023438 431.285156 500.789062 C 434.085938 501.988281 437.707031 503.992188 438.671875 507.066406 C 438.804688 507.496094 438.882812 507.9375 438.90625 508.378906 Z M 483.574219 318.066406 C 483.070312 316.464844 482.617188 314.847656 482.210938 313.253906 L 465.492188 316.195312 L 460.621094 320.304688 L 457.640625 322.816406 C 457.621094 322.835938 457.597656 322.84375 457.578125 322.859375 C 457.546875 322.882812 457.511719 322.902344 457.476562 322.925781 C 457.472656 322.929688 457.46875 322.933594 457.460938 322.9375 C 457.425781 322.960938 457.390625 322.984375 457.355469 323.007812 C 457.316406 323.027344 457.277344 323.050781 457.238281 323.070312 C 457.191406 323.09375 457.140625 323.113281 457.089844 323.128906 C 457.054688 323.140625 457.019531 323.152344 456.988281 323.164062 C 456.972656 323.167969 456.957031 323.171875 456.941406 323.175781 C 456.914062 323.183594 456.890625 323.195312 456.863281 323.203125 C 456.742188 323.230469 456.617188 323.246094 456.492188 323.246094 C 456.488281 323.246094 456.488281 323.246094 456.488281 323.246094 C 456.480469 323.246094 456.472656 323.246094 456.46875 323.246094 C 456.464844 323.246094 456.464844 323.246094 456.460938 323.246094 C 456.429688 323.246094 456.402344 323.238281 456.375 323.238281 C 456.367188 323.234375 456.363281 323.234375 456.359375 323.234375 C 456.355469 323.234375 456.355469 323.234375 456.351562 323.234375 C 456.253906 323.226562 456.160156 323.21875 456.066406 323.195312 C 456.0625 323.195312 456.058594 323.195312 456.058594 323.195312 C 456.054688 323.195312 456.054688 323.195312 456.050781 323.191406 C 456.039062 323.191406 456.027344 323.191406 456.015625 323.1875 L 448.835938 321.34375 C 448.40625 323.257812 447.488281 326.324219 445.59375 329.832031 L 471.226562 374.1875 C 471.554688 374.75 471.554688 375.441406 471.226562 376.003906 C 470.902344 376.5625 470.304688 376.910156 469.65625 376.910156 L 421.257812 376.910156 C 423.550781 378.480469 426.835938 381.375 426.835938 385.109375 C 426.835938 390.75 419.390625 393.660156 419.074219 393.78125 C 419.058594 393.789062 419.039062 393.785156 419.019531 393.789062 C 419.007812 393.796875 418.996094 393.804688 418.980469 393.8125 C 418.894531 393.84375 418.796875 393.882812 418.695312 393.929688 C 418.691406 393.929688 418.6875 393.929688 418.6875 393.933594 C 417.304688 394.53125 414.480469 396.128906 413.734375 398.121094 L 483.574219 398.121094 Z M 426.605469 355.5625 C 426.605469 361.203125 419.160156 364.109375 418.84375 364.234375 C 418.828125 364.238281 418.8125 364.234375 418.796875 364.242188 C 418.792969 364.242188 418.785156 364.246094 418.777344 364.25 C 418.773438 364.25 418.773438 364.253906 418.769531 364.253906 C 417.210938 364.90625 413.550781 366.964844 413.550781 369.449219 C 413.550781 370.800781 414.589844 372.160156 415.820312 373.28125 L 466.507812 373.28125 L 443.429688 333.347656 C 439.609375 338.867188 433.28125 344.859375 422.839844 349.027344 C 424.941406 351.117188 426.605469 353.4375 426.605469 355.5625 Z M 415.714844 343.40625 C 416.742188 344.078125 418.222656 345.097656 419.757812 346.3125 C 420.835938 345.921875 421.867188 345.511719 422.859375 345.082031 C 422.90625 342.25 422.945312 333.445312 421.835938 327.15625 C 421.660156 326.167969 422.320312 325.226562 423.308594 325.050781 C 424.289062 324.882812 425.242188 325.535156 425.414062 326.523438 C 426.40625 332.140625 426.53125 339.394531 426.511719 343.316406 C 428.039062 342.5 429.453125 341.640625 430.746094 340.75 C 430.679688 338.828125 430.390625 331.410156 429.804688 328.074219 C 429.628906 327.085938 430.289062 326.144531 431.277344 325.96875 C 432.253906 325.796875 433.207031 326.453125 433.382812 327.441406 C 433.851562 330.089844 434.132812 334.867188 434.273438 338.015625 C 435.746094 336.738281 437.039062 335.433594 438.15625 334.132812 C 438.15625 334.070312 438.148438 334.003906 438.15625 333.9375 C 438.160156 333.890625 438.550781 329.730469 437.75 323.511719 C 437.628906 322.570312 437.480469 321.582031 437.300781 320.554688 C 437.125 319.566406 437.785156 318.625 438.773438 318.449219 C 438.851562 318.4375 438.929688 318.4375 439.007812 318.433594 C 439.90625 318.394531 440.71875 319.015625 440.878906 319.921875 C 441.023438 320.75 441.144531 321.542969 441.253906 322.316406 C 441.613281 324.863281 441.785156 327.105469 441.851562 328.941406 C 442.449219 327.914062 442.957031 326.929688 443.378906 325.996094 C 445.054688 322.332031 445.496094 319.582031 445.570312 319.023438 C 445.542969 318.449219 445.40625 316.058594 444.902344 313.214844 C 444.390625 310.308594 443.53125 307.101562 443.324219 306.351562 C 442.917969 305.566406 440.90625 301.96875 436.539062 298.296875 C 437.238281 300.527344 437.996094 303.367188 438.589844 306.722656 C 438.761719 307.710938 438.101562 308.652344 437.113281 308.824219 C 437.007812 308.84375 436.902344 308.851562 436.796875 308.851562 C 435.929688 308.851562 435.164062 308.234375 435.007812 307.351562 C 433.78125 300.398438 431.796875 295.726562 431.332031 294.703125 C 429.808594 293.84375 428.113281 293.039062 426.242188 292.328125 C 426.957031 294.625 427.890625 297.738281 428.5 300.242188 C 428.6875 301.019531 428.847656 301.746094 428.957031 302.363281 C 429.132812 303.351562 428.472656 304.289062 427.484375 304.464844 C 427.375 304.484375 427.269531 304.492188 427.164062 304.492188 C 427.007812 304.492188 426.859375 304.449219 426.710938 304.410156 C 426.046875 304.238281 425.503906 303.714844 425.378906 302.992188 C 425.304688 302.582031 425.203125 302.105469 425.085938 301.597656 C 424.285156 298.128906 422.597656 292.832031 422 290.988281 C 420.898438 290.707031 419.738281 290.464844 418.535156 290.257812 C 417.964844 290.160156 417.386719 290.070312 416.792969 289.992188 C 418.089844 293.453125 420.703125 300.851562 421.757812 306.824219 C 421.933594 307.8125 421.273438 308.75 420.285156 308.925781 C 420.179688 308.945312 420.074219 308.953125 419.964844 308.953125 C 419.101562 308.953125 418.335938 308.335938 418.179688 307.453125 C 416.953125 300.496094 413.351562 291.128906 412.757812 289.617188 C 410 289.476562 407.015625 289.542969 403.796875 289.863281 C 405.28125 291.335938 406.746094 293.398438 408.15625 296.050781 C 411.191406 301.75 413.6875 309.566406 415.183594 318.058594 C 416.878906 327.671875 417.0625 336.8125 415.714844 343.40625 Z M 396.792969 287.433594 C 397.027344 287.242188 397.308594 287.097656 397.625 287.042969 C 397.902344 286.992188 398.164062 286.957031 398.4375 286.914062 C 399.0625 286.808594 399.6875 286.707031 400.300781 286.621094 C 402.78125 286.273438 405.28125 286.050781 407.785156 285.972656 C 408.265625 285.957031 408.738281 285.949219 409.207031 285.949219 C 409.488281 285.945312 409.773438 285.945312 410.054688 285.945312 C 411.300781 285.953125 412.546875 286 413.792969 286.085938 C 413.9375 286.097656 414.078125 286.109375 414.222656 286.121094 C 414.796875 286.167969 415.363281 286.21875 415.921875 286.28125 C 416.011719 286.289062 416.101562 286.304688 416.191406 286.3125 C 416.214844 286.316406 416.234375 286.320312 416.257812 286.320312 L 405.019531 266.875 L 343.535156 373.28125 L 394.605469 373.28125 C 393.902344 372.136719 393.433594 370.855469 393.433594 369.449219 C 393.433594 366.175781 395.800781 363.875 398.394531 362.246094 C 400.925781 360.664062 405.1875 359.65625 406.269531 356.550781 C 408.207031 350.976562 398.277344 348.363281 395.574219 345.328125 C 395.507812 345.25 395.4375 345.175781 395.375 345.097656 C 394.074219 343.570312 392.851562 341.078125 393.320312 338.960938 C 393.339844 338.882812 393.363281 338.804688 393.382812 338.726562 C 393.453125 338.472656 393.539062 338.222656 393.644531 337.972656 C 393.667969 337.921875 393.691406 337.867188 393.714844 337.8125 C 394.011719 337.175781 394.414062 336.566406 394.890625 335.988281 C 394.867188 335.914062 394.84375 335.835938 394.816406 335.761719 C 394.117188 333.714844 393.476562 331.585938 392.914062 329.375 C 392.894531 329.304688 392.878906 329.230469 392.863281 329.160156 C 392.589844 328.085938 392.328125 326.996094 392.089844 325.886719 C 391.964844 325.296875 391.855469 324.691406 391.738281 324.089844 C 391.617188 323.476562 391.488281 322.875 391.378906 322.253906 C 391.191406 321.207031 391.027344 320.160156 390.875 319.113281 C 390.871094 319.078125 390.867188 319.042969 390.859375 319.007812 C 390.402344 315.78125 390.105469 312.535156 389.996094 309.277344 C 389.992188 309.210938 389.988281 309.144531 389.988281 309.078125 C 389.644531 298.175781 391.613281 289.046875 396.792969 287.433594 Z M 448.480469 312.585938 C 448.847656 314.671875 449.03125 316.492188 449.125 317.667969 L 454.574219 319.070312 C 454.472656 316.9375 454.25 313.726562 453.746094 310.871094 C 453.25 308.074219 452.464844 305.105469 451.894531 303.105469 L 447.113281 306.453125 C 447.480469 307.871094 448.074219 310.28125 448.480469 312.585938 Z M 457.324219 310.242188 C 457.769531 312.773438 458.011719 315.515625 458.136719 317.648438 L 462.722656 313.78125 L 461.25 305.417969 L 455.707031 303.230469 C 456.25 305.214844 456.886719 307.769531 457.324219 310.242188 Z M 483.574219 282.007812 C 482.890625 285.773438 482.636719 290.878906 483.179688 297.210938 C 483.3125 297.0625 483.445312 296.914062 483.574219 296.761719 C 485.175781 294.933594 486.542969 293.03125 487.210938 291.585938 C 487.539062 290.871094 487.699219 290.269531 487.625 289.84375 C 487.449219 288.859375 488.109375 287.914062 489.097656 287.742188 C 490.074219 287.570312 491.027344 288.226562 491.203125 289.214844 C 491.675781 291.902344 489.421875 295.40625 487.210938 298.101562 C 485.679688 299.964844 484.167969 301.445312 483.589844 301.992188 C 483.585938 301.996094 483.582031 302 483.578125 302.003906 C 483.320312 302.238281 483.003906 302.402344 482.660156 302.460938 L 464.96875 305.578125 L 466.171875 312.390625 L 483.578125 309.324219 L 483.859375 309.277344 C 484.238281 309.214844 484.621094 309.261719 484.964844 309.425781 C 485.378906 309.625 486.199219 310.035156 487.210938 310.59375 C 490.40625 312.367188 495.539062 315.703125 496.144531 319.125 C 496.320312 320.113281 495.660156 321.054688 494.671875 321.230469 C 493.683594 321.402344 492.742188 320.746094 492.566406 319.757812 C 492.339844 318.480469 489.894531 316.507812 487.210938 314.824219 C 486.886719 314.621094 486.558594 314.421875 486.230469 314.226562 C 486.546875 315.367188 486.875 316.453125 487.210938 317.492188 C 490.816406 328.65625 495.460938 334.089844 497.820312 333.65625 C 501.296875 333.046875 504.160156 320.941406 500.925781 302.625 C 499.480469 294.429688 497.105469 286.929688 494.234375 281.507812 C 491.308594 275.976562 488.722656 274.277344 487.386719 274.523438 C 487.328125 274.535156 487.269531 274.570312 487.210938 274.585938 C 485.792969 275.011719 484.386719 277.5625 483.574219 282.007812 Z M 376.46875 229.410156 L 379.539062 237.519531 L 380.914062 241.148438 L 382.105469 244.296875 L 404.496094 244.296875 C 404.679688 244.296875 404.851562 244.332031 405.019531 244.382812 C 405.1875 244.332031 405.363281 244.296875 405.546875 244.296875 L 427.9375 244.296875 L 429.128906 241.148438 L 430.503906 237.519531 L 433.574219 229.410156 L 416.550781 234.207031 C 415.851562 234.40625 415.097656 234.167969 414.644531 233.601562 L 405.019531 221.699219 L 395.398438 233.601562 C 394.945312 234.167969 394.191406 234.402344 393.492188 234.207031 Z M 401.195312 390.421875 C 401.21875 390.414062 401.242188 390.410156 401.265625 390.402344 C 401.273438 390.398438 401.28125 390.394531 401.289062 390.390625 C 402.261719 390.015625 404.460938 388.886719 405.742188 387.375 C 406.324219 386.6875 406.71875 385.921875 406.71875 385.109375 C 406.71875 385.074219 406.710938 385.035156 406.707031 385 C 406.597656 382.324219 402.476562 379.625 401.019531 378.878906 C 400.960938 378.851562 400.914062 378.8125 400.859375 378.777344 C 400.328125 378.492188 399.214844 377.847656 398.003906 376.910156 L 340.386719 376.910156 C 339.738281 376.910156 339.136719 376.5625 338.816406 376 C 338.488281 375.441406 338.488281 374.746094 338.816406 374.1875 L 403.449219 262.335938 C 403.769531 261.777344 404.371094 261.429688 405.019531 261.429688 C 405.667969 261.429688 406.269531 261.777344 406.59375 262.335938 L 420.898438 287.089844 C 434.605469 290.054688 441.941406 298.003906 444.964844 302.210938 C 444.988281 302.242188 445.007812 302.269531 445.027344 302.300781 C 445.230469 302.582031 445.417969 302.851562 445.578125 303.09375 L 451.871094 298.6875 C 451.890625 298.675781 451.910156 298.667969 451.929688 298.65625 C 451.929688 298.65625 451.933594 298.65625 451.933594 298.65625 C 452.011719 298.605469 452.09375 298.5625 452.179688 298.523438 C 452.183594 298.523438 452.183594 298.523438 452.183594 298.523438 C 452.191406 298.519531 452.195312 298.515625 452.199219 298.515625 C 452.234375 298.5 452.265625 298.480469 452.300781 298.46875 C 452.304688 298.46875 452.308594 298.464844 452.316406 298.464844 C 452.328125 298.460938 452.34375 298.453125 452.355469 298.445312 C 452.445312 298.417969 452.535156 298.402344 452.625 298.390625 C 452.632812 298.386719 452.640625 298.386719 452.648438 298.382812 C 452.652344 298.382812 452.65625 298.382812 452.664062 298.378906 C 452.679688 298.378906 452.691406 298.371094 452.707031 298.371094 C 452.710938 298.371094 452.710938 298.371094 452.710938 298.371094 C 452.847656 298.355469 452.980469 298.359375 453.113281 298.371094 C 453.113281 298.371094 453.113281 298.371094 453.113281 298.375 C 453.117188 298.375 453.117188 298.375 453.117188 298.375 C 453.148438 298.375 453.179688 298.386719 453.210938 298.390625 C 453.214844 298.390625 453.21875 298.394531 453.222656 298.394531 C 453.222656 298.394531 453.226562 298.394531 453.230469 298.394531 C 453.324219 298.410156 453.414062 298.433594 453.5 298.464844 C 453.507812 298.46875 453.515625 298.46875 453.523438 298.472656 C 453.527344 298.472656 453.53125 298.472656 453.53125 298.472656 C 453.546875 298.480469 453.566406 298.480469 453.582031 298.488281 L 459.1875 300.703125 L 463.050781 302.230469 L 477.070312 299.761719 L 479.726562 299.292969 C 479.667969 298.714844 479.617188 298.136719 479.566406 297.558594 C 479.046875 291.414062 479.175781 285.34375 480.160156 280.542969 C 480.851562 277.167969 481.964844 274.429688 483.574219 272.734375 L 483.574219 241.148438 L 433.015625 241.148438 L 430.890625 246.753906 C 430.625 247.460938 429.949219 247.925781 429.191406 247.925781 L 405.546875 247.925781 C 405.363281 247.925781 405.1875 247.890625 405.019531 247.839844 C 404.851562 247.890625 404.679688 247.925781 404.496094 247.925781 L 380.851562 247.925781 C 380.09375 247.925781 379.417969 247.460938 379.148438 246.753906 L 377.027344 241.148438 L 326.464844 241.148438 L 326.464844 398.121094 L 393.511719 398.121094 C 394.296875 393.117188 400.898438 390.535156 401.195312 390.421875 Z M 396.0625 426.023438 C 398.894531 426.292969 401.863281 426.4375 404.910156 426.4375 C 404.910156 426.4375 404.914062 426.4375 404.914062 426.4375 C 407.980469 426.4375 410.824219 426.289062 413.476562 426.046875 C 413.53125 425.996094 413.582031 425.945312 413.644531 425.898438 C 414.257812 425.457031 414.902344 425.011719 415.5625 424.5625 C 419.320312 421.992188 423.203125 419.339844 423.203125 414.753906 C 423.199219 412.042969 418.980469 409.277344 417.503906 408.523438 C 417.445312 408.496094 417.398438 408.457031 417.34375 408.421875 C 416.148438 407.78125 412.003906 405.34375 410.484375 401.75 C 410.136719 400.921875 409.917969 400.035156 409.917969 399.089844 C 409.917969 398.757812 409.945312 398.433594 409.996094 398.121094 C 410.777344 393.117188 417.378906 390.535156 417.679688 390.421875 C 417.703125 390.410156 417.726562 390.410156 417.75 390.402344 C 417.757812 390.398438 417.765625 390.394531 417.773438 390.390625 C 419.179688 389.847656 423.199219 387.707031 423.199219 385.109375 C 423.199219 382.382812 418.984375 379.628906 417.503906 378.882812 C 417.445312 378.851562 417.394531 378.8125 417.339844 378.773438 C 416.804688 378.488281 415.695312 377.847656 414.488281 376.910156 C 413.28125 375.976562 411.992188 374.75 411.089844 373.28125 C 410.386719 372.136719 409.914062 370.851562 409.914062 369.445312 C 409.914062 363.808594 417.359375 360.898438 417.679688 360.777344 C 417.703125 360.769531 417.726562 360.765625 417.75 360.757812 C 419.304688 360.105469 422.972656 358.042969 422.972656 355.5625 C 422.972656 353.441406 417.660156 348.851562 412.738281 345.816406 C 412.160156 345.460938 411.859375 344.835938 411.886719 344.203125 C 411.878906 344.035156 411.886719 343.867188 411.925781 343.699219 C 412.910156 339.675781 413.183594 334.230469 412.777344 328.246094 L 402.5625 334.472656 C 402.550781 334.480469 402.542969 334.480469 402.535156 334.484375 C 402.523438 334.492188 402.511719 334.503906 402.5 334.507812 C 399.824219 336.011719 396.839844 338.59375 396.839844 339.898438 C 396.839844 342.613281 401.058594 345.375 402.535156 346.128906 C 402.59375 346.160156 402.640625 346.199219 402.695312 346.234375 C 404.164062 347.023438 410.121094 350.527344 410.121094 355.5625 C 410.121094 361.203125 402.679688 364.113281 402.363281 364.234375 C 402.34375 364.242188 402.324219 364.238281 402.308594 364.242188 C 400.765625 364.886719 397.066406 366.953125 397.066406 369.449219 C 397.066406 370.804688 398.105469 372.164062 399.332031 373.28125 C 400.578125 374.414062 402.015625 375.300781 402.761719 375.675781 C 402.820312 375.707031 402.871094 375.746094 402.925781 375.78125 C 403.304688 375.984375 403.976562 376.367188 404.769531 376.910156 C 407.066406 378.476562 410.347656 381.375 410.351562 385.109375 C 410.351562 390.75 402.902344 393.660156 402.585938 393.78125 C 402.570312 393.785156 402.554688 393.785156 402.539062 393.789062 C 402.523438 393.796875 402.507812 393.804688 402.492188 393.8125 C 401.261719 394.289062 398.054688 395.976562 397.25 398.121094 C 397.132812 398.4375 397.066406 398.761719 397.066406 399.09375 C 397.066406 400.003906 397.539062 400.914062 398.21875 401.75 C 399.578125 403.429688 401.777344 404.820312 402.761719 405.320312 C 402.816406 405.347656 402.863281 405.386719 402.914062 405.417969 C 404.371094 406.199219 410.351562 409.710938 410.351562 414.753906 C 410.351562 420.269531 403.246094 423.167969 402.640625 423.40625 C 402.238281 423.589844 399.4375 424.84375 396.0625 426.023438 Z M 398.6875 459.796875 C 399.257812 459.871094 401.636719 460.148438 404.53125 460.148438 C 407.484375 460.148438 410.789062 459.859375 411.566406 459.789062 C 412.429688 459.519531 416.449219 458.109375 420.90625 454.261719 C 418.511719 454.597656 415.378906 454.890625 411.695312 454.890625 C 410.691406 454.890625 409.878906 454.078125 409.878906 453.074219 C 409.878906 452.074219 410.691406 451.257812 411.695312 451.257812 C 419.648438 451.257812 424.984375 449.792969 425.035156 449.777344 C 425.105469 449.757812 425.175781 449.75 425.246094 449.742188 C 426.269531 448.460938 427.265625 447.027344 428.210938 445.429688 C 425.085938 445.828125 420.582031 446.339844 417.996094 446.339844 C 416.992188 446.339844 416.179688 445.527344 416.179688 444.527344 C 416.179688 443.523438 416.992188 442.710938 417.996094 442.710938 C 421.183594 442.710938 427.871094 441.824219 430.25 441.496094 C 430.90625 440.035156 431.507812 438.464844 432.046875 436.777344 C 428.226562 437.472656 420.933594 438.640625 415.152344 438.640625 C 414.148438 438.640625 413.332031 437.828125 413.332031 436.824219 C 413.332031 435.824219 414.148438 435.011719 415.152344 435.011719 C 421.644531 435.011719 430.480469 433.394531 433.117188 432.878906 C 433.75 430.171875 434.214844 427.203125 434.46875 423.945312 C 428.546875 427.980469 416.683594 430.066406 404.914062 430.066406 C 404.914062 430.066406 404.910156 430.066406 404.910156 430.066406 C 396.28125 430.066406 388.148438 428.96875 382.003906 426.972656 C 379.253906 426.078125 377.03125 425.046875 375.34375 423.894531 C 375.609375 427.148438 376.097656 430.121094 376.753906 432.832031 C 378.152344 433.113281 388.191406 435.082031 395.347656 435.082031 C 396.351562 435.082031 397.164062 435.894531 397.164062 436.898438 C 397.164062 437.902344 396.351562 438.714844 395.347656 438.714844 C 389.265625 438.714844 381.5 437.417969 377.875 436.746094 C 378.429688 438.414062 379.046875 439.972656 379.71875 441.421875 C 381.363281 441.65625 389.019531 442.710938 392.503906 442.710938 C 393.507812 442.710938 394.320312 443.523438 394.320312 444.527344 C 394.320312 445.527344 393.507812 446.34375 392.503906 446.34375 C 389.78125 446.34375 384.953125 445.777344 381.824219 445.371094 C 382.855469 447.066406 383.941406 448.574219 385.058594 449.914062 C 385.074219 449.917969 385.085938 449.917969 385.101562 449.921875 C 385.152344 449.9375 390.492188 451.40625 398.441406 451.40625 C 399.445312 451.40625 400.257812 452.21875 400.257812 453.21875 C 400.257812 454.222656 399.445312 455.035156 398.441406 455.035156 C 394.929688 455.035156 391.921875 454.769531 389.570312 454.453125 C 394.050781 458.195312 398.003906 459.578125 398.6875 459.796875 Z M 397.082031 468.648438 C 399.199219 468.917969 402.40625 469.257812 405.304688 469.257812 C 408.148438 469.257812 411.210938 469 413.28125 468.785156 L 410.8125 463.496094 C 409.351562 463.613281 406.871094 463.78125 404.53125 463.78125 C 402.410156 463.78125 400.582031 463.644531 399.410156 463.53125 Z M 400.878906 477.585938 L 409.375 477.585938 L 412.496094 472.511719 C 410.445312 472.703125 407.820312 472.886719 405.304688 472.886719 C 402.730469 472.886719 399.988281 472.648438 397.863281 472.402344 Z M 435.292969 508.664062 C 435.292969 505.980469 427.929688 501.929688 414.0625 500.632812 C 416.285156 502.976562 418.957031 505.234375 420.433594 505.234375 C 421.4375 505.234375 422.25 506.050781 422.25 507.050781 C 422.25 508.054688 421.4375 508.867188 420.433594 508.867188 C 415.898438 508.867188 410.078125 501.714844 408.960938 500.28125 C 408.710938 499.964844 408.574219 499.570312 408.574219 499.164062 L 408.574219 481.21875 L 401.648438 481.21875 L 401.648438 499.164062 C 401.648438 499.570312 401.515625 499.964844 401.265625 500.28125 C 400.144531 501.714844 394.328125 508.867188 389.792969 508.867188 C 388.789062 508.867188 387.976562 508.054688 387.976562 507.050781 C 387.976562 506.050781 388.789062 505.238281 389.792969 505.238281 C 391.265625 505.238281 393.921875 502.992188 396.140625 500.65625 C 382.453125 501.988281 375.191406 506.042969 375.195312 508.667969 C 375.195312 512.195312 386.625 517.113281 405.246094 517.113281 C 423.863281 517.113281 435.292969 512.191406 435.292969 508.664062 Z M 308.507812 195.375 C 310.652344 195.375 312.394531 197.117188 312.394531 199.257812 C 312.394531 200.179688 313.144531 200.929688 314.070312 200.929688 C 314.996094 200.929688 315.746094 200.179688 315.746094 199.257812 C 315.746094 197.117188 317.488281 195.375 319.628906 195.375 C 320.554688 195.375 321.304688 194.625 321.304688 193.699219 C 321.304688 192.777344 320.554688 192.027344 319.628906 192.027344 C 317.488281 192.027344 315.746094 190.285156 315.746094 188.144531 C 315.746094 187.222656 314.996094 186.472656 314.070312 186.472656 C 313.144531 186.472656 312.394531 187.222656 312.394531 188.144531 C 312.394531 190.285156 310.652344 192.027344 308.507812 192.027344 C 307.585938 192.027344 306.832031 192.777344 306.832031 193.699219 C 306.832031 194.625 307.585938 195.375 308.507812 195.375 Z M 339.46875 215.300781 C 341.613281 215.300781 343.355469 217.039062 343.355469 219.179688 C 343.355469 220.105469 344.105469 220.855469 345.03125 220.855469 C 345.957031 220.855469 346.707031 220.105469 346.707031 219.179688 C 346.707031 217.039062 348.449219 215.300781 350.589844 215.300781 C 351.515625 215.300781 352.265625 214.550781 352.265625 213.625 C 352.265625 212.699219 351.515625 211.949219 350.589844 211.949219 C 348.449219 211.949219 346.707031 210.210938 346.707031 208.070312 C 346.707031 207.144531 345.957031 206.394531 345.03125 206.394531 C 344.105469 206.394531 343.355469 207.144531 343.355469 208.070312 C 343.355469 210.210938 341.613281 211.949219 339.46875 211.949219 C 338.542969 211.949219 337.792969 212.699219 337.792969 213.625 C 337.792969 214.550781 338.542969 215.300781 339.46875 215.300781 Z M 490.316406 195.375 C 492.457031 195.375 494.199219 197.117188 494.199219 199.257812 C 494.199219 200.179688 494.949219 200.929688 495.875 200.929688 C 496.800781 200.929688 497.550781 200.179688 497.550781 199.257812 C 497.550781 197.117188 499.292969 195.375 501.4375 195.375 C 502.363281 195.375 503.113281 194.625 503.113281 193.699219 C 503.113281 192.777344 502.363281 192.027344 501.4375 192.027344 C 499.292969 192.027344 497.550781 190.285156 497.550781 188.144531 C 497.550781 187.222656 496.800781 186.472656 495.875 186.472656 C 494.949219 186.472656 494.199219 187.222656 494.199219 188.144531 C 494.199219 190.285156 492.457031 192.027344 490.316406 192.027344 C 489.390625 192.027344 488.640625 192.777344 488.640625 193.699219 C 488.640625 194.625 489.390625 195.375 490.316406 195.375 Z M 459.355469 215.300781 C 461.496094 215.300781 463.238281 217.039062 463.238281 219.179688 C 463.238281 220.105469 463.988281 220.855469 464.914062 220.855469 C 465.839844 220.855469 466.59375 220.105469 466.59375 219.179688 C 466.59375 217.039062 468.335938 215.300781 470.476562 215.300781 C 471.402344 215.300781 472.152344 214.550781 472.152344 213.625 C 472.152344 212.699219 471.402344 211.949219 470.476562 211.949219 C 468.335938 211.949219 466.59375 210.210938 466.59375 208.070312 C 466.59375 207.144531 465.839844 206.394531 464.914062 206.394531 C 463.988281 206.394531 463.238281 207.144531 463.238281 208.070312 C 463.238281 210.210938 461.496094 211.949219 459.355469 211.949219 C 458.429688 211.949219 457.679688 212.699219 457.679688 213.625 C 457.679688 214.550781 458.429688 215.300781 459.355469 215.300781 Z M 319.875 420.910156 C 318.949219 420.910156 318.199219 421.660156 318.199219 422.585938 C 318.199219 424.726562 316.457031 426.46875 314.316406 426.46875 C 313.390625 426.46875 312.640625 427.21875 312.640625 428.140625 C 312.640625 429.066406 313.390625 429.816406 314.316406 429.816406 C 316.457031 429.816406 318.199219 431.558594 318.199219 433.695312 C 318.199219 434.621094 318.949219 435.371094 319.875 435.371094 C 320.800781 435.371094 321.550781 434.621094 321.550781 433.695312 C 321.550781 431.558594 323.292969 429.816406 325.4375 429.816406 C 326.363281 429.816406 327.113281 429.066406 327.113281 428.140625 C 327.113281 427.21875 326.363281 426.46875 325.4375 426.46875 C 323.292969 426.46875 321.550781 424.726562 321.550781 422.585938 C 321.550781 421.660156 320.800781 420.910156 319.875 420.910156 Z M 334.15625 463.738281 C 332.015625 463.738281 330.273438 461.996094 330.273438 459.855469 C 330.273438 458.933594 329.523438 458.183594 328.597656 458.183594 C 327.671875 458.183594 326.921875 458.933594 326.921875 459.855469 C 326.921875 461.996094 325.179688 463.738281 323.035156 463.738281 C 322.109375 463.738281 321.359375 464.488281 321.359375 465.414062 C 321.359375 466.335938 322.109375 467.085938 323.035156 467.085938 C 325.179688 467.085938 326.921875 468.828125 326.921875 470.96875 C 326.921875 471.890625 327.671875 472.640625 328.597656 472.640625 C 329.523438 472.640625 330.273438 471.890625 330.273438 470.96875 C 330.273438 468.828125 332.015625 467.085938 334.15625 467.085938 C 335.082031 467.085938 335.832031 466.335938 335.832031 465.414062 C 335.832031 464.488281 335.082031 463.738281 334.15625 463.738281 Z M 489.890625 465.414062 C 489.890625 464.488281 489.140625 463.738281 488.214844 463.738281 C 486.074219 463.738281 484.332031 461.996094 484.332031 459.855469 C 484.332031 458.933594 483.578125 458.183594 482.652344 458.183594 C 481.726562 458.183594 480.976562 458.933594 480.976562 459.855469 C 480.976562 461.996094 479.234375 463.738281 477.09375 463.738281 C 476.167969 463.738281 475.417969 464.488281 475.417969 465.414062 C 475.417969 466.335938 476.167969 467.085938 477.09375 467.085938 C 479.234375 467.085938 480.976562 468.828125 480.976562 470.96875 C 480.976562 471.890625 481.726562 472.640625 482.652344 472.640625 C 483.578125 472.640625 484.332031 471.890625 484.332031 470.96875 C 484.332031 468.828125 486.074219 467.085938 488.214844 467.085938 C 489.140625 467.085938 489.890625 466.335938 489.890625 465.414062 Z M 366.664062 485.808594 C 364.523438 485.808594 362.78125 484.070312 362.78125 481.929688 C 362.78125 481.003906 362.027344 480.253906 361.105469 480.253906 C 360.179688 480.253906 359.425781 481.003906 359.425781 481.929688 C 359.425781 484.070312 357.683594 485.808594 355.542969 485.808594 C 354.617188 485.808594 353.867188 486.558594 353.867188 487.484375 C 353.867188 488.410156 354.617188 489.160156 355.542969 489.160156 C 357.683594 489.160156 359.425781 490.898438 359.425781 493.039062 C 359.425781 493.964844 360.179688 494.714844 361.105469 494.714844 C 362.027344 494.714844 362.78125 493.964844 362.78125 493.039062 C 362.78125 490.898438 364.523438 489.160156 366.664062 489.160156 C 367.589844 489.160156 368.339844 488.410156 368.339844 487.484375 C 368.339844 486.558594 367.589844 485.808594 366.664062 485.808594 Z M 454.449219 485.808594 C 452.304688 485.808594 450.5625 484.070312 450.5625 481.929688 C 450.5625 481.003906 449.8125 480.253906 448.886719 480.253906 C 447.960938 480.253906 447.210938 481.003906 447.210938 481.929688 C 447.210938 484.070312 445.46875 485.808594 443.328125 485.808594 C 442.402344 485.808594 441.652344 486.558594 441.652344 487.484375 C 441.652344 488.410156 442.402344 489.160156 443.328125 489.160156 C 445.46875 489.160156 447.210938 490.898438 447.210938 493.039062 C 447.210938 493.964844 447.960938 494.714844 448.886719 494.714844 C 449.8125 494.714844 450.5625 493.964844 450.5625 493.039062 C 450.5625 490.898438 452.304688 489.160156 454.449219 489.160156 C 455.375 489.160156 456.125 488.410156 456.125 487.484375 C 456.125 486.558594 455.375 485.808594 454.449219 485.808594 Z M 323.109375 506.140625 C 320.96875 506.140625 319.226562 504.398438 319.226562 502.257812 C 319.226562 501.332031 318.476562 500.582031 317.550781 500.582031 C 316.625 500.582031 315.875 501.332031 315.875 502.257812 C 315.875 504.398438 314.132812 506.140625 311.992188 506.140625 C 311.066406 506.140625 310.316406 506.890625 310.316406 507.8125 C 310.316406 508.738281 311.066406 509.488281 311.992188 509.488281 C 314.132812 509.488281 315.875 511.230469 315.875 513.367188 C 315.875 514.292969 316.625 515.042969 317.550781 515.042969 C 318.476562 515.042969 319.226562 514.292969 319.226562 513.367188 C 319.226562 511.230469 320.96875 509.488281 323.109375 509.488281 C 324.035156 509.488281 324.789062 508.738281 324.789062 507.8125 C 324.789062 506.890625 324.035156 506.140625 323.109375 506.140625 Z M 499.527344 506.140625 C 497.386719 506.140625 495.644531 504.398438 495.644531 502.257812 C 495.644531 501.332031 494.890625 500.582031 493.96875 500.582031 C 493.042969 500.582031 492.289062 501.332031 492.289062 502.257812 C 492.289062 504.398438 490.546875 506.140625 488.40625 506.140625 C 487.480469 506.140625 486.730469 506.890625 486.730469 507.8125 C 486.730469 508.738281 487.480469 509.488281 488.40625 509.488281 C 490.546875 509.488281 492.289062 511.230469 492.289062 513.367188 C 492.289062 514.292969 493.042969 515.042969 493.96875 515.042969 C 494.890625 515.042969 495.644531 514.292969 495.644531 513.367188 C 495.644531 511.230469 497.386719 509.488281 499.527344 509.488281 C 500.453125 509.488281 501.203125 508.738281 501.203125 507.8125 C 501.203125 506.890625 500.453125 506.140625 499.527344 506.140625 Z M 490.210938 420.910156 C 489.285156 420.910156 488.535156 421.660156 488.535156 422.585938 C 488.535156 424.726562 486.792969 426.46875 484.652344 426.46875 C 483.726562 426.46875 482.976562 427.21875 482.976562 428.140625 C 482.976562 429.066406 483.726562 429.816406 484.652344 429.816406 C 486.792969 429.816406 488.535156 431.558594 488.535156 433.695312 C 488.535156 434.621094 489.285156 435.371094 490.210938 435.371094 C 491.136719 435.371094 491.886719 434.621094 491.886719 433.695312 C 491.886719 431.558594 493.628906 429.816406 495.773438 429.816406 C 496.699219 429.816406 497.449219 429.066406 497.449219 428.140625 C 497.449219 427.21875 496.699219 426.46875 495.773438 426.46875 C 493.628906 426.46875 491.886719 424.726562 491.886719 422.585938 C 491.886719 421.660156 491.136719 420.910156 490.210938 420.910156 Z M 311.089844 291.488281 C 311.089844 289.347656 312.832031 287.609375 314.972656 287.609375 C 315.898438 287.609375 316.648438 286.859375 316.648438 285.933594 C 316.648438 285.007812 315.898438 284.257812 314.972656 284.257812 C 312.832031 284.257812 311.089844 282.519531 311.089844 280.378906 C 311.089844 279.453125 310.335938 278.703125 309.414062 278.703125 C 308.488281 278.703125 307.734375 279.453125 307.734375 280.378906 C 307.734375 282.519531 305.992188 284.257812 303.851562 284.257812 C 302.925781 284.257812 302.175781 285.007812 302.175781 285.933594 C 302.175781 286.859375 302.925781 287.609375 303.851562 287.609375 C 305.992188 287.609375 307.734375 289.347656 307.734375 291.488281 C 307.734375 292.414062 308.488281 293.164062 309.414062 293.164062 C 310.335938 293.164062 311.089844 292.414062 311.089844 291.488281 Z M 506.238281 362.089844 C 504.09375 362.089844 502.351562 360.351562 502.351562 358.210938 C 502.351562 357.285156 501.601562 356.535156 500.675781 356.535156 C 499.75 356.535156 499 357.285156 499 358.210938 C 499 360.351562 497.257812 362.089844 495.117188 362.089844 C 494.191406 362.089844 493.441406 362.839844 493.441406 363.765625 C 493.441406 364.691406 494.191406 365.441406 495.117188 365.441406 C 497.257812 365.441406 499 367.179688 499 369.320312 C 499 370.246094 499.75 370.996094 500.675781 370.996094 C 501.601562 370.996094 502.351562 370.246094 502.351562 369.320312 C 502.351562 367.179688 504.09375 365.441406 506.238281 365.441406 C 507.160156 365.441406 507.914062 364.691406 507.914062 363.765625 C 507.914062 362.839844 507.160156 362.089844 506.238281 362.089844 Z M 506.238281 362.089844 " fill-opacity="1" fill-rule="nonzero"/></g></svg>