<?xml version="1.0" encoding="utf-8"?>
<!-- Generator: Adobe Illustrator 29.8.1, SVG Export Plug-In . SVG Version: 9.03 Build 0)  -->
<svg version="1.0" id="Layer_1" xmlns="http://www.w3.org/2000/svg" xmlns:xlink="http://www.w3.org/1999/xlink" x="0px" y="0px"
	 viewBox="0 0 323 551" style="enable-background:new 0 0 323 551;" xml:space="preserve">
<style type="text/css">
	.st0{clip-path:url(#SVGID_00000127747383329321471360000017076260860742294682_);}
	.st1{fill:currentColor;}
</style>
<g>
	<defs>
		<rect id="SVGID_1_" width="323" height="551"/>
	</defs>
	<clipPath id="SVGID_00000101091295682728092690000008484041067243405499_">
		<use xlink:href="#SVGID_1_"  style="overflow:visible;"/>
	</clipPath>
	<g style="clip-path:url(#SVGID_00000101091295682728092690000008484041067243405499_);">
		<path class="st1" d="M317.59,5.55c-3.49-3.49-8.14-5.42-13.08-5.42H18.48c-4.94,0-9.58,1.92-13.07,5.42
			c-3.49,3.49-5.42,8.14-5.42,13.08v513.74c0,4.94,1.92,9.59,5.42,13.08c3.49,3.49,8.14,5.42,13.07,5.42h286.03
			c4.94,0,9.58-1.92,13.08-5.42c3.49-3.49,5.42-8.14,5.42-13.08V18.63C323.01,13.69,321.08,9.05,317.59,5.55z M318.26,275.5v256.87
			c0,3.8-1.54,7.23-4.03,9.72c-2.49,2.49-5.92,4.03-9.72,4.03H18.48c-3.79,0-7.23-1.54-9.71-4.03c-2.49-2.48-4.03-5.92-4.03-9.72
			V18.63c0-3.8,1.54-7.23,4.03-9.72c2.48-2.49,5.92-4.03,9.71-4.03h286.03c3.8,0,7.23,1.54,9.72,4.03c2.48,2.49,4.03,5.92,4.03,9.72
			V275.5z M89.86,510.22c0.52,0.52,0.77,1.13,0.77,1.85c0,0.72-0.26,1.34-0.77,1.85c-0.52,0.52-1.15,0.77-1.87,0.77H82.4v17.1
			c0,0.73-0.26,1.36-0.77,1.87c-0.51,0.51-1.12,0.77-1.85,0.77c-0.72,0-1.35-0.26-1.87-0.77c-0.52-0.51-0.77-1.14-0.77-1.87v-17.1
			h-5.58c-0.73,0-1.36-0.26-1.87-0.77c-0.52-0.51-0.77-1.13-0.77-1.85c0-0.72,0.26-1.34,0.77-1.85c0.51-0.52,1.14-0.78,1.87-0.78
			h16.43C88.72,509.44,89.34,509.7,89.86,510.22z M118.21,510.22c0.51,0.52,0.77,1.13,0.77,1.85v19.73c0,0.73-0.26,1.36-0.77,1.87
			c-0.52,0.51-1.15,0.77-1.87,0.77c-0.72,0-1.34-0.26-1.85-0.77c-0.51-0.51-0.77-1.14-0.77-1.87v-7.23h-11.19v7.23
			c0,0.73-0.26,1.36-0.77,1.87c-0.51,0.51-1.13,0.77-1.85,0.77c-0.74,0-1.36-0.26-1.88-0.77c-0.51-0.51-0.77-1.14-0.77-1.87v-19.73
			c0-0.72,0.26-1.34,0.77-1.85c0.52-0.52,1.14-0.78,1.88-0.78c0.72,0,1.34,0.26,1.85,0.78c0.52,0.52,0.77,1.13,0.77,1.85v7.23h11.19
			v-7.23c0-0.72,0.26-1.34,0.77-1.85c0.51-0.52,1.13-0.78,1.85-0.78C117.06,509.44,117.69,509.7,118.21,510.22z M132.84,514.7v4.61
			h10.52c0.72,0,1.35,0.26,1.88,0.77c0.51,0.52,0.77,1.14,0.77,1.88c0,0.72-0.26,1.34-0.77,1.85c-0.53,0.51-1.15,0.77-1.88,0.77
			h-10.52v4.61h13.81c0.72,0,1.35,0.26,1.87,0.77c0.52,0.51,0.77,1.13,0.77,1.85c0,0.73-0.26,1.36-0.77,1.87
			c-0.52,0.51-1.15,0.77-1.87,0.77h-16.43c-0.73,0-1.36-0.26-1.87-0.77c-0.52-0.51-0.77-1.14-0.77-1.87v-19.73
			c0-0.72,0.26-1.34,0.77-1.85c0.51-0.52,1.14-0.78,1.87-0.78h16.43c0.72,0,1.35,0.26,1.87,0.78c0.52,0.52,0.77,1.13,0.77,1.85
			c0,0.72-0.26,1.34-0.77,1.85c-0.52,0.52-1.15,0.77-1.87,0.77H132.84z M179,515.39c-0.45,0.45-0.68,0.98-0.68,1.62
			c0,0.64,0.23,1.18,0.68,1.64c0.45,0.44,0.98,0.67,1.62,0.67h6.58c2.08,0,3.86,0.74,5.34,2.22c1.48,1.48,2.22,3.27,2.22,5.35
			c0,2.08-0.74,3.86-2.22,5.34c-1.48,1.48-3.27,2.22-5.34,2.22h-11.51c-0.73,0-1.35-0.26-1.87-0.77c-0.51-0.51-0.77-1.14-0.77-1.87
			c0-0.72,0.26-1.34,0.77-1.85c0.52-0.52,1.14-0.77,1.87-0.77h11.51c0.64,0,1.17-0.22,1.62-0.67c0.46-0.46,0.68-1,0.68-1.64
			c0-0.64-0.22-1.18-0.68-1.62c-0.45-0.46-0.98-0.69-1.62-0.69h-6.58c-2.08,0-3.86-0.74-5.34-2.22c-1.48-1.47-2.22-3.26-2.22-5.35
			c0-2.08,0.74-3.86,2.22-5.34c1.48-1.48,3.26-2.22,5.34-2.22h11.51c0.72,0,1.34,0.26,1.87,0.78c0.51,0.52,0.77,1.13,0.77,1.85
			c0,0.72-0.26,1.34-0.77,1.85c-0.53,0.52-1.15,0.77-1.87,0.77h-11.51C179.98,514.7,179.45,514.93,179,515.39z M222.99,510.22
			c0.51,0.52,0.77,1.13,0.77,1.85v11.51c0,2.99-1.06,5.55-3.19,7.67c-2.11,2.12-4.67,3.19-7.67,3.19s-5.55-1.07-7.67-3.19
			c-2.12-2.11-3.19-4.67-3.19-7.67v-11.51c0-0.72,0.26-1.34,0.77-1.85c0.51-0.52,1.14-0.78,1.87-0.78c0.72,0,1.34,0.26,1.85,0.78
			c0.51,0.52,0.77,1.13,0.77,1.85v11.51c0,1.55,0.54,2.87,1.64,3.96c1.09,1.09,2.41,1.64,3.96,1.64c1.54,0,2.85-0.54,3.94-1.64
			c1.1-1.09,1.65-2.41,1.65-3.96v-11.51c0-0.72,0.26-1.34,0.77-1.85c0.51-0.52,1.12-0.78,1.85-0.78S222.47,509.7,222.99,510.22z
			 M253.31,510.22c0.51,0.52,0.77,1.13,0.77,1.85v19.73c0,0.56-0.16,1.06-0.48,1.52c-0.31,0.46-0.73,0.78-1.25,0.97
			c-0.29,0.1-0.59,0.15-0.9,0.15c-0.83,0-1.5-0.32-2.02-0.95l-11.79-14.15v12.46c0,0.73-0.26,1.36-0.77,1.87
			c-0.51,0.51-1.13,0.77-1.85,0.77c-0.73,0-1.36-0.26-1.87-0.77c-0.51-0.51-0.77-1.14-0.77-1.87v-19.73c0-0.56,0.16-1.06,0.48-1.52
			c0.31-0.44,0.72-0.76,1.25-0.95c0.52-0.19,1.05-0.21,1.59-0.07c0.53,0.15,0.98,0.43,1.33,0.85l11.79,14.15v-12.46
			c0-0.72,0.26-1.34,0.77-1.85c0.52-0.52,1.14-0.78,1.85-0.78C252.16,509.44,252.78,509.7,253.31,510.22z M130.48,52.15l6.81-8.19
			l-6.81-8.18c-0.47-0.56-0.67-1.2-0.6-1.92c0.07-0.72,0.38-1.32,0.94-1.79c0.56-0.47,1.2-0.67,1.92-0.6
			c0.72,0.07,1.32,0.38,1.79,0.94l6.2,7.45l6.19-7.45c0.47-0.56,1.07-0.87,1.79-0.94c0.72-0.06,1.36,0.14,1.92,0.6
			s0.87,1.06,0.94,1.79c0.07,0.72-0.14,1.36-0.6,1.92l-6.81,8.18l6.81,8.19c0.47,0.56,0.67,1.2,0.6,1.92
			c-0.07,0.72-0.38,1.31-0.94,1.77c-0.49,0.42-1.05,0.62-1.69,0.62c-0.81,0-1.48-0.32-2.02-0.95l-6.19-7.43l-6.2,7.43
			c-0.54,0.64-1.21,0.95-2.02,0.95c-0.65,0-1.21-0.2-1.69-0.62c-0.56-0.45-0.86-1.04-0.93-1.77
			C129.82,53.34,130.02,52.7,130.48,52.15z M159.63,55.69c-0.51-0.52-0.77-1.14-0.77-1.88V34.09c0-0.72,0.26-1.34,0.77-1.85
			c0.52-0.52,1.14-0.79,1.88-0.79c0.72,0,1.34,0.27,1.85,0.79c0.51,0.52,0.77,1.13,0.77,1.85v19.72c0,0.74-0.26,1.36-0.77,1.88
			c-0.52,0.51-1.14,0.77-1.85,0.77C160.77,56.45,160.14,56.2,159.63,55.69z M172.04,52.15l6.82-8.19l-6.82-8.18
			c-0.47-0.56-0.67-1.2-0.6-1.92c0.07-0.72,0.38-1.32,0.93-1.79c0.56-0.47,1.2-0.67,1.92-0.6c0.72,0.07,1.32,0.38,1.79,0.94
			l6.2,7.45l6.19-7.45c0.47-0.56,1.06-0.87,1.79-0.94c0.72-0.06,1.36,0.14,1.92,0.6c0.56,0.47,0.87,1.06,0.94,1.79
			c0.07,0.72-0.14,1.36-0.6,1.92l-6.82,8.18l6.82,8.19c0.46,0.56,0.67,1.2,0.6,1.92c-0.07,0.72-0.38,1.31-0.94,1.77
			c-0.49,0.42-1.05,0.62-1.69,0.62c-0.81,0-1.48-0.32-2.02-0.95l-6.2-7.43l-6.2,7.43c-0.53,0.64-1.21,0.95-2.02,0.95
			c-0.65,0-1.21-0.2-1.69-0.62c-0.55-0.45-0.86-1.04-0.93-1.77C171.37,53.34,171.57,52.7,172.04,52.15z M310.29,19.01
			c0-1.54-0.6-2.98-1.68-4.07c-0.15-0.35-0.38-0.67-0.69-0.92c-0.49-0.39-1.08-0.55-1.67-0.51c-0.56-0.18-1.15-0.3-1.75-0.3H18.48
			c-1.55,0-3.01,0.6-4.1,1.7s-1.69,2.55-1.69,4.09v417.44c-0.04,0.24-0.04,0.48,0,0.73v53.3c0.04,2.22,1.84,4.01,4.07,4.01H306.1
			c2.26,0,4.21-1.96,4.21-4.21l-0.02-214.39V19.01z M17.46,443.48c11.99,16.03,9.8,30.6,9.77,30.85c-0.02,0.09-0.02,0.18-0.02,0.27
			l-9.74,14.27V443.48z M51.77,489.63c-0.07,0.02-0.13,0.06-0.19,0.08H31.7l21.35-8.31c1.22-0.48,1.83-1.86,1.36-3.09
			c-0.48-1.23-1.86-1.83-3.09-1.36l-27.18,10.57l5.92-8.67c0.12-0.06,0.24-0.13,0.36-0.21c0.17-0.12,16.71-12.11,38.18-5.3
			C65.11,478.69,58.22,487.6,51.77,489.63z M140.67,489.71l-7.4-10.1c-0.78-1.06-2.28-1.29-3.33-0.51
			c-1.06,0.78-1.29,2.27-0.52,3.33l5.33,7.28h-9.08c-0.06-0.12-0.12-0.24-0.21-0.36c-4.04-5.51-4.53-17.76-4.29-24.62
			c17.48,5.95,25.17,19.99,27.42,24.98H140.67z M161.39,465.34L161.39,465.34c-1.62-0.01-4.76-4.88-4.76-13.75
			c0-1.09-0.74-2.04-1.8-2.31c-0.2-0.05-0.4-0.07-0.59-0.07c-0.86,0-1.67,0.47-2.1,1.25c-3.76,6.95-7.99,9.34-9.32,8.72
			c-1.27-0.59-2.2-5.21,0.47-12.31c0.35-0.95,0.08-2.02-0.7-2.67c-0.78-0.65-1.88-0.74-2.75-0.23c-6.55,3.87-11.26,3.76-12.06,2.6
			c-0.83-1.2,0.93-6,7.27-10.91c0.77-0.59,1.1-1.59,0.84-2.52c-0.26-0.93-1.05-1.62-2.02-1.73c-6.55-0.78-10.16-3.28-10.15-4.71
			c0-0.05,0-0.11-0.01-0.19c0.01-1.43,3.66-3.88,10.23-4.57c0.96-0.1,1.77-0.78,2.04-1.71c0.27-0.93-0.05-1.93-0.8-2.54
			c-6.27-4.98-7.97-9.81-7.11-11c0.81-1.14,5.53-1.19,12.03,2.77c0.86,0.53,1.96,0.45,2.75-0.19c0.78-0.64,1.08-1.7,0.73-2.66
			c-2.57-7.14-1.59-11.74-0.31-12.32c1.25-0.56,5.33,1.74,8.93,8.34c0.52,0.95,1.6,1.43,2.65,1.18c1.05-0.25,1.8-1.18,1.83-2.26
			c0.24-8.54,3.38-13.17,4.93-13.17h0.01c1.61,0.01,4.76,4.87,4.75,13.74c0,1.09,0.74,2.05,1.8,2.31c1.06,0.27,2.17-0.21,2.68-1.18
			c3.76-6.94,8.01-9.33,9.32-8.72c1.27,0.59,2.19,5.21-0.47,12.31c-0.36,0.95-0.08,2.02,0.7,2.67c0.78,0.65,1.88,0.74,2.74,0.23
			c6.55-3.86,11.27-3.75,12.06-2.6c0.84,1.2-0.93,6-7.26,10.9c-0.77,0.59-1.1,1.59-0.84,2.53c0.26,0.93,1.05,1.61,2.02,1.73
			c6.55,0.78,10.16,3.28,10.15,4.71c0,0.01,0,0.01,0,0.01c0-0.11,0.01-0.23,0.03-0.35c-0.03,0.17-0.04,0.35-0.02,0.53
			c-0.01,1.43-3.66,3.88-10.23,4.57c-0.96,0.1-1.77,0.78-2.04,1.7c-0.27,0.93,0.05,1.93,0.81,2.54c6.27,4.99,7.96,9.81,7.11,11
			c-0.82,1.14-5.53,1.19-12.03-2.77c-0.86-0.52-1.96-0.45-2.75,0.19c-0.78,0.64-1.08,1.7-0.73,2.66c2.57,7.14,1.58,11.74,0.31,12.32
			c-1.26,0.56-5.33-1.74-8.93-8.34c-0.52-0.94-1.6-1.42-2.65-1.18c-1.05,0.26-1.8,1.18-1.83,2.26
			C166.08,460.7,162.94,465.34,161.39,465.34z M198.7,489.35c-0.08,0.11-0.15,0.23-0.21,0.36h-8.89l5.07-8.62
			c0.67-1.14,0.29-2.6-0.84-3.27c-1.14-0.67-2.6-0.29-3.27,0.85l-6.49,11.04h-8.49c2.23-4.99,9.87-19.02,27.43-24.98
			C203.23,471.59,202.75,483.83,198.7,489.35z M204.03,489.71c5.01-9.99,3.62-27.55,3.56-28.35c-0.06-0.71-0.43-1.35-1.01-1.76
			c-0.58-0.41-1.32-0.54-1.99-0.35c-24.89,6.79-33.17,27.65-34.17,30.46h-6.12l0.34-20.57c2.75-1.74,4.67-5.68,5.67-10.28
			c3.79,4.49,8.01,6.43,11.37,4.92c3.59-1.6,4.9-6.53,3.71-12.92c6.04,2.45,11.12,2.14,13.42-1.06c2.46-3.43,0.67-8.9-4.33-14.15
			c5.92-1.56,9.55-4.65,9.57-8.42c0-0.03-0.01-0.1-0.01-0.16c0-0.01,0-0.01,0-0.01c0.03-3.76-3.55-6.89-9.44-8.53
			c5.07-5.18,6.94-10.63,4.53-14.09c-2.25-3.23-7.34-3.61-13.41-1.24c1.28-6.37,0.03-11.31-3.54-12.97
			c-3.39-1.57-7.77,0.46-11.67,5.06c-1.22-6.44-4.22-11.63-8.87-11.66c-0.02,0-0.03,0-0.04,0c-4.52,0-7.56,5.02-8.91,11.26
			c-3.79-4.49-8.01-6.43-11.37-4.93c-3.59,1.61-4.9,6.53-3.71,12.92c-6.04-2.44-11.12-2.14-13.42,1.06
			c-2.46,3.43-0.67,8.91,4.33,14.16c-5.92,1.56-9.54,4.63-9.56,8.35c-0.01,0.1,0,0.2,0,0.22c0,0.01,0,0.02,0,0.02
			c-0.03,3.76,3.56,6.89,9.45,8.53c-5.07,5.18-6.94,10.63-4.53,14.09c2.25,3.23,7.34,3.6,13.41,1.24
			c-1.28,6.37-0.03,11.31,3.54,12.97c3.39,1.57,7.77-0.46,11.67-5.06c1.09,5.71,3.57,10.43,7.36,11.45l-0.33,19.81h-5.77
			c-1.01-2.8-9.29-23.67-34.17-30.46c-0.68-0.19-1.42-0.06-1.99,0.35s-0.95,1.05-1.01,1.76c-0.06,0.81-1.45,18.36,3.56,28.35H60.86
			c7.45-6.2,13.08-15.92,13.39-16.45c0.35-0.6,0.41-1.33,0.18-1.98c-0.23-0.66-0.74-1.18-1.39-1.43
			c-15.65-6.04-29.01-2.94-37.13,0.45l13.43-19.66c0.15,0.09,0.28,0.2,0.43,0.27c3.38,1.57,7.76-0.45,11.67-5.05
			c1.22,6.44,4.22,11.62,8.87,11.66c0.02,0,0.03,0,0.04,0c4.52,0,7.56-5.02,8.91-11.26c3.79,4.49,8.01,6.43,11.37,4.93
			c3.59-1.61,4.9-6.53,3.71-12.92c6.04,2.45,11.13,2.15,13.42-1.06c2.46-3.43,0.67-8.91-4.33-14.16c5.92-1.56,9.54-4.64,9.57-8.41
			c0,0-0.01-0.1-0.01-0.15c0-0.01,0-0.02,0-0.03c0.03-3.77-3.56-6.89-9.44-8.54c5.07-5.18,6.93-10.63,4.53-14.09
			c-2.25-3.23-7.34-3.6-13.41-1.24c1.28-6.37,0.03-11.31-3.54-12.96c-3.39-1.58-7.77,0.45-11.67,5.05
			c-1.22-6.44-4.22-11.62-8.87-11.66c-0.02,0-0.03,0-0.04,0c-4.52,0-7.56,5.01-8.91,11.25c-3.79-4.49-8.02-6.43-11.37-4.93
			c-3.59,1.61-4.9,6.53-3.71,12.92c-6.03-2.44-11.12-2.14-13.42,1.06c-2.46,3.43-0.67,8.91,4.33,14.16
			c-5.92,1.56-9.55,4.65-9.57,8.42c0,0.07,0.01,0.15,0.01,0.16s0,0.01,0,0.01c-0.03,3.77,3.56,6.89,9.44,8.54
			c-5.07,5.18-6.93,10.63-4.53,14.09c2.25,3.23,7.34,3.6,13.41,1.24c-0.68,3.39-0.62,6.34,0.09,8.65l-14.28,20.91
			c-0.64-7.43-3.61-19.35-14.59-31.49V327.56l49.09-39.96c1.02-0.83,1.18-2.34,0.34-3.36c-0.83-1.02-2.34-1.18-3.36-0.34
			l-46.08,37.51V217.12h37.03c1.32,0,2.39-1.07,2.39-2.39s-1.07-2.39-2.39-2.39H17.46V105.33l47.78,34.6
			c0.42,0.31,0.91,0.45,1.4,0.45c0.74,0,1.47-0.34,1.93-0.98c0.78-1.07,0.54-2.56-0.53-3.33L18.22,99.98
			c-0.23-0.17-0.49-0.28-0.76-0.36V21.11l42.16,53.08c0.47,0.59,1.17,0.91,1.87,0.91c0.52,0,1.04-0.17,1.48-0.52
			c1.04-0.82,1.2-2.32,0.39-3.35L21.08,17.99h64.44l33.91,66.11c0.42,0.82,1.26,1.3,2.12,1.3c0.36,0,0.74-0.08,1.08-0.26
			c1.18-0.6,1.64-2.04,1.04-3.21L90.88,17.99h142.05l-33.6,65.53c-0.6,1.17-0.14,2.61,1.03,3.21c0.35,0.18,0.72,0.26,1.09,0.26
			c0.86,0,1.7-0.47,2.12-1.3l34.36-67c0.11-0.23,0.18-0.47,0.22-0.7h63.56l-43.53,54.82c-0.82,1.03-0.65,2.53,0.39,3.35
			c0.44,0.35,0.96,0.52,1.48,0.52c0.7,0,1.4-0.31,1.87-0.9l43.6-54.91v81.41l-48.84,35.36c-1.07,0.78-1.31,2.27-0.53,3.33
			c0.46,0.65,1.19,0.99,1.93,0.99c0.48,0,0.97-0.15,1.4-0.45l46.04-33.34v105.76h-33.7c-1.32,0-2.39,1.07-2.39,2.39
			c0,1.32,1.07,2.39,2.39,2.39h33.7v57.17l0.01,46.99l-45.94-37.39c-1.02-0.83-2.53-0.68-3.35,0.34c-0.83,1.02-0.68,2.53,0.34,3.36
			l48.95,39.84l0.01,108.32c-10.38,10.21-12.71,21.41-12.84,29l-15.84-23.58c0.02-1.39-0.12-2.9-0.42-4.51
			c6.03,2.44,11.12,2.14,13.42-1.06c2.45-3.43,0.67-8.91-4.33-14.15c5.92-1.56,9.54-4.63,9.56-8.35c0.01-0.08,0-0.14,0-0.21
			c0-0.01,0-0.02,0-0.03c0.03-3.76-3.56-6.89-9.44-8.53c5.07-5.18,6.93-10.64,4.53-14.1c-2.25-3.23-7.34-3.6-13.41-1.24
			c1.28-6.37,0.03-11.31-3.54-12.97c-3.38-1.57-7.77,0.46-11.67,5.06c-1.22-6.44-4.22-11.63-8.87-11.66c-0.02,0-0.03,0-0.04,0
			c-4.52,0-7.56,5.02-8.91,11.25c-3.79-4.49-8.02-6.43-11.37-4.92c-3.59,1.6-4.9,6.53-3.71,12.92c-6.03-2.44-11.12-2.14-13.42,1.06
			c-2.46,3.43-0.67,8.91,4.33,14.15c-5.92,1.56-9.55,4.65-9.57,8.42c0,0.08,0.01,0.15,0.01,0.16c0,0.01,0,0.01,0,0.01
			c-0.03,3.76,3.56,6.89,9.44,8.53c-5.07,5.18-6.93,10.64-4.53,14.1c2.24,3.23,7.34,3.61,13.41,1.24
			c-1.28,6.37-0.03,11.31,3.54,12.97c3.38,1.57,7.76-0.45,11.67-5.06c1.22,6.44,4.22,11.63,8.87,11.66c0.02,0,0.03,0,0.04,0
			c4.52,0,7.56-5.01,8.91-11.25c3.79,4.49,8.01,6.43,11.37,4.92c1.05-0.47,1.88-1.25,2.53-2.24l12.92,19.24
			c-6.45-2.46-17.95-4.52-33.98,1.66c-0.65,0.25-1.16,0.77-1.39,1.43c-0.23,0.66-0.17,1.38,0.18,1.98
			c0.31,0.54,5.94,10.26,13.39,16.45L204.03,489.71L204.03,489.71z M44.85,420.55c-0.26-0.94-1.05-1.62-2.02-1.73
			c-6.55-0.78-10.16-3.28-10.15-4.72c0-0.05,0-0.1-0.01-0.17c0.01-1.43,3.66-3.89,10.23-4.57c0.96-0.1,1.77-0.78,2.04-1.71
			c0.27-0.93-0.05-1.93-0.8-2.54c-6.27-4.98-7.97-9.81-7.12-11c0.82-1.14,5.53-1.19,12.03,2.77c0.86,0.53,1.96,0.45,2.74-0.19
			c0.79-0.65,1.08-1.71,0.74-2.66c-2.57-7.14-1.59-11.74-0.31-12.32c1.26-0.57,5.33,1.74,8.93,8.34c0.52,0.95,1.6,1.43,2.65,1.18
			c1.05-0.25,1.8-1.18,1.83-2.25c0.24-8.54,3.38-13.18,4.93-13.18h0.01c1.61,0.01,4.76,4.87,4.75,13.74c0,1.09,0.74,2.04,1.8,2.31
			c1.05,0.27,2.16-0.22,2.68-1.18c3.76-6.94,8.01-9.33,9.32-8.72c1.27,0.59,2.19,5.21-0.48,12.31c-0.35,0.95-0.07,2.02,0.7,2.67
			c0.78,0.65,1.88,0.74,2.74,0.23c6.55-3.86,11.27-3.75,12.06-2.6c0.83,1.2-0.93,6-7.27,10.9c-0.77,0.59-1.1,1.59-0.84,2.53
			c0.26,0.93,1.06,1.61,2.02,1.73c6.55,0.78,10.16,3.28,10.15,4.71c0,0.01,0,0.01,0,0.02c0,0.05,0.01,0.1,0.01,0.17
			c-0.01,1.43-3.66,3.88-10.22,4.57c-0.96,0.1-1.77,0.78-2.04,1.7c-0.27,0.93,0.05,1.93,0.81,2.54c6.27,4.99,7.96,9.81,7.11,11
			c-0.82,1.14-5.54,1.19-12.03-2.77c-0.86-0.52-1.96-0.45-2.75,0.19s-1.08,1.7-0.73,2.66c2.57,7.14,1.58,11.74,0.31,12.32
			c-1.26,0.56-5.33-1.74-8.93-8.34c-0.52-0.95-1.6-1.43-2.65-1.18c-1.05,0.26-1.8,1.18-1.83,2.26c-0.23,8.54-3.38,13.18-4.92,13.18
			c-0.01,0-0.01,0-0.01,0c-1.61-0.01-4.76-4.88-4.76-13.75c0-1.09-0.74-2.04-1.8-2.31c-0.19-0.05-0.39-0.07-0.58-0.07
			c-0.86,0-1.68,0.47-2.1,1.25c-3.76,6.95-8.01,9.33-9.32,8.72c-1.27-0.59-2.19-5.2,0.48-12.31c0.35-0.95,0.07-2.02-0.7-2.67
			c-0.78-0.65-1.88-0.74-2.75-0.23c-6.55,3.87-11.26,3.76-12.06,2.6c-0.83-1.2,0.93-6,7.27-10.91
			C44.78,422.48,45.11,421.48,44.85,420.55z M270.46,434.51c2.57,7.14,1.58,11.74,0.31,12.32c-1.27,0.56-5.33-1.74-8.93-8.34
			c-0.52-0.95-1.6-1.43-2.65-1.18c-1.05,0.26-1.8,1.18-1.83,2.26c-0.23,8.54-3.38,13.18-4.92,13.18c-0.01,0-0.01,0-0.01,0
			c-1.61-0.01-4.76-4.88-4.76-13.75c0-1.09-0.74-2.04-1.8-2.31c-0.2-0.05-0.39-0.07-0.59-0.07c-0.86,0-1.67,0.47-2.1,1.25
			c-3.76,6.95-8.02,9.33-9.32,8.72c-1.27-0.59-2.2-5.2,0.47-12.31c0.35-0.95,0.08-2.02-0.7-2.67c-0.78-0.65-1.88-0.74-2.75-0.23
			c-6.55,3.87-11.27,3.76-12.06,2.6c-0.83-1.2,0.93-6,7.27-10.91c0.77-0.59,1.1-1.59,0.84-2.52c-0.26-0.94-1.05-1.62-2.02-1.73
			c-6.55-0.78-10.16-3.28-10.15-4.72c0-0.05,0-0.1-0.01-0.17c0.01-1.43,3.66-3.89,10.22-4.57c0.96-0.1,1.77-0.78,2.04-1.71
			c0.27-0.93-0.05-1.93-0.81-2.54c-6.27-4.98-7.96-9.81-7.11-11c0.81-1.14,5.53-1.19,12.03,2.77c0.86,0.53,1.96,0.45,2.75-0.19
			c0.78-0.64,1.08-1.7,0.73-2.66c-2.57-7.14-1.59-11.74-0.31-12.32c1.26-0.57,5.33,1.74,8.93,8.34c0.52,0.95,1.6,1.43,2.65,1.18
			c1.05-0.25,1.8-1.18,1.83-2.25c0.24-8.54,3.38-13.18,4.93-13.18c0,0,0,0,0.01,0c1.61,0.01,4.76,4.87,4.75,13.74
			c0,1.09,0.74,2.04,1.8,2.31c1.06,0.27,2.16-0.22,2.68-1.18c3.76-6.95,8.02-9.33,9.32-8.72c1.27,0.59,2.19,5.21-0.48,12.31
			c-0.35,0.95-0.07,2.02,0.7,2.67c0.78,0.65,1.88,0.74,2.74,0.23c6.55-3.86,11.26-3.75,12.06-2.6c0.83,1.2-0.93,6-7.27,10.9
			c-0.77,0.59-1.1,1.59-0.84,2.53c0.26,0.93,1.06,1.61,2.02,1.73c6.55,0.78,10.16,3.28,10.15,4.71c0,0.01,0,0.01,0,0.02
			c0,0.05,0.01,0.1,0.01,0.17c-0.01,1.43-3.66,3.88-10.22,4.57c-0.96,0.1-1.77,0.78-2.04,1.7c-0.27,0.93,0.05,1.93,0.81,2.54
			c6.27,4.99,7.96,9.81,7.11,11c-0.81,1.14-5.53,1.19-12.03-2.77c-0.86-0.52-1.97-0.45-2.75,0.19S270.12,433.56,270.46,434.51z
			 M273.04,481l26.14,8.71h-23.51c-0.06-0.03-0.12-0.06-0.19-0.08c-6.94-2.18-13.86-11.76-16.84-16.32
			c20.88-7.01,32.08,1.4,32.59,1.79c0.56,0.44,1.25,0.58,1.9,0.46l6.15,9.15l-24.72-8.24c-1.25-0.42-2.6,0.26-3.02,1.51
			C271.11,479.23,271.79,480.58,273.04,481z M298.31,474.72c0-0.21-0.02-0.42-0.08-0.64c-0.05-0.17-4.09-15.34,7.3-29.62v41.02
			L298.31,474.72z M161.32,441.2c-8.1-0.06-14.63-6.67-14.57-14.78c0.05-8.1,6.67-14.63,14.77-14.58
			c8.11,0.06,14.64,6.67,14.58,14.78C176.04,434.73,169.43,441.26,161.32,441.2z M55.7,413.82c0.05-8.1,6.67-14.63,14.77-14.57
			c8.11,0.05,14.64,6.67,14.58,14.78c-0.06,8.1-6.67,14.63-14.78,14.58C62.17,428.55,55.65,421.93,55.7,413.82z M267.15,414.03
			c-0.06,8.1-6.67,14.63-14.78,14.58c-8.1-0.06-14.63-6.67-14.57-14.78c0.05-8.1,6.67-14.63,14.77-14.57
			C260.68,399.3,267.2,405.92,267.15,414.03z M233.98,319.79c0.13,0.07,0.26,0.13,0.4,0.18c1.44,0.49,2.98-0.47,3.14-2.01
			c0.01-0.05,0.01-0.1,0.01-0.16c0.01-0.21-0.01-0.41-0.05-0.63l-13.9-58.76l57.22-2.92c0.98-0.05,1.83-0.7,2.14-1.63
			c0.31-0.93,0.02-1.96-0.73-2.59l-45.68-38.02l45.57-33.74c0.8-0.59,1.15-1.61,0.88-2.56s-1.1-1.64-2.08-1.73l-59.27-5.36
			l16.25-56.34c0.28-0.96-0.07-1.99-0.88-2.58c-0.8-0.59-1.89-0.62-2.72-0.07l-50.36,33.01c0,0-20.17-53.7-20.19-53.73
			c-0.08-0.2-0.18-0.38-0.31-0.55c-0.03-0.04-0.06-0.07-0.09-0.11c-1.17-1.39-3.38-0.92-4.05,0.69l-19.62,52.24
			c0,0-49.88-31.88-50.12-32.03c-1.43-0.87-3.48,0.04-3.62,1.85c0,0.05-0.01,0.09-0.01,0.14c-0.01,0.22,0.02,0.43,0.07,0.65
			l14.89,56.63c0,0-58.76,5.58-58.77,5.58c-0.21,0.02-0.42,0.07-0.62,0.15c-0.04,0.02-0.08,0.04-0.12,0.05
			c-0.18,0.08-0.34,0.18-0.54,0.33c-0.94,0.73-1.11,2.11-0.49,3.1c0.03,0.05,0.05,0.08,0.08,0.12c0.12,0.17,0.26,0.33,0.43,0.47
			l42.63,34.64c-9.47,8.1-18.95,16.19-28.42,24.29c-3.05,2.61-6.1,5.21-9.15,7.82c-1.26,1.07-10.04,7.31-4.02,8.49
			c0.09,0.02,0.17,0.05,0.26,0.06l54.4,4.46l-11.02,58.05c-0.18,0.93,0.21,1.87,0.98,2.41c0.41,0.28,0.88,0.42,1.36,0.42
			c0.43,0,0.86-0.12,1.24-0.35l49.15-30.11l20.79,50.61c0.36,0.89,1.23,1.47,2.21,1.48c0.96,0,1.82-0.57,2.2-1.46l21.34-50.62
			l49.14,30.1C233.93,319.77,233.96,319.78,233.98,319.79z M270.05,247.37l-47.78-16.03c0.43-2.16,1.22-6.35,1.42-8.58l8.89-6.58
			L270.05,247.37z M267.46,178.8l-48.84,12.94c-3.06-6.91-7.32-13.16-12.52-18.49L267.46,178.8z M225.48,122.33l-31.56,41.18
			c-1.09-0.67-2.21-1.3-3.35-1.91l-4.94-13.16L225.48,122.33z M143.06,146.87c0-0.01,0-0.01,0-0.01l15.95-42.46l-0.35,49.98
			c-7.02,0.29-13.74,1.74-19.98,4.16L143.06,146.87z M98.05,121.5l39.87,25.48l-5.39,14.33c-1.11,0.58-2.21,1.18-3.29,1.82
			L98.05,121.5z M55.03,178.79l61.69-5.85c-5.61,5.67-10.15,12.39-13.28,19.84L55.03,178.79z M53.97,245.57l33.24-28.42l12.17,9.89
			c0.09,0.58,0.2,1.16,0.31,1.74L53.97,245.57z M92.16,307.76l12.23-64.4c3.84,8.27,9.44,15.57,16.31,21.42L92.16,307.76z
			 M163.38,328.11v-48.44c1.55-0.05,3.08-0.15,4.59-0.31c0.01,0,0.01,0.01,0.02,0.01l12.67,7.76L163.38,328.11z M161.26,274.95
			c-31.94,0-57.93-25.99-57.93-57.93s25.99-57.93,57.93-57.93c31.94,0,57.93,25.99,57.93,57.93S193.2,274.95,161.26,274.95z
			 M200.94,265.53c6.11-5.01,11.26-11.16,15.13-18.1l2.21,9.32c0,0.01,0,0.01,0,0.02l11.74,49.63L200.94,265.53z M126.42,330.13
			l-13.81,35.7c-0.36,0.94-1.27,1.53-2.22,1.53c-0.29,0-0.58-0.05-0.86-0.16c-1.22-0.47-1.84-1.86-1.36-3.09l13.81-35.7
			c0.48-1.23,1.86-1.84,3.09-1.36C126.28,327.52,126.9,328.9,126.42,330.13z M212.39,367.44l-14.83-37.29
			c-0.48-1.22,0.11-2.61,1.34-3.1c1.22-0.48,2.61,0.11,3.1,1.33l14.82,37.29c0.48,1.22-0.11,2.61-1.34,3.09
			c-0.29,0.12-0.59,0.17-0.88,0.17C213.66,368.94,212.76,368.38,212.39,367.44z M179.04,241.51c-0.92,0.28-1.89,0.5-2.89,0.7
			c-0.04-0.01-0.07-0.01-0.1-0.01c-0.01-0.01-0.02-0.01-0.03,0c-0.79,0-2.7-1.08-3.97-1.79c-1.81-1.02-3.53-1.98-5.14-2.16
			c-0.36-0.07-0.73-0.12-1.12-0.12c-1.51,0-2.84,0.64-3.74,1.61c-0.99-0.82-2.19-1.62-3.62-1.61c-0.05,0-0.1,0.02-0.15,0.02
			c-0.07-0.01-0.14-0.02-0.21-0.02c-1.06,0-2.04,0.31-2.83,0.83c-0.73,0.32-1.47,0.69-2.23,1.08c-1.7,0.89-3.62,1.87-5.04,1.78
			c-1.55-0.32-2.55-0.57-2.57-0.58c-1.28-0.33-2.57,0.44-2.89,1.71c-0.33,1.27,0.44,2.57,1.71,2.89c0.17,0.05,2.16,0.55,5,1.06
			c1.27,3.52,5.32,9.22,13.17,9.22c7.77,0,11.87-5.52,13.2-8.98c1.64-0.27,3.3-0.62,4.83-1.08c1.26-0.38,1.97-1.7,1.59-2.96
			C181.61,241.84,180.29,241.13,179.04,241.51z M162.37,251.37c-3.79,0-6.07-1.92-7.35-3.66c1.62,0.16,3.29,0.26,4.94,0.26
			l4.45,0.01c0.04,0,0.18,0,0.4,0c0.78,0,2.64-0.02,4.95-0.18C168.45,249.5,166.16,251.37,162.37,251.37z M153.13,227.99
			c0.91-1.2,2.66-1.58,3.97-1.69c0.46-0.04,0.93,0.06,1.33,0.28c1.32,0.72,3.29,1.52,3.99,1.52c0.83,0,2.62-0.74,3.58-1.23
			c0.16-0.08,0.32-0.15,0.49-0.19c0.74-0.2,2.62-0.56,4.03,0.39c0.76,0.51,1.24,1.3,1.35,2.21c0.16,1.3-0.76,2.49-2.06,2.65
			c-0.76,0.09-1.47-0.18-1.97-0.67c-1.01,0.49-3.46,1.59-5.42,1.59c-1.82,0-4.22-1.06-5.55-1.72c-0.1,0.03-0.2,0.05-0.27,0.07
			c-0.83,0.74-2.08,0.82-3.01,0.12C152.55,230.53,152.34,229.05,153.13,227.99z M147.15,209.2c1.32,1.05,1.84,2.14,1.89,2.25
			c0.51,1.19,1.89,1.76,3.09,1.26c1.21-0.51,1.78-1.9,1.28-3.1c-0.12-0.3-3.11-7.19-12.92-7.25l-0.48-2.02
			c-0.3-1.28-1.58-2.07-2.86-1.76c-1.28,0.3-2.07,1.58-1.76,2.86l0.38,1.57c-0.32,0.09-0.62,0.2-0.91,0.32l-1.24-1.69
			c-0.78-1.06-2.27-1.28-3.32-0.5c-1.06,0.78-1.28,2.27-0.5,3.32l1,1.36c-0.24,0.22-0.47,0.44-0.68,0.67l-1.4-0.93
			c-1.09-0.73-2.57-0.44-3.3,0.66c-0.73,1.09-0.43,2.57,0.66,3.3l1.47,0.98c-0.03,0.08-0.05,0.12-0.05,0.15
			c-0.42,1.24,0.26,2.59,1.51,3.01c0.25,0.08,0.5,0.12,0.75,0.12c0.99,0,1.92-0.63,2.26-1.63c0.01-0.03,0.55-1.58,2.17-2.95
			c0.81,2.84,3.4,4.93,6.49,4.93C143.75,214.11,146.33,212.03,147.15,209.2z M140.67,209.36c-1.12,0-2.04-0.91-2.04-2.03
			c0-0.03,0.02-0.06,0.02-0.09c0.54-0.08,1.11-0.14,1.73-0.14c0.84,0,1.61,0.07,2.31,0.19c0,0.02,0,0.03,0,0.04
			C142.7,208.45,141.79,209.36,140.67,209.36z M126.38,196.99c-0.46,0.42-1.04,0.63-1.61,0.63c-0.64,0-1.28-0.26-1.74-0.76
			c-0.89-0.96-0.83-2.46,0.13-3.35c0.24-0.23,6.05-5.52,15.29-6.52c6.8-0.73,11.22,0.73,14.31,2.08c1.2,0.53,1.76,1.93,1.23,3.13
			c-0.53,1.2-1.93,1.74-3.13,1.22c-2.71-1.18-6.24-2.31-11.91-1.71C131.26,192.54,126.42,196.94,126.38,196.99z M195.01,205.55
			l-1.4,0.93c-0.21-0.22-0.44-0.45-0.68-0.67l1.01-1.36c0.78-1.06,0.55-2.54-0.51-3.32c-1.05-0.78-2.54-0.56-3.32,0.5l-1.24,1.69
			c-0.3-0.11-0.59-0.22-0.91-0.32l0.38-1.57c0.3-1.28-0.48-2.56-1.76-2.86c-1.28-0.31-2.56,0.48-2.86,1.76l-0.48,2.02
			c-9.81,0.06-12.8,6.95-12.92,7.25c-0.51,1.21,0.07,2.6,1.28,3.1c1.21,0.5,2.6-0.07,3.1-1.28c0.01-0.02,0.51-1.15,1.88-2.24
			c0.81,2.83,3.4,4.93,6.49,4.93c3.09,0,5.68-2.09,6.49-4.93c1.57,1.34,2.14,2.84,2.17,2.94c0.33,1,1.26,1.63,2.26,1.63
			c0.25,0,0.5-0.04,0.74-0.12c1.25-0.42,1.92-1.76,1.51-3.01c-0.01-0.02-0.03-0.07-0.05-0.15l1.47-0.98
			c1.09-0.73,1.39-2.21,0.66-3.3C197.57,205.11,196.09,204.82,195.01,205.55z M185.08,207.33c0,1.12-0.91,2.03-2.03,2.03
			c-1.12,0-2.03-0.91-2.03-2.03c0-0.02,0-0.03,0-0.05c0.7-0.12,1.46-0.18,2.31-0.18c0.62,0,1.19,0.05,1.73,0.14
			C185.07,207.27,185.08,207.3,185.08,207.33z M200.57,193.51c0.96,0.89,1.02,2.4,0.13,3.35c-0.47,0.51-1.1,0.76-1.74,0.76
			c-0.57,0-1.15-0.21-1.6-0.62c-0.06-0.05-4.97-4.46-12.58-5.28c-5.67-0.6-9.19,0.53-11.91,1.71c-1.2,0.53-2.6-0.03-3.12-1.22
			c-0.53-1.2,0.02-2.6,1.22-3.13c3.09-1.35,7.51-2.81,14.32-2.08C194.52,187.98,200.33,193.28,200.57,193.51z"/>
	</g>
</g>
</svg>
