<?xml version="1.0" encoding="utf-8"?>
<!-- Generator: Adobe Illustrator 29.8.1, SVG Export Plug-In . SVG Version: 9.03 Build 0)  -->
<svg version="1.0" id="Layer_1" xmlns="http://www.w3.org/2000/svg" xmlns:xlink="http://www.w3.org/1999/xlink" x="0px" y="0px"
	 viewBox="0 0 329.02 556.95" style="enable-background:new 0 0 329.02 556.95;" xml:space="preserve">
<style type="text/css">
	.st0{clip-path:url(#SVGID_00000085968372744097826540000012506123981917701799_);}
	.st1{fill:currentColor;}
</style>
<g>
	<defs>
		<rect id="SVGID_1_" x="3.24" y="5.5" width="322.56" height="551"/>
	</defs>
	<clipPath id="SVGID_00000136410758992145974470000013844385333291512474_">
		<use xlink:href="#SVGID_1_"  style="overflow:visible;"/>
	</clipPath>
	<g style="clip-path:url(#SVGID_00000136410758992145974470000013844385333291512474_);">
		<path class="st1" d="M320.35,11.1c-3.49-3.5-8.13-5.42-13.07-5.42H21.71c-4.93,0-9.58,1.93-13.07,5.42
			c-3.49,3.5-5.42,8.14-5.42,13.09v513.62c0,4.94,1.93,9.59,5.42,13.09c3.49,3.5,8.13,5.42,13.07,5.42h285.57
			c4.94,0,9.58-1.93,13.07-5.42c3.49-3.49,5.41-8.14,5.41-13.09V24.19C325.76,19.25,323.84,14.6,320.35,11.1z M321,281v256.81
			c0,3.79-1.54,7.23-4.02,9.72c-2.48,2.49-5.91,4.02-9.7,4.02H21.71c-3.79,0-7.22-1.54-9.7-4.02c-2.48-2.49-4.02-5.92-4.02-9.72
			V24.19c0-3.79,1.54-7.23,4.02-9.71c2.49-2.49,5.91-4.03,9.7-4.03h285.57c3.79,0,7.22,1.54,9.7,4.03c2.48,2.48,4.02,5.92,4.02,9.71
			V281z M53.47,514.31c0.52,0.51,0.77,1.13,0.77,1.85c0,0.72-0.26,1.34-0.77,1.85c-0.52,0.51-1.14,0.77-1.86,0.77h-5.59v17.1
			c0,0.74-0.26,1.36-0.77,1.87c-0.52,0.51-1.13,0.77-1.85,0.77c-0.72,0-1.35-0.26-1.87-0.77c-0.51-0.51-0.77-1.13-0.77-1.87v-17.1
			h-5.57c-0.73,0-1.35-0.26-1.86-0.77c-0.52-0.52-0.77-1.13-0.77-1.85c0-0.73,0.25-1.34,0.77-1.85c0.51-0.53,1.13-0.79,1.86-0.79
			H51.6C52.32,513.52,52.95,513.78,53.47,514.31z M81.77,514.31c0.51,0.51,0.77,1.13,0.77,1.85v19.72c0,0.74-0.26,1.36-0.77,1.87
			c-0.52,0.51-1.14,0.77-1.87,0.77c-0.72,0-1.34-0.26-1.85-0.77c-0.51-0.51-0.77-1.13-0.77-1.87v-7.23H66.11v7.23
			c0,0.74-0.26,1.36-0.77,1.87c-0.52,0.51-1.13,0.77-1.85,0.77c-0.74,0-1.36-0.26-1.87-0.77c-0.51-0.51-0.77-1.13-0.77-1.87v-19.72
			c0-0.73,0.26-1.34,0.77-1.85c0.51-0.53,1.13-0.79,1.87-0.79c0.73,0,1.34,0.26,1.85,0.79c0.51,0.51,0.77,1.13,0.77,1.85v7.23h11.17
			v-7.23c0-0.73,0.26-1.34,0.77-1.85c0.51-0.53,1.13-0.79,1.85-0.79C80.62,513.52,81.25,513.78,81.77,514.31z M96.38,518.78v4.61
			h10.5c0.72,0,1.34,0.26,1.87,0.77c0.51,0.51,0.77,1.14,0.77,1.87c0,0.72-0.26,1.34-0.77,1.85c-0.53,0.52-1.15,0.77-1.87,0.77
			h-10.5v4.61h13.79c0.73,0,1.34,0.26,1.87,0.77c0.51,0.51,0.77,1.13,0.77,1.85c0,0.74-0.26,1.36-0.77,1.87
			c-0.53,0.51-1.14,0.77-1.87,0.77H93.76c-0.74,0-1.36-0.26-1.87-0.77c-0.51-0.51-0.77-1.13-0.77-1.87v-19.72
			c0-0.73,0.26-1.34,0.77-1.85c0.51-0.53,1.13-0.79,1.87-0.79h16.41c0.73,0,1.34,0.26,1.87,0.79c0.51,0.51,0.77,1.13,0.77,1.85
			c0,0.72-0.26,1.34-0.77,1.85c-0.53,0.51-1.14,0.77-1.87,0.77H96.38z M158.76,514.31c0.51,0.51,0.77,1.13,0.77,1.85v19.72
			c0,0.74-0.26,1.36-0.77,1.87c-0.53,0.51-1.15,0.77-1.87,0.77c-0.73,0-1.34-0.26-1.85-0.77c-0.51-0.51-0.77-1.13-0.77-1.87v-7.23
			h-11.17v7.23c0,0.74-0.26,1.36-0.77,1.87c-0.51,0.51-1.13,0.77-1.85,0.77c-0.74,0-1.36-0.26-1.87-0.77
			c-0.51-0.51-0.77-1.13-0.77-1.87v-19.72c0-0.73,0.26-1.34,0.77-1.85c0.51-0.53,1.13-0.79,1.87-0.79c0.72,0,1.34,0.26,1.85,0.79
			c0.51,0.51,0.77,1.13,0.77,1.85v7.23h11.17v-7.23c0-0.73,0.26-1.34,0.77-1.85c0.52-0.53,1.13-0.79,1.85-0.79
			C157.61,513.52,158.23,513.78,158.76,514.31z M173.36,518.78v4.61h10.5c0.73,0,1.35,0.26,1.87,0.77c0.51,0.51,0.77,1.14,0.77,1.87
			c0,0.72-0.26,1.34-0.77,1.85c-0.52,0.52-1.14,0.77-1.87,0.77h-10.5v4.61h13.79c0.72,0,1.34,0.26,1.87,0.77
			c0.51,0.51,0.77,1.13,0.77,1.85c0,0.74-0.26,1.36-0.77,1.87c-0.53,0.51-1.15,0.77-1.87,0.77h-16.41c-0.73,0-1.35-0.26-1.86-0.77
			c-0.52-0.51-0.77-1.13-0.77-1.87v-19.72c0-0.73,0.25-1.34,0.77-1.85c0.51-0.53,1.13-0.79,1.86-0.79h16.41
			c0.72,0,1.34,0.26,1.87,0.79c0.51,0.51,0.77,1.13,0.77,1.85c0,0.72-0.26,1.34-0.77,1.85c-0.53,0.51-1.15,0.77-1.87,0.77H173.36z
			 M217.55,527.23c0.79-1.39,1.18-2.89,1.18-4.49c0-2.54-0.9-4.71-2.7-6.51c-1.8-1.8-3.97-2.71-6.5-2.71h-9.84
			c-0.74,0-1.36,0.26-1.86,0.79c-0.52,0.51-0.77,1.13-0.77,1.85v19.72c0,0.74,0.26,1.36,0.77,1.87c0.51,0.51,1.13,0.77,1.86,0.77
			c0.73,0,1.34-0.26,1.85-0.77c0.51-0.51,0.77-1.13,0.77-1.87v-3.94h6.13l5.81,5.81c0.51,0.51,1.13,0.77,1.85,0.77
			c0.73,0,1.35-0.26,1.87-0.77c0.51-0.51,0.77-1.13,0.77-1.87c0-0.73-0.26-1.34-0.77-1.85l-3.52-3.52
			C215.76,529.67,216.79,528.58,217.55,527.23z M212.31,525.52c-0.77,0.77-1.7,1.15-2.78,1.15h-7.22v-7.9h7.22
			c1.09,0,2.02,0.39,2.78,1.17c0.78,0.77,1.17,1.7,1.17,2.79C213.48,523.82,213.09,524.75,212.31,525.52z M250.52,514.69
			c0.3,0.44,0.45,0.93,0.45,1.47v19.72c0,0.74-0.26,1.36-0.79,1.87c-0.51,0.51-1.13,0.77-1.85,0.77c-0.73,0-1.34-0.26-1.85-0.77
			c-0.51-0.51-0.77-1.13-0.77-1.87v-13.37l-5.37,5.37c-0.51,0.52-1.13,0.77-1.87,0.77c-0.73,0-1.34-0.26-1.85-0.77l-5.37-5.37v13.37
			c0,0.74-0.26,1.36-0.77,1.87c-0.51,0.51-1.13,0.77-1.85,0.77c-0.73,0-1.36-0.26-1.86-0.77c-0.52-0.51-0.77-1.13-0.77-1.87v-19.72
			c0-0.54,0.15-1.03,0.45-1.47c0.29-0.43,0.68-0.76,1.17-0.97c0.49-0.2,1-0.26,1.52-0.15c0.52,0.11,0.98,0.36,1.35,0.74l7.99,8l8-8
			c0.38-0.38,0.82-0.62,1.33-0.74c0.53-0.1,1.03-0.05,1.52,0.15C249.83,513.93,250.23,514.25,250.52,514.69z M264.02,514.31
			c0.51,0.51,0.77,1.13,0.77,1.85v19.72c0,0.74-0.26,1.36-0.77,1.87c-0.51,0.51-1.13,0.77-1.85,0.77c-0.74,0-1.36-0.26-1.87-0.77
			c-0.51-0.51-0.77-1.13-0.77-1.87v-19.72c0-0.73,0.26-1.34,0.77-1.85c0.51-0.53,1.13-0.79,1.87-0.79
			C262.89,513.52,263.51,513.78,264.02,514.31z M292.32,514.31c0.51,0.51,0.77,1.13,0.77,1.85c0,0.72-0.26,1.34-0.77,1.85
			c-0.52,0.51-1.15,0.77-1.87,0.77h-5.59v17.1c0,0.74-0.26,1.36-0.77,1.87c-0.51,0.51-1.13,0.77-1.85,0.77
			c-0.72,0-1.34-0.26-1.86-0.77c-0.52-0.51-0.77-1.13-0.77-1.87v-17.1h-5.57c-0.74,0-1.36-0.26-1.87-0.77
			c-0.51-0.52-0.77-1.13-0.77-1.85c0-0.73,0.26-1.34,0.77-1.85c0.51-0.53,1.13-0.79,1.87-0.79h16.41
			C291.17,513.52,291.8,513.78,292.32,514.31z M147.15,60.85c-0.51-0.51-0.77-1.13-0.77-1.87V39.26c0-0.73,0.26-1.34,0.77-1.85
			c0.51-0.52,1.13-0.79,1.87-0.79c0.72,0,1.34,0.27,1.85,0.79c0.51,0.51,0.77,1.13,0.77,1.85v19.72c0,0.74-0.26,1.36-0.77,1.87
			c-0.51,0.52-1.13,0.77-1.85,0.77C148.28,61.62,147.66,61.37,147.15,60.85z M159.54,57.31l6.8-8.18l-6.8-8.19
			c-0.46-0.56-0.67-1.19-0.6-1.92c0.07-0.72,0.38-1.32,0.93-1.79c0.56-0.46,1.19-0.66,1.92-0.6c0.72,0.07,1.32,0.38,1.78,0.93
			l6.19,7.45l6.18-7.45c0.47-0.56,1.06-0.87,1.78-0.93c0.73-0.07,1.36,0.13,1.92,0.6c0.56,0.47,0.87,1.07,0.93,1.79
			c0.07,0.73-0.13,1.36-0.6,1.92l-6.8,8.19l6.8,8.18c0.47,0.56,0.67,1.2,0.6,1.92c-0.07,0.73-0.38,1.32-0.93,1.77
			c-0.49,0.41-1.05,0.62-1.69,0.62c-0.81,0-1.48-0.32-2.02-0.95l-6.18-7.43l-6.19,7.43c-0.53,0.64-1.21,0.95-2.02,0.95
			c-0.64,0-1.21-0.2-1.69-0.62c-0.55-0.46-0.86-1.05-0.93-1.77C158.87,58.51,159.07,57.87,159.54,57.31z M165.22,292.58v8.4
			c0,1.32-1.07,2.38-2.38,2.38c-1.32,0-2.38-1.07-2.38-2.38v-8.4c0-1.32,1.07-2.38,2.38-2.38
			C164.15,290.19,165.22,291.26,165.22,292.58z M202.26,256.29c1,0.86,1.11,2.37,0.25,3.37c-0.47,0.55-1.13,0.83-1.8,0.83
			c-0.55,0-1.1-0.19-1.56-0.58c-22.82-19.7-19.81-44.58-19.67-45.63c0.17-1.31,1.38-2.23,2.68-2.05c1.3,0.17,2.22,1.37,2.05,2.67
			C184.17,215.13,181.45,238.33,202.26,256.29z M220.04,392.45v35.12c0,1.32-1.07,2.38-2.38,2.38c-1.31,0-2.38-1.07-2.38-2.38
			v-35.12c0-1.32,1.07-2.38,2.38-2.38C218.98,390.07,220.04,391.13,220.04,392.45z M220.04,357.34V381c0,1.32-1.07,2.38-2.38,2.38
			c-1.31,0-2.38-1.07-2.38-2.38v-23.67c0-1.31,1.07-2.38,2.38-2.38C218.98,354.95,220.04,356.02,220.04,357.34z M214.9,204.28
			c0-31.26-4.64-36.04-5.3-36.56c-1.05-0.11-1.94-0.91-2.11-2.01c-0.2-1.31,0.69-2.52,2-2.72c0.48-0.07,1.8-0.12,3.27,1.15
			c4.58,3.94,6.9,17.44,6.9,40.14c0,1.32-1.07,2.38-2.38,2.38C215.97,206.67,214.9,205.6,214.9,204.28z M107.99,468.54
			c0,1.32-1.07,2.38-2.38,2.38h-8.38c-1.31,0-2.38-1.07-2.38-2.38c0-1.32,1.07-2.38,2.38-2.38h8.39
			C106.92,466.15,107.99,467.22,107.99,468.54z M189.55,370.44v22.33c0,1.32-1.07,2.38-2.38,2.38c-1.31,0-2.38-1.07-2.38-2.38
			v-22.33c0-1.32,1.07-2.38,2.38-2.38C188.49,368.06,189.55,369.13,189.55,370.44z M82.73,308.98c0-1.22,0.98-2.2,2.2-2.2
			c2.81,0,5.09-2.29,5.09-5.1c0-1.22,0.99-2.2,2.2-2.2c1.21,0,2.2,0.99,2.2,2.2c0,2.81,2.29,5.1,5.09,5.1c1.22,0,2.2,0.99,2.2,2.2
			c0,1.22-0.99,2.2-2.2,2.2c-2.8,0-5.09,2.29-5.09,5.1c0,1.22-0.99,2.2-2.2,2.2c-1.22,0-2.2-0.99-2.2-2.2c0-2.81-2.28-5.1-5.09-5.1
			C83.71,311.18,82.73,310.2,82.73,308.98z M112.38,381.5c0,1.22-0.99,2.2-2.2,2.2c-2.81,0-5.09,2.29-5.09,5.1
			c0,1.22-0.99,2.21-2.2,2.21c-1.22,0-2.2-0.99-2.2-2.21c0-2.81-2.28-5.1-5.09-5.1c-1.22,0-2.2-0.99-2.2-2.2
			c0-1.22,0.98-2.2,2.2-2.2c2.81,0,5.09-2.29,5.09-5.1c0-1.22,0.99-2.2,2.2-2.2c1.21,0,2.2,0.99,2.2,2.2c0,2.81,2.28,5.1,5.09,5.1
			C111.39,379.3,112.38,380.29,112.38,381.5z M61.73,334.6c1.21,0,2.2,0.99,2.2,2.2c0,2.81,2.28,5.1,5.09,5.1
			c1.22,0,2.2,0.99,2.2,2.21c0,1.22-0.99,2.2-2.2,2.2c-2.81,0-5.09,2.29-5.09,5.1c0,1.22-0.99,2.2-2.2,2.2c-1.22,0-2.2-0.99-2.2-2.2
			c0-2.81-2.28-5.1-5.09-5.1c-1.22,0-2.2-0.99-2.2-2.2c0-1.22,0.99-2.21,2.2-2.21c2.81,0,5.09-2.29,5.09-5.1
			C59.53,335.58,60.51,334.6,61.73,334.6z M65.11,405.17c0,1.22-0.98,2.2-2.2,2.2c-2.81,0-5.09,2.29-5.09,5.1
			c0,1.22-0.99,2.2-2.2,2.2c-1.21,0-2.2-0.99-2.2-2.2c0-2.81-2.29-5.1-5.09-5.1c-1.22,0-2.2-0.99-2.2-2.2s0.99-2.2,2.2-2.2
			c2.8,0,5.09-2.29,5.09-5.1c0-1.22,0.99-2.2,2.2-2.2c1.22,0,2.2,0.99,2.2,2.2c0,2.81,2.28,5.1,5.09,5.1
			C64.13,402.97,65.11,403.95,65.11,405.17z M287.7,389.14c0,1.22-0.99,2.2-2.2,2.2c-2.81,0-5.1,2.29-5.1,5.1
			c0,1.22-0.98,2.2-2.2,2.2c-1.22,0-2.2-0.99-2.2-2.2c0-2.81-2.28-5.1-5.09-5.1c-1.21,0-2.2-0.99-2.2-2.2s0.99-2.2,2.2-2.2
			c2.81,0,5.09-2.29,5.09-5.1c0-1.22,0.99-2.2,2.2-2.2c1.22,0,2.2,0.99,2.2,2.2c0,2.81,2.29,5.1,5.1,5.1
			C286.72,386.94,287.7,387.92,287.7,389.14z M94.54,252.87c0-1.22,0.99-2.2,2.2-2.2c2.81,0,5.09-2.29,5.09-5.1
			c0-1.22,0.99-2.2,2.2-2.2c1.22,0,2.2,0.99,2.2,2.2c0,2.81,2.28,5.1,5.09,5.1c1.22,0,2.2,0.99,2.2,2.2c0,1.22-0.99,2.2-2.2,2.2
			c-2.81,0-5.09,2.29-5.09,5.1c0,1.22-0.99,2.2-2.2,2.2c-1.21,0-2.2-0.99-2.2-2.2c0-2.81-2.28-5.1-5.09-5.1
			C95.53,255.07,94.54,254.09,94.54,252.87z M263.35,249.48c1.22,0,2.2,0.99,2.2,2.2c0,2.81,2.29,5.1,5.1,5.1
			c1.21,0,2.2,0.99,2.2,2.2s-0.99,2.2-2.2,2.2c-2.81,0-5.1,2.29-5.1,5.1c0,1.22-0.98,2.21-2.2,2.21c-1.22,0-2.2-0.99-2.2-2.21
			c0-2.81-2.29-5.1-5.1-5.1c-1.22,0-2.2-0.99-2.2-2.2s0.99-2.2,2.2-2.2c2.81,0,5.1-2.29,5.1-5.1
			C261.15,250.46,262.13,249.48,263.35,249.48z M244.71,124.63c0-1.22,0.99-2.2,2.2-2.2c2.81,0,5.09-2.29,5.09-5.1
			c0-1.22,0.99-2.2,2.2-2.2c1.22,0,2.2,0.99,2.2,2.2c0,2.81,2.28,5.1,5.09,5.1c1.22,0,2.2,0.99,2.2,2.2s-0.99,2.2-2.2,2.2
			c-2.81,0-5.09,2.29-5.09,5.1c0,1.22-0.99,2.2-2.2,2.2c-1.21,0-2.2-0.99-2.2-2.2c0-2.81-2.28-5.1-5.09-5.1
			C245.7,126.82,244.71,125.84,244.71,124.63z M268.86,60.75c0-1.22,0.98-2.2,2.2-2.2c2.81,0,5.09-2.29,5.09-5.1
			c0-1.22,0.99-2.2,2.2-2.2c1.21,0,2.2,0.99,2.2,2.2c0,2.81,2.28,5.1,5.09,5.1c1.22,0,2.2,0.99,2.2,2.2c0,1.22-0.99,2.2-2.2,2.2
			c-2.81,0-5.09,2.29-5.09,5.1c0,1.22-0.99,2.2-2.2,2.2c-1.22,0-2.2-0.99-2.2-2.2c0-2.81-2.28-5.1-5.09-5.1
			C269.85,62.95,268.86,61.97,268.86,60.75z M40.94,60.75c0-1.22,0.99-2.2,2.2-2.2c2.81,0,5.1-2.29,5.1-5.1c0-1.22,0.99-2.2,2.2-2.2
			c1.22,0,2.2,0.99,2.2,2.2c0,2.81,2.28,5.1,5.09,5.1c1.22,0,2.2,0.99,2.2,2.2c0,1.22-0.98,2.2-2.2,2.2c-2.81,0-5.09,2.29-5.09,5.1
			c0,1.22-0.99,2.2-2.2,2.2s-2.2-0.99-2.2-2.2c0-2.81-2.29-5.1-5.1-5.1C41.93,62.95,40.94,61.97,40.94,60.75z M210.17,72.97
			c0-1.22,0.99-2.2,2.2-2.2c2.81,0,5.1-2.29,5.1-5.1c0-1.22,0.98-2.2,2.2-2.2c1.22,0,2.2,0.99,2.2,2.2c0,2.81,2.29,5.1,5.1,5.1
			c1.22,0,2.2,0.99,2.2,2.2c0,1.22-0.99,2.2-2.2,2.2c-2.81,0-5.1,2.29-5.1,5.1c0,1.22-0.98,2.2-2.2,2.2c-1.22,0-2.2-0.99-2.2-2.2
			c0-2.81-2.29-5.1-5.1-5.1C211.15,75.17,210.17,74.18,210.17,72.97z M290.7,301.3c0,2.81,2.28,5.1,5.09,5.1
			c1.22,0,2.2,0.99,2.2,2.2c0,1.22-0.98,2.2-2.2,2.2c-2.81,0-5.09,2.29-5.09,5.1c0,1.22-0.99,2.2-2.2,2.2s-2.2-0.99-2.2-2.2
			c0-2.81-2.29-5.1-5.09-5.1c-1.22,0-2.2-0.99-2.2-2.2c0-1.22,0.99-2.2,2.2-2.2c2.8,0,5.09-2.29,5.09-5.1c0-1.22,0.98-2.2,2.2-2.2
			S290.7,300.08,290.7,301.3z M60.35,267.96c1.21,0,2.2,0.99,2.2,2.2s-0.99,2.2-2.2,2.2c-2.81,0-5.1,2.29-5.1,5.1
			c0,1.22-0.99,2.2-2.2,2.2c-1.22,0-2.2-0.99-2.2-2.2c0-2.81-2.28-5.1-5.09-5.1c-1.22,0-2.2-0.99-2.2-2.2s0.99-2.2,2.2-2.2
			c2.81,0,5.09-2.29,5.09-5.1c0-1.22,0.99-2.2,2.2-2.2c1.21,0,2.2,0.99,2.2,2.2C55.25,265.67,57.54,267.96,60.35,267.96z
			 M288.17,189.6c1.22,0,2.2,0.99,2.2,2.2c0,1.22-0.99,2.2-2.2,2.2c-2.81,0-5.09,2.29-5.09,5.1c0,1.22-0.99,2.2-2.2,2.2
			c-1.21,0-2.2-0.99-2.2-2.2c0-2.81-2.28-5.1-5.09-5.1c-1.22,0-2.2-0.99-2.2-2.2c0-1.22,0.99-2.2,2.2-2.2c2.81,0,5.09-2.29,5.09-5.1
			c0-1.22,0.99-2.2,2.2-2.2c1.22,0,2.2,0.99,2.2,2.2C283.08,187.31,285.36,189.6,288.17,189.6z M313.07,467.58L313.05,281V24.19
			c0-1.55-0.6-3-1.69-4.09c-1.09-1.09-2.54-1.7-4.09-1.7H21.7c-1.55,0-3,0.6-4.09,1.7s-1.69,2.55-1.69,4.09v471.36
			c0.04,2.22,1.84,4,4.06,4h288.88c2.25,0,4.2-1.96,4.2-4.21v-24.32c0.45-0.43,0.74-1.04,0.74-1.72
			C313.8,468.62,313.52,468.02,313.07,467.58z M20.68,24.19c0-0.28,0.1-0.52,0.3-0.72c0.2-0.19,0.44-0.3,0.72-0.3h285.56
			c0.28,0,0.52,0.1,0.72,0.3c0.2,0.2,0.3,0.44,0.3,0.72V281l0.02,155.95h-74.23c0.03-0.26,0.05-0.53,0.05-0.81
			c0-2.25,1.41-5.6,1.96-6.69l-0.04-0.02c0.75-2.29,0.57-14.02-1.23-105.27c-1.06-54.17-2.27-115.56-1.81-123.4
			c1.26-21.52-6.54-36.95-10.86-43.72c0.78-0.26,1.5-0.67,2.07-1.33c0.78-0.91,1.49-2.54,0.46-5.15c-0.69-1.75-0.71-2.66-0.73-3.54
			c-0.06-2.9-0.83-4.42-5.53-8.31c-3.82-3.17-3.82-3.17-2.97-5.49c0.2-0.54,0.42-1.14,0.66-1.84c1.35-4.05-2.77-9.24-9.21-16.69
			c-1.53-1.77-3.51-4.06-4.38-5.34c0.04-0.01,0.09-0.01,0.12-0.02c1.54-0.21,4.72-0.67,5.29-4.04c0.28-1.69-0.31-3.53-1.65-5.2
			c-3.09-3.83-9.56-6.34-17.33-6.71c-12.65-0.6-19.25,5.35-28.48,18.06c-6.78,9.34-4.03,23.34-1.74,30.98
			c-2.19-1.03-4.66-2.23-7.17-3.51v-28.76c0-0.33,0.07-0.65,0.19-0.96l6.22-15.17c0.32-0.79,0.22-1.7-0.26-2.4l-6.55-9.46
			c-1.01-1.47-3.18-1.45-4.17,0.03l-6.32,9.46c-0.45,0.68-0.55,1.55-0.26,2.32l5.91,15.2c0.12,0.29,0.17,0.6,0.17,0.91v26.14
			c-4.9-2.7-9.23-5.45-10.88-7.48c-1.72-2.1-3.53-1.98-4.47-1.72c-0.03,0.01-0.07,0.03-0.1,0.04l-18.76-14.47L100.28,103
			c-2.65-2.94-11.03-11.43-16.76-8.73c-3.99,1.88-5.72,5.7-6.43,8c-1.41,0.26-3.21,0.9-4.21,2.42c-0.49,0.75-1.17,2.33-0.22,4.58
			c-1.9,1.83-4.27,5.54-4.27,12.66c0,4.13,1.14,7.28,3.39,9.35c0.74,0.67,1.5,1.14,2.25,1.5c-5.69,1.39-8.54,4.36-9.8,6.16h-2.23
			c-2.89,0-5.24,2.35-5.24,5.25v2.58c0,2.18,1.32,4.04,3.21,4.84v42.49c-1.88,0.8-3.21,2.67-3.21,4.84v2.59
			c0,2.9,2.35,5.25,5.24,5.25h37.7c2.89,0,5.24-2.35,5.24-5.25v-2.59c0-2.62-1.95-4.79-4.47-5.17v-41.82
			c2.52-0.38,4.47-2.54,4.47-5.17v-2.59c0-2.9-2.35-5.25-5.24-5.25h-2.17c-1.17-1.71-3.93-4.65-9.54-6.08
			c0.81-0.33,1.64-0.81,2.42-1.49c2.04-1.81,3.08-4.49,3.08-7.98c0-2.26-0.16-4.11-0.41-5.63c0.99,0.34,1.98,0.64,2.91,0.85
			l5.17,3.83c-3.96,5.84-2.46,7.34-1.7,8.1c0.73,0.73,2.27,1.56,5.4,3.2c2.65,1.39,5.94,3.13,7.9,4.53
			c2.68,1.91,7.7,7.8,10.08,10.73c-1.22,8.6-5.91,48.41-1.47,54.34c2.91,3.88,7.59,4.25,10.31,4.09c1.2,2.86,2.86,4.15,4.29,4.7
			c-0.34,18.67-2.82,158.6-2.82,172.49c0,12.1,7.7,17.22,12.94,18.63c0.11,0.36,0.26,0.7,0.42,1.04v33.04H20.68V24.19z M140,208.13
			c-0.64-0.45-1.22-0.62-1.96-0.35c-0.44,0.06-1.49-0.62-2.27-3.02c0.01-0.06,0.03-0.13,0.04-0.19l1.14-18.07
			c0.08-1.31-0.91-2.45-2.23-2.53c-1.33-0.09-2.45,0.92-2.53,2.23l-1.05,16.49c-1.74,0.08-4.46-0.17-5.97-2.18
			c-2.31-3.63-0.09-35.42,2.52-51.85c1.05-7.32,3.02-14.56,4.46-16.64c2.55,2.91,8.45,6.49,14.34,9.63v18.91
			c-1.27,0.17-2.55,0.57-3.77,1.21c-2.9,1.52-4.71,3.99-4.96,6.78c-0.56,6.18,3.49,12.81,3.96,13.54c1.03,1.63,2.64,2.77,4.78,3.45
			v212.85c-3.03-1.06-8.6-4.29-8.6-13.75c0-14.77,2.83-172.86,2.86-174.45C140.78,209.39,140.65,208.59,140,208.13z M88.72,123.38
			c0,2.05-0.49,3.52-1.45,4.39c-0.3,0.26-0.62,0.45-0.95,0.6v-2.59H74.81v1.76c-1.09-1.15-1.66-3.02-1.66-5.61
			c0-5.78,1.82-8.31,2.9-9.31c3.3,1.74,7.88,2.15,10.11,2.25c0.3,0.14,0.75,0.36,1.27,0.6C87.86,116.25,88.72,118.4,88.72,123.38z
			 M76.33,193.68v-41.66h8.13v41.66H76.33z M71.57,152.02v41.66h-6.84v-41.66H71.57z M89.23,193.68v-41.66h6.47v41.66H89.23z
			 M106.34,123.37l1.47-1.93l-0.25-0.18l0.33,0.13l3.41-3.56l16.35,12.61c-1.69,3.04-2.93,7.66-3.81,12.34
			c-2.53-2.95-5.95-6.69-8.32-8.39c-2.23-1.59-5.54-3.33-8.46-4.87c-1.19-0.62-2.58-1.36-3.45-1.85
			C104.12,126.6,105.23,124.85,106.34,123.37z M151.56,409.06c6.38,3.07,16.42,2.56,21.34,2.06v13.93c0,1.6,0.64,3.04,1.84,4.15
			c2.66,2.44,7.66,2.83,10.84,2.78c0.2,2.28,0.69,4.01,1.38,5.36h-35.41L151.56,409.06L151.56,409.06z M222.62,436.95v0.08
			c-2.31,0.05-5.05,0.05-8.05,0.05h-17.3c-4.97,0-7.03,0-7.03-7.59c0-0.66-0.28-1.3-0.77-1.76c-0.22-0.2-0.47-0.35-0.74-0.46h0.95
			v-24.38h-4.76v24.31c-2.77-0.04-5.82-0.46-6.97-1.52c-0.25-0.23-0.3-0.4-0.3-0.63v-16.63c0-0.19-0.03-0.37-0.07-0.55h0.07v-61.52
			h-4.76v59.96c-2.08,0.21-4.82,0.4-7.68,0.38v-94.28h-4.76v94.03c-3.35-0.35-6.43-1.11-8.31-2.58c-0.22-0.17-0.41-0.36-0.59-0.54
			v-217.1c0.42,0,0.83,0.01,1.27-0.01c1.24-0.05,2.08-0.11,2.71-0.15c1.29-0.09,1.3-0.09,3.39,0.55l0.17,0.05
			c2.06,0.64,4.53,1.85,6.1,2.67c-0.41,8.23-0.55,17.88,0.32,25.59c0.2,3.62,2.33,35.57,15.87,42.64c0.35,0.18,0.73,0.27,1.1,0.27
			c0.86,0,1.69-0.46,2.11-1.28c0.61-1.17,0.15-2.61-1.01-3.22c-9.45-4.93-12.82-29.6-13.33-38.81c-1.7-15.09,0.66-38.63,1-41.9
			l8.14-17.69c1.05-1.71,1.65-3.6,1.39-7.51c-0.55-8.31,1.18-12.18-1.57-19.39c-5.1-13.38-13-8.86-13.39-3.65
			c-0.83,10.94,2.29,11.88,5.15,24.62c0.85,3.77,1.5,6.47,2.02,8.45l-6.23,13.53c-0.11,0.23-0.17,0.48-0.2,0.74
			c-0.01,0.08-0.04,0.32-0.07,0.67c-2.12-0.51-4.23-1.32-4.8-2.07c-3.1-4.06-6.18-6.94-9.43-8.79c-0.22-0.13-0.46-0.23-0.69-0.33
			v-16.99c5.04,2.5,9.29,4.39,10.31,4.83c0.89,0.39,1.94,0.2,2.63-0.49c0.69-0.69,0.9-1.73,0.52-2.63
			c-0.09-0.21-8.66-20.76-0.69-31.73c8.54-11.77,13.79-16.61,24.4-16.1c7.56,0.36,12.11,2.79,13.84,4.95
			c0.47,0.58,0.63,1.04,0.66,1.29c-0.31,0.1-0.88,0.18-1.25,0.23c-1.3,0.19-2.91,0.42-3.93,1.81c-0.42,0.58-0.87,1.57-0.63,3.03
			c0.31,1.86,2.13,4.02,5.88,8.36c2.62,3.03,8.76,10.13,8.29,12.06c-0.21,0.64-0.42,1.2-0.6,1.7c-1.74,4.68-1.08,6.3,4.39,10.83
			c3.77,3.12,3.78,3.66,3.8,4.74c0.03,1.06,0.06,2.66,1.06,5.19c0.04,0.1,0.07,0.19,0.09,0.27c-0.41,0.05-1.02,0.04-1.61-0.04
			c-1.32-1.15-4.67-3.5-10.76-4.52c-1.97-0.33-7.95-1.32-9.63-4.06c-0.68-1.12-2.15-1.48-3.27-0.79c-1.12,0.68-1.48,2.15-0.79,3.28
			c2.81,4.6,9.89,5.78,13.06,6.31c5.75,0.96,8.31,3.41,8.51,3.61c0.95,1.21,13.93,18.07,12.4,44.12
			c-0.47,8.02,0.68,66.87,1.8,123.77c0.95,48.38,1.94,98.36,1.6,103.39c-0.57,1.22-2.31,5.15-2.31,8.5c0,0.09,0,0.15-0.01,0.19
			c-0.54,0.33-2.04,0.52-4.2,0.62L222.62,436.95L222.62,436.95z M232.28,426.67c0.3-0.3,0.69-0.53,1.18-0.62
			C233.01,426.14,232.6,426.35,232.28,426.67z M20.68,494.78v-8.92c0.32,0.17,0.68,0.27,1.07,0.27h80.04c1.32,0,2.38-1.07,2.38-2.38
			c0-1.32-1.07-2.39-2.38-2.39H21.76c-0.39,0-0.75,0.1-1.07,0.27v-9.97c0.1,0.01,0.2,0.03,0.31,0.03h66.32
			c1.31,0,2.38-1.07,2.38-2.38c0-1.32-1.07-2.39-2.38-2.39H20.99c-0.1,0-0.2,0.02-0.31,0.04v-11.56c0.33,0.16,0.69,0.27,1.08,0.27
			h80.04c1.32,0,2.38-1.07,2.38-2.38s-1.07-2.38-2.38-2.38H21.76c-0.39,0-0.75,0.1-1.07,0.27v-9.04h125.82v26.77
			c0,1.83,0.75,3.27,2.57,3.27c1.69,0,2.48-1.22,2.48-3.29v-26.74h49.42c0.02,1.01-0.04,2.07-0.25,2.9
			c-0.55,2.22-4.98,4.43-18.81,6.1c-13.84,1.66-13.28,5.54-13.28,5.54c0.55,7.76,17.71,4.43,17.71,4.43s-20.48,3.88-18.82,11.09
			s31.54,2.22,49.25-1.11c17.71-3.32,7.75-17.73,7.75-23.27c0-2.28,0-4.37,0-6.05c0.08,0,0.15-0.01,0.23-0.01h83.54v9.16h-62.81
			c-1.31,0-2.38,1.07-2.38,2.38s1.07,2.39,2.38,2.39h62.81l0.01,11.26h-36.9c-1.32,0-2.38,1.07-2.38,2.38
			c0,1.32,1.07,2.38,2.38,2.38h36.9v9.67h-71.96c-1.32,0-2.38,1.07-2.38,2.38s1.07,2.38,2.38,2.38h71.96v8.65H20.68z M242.34,468.54
			c0-1.32,1.07-2.38,2.38-2.38h7.62c1.31,0,2.38,1.07,2.38,2.38c0,1.32-1.07,2.38-2.38,2.38h-7.62
			C243.4,470.92,242.34,469.85,242.34,468.54z"/>
	</g>
</g>
</svg>
