<?xml version="1.0" encoding="utf-8"?>
<!-- Generator: Adobe Illustrator 29.8.1, SVG Export Plug-In . SVG Version: 9.03 Build 0)  -->
<svg version="1.0" id="Layer_1" xmlns="http://www.w3.org/2000/svg" xmlns:xlink="http://www.w3.org/1999/xlink" x="0px" y="0px"
	 viewBox="0 0 318.02 542.89" style="enable-background:new 0 0 318.02 542.89;" xml:space="preserve">
<style type="text/css">
	.st0{clip-path:url(#SVGID_00000168099030247891718450000007345571797626183835_);}
	.st1{fill:currentColor;}
</style>
<g>
	<defs>
		<rect id="SVGID_1_" x="0.02" width="318" height="542.89"/>
	</defs>
	<clipPath id="SVGID_00000158011527330555976770000006590442986972011198_">
		<use xlink:href="#SVGID_1_"  style="overflow:visible;"/>
	</clipPath>
	<g style="clip-path:url(#SVGID_00000158011527330555976770000006590442986972011198_);">
		<path class="st1" d="M312.65,5.52c-3.44-3.44-8.02-5.34-12.89-5.34H18.22c-4.86,0-9.44,1.9-12.89,5.34C1.9,8.97,0,13.55,0,18.42
			v506.16c0,4.87,1.9,9.45,5.34,12.9c3.44,3.45,8.02,5.34,12.89,5.34h281.53c4.87,0,9.45-1.9,12.89-5.34
			c3.44-3.44,5.34-8.03,5.34-12.9V18.42C317.98,13.55,316.08,8.97,312.65,5.52z M313.29,271.5v253.08c0,3.74-1.52,7.12-3.96,9.57
			c-2.45,2.45-5.83,3.97-9.57,3.97H18.22c-3.73,0-7.11-1.52-9.56-3.97c-2.45-2.45-3.96-5.83-3.96-9.57V18.42
			c0-3.74,1.52-7.13,3.96-9.57c2.45-2.45,5.83-3.97,9.56-3.97h281.53c3.73,0,7.12,1.52,9.57,3.97c2.45,2.45,3.96,5.83,3.96,9.57
			V271.5z M305.45,18.42c0-1.53-0.59-2.96-1.67-4.03c-1.07-1.08-2.51-1.67-4.03-1.67H18.22c-1.53,0-2.96,0.59-4.03,1.67
			c-1.08,1.08-1.67,2.51-1.67,4.03v464.51c0.04,2.19,1.82,3.95,4.01,3.95h284.8c2.21,0,4.14-1.93,4.14-4.15l-0.02-211.22V18.42z
			 M28.16,372.34c-1.02-5.55-3.06-24.89,13.36-40.92c18.06-17.62,36.44-58.8,40.67-78.29c4.69-21.61,14.67-35.45,17.38-38.9
			c0.07-0.06,0.14-0.11,0.2-0.18c0.06-0.07,2.59-2.8,7.89-6.2c-6.79,11.26-5.38,23.1-5.29,23.74c0.15,1.18,1.16,2.04,2.32,2.04
			c0.1,0,0.2-0.01,0.31-0.02c1.28-0.17,2.19-1.35,2.03-2.64c-0.09-0.73-2.1-17.97,12.11-29.1c1.12-0.47,2.29-0.93,3.51-1.38
			c-0.75,1.42-1.47,2.9-2.12,4.46c-0.51,1.19,0.05,2.57,1.25,3.08c0.3,0.12,0.6,0.18,0.91,0.18c0.92,0,1.79-0.54,2.16-1.44
			c0.7-1.65,1.45-3.22,2.26-4.67c0.55-1,0.3-2.22-0.55-2.93c8.73-2.74,19.72-4.76,33.21-4.76c12.68,0,23.04,1.8,31.34,4.3
			c-0.16,0.05-0.32,0.11-0.47,0.2c-1.14,0.62-1.55,2.06-0.92,3.19c0.81,1.45,1.57,3.03,2.26,4.67c0.38,0.9,1.25,1.44,2.16,1.44
			c0.31,0,0.61-0.06,0.91-0.19c1.2-0.51,1.76-1.89,1.25-3.08c-0.76-1.8-1.59-3.52-2.47-5.12c-0.06-0.11-0.14-0.22-0.22-0.32
			c1.81,0.6,3.52,1.24,5.12,1.89c14.06,11.14,12.28,29.32,12.25,29.6c-0.15,1.29,0.78,2.45,2.07,2.6c0.09,0.01,0.18,0.02,0.27,0.02
			c1.18,0,2.19-0.89,2.33-2.08c0.08-0.67,1.34-12.84-5.55-24.26c3.96,2.56,6.42,4.8,7.55,5.92c0.04,0.05,0.06,0.1,0.1,0.15
			c0.12,0.15,12.65,14.78,18.07,39.77c4.23,19.49,22.61,60.67,40.67,78.29c16.42,16.03,14.39,35.37,13.36,40.92
			c-1.35,7.4-4.54,13.26-8.48,15.81c-1.54-1.85-2.72-2.87-3.12-3.19c-1.49-1.42-2.99-2.77-4.53-4.07
			c15.14-16.65,0.98-37.4-12.73-57.48c-2.74-4.02-5.58-8.17-8.14-12.23c-9.48-15.05-13.75-24.96-16.68-32.68
			c-0.46-1.21-1.82-1.82-3.03-1.36c-1.21,0.46-1.82,1.82-1.36,3.03c2.83,7.47,7.34,18.03,17.09,33.52c2.6,4.13,5.46,8.32,8.23,12.37
			c13.29,19.47,25.85,37.88,12.93,51.88c-3.92-2.96-8.11-5.54-12.81-7.63c7.38-11.12,5.01-19.15-2.52-31.2
			c-0.68-1.1-2.14-1.44-3.23-0.75c-1.1,0.69-1.43,2.14-0.75,3.24c7.7,12.34,8.22,18.15,2.04,26.92c-6.49-2.31-13.98-3.77-22.96-4.2
			c11.79-11.41,4.42-33.12-2.74-54.2c-2.06-6.08-4.2-12.37-5.92-18.46c-1.82-6.42-2.94-12.66-3.6-18.36
			c2.28,7.98,5.61,17.54,10.49,28.49c1.47,3.3,9.3,17.64,11.03,20.7c0.43,0.77,1.23,1.2,2.05,1.2c0.39,0,0.79-0.1,1.15-0.31
			c1.13-0.64,1.53-2.07,0.89-3.2c-1.99-3.54-9.5-17.32-10.82-20.3c-14.85-33.33-15.03-53.81-15.03-54.02c0-0.03-0.01-0.05-0.01-0.08
			c0-0.08-0.01-0.16-0.02-0.24c-0.01-0.08-0.02-0.15-0.04-0.22c-0.02-0.08-0.05-0.15-0.07-0.22c-0.03-0.07-0.05-0.15-0.08-0.22
			c-0.03-0.07-0.07-0.13-0.1-0.19c-0.04-0.07-0.08-0.13-0.12-0.19c-0.05-0.06-0.09-0.12-0.15-0.18c-0.05-0.06-0.09-0.11-0.15-0.16
			c-0.06-0.05-0.12-0.1-0.19-0.15c-0.05-0.04-0.11-0.09-0.17-0.12c-0.07-0.04-0.14-0.08-0.21-0.11c-0.07-0.03-0.13-0.07-0.2-0.09
			c-0.07-0.03-0.15-0.05-0.23-0.07c-0.07-0.02-0.15-0.04-0.22-0.06c-0.03-0.01-0.05-0.02-0.08-0.02c-0.06-0.01-0.12,0-0.18-0.01
			c-0.05,0-0.09-0.02-0.15-0.02c-0.03,0-0.05,0.01-0.07,0.01c-0.09,0-0.17,0.01-0.26,0.03c-0.07,0.01-0.15,0.02-0.21,0.03
			c-0.07,0.02-0.15,0.04-0.21,0.07c-0.08,0.03-0.16,0.05-0.23,0.08c-0.06,0.03-0.11,0.06-0.17,0.09c-0.08,0.04-0.15,0.08-0.22,0.14
			c-0.05,0.04-0.1,0.08-0.15,0.12c-0.06,0.06-0.13,0.11-0.19,0.17c-0.05,0.05-0.09,0.1-0.13,0.16c-0.05,0.07-0.1,0.13-0.15,0.2
			c-0.04,0.06-0.07,0.12-0.1,0.19c-0.04,0.07-0.07,0.14-0.1,0.22c-0.03,0.07-0.05,0.14-0.07,0.21c-0.02,0.08-0.04,0.16-0.06,0.24
			c-0.01,0.03-0.02,0.05-0.02,0.07c-0.12,0.91-3.03,22.55,4.01,47.4c1.76,6.21,3.91,12.55,5.99,18.69
			c8.14,23.96,15.16,44.68-0.7,52.47c-17.69-1.18-29.27-15.58-29.27-25.26V313c6.03-7.54,9.66-16.18,11.73-22.72
			c1.09,4.73,2.52,9.77,3.93,14.72c2.97,10.45,6.04,21.26,5.31,27.48c-0.75,6.39-3.06,10.37-7.06,12.18
			c-1.18,0.53-1.7,1.93-1.17,3.11c0.39,0.87,1.24,1.38,2.14,1.38c0.32,0,0.65-0.07,0.97-0.21c5.54-2.52,8.83-7.86,9.78-15.91
			c0.84-7.16-2.22-17.92-5.46-29.32c-2.76-9.7-5.61-19.73-5.61-26.58c0-0.29-0.06-0.57-0.16-0.83l1.53-38.08
			c0.05-1.3-0.96-2.4-2.25-2.44c-0.42-0.01-0.81,0.09-1.15,0.28c-0.66,0.07-1.97,0.2-3.86,0.36c0.53-9.16-0.28-17.24-2.49-24.62
			c-0.38-1.24-1.69-1.95-2.93-1.57c-1.24,0.37-1.95,1.68-1.57,2.93c2.11,7.02,2.84,14.77,2.27,23.65c-2.76,0.21-6.07,0.44-9.85,0.65
			c0.7-4.4,1.52-13.85-1.79-24.84c-0.38-1.24-1.68-1.95-2.92-1.57c-1.24,0.38-1.95,1.68-1.57,2.93c3.31,11.01,2.07,20.51,1.47,23.73
			c-3.4,0.16-7.08,0.29-10.99,0.39c0.54-9.64,0.21-17.43-1.01-23.68c-0.25-1.28-1.48-2.1-2.76-1.85s-2.1,1.48-1.85,2.76
			c1.16,5.95,1.45,13.47,0.91,22.88c-4.92,0.08-10.14,0.09-15.57,0.01c-0.64-11.11,0.27-17.86,1.02-22.02
			c0.23-1.28-0.61-2.5-1.89-2.73c-1.27-0.23-2.5,0.61-2.73,1.89c-1.23,6.79-1.57,14.08-1.1,22.77c-3.59-0.09-7.27-0.23-10.99-0.42
			c-0.45-3.18-1.21-11.96,1.94-22.73c0.37-1.24-0.34-2.55-1.59-2.92c-1.24-0.36-2.55,0.35-2.92,1.59
			c-3.15,10.73-2.71,19.6-2.21,23.78c-3.29-0.2-6.61-0.45-9.95-0.76c-0.49-8.02,0.23-15.67,2.17-22.74c0.34-1.25-0.4-2.55-1.65-2.89
			c-1.24-0.34-2.54,0.4-2.89,1.65c-2.01,7.35-2.8,15.26-2.36,23.52c-1.21-0.13-2.42-0.26-3.62-0.4c-0.69-0.07-1.36,0.15-1.86,0.61
			c-0.51,0.46-0.78,1.13-0.75,1.82l1.55,38.76c0,0.05-0.02,0.09-0.02,0.15c0,6.81-2.52,16.88-4.96,26.61
			c-2.92,11.67-5.68,22.69-4.84,29.86c0.95,8.05,4.24,13.4,9.78,15.91c0.31,0.15,0.64,0.21,0.97,0.21c0.89,0,1.74-0.52,2.14-1.39
			c0.53-1.18,0.01-2.57-1.17-3.11c-3.99-1.81-6.3-5.8-7.05-12.18c-0.74-6.32,2.04-17.43,4.73-28.17c1.17-4.68,2.35-9.43,3.29-13.92
			c2.12,6.51,5.75,14.9,11.66,22.21v25.66c0,9.55-11.3,23.72-28.61,25.21c-15.19-7.57-8.66-27.45-1.1-50.44
			c2.28-6.93,4.64-14.1,6.43-21.14c5.83-22.93,3.58-45.88,3.48-46.85c-0.01-0.05-0.02-0.1-0.03-0.15c-0.01-0.08-0.03-0.16-0.05-0.24
			c-0.02-0.07-0.04-0.13-0.07-0.2c-0.03-0.08-0.06-0.17-0.1-0.24c-0.03-0.05-0.05-0.09-0.08-0.14c-0.05-0.09-0.11-0.18-0.18-0.26
			c-0.02-0.03-0.04-0.05-0.06-0.08c-0.08-0.09-0.17-0.18-0.27-0.26c-0.01-0.01-0.02-0.02-0.03-0.03c-0.11-0.09-0.23-0.17-0.35-0.23
			c-0.01,0-0.01-0.01-0.01-0.01c-0.12-0.07-0.26-0.12-0.4-0.17c-0.02-0.01-0.04-0.01-0.05-0.01c-0.11-0.04-0.24-0.06-0.36-0.08
			c-0.06-0.01-0.12-0.01-0.19-0.01c-0.06,0-0.11-0.01-0.17-0.01c-0.03,0-0.05,0.01-0.07,0.01c-0.04,0-0.07-0.01-0.1,0
			c-0.06,0.01-0.12,0.03-0.18,0.04c-0.06,0.01-0.13,0.02-0.19,0.04c-0.09,0.03-0.18,0.06-0.26,0.09c-0.06,0.02-0.11,0.04-0.17,0.07
			c-0.08,0.04-0.16,0.09-0.24,0.14c-0.05,0.03-0.1,0.06-0.14,0.1c-0.08,0.06-0.15,0.12-0.21,0.18c-0.04,0.04-0.08,0.08-0.12,0.12
			c-0.06,0.07-0.11,0.14-0.17,0.21c-0.04,0.05-0.07,0.1-0.1,0.15c-0.05,0.07-0.08,0.15-0.12,0.23c-0.03,0.06-0.05,0.12-0.07,0.18
			c-0.03,0.08-0.05,0.17-0.07,0.25c-0.02,0.07-0.03,0.13-0.04,0.2c-0.02,0.08-0.02,0.17-0.02,0.26c0,0.05-0.01,0.09-0.01,0.14
			c0.01,0.2,0.4,20.67-14.43,53.95c-1.33,2.97-8.83,16.76-10.83,20.3c-0.64,1.13-0.23,2.56,0.89,3.2c0.37,0.21,0.77,0.3,1.16,0.3
			c0.82,0,1.61-0.43,2.05-1.19c1.72-3.07,9.55-17.4,11.02-20.7c4.32-9.69,7.39-18.3,9.56-25.69c-0.58,4.92-1.46,10.08-2.77,15.21
			c-1.75,6.88-4.08,13.97-6.33,20.83c-6.95,21.12-13.55,41.23-2.3,52.13c-9.17,0.34-16.65,1.69-23.14,3.91
			c-5.93-8.59-5.32-14.39,2.28-26.58c0.69-1.1,0.35-2.55-0.74-3.24c-1.1-0.69-2.55-0.35-3.24,0.74
			c-7.43,11.92-9.83,19.89-2.77,30.81c-0.03,0.01-0.05,0.02-0.08,0.03c-0.52,0.06-0.99,0.28-1.36,0.62
			c-4.12,1.93-7.88,4.27-11.46,6.99c-12.35-13.96,0.1-32.21,13.28-51.51c2.77-4.05,5.63-8.24,8.22-12.36
			c9.77-15.49,14.27-26.06,17.09-33.53c0.46-1.21-0.15-2.57-1.36-3.03c-1.22-0.46-2.57,0.15-3.03,1.36
			c-2.92,7.71-7.19,17.63-16.67,32.68c-2.56,4.05-5.39,8.2-8.14,12.22c-13.61,19.93-27.66,40.52-13.07,57.1
			c-1.66,1.41-3.3,2.89-4.95,4.45c-0.4,0.32-1.58,1.33-3.11,3.18C32.69,385.58,29.51,379.72,28.16,372.34z M220.2,209.13
			c-5.44-5.19-23.7-19.41-60.43-19.41c-37.29,0-56.46,14.64-61.88,19.59c-0.75-0.65-1.74-1.54-2.85-2.6
			c4.3-4.18,23.33-20.19,62.64-20.19c40.92,0,61.25,16.9,64.8,20.16C221.61,207.65,220.83,208.48,220.2,209.13z M207.02,427.31
			c-16.43,3.74-28.79,2.52-36.74-3.62c-5.93-4.58-7.89-10.92-8.54-14.32c31.07-0.18,52.95-6.86,65.03-19.9
			c7.41-8,8.88-16.14,9.13-19.93c5.19,0.61,9.81,1.63,13.98,3.02C250.31,379.98,250.24,417.48,207.02,427.31z M83.88,369.29
			c0.42,3.94,2.24,12.11,9.91,20.11c12.12,12.66,33.14,19.34,62.48,19.92c-0.62,3.38-2.56,9.69-8.51,14.32
			c-7.95,6.18-20.32,7.41-36.79,3.66c-42.57-9.68-46.76-45.32-47.16-53.42C69.47,371.52,75.95,369.97,83.88,369.29z M93.76,368.88
			c19.33,0,31.31,1.52,36.62,4.64c0.37,0.22,0.78,0.33,1.19,0.33c0.8,0,1.59-0.42,2.03-1.16c0.66-1.12,0.28-2.56-0.84-3.22
			c-4.15-2.44-11.2-4-21.68-4.75c7.58-3.89,13.24-9.97,16.32-16.06c6.43,6.27,23.08,21.66,31.59,21.66
			c8.58,0,24.86-16.17,31.09-22.71c2.95,6.44,8.83,13.02,16.86,17.12c-9.77,0.73-16.57,2.23-21.53,4.65
			c-1.17,0.57-1.65,1.98-1.08,3.15c0.41,0.83,1.24,1.32,2.11,1.32c0.35,0,0.7-0.08,1.03-0.24c6.69-3.27,18.03-4.72,36.76-4.72
			c2.45,0,4.75,0.09,6.98,0.24c-0.17,2.93-1.31,10.05-7.89,17.15c-7.78,8.4-24.99,18.42-62.83,18.42c-29.7,0-51.56-6.37-63.2-18.41
			c-6.75-6.99-8.36-13.99-8.74-17.28C90.23,368.92,91.95,368.88,93.76,368.88z M114.07,240.77c5.03,0.54,10.05,0.95,15.01,1.27
			c-2.6,0.62-5.36,1.64-8.24,3.24c-1.13,0.64-1.54,2.07-0.9,3.2c0.43,0.77,1.23,1.21,2.05,1.21c0.39,0,0.78-0.1,1.14-0.3
			c12.01-6.71,21.76-1.69,22.17-1.47c1.14,0.61,2.56,0.19,3.18-0.95c0.62-1.14,0.19-2.57-0.95-3.19c-0.12-0.07-0.95-0.51-2.35-1
			c9.19,0.25,17.9,0.21,25.7,0.02c-1.36,0.49-2.18,0.92-2.3,0.99c-1.14,0.62-1.56,2.05-0.94,3.19c0.62,1.14,2.05,1.56,3.18,0.94
			c0.1-0.05,9.96-5.28,21.96,1.48c0.36,0.2,0.76,0.3,1.15,0.3c0.82,0,1.62-0.43,2.05-1.2c0.64-1.13,0.23-2.56-0.9-3.2
			c-2.71-1.53-5.32-2.53-7.79-3.16c7.67-0.43,13.43-0.92,16.46-1.21l-1.55,38.7c-0.46,3.06-7.48,45.02-43.3,45.26
			c-13.32-0.09-22.66-5.94-29.15-13.42c-0.16-0.3-0.38-0.56-0.64-0.77c-10.44-12.56-13.22-29.18-13.51-31.07L114.07,240.77z
			 M130.04,338.83v-20.57c6.83,6.39,16.01,11.04,28.21,11.28c0.12,0.02,0.24,0.04,0.36,0.04c0.1,0,0.2-0.01,0.3-0.01
			c0.1,0,0.2,0.01,0.3,0.01c0.12,0,0.24-0.02,0.36-0.04c12.29-0.24,21.51-4.96,28.36-11.42v20.7c0,1.19,0.15,2.44,0.43,3.73
			c-8.45,9.16-23.42,23.05-29.38,23.05c-5.91,0-20.95-12.94-29.71-21.71C129.78,342.15,130.04,340.44,130.04,338.83z M42.69,388.61
			c0.07-0.05,0.14-0.11,0.2-0.17c5.35-5.1,10.52-9.24,16.42-12.4c1.18,11.57,8.24,46.2,50.61,55.85c6.53,1.48,12.48,2.22,17.88,2.22
			c9.4,0,17.05-2.26,22.84-6.76c4.29-3.33,6.83-7.35,8.35-10.94c1.53,3.58,4.07,7.6,8.35,10.94c5.79,4.5,13.44,6.76,22.84,6.76
			c5.39,0,11.35-0.74,17.87-2.22c43.01-9.79,46.52-46.1,46.53-57.58c7.97,3.42,14.37,8.29,20.51,14.13
			c0.06,0.05,0.12,0.11,0.19,0.16c0.16,0.12,15.81,12.74,12.22,49.23c-1.08,11.02-3.49,26.32-6.98,44.33h-24.56
			c0.82-1.71,1.45-3.42,1.91-5.1h9.6c1.3,0,2.35-1.06,2.35-2.35s-1.05-2.35-2.35-2.35h-8.68c0.17-1.42,0.26-2.8,0.26-4.11h7.7
			c1.3,0,2.35-1.05,2.35-2.35c0-1.3-1.05-2.35-2.35-2.35h-7.98c-0.18-1.52-0.43-2.85-0.67-3.94h4.21c1.3,0,2.35-1.06,2.35-2.35
			s-1.05-2.35-2.35-2.35h-7.22c-0.04,0-0.06,0.01-0.1,0.01c-0.26,0-0.52,0.04-0.77,0.13c-1.22,0.44-1.85,1.79-1.41,3.01
			c0.05,0.14,4.5,13.02-2.19,24.12H67.66c-6.7-11.11-2.51-23.99-2.45-24.16c0.02-0.04,0.02-0.08,0.03-0.12
			c0.02-0.08,0.05-0.17,0.06-0.26c0.02-0.08,0.02-0.16,0.03-0.23c0-0.05,0.02-0.09,0.02-0.15c0-0.03-0.01-0.05-0.01-0.08
			c0-0.08-0.02-0.17-0.03-0.24c-0.01-0.07-0.02-0.15-0.04-0.22c-0.02-0.07-0.04-0.15-0.07-0.21c-0.02-0.08-0.05-0.15-0.08-0.22
			s-0.07-0.13-0.1-0.19c-0.04-0.07-0.08-0.14-0.12-0.19c-0.05-0.07-0.1-0.12-0.15-0.18c-0.05-0.05-0.09-0.11-0.14-0.16
			c-0.06-0.06-0.12-0.1-0.19-0.15c-0.06-0.05-0.11-0.09-0.18-0.13c-0.06-0.04-0.12-0.07-0.19-0.11c-0.07-0.04-0.15-0.07-0.22-0.1
			c-0.03-0.01-0.05-0.03-0.07-0.04c-0.05-0.02-0.09-0.02-0.14-0.03c-0.08-0.02-0.16-0.04-0.24-0.06c-0.08-0.01-0.16-0.02-0.24-0.02
			c-0.05-0.01-0.09-0.02-0.14-0.02h-7.22c-1.3,0-2.35,1.05-2.35,2.35c0,1.3,1.05,2.35,2.35,2.35h4.19
			c-0.23,1.08-0.45,2.43-0.61,3.94h-8.03c-1.3,0-2.35,1.06-2.35,2.35s1.05,2.35,2.35,2.35h7.8c0.02,1.31,0.12,2.69,0.3,4.11H50.6
			c-1.3,0-2.35,1.05-2.35,2.35c0,1.3,1.05,2.35,2.35,2.35h9.78c0.47,1.69,1.11,3.4,1.94,5.1H37.46
			c-3.49-18.01-5.91-33.31-6.99-44.33C26.89,401.34,42.54,388.73,42.69,388.61z M285.31,482.17c3.42-17.77,5.8-32.9,6.88-43.88
			c2.38-24.25-3.23-38.68-8.06-46.32c4.98-3.34,8.77-10.15,10.35-18.79c2.99-16.35-2.5-33.22-14.7-45.12
			c-0.19-0.18-0.38-0.39-0.56-0.57v-40.41c0.61,0.05,1.29,0.08,1.97,0.08c1.17,0,2.38-0.09,3.36-0.39
			c6.09-1.79,10.02-9.11,8.39-15.65c-0.16-0.64-0.58-1.18-1.16-1.49c-1.03-0.57-2.1-0.83-3.18-0.92c3.54-3.13,5.4-8.42,4.19-13.29
			c-0.16-0.64-0.58-1.18-1.16-1.49c-0.74-0.41-1.51-0.67-2.29-0.81c3.69-3.1,5.67-8.52,4.43-13.49c-0.2-0.81-0.73-1.51-1.49-1.94
			c-2.53-1.45-8.2,0.19-8.26,0.2c-0.28,0.08-0.55,0.17-0.81,0.27c-0.45,0.16-0.87,0.37-1.29,0.57c2.9-3.24,3.92-8.02,2.27-12.52
			c-1.2-3.27-3.22-5.57-5.99-6.85c-0.59-0.28-1.28-0.29-1.89-0.04c-5.88,2.45-8.69,9.24-6.4,15.47c0.54,1.48,1.27,2.76,2.14,3.84
			c-0.4-0.18-0.82-0.35-1.26-0.48c-3.06-0.9-6.3-1.64-9.27-0.01c-0.58,0.31-0.99,0.85-1.15,1.49c-1.23,4.94,0.71,10.32,4.36,13.44
			c-0.93,0.12-1.84,0.38-2.74,0.86c-0.58,0.32-0.99,0.86-1.15,1.49c-1.23,4.94,0.7,10.31,4.33,13.42c-1.11,0.08-2.21,0.35-3.28,0.93
			c-0.58,0.31-0.99,0.86-1.16,1.49c-1.62,6.55,2.29,13.86,8.39,15.65c1.2,0.35,2.44,0.53,3.68,0.53c0.58,0,1.15-0.05,1.71-0.12
			v34.94c-15.63-19.06-30.4-53.09-34.1-70.13c-4.45-20.49-13.26-34.08-17.17-39.37c4.24-4.3,16.26-17.49,18.04-30.61
			c0.18-1.29-0.72-2.47-2.01-2.65c-1.27-0.17-2.47,0.72-2.64,2.01c-1.06,7.77-6.46,15.89-11.08,21.59
			c-4.49-4.18-25.48-21.29-67.86-21.29c-41.23,0-61.01,16.62-65.93,21.52c-5.1-5.54-10.82-13.53-10.72-21.43
			c0.02-1.3-1.03-2.36-2.32-2.38c-1.28-0.06-2.36,1.02-2.38,2.32c-0.17,13.69,13.36,26.61,18.42,30.95
			c-3.94,5.32-12.7,18.89-17.14,39.32c-3.71,17.09-18.56,51.28-34.25,70.31v-35.36c0.62,0.05,1.29,0.08,1.98,0.08
			c1.17,0,2.37-0.1,3.35-0.39c6.1-1.79,10.02-9.11,8.39-15.65c-0.16-0.64-0.58-1.18-1.16-1.49c-1.04-0.57-2.1-0.83-3.18-0.92
			c3.54-3.13,5.4-8.42,4.19-13.29c-0.16-0.64-0.58-1.18-1.15-1.49c-0.75-0.41-1.52-0.67-2.29-0.81c3.7-3.1,5.67-8.52,4.43-13.49
			c-0.2-0.81-0.73-1.51-1.5-1.94c-2.53-1.45-8.02,0.14-8.26,0.2c-0.27,0.08-0.55,0.17-0.81,0.27c-0.45,0.16-0.87,0.37-1.29,0.57
			c2.9-3.24,3.92-8.02,2.27-12.52c-1.21-3.27-3.22-5.58-5.99-6.85c-0.59-0.28-1.28-0.29-1.89-0.04c-5.88,2.45-8.69,9.24-6.41,15.46
			c0.55,1.48,1.27,2.76,2.14,3.84c-0.4-0.18-0.81-0.34-1.26-0.47c-3.06-0.9-6.3-1.64-9.28-0.01c-0.57,0.31-0.99,0.85-1.15,1.49
			c-1.23,4.94,0.71,10.32,4.36,13.43c-0.93,0.12-1.84,0.38-2.73,0.87c-0.58,0.31-0.99,0.85-1.16,1.49
			c-1.23,4.94,0.7,10.31,4.34,13.42c-1.11,0.08-2.21,0.35-3.28,0.93c-0.58,0.31-0.99,0.85-1.16,1.49
			c-1.62,6.55,2.29,13.86,8.39,15.65c1.2,0.35,2.45,0.53,3.68,0.53c0.57,0,1.15-0.05,1.71-0.12v40.31
			c-0.14,0.14-0.28,0.29-0.42,0.43c-12.2,11.91-17.7,28.78-14.71,45.12c1.58,8.63,5.36,15.43,10.33,18.78
			c-4.83,7.64-10.45,22.07-8.07,46.34c1.08,10.98,3.45,26.11,6.88,43.88H17.22V18.42c0-0.28,0.1-0.52,0.29-0.71
			c0.19-0.2,0.43-0.29,0.71-0.29h281.53c0.27,0,0.51,0.09,0.71,0.29c0.19,0.19,0.29,0.43,0.29,0.71V271.5l0.02,210.67H285.31z
			 M276.94,236.84c-1.15-0.81-2.02-2.02-2.63-3.69c-1.31-3.55-0.09-7.23,2.84-9.01c1.15,0.8,2.02,2.02,2.63,3.69
			C281.08,231.38,279.86,235.06,276.94,236.84z M279.21,255.51C279.21,255.51,279.21,255.51,279.21,255.51L279.21,255.51z
			 M274.51,271.41v0.07c-0.03-0.02-0.05-0.04-0.08-0.06C274.46,271.42,274.48,271.41,274.51,271.41z M279.21,279.78
			c0-0.01,0.01-0.01,0.01-0.02c0.78-3.05,2.33-4.93,4.61-5.6c1.75-0.52,3.42-0.95,4.74-0.72c0.33,3.78-2.03,7.86-5.34,8.83
			c-0.88,0.26-2.52,0.23-4.01,0.09V279.78z M283.08,266.56c-1.27,0.38-2.6,0.39-3.87,0.08v-3.03c0.81-2.78,2.31-4.53,4.47-5.16
			c1.74-0.52,3.42-0.94,4.74-0.72C288.76,261.51,286.39,265.59,283.08,266.56z M284.06,250.77c-1.46,0.43-3.27,0.4-4.77-0.06
			c0.26-1.53,1.43-4.72,1.9-5.52c0.96-1.44,2.48-2.21,3.59-2.61c0.19-0.06,0.37-0.12,0.56-0.18c0.99-0.3,2.93-0.61,4.05-0.63
			C289.81,245.59,287.42,249.78,284.06,250.77z M274.46,250.76c-1.42,0.41-2.99,0.42-4.4,0.01c-3.31-0.98-5.68-5.05-5.34-8.83
			c1.32-0.23,2.99,0.21,4.74,0.72C272.68,243.6,274.14,247.43,274.46,250.76z M265.19,257.73c1.32-0.22,2.99,0.21,4.74,0.72
			c2.25,0.66,3.78,2.42,4.54,5.22c0.01,0.1,0.02,0.2,0.04,0.29v2.66c-1.3,0.34-2.67,0.32-3.97-0.06
			C267.22,265.59,264.86,261.51,265.19,257.73z M269.83,274.3c2.92,0.85,4.15,3.46,4.68,5.52v2.74c-1.29,0.29-2.74,0.24-4.07-0.15
			c-3.31-0.97-5.68-5.05-5.35-8.83C266.41,273.35,268.09,273.78,269.83,274.3z M43.35,255.51
			C43.35,255.51,43.35,255.51,43.35,255.51L43.35,255.51z M38.66,271.41v0.07c-0.03-0.02-0.05-0.04-0.08-0.06
			C38.6,271.42,38.63,271.41,38.66,271.41z M43.35,279.78c0-0.01,0.01-0.01,0.01-0.02c0.78-3.05,2.33-4.93,4.61-5.6
			c1.75-0.52,3.43-0.95,4.74-0.72c0.33,3.78-2.04,7.86-5.35,8.83c-0.88,0.26-2.52,0.23-4.01,0.09V279.78z M47.22,266.56
			c-1.27,0.38-2.6,0.39-3.87,0.08v-3.03c0.81-2.78,2.31-4.53,4.47-5.16c1.75-0.52,3.43-0.94,4.74-0.72
			C52.9,261.51,50.54,265.59,47.22,266.56z M48.21,250.77c-1.46,0.43-3.27,0.4-4.77-0.06c0.26-1.53,1.43-4.72,1.91-5.52
			c0.95-1.44,2.47-2.21,3.59-2.61c0.18-0.06,0.37-0.12,0.55-0.18c0.99-0.3,2.93-0.61,4.05-0.63
			C53.96,245.59,51.57,249.78,48.21,250.77z M41.08,236.84c-1.15-0.81-2.02-2.02-2.63-3.69c-1.3-3.55-0.09-7.23,2.84-9.01
			c1.15,0.8,2.02,2.02,2.63,3.69C45.23,231.38,44.01,235.06,41.08,236.84z M38.61,250.76c-1.42,0.41-2.99,0.42-4.4,0.01
			c-3.31-0.98-5.68-5.05-5.35-8.83c1.32-0.23,2.99,0.21,4.74,0.72C36.82,243.6,38.28,247.43,38.61,250.76z M29.34,257.73
			c1.31-0.22,2.99,0.21,4.74,0.72c2.24,0.66,3.77,2.42,4.54,5.22c0.01,0.1,0.02,0.2,0.04,0.3v2.66c-1.3,0.34-2.67,0.32-3.97-0.06
			C31.37,265.59,29.01,261.51,29.34,257.73z M33.98,274.3c2.91,0.85,4.15,3.46,4.67,5.52v2.74c-1.29,0.29-2.73,0.24-4.07-0.15
			c-3.31-0.97-5.68-5.05-5.34-8.83C30.56,273.35,32.23,273.78,33.98,274.3z M156.62,55.74v-24.8c0-1.3,1.05-2.35,2.35-2.35
			s2.35,1.05,2.35,2.35v24.8c0,1.3-1.05,2.35-2.35,2.35S156.62,57.04,156.62,55.74z M143.24,55.74v-24.8c0-1.3,1.05-2.35,2.35-2.35
			s2.35,1.05,2.35,2.35v24.8c0,1.3-1.05,2.35-2.35,2.35S143.24,57.04,143.24,55.74z M170.05,55.74v-24.8c0-1.3,1.05-2.35,2.35-2.35
			s2.35,1.05,2.35,2.35v24.8c0,1.3-1.05,2.35-2.35,2.35S170.05,57.04,170.05,55.74z M132.5,168.54c0.14,0.42,0.02,0.89-0.3,1.2
			l-3.37,3.29l0.8,4.64c0.07,0.44-0.1,0.89-0.47,1.15c-0.36,0.27-0.84,0.3-1.23,0.09l-4.16-2.19l-4.16,2.19
			c-0.17,0.09-0.36,0.14-0.55,0.14c-0.24,0-0.49-0.08-0.69-0.23c-0.36-0.26-0.55-0.71-0.47-1.15l0.79-4.64l-3.36-3.29
			c-0.32-0.31-0.44-0.78-0.3-1.2c0.14-0.43,0.51-0.74,0.95-0.8l4.65-0.68l2.08-4.22c0.4-0.8,1.71-0.8,2.11,0l2.08,4.22l4.65,0.68
			C131.99,167.8,132.36,168.11,132.5,168.54z M202.95,167.32c0.14,0.43,0.02,0.89-0.3,1.2l-3.37,3.29l0.8,4.64
			c0.07,0.44-0.1,0.89-0.47,1.15c-0.36,0.26-0.84,0.3-1.23,0.09l-4.16-2.19l-4.16,2.19c-0.17,0.09-0.36,0.14-0.55,0.14
			c-0.24,0-0.48-0.08-0.69-0.22c-0.36-0.27-0.55-0.71-0.47-1.15l0.79-4.64l-3.36-3.29c-0.32-0.31-0.44-0.78-0.3-1.2
			c0.14-0.43,0.51-0.73,0.95-0.8l4.65-0.68l2.08-4.22c0.4-0.8,1.71-0.8,2.1,0l2.08,4.22l4.65,0.68
			C202.45,166.58,202.81,166.89,202.95,167.32z M92.85,165.81c0.14,0.43,0.02,0.9-0.3,1.21l-3.37,3.29l0.8,4.64
			c0.07,0.44-0.1,0.89-0.47,1.15c-0.36,0.27-0.84,0.3-1.23,0.09l-4.16-2.19l-4.16,2.19c-0.17,0.09-0.36,0.13-0.55,0.13
			c-0.24,0-0.49-0.07-0.69-0.22c-0.36-0.26-0.54-0.71-0.46-1.15l0.79-4.64l-3.36-3.29c-0.32-0.31-0.44-0.78-0.3-1.21
			c0.14-0.42,0.51-0.73,0.95-0.8l4.65-0.68l2.08-4.22c0.4-0.81,1.71-0.8,2.1,0l2.08,4.22l4.65,0.68
			C92.34,165.08,92.71,165.39,92.85,165.81z M244.46,165.81c0.14,0.43,0.03,0.9-0.3,1.21l-3.37,3.29l0.8,4.64
			c0.07,0.44-0.1,0.89-0.47,1.15c-0.2,0.15-0.44,0.22-0.69,0.22c-0.19,0-0.38-0.04-0.55-0.13l-4.16-2.19l-4.16,2.19
			c-0.4,0.2-0.88,0.17-1.23-0.09c-0.36-0.26-0.55-0.71-0.47-1.15l0.79-4.64l-3.36-3.29c-0.32-0.31-0.44-0.78-0.3-1.21
			c0.14-0.42,0.51-0.73,0.95-0.8l4.65-0.68l2.08-4.22c0.2-0.4,0.6-0.66,1.05-0.66s0.85,0.26,1.05,0.66l2.08,4.22l4.65,0.68
			C243.96,165.08,244.33,165.39,244.46,165.81z M112.1,153.01c0.14,0.42,0.02,0.89-0.3,1.2l-3.37,3.29l0.8,4.64
			c0.07,0.44-0.1,0.89-0.47,1.15c-0.36,0.27-0.84,0.3-1.23,0.09l-4.16-2.19l-4.16,2.19c-0.17,0.09-0.36,0.14-0.55,0.14
			c-0.24,0-0.48-0.08-0.69-0.23c-0.36-0.26-0.55-0.71-0.47-1.15l0.79-4.64l-3.36-3.29c-0.32-0.31-0.44-0.78-0.3-1.2
			c0.14-0.43,0.51-0.74,0.95-0.8l4.65-0.68l2.08-4.22c0.4-0.8,1.71-0.8,2.1,0l2.08,4.22l4.65,0.68
			C111.6,152.27,111.96,152.58,112.1,153.01z M226.52,153.01c0.14,0.42,0.02,0.89-0.3,1.2l-3.37,3.29l0.8,4.64
			c0.07,0.44-0.1,0.89-0.47,1.15c-0.36,0.27-0.84,0.3-1.23,0.09l-4.16-2.19l-4.16,2.19c-0.17,0.09-0.36,0.14-0.55,0.14
			c-0.24,0-0.49-0.08-0.69-0.23c-0.36-0.26-0.54-0.71-0.46-1.15l0.79-4.64l-3.36-3.29c-0.32-0.31-0.44-0.78-0.3-1.2
			c0.14-0.43,0.5-0.74,0.95-0.8l4.65-0.68l2.08-4.22c0.4-0.8,1.71-0.8,2.11,0l2.08,4.22l4.66,0.68
			C226.02,152.27,226.38,152.58,226.52,153.01z M116.33,144.35l-3.36-3.29c-0.32-0.31-0.44-0.78-0.3-1.21
			c0.14-0.42,0.51-0.73,0.95-0.8l4.65-0.68l2.08-4.22c0.4-0.8,1.71-0.8,2.1,0l2.08,4.22l4.65,0.68c0.44,0.06,0.81,0.38,0.95,0.8
			c0.14,0.43,0.02,0.9-0.3,1.21l-3.37,3.29l0.8,4.64c0.07,0.44-0.1,0.89-0.47,1.15c-0.2,0.15-0.45,0.22-0.69,0.22
			c-0.19,0-0.38-0.04-0.55-0.14l-4.16-2.19l-4.16,2.19c-0.4,0.21-0.88,0.18-1.24-0.09c-0.36-0.26-0.54-0.71-0.46-1.15L116.33,144.35
			z M205.67,139.86c0.14,0.43,0.02,0.9-0.3,1.21l-3.37,3.29l0.8,4.64c0.07,0.44-0.1,0.89-0.47,1.15c-0.2,0.15-0.45,0.22-0.69,0.22
			c-0.19,0-0.38-0.04-0.55-0.14l-4.16-2.19l-4.16,2.19c-0.4,0.21-0.88,0.18-1.24-0.09c-0.36-0.26-0.54-0.71-0.46-1.15l0.79-4.64
			l-3.36-3.29c-0.32-0.31-0.44-0.78-0.3-1.21c0.14-0.42,0.51-0.73,0.95-0.8l4.65-0.68l2.08-4.22c0.2-0.4,0.6-0.65,1.05-0.65
			s0.85,0.25,1.05,0.66l2.08,4.22l4.66,0.68C205.16,139.13,205.53,139.44,205.67,139.86z M143.89,137.47l-4.16-2.19l-4.16,2.19
			c-0.17,0.09-0.36,0.14-0.55,0.14c-0.24,0-0.49-0.07-0.69-0.22c-0.36-0.27-0.54-0.71-0.46-1.15l0.79-4.64l-3.36-3.28
			c-0.32-0.31-0.44-0.78-0.3-1.21c0.14-0.43,0.51-0.73,0.95-0.8l4.65-0.68l2.08-4.22c0.2-0.4,0.6-0.66,1.05-0.66
			c0.45,0,0.85,0.26,1.05,0.66l2.08,4.22l4.66,0.68c0.44,0.06,0.81,0.37,0.95,0.8c0.14,0.43,0.03,0.9-0.3,1.2l-3.37,3.29l0.8,4.64
			c0.07,0.44-0.1,0.89-0.47,1.15C144.76,137.65,144.28,137.69,143.89,137.47z M183.07,135.58c0.08,0.44-0.1,0.89-0.46,1.15
			c-0.36,0.26-0.84,0.3-1.24,0.09l-4.16-2.19l-4.16,2.19c-0.17,0.09-0.36,0.14-0.55,0.14c-0.24,0-0.48-0.08-0.69-0.22
			c-0.36-0.27-0.54-0.71-0.47-1.15l0.8-4.64l-3.37-3.29c-0.32-0.31-0.44-0.78-0.3-1.2c0.14-0.43,0.51-0.73,0.95-0.8l4.65-0.68
			l2.08-4.22c0.4-0.8,1.71-0.8,2.1,0l2.08,4.22l4.65,0.68c0.44,0.07,0.81,0.38,0.95,0.8c0.14,0.43,0.03,0.89-0.3,1.2l-3.36,3.29
			L183.07,135.58z M149.7,115.85c-0.32-0.31-0.44-0.78-0.3-1.21c0.14-0.42,0.51-0.73,0.95-0.8l4.65-0.68l2.08-4.22
			c0.2-0.4,0.6-0.66,1.05-0.66c0.45,0,0.85,0.26,1.05,0.66l2.08,4.22l4.65,0.68c0.44,0.06,0.81,0.38,0.95,0.8
			c0.14,0.43,0.03,0.9-0.3,1.21l-3.36,3.28l0.79,4.64c0.08,0.44-0.1,0.89-0.47,1.15c-0.2,0.15-0.44,0.22-0.69,0.22
			c-0.19,0-0.38-0.04-0.55-0.14l-4.16-2.19l-4.16,2.19c-0.4,0.21-0.88,0.17-1.23-0.09c-0.36-0.27-0.55-0.71-0.47-1.15l0.79-4.64
			L149.7,115.85z M175.48,151.42l-6.3,5.98l6.3,5.97c0.36,0.34,0.47,0.87,0.27,1.32c-0.19,0.45-0.65,0.71-1.14,0.71l-8.38-0.45
			l0.43,8.88c0.02,0.51-0.27,0.96-0.74,1.15c-0.46,0.18-1,0.06-1.32-0.33l-5.61-6.53l-5.6,6.53c-0.23,0.27-0.55,0.41-0.89,0.41
			c-0.15,0-0.29-0.03-0.43-0.08c-0.47-0.19-0.77-0.65-0.74-1.15l0.43-8.88l-8.38,0.45c-0.49,0.01-0.95-0.26-1.15-0.71
			c-0.19-0.45-0.08-0.98,0.27-1.32l6.3-5.97l-6.3-5.98c-0.35-0.34-0.46-0.86-0.27-1.32c0.2-0.45,0.65-0.73,1.15-0.71l8.38,0.45
			l-0.43-8.88c-0.03-0.5,0.27-0.96,0.74-1.15c0.46-0.18,0.99-0.05,1.32,0.33l5.6,6.53l5.61-6.53c0.32-0.38,0.86-0.51,1.32-0.33
			c0.46,0.19,0.76,0.65,0.74,1.15l-0.43,8.88l8.38-0.45c0.49-0.03,0.95,0.26,1.14,0.71C175.95,150.55,175.84,151.08,175.48,151.42z
			 M119.57,256.23c0.72-1.08,2.17-1.37,3.26-0.66l1.69,1.12c0.19-0.21,0.41-0.42,0.63-0.63l-0.64-0.88
			c-0.77-1.05-0.54-2.52,0.51-3.29c1.04-0.77,2.52-0.54,3.29,0.51l0.8,1.1c0.37-0.16,0.76-0.31,1.17-0.44l-0.24-0.54
			c-0.53-1.18-0.01-2.57,1.17-3.11c1.19-0.54,2.58-0.01,3.11,1.17l0.8,1.77c0.03,0,0.06-0.01,0.09-0.01
			c10.22,0,13.32,7.15,13.45,7.46c0.5,1.2-0.07,2.57-1.27,3.07c-1.19,0.49-2.55-0.06-3.06-1.24c-0.05-0.12-0.66-1.37-2.2-2.54
			c-0.77,2.95-3.44,5.15-6.63,5.15c-3.2,0-5.88-2.21-6.64-5.18c-1.87,1.49-2.49,3.26-2.5,3.28c-0.33,0.99-1.24,1.61-2.23,1.61
			c-0.24,0-0.49-0.04-0.74-0.12c-1.23-0.41-1.9-1.74-1.49-2.97c0.01-0.03,0.04-0.11,0.09-0.23l-1.75-1.16
			C119.15,258.78,118.85,257.32,119.57,256.23z M166.78,259.82c0.12-0.31,3.22-7.46,13.45-7.46c1.11,0,2.11,0.11,3.05,0.28l0.61-1.3
			c0.56-1.17,1.96-1.67,3.13-1.11s1.67,1.96,1.11,3.13l-0.01,0.03l0.44-0.47c0.89-0.94,2.38-0.98,3.32-0.09
			c0.85,0.81,0.93,2.09,0.28,3.03l0.29-0.19c1.08-0.72,2.54-0.43,3.26,0.66c0.72,1.08,0.43,2.54-0.66,3.26l-1.6,1.07
			c0.04,0.11,0.08,0.2,0.08,0.23c0.41,1.23-0.26,2.56-1.48,2.97c-0.25,0.08-0.49,0.12-0.74,0.12c-0.98,0-1.9-0.62-2.22-1.61
			c-0.04-0.11-0.68-1.82-2.5-3.27c-0.76,2.96-3.43,5.17-6.64,5.17c-3.2,0-5.87-2.2-6.63-5.16c-1.61,1.2-2.19,2.51-2.2,2.53
			c-0.5,1.2-1.87,1.76-3.07,1.26C166.84,262.4,166.28,261.02,166.78,259.82z M149.04,285.19c0.94-1.25,2.8-1.65,4.2-1.77
			c0.45-0.04,0.91,0.06,1.32,0.28c1.54,0.84,3.76,1.73,4.6,1.73c0.98,0,3.05-0.84,4.13-1.41c0.15-0.08,0.32-0.14,0.48-0.19
			c0.79-0.21,2.78-0.59,4.25,0.4c0.77,0.52,1.26,1.32,1.38,2.26c0.16,1.29-0.75,2.46-2.04,2.62c-0.81,0.1-1.57-0.22-2.07-0.79
			c-0.04,0.01-0.08,0.01-0.12,0.02c-1.02,0.51-3.81,1.8-6.02,1.8c-2.02,0-4.78-1.25-6.15-1.93c-0.2,0.04-0.38,0.08-0.51,0.12
			c-0.82,0.77-2.09,0.85-3.02,0.16C148.46,287.7,148.26,286.23,149.04,285.19z M149.09,207.31c0.52-1.89,1.05-3.14,1.07-3.19
			c0.51-1.19,1.9-1.75,3.08-1.23c1.19,0.51,1.74,1.89,1.24,3.08c-0.01,0.01-0.44,1.03-0.86,2.59c-0.29,1.04-1.23,1.73-2.26,1.73
			c-0.21,0-0.42-0.03-0.62-0.09C149.48,209.85,148.74,208.56,149.09,207.31z M134.66,205.7l0.24-0.65c0.42-1.11,0.71-1.92,1.54-3.53
			c0.59-1.16,2.01-1.6,3.16-1.01s1.6,2.01,1.01,3.17c-0.7,1.35-0.93,1.97-1.31,3.01l-0.25,0.67c-0.35,0.94-1.25,1.53-2.2,1.53
			c-0.28,0-0.56-0.05-0.83-0.15C134.82,208.28,134.2,206.92,134.66,205.7z M162.42,206.14c-0.59-1.15-0.15-2.57,1-3.17
			c1.15-0.6,2.56-0.16,3.16,0.98c0.05,0.08,0.45,0.86,0.99,2.36c0.44,1.22-0.19,2.57-1.41,3.01c-0.27,0.09-0.53,0.14-0.8,0.14
			c-0.96,0-1.86-0.6-2.21-1.56C162.72,206.72,162.43,206.14,162.42,206.14z M176.23,204.15c-0.6-1.16-0.15-2.57,1.01-3.17
			c1.15-0.6,2.56-0.15,3.16,1.01c0.32,0.62,0.52,0.91,0.68,1.15c0.38,0.56,0.67,1.01,1.11,2.2c0.46,1.21-0.15,2.57-1.35,3.03
			c-0.28,0.11-0.56,0.16-0.84,0.16c-0.95,0-1.84-0.58-2.19-1.52c-0.29-0.75-0.39-0.89-0.6-1.2
			C176.99,205.48,176.68,205.04,176.23,204.15z M155.58,301.71c-4.07,0-11.19-0.19-13.29-1.44c-1.11-0.66-1.48-2.1-0.82-3.22
			c0.67-1.12,2.11-1.48,3.22-0.82c1.02,0.45,6.47,0.77,10.89,0.77c1.29,0,2.34,1.05,2.34,2.35
			C157.92,300.66,156.87,301.71,155.58,301.71z M176.54,297.04c0.66,1.11,0.27,2.57-0.85,3.23c-2.09,1.25-9.22,1.43-13.29,1.43
			c-1.3,0-2.35-1.05-2.35-2.35s1.05-2.35,2.35-2.35c4.42-0.01,9.86-0.33,10.94-0.81C174.46,295.54,175.88,295.92,176.54,297.04z
			 M166.96,306.18c0.39,1.23-0.3,2.56-1.54,2.95c-2.04,0.65-4.13,0.86-6.01,0.86c-3.61,0-6.44-0.79-6.61-0.84
			c-1.24-0.36-1.97-1.66-1.61-2.91c0.35-1.25,1.65-1.97,2.9-1.62c0.05,0.02,5.34,1.47,9.93,0.02
			C165.26,304.25,166.57,304.94,166.96,306.18z M74.61,331.16c-0.35,0.54-0.56,0.89-0.76,1.21c-0.24,0.41-0.47,0.79-0.9,1.42
			c-0.45,0.68-1.2,1.05-1.96,1.05c-0.44,0-0.9-0.12-1.29-0.39c-1.08-0.72-1.38-2.18-0.66-3.26c0.36-0.56,0.57-0.89,0.78-1.24
			c0.22-0.37,0.45-0.75,0.84-1.35c0.71-1.09,2.16-1.4,3.25-0.69C75.01,328.61,75.32,330.07,74.61,331.16z M85.62,270.32
			c0.95-2.78,1.41-4.39,1.41-4.41c0.35-1.25,1.65-1.97,2.9-1.63c1.24,0.35,1.97,1.65,1.62,2.9c-0.02,0.07-0.49,1.74-1.49,4.66
			c-0.34,0.97-1.25,1.59-2.22,1.59c-0.25,0-0.51-0.04-0.76-0.13C85.85,272.88,85.2,271.54,85.62,270.32z M88.94,256.72
			c0.03-0.08,2.42-8.48,2.42-20.93c0-1.3,1.05-2.35,2.35-2.35c1.29,0,2.34,1.05,2.34,2.35c0,13.16-2.49,21.87-2.6,22.24
			c-0.3,1.03-1.23,1.69-2.25,1.69c-0.22,0-0.44-0.03-0.66-0.09C89.3,259.27,88.58,257.97,88.94,256.72z M244.12,331.16
			c-0.7-1.09-0.4-2.55,0.69-3.25c1.09-0.71,2.54-0.4,3.25,0.69c0.4,0.6,0.62,0.98,0.84,1.35c0.21,0.35,0.42,0.69,0.78,1.24
			c0.72,1.08,0.42,2.54-0.66,3.26c-0.4,0.27-0.85,0.39-1.29,0.39c-0.76,0-1.51-0.37-1.96-1.05c-0.42-0.63-0.65-1.01-0.89-1.42
			C244.69,332.04,244.48,331.7,244.12,331.16z M231.71,265.91c0.01,0.02,0.46,1.62,1.41,4.41c0.42,1.22-0.23,2.56-1.46,2.98
			c-0.25,0.09-0.51,0.13-0.76,0.13c-0.97,0-1.89-0.61-2.22-1.59c-1.01-2.92-1.47-4.59-1.49-4.66c-0.35-1.25,0.38-2.55,1.62-2.9
			C230.06,263.94,231.35,264.66,231.71,265.91z M225.28,258.04c-0.1-0.36-2.6-9.08-2.6-22.24c0-1.3,1.05-2.35,2.35-2.35
			s2.35,1.05,2.35,2.35c0,12.44,2.39,20.84,2.41,20.93c0.36,1.24-0.35,2.55-1.6,2.91c-0.22,0.06-0.44,0.09-0.66,0.09
			C226.52,259.73,225.58,259.06,225.28,258.04z M156.72,460.69v2.62h-1.99c-1.29,0-2.34,1.06-2.34,2.35s1.05,2.35,2.34,2.35h1.99
			v4.55c0,1.3,1.05,2.35,2.35,2.35s2.35-1.06,2.35-2.35v-4.55h2.09c1.3,0,2.35-1.05,2.35-2.35s-1.05-2.35-2.35-2.35h-2.09v-2.62
			c5.38-1.09,9.44-5.86,9.44-11.56c0-6.51-5.29-11.8-11.79-11.8s-11.79,5.29-11.79,11.8C147.28,454.83,151.34,459.6,156.72,460.69z
			 M159.07,442.03c3.91,0,7.09,3.19,7.09,7.1c0,3.92-3.18,7.1-7.09,7.1c-3.91,0-7.09-3.18-7.09-7.1
			C151.98,445.22,155.16,442.03,159.07,442.03z M158.47,397.29c0.15,0.14,0.32,0.23,0.52,0.23c0.04,0,0.07-0.02,0.11-0.02
			c0.03,0.01,0.07,0.02,0.1,0.02c0.2,0,0.37-0.1,0.52-0.23c2.02-0.78,3.84-1.7,5.42-2.79c4.55-3.11,7.24-7.57,7.38-12.21
			c0.09-3.43-1.31-7.42-4.66-8.59c-2.94-1.02-6.83-0.41-8.74,2.16c-1.17-1.48-3-2.43-5.15-2.59c-2.78-0.2-5.32,0.92-6.68,2.93
			c-2.4,3.55-1.79,8.1-0.41,11.18C149.28,392.79,154.41,395.73,158.47,397.29z M159.15,381.29l-0.01-3.14c0.01,0,0.03,0,0.04,0
			L159.15,381.29z M67.42,123.41c0,1.2-0.97,2.17-2.17,2.17c-2.77,0-5.02,2.26-5.02,5.03c0,1.2-0.97,2.17-2.17,2.17
			c-1.2,0-2.17-0.97-2.17-2.17c0-2.77-2.25-5.03-5.02-5.03c-1.2,0-2.17-0.97-2.17-2.17c0-1.2,0.97-2.17,2.17-2.17
			c2.77,0,5.02-2.26,5.02-5.03c0-1.2,0.97-2.17,2.17-2.17c1.2,0,2.17,0.97,2.17,2.17c0,2.77,2.26,5.03,5.02,5.03
			C66.45,121.23,67.42,122.21,67.42,123.41z M149.45,87.79c0-1.2,0.97-2.17,2.17-2.17c2.77,0,5.02-2.26,5.02-5.03
			c0-1.19,0.97-2.17,2.17-2.17s2.17,0.97,2.17,2.17c0,2.78,2.25,5.03,5.02,5.03c1.2,0,2.17,0.97,2.17,2.17s-0.97,2.17-2.17,2.17
			c-2.77,0-5.02,2.26-5.02,5.03c0,1.2-0.97,2.17-2.17,2.17c-1.2,0-2.17-0.97-2.17-2.17c0-2.77-2.26-5.03-5.02-5.03
			C150.42,89.95,149.45,88.98,149.45,87.79z M269.22,123.39c0,1.2-0.97,2.17-2.17,2.17c-2.77,0-5.02,2.26-5.02,5.03
			c0,1.2-0.97,2.17-2.17,2.17s-2.17-0.97-2.17-2.17c0-2.77-2.26-5.03-5.02-5.03c-1.2,0-2.17-0.97-2.17-2.17
			c0-1.2,0.97-2.17,2.17-2.17c2.77,0,5.02-2.26,5.02-5.03c0-1.2,0.97-2.17,2.17-2.17s2.17,0.97,2.17,2.17
			c0,2.77,2.25,5.03,5.02,5.03C268.25,121.22,269.22,122.19,269.22,123.39z M41.48,499.41c0.51,0.51,0.76,1.11,0.76,1.83
			c0,0.71-0.25,1.32-0.76,1.83c-0.52,0.51-1.13,0.76-1.84,0.76h-5.51v16.85c0,0.72-0.25,1.34-0.76,1.84
			c-0.51,0.51-1.11,0.76-1.82,0.76c-0.71,0-1.33-0.26-1.84-0.76c-0.51-0.5-0.76-1.12-0.76-1.84v-16.85h-5.49
			c-0.72,0-1.34-0.25-1.84-0.76c-0.51-0.51-0.76-1.11-0.76-1.83c0-0.71,0.25-1.32,0.76-1.83c0.51-0.51,1.12-0.77,1.84-0.77h16.17
			C40.35,498.64,40.96,498.9,41.48,499.41z M67.08,499.41c0.5,0.51,0.76,1.11,0.76,1.83v19.44c0,0.72-0.26,1.34-0.76,1.84
			c-0.52,0.51-1.13,0.76-1.84,0.76c-0.71,0-1.32-0.26-1.82-0.76c-0.51-0.5-0.76-1.11-0.76-1.84v-7.13H51.64v7.13
			c0,0.72-0.26,1.34-0.76,1.84c-0.51,0.51-1.11,0.76-1.83,0.76c-0.72,0-1.34-0.26-1.84-0.76c-0.51-0.5-0.76-1.11-0.76-1.84v-19.44
			c0-0.71,0.25-1.32,0.76-1.83c0.5-0.51,1.11-0.77,1.84-0.77c0.71,0,1.32,0.26,1.83,0.77c0.5,0.51,0.76,1.11,0.76,1.83v7.12h11.01
			v-7.12c0-0.71,0.26-1.32,0.76-1.83c0.5-0.51,1.11-0.77,1.82-0.77C65.95,498.64,66.56,498.9,67.08,499.41z M79.18,503.82v4.54
			h10.35c0.71,0,1.33,0.25,1.84,0.76c0.5,0.51,0.76,1.12,0.76,1.84c0,0.71-0.26,1.32-0.76,1.83c-0.52,0.51-1.13,0.76-1.84,0.76
			H79.18v4.54h13.59c0.71,0,1.32,0.26,1.84,0.76c0.51,0.51,0.76,1.11,0.76,1.83c0,0.72-0.26,1.34-0.76,1.84
			c-0.52,0.51-1.12,0.76-1.84,0.76H76.59c-0.72,0-1.34-0.26-1.84-0.76c-0.51-0.5-0.76-1.12-0.76-1.84v-19.44
			c0-0.71,0.26-1.32,0.76-1.83c0.5-0.52,1.11-0.77,1.84-0.77h16.18c0.71,0,1.32,0.26,1.84,0.77c0.51,0.51,0.76,1.11,0.76,1.83
			c0,0.71-0.26,1.32-0.76,1.83c-0.52,0.51-1.12,0.76-1.84,0.76H79.18z M120.64,503.82v4.54h10.35c0.71,0,1.33,0.25,1.84,0.76
			c0.51,0.51,0.76,1.12,0.76,1.84c0,0.71-0.26,1.32-0.76,1.83c-0.51,0.51-1.12,0.76-1.84,0.76h-10.35v4.54h13.59
			c0.71,0,1.32,0.26,1.84,0.76c0.51,0.51,0.76,1.11,0.76,1.83c0,0.72-0.26,1.34-0.76,1.84c-0.52,0.51-1.12,0.76-1.84,0.76h-16.18
			c-0.72,0-1.34-0.26-1.84-0.76c-0.51-0.5-0.76-1.12-0.76-1.84v-19.44c0-0.71,0.26-1.32,0.76-1.83c0.5-0.52,1.11-0.77,1.84-0.77
			h16.18c0.71,0,1.32,0.26,1.84,0.77c0.51,0.51,0.76,1.11,0.76,1.83c0,0.71-0.26,1.32-0.76,1.83c-0.52,0.51-1.12,0.76-1.84,0.76
			H120.64z M165.86,499.79c0.29,0.44,0.44,0.92,0.44,1.45v19.44c0,0.72-0.26,1.34-0.78,1.84c-0.5,0.51-1.11,0.76-1.82,0.76
			c-0.71,0-1.32-0.26-1.82-0.76c-0.51-0.5-0.76-1.11-0.76-1.84v-13.18l-5.3,5.3c-0.51,0.51-1.11,0.76-1.84,0.76
			c-0.71,0-1.32-0.25-1.83-0.76l-5.29-5.3v13.18c0,0.72-0.25,1.34-0.76,1.84c-0.51,0.51-1.11,0.76-1.82,0.76
			c-0.72,0-1.34-0.26-1.84-0.76c-0.51-0.5-0.76-1.11-0.76-1.84v-19.44c0-0.53,0.15-1.01,0.44-1.45c0.29-0.43,0.67-0.74,1.15-0.95
			c0.48-0.2,0.98-0.25,1.49-0.15c0.52,0.11,0.96,0.35,1.33,0.72l7.88,7.89l7.89-7.89c0.37-0.37,0.81-0.61,1.31-0.72
			c0.52-0.1,1.02-0.05,1.49,0.15C165.18,499.05,165.57,499.36,165.86,499.79z M184.74,498.64h-9.7c-0.72,0-1.34,0.26-1.84,0.77
			c-0.51,0.51-0.76,1.11-0.76,1.83v19.44c0,0.72,0.26,1.34,0.76,1.84c0.5,0.51,1.11,0.76,1.84,0.76c0.71,0,1.32-0.26,1.82-0.76
			c0.51-0.5,0.76-1.11,0.76-1.84v-3.89h7.12c2.5,0,4.64-0.89,6.41-2.67c1.78-1.77,2.67-3.9,2.67-6.4s-0.89-4.64-2.67-6.42
			C189.38,499.53,187.24,498.64,184.74,498.64z M187.49,510.47c-0.76,0.76-1.67,1.14-2.74,1.14h-7.12v-7.79h7.12
			c1.07,0,1.99,0.39,2.74,1.15c0.77,0.76,1.15,1.68,1.15,2.75C188.64,508.79,188.26,509.7,187.49,510.47z M218.89,512.15
			c0.78-1.38,1.17-2.85,1.17-4.43c0-2.5-0.89-4.64-2.67-6.42c-1.78-1.78-3.91-2.67-6.41-2.67h-9.7c-0.72,0-1.34,0.26-1.84,0.77
			c-0.51,0.51-0.76,1.11-0.76,1.83v19.44c0,0.72,0.26,1.34,0.76,1.84c0.5,0.51,1.11,0.76,1.84,0.76c0.71,0,1.32-0.26,1.82-0.76
			c0.51-0.5,0.76-1.12,0.76-1.84v-3.89h6.05l5.72,5.72c0.5,0.51,1.11,0.76,1.82,0.76c0.71,0,1.32-0.26,1.84-0.76
			c0.51-0.5,0.76-1.11,0.76-1.84c0-0.71-0.26-1.32-0.76-1.83l-3.47-3.47C217.12,514.55,218.14,513.48,218.89,512.15z M213.73,510.47
			c-0.76,0.76-1.68,1.14-2.75,1.14h-7.11v-7.79h7.11c1.07,0,1.99,0.39,2.75,1.15c0.77,0.76,1.15,1.68,1.15,2.75
			C214.88,508.79,214.49,509.7,213.73,510.47z M230.1,503.82v4.54h10.35c0.71,0,1.33,0.25,1.84,0.76c0.51,0.51,0.76,1.12,0.76,1.84
			c0,0.71-0.25,1.32-0.76,1.83c-0.52,0.51-1.13,0.76-1.84,0.76H230.1v4.54h13.59c0.71,0,1.33,0.26,1.84,0.76
			c0.51,0.51,0.76,1.11,0.76,1.83c0,0.72-0.25,1.34-0.76,1.84c-0.52,0.51-1.13,0.76-1.84,0.76h-16.18c-0.72,0-1.33-0.26-1.84-0.76
			c-0.51-0.5-0.76-1.12-0.76-1.84v-19.44c0-0.71,0.25-1.32,0.76-1.83c0.51-0.52,1.12-0.77,1.84-0.77h16.18
			c0.71,0,1.33,0.26,1.84,0.77c0.51,0.51,0.76,1.11,0.76,1.83c0,0.71-0.25,1.32-0.76,1.83c-0.52,0.51-1.13,0.76-1.84,0.76H230.1z
			 M255.71,504.5c-0.45,0.44-0.68,0.97-0.68,1.59s0.22,1.17,0.68,1.61c0.44,0.44,0.97,0.66,1.59,0.66h6.47
			c2.05,0,3.8,0.73,5.26,2.19c1.46,1.46,2.19,3.22,2.19,5.27c0,2.06-0.73,3.81-2.19,5.27c-1.46,1.46-3.21,2.19-5.26,2.19h-11.32
			c-0.72,0-1.34-0.26-1.84-0.76c-0.51-0.5-0.76-1.11-0.76-1.84c0-0.71,0.25-1.32,0.76-1.83c0.51-0.51,1.12-0.76,1.84-0.76h11.32
			c0.62,0,1.16-0.22,1.59-0.66c0.45-0.45,0.68-0.98,0.68-1.61s-0.22-1.16-0.68-1.6c-0.44-0.45-0.97-0.68-1.59-0.68h-6.47
			c-2.05,0-3.81-0.72-5.26-2.19c-1.46-1.45-2.19-3.2-2.19-5.27c0-2.05,0.73-3.81,2.19-5.27c1.45-1.46,3.21-2.19,5.26-2.19h11.32
			c0.71,0,1.33,0.26,1.84,0.77c0.51,0.51,0.76,1.11,0.76,1.83c0,0.71-0.25,1.32-0.76,1.83c-0.52,0.51-1.13,0.76-1.84,0.76h-11.32
			C256.68,503.82,256.15,504.05,255.71,504.5z M280.65,504.5c-0.45,0.44-0.67,0.97-0.67,1.59s0.22,1.17,0.67,1.61
			c0.44,0.44,0.97,0.66,1.6,0.66h6.47c2.05,0,3.81,0.73,5.26,2.19c1.46,1.46,2.19,3.22,2.19,5.27c0,2.06-0.73,3.81-2.19,5.27
			c-1.45,1.46-3.21,2.19-5.26,2.19H277.4c-0.72,0-1.34-0.26-1.84-0.76c-0.51-0.5-0.76-1.11-0.76-1.84c0-0.71,0.25-1.32,0.76-1.83
			c0.51-0.51,1.12-0.76,1.84-0.76h11.32c0.62,0,1.16-0.22,1.6-0.66c0.45-0.45,0.67-0.98,0.67-1.61s-0.22-1.16-0.67-1.6
			c-0.44-0.45-0.97-0.68-1.6-0.68h-6.47c-2.05,0-3.8-0.72-5.26-2.19c-1.46-1.45-2.19-3.2-2.19-5.27c0-2.05,0.73-3.81,2.19-5.27
			c1.46-1.46,3.21-2.19,5.26-2.19h11.32c0.71,0,1.33,0.26,1.84,0.77c0.51,0.51,0.76,1.11,0.76,1.83c0,0.71-0.25,1.32-0.76,1.83
			c-0.52,0.51-1.13,0.76-1.84,0.76h-11.32C281.62,503.82,281.09,504.05,280.65,504.5z"/>
	</g>
</g>
</svg>
