<?xml version="1.0" encoding="utf-8"?>
<!-- Generator: Adobe Illustrator 29.8.1, SVG Export Plug-In . SVG Version: 9.03 Build 0)  -->
<svg version="1.0" id="Layer_1" xmlns="http://www.w3.org/2000/svg" xmlns:xlink="http://www.w3.org/1999/xlink" x="0px" y="0px"
	 viewBox="0 0 329 558.69" style="enable-background:new 0 0 329 558.69;" xml:space="preserve">
<style type="text/css">
	.st0{clip-path:url(#SVGID_00000165947721764337564530000000288998862132137384_);}
	.st1{fill:#2E2E2E;}
</style>
<g>
	<defs>
		<rect id="SVGID_1_" y="-0.31" width="329" height="559"/>
	</defs>
	<clipPath id="SVGID_00000070090968622067056840000014317172366254853262_">
		<use xlink:href="#SVGID_1_"  style="overflow:visible;"/>
	</clipPath>
	<g style="clip-path:url(#SVGID_00000070090968622067056840000014317172366254853262_);">
		<path class="st1" d="M196.45,214.43c-0.22-1.31,0.67-2.56,1.98-2.78c0.52-0.08,1.1-0.2,1.71-0.33c2.44-0.52,5.34-1.32,6.96-2.17
			c-0.19-1.06,0.34-2.16,1.37-2.62c1.22-0.56,2.65-0.02,3.2,1.19l1.11,2.44c0.55,1.21,0.02,2.64-1.2,3.19
			c-0.32,0.15-0.66,0.21-0.99,0.21c-0.36,0-0.71-0.1-1.04-0.26c-3.45,1.88-9.08,2.89-10.32,3.1c-0.06,0.01-0.12,0.01-0.19,0.02
			c-0.07,0.01-0.14,0.02-0.21,0.02C197.67,216.44,196.65,215.6,196.45,214.43z M202.28,165.79c0.46,0,0.93-0.1,1.41-0.3
			c1.37-0.58,1.92-1.43,2.32-2.06c0.39-0.6,0.86-1.34,3.2-2.67c3.87-2.19,9.42-1.28,9.47-1.27c1.31,0.23,2.56-0.65,2.8-1.96
			c0.15-0.82-0.15-1.62-0.71-2.16c-0.21-0.23-0.47-0.42-0.78-0.55c-0.23-0.11-5.92-2.56-13.15,0.2c-5.05,1.92-7.19,5.02-7.5,7.08
			c-0.19,1.26,0.22,2.37,1.12,3.07C200.99,165.58,201.62,165.79,202.28,165.79z M217.79,171.83c-2.16,3.22-5.96,5.06-8.46,5.97
			c-1.19-2.95-0.43-6.12-0.42-6.2c0.33-1.29-0.44-2.59-1.73-2.93c-1.29-0.34-2.61,0.43-2.95,1.72c-0.06,0.22-1.28,5.09,0.85,9.74
			c0,0.01-0.01,0.01-0.01,0.01l-0.89,2.66c-0.27,0.82-0.09,1.72,0.49,2.36c0.46,0.52,1.12,0.81,1.8,0.81c0.17,0,0.33-0.02,0.5-0.05
			c0.53-0.11,13.07-2.86,15.16-12.01c0.05-0.22,0.07-0.44,0.06-0.65c0.03-0.81-0.34-1.62-1.07-2.11
			C220.03,170.42,218.53,170.72,217.79,171.83z M328.99,539.36c0.01,5.01-1.94,9.72-5.48,13.27c-3.54,3.55-8.26,5.51-13.28,5.52
			l-145.27,0.24l-145.3,0.24c-5.01,0-9.71-1.94-13.26-5.47c-3.56-3.54-5.52-8.24-5.53-13.25L0,19.03
			c-0.01-5.01,1.94-9.72,5.48-13.28c3.54-3.55,8.26-5.51,13.28-5.52L164.03,0l145.28-0.24h0.03c5.01,0,9.71,1.94,13.26,5.47
			c3.56,3.54,5.52,8.24,5.53,13.26L328.99,539.36z M324.16,539.36l-0.43-260.44l-0.44-260.44c-0.01-3.85-1.57-7.33-4.1-9.84
			c-2.53-2.52-6.01-4.07-9.85-4.07c-0.01,0-0.02,0-0.03,0L164.04,4.82L18.77,5.06c-3.86,0.01-7.34,1.57-9.86,4.1
			c-2.53,2.53-4.08,6.01-4.07,9.86l0.43,260.44L5.7,539.9c0.01,3.85,1.58,7.33,4.1,9.85c2.53,2.51,6.01,4.06,9.85,4.06
			c0.01,0,0.02,0,0.03,0l145.27-0.24l145.27-0.24c3.85-0.01,7.34-1.57,9.86-4.1C322.61,546.7,324.17,543.21,324.16,539.36z
			 M68.08,515.99H51.39c-0.75,0-1.38,0.27-1.9,0.8c-0.52,0.52-0.78,1.15-0.78,1.88s0.26,1.36,0.78,1.88
			c0.52,0.52,1.15,0.78,1.9,0.78h5.67v17.34c0,0.74,0.26,1.38,0.78,1.9c0.53,0.52,1.17,0.78,1.9,0.78s1.36-0.26,1.89-0.78
			c0.52-0.52,0.78-1.15,0.78-1.9v-17.34h5.69c0.73,0,1.37-0.26,1.9-0.78c0.52-0.52,0.78-1.15,0.78-1.88s-0.26-1.36-0.78-1.88
			C69.45,516.26,68.81,515.99,68.08,515.99z M96.86,515.99c-0.73,0-1.36,0.27-1.88,0.8c-0.52,0.52-0.78,1.15-0.78,1.88v7.33H82.83
			v-7.33c0-0.73-0.26-1.36-0.78-1.88c-0.52-0.53-1.15-0.8-1.89-0.8c-0.74,0-1.38,0.27-1.9,0.8c-0.52,0.52-0.78,1.15-0.78,1.88v20
			c0,0.74,0.26,1.38,0.78,1.9c0.52,0.52,1.16,0.78,1.9,0.78c0.73,0,1.36-0.26,1.89-0.78c0.52-0.52,0.78-1.15,0.78-1.9v-7.33H94.2
			v7.33c0,0.74,0.26,1.38,0.78,1.9c0.52,0.52,1.15,0.78,1.88,0.78s1.37-0.26,1.9-0.78c0.52-0.52,0.78-1.15,0.78-1.9v-20
			c0-0.73-0.26-1.36-0.78-1.88C98.23,516.26,97.6,515.99,96.86,515.99z M127.66,521.33c0.73,0,1.37-0.26,1.9-0.78
			c0.52-0.52,0.78-1.15,0.78-1.88s-0.26-1.36-0.78-1.88c-0.53-0.53-1.17-0.8-1.9-0.8h-16.69c-0.74,0-1.38,0.27-1.9,0.8
			c-0.52,0.52-0.78,1.15-0.78,1.88v20c0,0.74,0.26,1.38,0.78,1.9c0.52,0.52,1.16,0.78,1.9,0.78h16.69c0.73,0,1.37-0.26,1.9-0.78
			c0.52-0.52,0.78-1.15,0.78-1.9c0-0.73-0.26-1.36-0.78-1.88c-0.53-0.52-1.17-0.78-1.9-0.78h-14.03v-4.67h10.69
			c0.73,0,1.36-0.26,1.9-0.78c0.52-0.52,0.78-1.15,0.78-1.88c0-0.74-0.26-1.38-0.78-1.9c-0.53-0.52-1.16-0.78-1.9-0.78h-10.69v-4.68
			H127.66z M179.55,516.2c-0.49-0.2-1.01-0.26-1.54-0.15c-0.52,0.11-0.97,0.36-1.36,0.74l-8.14,8.11l-8.13-8.11
			c-0.38-0.39-0.84-0.64-1.37-0.74c-0.54-0.1-1.05-0.05-1.55,0.15c-0.49,0.21-0.89,0.54-1.19,0.98c-0.3,0.45-0.46,0.95-0.46,1.49v20
			c0,0.74,0.26,1.38,0.78,1.9c0.52,0.52,1.16,0.78,1.9,0.78c0.73,0,1.36-0.26,1.88-0.78c0.52-0.52,0.78-1.15,0.78-1.9v-13.56
			l5.46,5.45c0.52,0.52,1.15,0.78,1.89,0.78c0.74,0,1.38-0.26,1.9-0.78l5.46-5.45v13.56c0,0.74,0.26,1.38,0.78,1.9
			c0.52,0.52,1.15,0.78,1.89,0.78c0.73,0,1.36-0.26,1.88-0.78c0.53-0.52,0.8-1.15,0.8-1.9v-20c0-0.54-0.15-1.04-0.46-1.49
			C180.46,516.74,180.06,516.41,179.55,516.2z M210.26,519.72c2.49,2.47,3.73,5.46,3.73,8.96c0,3.49-1.24,6.48-3.73,8.96
			c-2.48,2.47-5.47,3.71-8.97,3.71c-3.49,0-6.49-1.24-8.97-3.71c-2.48-2.48-3.71-5.47-3.71-8.96c0-3.5,1.23-6.48,3.71-8.96
			c2.48-2.48,5.48-3.72,8.97-3.72C204.79,515.99,207.78,517.24,210.26,519.72z M208.65,528.68c0-2.02-0.72-3.74-2.16-5.18
			c-1.45-1.44-3.19-2.17-5.21-2.17c-2.03,0-3.76,0.72-5.19,2.17c-1.44,1.44-2.15,3.16-2.15,5.18c0,2.02,0.71,3.75,2.15,5.18
			c1.44,1.44,3.17,2.15,5.19,2.15c2.03,0,3.76-0.71,5.21-2.15C207.93,532.43,208.65,530.7,208.65,528.68z M241.71,519.72
			c2.49,2.47,3.73,5.46,3.73,8.96c0,3.49-1.24,6.48-3.73,8.96c-2.47,2.47-5.47,3.71-8.97,3.71c-3.49,0-6.48-1.24-8.97-3.71
			c-2.48-2.48-3.71-5.47-3.71-8.96c0-3.5,1.23-6.48,3.71-8.96c2.49-2.48,5.48-3.72,8.97-3.72
			C236.24,515.99,239.24,517.24,241.71,519.72z M240.1,528.68c0-2.02-0.72-3.74-2.16-5.18c-1.45-1.44-3.18-2.17-5.21-2.17
			s-3.76,0.72-5.19,2.17c-1.44,1.44-2.15,3.16-2.15,5.18c0,2.02,0.71,3.75,2.15,5.18c1.44,1.44,3.17,2.15,5.19,2.15
			s3.76-0.71,5.21-2.15C239.39,532.43,240.1,530.7,240.1,528.68z M272.22,515.99c-0.74,0-1.36,0.27-1.89,0.8
			c-0.52,0.52-0.78,1.15-0.78,1.88v12.63l-11.97-14.34c-0.36-0.43-0.82-0.71-1.36-0.86c-0.54-0.15-1.08-0.12-1.61,0.07
			c-0.53,0.19-0.96,0.51-1.28,0.96c-0.33,0.46-0.49,0.97-0.49,1.54v20c0,0.74,0.26,1.38,0.78,1.9c0.52,0.52,1.15,0.78,1.9,0.78
			c0.74,0,1.36-0.26,1.89-0.78c0.52-0.52,0.78-1.15,0.78-1.9v-12.64l11.97,14.34c0.54,0.64,1.22,0.96,2.06,0.96
			c0.31,0,0.62-0.05,0.92-0.15c0.53-0.19,0.95-0.52,1.27-0.98c0.33-0.46,0.49-0.97,0.49-1.54v-20c0-0.73-0.26-1.36-0.78-1.88
			C273.59,516.26,272.95,515.99,272.22,515.99z M117.96,54.3c0.07,0.73,0.38,1.33,0.95,1.79c0.48,0.42,1.06,0.63,1.71,0.63
			c0.82,0,1.51-0.32,2.05-0.96l6.3-7.54l6.29,7.54c0.54,0.64,1.23,0.96,2.05,0.96c0.65,0,1.21-0.21,1.71-0.63
			c0.57-0.46,0.88-1.06,0.95-1.79c0.07-0.73-0.14-1.39-0.61-1.95l-6.92-8.3l6.92-8.3c0.47-0.56,0.68-1.21,0.61-1.94
			c-0.07-0.73-0.38-1.34-0.95-1.81c-0.57-0.47-1.22-0.68-1.95-0.61c-0.73,0.06-1.34,0.38-1.81,0.95l-6.29,7.55l-6.3-7.55
			c-0.47-0.57-1.08-0.88-1.81-0.95c-0.74-0.07-1.39,0.14-1.95,0.61c-0.57,0.47-0.88,1.08-0.95,1.81c-0.07,0.73,0.14,1.38,0.61,1.95
			l6.92,8.3l-6.92,8.3C118.1,52.91,117.89,53.56,117.96,54.3z M155.69,55.24c0.22,0.45,0.55,0.81,0.98,1.07
			c0.43,0.27,0.9,0.41,1.41,0.41c0.51,0,0.98-0.14,1.41-0.41c0.43-0.26,0.76-0.61,0.98-1.07l10.01-20.02
			c0.34-0.66,0.39-1.33,0.15-2.04c-0.23-0.7-0.68-1.21-1.34-1.54s-1.33-0.38-2.04-0.16c-0.7,0.24-1.22,0.69-1.55,1.34l-7.63,15.24
			l-7.64-15.21c-0.33-0.67-0.84-1.11-1.55-1.34c-0.7-0.24-1.39-0.19-2.05,0.14c-0.66,0.33-1.09,0.84-1.32,1.54
			c-0.23,0.7-0.19,1.38,0.14,2.05L155.69,55.24z M180.19,56.72c0.73,0,1.36-0.26,1.89-0.78c0.52-0.52,0.78-1.15,0.78-1.9v-20
			c0-0.73-0.27-1.36-0.78-1.88c-0.52-0.53-1.15-0.8-1.89-0.8c-0.74,0-1.38,0.27-1.9,0.8c-0.52,0.52-0.78,1.15-0.78,1.88v20
			c0,0.74,0.26,1.38,0.78,1.9C178.81,56.46,179.44,56.72,180.19,56.72z M194.29,56.72c0.73,0,1.36-0.26,1.89-0.78
			c0.52-0.52,0.78-1.15,0.78-1.9v-20c0-0.73-0.26-1.36-0.78-1.88c-0.52-0.53-1.15-0.8-1.89-0.8c-0.74,0-1.38,0.27-1.9,0.8
			c-0.52,0.52-0.78,1.15-0.78,1.88v20c0,0.74,0.26,1.38,0.78,1.9C192.91,56.46,193.54,56.72,194.29,56.72z M208.39,56.72
			c0.73,0,1.36-0.26,1.88-0.78c0.52-0.52,0.78-1.15,0.78-1.9v-20c0-0.73-0.26-1.36-0.78-1.88c-0.52-0.53-1.15-0.8-1.88-0.8
			c-0.75,0-1.38,0.27-1.9,0.8c-0.52,0.52-0.78,1.15-0.78,1.88v20c0,0.74,0.26,1.38,0.78,1.9C207.01,56.46,207.64,56.72,208.39,56.72
			z M315.64,279.19l0.02,217.37c0,2.28-1.98,4.27-4.28,4.27H17.47c-2.27,0-4.09-1.81-4.14-4.06V18.76c0-1.57,0.61-3.04,1.72-4.15
			c1.11-1.11,2.59-1.72,4.16-1.72h290.54c1.57,0,3.05,0.61,4.16,1.72s1.72,2.58,1.72,4.15V279.19z M18.18,390.12h104.67
			c4.62-17.92,12.19-29.7,12.19-29.7c1.21-20.1,6.68-31.46,9.87-36.49c-0.58-0.51-1.12-1.06-1.62-1.66
			c-2.5-2.95-3.77-6.75-4.14-10.59c-52.43-11.56-91.66-58.2-91.66-114.02c0-0.05,0.01-0.1,0.01-0.16c0-0.06-0.01-0.11-0.01-0.16
			c0-1.39,0.04-2.76,0.11-4.12c2.34-62.45,53.77-112.36,116.9-112.36c64.62,0,117.01,52.3,117.01,116.8
			c0,56.15-39.69,103.02-92.59,114.24c-0.05,0.23-0.07,0.47-0.12,0.7c-0.94,4.51-3.35,8.82-6.98,11.71
			c3.22,5.22,8.44,16.51,9.63,36.11c0,0,7.56,11.78,12.19,29.7H310.8l-0.01-110.93V18.76c0-0.29-0.1-0.53-0.3-0.73
			c-0.2-0.2-0.45-0.3-0.73-0.3H19.22c-0.29,0-0.53,0.1-0.73,0.3c-0.2,0.2-0.3,0.45-0.3,0.73V390.12z M138.72,279.59
			c4.67-2,14.01,7.99,14.01,7.99s3.9-5.17,11.68-5.31c7.11,0.14,10.97,4.45,11.58,5.19c0.33-0.27,0.67-0.55,1.04-0.83
			c2.48-2.44,9.3-8.65,13.07-7.04c4.67,1.99,2,21.31-0.67,25.31c-0.03,0.04-0.02,0.15-0.01,0.28
			c48.99-11.32,85.64-55.21,85.64-107.51c0-60.86-49.6-110.38-110.57-110.38c-42.7,0-79.8,24.31-98.21,59.78
			c14.11-16.26,34.93-26.56,58.18-26.56c30.42,0,56.71,17.61,69.21,43.18l0.47,1.2c2.47,7.2,1.65,15.42-2.21,21.26
			c-7.32,11.07-12.86,7.53-10.86,13.28c1.04,3.01,8.1,2.99,11.75,3.76c1.7,0.36-2.22,5.76-2.22,5.76s-2.88,3.32-0.44,5.76
			c4.09,4.08-0.66,5.09,3.99,8.19c0.77,0.51-0.9,6.4-1.07,7.06c-0.54,2.09-1.27,4.14-2.14,6.11
			c-13.35,22.79-38.11,38.11-66.48,38.11c-23.69,0-44.87-10.69-58.99-27.49c14.51,29.09,41.49,50.9,73.92,58.45
			c0.02-0.1,0.02-0.2,0-0.23C136.72,300.9,134.05,281.58,138.72,279.59z M310.81,495.99v-8.05c-0.31,0.15-0.66,0.24-1.03,0.24
			h-50.41c-1.33,0-2.42-1.08-2.42-2.42c0-1.33,1.09-2.42,2.42-2.42h50.41c0.37,0,0.72,0.09,1.03,0.23l-0.01-10.11h-97.26
			c-1.34,0-2.42-1.08-2.42-2.42c0-1.34,1.08-2.42,2.42-2.42h97.26v-12.23c-0.44,0.49-1.08,0.81-1.8,0.81h-79.89
			c-1.34,0-2.42-1.08-2.42-2.42c0-1.33,1.08-2.42,2.42-2.42h79.89c0.71,0,1.35,0.32,1.8,0.81v-12.23h-43.68
			c-1.34,0-2.43-1.08-2.43-2.42c0-1.33,1.09-2.42,2.43-2.42h43.68v-10.65h-66.94c-1.34,0-2.43-1.08-2.43-2.42
			c0-1.33,1.09-2.42,2.43-2.42h66.94V409.2c-0.08,0.01-0.16,0.02-0.24,0.02h-81.43c-1.34,0-2.42-1.08-2.42-2.42
			c0-1.34,1.08-2.42,2.42-2.42h81.44c0.08,0,0.16,0.02,0.24,0.03v-9.44H204.78c1.43,6.7,2.38,14.11,2.38,21.98
			c0,32.07-19.2,40.77-19.2,40.77s-4.81,1.83-11.08,3.26c-6.53,2.96-15.33,7.74-31.71,14.67c-30.83,13.05-53.22,4.62-62.53,1.91
			c-9.31-2.72-7.85-12.5,2.61-10.6c5.17,0.94,23.56,7.34,41.01,0.81c7.17-2.68,11-6.05,15.4-9.08c-1.94-0.57-3.14-0.97-3.14-0.97
			s-19.2-8.7-19.2-40.77c0-7.87,0.95-15.28,2.38-21.98H18.18v9.42h81.43c1.34,0,2.42,1.08,2.42,2.42c0,1.33-1.08,2.42-2.42,2.42
			H18.18v11.42h66.69c1.34,0,2.42,1.08,2.42,2.42c0,1.34-1.08,2.42-2.42,2.42H18.18v10.65h43.43c1.34,0,2.42,1.08,2.42,2.42
			c0,1.34-1.08,2.42-2.42,2.42H18.18v11.98c0.42-0.35,0.96-0.57,1.55-0.57h79.88c1.34,0,2.42,1.08,2.42,2.42
			c0,1.34-1.08,2.42-2.42,2.42H19.73c-0.59,0-1.12-0.22-1.55-0.57v11.99h16.28c1.34,0,2.42,1.08,2.42,2.42
			c0,1.33-1.08,2.42-2.42,2.42H18.18v10.01c0.24-0.08,0.5-0.14,0.77-0.14h50.41c1.34,0,2.42,1.08,2.42,2.42
			c0,1.34-1.08,2.42-2.42,2.42H18.95c-0.27,0-0.53-0.06-0.77-0.14v7.94H310.81z M245.66,49.79c2.85,0,5.18,2.32,5.18,5.17
			c0,1.23,1.01,2.23,2.24,2.23s2.23-1,2.23-2.23c0-2.85,2.32-5.17,5.18-5.17c1.23,0,2.23-1,2.23-2.23c0-1.23-1-2.23-2.23-2.23
			c-2.86,0-5.18-2.32-5.18-5.17c0-1.23-1-2.23-2.23-2.23s-2.24,1-2.24,2.23c0,2.85-2.32,5.17-5.18,5.17c-1.23,0-2.24,1-2.24,2.23
			C243.42,48.79,244.42,49.79,245.66,49.79z M68.51,49.08c2.86,0,5.18,2.32,5.18,5.17c0,1.23,1,2.23,2.23,2.23s2.23-1,2.23-2.23
			c0-2.85,2.33-5.17,5.18-5.17c1.23,0,2.24-1,2.24-2.23c0-1.23-1.01-2.23-2.24-2.23c-2.85,0-5.18-2.32-5.18-5.17
			c0-1.23-1-2.23-2.23-2.23s-2.23,1-2.23,2.23c0,2.85-2.32,5.17-5.18,5.17c-1.23,0-2.23,1-2.23,2.23
			C66.27,48.08,67.27,49.08,68.51,49.08z M274.58,86.76c2.85,0,5.18,2.32,5.18,5.17c0,1.23,1.01,2.23,2.24,2.23s2.23-1,2.23-2.23
			c0-2.85,2.32-5.17,5.18-5.17c1.23,0,2.23-1,2.23-2.23s-1-2.23-2.23-2.23c-2.86,0-5.18-2.32-5.18-5.17c0-1.23-1-2.23-2.23-2.23
			s-2.24,1-2.24,2.23c0,2.85-2.32,5.17-5.18,5.17c-1.24,0-2.24,1-2.24,2.23S273.34,86.76,274.58,86.76z M44.77,91.93
			c0,1.23,1,2.23,2.23,2.23s2.24-1,2.24-2.23c0-2.85,2.32-5.17,5.18-5.17c1.23,0,2.23-1,2.23-2.23s-1-2.23-2.23-2.23
			c-2.86,0-5.18-2.32-5.18-5.17c0-1.23-1.01-2.23-2.24-2.23s-2.23,1-2.23,2.23c0,2.85-2.32,5.17-5.18,5.17c-1.23,0-2.23,1-2.23,2.23
			s1,2.23,2.23,2.23C42.44,86.76,44.77,89.08,44.77,91.93z M61.4,304.74c-2.86,0-5.18-2.32-5.18-5.18c0-1.23-1.01-2.23-2.23-2.23
			c-1.24,0-2.24,1-2.24,2.23c0,2.85-2.32,5.18-5.18,5.18c-1.23,0-2.23,0.99-2.23,2.23s1,2.23,2.23,2.23c2.86,0,5.18,2.32,5.18,5.17
			c0,1.23,1,2.23,2.24,2.23c1.23,0,2.23-1,2.23-2.23c0-2.85,2.32-5.17,5.18-5.17c1.23,0,2.23-1,2.23-2.23S62.64,304.74,61.4,304.74z
			 M272.78,314.38c0,1.23,1,2.23,2.23,2.23c1.24,0,2.24-1,2.24-2.23c0-2.85,2.32-5.17,5.18-5.17c1.23,0,2.23-1,2.23-2.23
			c0-1.23-1-2.23-2.23-2.23c-2.86,0-5.18-2.32-5.18-5.17c0-1.23-1.01-2.23-2.24-2.23s-2.23,1-2.23,2.23c0,2.85-2.32,5.17-5.18,5.17
			c-1.23,0-2.23,1-2.23,2.23c0,1.23,1,2.23,2.23,2.23C270.45,309.2,272.78,311.52,272.78,314.38z M239.39,342.67
			c-2.85,0-5.18-2.32-5.18-5.17c0-1.23-1.01-2.23-2.24-2.23s-2.23,1-2.23,2.23c0,2.85-2.32,5.17-5.18,5.17c-1.23,0-2.23,1-2.23,2.23
			c0,1.23,1,2.23,2.23,2.23c2.86,0,5.18,2.32,5.18,5.17c0,1.23,1,2.23,2.23,2.23s2.24-1,2.24-2.23c0-2.85,2.32-5.17,5.18-5.17
			c1.24,0,2.24-1,2.24-2.23C241.63,343.67,240.63,342.67,239.39,342.67z M104.44,342.67c-2.86,0-5.18-2.32-5.18-5.17
			c0-1.23-1-2.23-2.23-2.23s-2.24,1-2.24,2.23c0,2.85-2.32,5.17-5.18,5.17c-1.23,0-2.24,1-2.24,2.23c0,1.23,1.01,2.23,2.24,2.23
			c2.85,0,5.18,2.32,5.18,5.17c0,1.23,1.01,2.23,2.24,2.23s2.23-1,2.23-2.23c0-2.85,2.32-5.17,5.18-5.17c1.23,0,2.23-1,2.23-2.23
			C106.68,343.67,105.68,342.67,104.44,342.67z M56.37,353.41c-2.85,0-5.18-2.32-5.18-5.17c0-1.23-1-2.23-2.23-2.23
			s-2.23,1-2.23,2.23c0,2.85-2.33,5.17-5.18,5.17c-1.23,0-2.23,1-2.23,2.23c0,1.23,1,2.23,2.23,2.23c2.85,0,5.18,2.32,5.18,5.17
			c0,1.23,1,2.23,2.23,2.23s2.23-1,2.23-2.23c0-2.85,2.33-5.17,5.18-5.17c1.23,0,2.23-1,2.23-2.23
			C58.6,354.41,57.6,353.41,56.37,353.41z M287.46,353.41c-2.85,0-5.18-2.32-5.18-5.17c0-1.23-1-2.23-2.23-2.23s-2.23,1-2.23,2.23
			c0,2.85-2.32,5.17-5.18,5.17c-1.23,0-2.23,1-2.23,2.23c0,1.23,1,2.23,2.23,2.23c2.86,0,5.18,2.32,5.18,5.17
			c0,1.23,1,2.23,2.23,2.23s2.23-1,2.23-2.23c0-2.85,2.33-5.17,5.18-5.17c1.23,0,2.24-1,2.24-2.23
			C289.7,354.41,288.69,353.41,287.46,353.41z M166.74,282.25h-0.67c0.11,0,0.22,0.01,0.33,0.02
			C166.52,282.26,166.62,282.25,166.74,282.25z M105.91,422.29c0-1.34-1.08-2.42-2.42-2.42h-8.53c-1.34,0-2.43,1.08-2.43,2.42
			c0,1.33,1.09,2.42,2.43,2.42h8.53C104.83,424.7,105.91,423.62,105.91,422.29z M85.65,436.12H73.24c-1.34,0-2.42,1.08-2.42,2.42
			c0,1.34,1.08,2.42,2.42,2.42h12.41c1.34,0,2.42-1.08,2.42-2.42C88.07,437.21,86.99,436.12,85.65,436.12z M61.61,467.86H46.88
			c-1.34,0-2.43,1.08-2.43,2.42c0,1.33,1.09,2.42,2.43,2.42h14.73c1.34,0,2.42-1.08,2.42-2.42
			C64.03,468.95,62.95,467.86,61.61,467.86z M225.25,424.7h8.53c1.34,0,2.42-1.08,2.42-2.42c0-1.34-1.08-2.42-2.42-2.42h-8.53
			c-1.34,0-2.43,1.08-2.43,2.42C222.82,423.62,223.91,424.7,225.25,424.7z M243.09,440.96h12.41c1.34,0,2.43-1.08,2.43-2.42
			c0-1.33-1.09-2.42-2.43-2.42h-12.41c-1.34,0-2.43,1.08-2.43,2.42C240.66,439.88,241.75,440.96,243.09,440.96z M242.64,483.41
			h-17.45c-1.34,0-2.42,1.08-2.42,2.42c0,1.33,1.08,2.42,2.42,2.42h17.45c1.34,0,2.42-1.08,2.42-2.42
			C245.06,484.49,243.97,483.41,242.64,483.41z M182.4,483.41h-33.29c-1.34,0-2.42,1.08-2.42,2.42c0,1.33,1.08,2.42,2.42,2.42h33.29
			c1.34,0,2.42-1.08,2.42-2.42C184.82,484.49,183.74,483.41,182.4,483.41z"/>
	</g>
</g>
</svg>
