<?xml version="1.0" encoding="utf-8"?>
<!-- Generator: Adobe Illustrator 29.8.1, SVG Export Plug-In . SVG Version: 9.03 Build 0)  -->
<svg version="1.0" id="Layer_1" xmlns="http://www.w3.org/2000/svg" xmlns:xlink="http://www.w3.org/1999/xlink" x="0px" y="0px"
	 viewBox="0 0 320 546.88" style="enable-background:new 0 0 320 546.88;" xml:space="preserve">
<style type="text/css">
	.st0{clip-path:url(#SVGID_00000088135295545930006270000017525180916705647288_);}
	.st1{fill:#2E2E2E;}
</style>
<g>
	<defs>
		<rect id="SVGID_1_" x="0" width="320" height="547"/>
	</defs>
	<clipPath id="SVGID_00000052805649758204036890000003335487583837670569_">
		<use xlink:href="#SVGID_1_"  style="overflow:visible;"/>
	</clipPath>
	<g style="clip-path:url(#SVGID_00000052805649758204036890000003335487583837670569_);">
		<path class="st1" d="M314.65,5.48c-3.47-3.48-8.09-5.37-12.95-5.37H18.31c-4.91,0-9.53,1.89-12.95,5.37C1.89,8.96,0,13.59,0,18.46
			v510.03c0,4.92,1.89,9.54,5.36,13.02c3.47,3.48,8.08,5.37,12.95,5.37h283.34c4.91,0,9.53-1.89,12.95-5.37
			c3.47-3.48,5.36-8.1,5.36-13.02V18.51C320,13.59,318.11,8.96,314.65,5.48z M315.29,273.52v255.02c0,3.78-1.54,7.16-3.97,9.65
			c-2.48,2.48-5.85,3.97-9.62,3.97H18.31c-3.77,0-7.15-1.54-9.63-3.97c-2.48-2.48-3.97-5.87-3.97-9.65V18.51
			c0-3.78,1.54-7.16,3.97-9.65c2.48-2.48,5.85-3.98,9.63-3.98h283.34c3.77,0,7.15,1.54,9.62,3.98c2.48,2.48,3.97,5.86,3.97,9.65
			L315.29,273.52z M307.4,18.51c0-1.54-0.59-2.98-1.69-4.08c-1.09-1.09-2.53-1.69-4.07-1.69H18.26c-1.54,0-2.97,0.6-4.07,1.69
			c-1.09,1.09-1.69,2.54-1.69,4.08v468.07c0.05,2.19,1.84,3.97,4.02,3.97h266.67c0.1,0.05,0.2,0.1,0.35,0.1
			c0.15,0.05,0.3,0.05,0.45,0.05c0.3,0,0.55-0.05,0.79-0.15h18.41c2.23,0,4.17-1.94,4.17-4.18V18.51H307.4z M300.31,409.78
			c1.04-1.84,1.54-4.23,1.34-6.96c-0.24-3.68-1.68-8-3.86-11.93c-1.79-3.14-1.24-7.61-0.74-11.93c0.49-4.08,0.94-7.91-0.55-10.84
			c-0.55-1.04-0.94-3.18-1.34-5.42c-1.29-6.86-3.22-17.1-12.95-18.99c-0.2-0.15-0.4-0.25-0.59-0.35c-0.84-1.29-2.33-3.33-4.52-5.37
			c-2.63-2.48-6.2-5.07-10.86-6.41c-1.83-0.55-3.77-0.84-5.7-0.94c-0.2-0.05-0.4,0-0.65,0c-0.99,0-1.93,0-2.93,0.1
			c0.25-4.82-2.73-9.55-5.66-14.17c-1.09-1.74-2.08-3.33-2.88-4.88l2.28-2.39c1.69,1.19,4.96,5.22,9.77,12.08
			c0.9,1.24,1.49,2.14,1.89,2.58c0.45,0.59,1.14,0.84,1.84,0.84c0.54,0,1.04-0.2,1.48-0.55c0.99-0.84,1.14-2.33,0.35-3.33
			c-0.25-0.35-0.94-1.24-1.69-2.34c-0.54-0.8-1.09-1.54-1.58-2.23c1.34-1.69,4.46-5.47,6.79-8.35c1.39-1.69,2.33-3.08,3.08-4.18
			c0.84-1.19,1.44-2.14,2.33-3.03c0.94,0.95,2.68,3.83,4.12,7.81c1.59,4.38,13.44,16.01,15.82,18.29c0.45,0.45,1.04,0.65,1.64,0.65
			c0.6,0,1.24-0.25,1.69-0.74c0.9-0.94,0.9-2.44-0.05-3.33c-1.74-1.69-3.72-3.62-5.66-5.67c2.14-3.13,4.56-5.81,5.8-6.31
			c1.19,1.54,3.32,3.48,4.36,4.38v118.06l-2.38-6.26C300.85,424.59,302.24,415.05,300.31,409.78z M225.01,485.83
			c-0.2-0.1-0.45-0.15-0.7-0.15l-3.37-0.2c-75.1-12.63-139.59-65.37-149.26-73.57c1.83-1.59,3.67-3.23,5.41-4.82
			c0.05,0.6,0.34,1.19,0.84,1.64c0.74,0.6,74.45,61.24,150.15,71.14c0.1,0,0.2,0,0.3,0c1.19,0,2.18-0.9,2.33-2.04
			c0.15-1.29-0.74-2.48-2.04-2.64c-74.31-9.74-147.03-69.45-147.72-70.09c-0.35-0.3-0.74-0.45-1.14-0.49
			c11.85-11.19,21.33-22.42,25.34-29.33c2.39-4.08,3.77-7.85,4.47-11.23c1.83,2.58,4.46,5.96,7.93,9.84l-10.52,10.49
			c-0.94,0.95-0.89,2.44,0,3.33c0.45,0.45,1.04,0.69,1.69,0.69c0.59,0,1.24-0.24,1.69-0.69l10.32-10.44
			c1.49,1.59,3.12,3.18,4.91,4.88l-9.47,9.99c-0.9,0.95-0.84,2.44,0.1,3.33c0.45,0.45,1.04,0.65,1.64,0.65
			c0.65,0,1.24-0.25,1.73-0.74l9.48-10.04c1.83,1.69,3.82,3.38,5.95,5.12l-9.03,11.08c-0.84,0.99-0.69,2.48,0.35,3.33
			c0.44,0.34,0.99,0.55,1.48,0.55c0.7,0,1.39-0.3,1.84-0.9l9.03-11.09c1.29,0.99,2.58,1.99,3.97,3.04c0.84,0.65,1.79,1.29,2.68,1.94
			l-8.23,11.14c-0.79,1.04-0.54,2.54,0.5,3.33c0.4,0.3,0.89,0.45,1.39,0.45c0.74,0,1.44-0.35,1.89-0.94l8.29-11.23
			c2.18,1.49,4.41,2.98,6.84,4.47l-7.49,12.33c-0.69,1.09-0.35,2.58,0.79,3.23c0.4,0.25,0.8,0.35,1.24,0.35
			c0.79,0,1.58-0.4,2.03-1.15l7.49-12.33c2.33,1.4,4.76,2.79,7.29,4.23l-6.49,12.63c-0.6,1.15-0.15,2.58,0.99,3.18
			c0.35,0.2,0.69,0.25,1.09,0.25c0.84,0,1.68-0.45,2.08-1.3l6.45-12.53c2.73,1.44,5.55,2.89,8.53,4.33l-6.05,13.27
			c-0.55,1.19,0,2.58,1.19,3.13c0.3,0.15,0.65,0.2,0.99,0.2c0.89,0,1.73-0.49,2.13-1.39l6.01-13.22c3.03,1.4,6.2,2.83,9.47,4.18
			l-5.66,13.17c-0.49,1.19,0.05,2.59,1.24,3.14c0.3,0.15,0.65,0.2,0.94,0.2c0.9,0,1.79-0.55,2.18-1.44l5.71-13.27
			c2.53,1.04,5.11,2.04,7.73,3.03l-4.86,14.22c-0.45,1.24,0.25,2.58,1.49,2.98c0.24,0.1,0.49,0.15,0.74,0.15
			c0.99,0,1.89-0.6,2.23-1.59l4.81-14.12c2.68,0.94,5.41,1.89,8.19,2.83l-4.81,14.07c-0.45,1.24,0.24,2.58,1.48,2.98
			c0.25,0.1,0.5,0.15,0.74,0.15c0.99,0,1.89-0.59,2.23-1.59l4.81-14.12v-0.05c2.88,0.9,5.8,1.79,8.83,2.68l-4.12,15.26
			c-0.34,1.24,0.4,2.59,1.64,2.89c0.2,0.05,0.4,0.1,0.65,0.1c1.04,0,1.98-0.7,2.28-1.74l4.11-15.21c2.83,0.8,5.7,1.54,8.63,2.24
			l-3.77,15.36c-0.3,1.29,0.44,2.54,1.73,2.89c0.2,0.05,0.4,0.05,0.55,0.05c1.04,0,2.03-0.74,2.28-1.79l3.77-15.36
			c2.97,0.7,6.05,1.4,9.18,2.09l-2.88,15.91c-0.24,1.3,0.59,2.54,1.89,2.73c0.15,0.05,0.3,0.05,0.45,0.05c1.14,0,2.13-0.8,2.33-1.94
			l2.88-15.76c2.93,0.6,5.95,1.19,9.03,1.74l-1.83,15.51c-0.15,1.29,0.79,2.48,2.08,2.64c0.1,0,0.2,0,0.3,0
			c1.19,0,2.18-0.9,2.33-2.09l1.78-15.21c3.18,0.55,6.4,1.05,9.68,1.54c-1.19,11.09-2.78,24.56-4.81,35.44L225.01,485.83z
			 M103.78,485.83c-39.44-18.09-57.4-47.17-60.92-53.39c8.43-4.67,17.06-10.79,25.1-17.45c0.7,0.59,1.94,1.64,3.67,3.08l-7.09,8.45
			c-0.84,0.99-0.69,2.48,0.3,3.33c0.45,0.4,0.99,0.55,1.54,0.55c0.69,0,1.34-0.3,1.78-0.84l7.19-8.55c1.69,1.34,3.57,2.78,5.76,4.42
			l-6.59,8.6c-0.8,1.05-0.6,2.54,0.44,3.33c0.45,0.34,0.94,0.49,1.44,0.49c0.7,0,1.39-0.3,1.89-0.94l6.65-8.7
			c2.03,1.49,4.27,3.13,6.65,4.77l-6.55,9.24c-0.74,1.04-0.5,2.54,0.54,3.28c0.4,0.3,0.9,0.45,1.39,0.45c0.74,0,1.49-0.35,1.94-0.99
			l6.55-9.24c2.03,1.39,4.17,2.83,6.4,4.32l-5.85,9.74c-0.69,1.14-0.3,2.58,0.8,3.23c0.4,0.25,0.79,0.35,1.19,0.35
			c0.8,0,1.59-0.4,2.04-1.15l5.76-9.59c2.38,1.54,4.81,3.08,7.34,4.62l-5.55,9.55c-0.65,1.14-0.3,2.58,0.84,3.23
			c0.4,0.2,0.8,0.35,1.19,0.35c0.79,0,1.59-0.4,2.04-1.19l5.51-9.45c2.43,1.44,4.86,2.89,7.44,4.33l-4.91,9.54
			c-0.59,1.15-0.15,2.58,1.04,3.18c0.35,0.2,0.7,0.25,1.09,0.25c0.84,0,1.69-0.45,2.08-1.29l4.81-9.4c2.93,1.59,5.9,3.23,8.93,4.77
			l-4.61,9.15c-0.59,1.19-0.1,2.58,1.04,3.18c0.35,0.15,0.7,0.25,1.04,0.25c0.84,0,1.69-0.5,2.14-1.3l4.61-9.15
			c2.93,1.49,5.9,2.93,8.93,4.33l-4.11,9.09c-0.55,1.19,0,2.59,1.19,3.14c0.3,0.15,0.65,0.2,0.99,0.2c0.89,0,1.79-0.5,2.13-1.39
			l4.07-9.05c2.83,1.3,5.7,2.54,8.63,3.73l-3.22,8.05c-0.49,1.2,0.1,2.59,1.29,3.08c0.3,0.1,0.59,0.15,0.89,0.15
			c0.94,0,1.84-0.55,2.18-1.49l3.22-8.06c2.98,1.19,6.01,2.34,9.08,3.43l-2.48,7.21L103.78,485.83z M37.9,485.83
			c-2.73-14.46-4.67-32.31-6.15-48.17c2.28-0.84,4.56-1.89,6.9-3.03c3.37,6.16,19.29,32.26,54.52,51.2H37.9z M20.04,427.78
			l-2.78,7.35V314.48c0.49-0.6,1.83-2.19,3.77-4.47c1.24-1.54,2.58-2.73,3.96-3.93c0.6-0.55,1.19-1.05,1.79-1.64
			c0.4,0.94,0.9,1.99,1.74,2.98c2.38,2.93,7.14,7.41,8.83,8.9c0.99,1.84,5.36,9.05,12.6,10.74c0.2,0.05,0.35,0.05,0.55,0.05
			c1.09,0,2.03-0.74,2.28-1.84c0.3-1.29-0.49-2.54-1.73-2.83c-3.53-0.84-6.25-3.68-7.89-5.86c1.24-0.45,2.68-1.09,4.42-1.84
			c1.04-0.45,2.38-1.09,3.12-1.34c1.44,0.8,5.26,3.13,7.84,4.77c1.64,0.99,3.17,1.94,4.31,2.64c0.35,0.2,0.7,0.4,0.99,0.6
			c-1.69,3.03-2.88,6.16-2.63,9.29c-0.25,0-0.49,0-0.74,0c-0.2-0.05-0.4-0.05-0.59,0c-1.94,0.1-3.87,0.4-5.7,0.95
			c-8.53,2.48-13.54,8.99-15.38,11.83c-0.2,0.1-0.4,0.2-0.59,0.35c-9.72,1.89-11.66,12.13-12.95,18.99
			c-0.45,2.24-0.84,4.38-1.34,5.42c-1.49,2.94-1.04,6.76-0.55,10.84c0.55,4.32,1.04,8.8-0.74,11.93
			c-3.67,6.41-5.26,14.07-2.58,18.89C18.16,415.1,19.49,424.59,20.04,427.78z M70.44,292.27c-3.77-2.94-5.71-5.67-5.81-8.16
			c-0.15-3.97,4.42-7.95,8.78-11.83c6-5.37,13.54-11.98,8.39-20.28c-12.65-20.39,16.42-46.88,24.6-53.74l1.54,4.18
			c-5.06,4.22-22.42,20.03-23.36,37.58c-0.3,5.57,1.79,9.15,3.28,11.78c1.68,2.94,2.18,3.98,0.79,6.11
			c-0.69,1.09-0.4,2.59,0.69,3.28c0.4,0.25,0.84,0.4,1.29,0.4c0.79,0,1.54-0.4,1.98-1.09c3.03-4.68,1.09-8.06-0.65-11.04
			c-1.44-2.48-2.88-5.02-2.68-9.15c0.99-17.99,22.72-35.05,22.92-35.2c0.05-0.05,0.05-0.05,0.1-0.1c0.05-0.05,0.05-0.05,0.1-0.1
			c0.2-0.2,0.35-0.4,0.45-0.6c0,0,0,0,0-0.05c3.12-2.04,21.53-13.47,46.97-13.47c27.73,0,46.58,14.17,46.78,14.32
			c0.45,0.35,0.99,0.5,1.54,0.5c4.67,3.97,20.79,18.69,21.63,34.15c0.25,4.12-1.24,6.71-2.68,9.15c-1.74,2.98-3.67,6.36-0.65,11.04
			c0.45,0.69,1.19,1.09,1.98,1.09c0.45,0,0.89-0.15,1.29-0.4c1.09-0.69,1.39-2.19,0.7-3.28c-1.39-2.14-0.9-3.13,0.79-6.11
			c1.54-2.63,3.62-6.26,3.28-11.78c-0.99-17.84-18.8-33.8-23.61-37.78c0.25-0.95,0.6-2.09,0.99-3.53
			c7.74,7.21,36.16,35.69,24.9,53.79c-5.16,8.3,2.33,14.96,8.38,20.28c4.37,3.88,8.88,7.91,8.78,11.83c-0.1,2.48-2.03,5.27-5.8,8.15
			c-11.85,9.24-5.7,19.04-0.74,26.94c2.88,4.57,5.6,8.9,4.76,12.53c-0.2,0.05-0.4,0.1-0.64,0.2c-0.15,0.05-0.35,0.1-0.5,0.15
			c-0.15,0.05-0.3,0.1-0.44,0.15l-7.09-12.53c-0.65-1.15-2.08-1.54-3.22-0.9c-1.14,0.65-1.54,2.09-0.9,3.23l6.74,11.93
			c-1.19,0.55-2.38,1.14-3.62,1.84c-1.34,0.74-2.58,1.54-3.77,2.39c-1.89-10.09-6.55-17.8-10.36-24.11
			c-5.81-9.59-8.14-14.12-2.23-19.89c11.36-11.14,5.66-17.94-0.4-25.1c-1.44-1.69-2.58-3.23-3.38-4.62
			c-0.69-1.15-2.13-1.49-3.22-0.8c-1.09,0.7-1.48,2.14-0.79,3.23c0.94,1.59,2.23,3.33,3.82,5.22c5.95,7.06,8.93,10.58,0.74,18.64
			c-8.83,8.65-4.02,16.55,1.54,25.75c4.12,6.86,8.78,14.61,10.12,25.1c-0.84,0.79-1.64,1.64-2.38,2.43l-5.31-0.35
			c0.55-8.2-5.7-18.84-10.42-26.84c-0.49-0.89-1.04-1.74-1.49-2.53c-6.94-11.98-2.93-18.05-2.68-18.4c0.74-1.04,0.55-2.53-0.49-3.28
			c-1.04-0.79-2.53-0.59-3.32,0.45c-0.1,0.1-0.74,0.99-1.29,2.64c1.64-10.19,1.64-19.48,1.39-24.91c0.2-0.15,0.44-0.3,0.59-0.49
			c7.89-9.34,10.12-16.41,6.8-21.63c-1.74-2.73-4.46-4.57-6.8-5.47l0.05-1.39c0.15-0.3,0.2-0.65,0.2-0.99c0-0.49-0.2-0.94-0.45-1.34
			c-0.4-0.69-1.09-1.14-1.94-1.19c-0.34,0-0.69,0.05-1.04,0.2c-6.55-0.1-13.69-3.28-20.29-7.46c-0.25-0.25-0.49-0.4-0.84-0.55
			c-12.55-8.2-22.92-19.73-23.11-19.89c-0.45-0.49-1.04-0.74-1.69-0.8c-0.65,0-1.29,0.2-1.73,0.65c-8.19,7.91-32.09,28.14-44.8,26.7
			c-0.69-0.1-1.34,0.15-1.88,0.59c-0.5,0.45-0.8,1.15-0.74,1.79l0.05,2.09c-2.38,0.84-5.21,2.73-7.04,5.57
			c-4.71,7.35,4.36,19.64,7.49,23.46c-0.1,5.22,0.05,14.17,1.69,24.11c-0.74-1.89-1.54-2.93-1.64-3.03
			c-0.79-1.05-2.28-1.19-3.27-0.4c-1.04,0.8-1.24,2.29-0.45,3.33c0.2,0.3,5.36,7.41-2.18,19.48c-6.15,9.89-12.55,21.03-11.95,29.43
			l-5.36,0.4c-0.69-0.85-1.49-1.64-2.33-2.44c1.34-10.54,6-18.29,10.17-25.15c5.56-9.15,10.32-17.1,1.54-25.75
			c-8.23-8.06-5.26-11.64,0.7-18.65c1.54-1.84,2.82-3.58,3.77-5.12c0.7-1.09,0.35-2.58-0.79-3.28c-1.09-0.69-2.58-0.34-3.28,0.8
			c-0.84,1.39-1.98,2.89-3.37,4.57c-6.05,7.16-11.81,13.97-0.4,25.1c5.9,5.77,3.57,10.29-2.23,19.89
			c-3.82,6.31-8.48,14.07-10.37,24.16c-1.19-0.85-2.43-1.64-3.82-2.44c-1.24-0.7-2.43-1.34-3.67-1.89l5.76-11.63
			c0.59-1.19,0.1-2.59-1.09-3.18c-1.19-0.6-2.58-0.1-3.18,1.09l-5.95,12.03c-0.15-0.05-0.3-0.1-0.45-0.15
			c-0.1-0.05-0.15-0.05-0.24-0.1c-1.04-0.3-2.04-0.55-3.03-0.74c-0.8-3.58,1.98-7.85,4.91-12.33
			C75.75,311.5,82.34,301.46,70.44,292.27z M159.23,132.74l-2.38-2.29l2.58-5.02l2.83,4.37L159.23,132.74z M159.23,139.2
			c18.85,15.91,49.6,17.5,61.01,17.5c0.15,0,0.25,0,0.4,0c-1.49,3.23-2.98,7.26-4.52,11.53c-6.5-3.78-26.59-13.77-56.9-13.77
			c-30.76,0-51.54,11.64-57.99,15.81L96.39,157C131.51,159.98,153.28,144.22,159.23,139.2z M111.81,199.26l-5.91-16.1
			c3.42-2.54,22.03-15.31,52.73-15.31c29.61,0,48.61,11.04,53.08,13.92c-2.23,7.21-4.07,13.82-5.11,17.6
			c-6.49-4.12-23.51-13.32-46.83-13.32C135.62,185.98,117.81,195.53,111.81,199.26z M102.88,174.85
			c4.61-3.04,25.4-15.66,56.35-15.66c30.41,0,50.45,10.69,55.36,13.62c-0.45,1.4-0.94,2.79-1.39,4.23
			c-6.4-3.93-25.4-13.97-54.57-13.97c-29.86,0-48.66,11.33-54.42,15.46L102.88,174.85z M258.15,341.28c0.1,0,0.24,0.05,0.34,0.05
			c1.14,0,2.14-0.84,2.33-1.99c0.25-1.54,0.59-2.83,0.9-3.73c0.99,0.1,1.93,0.3,2.88,0.55c-0.55,0.8-1.14,1.79-1.79,3.03
			c-0.59,1.15-0.15,2.59,0.99,3.18c0.34,0.2,0.69,0.25,1.09,0.25c0.84,0,1.69-0.45,2.08-1.29c0.79-1.49,1.54-2.64,2.08-3.33
			c0.9,0.5,1.73,1.09,2.53,1.64c-0.9,0.75-1.89,1.74-2.88,3.08c-0.79,1.05-0.59,2.54,0.4,3.33c0.44,0.34,0.94,0.49,1.44,0.49
			c0.69,0,1.39-0.3,1.89-0.9c0.99-1.29,1.93-2.14,2.68-2.73c0.59,0.65,1.09,1.29,1.54,1.84c-1.14,0.65-2.38,1.64-3.52,3.04
			c-0.84,0.99-0.69,2.48,0.35,3.33c0.44,0.35,0.99,0.55,1.48,0.55c0.7,0,1.34-0.3,1.84-0.84c1.14-1.39,2.48-2.14,3.32-2.48
			c6.99,0.69,8.78,7.1,10.32,15.41c0.49,2.69,0.94,5.02,1.79,6.66s0.45,4.92,0.05,8.1c-0.59,4.87-1.24,10.34,1.34,14.86
			c1.88,3.28,3.07,6.86,3.27,9.84c0.1,1.49,0,3.33-0.89,4.62c-0.15,0.15-0.3,0.3-0.4,0.5c-0.2,0.24-0.44,0.45-0.74,0.59
			c-0.4,0.25-0.74,0.25-1.19,0.1c-2.58-0.99-5.76-6.86-7.44-11.83c-0.24-0.74-0.44-1.39-0.59-1.89c-1.04-3.63-1.64-3.97-7.59-7.51
			c-0.94-0.55-1.98-1.19-3.22-1.94c-9.87-6.02-6.8-14.92-5.6-17.5c2.23-4.87,0.89-9.65,0.64-10.49c-1.48-5.67-4.41-9.44-8.68-11.23
			c-5.85-2.48-12.01-0.2-13.74,0.74c-3.87,2.24-6.5,4.82-7.89,7.81c-1.79,3.88-1.44,8.1,1.14,12.58c2.98,5.17,6.45,8.3,10.42,9.29
			c1.64,0.4,3.08,0.4,4.27,0.25c-0.44,0.84-1.54,2.14-4.11,3.63c-2.98,1.69-5.9,1.69-8.93-0.05c-2.63-1.49-5.21-4.28-7.15-7.66
			c-0.79-1.39-1.69-3.08-2.43-4.97h0.1c1.29-0.25,2.14-1.44,1.89-2.73c-0.24-1.29-1.48-2.14-2.72-1.89l-0.7,0.15
			c-0.2-0.84-0.34-1.74-0.4-2.58l0.65,0.05c0.1,0,0.2,0,0.24,0c1.19,0,2.23-0.9,2.33-2.09c0.15-1.29-0.79-2.48-2.08-2.64l-0.99-0.1
			c0.2-1.04,0.44-2.04,0.84-3.03l0.84,0.6c0.4,0.3,0.9,0.4,1.34,0.4c0.74,0,1.48-0.35,1.93-1.04c0.74-1.09,0.45-2.54-0.59-3.28
			l-1.29-0.9c0.45-0.65,0.99-1.34,1.54-1.94l0.7,0.94c0.44,0.6,1.19,0.94,1.89,0.94c0.49,0,0.99-0.15,1.44-0.49
			c1.04-0.8,1.24-2.29,0.45-3.33l-1.04-1.39c0.99-0.84,2.13-1.64,3.27-2.39c0.25,0.6,0.49,1.24,0.69,1.84
			c0.35,0.95,1.24,1.49,2.19,1.49c0.3,0,0.59-0.05,0.89-0.15c1.19-0.5,1.79-1.84,1.34-3.08c-0.3-0.8-0.65-1.69-0.94-2.48
			c0.94-0.5,1.89-0.94,2.78-1.29c0.05,0.74,0.1,1.59,0.2,2.48c0.15,1.19,1.19,2.09,2.33,2.09c0.1,0,0.2,0,0.3,0
			c1.29-0.15,2.23-1.34,2.04-2.64c-0.2-1.49-0.2-2.64-0.15-3.43c0.9-0.2,1.84-0.4,2.68-0.49c-0.25,0.84-0.45,1.84-0.65,2.98
			C255.96,339.84,256.85,341.08,258.15,341.28z M247.13,390.29l-3.62-3.93c3.42,0.94,6.84,0.45,10.17-1.44
			c3.86-2.23,6.1-4.72,6.69-7.51c0.6-2.73-0.69-4.57-0.84-4.77c-0.74-0.99-2.08-1.24-3.12-0.6c0,0-1.68,0.95-4.02,0.35
			c-2.63-0.65-5.21-3.13-7.49-7.06c-1.79-3.08-2.08-5.77-0.94-8.2c0.94-2.04,2.97-3.98,5.95-5.72c0.74-0.45,5.41-2.23,9.52-0.49
			c2.88,1.19,4.86,3.93,5.95,8.15c0,0.05,0.05,0.15,0.05,0.2c0,0.05,1.14,3.58-0.45,7.06c-3.27,7.21-3.07,17.15,7.44,23.51
			c1.24,0.74,2.33,1.39,3.22,1.94c4.91,2.98,4.91,2.98,5.45,4.78c0.15,0.55,0.35,1.24,0.65,2.09c0.7,2.08,4.46,12.57,10.22,14.76
			c0.74,0.3,1.49,0.4,2.23,0.4s1.49-0.15,2.18-0.45c0.45,3.08,0.15,7.7-0.4,11.58C290.09,422.9,273.22,415.35,247.13,390.29z
			 M199.86,381.69c0.25,0.05,3.07,0.65,7.09,0.65c3.42,0,7.64-0.45,11.76-2.09c11.81,16.26,40.68,44.44,66.12,55.78
			c-24.41-3.43-60.86-14.36-63.2-15.21c-1.04-0.45-2.28-0.1-2.93,0.85c-0.74,1.09-0.45,2.58,0.65,3.28
			c1.39,0.94,44.24,13.42,68.51,16.2c-0.15,1.39-0.3,2.89-0.45,4.43c-72.82-10.94-117.17-34.7-141.52-52.74
			c-24.51-18.15-34.28-34.3-35.72-36.73c-0.2-2.64-0.74-4.88-1.39-6.71c-0.8-6.51,2.68-8.4,5.7-10.04c1.69-0.9,3.28-1.74,3.87-3.43
			c1.34-3.88,4.86-5.42,6.99-5.87c-1.24,3.88-3.82,7.95-7.34,11.39c-0.94,0.9-0.94,2.44-0.05,3.33c0.15,0.15,0.34,0.25,0.54,0.35
			c1.24,1.64,9.78,12.58,21.48,21.78c0.1,0.15,0.25,0.3,0.35,0.4c33.48,28.88,55.81,34.75,68.35,34.75c8.14,0,12.26-2.44,12.65-2.73
			c1.09-0.7,1.44-2.19,0.74-3.28c-0.7-1.09-2.18-1.44-3.28-0.74c-0.2,0.1-17.16,10.24-55.66-16.31c2.58,0.6,5.16,0.94,7.79,0.94
			c19.2,0,26.39-8.74,29.07-16.1c3.72-10.24,0.3-22.97-2.33-25.3c-0.8-1.05-1.49-2.14-2.08-3.28c2.13,0.35,5.26,2.04,7.74,8.4
			c0.89,2.29,1.29,5.42,1.19,7.01c-0.1,1.29,0.9,2.43,2.18,2.53c0.05,0,0.1,0,0.2,0c0.65,0,1.24-0.3,1.64-0.69
			c0.64,0.3,1.34,0.55,2.03,0.8c-0.94,5.36-0.45,12.77,4.71,21.72c0.2,0.35,0.45,0.7,0.65,1.05c-7.29,2.48-14.98,0.84-15.08,0.84
			c-1.29-0.3-2.53,0.55-2.82,1.79C197.78,380.15,198.57,381.44,199.86,381.69z M24.41,424.99c-0.55-3.88-0.84-8.5-0.4-11.58
			c0.69,0.3,1.44,0.45,2.18,0.45s1.49-0.15,2.23-0.4c5.75-2.19,9.52-12.68,10.22-14.77c0.3-0.84,0.49-1.54,0.64-2.09
			c0.55-1.84,0.55-1.84,5.46-4.77c0.94-0.55,1.98-1.19,3.22-1.94c10.52-6.36,10.71-16.35,7.44-23.52c-1.59-3.48-0.45-6.96-0.45-7.06
			c0-0.05,0.05-0.1,0.05-0.2c1.09-4.18,3.07-6.96,5.95-8.16c4.12-1.74,8.78,0.05,9.53,0.5c2.98,1.74,5.01,3.63,5.95,5.72
			c1.14,2.43,0.84,5.12-0.94,8.2c-2.43,4.23-5.21,6.71-8.04,7.21c-2.03,0.3-3.42-0.45-3.47-0.49c-1.04-0.65-2.43-0.4-3.12,0.59
			c-0.15,0.2-1.44,2.09-0.84,4.78c0.6,2.78,2.83,5.27,6.7,7.51c3.57,2.04,6.99,2.33,10.12,1.49l-3.47,3.78
			C47.12,415.35,30.31,422.9,24.41,424.99z M28.03,378.46c-0.4-3.18-0.79-6.46,0.05-8.1s1.29-3.98,1.79-6.66
			c1.54-8.3,3.32-14.71,10.32-15.41c0.89,0.35,2.18,1.05,3.32,2.48c0.45,0.55,1.14,0.85,1.83,0.85c0.55,0,1.04-0.2,1.49-0.55
			c0.99-0.85,1.14-2.34,0.3-3.33c-1.14-1.39-2.38-2.33-3.52-3.03c0.4-0.55,0.94-1.19,1.54-1.84c0.74,0.59,1.69,1.44,2.68,2.73
			c0.44,0.59,1.14,0.89,1.88,0.89c0.5,0,1.04-0.15,1.44-0.49c1.04-0.8,1.19-2.29,0.4-3.33c-1.04-1.3-2.04-2.29-2.88-3.08
			c0.8-0.6,1.64-1.15,2.53-1.64c0.55,0.74,1.29,1.84,2.08,3.33c0.4,0.8,1.24,1.29,2.08,1.29c0.35,0,0.74-0.1,1.09-0.24
			c1.14-0.6,1.64-2.04,0.99-3.18c-0.65-1.24-1.24-2.24-1.79-3.03c0.94-0.25,1.89-0.45,2.88-0.55c0.3,0.9,0.69,2.19,0.94,3.73
			c0.2,1.19,1.19,1.98,2.33,1.98c0.1,0,0.25,0,0.35-0.05c1.29-0.2,2.18-1.39,1.98-2.69c-0.15-1.14-0.4-2.08-0.65-2.98
			c0.9,0.1,1.79,0.24,2.68,0.45c0.05,0.79,0,1.98-0.15,3.48c-0.15,1.29,0.74,2.48,2.03,2.64c0.1,0,0.2,0,0.3,0
			c1.19,0,2.18-0.9,2.33-2.09c0.1-0.95,0.2-1.79,0.2-2.54c0.94,0.4,1.89,0.8,2.83,1.29c-0.3,0.8-0.65,1.74-0.94,2.48
			c-0.49,1.19,0.1,2.59,1.34,3.08c0.3,0.1,0.6,0.15,0.9,0.15c0.94,0,1.83-0.55,2.18-1.49c0.24-0.59,0.45-1.19,0.69-1.84
			c1.19,0.8,2.28,1.59,3.28,2.39l-1.04,1.4c-0.8,1.04-0.6,2.53,0.44,3.33c0.45,0.35,0.94,0.5,1.44,0.5c0.69,0,1.44-0.35,1.89-0.95
			l0.69-0.94c0.55,0.65,1.04,1.29,1.54,1.94l-1.29,0.9c-1.09,0.74-1.34,2.23-0.6,3.28c0.45,0.65,1.19,1.04,1.94,1.04
			c0.44,0,0.94-0.15,1.34-0.4l0.84-0.6c0.15,0.4,0.24,0.8,0.4,1.15l-0.05,1.94l-0.54,0.05c-1.29,0.15-2.23,1.34-2.08,2.63
			c0.15,1.2,1.14,2.09,2.33,2.09c0.05,0,0.1,0,0.15,0l-0.05,2.44l-0.3-0.05c-1.29-0.25-2.53,0.65-2.73,1.89
			c-0.24,1.29,0.65,2.54,1.89,2.73h0.1c-0.79,1.89-1.64,3.58-2.43,4.97c-1.24,2.14-7.74,12.47-16.07,7.7
			c-2.58-1.49-3.67-2.73-4.12-3.63c1.19,0.2,2.63,0.2,4.27-0.25c3.97-0.99,7.49-4.12,10.42-9.29c2.58-4.47,2.93-8.7,1.15-12.58
			c-1.39-2.98-4.02-5.57-7.89-7.81c-1.69-0.99-7.89-3.23-13.74-0.74c-4.27,1.79-7.19,5.57-8.68,11.23
			c-0.24,0.8-1.58,5.57,0.65,10.49c1.19,2.59,4.27,11.48-5.6,17.5c-1.24,0.74-2.28,1.39-3.22,1.94c-5.91,3.53-6.55,3.93-7.59,7.51
			c-0.15,0.5-0.35,1.15-0.6,1.89c-1.68,5.02-4.86,10.89-7.44,11.83c-0.45,0.2-0.8,0.15-1.19-0.1c-0.3-0.15-0.55-0.4-0.79-0.65
			c-0.1-0.15-0.25-0.34-0.4-0.49c-2.04-2.98-0.55-9.4,2.33-14.52C29.27,388.8,28.62,383.28,28.03,378.46z M93.31,349.43l0.2,0.05
			v0.7L93.31,349.43z M98.32,343.32c-0.55-7.61,7.05-19.84,11.26-26.6c3.82-6.11,4.86-11.33,4.81-15.41
			c1.89,8.3,4.96,16.9,9.77,24.21c-3.57,0.79-8.23,3.23-10.22,8.7c-0.3,0.25-1.09,0.7-1.69,0.99c-0.4,0.2-0.79,0.45-1.24,0.7
			c0.55-3.73,3.67-8.95,6.01-11.98c0.79-1.04,0.59-2.53-0.45-3.33c-1.04-0.8-2.53-0.6-3.32,0.45c-0.9,1.19-8.73,11.58-6.7,18.49
			c-0.79,0.99-1.49,2.14-1.93,3.53c-0.3-0.1-0.6-0.15-0.9-0.1L98.32,343.32z M133.39,235.59c0.05,0,0.05,0,0.1,0
			c1.93-0.4,7.64-1.29,10.86-0.74c2.29,0.4,6.5,1.29,6.55,1.29c0.15,0.05,0.34,0.05,0.49,0.05c0.49,0,0.99-0.15,1.39-0.44
			c0.54-0.4,0.89-0.99,0.99-1.64l0.55-4.72c0.15-1.19-0.65-2.34-1.84-2.58c-0.4-0.1-2.43-0.55-4.86-0.85
			c5.46-4.22,9.92-8.2,12.26-10.39c2.13,2.23,6.1,6.21,11.16,10.54c-2.03,0.35-3.52,0.74-3.62,0.74c-1.14,0.3-1.83,1.39-1.69,2.58
			l0.55,4.72c0.1,0.65,0.45,1.24,0.99,1.64c0.4,0.3,0.89,0.45,1.39,0.45c0.15,0,0.35,0,0.5-0.05c0.05,0,4.27-0.89,6.55-1.29
			c2.97-0.49,6.05-0.15,7.29,0.05c6.84,4.32,14.33,7.76,21.48,8.25l-0.55,13.82c-6.94,9.54-16.07,19.88-19.05,20.88
			c-3.22-0.69-17.02-3.38-24.8,0.65c-7.54-4.52-21.63-1.49-24.95-0.69c-2.97-0.99-12.01-11.29-18.95-20.78l-0.4-15.16
			C121.09,241.71,127.29,239.12,133.39,235.59z M172.53,230.62c-0.65,0.15-1.29,0.25-1.89,0.4v-0.05
			C171.19,230.82,171.83,230.72,172.53,230.62z M203.48,266.36c0.05,0.4,3.67,39.37-13.84,60.35c-7.24,8.7-17.26,13.12-29.71,13.17
			c-11.26-0.05-20.48-3.93-27.48-11.53c-15.53-16.76-16.42-47.32-16.22-58.16c0-0.2,0.05-0.35,0-0.55c0.05-2.09,0.15-3.33,0.15-3.38
			c0-0.1,0-0.15,0-0.25v-0.84c5.51,7.01,14.04,16.95,18.55,17.45c0.3,0.05,0.55,0,0.84-0.05c4.66-1.19,17.76-3.48,22.62,0.55
			c0.3,0.25,0.69,0.4,1.09,0.45c0.05,0,0.05,0,0.1,0c0.1,0,0.2,0.05,0.3,0.05c0.05,0,0.05,0,0.1,0h0.05c0.1,0,0.25-0.05,0.35-0.05
			c0.34-0.05,0.69-0.15,0.99-0.4c5.16-3.68,18.26-1.69,22.87-0.65c0.24,0.05,0.49,0.05,0.79,0.05c4.52-0.49,13-10.34,18.51-17.4
			l-0.05,0.74C203.48,266.17,203.48,266.27,203.48,266.36z M122.92,343.17c3.03-3.38,5.31-7.16,6.65-10.89
			c7.74,8.05,17.81,12.18,29.86,12.38c0.05,0,0.1,0,0.15,0c0.1,0,0.2,0,0.3,0c0.1,0,0.2,0,0.3,0c0.05,0,0.1,0,0.15,0
			c11.85-0.15,21.73-3.93,29.42-11.18c0.79,2.98,2.33,5.92,4.56,8.7c0.1,0.1,0.2,0.2,0.3,0.3c1.39,2.34,4.32,13.12,0.2,21.62
			c-3.57,7.46-11.6,11.23-23.91,11.23C149.71,375.33,127.34,348.68,122.92,343.17z M208.94,248.37c1.04,0.65,2.18,1.59,2.97,2.83
			c1.64,2.58,0.4,6.86-3.62,12.43L208.94,248.37z M111.52,262.79c-3.28-5.17-5.26-10.44-3.62-12.97c0.9-1.34,2.14-2.34,3.22-2.98
			L111.52,262.79z M214.64,343.77c-0.15,0.2-1.64,1.98-2.83,5.12c-0.84-0.3-1.69-0.7-2.48-1.05c0.1-0.1,0.2-0.25,0.25-0.4l2.83-5.96
			c0.05-0.1,0.1-0.25,0.15-0.35c2.58-8.8-6.05-19.14-6.45-19.54c-0.84-0.99-2.33-1.09-3.32-0.25c-0.99,0.84-1.09,2.34-0.25,3.33
			c2.04,2.39,6.95,9.69,5.56,14.96l-0.74,1.54c-4.02-9.44-10.02-10.64-13.34-10.44c-0.1-0.6-0.15-1.15-0.15-1.69
			c6.49-8.15,10.21-18.34,12.3-28.18c-0.15,3.88,0.79,9.19,4.66,15.81c0.44,0.8,0.99,1.69,1.48,2.58
			c4.12,7.06,10.22,17.45,9.78,24.11l-5.46-0.4C215.93,342.87,215.14,343.17,214.64,343.77z M228.68,348.93v-0.4h0.2
			C228.83,348.68,228.73,348.79,228.68,348.93z M24.26,430.01c4.91-1.39,22.86-8.1,52.43-36.48l17.31-18.79
			c7.93-8.95,6.49-21.43,5.35-26.74l3.32-0.25c1.74,2.83,5.91,11.88-1.73,25.05c-9.77,16.85-50.84,57.12-78.87,62.79L24.26,430.01z
			 M181.6,480.17c6.1,2.09,12.3,3.98,18.65,5.62h-20.58L181.6,480.17z M219.35,372.79c-7.69-13.27-3.52-22.27-1.73-25.05l3.32,0.25
			c-1.09,5.32-2.58,17.8,5.41,26.79l17.41,18.89c29.46,28.29,47.47,34.99,52.33,36.39l2.13,5.61
			C270.2,429.96,229.12,389.65,219.35,372.79z M17.27,18.51c0-0.3,0.1-0.5,0.3-0.7c0.2-0.2,0.45-0.3,0.69-0.3h283.39
			c0.3,0,0.5,0.1,0.7,0.3c0.2,0.2,0.3,0.45,0.3,0.7v290.9c-0.3-0.3-0.55-0.65-0.74-0.89c-0.89-1.19-2.14-1.79-3.57-1.74
			c-3.27,0.15-6.84,4.32-9.18,7.6c-2.93-3.18-5.21-6.02-5.65-7.26c-1.34-3.72-4.12-10.14-7.69-11.08c-1.24-0.35-2.48-0.05-3.47,0.84
			c-1.64,1.44-2.58,2.79-3.67,4.38c-0.74,1.09-1.59,2.34-2.83,3.83c-1.98,2.44-4.52,5.52-6.05,7.46c-4.46-5.87-6.99-8.01-9.18-8.16
			c-1.04-0.1-1.93,0.3-2.63,0.99l-1.58,1.69c-1.09-3.98-0.15-7.41,4.56-11.04c5.01-3.88,7.49-7.76,7.64-11.78
			c0.2-6.17-5.16-10.94-10.36-15.56c-7.15-6.36-10.22-9.84-7.49-14.22c14.68-23.52-23.71-58.11-27.43-61.4
			c3.22-11.23,8.53-28.33,12.75-36.68l6.3-1.54c0.94-0.25,1.64-0.99,1.79-1.94l1.59-9.84c0.15-0.84-0.2-1.74-0.9-2.29
			c-0.69-0.55-1.64-0.65-2.43-0.25l-8.73,4.18c-0.74,0.35-1.24,1.04-1.34,1.84l-0.69,5.42c-9.43,0.05-40.53-0.94-58.83-16.01
			l4.22-4.08c0.79-0.79,0.94-2.04,0.35-2.98l-6.15-9.49c-0.45-0.7-1.24-1.15-2.08-1.09c-0.84,0.05-1.59,0.55-1.98,1.29l-5.31,10.24
			c-0.5,0.94-0.3,2.09,0.44,2.78l3.42,3.33c-6.15,4.92-27.33,19.39-60.36,16.16l-0.74-5.57c-0.1-0.8-0.59-1.49-1.34-1.84l-8.73-4.18
			c-0.79-0.4-1.73-0.3-2.43,0.25c-0.7,0.55-1.04,1.39-0.9,2.29l1.59,9.84c0.15,0.94,0.84,1.69,1.79,1.94l6.6,1.59l13.54,37.04
			c-6.5,5.17-42.56,35.69-26.89,60.94c2.72,4.43-0.35,7.91-7.49,14.22c-5.21,4.62-10.57,9.34-10.37,15.56
			c0.15,4.03,2.63,7.85,7.64,11.78c8.04,6.21,5.01,11.78-0.55,20.28c-0.25,0.35-0.49,0.75-0.69,1.09c-1.09-0.65-3.38-2.04-5.26-3.23
			c-6.99-4.32-8.58-5.27-9.38-5.47c-1.24-0.35-2.48,0.15-6.05,1.74c-1.49,0.7-4.17,1.89-5.41,2.14c-1.94-1.74-6.15-5.77-8.09-8.16
			c-0.69-0.84-1.04-1.89-1.39-2.83c-0.45-1.24-0.99-2.83-2.73-3.18c-1.73-0.35-2.97,0.99-3.42,1.44c-0.84,0.95-1.79,1.79-2.78,2.64
			c-1.44,1.29-2.97,2.64-4.46,4.47c-0.05,0.05-0.05,0.1-0.1,0.15v-33.56L17.27,18.51z M226.4,151.43l0.4-2.98l3.52-1.69l-0.6,3.83
			L226.4,151.43z M87.16,150.64l-0.59-3.88l3.52,1.69l0.4,2.98L87.16,150.64z M17.27,440.5c0.4,0.25,0.79,0.4,1.24,0.4
			c0.05,0,0.15,0,0.2,0c2.73-0.24,5.56-0.79,8.43-1.69c1.44,15.36,3.32,32.46,5.95,46.58H17.27V440.5z M286.92,485.83
			c2.78-15.26,4.76-35.09,5.9-46.72c3.08,0.94,6.05,1.54,8.88,1.79c0.05,0,0.15,0,0.2,0c0.3,0,0.55-0.05,0.84-0.15v45.08H286.92z
			 M124.16,245.98c0.1-0.3,3.08-7.56,13.4-7.56c10.27,0,13.39,7.21,13.54,7.51c0.49,1.19-0.05,2.58-1.29,3.08
			c-0.3,0.15-0.59,0.2-0.89,0.2c-0.9,0-1.79-0.55-2.18-1.44c-0.05-0.15-0.74-1.54-2.53-2.78c-0.74,2.83-3.28,4.97-6.35,4.97
			c-3.18,0-5.81-2.23-6.45-5.22c-2.08,1.29-2.83,2.93-2.88,3.03c-0.49,1.19-1.89,1.79-3.07,1.29
			C124.31,248.57,123.71,247.18,124.16,245.98z M169.4,245.98c0.15-0.3,3.22-7.51,13.54-7.51c10.37,0,13.1,7.31,13.2,7.6
			c0.44,1.24-0.2,2.58-1.44,3.03c-0.24,0.1-0.54,0.15-0.79,0.15c-0.99,0-1.89-0.6-2.23-1.59c-0.05-0.1-0.69-1.64-2.62-2.88
			c-0.65,2.98-3.28,5.22-6.4,5.22c-3.07,0-5.6-2.14-6.35-4.97c-1.83,1.24-2.48,2.69-2.53,2.79c-0.54,1.19-1.93,1.74-3.12,1.24
			C169.45,248.52,168.91,247.18,169.4,245.98z M149.02,268.7c0.99-1.2,3.03-1.59,4.51-1.69c0.4-0.05,0.84,0.05,1.19,0.25
			c1.59,0.74,4.32,1.84,5.51,1.84c1.34,0,3.92-0.99,4.96-1.49c0.15-0.05,0.3-0.1,0.44-0.15c0.9-0.2,3.08-0.6,4.61,0.45
			c0.74,0.49,1.24,1.29,1.39,2.23c0.2,1.29-0.74,2.49-2.04,2.69c-0.84,0.1-1.64-0.25-2.13-0.85c-0.15,0-0.35,0.05-0.55,0.05
			c-0.99,0.45-4.27,1.84-6.74,1.84c-2.28,0-5.51-1.34-6.95-2.04c-0.4,0.05-0.74,0.15-0.94,0.2c-0.84,0.74-2.18,0.8-3.07,0.05
			C148.32,271.19,148.17,269.69,149.02,268.7z M166.47,300.46c-0.49,0.15-0.94,0.3-1.44,0.4c0.4,1.94,0.94,3.73,1.44,4.32
			c1.09,0.35,1.79,1.39,1.64,2.54c-0.15,1.19-1.15,2.09-2.33,2.09c-0.1,0-0.2,0-0.3,0c-3.03-0.35-4.52-4.47-5.21-8.45
			c-0.35,0-0.65,0-0.94,0c-0.7,4.03-2.14,8.15-5.21,8.5c-0.1,0-0.2,0-0.3,0c-1.19,0-2.18-0.9-2.33-2.09
			c-0.15-1.14,0.59-2.23,1.64-2.53c0.49-0.6,1.04-2.49,1.44-4.47c-0.49-0.1-0.79-0.2-0.84-0.2c-1.24-0.34-1.98-1.69-1.64-2.93
			c0.35-1.24,1.69-1.98,2.93-1.64c0.05,0,5.36,1.49,9.97,0c1.24-0.4,2.58,0.3,2.98,1.54C168.41,298.78,167.71,300.07,166.47,300.46z
			 M137.8,288.44c0.45-1.24,1.79-1.89,3.03-1.44c7.09,2.58,15.58,0.59,18.06-0.05c0.4-0.24,0.84-0.35,1.29-0.3
			c0.49-0.05,0.99,0.1,1.39,0.35c2.38,0.69,10.12,2.58,17.11,0.05c1.24-0.45,2.58,0.2,3.03,1.44c0.45,1.24-0.2,2.58-1.44,3.03
			c-3.22,1.19-6.55,1.59-9.57,1.59c-4.81,0-8.83-0.99-10.57-1.54c-1.83,0.49-6.15,1.54-11.16,1.54c-3.12,0-6.55-0.4-9.77-1.59
			C138,291.02,137.41,289.68,137.8,288.44z M142.77,328.4c-0.45,0.7-1.19,1.09-1.98,1.09c-0.45,0-0.9-0.1-1.29-0.4
			c-14.98-9.69-18.26-38.62-18.35-39.82c-0.15-1.29,0.8-2.48,2.08-2.64c1.29-0.15,2.48,0.8,2.63,2.09
			c0.05,0.3,3.18,27.89,16.22,36.34C143.16,325.82,143.46,327.26,142.77,328.4z M158.34,327.06c-0.34,0.99-1.24,1.64-2.23,1.64
			c-0.25,0-0.5-0.05-0.74-0.1c-18.01-5.92-20.24-28.39-20.34-29.38c-0.1-1.29,0.84-2.44,2.13-2.59c1.29-0.1,2.43,0.85,2.58,2.14
			c0,0.2,2.08,20.33,17.11,25.3C158.09,324.47,158.73,325.82,158.34,327.06z M198.72,289.23c-0.15,1.24-3.42,30.12-18.35,39.82
			c-0.4,0.25-0.84,0.4-1.29,0.4c-0.79,0-1.54-0.4-1.98-1.09c-0.69-1.09-0.4-2.59,0.7-3.28c13.09-8.5,16.22-36.09,16.22-36.34
			c0.15-1.29,1.29-2.24,2.63-2.09C197.93,286.8,198.86,287.94,198.72,289.23z M184.83,299.22c-0.1,0.94-2.33,23.41-20.34,29.38
			c-0.24,0.1-0.49,0.1-0.74,0.1c-0.99,0-1.93-0.65-2.23-1.64c-0.4-1.24,0.24-2.59,1.49-2.98c15.03-4.97,17.06-25.1,17.11-25.3
			c0.1-1.29,1.29-2.24,2.58-2.14C183.98,296.74,184.98,297.88,184.83,299.22z M133.24,181.41c0,3.13-2.53,5.67-5.66,5.67
			c-3.12,0-5.65-2.54-5.65-5.67c0-3.14,2.53-5.67,5.65-5.67C130.71,175.79,133.24,178.33,133.24,181.41z M185.03,181.41
			c0-3.14,2.53-5.67,5.66-5.67s5.66,2.54,5.66,5.67c0,3.13-2.53,5.67-5.66,5.67S185.03,184.54,185.03,181.41z M158.94,181.76
			c-3.12,0-5.66-2.53-5.66-5.67c0-3.13,2.53-5.67,5.66-5.67s5.65,2.54,5.65,5.67C164.59,179.22,162.06,181.76,158.94,181.76z
			 M180.46,405.06c-0.4,0.84-1.24,1.34-2.14,1.34c-0.34,0-0.69-0.1-1.04-0.25c-42.56-20.83-62.3-49.86-63.15-51.1
			c-0.74-1.09-0.44-2.54,0.65-3.28c1.09-0.74,2.53-0.45,3.28,0.65c0.2,0.3,19.94,29.28,61.31,49.52
			C180.52,402.42,181.01,403.86,180.46,405.06z M116.62,226.99c0.15-0.05,12.85-3.58,31.1-19.94c0.99-0.89,2.48-0.79,3.32,0.2
			c0.9,0.99,0.8,2.48-0.2,3.33c-19.2,17.25-32.49,20.83-33.04,20.98c-0.2,0.05-0.4,0.1-0.59,0.1c-1.04,0-1.98-0.7-2.28-1.79
			C114.64,228.64,115.38,227.34,116.62,226.99z M98.17,237.63c7.04-33.06,39.09-38.47,39.39-38.53c1.29-0.2,2.48,0.7,2.68,1.99
			c0.2,1.29-0.69,2.48-1.98,2.69c-1.19,0.2-29.12,5.02-35.52,34.84c-0.25,1.09-1.24,1.89-2.33,1.89c-0.15,0-0.35,0-0.49-0.05
			C98.71,240.17,97.92,238.87,98.17,237.63z M76.39,289.13l-0.34-0.24c-1.34-1.09-2.18-2.64-2.33-4.47
			c-0.55-6.71,8.19-16.6,9.18-17.75c0.9-0.99,2.38-1.04,3.32-0.15c0.99,0.89,1.04,2.39,0.2,3.33c-3.22,3.58-8.23,10.64-7.98,14.17
			c0.05,0.7,0.3,0.95,0.55,1.15l0.34,0.24c7.39,5.92,15.03,12.03,5.06,28.93c-0.45,0.74-1.24,1.15-2.04,1.15
			c-0.4,0-0.84-0.1-1.19-0.35c-1.14-0.65-1.49-2.14-0.84-3.23C88.2,298.62,83.73,295.05,76.39,289.13z M104.17,275.02
			c1.24,0.45,1.89,1.79,1.44,3.03c-1.64,4.72,0.65,6.51,0.69,6.51c1.09,0.74,1.34,2.24,0.6,3.28c-0.45,0.65-1.19,0.99-1.94,0.99
			c-0.44,0-0.94-0.15-1.34-0.45c-0.2-0.15-5.26-3.83-2.43-11.93C101.59,275.21,102.93,274.57,104.17,275.02z M169.55,210.59
			c-0.99-0.9-1.04-2.39-0.2-3.33c0.89-0.99,2.38-1.05,3.32-0.2c18.26,16.36,30.95,19.89,31.1,19.94c1.24,0.35,2.04,1.64,1.69,2.88
			c-0.3,1.05-1.24,1.79-2.28,1.79c-0.2,0-0.4-0.05-0.59-0.1C202.04,231.47,188.75,227.84,169.55,210.59z M180.17,201.09
			c0.2-1.29,1.44-2.19,2.68-1.99c0.3,0.05,32.34,5.47,39.39,38.53c0.3,1.29-0.54,2.54-1.83,2.83c-0.15,0.05-0.35,0.05-0.49,0.05
			c-1.09,0-2.08-0.74-2.33-1.89c-6.4-29.93-35.22-34.8-35.52-34.84C180.81,203.58,179.97,202.39,180.17,201.09z M233.49,271.04
			c-0.94-0.9-0.94-2.44-0.05-3.33c0.89-0.95,2.43-0.95,3.32-0.05c1.04,1.05,10.17,10.14,9.87,16.7c-0.1,1.84-0.89,3.43-2.28,4.53
			c-0.55,0.44-1.04,0.84-1.59,1.24c-6.99,5.52-11.21,8.8-3.82,21.33c0.65,1.14,0.3,2.58-0.84,3.23c-0.4,0.25-0.79,0.35-1.19,0.35
			c-0.79,0-1.58-0.4-2.03-1.15c-9.53-16.1-2.14-21.87,4.96-27.49c0.5-0.4,1.04-0.79,1.54-1.19c0.24-0.2,0.49-0.45,0.49-1.04
			C242.07,280.93,237.11,274.57,233.49,271.04z M217.57,274.17c3.87,6.81,1.14,12.38-0.84,14.42c-0.45,0.45-1.09,0.7-1.69,0.7
			c-0.59,0-1.19-0.25-1.69-0.7c-0.94-0.9-0.94-2.39-0.05-3.33c0.35-0.35,3.07-3.58,0.15-8.75c-0.65-1.15-0.25-2.58,0.89-3.23
			C215.48,272.63,216.92,273.03,217.57,274.17z M141.77,54.9c-0.49-0.49-0.74-1.15-0.74-1.84V33.47c0-0.69,0.25-1.34,0.74-1.84
			c0.49-0.49,1.14-0.79,1.84-0.79c0.69,0,1.34,0.24,1.83,0.79c0.49,0.5,0.74,1.15,0.74,1.84v19.59c0,0.74-0.25,1.34-0.74,1.84
			c-0.49,0.49-1.14,0.74-1.83,0.74C142.91,55.69,142.32,55.39,141.77,54.9z M153.08,34.66c-0.3-0.65-0.35-1.34-0.15-1.98
			c0.2-0.7,0.65-1.19,1.29-1.49c0.65-0.3,1.34-0.34,1.98-0.15c0.69,0.2,1.19,0.65,1.48,1.29l7.44,14.91l7.44-14.91
			c0.3-0.65,0.84-1.09,1.48-1.29c0.7-0.2,1.34-0.15,1.98,0.15c0.65,0.3,1.09,0.85,1.29,1.49c0.25,0.69,0.2,1.34-0.15,1.98
			l-9.77,19.59c-0.2,0.45-0.55,0.8-0.94,1.04c-0.4,0.25-0.89,0.4-1.39,0.4c-0.5,0-0.94-0.15-1.39-0.4c-0.4-0.24-0.74-0.59-0.94-1.04
			L153.08,34.66z M38.74,168.09c0-1.19,0.99-2.19,2.18-2.19c2.78,0,5.06-2.29,5.06-5.07c0-1.19,0.99-2.19,2.18-2.19
			c1.19,0,2.18,0.99,2.18,2.19c0,2.79,2.28,5.07,5.06,5.07c1.19,0,2.18,0.99,2.18,2.19c0,1.19-0.99,2.19-2.18,2.19
			c-2.78,0-5.06,2.29-5.06,5.07c0,1.19-0.99,2.19-2.18,2.19c-1.19,0-2.18-0.99-2.18-2.19c0-2.78-2.28-5.07-5.06-5.07
			C39.73,170.28,38.74,169.28,38.74,168.09z M93.06,93.97c0-1.19,0.99-2.19,2.18-2.19c2.78,0,5.06-2.29,5.06-5.07
			c0-1.19,0.99-2.19,2.18-2.19c1.19,0,2.18,0.99,2.18,2.19c0,2.79,2.28,5.07,5.06,5.07c1.19,0,2.18,0.99,2.18,2.19
			c0,1.19-0.99,2.19-2.18,2.19c-2.78,0-5.06,2.29-5.06,5.07c0,1.19-0.99,2.19-2.18,2.19c-1.19,0-2.18-0.99-2.18-2.19
			c0-2.78-2.28-5.07-5.06-5.07C94.05,96.16,93.06,95.16,93.06,93.97z M207.65,93.97c0-1.19,0.99-2.19,2.18-2.19
			c2.78,0,5.06-2.29,5.06-5.07c0-1.19,0.99-2.19,2.18-2.19c1.19,0,2.18,0.99,2.18,2.19c0,2.79,2.28,5.07,5.06,5.07
			c1.19,0,2.18,0.99,2.18,2.19c0,1.19-0.99,2.19-2.18,2.19c-2.78,0-5.06,2.29-5.06,5.07c0,1.19-0.99,2.19-2.18,2.19
			c-1.19,0-2.18-0.99-2.18-2.19c0-2.78-2.28-5.07-5.06-5.07C208.59,96.16,207.65,95.16,207.65,93.97z M262.31,168.09
			c0-1.19,0.99-2.19,2.18-2.19c2.78,0,5.06-2.29,5.06-5.07c0-1.19,0.99-2.19,2.18-2.19c1.19,0,2.18,0.99,2.18,2.19
			c0,2.79,2.29,5.07,5.06,5.07c1.19,0,2.18,0.99,2.18,2.19c0,1.19-0.99,2.19-2.18,2.19c-2.78,0-5.06,2.29-5.06,5.07
			c0,1.19-0.99,2.19-2.18,2.19c-1.19,0-2.18-0.99-2.18-2.19c0-2.78-2.28-5.07-5.06-5.07C263.26,170.28,262.31,169.28,262.31,168.09z
			 M39.39,503.18c0.5,0.5,0.74,1.15,0.74,1.84c0,0.69-0.24,1.34-0.74,1.84c-0.49,0.49-1.14,0.74-1.83,0.74h-5.56v17
			c0,0.74-0.24,1.34-0.74,1.84c-0.5,0.5-1.15,0.74-1.84,0.74c-0.69,0-1.34-0.24-1.83-0.74c-0.5-0.49-0.74-1.14-0.74-1.84v-16.95
			h-5.51c-0.74,0-1.34-0.24-1.84-0.74c-0.49-0.49-0.74-1.14-0.74-1.84c0-0.69,0.25-1.34,0.74-1.84c0.5-0.49,1.14-0.8,1.84-0.8H37.6
			C38.24,502.39,38.89,502.69,39.39,503.18z M65.18,503.18c0.49,0.5,0.74,1.15,0.74,1.84v19.58c0,0.74-0.25,1.34-0.74,1.84
			c-0.49,0.5-1.14,0.74-1.83,0.74c-0.7,0-1.34-0.24-1.84-0.74c-0.49-0.49-0.74-1.14-0.74-1.84v-7.16H49.66v7.16
			c0,0.74-0.25,1.34-0.74,1.84c-0.49,0.5-1.14,0.74-1.83,0.74c-0.74,0-1.34-0.24-1.84-0.74c-0.49-0.49-0.74-1.14-0.74-1.84v-19.58
			c0-0.7,0.25-1.34,0.74-1.84c0.5-0.49,1.14-0.79,1.84-0.79c0.69,0,1.34,0.24,1.83,0.79c0.49,0.5,0.74,1.15,0.74,1.84v7.16h11.11
			v-7.16c0-0.7,0.25-1.34,0.74-1.84c0.49-0.49,1.14-0.79,1.84-0.79C64.04,502.39,64.64,502.69,65.18,503.18z M77.33,507.66v4.58
			h10.42c0.7,0,1.34,0.24,1.84,0.74c0.49,0.49,0.74,1.14,0.74,1.84c0,0.69-0.25,1.34-0.74,1.84c-0.49,0.49-1.14,0.74-1.84,0.74
			H77.33v4.57h13.69c0.69,0,1.34,0.25,1.83,0.74c0.5,0.5,0.74,1.15,0.74,1.84c0,0.74-0.24,1.34-0.74,1.84
			c-0.49,0.49-1.14,0.74-1.83,0.74H74.76c-0.74,0-1.34-0.25-1.83-0.74c-0.49-0.5-0.74-1.15-0.74-1.84v-19.59
			c0-0.7,0.25-1.34,0.74-1.84c0.49-0.5,1.14-0.8,1.83-0.8h16.27c0.69,0,1.34,0.25,1.83,0.8c0.5,0.49,0.74,1.14,0.74,1.84
			c0,0.7-0.24,1.34-0.74,1.84c-0.49,0.5-1.14,0.74-1.83,0.74L77.33,507.66z M119.1,507.66v4.58h10.42c0.69,0,1.34,0.24,1.83,0.74
			c0.49,0.49,0.74,1.14,0.74,1.84c0,0.69-0.25,1.34-0.74,1.84c-0.49,0.49-1.14,0.74-1.83,0.74H119.1v4.57h13.69
			c0.7,0,1.34,0.25,1.84,0.74c0.49,0.5,0.74,1.15,0.74,1.84c0,0.74-0.25,1.34-0.74,1.84c-0.49,0.49-1.14,0.74-1.84,0.74h-16.27
			c-0.74,0-1.34-0.25-1.83-0.74c-0.49-0.5-0.74-1.15-0.74-1.84v-19.59c0-0.7,0.25-1.34,0.74-1.84c0.49-0.5,1.14-0.8,1.83-0.8h16.27
			c0.7,0,1.34,0.25,1.84,0.8c0.49,0.49,0.74,1.14,0.74,1.84c0,0.7-0.25,1.34-0.74,1.84c-0.49,0.5-1.14,0.74-1.84,0.74L119.1,507.66z
			 M164.59,503.58c0.3,0.45,0.45,0.94,0.45,1.44v19.58c0,0.74-0.25,1.34-0.79,1.84c-0.5,0.5-1.14,0.74-1.84,0.74
			c-0.69,0-1.34-0.24-1.83-0.74c-0.49-0.49-0.74-1.14-0.74-1.84v-13.27l-5.31,5.32c-0.49,0.49-1.14,0.74-1.83,0.74
			c-0.7,0-1.34-0.25-1.84-0.74l-5.31-5.32v13.27c0,0.74-0.25,1.34-0.74,1.84c-0.49,0.5-1.14,0.74-1.83,0.74
			c-0.74,0-1.34-0.24-1.84-0.74c-0.49-0.49-0.74-1.14-0.74-1.84v-19.58c0-0.55,0.15-0.99,0.44-1.44c0.3-0.45,0.7-0.74,1.14-0.95
			c0.5-0.2,0.99-0.24,1.49-0.15c0.49,0.1,0.94,0.35,1.34,0.74l7.94,7.95l7.94-7.95c0.4-0.4,0.79-0.6,1.34-0.74
			c0.49-0.1,1.04-0.05,1.49,0.15C163.94,502.84,164.34,503.14,164.59,503.58z M183.64,502.39h-9.78c-0.74,0-1.34,0.24-1.83,0.79
			c-0.49,0.5-0.74,1.15-0.74,1.84v19.58c0,0.74,0.25,1.34,0.74,1.84c0.49,0.5,1.14,0.74,1.83,0.74c0.7,0,1.34-0.24,1.84-0.74
			c0.49-0.49,0.74-1.14,0.74-1.84v-3.93h7.14c2.53,0,4.66-0.9,6.45-2.68c1.79-1.79,2.68-3.93,2.68-6.46s-0.89-4.67-2.68-6.46
			C188.3,503.29,186.12,502.39,183.64,502.39z M186.36,514.32c-0.74,0.75-1.68,1.15-2.78,1.15h-7.14v-7.81h7.14
			c1.09,0,1.98,0.4,2.78,1.15c0.8,0.74,1.14,1.69,1.14,2.78C187.56,512.63,187.16,513.57,186.36,514.32z M202.89,507.66v4.58h10.42
			c0.69,0,1.34,0.24,1.83,0.74c0.5,0.49,0.74,1.14,0.74,1.84c0,0.69-0.24,1.34-0.74,1.84c-0.49,0.49-1.14,0.74-1.83,0.74h-10.42
			v4.57h13.64c0.69,0,1.34,0.25,1.83,0.74c0.5,0.5,0.74,1.15,0.74,1.84c0,0.74-0.24,1.34-0.74,1.84c-0.49,0.49-1.14,0.74-1.83,0.74
			h-16.27c-0.74,0-1.34-0.25-1.83-0.74c-0.49-0.5-0.74-1.15-0.74-1.84v-19.59c0-0.7,0.25-1.34,0.74-1.84c0.49-0.5,1.14-0.8,1.83-0.8
			h16.27c0.69,0,1.34,0.25,1.83,0.8c0.5,0.49,0.74,1.14,0.74,1.84c0,0.7-0.24,1.34-0.74,1.84c-0.49,0.5-1.14,0.74-1.83,0.74
			L202.89,507.66z M244.41,516.01c0.79-1.39,1.19-2.89,1.19-4.47c0-2.54-0.89-4.67-2.68-6.46c-1.79-1.79-3.92-2.68-6.45-2.68h-9.78
			c-0.74,0-1.34,0.24-1.83,0.79c-0.49,0.5-0.74,1.15-0.74,1.84v19.58c0,0.74,0.25,1.34,0.74,1.84c0.49,0.5,1.14,0.74,1.83,0.74
			c0.7,0,1.34-0.24,1.84-0.74c0.49-0.49,0.74-1.14,0.74-1.84v-3.93h6.1l5.76,5.77c0.49,0.5,1.14,0.74,1.83,0.74
			c0.7,0,1.34-0.24,1.84-0.74c0.49-0.49,0.74-1.14,0.74-1.84c0-0.7-0.25-1.34-0.74-1.84l-3.47-3.48
			C242.62,518.45,243.66,517.35,244.41,516.01z M239.2,514.32c-0.74,0.75-1.69,1.15-2.78,1.15h-7.14v-7.81h7.14
			c1.09,0,1.98,0.4,2.78,1.15c0.79,0.74,1.14,1.69,1.14,2.78C240.34,512.63,239.99,513.57,239.2,514.32z M261.52,502.39
			c-3.42,0-6.35,1.19-8.73,3.63c-2.43,2.43-3.62,5.36-3.62,8.74c0,3.43,1.19,6.36,3.62,8.75c2.43,2.44,5.36,3.63,8.73,3.63
			c3.43,0,6.35-1.19,8.73-3.63c2.43-2.44,3.62-5.37,3.62-8.75c0-3.43-1.19-6.36-3.62-8.74
			C267.86,503.63,264.94,502.39,261.52,502.39z M266.62,519.89c-1.39,1.4-3.12,2.09-5.06,2.09c-1.98,0-3.67-0.69-5.06-2.09
			c-1.39-1.39-2.08-3.08-2.08-5.07s0.7-3.68,2.08-5.07c1.39-1.39,3.08-2.14,5.06-2.14s3.67,0.7,5.06,2.14
			c1.39,1.4,2.08,3.08,2.08,5.07S268.02,518.49,266.62,519.89z M299.17,516.01c0.8-1.39,1.19-2.89,1.19-4.47
			c0-2.54-0.9-4.67-2.68-6.46c-1.78-1.79-3.92-2.68-6.45-2.68h-9.77c-0.74,0-1.34,0.24-1.83,0.79c-0.5,0.5-0.74,1.15-0.74,1.84
			v19.58c0,0.74,0.24,1.34,0.74,1.84c0.49,0.5,1.14,0.74,1.83,0.74s1.34-0.24,1.83-0.74c0.5-0.49,0.74-1.14,0.74-1.84v-3.93h6.1
			l5.76,5.77c0.49,0.5,1.14,0.74,1.83,0.74c0.69,0,1.34-0.24,1.83-0.74c0.5-0.49,0.74-1.14,0.74-1.84c0-0.7-0.24-1.34-0.74-1.84
			l-3.47-3.48C297.38,518.45,298.42,517.35,299.17,516.01z M293.96,514.32c-0.74,0.75-1.69,1.15-2.78,1.15h-7.15v-7.81h7.15
			c1.09,0,1.98,0.4,2.78,1.15c0.8,0.74,1.14,1.69,1.14,2.78C295.15,512.63,294.76,513.57,293.96,514.32z M32.05,379.01
			c-0.1-0.3-2.04-7.81,3.77-11.98c4.11-2.93,6.45-1.24,7.04-0.65c1.44,1.4,1.54,3.68,0.25,5.57c-2.28,3.48-9.33,7.81-9.62,7.95
			c-0.15,0.1-0.25,0.1-0.4,0.1c-0.25,0-0.55-0.15-0.69-0.4c-0.05-0.1-0.1-0.15-0.1-0.25C32.19,379.35,32.09,379.21,32.05,379.01z
			 M277.24,372c-1.24-1.94-1.15-4.22,0.24-5.57c0.59-0.6,2.93-2.29,7.05,0.65c5.8,4.12,3.86,11.63,3.77,11.98
			c-0.05,0.2-0.15,0.35-0.3,0.45c0,0.1-0.05,0.15-0.1,0.25c-0.15,0.24-0.4,0.4-0.69,0.4c-0.15,0-0.3-0.05-0.4-0.1
			C286.57,379.76,279.53,375.48,277.24,372z"/>
	</g>
</g>
</svg>
