<?xml version="1.0" encoding="utf-8"?>
<!-- Generator: Adobe Illustrator 29.8.1, SVG Export Plug-In . SVG Version: 9.03 Build 0)  -->
<svg version="1.0" id="Layer_1" xmlns="http://www.w3.org/2000/svg" xmlns:xlink="http://www.w3.org/1999/xlink" x="0px" y="0px"
	 viewBox="0 0 318.01 543" style="enable-background:new 0 0 318.01 543;" xml:space="preserve">
<style type="text/css">
	.st0{clip-path:url(#SVGID_00000054962471073412765850000010316046893007400325_);}
	.st1{fill:#2E2E2E;}
</style>
<g>
	<defs>
		<rect id="SVGID_1_" x="0.01" width="318" height="543"/>
	</defs>
	<clipPath id="SVGID_00000062880635025881589130000005015441766743365504_">
		<use xlink:href="#SVGID_1_"  style="overflow:visible;"/>
	</clipPath>
	<g style="clip-path:url(#SVGID_00000062880635025881589130000005015441766743365504_);">
		<path class="st1" d="M53.13,501.41c0.5,0.51,0.76,1.11,0.76,1.83c0,0.71-0.26,1.32-0.76,1.83c-0.52,0.51-1.13,0.76-1.84,0.76
			h-5.51v16.85c0,0.73-0.26,1.34-0.76,1.85c-0.51,0.5-1.11,0.76-1.83,0.76s-1.32-0.26-1.84-0.76c-0.51-0.51-0.76-1.12-0.76-1.85
			v-16.85h-5.49c-0.72,0-1.33-0.25-1.84-0.76c-0.51-0.51-0.76-1.11-0.76-1.83c0-0.71,0.25-1.32,0.76-1.83
			c0.51-0.52,1.11-0.77,1.84-0.77h16.18C52,500.64,52.61,500.9,53.13,501.41z M79.18,500.64c-0.71,0-1.32,0.26-1.82,0.77
			c-0.51,0.51-0.76,1.11-0.76,1.83v7.12H65.59v-7.12c0-0.71-0.26-1.32-0.76-1.83c-0.51-0.52-1.11-0.77-1.83-0.77
			c-0.72,0-1.33,0.26-1.84,0.77c-0.51,0.51-0.76,1.11-0.76,1.83v19.43c0,0.73,0.25,1.34,0.76,1.85c0.51,0.5,1.11,0.76,1.84,0.76
			c0.71,0,1.32-0.26,1.83-0.76c0.5-0.51,0.76-1.12,0.76-1.85v-7.12H76.6v7.12c0,0.73,0.25,1.34,0.76,1.85
			c0.51,0.5,1.11,0.76,1.82,0.76c0.71,0,1.33-0.26,1.84-0.76c0.51-0.51,0.76-1.12,0.76-1.85v-19.43c0-0.71-0.25-1.32-0.76-1.83
			C80.51,500.9,79.9,500.64,79.18,500.64z M109.02,505.82c0.71,0,1.33-0.25,1.84-0.76c0.5-0.51,0.76-1.11,0.76-1.83
			c0-0.71-0.26-1.32-0.76-1.82c-0.52-0.52-1.13-0.78-1.84-0.78H92.84c-0.72,0-1.34,0.26-1.84,0.78c-0.51,0.51-0.76,1.11-0.76,1.82
			v19.44c0,0.72,0.25,1.34,0.76,1.84c0.5,0.5,1.11,0.76,1.84,0.76h16.18c0.71,0,1.33-0.26,1.84-0.76c0.5-0.51,0.76-1.12,0.76-1.84
			c0-0.71-0.26-1.32-0.76-1.83c-0.52-0.51-1.13-0.76-1.84-0.76H95.43v-4.54h10.35c0.71,0,1.33-0.26,1.84-0.76
			c0.51-0.51,0.76-1.11,0.76-1.82c0-0.72-0.25-1.34-0.76-1.84c-0.52-0.51-1.13-0.76-1.84-0.76H95.43v-4.54H109.02z M153.12,500.64
			h-16.18c-0.72,0-1.33,0.26-1.84,0.77c-0.51,0.51-0.76,1.11-0.76,1.83c0,0.71,0.25,1.32,0.76,1.83c0.51,0.51,1.11,0.76,1.84,0.76
			h5.49v16.85c0,0.73,0.25,1.34,0.76,1.85c0.52,0.5,1.12,0.76,1.84,0.76c0.71,0,1.32-0.26,1.83-0.76c0.5-0.51,0.76-1.12,0.76-1.85
			v-16.85h5.51c0.71,0,1.33-0.25,1.84-0.76c0.5-0.51,0.76-1.11,0.76-1.83c0-0.71-0.26-1.32-0.76-1.83
			C154.45,500.9,153.84,500.64,153.12,500.64z M181.94,504.26c2.41,2.4,3.62,5.31,3.62,8.71c0,3.39-1.21,6.29-3.62,8.7
			c-2.4,2.4-5.3,3.6-8.69,3.6c-3.39,0-6.29-1.2-8.7-3.6c-2.4-2.41-3.6-5.32-3.6-8.7c0-3.4,1.2-6.31,3.6-8.71
			c2.41-2.41,5.31-3.62,8.7-3.62C176.65,500.64,179.54,501.85,181.94,504.26z M180.39,512.97c0-1.96-0.7-3.65-2.09-5.04
			c-1.41-1.41-3.09-2.11-5.05-2.11c-1.96,0-3.64,0.7-5.03,2.11c-1.39,1.39-2.09,3.07-2.09,5.04c0,1.96,0.7,3.64,2.09,5.03
			c1.39,1.4,3.07,2.09,5.03,2.09c1.96,0,3.64-0.69,5.05-2.09C179.69,516.61,180.39,514.93,180.39,512.97z M223.67,500.92
			c-0.65-0.32-0.97-0.48-0.97-0.48s-0.34,0.11-1.02,0.33c-0.67,0.23-1.17,0.67-1.49,1.3l-7.4,14.81l-1.96-3.92l4.28-8.58
			c0.33-0.64,0.38-1.29,0.15-1.97c-0.23-0.68-0.66-1.18-1.3-1.49c-0.64-0.32-1.3-0.37-1.97-0.15c-0.68,0.23-1.18,0.67-1.49,1.3
			l-2.55,5.1l-2.53-5.07c-0.33-0.65-0.83-1.08-1.5-1.3c-0.68-0.23-1.34-0.19-1.99,0.13c-0.64,0.32-1.07,0.82-1.3,1.49
			c-0.22,0.68-0.17,1.35,0.15,1.99l4.27,8.54l-1.95,3.92l-7.4-14.78c-0.32-0.65-0.82-1.08-1.49-1.3c-0.68-0.23-1.34-0.19-1.99,0.13
			c-0.64,0.32-1.06,0.82-1.28,1.49c-0.23,0.68-0.19,1.35,0.13,1.99l9.72,19.42c0.22,0.44,0.54,0.79,0.95,1.04
			c0.42,0.26,0.87,0.4,1.36,0.4c0.49,0,0.95-0.14,1.36-0.4c0.42-0.26,0.73-0.6,0.95-1.04l2.53-5.09l2.55,5.09
			c0.22,0.44,0.54,0.79,0.95,1.04c0.42,0.26,0.88,0.4,1.36,0.4c0.48,0,0.93-0.14,1.35-0.4c0.42-0.26,0.73-0.6,0.95-1.04l9.72-19.45
			c0.32-0.64,0.36-1.29,0.15-1.97C224.73,501.74,224.3,501.24,223.67,500.92z M250.4,505.82c0.71,0,1.33-0.25,1.84-0.76
			c0.5-0.51,0.76-1.11,0.76-1.83c0-0.71-0.26-1.32-0.76-1.82c-0.52-0.52-1.13-0.78-1.84-0.78h-16.18c-0.72,0-1.34,0.26-1.84,0.78
			c-0.51,0.51-0.76,1.11-0.76,1.82v19.44c0,0.72,0.26,1.34,0.76,1.84c0.5,0.5,1.11,0.76,1.84,0.76h16.18c0.71,0,1.33-0.26,1.84-0.76
			c0.5-0.51,0.76-1.12,0.76-1.84c0-0.71-0.26-1.32-0.76-1.83c-0.52-0.51-1.13-0.76-1.84-0.76H236.8v-4.54h10.35
			c0.71,0,1.33-0.26,1.84-0.76c0.51-0.51,0.76-1.11,0.76-1.82c0-0.72-0.25-1.34-0.76-1.84c-0.52-0.51-1.13-0.76-1.84-0.76H236.8
			v-4.54H250.4z M277.31,517.38l3.47,3.47c0.51,0.51,0.76,1.11,0.76,1.83c0,0.72-0.25,1.34-0.76,1.84c-0.52,0.5-1.13,0.76-1.84,0.76
			c-0.71,0-1.32-0.26-1.82-0.76l-5.72-5.73h-6.05v3.89c0,0.72-0.26,1.34-0.76,1.84c-0.51,0.5-1.11,0.76-1.83,0.76
			c-0.72,0-1.34-0.26-1.84-0.76c-0.51-0.51-0.76-1.12-0.76-1.84v-19.44c0-0.71,0.25-1.32,0.76-1.82c0.5-0.52,1.11-0.78,1.84-0.78
			h9.7c2.49,0,4.64,0.89,6.41,2.67c1.77,1.78,2.66,3.92,2.66,6.42c0,1.58-0.39,3.06-1.17,4.43
			C279.62,515.48,278.6,516.55,277.31,517.38z M276.35,509.72c0-1.07-0.39-1.99-1.15-2.75c-0.76-0.77-1.67-1.15-2.74-1.15h-7.12
			v7.79h7.12c1.07,0,1.99-0.38,2.74-1.14C275.97,511.7,276.35,510.79,276.35,509.72z M317.98,18.42v506.16
			c0,4.88-1.9,9.45-5.34,12.9c-3.44,3.44-8.02,5.34-12.89,5.34H18.22c-4.87,0-9.45-1.9-12.89-5.34C1.9,534.03,0,529.45,0,524.58
			V18.42c0-4.87,1.9-9.45,5.34-12.9c3.44-3.45,8.02-5.34,12.89-5.34h281.53c4.86,0,9.44,1.9,12.89,5.34
			C316.08,8.97,317.98,13.55,317.98,18.42z M313.28,18.42c0-3.74-1.52-7.12-3.96-9.57c-2.45-2.45-5.83-3.97-9.56-3.97H18.22
			c-3.73,0-7.12,1.52-9.57,3.97c-2.45,2.45-3.96,5.83-3.96,9.57v506.16c0,3.74,1.52,7.12,3.96,9.57c2.45,2.45,5.83,3.97,9.57,3.97
			h281.53c3.73,0,7.11-1.52,9.56-3.97c2.45-2.45,3.96-5.83,3.96-9.57V18.42z M305.44,271.5l0.02,211.22c0,2.22-1.93,4.15-4.15,4.15
			H16.52c-2.19,0-3.96-1.76-4.01-3.95V18.42c0-1.52,0.59-2.95,1.67-4.03s2.51-1.67,4.03-1.67H256.3l0.08-0.07l0.07,0.07h43.3
			c1.49,0,2.9,0.58,3.97,1.62c0.02,0.02,0.04,0.03,0.05,0.05c1.08,1.08,1.67,2.51,1.67,4.03V271.5z M206.8,391.05v42.41h10.8
			l-14.33-258.98h-88.55l-14.33,258.98h10.79v-42.41c0-1.3,1.05-2.35,2.35-2.35s2.35,1.05,2.35,2.35v42.41h11.08v-28.12
			c0-1.3,1.05-2.35,2.35-2.35s2.35,1.05,2.35,2.35v28.12h11.09v-23.6c0-1.3,1.05-2.35,2.34-2.35c1.3,0,2.35,1.05,2.35,2.35v23.6
			h18.6v-23.6c0-1.3,1.05-2.35,2.34-2.35c1.3,0,2.35,1.05,2.35,2.35v23.6h13.34v-28.12c0-1.3,1.05-2.35,2.35-2.35
			s2.35,1.05,2.35,2.35v28.12h13.34v-42.41c0-1.3,1.05-2.35,2.34-2.35C205.75,388.7,206.8,389.76,206.8,391.05z M97.9,438.16
			c-14.74,0-41.68,5.12-61.8,11.1h245.93c-20.12-5.98-47.05-11.1-61.8-11.1c-0.03,0-0.05-0.01-0.08-0.01
			c-0.03,0-0.05,0.01-0.08,0.01H97.9z M300.76,450.93l-0.02-179.43V65.09c-4.67,9.29-12.51,14.43-16.98,16.74l11.49,16.24
			l-34.17,18.89l-1.02,1.76c-12.28,35.58-43.78,49.45-52.36,52.65c0.07,0.2,0.12,0.41,0.14,0.64l14.47,261.48
			C242.99,434.07,282.71,442.94,300.76,450.93z M223.43,50.65l31.75,38.59l-84.57,62.6l-4.79-13.42l-14.6,30.99h32.71l-9.15-10.13
			l90.79-50.19l22.79-12.6l-8.59-12.14l-19.98-28.23l40.94-29.59v-8.1c0-0.28-0.1-0.51-0.29-0.71c-0.08-0.08-0.17-0.13-0.27-0.18
			c-0.14-0.07-0.28-0.11-0.44-0.11h-41.56L223.43,50.65z M182.96,52.71c0,0.72,0.25,1.34,0.76,1.84c0.51,0.5,1.12,0.76,1.84,0.76
			c0.71,0,1.32-0.26,1.82-0.76c0.51-0.51,0.76-1.12,0.76-1.84V33.28c0-0.71-0.25-1.32-0.76-1.82c-0.51-0.52-1.11-0.78-1.82-0.78
			c-0.72,0-1.34,0.26-1.84,0.78c-0.51,0.51-0.76,1.11-0.76,1.82V52.71z M152.11,34.46l9.71,19.42c0.22,0.44,0.54,0.79,0.95,1.04
			c0.42,0.27,0.87,0.4,1.36,0.4c0.49,0,0.95-0.13,1.36-0.4c0.42-0.25,0.73-0.59,0.95-1.04l9.7-19.45c0.33-0.64,0.38-1.29,0.15-1.97
			c-0.23-0.68-0.66-1.18-1.3-1.49c-0.64-0.32-1.29-0.37-1.97-0.15c-0.68,0.23-1.18,0.66-1.5,1.3l-7.4,14.81l-7.4-14.78
			c-0.32-0.65-0.82-1.08-1.5-1.3c-0.68-0.23-1.34-0.19-1.98,0.13c-0.64,0.32-1.06,0.82-1.28,1.49
			C151.74,33.15,151.79,33.82,152.11,34.46z M132.56,43.01l-6.71,8.06c-0.46,0.55-0.66,1.18-0.59,1.89c0.07,0.71,0.38,1.3,0.92,1.74
			c0.47,0.41,1.03,0.61,1.66,0.61c0.8,0,1.46-0.31,1.99-0.94l6.1-7.32l6.1,7.32c0.53,0.62,1.19,0.94,1.98,0.94
			c0.63,0,1.18-0.2,1.66-0.61c0.55-0.45,0.85-1.03,0.92-1.74c0.07-0.71-0.13-1.34-0.59-1.89l-6.71-8.06l6.71-8.07
			c0.46-0.55,0.66-1.18,0.59-1.89c-0.07-0.71-0.38-1.3-0.92-1.76c-0.55-0.46-1.18-0.66-1.89-0.59c-0.71,0.07-1.3,0.38-1.76,0.92
			l-6.09,7.34l-6.1-7.34c-0.46-0.55-1.05-0.85-1.76-0.92c-0.71-0.06-1.34,0.13-1.89,0.59c-0.55,0.46-0.85,1.05-0.92,1.76
			c-0.07,0.71,0.13,1.34,0.59,1.89L132.56,43.01z M89.79,107.13l19.32,22.96c0.46,0.54,1.12,0.84,1.8,0.84
			c0.27,0,0.53-0.05,0.78-0.14l33.61-11.84l32.18-11.34c0.92-0.32,1.55-1.19,1.57-2.16l0.7-30.02c0.02-0.89-0.46-1.71-1.24-2.13
			c-0.78-0.42-1.73-0.36-2.46,0.15l-23.85,16.81l-20.24-12.51h-0.01c-0.09-0.05-0.19-0.09-0.29-0.14c-0.05-0.02-0.09-0.05-0.15-0.07
			c0,0-0.01-0.01-0.01-0.01c-0.01,0-0.02,0-0.02-0.01c-0.03-0.01-0.07-0.02-0.1-0.02c-0.03-0.01-0.05-0.02-0.08-0.02
			c-0.08-0.02-0.16-0.05-0.24-0.06c-0.02,0-0.04,0-0.06-0.01c-0.05-0.01-0.1-0.01-0.16-0.01c-0.08-0.01-0.16-0.02-0.23-0.01
			c-0.03,0-0.06,0.01-0.09,0.01c-0.06,0.01-0.11,0.02-0.17,0.03c-0.06,0.01-0.12,0.02-0.18,0.03c-0.04,0.01-0.08,0.03-0.12,0.04
			c-0.04,0.01-0.07,0.01-0.1,0.02c-0.03,0.01-0.06,0.03-0.08,0.04c-0.04,0.02-0.08,0.03-0.12,0.05c-0.05,0.02-0.1,0.05-0.15,0.08
			c-0.06,0.03-0.11,0.06-0.17,0.09c-0.03,0.02-0.05,0.03-0.08,0.05c-0.06,0.04-0.11,0.09-0.16,0.14c-0.05,0.04-0.1,0.08-0.14,0.12
			c-0.01,0.02-0.03,0.03-0.04,0.04c-0.06,0.07-0.11,0.15-0.17,0.22c-0.03,0.05-0.07,0.09-0.1,0.14c0,0.01,0,0.01-0.01,0.01
			c0,0.01,0,0.01,0,0.01c-0.05,0.08-0.08,0.16-0.12,0.25c-0.03,0.06-0.06,0.11-0.08,0.17c0,0.01-0.01,0.01-0.01,0.02l-7.95,22.44
			l-29.11,1.86c-0.89,0.05-1.66,0.6-2.01,1.42S89.22,106.45,89.79,107.13z M17.21,451c17.93-7.99,57.67-16.88,78.46-17.5
			l14.47-261.49c0.01-0.17,0.04-0.34,0.09-0.51c-15.51-4.31-25.9-11.87-32.82-20.39c-17.44-16.47-13.49-45.18-13.49-45.18
			s-27.05-3.76-30.06-28.58c-0.17-1.36-0.24-2.69-0.28-3.99c-0.97-10.24,3.54-19.72,6.11-24.18c0.97-1.71,1.68-2.67,1.68-2.67
			c-0.8-0.14-1.58-0.3-2.34-0.48C26.52,43.05,20.3,34.58,17.21,27.15V451z M17.21,466.19h283.55l-0.01-10.08
			c-1.72-0.84-3.72-1.69-5.94-2.55c-0.38,0.26-0.83,0.41-1.32,0.41H22.96c-0.18,0-0.36-0.03-0.53-0.07
			c-1.94,0.77-3.69,1.54-5.22,2.29V466.19z M300.77,482.17v-11.29H17.21v11.29H300.77z M189.61,272.19c0,1.3-1.05,2.35-2.34,2.35
			h-57.78c-1.3,0-2.35-1.05-2.35-2.35c0-1.3,1.05-2.35,2.35-2.35h7.8v-22.76c0-19.3,9.72-29.72,18.87-29.72
			c4.21,0,14.02,1.6,17.8,15.64c0.53-0.4,1.07-0.81,1.59-1.15c0.82-0.54,1.9-0.51,2.69,0.07c0.79,0.59,1.13,1.6,0.85,2.55
			l-3.61,12.32l9.28-9.29c0.65-0.65,1.6-0.85,2.46-0.55c0.85,0.31,1.46,1.09,1.54,1.99c0.08,0.82,1.53,18.26-9.67,30.88h8.17
			C188.56,269.84,189.61,270.89,189.61,272.19z M184.01,244.92l-11.71,11.72c-0.76,0.76-1.93,0.91-2.86,0.36
			c-0.92-0.55-1.35-1.66-1.06-2.68l4.03-13.75c-7.14,7.01-14.13,17.03-14.22,17.16c-0.61,0.88-1.73,1.23-2.73,0.87
			c-1-0.36-1.64-1.36-1.54-2.42l0.93-10.41l-0.36,0.32c-5.24,6.02-9.64,17.57-11.56,23.74h29.38
			C181.22,262.51,183.49,251.5,184.01,244.92z M189.61,357.2c0,1.3-1.05,2.35-2.34,2.35h-57.78c-1.3,0-2.35-1.06-2.35-2.35
			s1.05-2.35,2.35-2.35h7.8v-22.76c0-19.3,9.72-29.72,18.87-29.72c5.22,0,14.2,2.12,17.81,15.64c0.53-0.4,1.06-0.8,1.58-1.14
			c0.82-0.54,1.9-0.51,2.69,0.07c0.79,0.59,1.13,1.61,0.85,2.55l-3.61,12.32l9.28-9.29c0.65-0.65,1.6-0.85,2.46-0.55
			c0.85,0.31,1.46,1.09,1.54,1.99c0.08,0.82,1.54,18.26-9.67,30.88h8.18C188.56,354.85,189.61,355.9,189.61,357.2z M184.01,329.93
			l-11.71,11.72c-0.76,0.76-1.93,0.91-2.86,0.36c-0.92-0.55-1.35-1.65-1.06-2.68l4.03-13.74c-7.14,7.01-14.13,17.03-14.22,17.16
			c-0.61,0.88-1.73,1.22-2.73,0.86c-1-0.36-1.64-1.36-1.54-2.42l0.93-10.41l-0.38,0.33c-5.24,6.02-9.62,17.56-11.55,23.73h29.39
			C181.22,347.52,183.49,336.51,184.01,329.93z M41.74,203.58c0,1.2,0.97,2.17,2.17,2.17c1.2,0,2.17-0.97,2.17-2.17
			c0-2.77,2.26-5.03,5.02-5.03c1.2,0,2.17-0.97,2.17-2.17s-0.97-2.17-2.17-2.17c-2.77,0-5.02-2.26-5.02-5.03
			c0-1.2-0.97-2.17-2.17-2.17c-1.19,0-2.17,0.97-2.17,2.17c0,2.77-2.25,5.03-5.02,5.03c-1.19,0-2.17,0.97-2.17,2.17
			s0.97,2.17,2.17,2.17C39.49,198.55,41.74,200.81,41.74,203.58z M69.92,250.97c0,1.2,0.97,2.17,2.17,2.17
			c1.2,0,2.17-0.97,2.17-2.17c0-2.77,2.26-5.03,5.02-5.03c1.2,0,2.17-0.97,2.17-2.17s-0.97-2.17-2.17-2.17
			c-2.77,0-5.02-2.26-5.02-5.03c0-1.2-0.97-2.17-2.17-2.17c-1.2,0-2.17,0.97-2.17,2.17c0,2.77-2.25,5.03-5.02,5.03
			c-1.19,0-2.17,0.97-2.17,2.17s0.97,2.17,2.17,2.17C67.67,245.95,69.92,248.2,69.92,250.97z M42.87,297.24
			c0,1.2,0.97,2.17,2.17,2.17c1.2,0,2.17-0.97,2.17-2.17c0-2.77,2.25-5.03,5.02-5.03c1.2,0,2.17-0.97,2.17-2.17
			s-0.97-2.17-2.17-2.17c-2.77,0-5.02-2.26-5.02-5.03c0-1.2-0.97-2.17-2.17-2.17c-1.2,0-2.17,0.97-2.17,2.17
			c0,2.77-2.26,5.03-5.02,5.03c-1.2,0-2.17,0.97-2.17,2.17s0.97,2.17,2.17,2.17C40.61,292.21,42.87,294.47,42.87,297.24z
			 M80.41,340.91c-2.77,0-5.02-2.26-5.02-5.03c0-1.2-0.97-2.17-2.17-2.17c-1.2,0-2.17,0.97-2.17,2.17c0,2.77-2.26,5.03-5.02,5.03
			c-1.2,0-2.17,0.97-2.17,2.17c0,1.2,0.97,2.17,2.17,2.17c2.77,0,5.02,2.25,5.02,5.03c0,1.2,0.97,2.17,2.17,2.17
			c1.19,0,2.17-0.97,2.17-2.17c0-2.78,2.25-5.03,5.02-5.03c1.19,0,2.17-0.97,2.17-2.17C82.57,341.88,81.6,340.91,80.41,340.91z
			 M56.73,396.2c-2.77,0-5.02-2.26-5.02-5.03c0-1.2-0.97-2.17-2.17-2.17c-1.2,0-2.17,0.97-2.17,2.17c0,2.77-2.26,5.03-5.02,5.03
			c-1.2,0-2.17,0.97-2.17,2.17s0.97,2.17,2.17,2.17c2.77,0,5.02,2.26,5.02,5.03c0,1.2,0.97,2.17,2.17,2.17
			c1.19,0,2.17-0.97,2.17-2.17c0-2.77,2.25-5.03,5.02-5.03c1.19,0,2.17-0.97,2.17-2.17S57.93,396.2,56.73,396.2z M281.06,194.21
			c-2.77,0-5.02-2.26-5.02-5.03c0-1.2-0.97-2.17-2.17-2.17c-1.2,0-2.17,0.97-2.17,2.17c0,2.77-2.26,5.03-5.02,5.03
			c-1.2,0-2.17,0.97-2.17,2.17s0.97,2.17,2.17,2.17c2.77,0,5.02,2.26,5.02,5.03c0,1.2,0.97,2.17,2.17,2.17
			c1.19,0,2.17-0.97,2.17-2.17c0-2.77,2.25-5.03,5.02-5.03c1.19,0,2.17-0.97,2.17-2.17S282.25,194.21,281.06,194.21z M252.88,241.61
			c-2.77,0-5.02-2.26-5.02-5.03c0-1.2-0.97-2.17-2.17-2.17c-1.2,0-2.17,0.97-2.17,2.17c0,2.77-2.26,5.03-5.02,5.03
			c-1.2,0-2.17,0.97-2.17,2.17s0.97,2.17,2.17,2.17c2.77,0,5.02,2.26,5.02,5.03c0,1.2,0.97,2.17,2.17,2.17
			c1.2,0,2.17-0.97,2.17-2.17c0-2.77,2.25-5.03,5.02-5.03c1.2,0,2.17-0.97,2.17-2.17S254.07,241.61,252.88,241.61z M279.93,287.88
			c-2.77,0-5.02-2.26-5.02-5.03c0-1.2-0.97-2.17-2.17-2.17s-2.17,0.97-2.17,2.17c0,2.77-2.25,5.03-5.02,5.03
			c-1.2,0-2.17,0.97-2.17,2.17s0.97,2.17,2.17,2.17c2.77,0,5.02,2.26,5.02,5.03c0,1.2,0.97,2.17,2.17,2.17
			c1.2,0,2.17-0.97,2.17-2.17c0-2.77,2.26-5.03,5.02-5.03c1.2,0,2.17-0.97,2.17-2.17S281.12,287.88,279.93,287.88z M251.74,340.91
			c-2.77,0-5.02-2.26-5.02-5.03c0-1.2-0.97-2.17-2.17-2.17c-1.19,0-2.17,0.97-2.17,2.17c0,2.77-2.25,5.03-5.02,5.03
			c-1.19,0-2.17,0.97-2.17,2.17c0,1.2,0.97,2.17,2.17,2.17c2.77,0,5.02,2.25,5.02,5.03c0,1.2,0.97,2.17,2.17,2.17
			c1.2,0,2.17-0.97,2.17-2.17c0-2.78,2.26-5.03,5.02-5.03c1.2,0,2.17-0.97,2.17-2.17C253.91,341.88,252.94,340.91,251.74,340.91z
			 M275.42,396.2c-2.77,0-5.02-2.26-5.02-5.03c0-1.2-0.97-2.17-2.17-2.17c-1.19,0-2.16,0.97-2.16,2.17c0,2.77-2.26,5.03-5.03,5.03
			c-1.19,0-2.17,0.97-2.17,2.17s0.97,2.17,2.17,2.17c2.77,0,5.03,2.26,5.03,5.03c0,1.2,0.97,2.17,2.16,2.17
			c1.2,0,2.17-0.97,2.17-2.17c0-2.77,2.26-5.03,5.02-5.03c1.2,0,2.17-0.97,2.17-2.17S276.61,396.2,275.42,396.2z"/>
	</g>
</g>
</svg>
