<?xml version="1.0" encoding="utf-8"?>
<!-- Generator: Adobe Illustrator 29.8.1, SVG Export Plug-In . SVG Version: 9.03 Build 0)  -->
<svg version="1.0" id="Layer_1" xmlns="http://www.w3.org/2000/svg" xmlns:xlink="http://www.w3.org/1999/xlink" x="0px" y="0px"
	 viewBox="0 0 323 550.07" style="enable-background:new 0 0 323 550.07;" xml:space="preserve">
<style type="text/css">
	.st0{clip-path:url(#SVGID_00000175287188443478467860000010182619016238520204_);}
	.st1{fill:#2E2E2E;}
</style>
<g>
	<defs>
		<rect id="SVGID_1_" width="323" height="550"/>
	</defs>
	<clipPath id="SVGID_00000023973009088945210220000012949167022151139486_">
		<use xlink:href="#SVGID_1_"  style="overflow:visible;"/>
	</clipPath>
	<g style="clip-path:url(#SVGID_00000023973009088945210220000012949167022151139486_);">
		<path class="st1" d="M317.59,5.55c-3.51-3.49-8.16-5.4-13.07-5.4H18.48c-4.96,0-9.61,1.9-13.07,5.4C1.91,9.05,0,13.7,0,18.6v512.8
			c0,4.95,1.91,9.6,5.41,13.05c3.51,3.5,8.16,5.4,13.07,5.4h285.99c4.96,0,9.61-1.9,13.07-5.4c3.5-3.5,5.41-8.15,5.41-13.09V18.65
			C323,13.7,321.1,9.05,317.59,5.55z M318.24,275.05v256.4c0,3.8-1.55,7.2-4.01,9.69c-2.51,2.5-5.91,4-9.71,4H18.48
			c-3.81,0-7.21-1.55-9.71-4c-2.51-2.49-4.01-5.9-4.01-9.69V18.65c0-3.8,1.55-7.2,4.01-9.7c2.5-2.5,5.91-4,9.71-4h285.99
			c3.81,0,7.21,1.55,9.71,4c2.51,2.5,4.01,5.9,4.01,9.7L318.24,275.05z M310.29,213.28c0.65-0.55,1-1.45,0.75-2.35
			c-0.1-0.5-0.4-0.95-0.75-1.25V104.42c0.65-0.8,0.75-1.95,0.15-2.85c-0.05-0.05-0.1-0.1-0.15-0.2V18.65c0-1.2-0.35-2.3-1.01-3.3
			c-0.1-0.45-0.35-0.9-0.75-1.25c-0.4-0.35-0.85-0.5-1.3-0.55c-0.85-0.45-1.75-0.7-2.7-0.7H18.43c-1.55,0-3.01,0.6-4.1,1.7
			c-1.1,1.1-1.7,2.55-1.7,4.1v192.12c0,0.05-0.05,0.1-0.05,0.2c-0.1,0.45-0.05,0.9,0.05,1.3v276.99c0.05,2.2,1.85,4,4.06,4h289.35
			c2.26,0,4.21-1.95,4.21-4.2v-66.28c0.45-0.75,0.45-1.65,0-2.45v-90.02c0.05-0.05,0.1-0.1,0.1-0.15c0.55-0.85,0.45-1.9-0.1-2.7V275
			L310.29,213.28z M230.82,17.6l-26.04,45.93c-0.65,1.15-0.25,2.6,0.9,3.25c0.35,0.2,0.75,0.3,1.15,0.3c0.85,0,1.66-0.45,2.05-1.2
			l27.39-48.28h65.94l-63.64,72.47c-0.85,1-0.75,2.5,0.2,3.35c0.45,0.4,1,0.6,1.55,0.6c0.65,0,1.3-0.25,1.8-0.8l63.39-72.07v80.87
			l-49.72,33.79c-1.1,0.75-1.35,2.2-0.65,3.3c0.45,0.7,1.2,1.05,1.95,1.05c0.45,0,0.95-0.15,1.35-0.4l47.02-31.98v101.96l-29.84,6.9
			c-1.3,0.3-2.1,1.6-1.8,2.85c0.25,1.1,1.25,1.85,2.3,1.85c0.2,0,0.35,0,0.55-0.05l28.74-6.65v109.71l-14.17-8.9
			c-1.1-0.7-2.6-0.35-3.3,0.75c-0.7,1.1-0.35,2.6,0.75,3.3l16.72,10.44v85.12l-34.5-37.19c-0.9-0.95-2.4-1-3.35-0.15
			c-0.95,0.9-1,2.4-0.15,3.35l38,40.94c-9.11-8.45-22.58-6.1-30.24-2.85c-9.11-8.85-18.88-13.3-29.04-13.3h-0.05
			c-10.01,0-18.03,4.35-22.68,7.7c-5.1-17.19-7.26-35.34-4.45-38.89c3.91-5,16.12-12.94,23.08-16.54
			c8.46-4.4,20.22-24.99,20.33-25.24c3.3-5.85,17.27-32.84,17.82-33.94c0.1-0.15,2.1-3.7,2.85-6.75c0.6-2.6,0.2-4.49-1.2-5.7
			c-2.05-1.7-4.91-0.75-5.76-0.4c-2.56,0.8-4.81,2.25-6.76,4.05c0.05-8.55-1.4-13.84-4.41-16.09c-1.6-1.25-3.41-1.3-4.51-1
			c-2.91,0.6-4.46,2.8-5.26,5.2c-0.4-0.1-0.8-0.15-1.15-0.15c-1.65-3.45-3.6-7.05-5.91-10.7c-5.11-8.09-12.32-17.04-22.33-24.79
			c12.97-31.24,12.42-54.13-1.7-68.03c-6.41-6.3-12.97-10.4-19.58-12.19c0.6-3,0.91-6.1,0.91-9.2c0-27.34-16.72-44.64-17.43-45.33
			c-0.75-0.75-1.9-0.95-2.8-0.45c-0.95,0.5-1.4,1.55-1.2,2.6c1.65,7.9-0.05,15.14-1.75,19.89c-1.76-4.7-5.06-11.9-11.12-20.94
			c-10.31-15.44-8.81-31.79-8.76-31.99c0.1-1.05-0.45-1.99-1.45-2.45c-0.95-0.4-2.05-0.15-2.76,0.65
			c-0.5,0.6-12.17,14.34-12.77,27.74c-0.25,5.05,0.95,10.09,2.01,14.49c1.95,8.24,2.35,11.44-1.41,12.9c-1.2,0.45-2.1,0.4-3-0.15
			c-3.16-1.9-5.11-9.2-5.61-13.34c-0.1-1-0.85-1.8-1.8-2c-0.95-0.25-1.95,0.15-2.55,0.95c-11.17,15.84-15.37,30.49-13.17,45.89
			c-7.66,1.65-15.22,5.9-22.63,12.84c-15.47,14.49-15.97,37.19-1.6,69.38c-5.26,4.3-10.16,9.15-14.57,14.69
			c-3.26,4.05-5.56,7.74-5.61,7.9c-2.55,4-4.71,7.95-6.56,11.74c-0.45,0-0.85,0.05-1.3,0.2c-0.15,0.05-0.25,0.1-0.4,0.15
			c-0.4-1.55-1.05-3.15-2.1-4.15c-0.8-0.75-1.75-1.2-2.76-1.3c-1.35-0.45-3.7-0.65-5.81,0.9c-3.15,2.25-4.66,7.25-4.56,15.19
			c-1.75-1.45-3.7-2.55-5.81-3.24c-0.55-0.2-3.51-1.15-5.35,0.65c-1.2,1.2-1.41,2.95-0.55,5.25c1.65,4.55,2.65,6.3,2.7,6.35
			c0.6,1.2,14.22,28.89,17.53,34.73c0.1,0.2,11.86,20.84,20.33,25.24c6.96,3.6,19.18,11.55,23.08,16.55
			c3.4,4.3,1.95,19.69-3.31,35.79c-0.05,0.2-0.1,0.4-0.1,0.6c-2.26,1.65-4.06,3.3-5.26,4.55c-7.16-6.65-15.07-9.99-23.43-9.99
			c-13.02,0-23.23,8.05-26.64,11.09c-6.81-2.7-14.92-4.05-21.98-0.15l32.94-35.48c0.9-0.95,0.85-2.45-0.15-3.35
			c-0.95-0.9-2.46-0.85-3.36,0.15l-35.2,37.93v-85.46l17.43-10.9c1.1-0.7,1.45-2.15,0.75-3.3c-0.7-1.1-2.15-1.45-3.31-0.74
			l-14.87,9.29v-110.2l29.49,6.8c0.2,0.05,0.35,0.05,0.55,0.05c1.1,0,2.05-0.75,2.3-1.85c0.3-1.3-0.5-2.55-1.8-2.85l-30.54-7.05
			V107.31l47.72,32.44c0.4,0.3,0.9,0.4,1.35,0.4c0.76,0,1.51-0.35,1.95-1.05c0.75-1.1,0.45-2.55-0.65-3.3l-50.42-34.29V20.35
			l63.99,72.87c0.45,0.55,1.15,0.8,1.8,0.8c0.55,0,1.1-0.2,1.55-0.6c1-0.85,1.1-2.35,0.2-3.35L21.23,17.6h65.94l27.39,48.28
			c0.45,0.75,1.25,1.2,2.05,1.2c0.4,0,0.8-0.1,1.15-0.3c1.15-0.65,1.55-2.1,0.9-3.25L92.63,17.6H230.82z M192.82,411.6
			c-2.01-5.85-6.31-20.59-6.31-39.29c0-20.59,8.06-25.04,17.03-28.14c2.2-0.75,4.01-1.2,5.61-1.6c6.86-1.65,10.71-3.1,22.78-17.14
			c8.21-9.55,13.61-9.55,13.57-9.55c0.1,0,0.25,0,0.35,0c0.15,0,0.4,0,0.6,0.05c-0.05,0.1-0.1,0.25-0.2,0.4
			c-3.16,5.35-16.17,21.09-16.32,21.24c-0.25,0.3-0.4,0.65-0.5,1.05c0,0.05-1.25,5.8-2.95,10.24c-0.5,1.25,0.15,2.6,1.35,3.1
			c1.26,0.45,2.6-0.15,3.1-1.35c1.55-3.99,2.7-8.74,3.06-10.4c1.05-1.25,3.95-4.85,7.16-8.84c0.05,0,0.1-0.05,0.15-0.05
			c1.51-1.05,14.87-10.2,18.58-16.09c0.9-1.45,1.85-3.45,2.95-5.8c0-0.05,0.05-0.05,0.05-0.1c0.25-0.3,0.4-0.65,0.5-1.05
			c3.2-6.8,7.61-15.44,14.32-17.54c0.1,0,0.15-0.05,0.25-0.1c0.15-0.05,0.45-0.15,0.7-0.2c0,0.2-0.05,0.45-0.15,0.75
			c-0.55,2.4-2.35,5.45-2.4,5.6c-0.15,0.3-14.57,28.09-17.78,33.89c-4.41,7.85-13.27,20.69-18.38,23.34
			c-5.61,2.9-19.63,11.44-24.69,17.84c-5.1,6.49-0.45,28.49,3.16,41.28C209.99,406,199.63,408.15,192.82,411.6z M107.7,371.77
			c-5.01-6.4-19.03-14.95-24.69-17.84c-5.1-2.65-13.97-15.49-18.38-23.34c-3.26-5.74-17.27-34.23-17.47-34.64
			c0,0-0.85-1.55-2.3-5.45c7.11,2.4,12.02,12.44,15.32,19.14c1.05,2.2,2,4.1,2.85,5.45c3.51,5.6,16.37,14.59,19.03,16.4
			c3.05,3.9,5.86,7.35,6.81,8.59c0.35,1.65,1.51,6.4,3.06,10.4c0.45,1.24,1.85,1.85,3.1,1.35c1.25-0.5,1.85-1.85,1.35-3.1
			c-1.75-4.45-2.95-10.2-2.95-10.25c-0.1-0.35-0.25-0.7-0.5-1c-0.05-0.1-3.45-4.24-7.16-9.04c-0.1-0.15-0.2-0.3-0.3-0.4
			c-2.9-3.7-5.91-7.65-7.81-10.35c0-0.05-0.05-0.05-0.1-0.1c-0.4-0.55-0.7-1.05-1.01-1.45c0.25-0.15,0.7-0.3,1.05-0.4
			c0.15-0.05,0.3-0.05,0.4-0.1c0.05,0,4.35-0.15,12.92,9.7c12.22,14.04,15.82,15.39,22.83,17.14c1.6,0.4,3.41,0.85,5.56,1.6
			c8.96,3.1,17.03,7.55,17.03,28.14c0,18.19-3.1,32.44-4.66,38.48c-5.81-3.95-11.77-5.7-17.83-5.05c-2.7,0.3-5.21,1-7.46,1.95
			C110.35,394.26,112.71,378.16,107.7,371.77z M59.23,277.9c0.75-0.55,1.5-0.3,1.6-0.25c0.3,0.15,0.65,0.2,0.95,0.2
			c0.6,0.6,1.15,3.25,1.2,5.55c-0.15,1.5-0.25,5.4-0.2,10.15c-0.85,2.65-1.45,5-1.95,7c-1.15-2.05-2.41-4.05-3.81-6
			C55.88,281.55,58.43,278.55,59.23,277.9z M133.84,123.26c1.1,3.99,3.16,8.84,6.71,10.99c2.16,1.3,4.66,1.5,7.16,0.55
			c8.01-2.99,6.16-10.84,4.35-18.44c-1.05-4.3-2.1-8.8-1.9-13.14c0.35-6.95,4.31-14.3,7.51-19.19c0.55,6.8,2.6,17.34,9.51,27.64
			c10.47,15.65,12.27,25.34,12.27,25.44c0.15,1,0.95,1.75,1.9,1.95c1,0.2,1.95-0.25,2.51-1.1c0.25-0.45,5.41-9.05,5.6-20.54
			c4.71,6.99,11.22,19.54,11.22,35.83c0,2.8-0.3,5.6-0.8,8.3c-2.4-0.25-4.81-0.25-7.16,0.05c-3.3,0.45-6.36,1.4-9.21,2.7
			c-0.3-4.95-2.25-9.8-5.76-13.65c-7.56-8.24-9.36-19.24-9.36-19.34c-0.15-0.85-0.7-1.55-1.5-1.85c-0.8-0.3-1.7-0.15-2.35,0.4
			c-4.86,4.1-7.01,11.1-5.31,17.49l0.25,0.95c0.65,2.35,2.15,7.9,0.9,10c-0.15,0.25-0.4,0.55-1.05,0.7c-1.8,0.45-2.45-0.15-2.7-0.35
			c-2.05-1.8-2-7.8-1.65-10.4c0.1-0.85-0.25-1.7-0.95-2.25c-0.7-0.5-1.6-0.6-2.4-0.25c-0.35,0.15-8.26,3.85-10.86,14.3
			c0,0.05-0.4,1.55-0.65,3.49c-2.76-1.1-5.71-1.95-8.81-2.35c-2.26-0.3-4.46-0.35-6.66-0.2
			C122.82,148.4,125.78,136.26,133.84,123.26z M164.03,147.05l-0.25-0.9c-0.85-3.15-0.4-6.5,1.05-9.25
			c1.35,4.45,4.1,11.25,9.41,16.99c3.3,3.6,4.85,8.3,4.51,12.99c-7.61,4.85-13.07,11.65-15.77,15.45
			c-3.05-4.15-9.41-11.6-18.33-16.55c0.1-1.4,0.35-3.1,0.7-4.55c1-4,2.95-6.7,4.66-8.45c0.15,3.25,0.9,7.15,3.41,9.4
			c1.25,1.15,3.51,2.3,7.01,1.45c1.75-0.45,3.15-1.45,4.01-2.95C166.73,156.84,165.03,150.7,164.03,147.05z M163.08,226.92
			c4.21,0,7.41,0.4,7.56,0.4c32.49,2.6,57.18,16.9,73.35,42.54c10.72,16.99,13.92,33.64,14.57,37.39c0,0,0,0.05-0.05,0.05
			c-0.9,1.9-1.7,3.55-2.35,4.75c-1.2-6.7-4.8-21.79-14.67-37.04c-11.67-18.04-34.6-39.43-77.86-40.64c-0.15-0.05-0.35-0.05-0.5-0.05
			c-0.55,0-1.05,0-1.6,0c-0.55,0-1.05,0-1.6,0c-0.15,0-0.35,0-0.51,0.05c-43.26,1.2-66.34,22.69-78.1,40.83
			c-9.52,14.7-13.32,29.19-14.72,36.34c-0.6-1.1-1.25-2.45-2-4c-0.05-0.05-0.05-0.15-0.1-0.2c0.6-3.55,3.86-20.84,15.12-38.33
			c0-0.05,2.25-3.65,5.31-7.45C103.2,238.61,129.53,226.92,163.08,226.92z M262.27,278.05c0.76,0.7,3.1,4.2,2.1,18.24
			c-0.85,1.3-1.65,2.65-2.4,4c-0.45-1.9-1.05-4.1-1.8-6.55c-0.1-5.5-0.45-8.75-0.9-10.65c0-0.05,0-0.05,0-0.05
			c-0.05-1,0.25-4.85,2.25-5.25c0.05,0,0.15-0.05,0.2-0.05C261.77,277.8,261.97,277.8,262.27,278.05z M237.83,313.94
			c-7.31-21.99-26.48-55.53-75.85-55.93c-0.05,0-0.1,0-0.2,0c-0.1,0-0.2,0-0.35,0c-0.1,0-0.2,0-0.35,0c-0.05,0-0.15,0-0.2,0
			c-49.17,0.4-68.4,33.69-75.76,55.68c-1.85-1.25-3.45-1.95-4.71-2.3c7.16-23.34,26.99-59.58,81.02-59.72
			c54.78,0.15,74.05,37.08,80.76,60.18C241.04,312.19,239.54,312.89,237.83,313.94z M161.48,239.17
			c34.05,0.4,59.58,13.24,75.9,38.28c8.92,13.74,12.52,27.64,13.87,34.44c-0.95-0.3-2.3-0.45-3.3-0.5c-0.3-0.1-0.6-0.15-0.9-0.15
			c-6.91-24.29-26.99-63.92-85.07-64.32c-0.05,0-0.1,0-0.2,0c-0.1,0-0.2,0-0.3,0c-0.1,0-0.25,0-0.35,0c-0.05,0-0.15,0-0.2,0
			c-59.83,0.45-79.56,44.48-85.47,64.63c-1.4,0.15-2.91,0.55-4.26,1c1.3-6.7,4.95-20.74,14.02-34.69
			C101.69,252.56,127.33,239.56,161.48,239.17z M120.92,339.68c-2.41-0.8-4.31-1.3-5.96-1.7c-5.76-1.4-8.66-2.15-20.38-15.64
			c-1.95-2.25-3.76-4.1-5.41-5.55c3.66-11.6,10.92-27.14,24.98-38.54c20.98,32.84,46.21,60.28,46.46,60.58
			c0.45,0.5,1.1,0.75,1.76,0.75c0.05,0,0.1,0,0.15-0.05c0.05,0,0.1,0.05,0.15,0.05c0.65,0,1.35-0.3,1.8-0.85
			c0.25-0.3,23.83-28.04,43.51-61.07c14.57,11.49,22.03,27.39,25.74,39.23c-1.7,1.45-3.51,3.2-5.41,5.45
			c-11.66,13.49-14.52,14.19-20.33,15.59c-1.7,0.4-3.6,0.9-6.01,1.7c-12.17,4.15-20.28,11.3-20.28,32.64
			c0,12.34,1.76,22.94,3.61,30.58c-4.71-4.4-10.97-6.99-18.78-7.74c-14.32-1.35-23.48,5-28.74,10.8c1.6-7.65,3.41-19.4,3.41-33.69
			C141.2,350.97,133.09,343.82,120.92,339.68z M17.43,488.52v-58.43l0.15-0.3c2.25-4.45,8.16-16.24,27.14-8.05
			c0.9,0.4,1.95,0.2,2.66-0.5c0.1-0.1,10.71-10.8,24.38-10.8c7.86,0,15.17,3.5,21.93,10.35c0.5,0.49,1.15,0.74,1.85,0.7
			c0.7-0.05,1.35-0.4,1.75-0.95c0.05-0.1,6.96-9.05,17.13-10.05c6.06-0.65,12.17,1.7,18.12,6.9c0.6,0.5,1.35,0.7,2.1,0.55
			c0.75-0.2,1.35-0.7,1.65-1.4c0.1-0.2,7.96-18.59,29.79-16.59c4.21,0.4,17.07,1.6,22.23,16.54c0.25,0.7,0.8,1.25,1.55,1.5
			c0.7,0.25,1.51,0.1,2.1-0.35c0,0,0.05-0.05,0.1-0.05c0.15-0.05,0.3-0.1,0.45-0.15c0.4-0.15,0.75-0.45,0.95-0.75
			c4.3-2.5,16.67-8.15,25.18,3.74c0.4,0.55,1.05,0.95,1.76,1c0.55,0.05,1.1-0.1,1.55-0.45c0.15,0.05,0.35,0.1,0.55,0.1
			c0.25,0,0.5-0.05,0.75-0.1c1.05-0.35,1.7-1.35,1.66-2.45c3.8-2.95,11.56-7.8,21.28-7.8c9.27,0,18.33,4.4,26.84,13.09
			c0.7,0.75,1.85,0.9,2.76,0.45c0.8-0.4,20.23-9.65,29.44,5.05c0.05,0.1,0.15,0.2,0.25,0.3v58.93L17.43,488.52z M92.58,459.28
			c0.5,1.2-0.1,2.6-1.3,3.1c-1.26,0.5-2.6-0.1-3.1-1.3c-0.1-0.25-2.6-5.95-10.77-6.85c-9.71-1.1-12.72,6.8-12.87,7.1
			c-0.25,0.7-0.8,1.2-1.5,1.45c-0.7,0.25-1.45,0.1-2.06-0.3c-6.31-4.2-12.31-5.4-17.87-3.65c-5.86,1.85-9.36,6.4-9.86,7.6
			c-0.25,1.05-1.26,1.8-2.31,1.8c-0.15,0-0.25,0-0.4-0.05c-1.3-0.2-2.2-1.45-1.95-2.75c0.35-2.05,4.51-7.6,10.96-10.4
			c4.85-2.1,12.42-3.3,21.83,2.05c2.51-3.95,7.86-8.65,16.57-7.65C88.97,450.73,92.43,458.93,92.58,459.28z M295.21,465.43
			c0.2,1.3-0.65,2.55-1.95,2.75c-0.15,0-0.25,0.05-0.4,0.05c-1.1,0-2.05-0.75-2.3-1.8c-0.5-1.15-4.06-5.75-9.86-7.6
			c-5.56-1.75-11.57-0.5-17.88,3.65c-0.6,0.4-1.35,0.5-2.05,0.3c-0.7-0.25-1.25-0.75-1.5-1.45c-0.1-0.3-3.21-8.2-12.87-7.1
			c-8.26,0.95-10.71,6.8-10.77,6.85c-0.5,1.2-1.9,1.8-3.1,1.3s-1.8-1.9-1.3-3.1c0.15-0.35,3.6-8.55,14.62-9.8
			c8.66-1,14.07,3.7,16.57,7.65c9.36-5.35,16.97-4.15,21.83-2.05C290.71,457.83,294.86,463.38,295.21,465.43z M214,475.12
			c0.4,1.25-0.35,2.6-1.6,2.95c-1.25,0.35-2.6-0.35-2.95-1.6c0-0.05-2.15-6.75-9.11-10.4c-6.01-3.15-14.02-0.3-14.12-0.25
			c-1.2,0.45-2.51-0.15-3.01-1.3c-0.1-0.2-2.26-4.85-8.01-5.45c-6.16-0.65-11.47,3.95-11.57,4c-0.95,0.8-2.3,0.8-3.2-0.05
			c-0.1-0.1-3.31-2.9-10.42-2.4c-8.76,0.65-10.41,8.65-10.41,8.74c-0.15,0.7-0.55,1.25-1.16,1.6c-0.6,0.35-1.35,0.4-2,0.2
			c-14.77-5.25-20.43,7.3-20.68,7.84c-0.4,0.9-1.26,1.45-2.2,1.45c-0.3,0-0.65-0.05-0.95-0.2c-1.2-0.5-1.76-1.9-1.25-3.1
			c0.05-0.15,6.96-15.79,24.28-11.19c1.7-4.15,5.91-9.5,14.02-10.05c6.16-0.45,10.21,1.25,12.32,2.5c2.45-1.7,7.66-4.6,13.67-4
			c5.86,0.6,9.21,4.15,10.77,6.4c3.31-0.85,10.17-2,16.02,1.1C211.35,466.53,213.9,474.78,214,475.12z M121.52,440.98
			c-6.46-5.84-12.67-8.55-18.53-8.05c-7.21,0.65-11.52,6.15-11.57,6.2c-0.8,1.05-2.3,1.25-3.35,0.45c-1.05-0.8-1.25-2.3-0.45-3.35
			c0.2-0.3,5.51-7.2,14.87-8.05c6.76-0.65,13.72,2,20.68,7.9c3.51-2.6,12.02-7.49,21.98-2.85c1.2,0.55,1.7,2,1.15,3.15
			c-0.55,1.2-1.95,1.7-3.16,1.15c-9.77-4.55-17.97,3.05-18.32,3.4c-0.45,0.45-1.05,0.65-1.66,0.65
			C122.52,441.59,121.97,441.39,121.52,440.98z M231.53,439.14c-0.05-0.1-4.36-5.55-11.57-6.2c-5.81-0.5-12.07,2.2-18.53,8.05
			c-0.45,0.4-1.05,0.6-1.6,0.6c-0.6,0-1.2-0.2-1.65-0.65c-0.35-0.3-8.56-7.95-18.32-3.35c-1.2,0.55-2.6,0.05-3.16-1.15
			c-0.55-1.2-0.05-2.6,1.15-3.15c9.92-4.65,18.43,0.25,21.98,2.85c7.01-5.85,13.92-8.55,20.68-7.9c9.31,0.85,14.62,7.75,14.87,8.05
			c0.8,1.05,0.6,2.55-0.45,3.35C233.83,440.39,232.33,440.19,231.53,439.14z M140.65,34.89c-0.3-0.65-0.35-1.35-0.15-1.99
			c0.2-0.7,0.65-1.2,1.3-1.5c0.65-0.3,1.35-0.35,2-0.15c0.7,0.2,1.2,0.65,1.5,1.3l7.51,14.99l7.51-14.99c0.3-0.65,0.85-1.1,1.51-1.3
			c0.7-0.2,1.35-0.15,2,0.15c0.65,0.3,1.1,0.85,1.3,1.5c0.25,0.7,0.2,1.35-0.15,1.99l-9.86,19.69c-0.2,0.45-0.55,0.8-0.95,1.05
			c-0.4,0.25-0.9,0.4-1.4,0.4s-0.95-0.15-1.4-0.4c-0.4-0.25-0.76-0.6-0.95-1.05L140.65,34.89z M172.79,55.23
			c-0.5-0.5-0.75-1.15-0.75-1.85V33.69c0-0.7,0.25-1.35,0.75-1.85s1.15-0.8,1.85-0.8c0.7,0,1.35,0.25,1.85,0.8
			c0.5,0.5,0.75,1.15,0.75,1.85v19.69c0,0.75-0.25,1.35-0.75,1.85c-0.51,0.5-1.16,0.75-1.85,0.75
			C173.9,56.04,173.29,55.73,172.79,55.23z M54.03,508.01c0.5,0.5,0.75,1.15,0.75,1.85s-0.25,1.35-0.75,1.85
			c-0.5,0.5-1.15,0.75-1.85,0.75h-5.61v17.09c0,0.75-0.25,1.35-0.75,1.85c-0.51,0.5-1.15,0.75-1.85,0.75s-1.35-0.25-1.85-0.75
			s-0.75-1.15-0.75-1.85v-17.09H35.8c-0.75,0-1.35-0.25-1.85-0.75c-0.5-0.5-0.75-1.15-0.75-1.85s0.25-1.35,0.75-1.85
			s1.15-0.8,1.85-0.8h16.42C52.88,507.26,53.47,507.51,54.03,508.01z M80.71,508.01c0.5,0.5,0.75,1.15,0.75,1.85v19.69
			c0,0.75-0.25,1.35-0.75,1.85s-1.15,0.75-1.85,0.75c-0.7,0-1.35-0.25-1.85-0.75s-0.75-1.15-0.75-1.85v-7.2H65.04v7.2
			c0,0.75-0.25,1.35-0.75,1.85s-1.15,0.75-1.85,0.75c-0.75,0-1.35-0.25-1.85-0.75c-0.51-0.5-0.76-1.15-0.76-1.85v-19.69
			c0-0.7,0.25-1.35,0.76-1.85c0.5-0.5,1.15-0.8,1.85-0.8c0.7,0,1.35,0.25,1.85,0.8c0.5,0.5,0.75,1.15,0.75,1.85v7.2h11.22v-7.2
			c0-0.7,0.25-1.35,0.75-1.85s1.15-0.8,1.85-0.8C79.56,507.21,80.16,507.51,80.71,508.01z M93.63,512.51v4.6h10.52
			c0.7,0,1.35,0.25,1.85,0.75s0.75,1.15,0.75,1.85c0,0.7-0.25,1.35-0.75,1.85s-1.15,0.75-1.85,0.75H93.63v4.59h13.82
			c0.7,0,1.35,0.25,1.85,0.75c0.51,0.5,0.76,1.15,0.76,1.85c0,0.75-0.25,1.35-0.76,1.85c-0.5,0.5-1.15,0.74-1.85,0.74H91.03
			c-0.76,0-1.35-0.24-1.85-0.74s-0.75-1.15-0.75-1.85v-19.69c0-0.7,0.25-1.35,0.75-1.85c0.5-0.49,1.15-0.8,1.85-0.8h16.42
			c0.7,0,1.35,0.25,1.85,0.8c0.51,0.5,0.76,1.15,0.76,1.85c0,0.7-0.25,1.35-0.76,1.85c-0.5,0.5-1.15,0.75-1.85,0.75L93.63,512.51z
			 M149.51,527.7c0.5,0.5,0.75,1.15,0.75,1.85c0,0.75-0.25,1.35-0.75,1.85s-1.15,0.75-1.85,0.75h-13.17c-0.75,0-1.35-0.25-1.85-0.75
			s-0.75-1.15-0.75-1.85v-19.69c0-0.7,0.25-1.35,0.75-1.85s1.15-0.8,1.85-0.8s1.35,0.25,1.85,0.8c0.5,0.5,0.75,1.15,0.75,1.85v17.09
			h10.52C148.36,526.95,149.01,527.2,149.51,527.7z M166.43,507.26c-3.45,0-6.41,1.2-8.81,3.65c-2.45,2.45-3.65,5.4-3.65,8.8
			c0,3.45,1.2,6.4,3.65,8.8c2.45,2.45,5.41,3.65,8.81,3.65c3.46,0,6.41-1.2,8.81-3.65c2.45-2.45,3.66-5.4,3.66-8.8
			c0-3.45-1.2-6.4-3.66-8.8C172.79,508.46,169.89,507.26,166.43,507.26z M171.54,524.85c-1.4,1.4-3.16,2.1-5.11,2.1
			s-3.7-0.7-5.1-2.1c-1.4-1.4-2.1-3.1-2.1-5.1s0.7-3.7,2.1-5.1c1.4-1.4,3.1-2.15,5.1-2.15c2.01,0,3.71,0.7,5.11,2.15
			c1.4,1.4,2.1,3.1,2.1,5.1C173.65,521.7,172.94,523.41,171.54,524.85z M207.44,509.06c0.25,0.7,0.2,1.35-0.15,1.99l-9.86,19.69
			c-0.2,0.45-0.55,0.8-0.95,1.05c-0.4,0.25-0.9,0.4-1.4,0.4s-0.95-0.15-1.4-0.4c-0.4-0.25-0.75-0.6-0.95-1.05l-9.86-19.69
			c-0.3-0.65-0.35-1.35-0.15-1.99c0.2-0.7,0.65-1.2,1.3-1.5c0.65-0.3,1.35-0.35,2-0.15c0.7,0.2,1.2,0.65,1.51,1.3l7.51,14.99
			l7.51-14.99c0.3-0.65,0.85-1.1,1.5-1.3c0.7-0.2,1.35-0.15,2,0.15C206.74,507.86,207.19,508.36,207.44,509.06z M217.76,512.51v4.6
			h10.52c0.7,0,1.35,0.25,1.85,0.75c0.5,0.5,0.75,1.15,0.75,1.85c0,0.7-0.25,1.35-0.75,1.85c-0.51,0.5-1.16,0.75-1.85,0.75h-10.52
			v4.59h13.82c0.7,0,1.35,0.25,1.85,0.75s0.75,1.15,0.75,1.85c0,0.75-0.25,1.35-0.75,1.85s-1.15,0.74-1.85,0.74h-16.42
			c-0.75,0-1.35-0.24-1.85-0.74c-0.5-0.5-0.75-1.15-0.75-1.85v-19.69c0-0.7,0.25-1.35,0.75-1.85c0.51-0.49,1.16-0.8,1.85-0.8h16.42
			c0.7,0,1.35,0.25,1.85,0.8c0.5,0.5,0.75,1.15,0.75,1.85c0,0.7-0.25,1.35-0.75,1.85c-0.5,0.5-1.15,0.75-1.85,0.75L217.76,512.51z
			 M260.36,520.96c0.8-1.4,1.2-2.9,1.2-4.5c0-2.55-0.9-4.7-2.7-6.5c-1.8-1.8-3.96-2.7-6.51-2.7h-9.86c-0.75,0-1.35,0.25-1.85,0.8
			c-0.5,0.5-0.75,1.15-0.75,1.85v19.69c0,0.75,0.25,1.35,0.75,1.85s1.15,0.75,1.85,0.75s1.35-0.25,1.85-0.75s0.75-1.15,0.75-1.85
			v-3.95h6.16l5.81,5.8c0.5,0.5,1.15,0.75,1.85,0.75c0.7,0,1.35-0.25,1.85-0.75s0.75-1.15,0.75-1.85c0-0.7-0.25-1.35-0.75-1.85
			l-3.51-3.5C258.56,523.35,259.61,522.31,260.36,520.96z M255.11,519.26c-0.76,0.75-1.7,1.15-2.81,1.15h-7.21v-7.9h7.21
			c1.1,0,2.01,0.4,2.81,1.15c0.8,0.75,1.15,1.7,1.15,2.8C256.31,517.51,255.91,518.46,255.11,519.26z M271.78,513.21
			c-0.45,0.45-0.7,1-0.7,1.6c0,0.65,0.25,1.2,0.7,1.65c0.45,0.45,1,0.65,1.6,0.65h6.56c2.1,0,3.85,0.75,5.35,2.2
			c1.51,1.5,2.2,3.25,2.2,5.35s-0.75,3.85-2.2,5.34c-1.5,1.5-3.25,2.2-5.35,2.2h-11.52c-0.75,0-1.35-0.25-1.85-0.75
			s-0.75-1.15-0.75-1.85c0-0.7,0.25-1.35,0.75-1.85s1.15-0.75,1.85-0.75h11.52c0.65,0,1.15-0.2,1.6-0.65c0.45-0.45,0.7-1,0.7-1.65
			c0-0.65-0.25-1.15-0.7-1.6c-0.45-0.45-1-0.7-1.6-0.7h-6.56c-2.1,0-3.86-0.75-5.36-2.2c-1.51-1.45-2.2-3.25-2.2-5.35
			s0.75-3.85,2.2-5.35c1.5-1.5,3.26-2.2,5.36-2.2h11.52c0.7,0,1.35,0.25,1.85,0.8c0.5,0.5,0.75,1.15,0.75,1.85
			c0,0.7-0.25,1.35-0.75,1.85c-0.5,0.5-1.15,0.75-1.85,0.75h-11.52C272.78,512.51,272.23,512.71,271.78,513.21z"/>
	</g>
</g>
</svg>
