<?xml version="1.0" encoding="utf-8"?>
<!-- Generator: Adobe Illustrator 29.8.1, SVG Export Plug-In . SVG Version: 9.03 Build 0)  -->
<svg version="1.0" id="Layer_1" xmlns="http://www.w3.org/2000/svg" xmlns:xlink="http://www.w3.org/1999/xlink" x="0px" y="0px"
	 viewBox="0 0 328.02 558.81" style="enable-background:new 0 0 328.02 558.81;" xml:space="preserve">
<style type="text/css">
	.st0{clip-path:url(#SVGID_00000044162222188328002060000001273748675978097557_);}
	.st1{fill:currentColor;}
</style>
<g>
	<defs>
		<rect id="SVGID_1_" x="0.02" y="-0.19" width="328" height="559"/>
	</defs>
	<clipPath id="SVGID_00000136408308796359390720000003106230553416117132_">
		<use xlink:href="#SVGID_1_"  style="overflow:visible;"/>
	</clipPath>
	<g style="clip-path:url(#SVGID_00000136408308796359390720000003106230553416117132_);">
		<path class="st1" d="M74.53,516.99c0.52,0.52,0.78,1.15,0.78,1.88s-0.26,1.36-0.78,1.89c-0.54,0.52-1.17,0.78-1.9,0.78h-5.68
			v17.35c0,0.74-0.26,1.38-0.78,1.9c-0.52,0.52-1.15,0.78-1.88,0.78s-1.37-0.26-1.9-0.78c-0.52-0.52-0.78-1.15-0.78-1.9v-17.35
			h-5.67c-0.74,0-1.38-0.26-1.9-0.78c-0.52-0.52-0.78-1.15-0.78-1.89s0.26-1.36,0.78-1.88c0.52-0.53,1.15-0.79,1.9-0.79h16.69
			C73.36,516.2,73.99,516.46,74.53,516.99z M179.68,516.2H163c-0.75,0-1.38,0.26-1.9,0.79c-0.52,0.52-0.78,1.15-0.78,1.88v20.01
			c0,0.74,0.26,1.38,0.78,1.9c0.52,0.52,1.16,0.78,1.9,0.78c0.73,0,1.36-0.26,1.88-0.78c0.52-0.52,0.78-1.15,0.78-1.9v-7.33h10.68
			c0.73,0,1.36-0.26,1.9-0.78c0.52-0.52,0.78-1.15,0.78-1.88c0-0.74-0.26-1.38-0.78-1.9c-0.53-0.52-1.16-0.78-1.9-0.78h-10.68v-4.68
			h14.02c0.73,0,1.37-0.26,1.9-0.78c0.52-0.52,0.78-1.15,0.78-1.89c0-0.73-0.26-1.36-0.78-1.88
			C181.05,516.46,180.42,516.2,179.68,516.2z M101.4,516.2c-0.74,0-1.36,0.26-1.89,0.79c-0.52,0.52-0.78,1.15-0.78,1.88v7.34H87.38
			v-7.34c0-0.73-0.26-1.36-0.78-1.88c-0.52-0.53-1.15-0.79-1.88-0.79c-0.74,0-1.38,0.26-1.9,0.79c-0.52,0.52-0.78,1.15-0.78,1.88
			v20.01c0,0.74,0.26,1.38,0.78,1.9c0.52,0.52,1.15,0.78,1.9,0.78c0.73,0,1.36-0.26,1.88-0.78c0.52-0.52,0.78-1.15,0.78-1.9v-7.33
			h11.36v7.33c0,0.74,0.26,1.38,0.78,1.9c0.52,0.52,1.15,0.78,1.89,0.78s1.36-0.26,1.9-0.78c0.52-0.52,0.78-1.15,0.78-1.9v-20.01
			c0-0.73-0.26-1.36-0.78-1.88C102.77,516.46,102.14,516.2,101.4,516.2z M132.17,521.54c0.74,0,1.37-0.26,1.9-0.78
			c0.52-0.52,0.78-1.15,0.78-1.89s-0.26-1.36-0.78-1.88c-0.53-0.53-1.16-0.79-1.9-0.79h-16.68c-0.74,0-1.38,0.26-1.9,0.79
			c-0.52,0.52-0.78,1.15-0.78,1.88v20.01c0,0.74,0.26,1.38,0.78,1.9c0.52,0.52,1.16,0.78,1.9,0.78h16.68c0.74,0,1.37-0.26,1.9-0.78
			c0.52-0.52,0.78-1.15,0.78-1.9c0-0.73-0.26-1.36-0.78-1.88c-0.53-0.52-1.16-0.78-1.9-0.78h-14.02v-4.67h10.68
			c0.73,0,1.37-0.26,1.9-0.78c0.52-0.52,0.78-1.15,0.78-1.88c0-0.74-0.26-1.38-0.78-1.9c-0.53-0.52-1.17-0.78-1.9-0.78h-10.68v-4.68
			H132.17z M210.07,519.93c2.49,2.47,3.73,5.46,3.73,8.96c0,3.49-1.24,6.48-3.73,8.96c-2.47,2.47-5.46,3.71-8.97,3.71
			c-3.49,0-6.48-1.24-8.97-3.71c-2.47-2.49-3.71-5.47-3.71-8.96c0-3.5,1.24-6.49,3.71-8.96c2.48-2.48,5.47-3.72,8.97-3.72
			C204.6,516.2,207.59,517.44,210.07,519.93z M208.46,528.89c0-2.02-0.72-3.75-2.15-5.18c-1.45-1.45-3.18-2.17-5.21-2.17
			c-2.02,0-3.76,0.72-5.19,2.17c-1.44,1.43-2.15,3.16-2.15,5.18c0,2.02,0.71,3.75,2.15,5.18c1.43,1.43,3.17,2.15,5.19,2.15
			c2.03,0,3.76-0.72,5.21-2.15C207.74,532.64,208.46,530.91,208.46,528.89z M241.51,519.93c2.49,2.47,3.73,5.46,3.73,8.96
			c0,3.49-1.24,6.48-3.73,8.96c-2.47,2.47-5.47,3.71-8.97,3.71c-3.49,0-6.48-1.24-8.97-3.71c-2.47-2.49-3.71-5.47-3.71-8.96
			c0-3.5,1.24-6.49,3.71-8.96c2.48-2.48,5.47-3.72,8.97-3.72C236.04,516.2,239.03,517.44,241.51,519.93z M239.9,528.89
			c0-2.02-0.72-3.75-2.16-5.18c-1.45-1.45-3.18-2.17-5.2-2.17c-2.03,0-3.76,0.72-5.19,2.17c-1.44,1.43-2.16,3.16-2.16,5.18
			c0,2.02,0.72,3.75,2.16,5.18c1.43,1.43,3.16,2.15,5.19,2.15c2.02,0,3.76-0.72,5.2-2.15C239.18,532.64,239.9,530.91,239.9,528.89z
			 M315.06,279.31l0.02,217.45c0,2.29-1.98,4.27-4.28,4.27H17.05c-2.26,0-4.09-1.81-4.13-4.06V18.78c0-1.57,0.61-3.05,1.72-4.16
			s2.59-1.72,4.16-1.72h290.39c1.57,0,3.05,0.61,4.16,1.72s1.72,2.59,1.72,4.16V279.31z M310.21,290.96h-9.9v-25.56h-8.52v-10.07
			h-9.11v8.52H272.6v27.88h-13.37V274.7h-19.18v21.69h-18.8v-34.08h-10.66v28.66h-0.7c3.34,3.4,5.69,5.82,6.26,6.5
			c2.65,3.17-18.09,11.76-26.03,14.47c-0.5,0.17-1.19,0.39-2.06,0.64l-3.02,15.19c6.67,4.12,20.3,13.03,25.88,20.23
			c3.22-4.65,14.53-0.66,8.99,9.49c3.02,3.42,8.8,10.02,12.81,14.93c8.53-4.48,10.99-7.73,11.04-7.81c0.28-0.4,0.7-0.72,1.15-0.89
			c16.95-6.31,55.57-20.23,65.3-19.98L310.21,290.96z M168.76,381.78c0.09,1.89,0.25,4.3,0.43,6.94c0.04,0.59,0.08,1.17,0.11,1.76
			c18.79-3.04,32.97-6.57,43.66-10.03c-1.28-1.27-3.02-2.65-4.77-3.71c-0.39-0.24-0.71-0.56-0.96-0.92
			c-0.99,0.98-1.95,1.61-2.94,1.78c-3.97,0.68-9.7-4.12-7.56-6.97c0.4-0.54,0.78-1.05,1.16-1.56c-8.49-5.09-24.74-18.38-33.27-25.5
			c1.4,9.04,2.92,19.4,3.38,24.18c1.22-0.31,3.33-0.21,4.46,3.52C173.78,375.54,173.12,378.78,168.76,381.78z M157.26,327.96
			l2.22-9.56c-6.97,0.98-14.35,1.68-21.35,1.76c-0.61,2.93-0.75,6.33,0.29,9.92l1.16,3.95c5.56,19,9.28,32.85,9.98,40.2
			c3.64-0.91,9.33-2.48,13.77-4.3c0-0.03-0.01-0.05-0.01-0.07c0-3.73-4.31-31.18-5.98-41.43L157.26,327.96z M163.5,336.3
			c11.48,9.73,29.86,24.58,37.22,28.9c3.61-5.07,5.99-8.88,7.69-12.09c-1.72-5.07-17.72-16.41-28.8-22.98
			c-1.16-0.68-1.53-2.17-0.85-3.32c0.4-0.66,1.06-1.06,1.77-1.15l2.33-11.72c-4.72,1.15-11.11,2.52-18.22,3.69l-2.44,10.51
			C162.42,329.5,162.9,332.5,163.5,336.3z M149.61,44.08c0,3.49,1.24,6.48,3.71,8.96c2.49,2.47,5.48,3.71,8.97,3.71
			c3.5,0,6.49-1.23,8.97-3.71c2.48-2.48,3.73-5.47,3.73-8.96c0-3.5-1.24-6.48-3.73-8.96c-2.47-2.48-5.47-3.73-8.97-3.73
			c-3.49,0-6.48,1.24-8.97,3.73C150.85,37.6,149.61,40.58,149.61,44.08z M17.77,283.03h30.82v13.17h7.56v-27.89H67v-6.19h18.02v6.19
			H98.2v17.81h17.28c7.38-18.48,13.3-38.21,12.85-43.27c-0.97-11.04-0.88-25.32-0.58-33.11c0.04-1.04-2.55,1.01-3.29,1.74
			c-4.61,4.62-14.85,12.97-17.27,15.45c-3.03,3.1-39.45,13.99-40.98,14.45c-0.04,0.01-0.07,0.02-0.11,0.03
			c-1.07,0.21-17.37,3.32-23.77-4.98c-0.06-0.08-0.11-0.16-0.17-0.24l-4.79,2.78c-0.39,0.22-0.8,0.33-1.22,0.33
			c-0.83,0-1.65-0.43-2.09-1.2c-0.67-1.16-0.28-2.64,0.88-3.31l6.12-3.55c1.32-3.47,7.29-5.2,10.03-5.83l103.65-60.2
			c0.84-1.54,1.52-3.1,2.22-4.55c2.67-5.52-4.79-7.71-6.3-12.3c-1.21-3.68,2.81-4.69,2.81-4.69s-0.34-1.16-0.15-1.84
			c0.19-0.68,0.92-1.16,0.92-1.16s-0.09-1.26,0.48-1.55c0.58-0.29,1.51-0.14,1.51-0.14l-0.54-2.67c-0.19-1.16,0.71-1.62,1.36-1.74
			c0.91-0.16,1.92-0.51,4.7-1.21c3.12-0.79,4.48-3.55,6.72-5.44c0.71-2.38,4.04-8.78,18.57-0.22c5.23,3.08,8.41,8.06,9.73,13.1
			l55.91-32.47c1.16-0.67,2.64-0.28,3.31,0.88c0.19,0.32,0.29,0.68,0.31,1.03c2.11,4.43,5.6,12.08,8.21,17.62
			c3.92,8.31,13.32,33.98-7.32,38.71c-18.6,4.26-29.07-5.15-26.43-20.4c1.7-9.81,5.89-19.13,8.66-24.54l-41.95,24.36
			c0.04,3.31-0.73,6.37-2.3,8.58c-4.55,6.44-7.07,11.88-4.07,13.26c2.52,1.16-0.15,3.29-4.07,3.29c-2.84,0-7.07-0.71-10.62-3.38
			l-0.82,1.73c-0.77,2.13,0.69,3.39,1.55,3.48c4.07,0.46,12.69,1.88,19.14,10.58c7.54,10.16,17.92,18.49,19.94,20.07
			c0.23,0.18,0.5,0.26,0.79,0.23c3.46-0.29,26.6-2.22,34.19-2.66c0.16-0.01,0.3-0.05,0.44-0.12c1.44-0.73,10.1-5.06,16.55-7.12
			c7.06-2.26,13.68-4.07,10.59-1.36c-0.71,0.62-1.52,1.18-2.34,1.66c-1.01,0.6-0.55,2.15,0.62,2.12c3.36-0.06,7.23,0.06,9.21,0.73
			c2.87,0.98,2.28,2.19-0.27,2.62c2.3,0.11,4.73,0.62,4.24,2.35c-0.46,1.67-3.86,1.82-6.97,1.6c1.63,0.46,3.09,1.21,3.44,2.46
			c0.42,1.48-2.09,1.57-4.85,1.25c1.27,0.6,2.21,1.49,2.21,2.82c0,3.75-20.95-0.94-24.27-1.7c-0.29-0.07-0.57-0.03-0.83,0.12
			c-3.57,2.08-30.93,17.71-43.29,15.59c-11.34-1.94-27.21-15.16-31.53-18.9c-0.57-0.5-1.45-0.32-1.78,0.36
			c-2.19,4.47-9.24,18.88-12.58,25.32c-3.97,7.69-0.88,16.28,0.89,19.44c1.22,2.19,21.31,22.42,34.41,35.68h0.62v-28.66h20.35v34.08
			h9.11v-21.69h28.87v17.04h3.68v-27.88h10.08v-8.52h18.8v10.07h8.53v25.56h5.06V18.78c0-0.29-0.1-0.53-0.31-0.73
			c-0.1-0.1-0.21-0.18-0.33-0.23c-0.12-0.05-0.26-0.08-0.4-0.08h-86.23c-0.09,3.4-0.46,6.72-1.1,9.96l38.59,10.68
			c1.29,0.36,2.05,1.69,1.69,2.98c-0.3,1.07-1.27,1.78-2.33,1.78c-0.21,0-0.43-0.03-0.65-0.09l-38.43-10.64
			c-1.22,4.32-2.9,8.45-5,12.32l17.84,8.93c1.19,0.6,1.68,2.05,1.08,3.25c-0.42,0.84-1.28,1.33-2.17,1.33
			c-0.36,0-0.73-0.08-1.08-0.26l-18.17-9.09c-2.82,4.31-6.16,8.25-9.95,11.7l21.63,21.99c0.94,0.95,0.93,2.48-0.03,3.42
			c-0.47,0.46-1.09,0.7-1.7,0.7c-0.62,0-1.25-0.24-1.72-0.72l-21.91-22.27c-4.17,3.22-8.76,5.92-13.69,7.97l6.46,17.58
			c0.46,1.26-0.18,2.65-1.44,3.1c-0.28,0.1-0.56,0.15-0.84,0.15c-0.98,0-1.91-0.61-2.27-1.59l-6.45-17.57
			c-5.13,1.67-10.55,2.66-16.18,2.89v27.79c0,1.33-1.08,2.42-2.42,2.42c-1.34,0-2.42-1.08-2.42-2.42V76.24
			c-5.46-0.22-10.73-1.16-15.72-2.73l-6.4,17.42c-0.36,0.98-1.29,1.59-2.28,1.59c-0.28,0-0.56-0.05-0.83-0.15
			c-1.26-0.46-1.9-1.85-1.44-3.1l6.4-17.4c-4.98-2.03-9.63-4.7-13.84-7.92l-21.69,22.05c-0.47,0.48-1.1,0.72-1.72,0.72
			c-0.61,0-1.23-0.23-1.7-0.7c-0.96-0.93-0.97-2.47-0.03-3.42l21.4-21.75c-3.85-3.46-7.24-7.41-10.1-11.75l-17.79,8.9
			c-0.35,0.18-0.72,0.26-1.08,0.26c-0.89,0-1.74-0.49-2.17-1.33c-0.6-1.2-0.11-2.65,1.08-3.25l17.44-8.73
			c-2.14-3.89-3.84-8.04-5.08-12.39L66.78,43.05c-0.22,0.06-0.43,0.09-0.65,0.09c-1.06,0-2.04-0.7-2.33-1.78
			c-0.36-1.29,0.4-2.62,1.69-2.98l38.1-10.55c-0.65-3.28-1.03-6.65-1.12-10.09H18.8c-0.24,0-0.44,0.09-0.62,0.23
			c-0.03,0.03-0.07,0.04-0.1,0.07c-0.2,0.2-0.3,0.44-0.3,0.73V283.03z M248.21,130.88c0.18,0.91,1.51,0.84,1.59-0.08l1.48-16.06
			l-5.66,3.29L248.21,130.88z M56.4,227.92c1.84,0.94,4.17,1.67,6.67,1.28c5.73-0.91,33.53-14.02,35.73-16.73
			c1.07-1.32,7.08-9.43,14.78-17.75L56.4,227.92z M116.58,496.19c-0.51-20.31-15.41-37.23-19.83-41.81l-5.41,20.85
			c-0.38,1.44-1.63,2.41-3.09,2.41c-0.08,0-0.16,0-0.23-0.01c-1.57-0.11-2.79-1.28-2.97-2.83c-0.84-7.23-12.62-24.18-25.89-27.47
			c-10.24-2.55-15.62-6.33-16.44-11.57c-1.28-8.16,9.83-15.29,11.1-16.07c0.08-0.05,0.16-0.1,0.25-0.14
			c0.35-0.17,33.93-15.66,96.47-26.14l-0.42-5.48c-3.04,0.06-5.48-0.62-6.66-2.39c-2.48-3.71-2.35-8.39,1.38-10.06
			c-0.49-7.93-7.22-30.89-9.91-40.09l-1.16-3.97c-1.19-4.11-1.16-7.96-0.58-11.32c-9.87-0.36-18.5-2.26-23.35-6.81
			c0,0-4.99-1.76,3.39-21.65c0.09-0.22,0.19-0.45,0.28-0.68H93.36v-17.81H80.18v-6.2h-8.33v6.2H60.99v27.88H43.74v-13.17H17.77
			v208.33H116.58z M109.63,462.61v-7.79l-7.85-2.18C103.84,454.89,106.71,458.3,109.63,462.61z M126.69,462.76l-5.46-3.11
			c-2.17-1.23-4.43-2.29-6.75-3.19v14.08h-0.11c3.8,7.29,6.84,16.07,7.06,25.66h5.26V462.76z M143.74,472.41
			c-0.2-0.09-0.42-0.15-0.61-0.27l-11.59-6.62v30.67h12.21V472.41z M160.79,454.78l-0.21,0.1c-1.56,0.74-2.75,2.04-3.35,3.66
			l-3.7,9.85c-0.75,1.99-2.33,3.55-4.33,4.28c-0.2,0.07-0.41,0.09-0.61,0.15v23.38h12.21V454.78z M177.84,446.64l-12.21,5.83v43.72
			h12.21V446.64z M194.9,464.26c-1.16-0.58-2.15-1.47-2.84-2.64l-9.21-15.58c-0.04-0.07-0.11-0.12-0.17-0.19v50.34h12.21V464.26z
			 M211.95,447.12l-7.97,14.33c-0.93,1.67-2.45,2.83-4.23,3.3v31.44h12.2L211.95,447.12L211.95,447.12z M229.01,439.07l-9.3-0.66
			c-1.05-0.08-2.08,0.23-2.91,0.84v56.94h12.21V439.07z M246.06,437.51l-12.21,1.53v57.16h12.21V437.51z M263.11,436.4
			c-3.14-0.28-6.3-0.23-9.43,0.16l-2.78,0.35v59.29h12.21V436.4z M266.42,431.91c12.22,1.82,33.32,4.99,43.81,6.81l-0.01-90.16
			c-0.08-0.03-0.16-0.04-0.24-0.07c-3.92-0.88-34.89,9.2-62.73,19.54c-1.11,1.29-4.09,4.2-10.65,7.83c0.58,0.63,1.14,1.44,1.55,2.58
			c2.71,7.45-3.11,12.17-5.6,14.18c-0.39,0.31-0.72,0.57-0.94,0.79c-1.3,1.33-7.07,7.91-9.18,10.32c-0.24,0.28-0.54,0.52-0.86,0.7
			c-8.59,4.78-12.15,5.69-13.87,5.69c-0.66,0-1.05-0.13-1.35-0.23c-1.22-0.42-2.11-1.41-2.39-2.66c-0.28-1.25-0.74-3.32,7.24-11.09
			c0.91-2.59,2.61-7.71,3.41-11.11c-11.09,3.59-25.73,7.21-45.01,10.31c0.73,12.57,0.95,23.19-1.1,25.93
			c-3.66,4.88-12.99,10.58-23.21,14.18c-2.5,0.88-4.64,1.32-6.4,1.32c-1.89,0-3.35-0.51-4.38-1.52c-1.48-1.45-1.83-3.92-0.93-6.59
			c1.37-4.09,15.44-16.35,18.21-18.74l-0.89-11.66c-59.62,10.04-92.37,24.58-94.66,25.62c-2.61,1.66-9.4,6.96-8.74,11.14
			c0.47,2.97,5.03,5.68,12.82,7.61c12.08,3.01,23.49,15.78,27.8,25.71l4.07-15.69c0.49-1.91,1.71-3.5,3.42-4.48
			c1.71-0.98,3.69-1.23,5.6-0.71l9.8,2.72c4.41,1.22,8.66,2.99,12.63,5.26l21.9,12.5c0.62,0.36,1.35,0.42,2.02,0.17
			c0.68-0.24,1.19-0.75,1.44-1.42l3.7-9.85c1.05-2.79,3.11-5.04,5.8-6.32l19.97-9.54c3.12-1.49,6.81-0.38,8.56,2.6l9.21,15.57
			c0.54,0.91,1.36,1,1.77,0.99c0.35-0.01,1.23-0.12,1.74-1.04l11.56-20.79c0.19-0.35,0.42-0.67,0.65-0.98v-0.09h0.06
			c1.87-2.47,4.9-3.88,8.04-3.65l11.7,0.83l21.33-2.66C257.51,431.2,262.01,431.25,266.42,431.91z M280.16,438.86
			c-4.39-0.66-8.58-1.29-12.21-1.83v59.16h12.21V438.86z M294.89,441.13c-3.2-0.5-6.55-1.02-9.89-1.53v56.59h9.89V441.13z
			 M310.23,496.19l-0.01-52.56c-2.76-0.49-6.39-1.08-10.49-1.74v54.3H310.23z M162.3,51.42c2.02,0,3.76-0.72,5.2-2.15
			c1.44-1.44,2.16-3.17,2.16-5.19c0-2.02-0.72-3.75-2.16-5.18c-1.45-1.44-3.18-2.17-5.2-2.17c-2.03,0-3.76,0.72-5.19,2.17
			c-1.44,1.44-2.16,3.16-2.16,5.18c0,2.02,0.72,3.75,2.16,5.19C158.54,50.7,160.27,51.42,162.3,51.42z M327.98,18.78v521.07
			c0,5.02-1.96,9.73-5.51,13.28c-3.55,3.55-8.27,5.5-13.29,5.5H18.8c-5.02,0-9.74-1.95-13.29-5.5S0,544.86,0,539.85V18.78
			C0,13.77,1.96,9.05,5.51,5.5C9.06,1.95,13.78,0,18.8,0h290.39c5.02,0,9.74,1.95,13.29,5.5C326.02,9.05,327.98,13.77,327.98,18.78z
			 M323.14,18.78c0-3.85-1.56-7.33-4.09-9.86c-2.53-2.52-6.01-4.08-9.86-4.08H18.8c-3.85,0-7.34,1.56-9.86,4.08
			c-2.53,2.53-4.09,6.01-4.09,9.86v521.07c0,3.85,1.56,7.33,4.09,9.85c2.53,2.53,6.01,4.08,9.86,4.08h290.39
			c3.85,0,7.34-1.56,9.86-4.08c2.53-2.52,4.09-6.01,4.09-9.85V18.78z M268.65,536.22h-10.68v-17.35c0-0.73-0.26-1.36-0.78-1.88
			c-0.52-0.53-1.15-0.8-1.88-0.8c-0.74,0-1.38,0.27-1.9,0.8c-0.52,0.52-0.78,1.14-0.78,1.88v20.01c0,0.74,0.26,1.38,0.78,1.9
			c0.52,0.52,1.15,0.78,1.9,0.78h13.34c0.73,0,1.37-0.26,1.9-0.78c0.52-0.52,0.78-1.15,0.78-1.9c0-0.73-0.26-1.36-0.78-1.88
			C270.02,536.48,269.39,536.22,268.65,536.22z"/>
	</g>
</g>
</svg>
