<?xml version="1.0" encoding="utf-8"?>
<!-- Generator: Adobe Illustrator 29.8.1, SVG Export Plug-In . SVG Version: 9.03 Build 0)  -->
<svg version="1.0" id="Layer_1" xmlns="http://www.w3.org/2000/svg" xmlns:xlink="http://www.w3.org/1999/xlink" x="0px" y="0px"
	 viewBox="0 0 324.02 551.81" style="enable-background:new 0 0 324.02 551.81;" xml:space="preserve">
<style type="text/css">
	.st0{clip-path:url(#SVGID_00000139994971779199208540000015798615593468496011_);}
	.st1{fill:currentColor;}
</style>
<g>
	<defs>
		<rect id="SVGID_1_" x="0.02" y="-0.19" width="324" height="552"/>
	</defs>
	<clipPath id="SVGID_00000088826964868698213730000017154928346175338921_">
		<use xlink:href="#SVGID_1_"  style="overflow:visible;"/>
	</clipPath>
	<g style="clip-path:url(#SVGID_00000088826964868698213730000017154928346175338921_);">
		<path class="st1" d="M318.54,5.43C315.04,1.93,310.37,0,305.41,0H18.57C13.61,0,8.95,1.93,5.44,5.43C1.93,8.93,0,13.59,0,18.55
			v514.53c0,4.95,1.93,9.61,5.44,13.11c3.51,3.51,8.17,5.43,13.12,5.43h286.84c4.96,0,9.62-1.93,13.13-5.43
			c3.51-3.5,5.44-8.16,5.44-13.11V18.55C323.98,13.59,322.05,8.93,318.54,5.43z M319.19,275.81v257.27c0,3.8-1.54,7.24-4.04,9.73
			c-2.49,2.49-5.94,4.03-9.74,4.03H18.57c-3.8,0-7.25-1.54-9.74-4.03c-2.49-2.49-4.04-5.93-4.04-9.73V18.55
			c0-3.8,1.54-7.24,4.04-9.73c2.49-2.49,5.94-4.03,9.74-4.03h286.84c3.81,0,7.25,1.54,9.74,4.03c2.49,2.49,4.04,5.93,4.04,9.73
			V275.81z M311.21,18.55c0-1.55-0.6-3.01-1.7-4.1c-1.1-1.09-2.56-1.7-4.11-1.7H18.56c-1.55,0-3.01,0.6-4.11,1.7
			c-1.09,1.1-1.7,2.55-1.7,4.1v472.19c0.04,2.22,1.85,4.01,4.08,4.01h290.17c2.26,0,4.22-1.96,4.22-4.21l-0.02-214.72V18.55z
			 M17.54,18.55c0-0.28,0.1-0.53,0.3-0.72c0.2-0.2,0.44-0.3,0.72-0.3H305.4c0.28,0,0.53,0.1,0.72,0.3c0.2,0.2,0.3,0.44,0.3,0.72
			v257.27l0.01,107.47h-55.49c0.87-6.76,1.48-20.02,1.77-27.46l2.7,3.09c0.04,0.04,0.08,0.08,0.12,0.12c0.82,0.81,1.7,1.8,2.12,2.38
			c-0.53,3.88,2.21,10.39,4.64,13.36c2.85,3.49,6.61,7.39,10.43,6.47c1.24-0.3,2.11-0.86,2.69-1.53c0.67-0.07,1.42-0.3,2.21-0.78
			c0.63-0.38,1.09-0.88,1.41-1.42c0.65-0.1,1.33-0.33,2.01-0.72c0.27-0.15,0.51-0.32,0.73-0.49c2.28,2.78,5.32,5.65,8.2,5.65
			c0.54,0,1.08-0.1,1.6-0.32c2.34-0.99,3.12-2.62,3.37-3.81c0.65-3.18-1.67-7.33-7.53-13.46c-0.38-0.52-1.62-2.58-2.62-4.32
			c-0.1-1.3-0.62-2.66-1.74-4.05c-2.79-3.41-7.41-4.35-10.47-4.98c-0.81-0.17-1.89-0.39-2.33-0.56l-1.54-1.89l-15.4-21.04
			c-0.13-13.54-5.92-19.08-8.9-21.02c-0.37-5.23-7.33-12.59-11.29-16.39c-0.34-11.81-10.13-19.66-13.44-21.98
			c-1.57-19.65-16.53-30.05-20.52-32.48c-1.83-6.49-6.65-8.88-9.11-9.69c-0.51-3.15-1.12-6.06-1.69-8.73
			c-0.68-3.19-1.27-5.94-1.53-8.38c-2.83-26.7-18.12-31.39-24.91-32.14c-0.04-0.01-0.07-0.03-0.11-0.04
			c-0.32-0.08-0.64-0.1-0.94-0.06c-0.95-0.06-1.65-0.04-1.98-0.03c-2.4-0.07-24.71-0.02-27.62,29.4
			c-0.43,4.32-1.76,10.74-2.53,14.26c-0.13-0.03-0.26-0.07-0.39-0.09c-0.91-2.09-4.18-8.89-10.11-13.51
			c-0.69-2.84-2.49-6.62-5.92-7.5c-3.4-6.26-20.92-38.69-27.23-53.53c-3.09-7.27-4.22-12.06-5.12-15.91
			c-1.12-4.77-1.94-8.23-5.77-12.27c-0.73-1.2-3.67-5.51-9.17-8.04V93.43c0-0.61-0.24-1.2-0.67-1.65l-0.6-0.63l1.73-1.79
			c0.78-0.8,0.9-2.03,0.29-2.96l-5.32-8.24c-0.44-0.68-1.19-1.09-2.01-1.09c0,0,0,0-0.01,0c-0.81,0-1.56,0.41-2.01,1.09l-5.22,8.03
			c-0.58,0.9-0.5,2.08,0.21,2.89l1.78,2.01l-0.67,0.71c-0.42,0.44-0.66,1.03-0.66,1.65v14.74c-1.39,0.71-2.29,2.19-2.36,4.09
			c-0.07,1.59,0.42,3.36,1.36,4.85c-0.95,0.81-1.79,2-2.26,3.78c-0.21,0.8-0.28,1.85-0.13,2.87c-0.8,0.84-1.41,2.14-1.41,4.04
			c0,1.53,0.48,2.69,1.11,3.54c-0.24,0.82-0.33,1.8-0.15,2.88c0.25,1.49,1.01,2.58,1.71,3.31c-0.02,1.1,0.22,2.58,1.27,3.88
			c0.35,0.44,0.79,0.79,1.27,1.09v21.4c0,0.45,0.12,0.89,0.36,1.27l1.1,1.76l-1.42,1.47c-0.81,0.84-0.9,2.15-0.19,3.09l4.59,6.15
			c0.45,0.6,1.15,0.95,1.91,0.96c0,0,0.01,0,0.02,0c0.74,0,1.44-0.34,1.9-0.93l4.8-6.26c0.77-0.99,0.62-2.41-0.31-3.24l-1.19-1.05
			l1.21-1.93c0.24-0.38,0.36-0.82,0.36-1.27v-18.99l0.35,0.16c2.2,6.68,14.33,43.45,19.58,57.74c-0.04,0.16-0.05,0.33-0.05,0.51
			c0.27,29.9,1.48,52.24,3.61,66.41c1.77,11.79,4.09,17.92,7.53,19.63c0.16,0.35,0.4,0.68,0.73,0.93l0.15,0.11
			c1.41,1.06,2.77,2.06,4.16,2.79c-0.66,9.92-4.29,65.7-4.49,90.11H17.54V18.55z M232.18,383.29l-1.14-7.95
			c-0.19-1.31-1.42-2.21-2.7-2.03c-1.31,0.19-2.22,1.4-2.03,2.71l1.04,7.28h-9.28l-0.35-11.44c-0.04-1.32-1.18-2.4-2.47-2.31
			c-1.32,0.04-2.36,1.14-2.32,2.46l0.35,11.3h-17.26l0.12-11.54c-0.01-0.38-0.55-38.55-0.01-59.39c0.2-7.5,0.1-18.06-0.1-28.56
			c0.02-0.52,0.04-1.03,0.04-1.54c0-0.21-0.04-0.41-0.09-0.6c-0.38-18.09-1.06-35.35-1.07-35.63c-0.01-0.37-0.11-0.73-0.29-1.05
			c-0.48-0.89-0.82-1.66-1.12-2.34c-0.54-1.24-1.15-2.61-2.42-3.41c0.05-2.66-0.07-5.2-0.3-7.64c1.55,1.04,3.28,2.9,3.99,6.14
			c0.15,0.68,0.59,1.27,1.2,1.6c0.17,0.09,15.72,8.66,18.61,26.4c-1.69-0.56-3.68-1-5.46-0.85c-1.32,0.1-2.3,1.26-2.19,2.58
			s1.29,2.3,2.58,2.18c1.89-0.15,5.07,1.08,6.69,1.92c0.64,0.41,10.61,6.89,11.98,16.94c-2.93,0.15-6.49,1.56-8.53,6.14
			c-0.53,1.21,0.01,2.62,1.22,3.16c0.31,0.14,0.65,0.21,0.97,0.21c0.92,0,1.79-0.53,2.19-1.42c1.56-3.49,4.32-3.45,5.54-3.24
			c4.37,4.16,8.17,8.83,9.57,11.58c-1.64,0.18-3.69,0.98-6.07,3.08c-0.99,0.87-1.08,2.38-0.21,3.37c0.47,0.54,1.13,0.81,1.8,0.81
			c0.56,0,1.12-0.19,1.58-0.59c2.42-2.13,3.86-2.05,4.2-1.84c-0.09-0.06-0.14-0.11-0.14-0.11l0.01-0.01
			c0.22,0.19,0.47,0.35,0.75,0.46c0.06,0.03,5.49,2.38,7.07,12.25c-0.31,0.05-0.6,0.16-0.89,0.33c-0.39,0.25-9.57,6.19-11.34,22.45
			c-0.17,1.57-0.36,3.59-0.53,5.9c-0.04,0.21-0.06,0.41-0.04,0.62c-0.1,1.43-0.2,2.96-0.28,4.55c-0.09,0.33-0.1,0.68-0.05,1.02
			c-0.42,9.3-0.3,20.38,1.76,26.09H232.18z M136.02,236.67c-0.01-1.31-1.08-2.38-2.39-2.38c-0.01,0-0.01,0-0.02,0
			c-1.32,0.01-2.39,1.09-2.38,2.41c0.01,0.83,0.56,83.68,0.56,109.51c0,19.78-0.4,32.28-0.59,37.08H119.6
			c0.03-16.76,0.51-35.4,1.42-55.47c0.06-1.32-0.96-2.44-2.28-2.49c-1.28-0.04-2.44,0.96-2.5,2.28c-0.93,20.14-1.4,38.85-1.43,55.69
			H101.8c0.19-23.73,3.66-77.41,4.43-89.06c1.79-0.18,3.76-1.02,6.07-2.86c6.71-5.36,8.45-34.51,8.73-40.3
			c0.07-1.32-0.95-2.44-2.27-2.5c-1.31-0.09-2.44,0.95-2.51,2.27c-0.66,13.5-3.24,33.84-6.94,36.79c-2.78,2.21-4.06,2.34-6.34,0.9
			c5.46-3.91,8.88-17.62,8.88-55.65c0-10.06,0.65-21.18,1.04-27.08c0.44,0.93,0.73,1.97,0.85,2.65c0,0.02,0.02,0.04,0.02,0.06
			c0.01,0.05,0.01,0.09,0.02,0.14c0.02,0.08,2.04,8.24,1.64,25.47c-0.03,1.32,1.02,2.42,2.34,2.45c0.02,0,0.04,0,0.06,0
			c1.3,0,2.36-1.04,2.39-2.34c0.2-8.66-0.19-15.07-0.66-19.46c1.52,1.92,2.67,3.84,3.44,5.3c-0.7,0.41-1.19,1.07-1.16,2.14
			c0.07,2.47,2.39,2.57,5.58,2.7c3.82,0.16,7.89,7.99,9.26,11.77c0.3,0.83,1.04,1.43,1.92,1.55c0.57,0.08,2.62,0.31,4.74-0.03
			c2.63,0.92,5.37,1.94,5.38,1.94c0.28,0.1,0.56,0.16,0.84,0.16c0.97,0,1.88-0.59,2.24-1.55c0.46-1.23-0.16-2.61-1.4-3.08
			c0,0-0.76-0.28-1.85-0.68c1.24-2.02,1.69-4.72,1.76-7.32c2.47,1.85,5.52,3.01,9.32,3.01c2.82,0,5.33-0.68,7.53-1.99
			c-0.7,6.9-0.57,14.79-0.09,22.21c-0.98,0.8-4,2.03-6.7,2.03c-9.76,0-18.59-11.94-18.68-12.06c-0.78-1.07-2.28-1.3-3.34-0.53
			c-1.07,0.78-1.31,2.27-0.53,3.33c0.42,0.57,10.34,14.04,22.55,14.04c1.92,0,4.73-0.55,7.1-1.58c1.01,11.52,2.64,20.82,2.77,21.58
			c0.13,0.73,0.59,1.36,1.25,1.7c0.35,0.18,0.73,0.27,1.11,0.27c0.34,0,0.68-0.07,1.01-0.22c0.73-0.34,7.36-3.79,13.47-19.66
			c1.52-3.95,2.51-7.75,3.15-11.4c0.2,5.45,0.72,20.42,1.03,35.51c-0.39,10.12-4.12,21.54-5.42,25.22
			c-3.82,0.78-15.47,3.01-24.36,3.01c-10.62,0-18.19-2.11-18.27-2.13c-1.28-0.36-2.59,0.38-2.95,1.65
			c-0.36,1.27,0.37,2.59,1.64,2.95c0.33,0.09,8.24,2.32,19.58,2.32c8.37,0,18.68-1.8,23.68-2.78l-0.14,4.75
			c-4.76,0.78-17.2,2.7-24.1,2.7c-8.08,0-13.07-0.72-15.76-1.1c-1.19-0.17-1.98-0.29-2.61-0.29c-1.32,0-2.39,1.07-2.39,2.39
			c0,1.32,1.07,2.39,2.39,2.39c0.29,0,1.09,0.11,1.93,0.23c2.8,0.41,8.01,1.16,16.44,1.16c7.24,0,19.66-1.91,24.67-2.73l5.42,12.54
			c0.03,0.07,0.08,0.12,0.12,0.19c-0.01,17.75,0.24,35.18,0.24,35.4l-0.12,11.54h-55.24c0.19-5.03,0.59-17.54,0.59-37.08
			C136.57,320.36,136.02,237.5,136.02,236.67z M58.88,166.05c-0.02-0.03-0.03-0.06-0.05-0.08l-1.73-2.76v-19.39
			c0.42,0.03,0.84,0.05,1.23,0.05c0.91,0,1.71-0.06,2.34-0.12v19.47L58.88,166.05z M60.22,170.26l-1.52,1.98l-1.49-1.99l1.31-1.35
			c0.05-0.06,0.1-0.12,0.16-0.18c0.12,0.23,0.29,0.44,0.5,0.62L60.22,170.26z M56.68,94.39l1.53-1.6c0.1-0.1,0.18-0.2,0.26-0.31
			c0.07,0.11,0.16,0.22,0.26,0.32l1.53,1.6v13.54c-1.11-0.21-2.31-0.31-3.57-0.34V94.39z M56.24,87.27l2.21-3.41l2.29,3.54
			l-2.02,2.07c-0.1,0.1-0.19,0.21-0.27,0.33c-0.06-0.08-0.12-0.17-0.19-0.24L56.24,87.27z M51.99,127.08
			c0.91-0.2,1.64-0.93,1.82-1.87c0.15-0.74-0.07-1.5-0.56-2.04c-0.05-0.27-0.08-0.71,0.02-1.08c0.36-1.42,1.07-1.63,1.39-1.63h0.01
			c0.15,0.02,0.29,0.02,0.43,0.01c3.27-0.25,6.21,0.67,6.32,1.37c0.03,0.16,0.09,0.52-0.16,0.69c-0.91,0.48-1.41,1.49-1.23,2.51
			s0.97,1.8,1.99,1.96c0.3,0.05,0.36,0.14,0.38,0.16c0.14,0.21,0.21,0.76,0.09,1.3c-0.03,0.14-0.06,0.24-0.09,0.33
			c-0.84,0.31-1.46,1.08-1.55,2.02c-0.1,1.09,0.54,2.09,1.54,2.46c0.01,0.16,0.02,0.33,0.02,0.44v0.01
			c-0.07,0.14-0.21,0.36-0.32,0.51c-0.53,0.68-0.66,1.59-0.32,2.39c0.15,0.36,0.39,0.68,0.68,0.93c-0.05,0.19-0.12,0.42-0.23,0.66
			c-0.2,0.25-1.09,0.64-1.66,0.76c-2.42,0.31-5.29,0.04-5.8-0.55c-0.27-0.33-0.22-1.01-0.17-1.24c0.29-1.05-0.17-2.16-1.11-2.7
			c-0.01-0.01-0.6-0.42-0.7-1.02c-0.1-0.59,0.06-0.87,0.04-0.87c0.81-0.53,1.33-1.33,1.14-2.29c-0.19-0.95-0.84-1.52-1.8-1.7
			c-0.08-0.05-0.27-0.21-0.27-0.78C51.89,127.4,51.95,127.18,51.99,127.08z M66.94,135.27c0.17-0.48,0.28-1,0.26-1.53l-0.01-0.19
			c-0.04-1.09-0.22-1.94-0.5-2.61c0.18-0.4,0.34-0.86,0.46-1.39c0.43-1.82,0.14-3.71-0.78-5.07c-0.14-0.2-0.29-0.4-0.45-0.58
			c0.29-0.8,0.41-1.75,0.23-2.85c-0.71-4.28-6.03-5.4-9.93-5.4c-0.77-0.24-1.27-1.04-1.46-1.4c-0.38-0.74-0.47-1.43-0.45-1.82
			c10.83-1.08,15.67,7.3,15.87,7.65c0.1,0.19,0.23,0.36,0.38,0.52c3.08,3.17,3.67,5.68,4.74,10.24c0.81,3.46,1.92,8.11,4.54,14.66
			l-7.11,5.33c-1.62-4.91-2.68-8.11-2.72-8.23c-0.2-0.62-0.66-1.14-1.26-1.42l-2.19-1.02C66.96,139.31,67.79,137.11,66.94,135.27z
			 M81.79,150.03c7.36,16.46,23.92,46.99,26.57,51.87c-0.25,3.35-1.3,18.02-1.3,30.98c0,2.5-0.02,4.88-0.05,7.15
			c-2.49-5.45-5.91-12.96-8.97-19.79c0,0,0,0,0-0.01c-3.2-7.12-6.02-13.49-6.99-15.97c-3.05-7.76-11.5-32.96-16.71-48.65
			L81.79,150.03z M93.62,222.08c0.32,2.89,2.32,21.32,3.39,39.69c0.7,7.7,2.17,17.06,5.21,20.04c-1.16,2.42-2.4,3.28-3.57,3.28
			c-0.76-0.22-7.15-4.09-8.39-70.52C91.28,216.87,92.42,219.42,93.62,222.08z M145,200.85c3.32,0.39,8.32,0.84,13.68,0.84
			c5.48,0,10.8-0.45,14.31-0.83c-0.31,10.39-2.65,25.02-13.37,25.02C147.49,225.88,145.37,207.98,145,200.85z M271.64,355.7
			c2.68,0.55,6.02,1.23,7.72,3.32c1.3,1.59,0.71,3.19-2.26,6.1c-0.29,0.28-0.53,0.52-0.7,0.71c-1.19,1.31-2.15,1.68-2.44,1.77
			c-0.28-0.09-0.59-0.28-0.66-0.39c0-0.01-0.06-0.87,1.89-2.82c0.67-0.68,0.84-1.7,0.48-2.59c-0.36-0.89-1.26-1.47-2.21-1.49
			c-0.06,0-1.6-0.04-3.77-1.72c-1.05-0.81-2.55-0.62-3.36,0.42c-0.81,1.04-0.62,2.54,0.42,3.35c0.95,0.73,1.85,1.28,2.68,1.67
			c-1,1.79-1.19,3.46-0.54,5.01c0.99,2.38,3.73,3.36,4.98,3.36c1.46,0,3.83-0.88,6.08-3.36c0.12-0.14,0.3-0.31,0.51-0.51
			c0.55-0.55,1.46-1.44,2.3-2.58c0.41,0.66,0.78,1.21,0.99,1.48c0.04,0.05,0.08,0.1,0.12,0.15c6.64,6.92,6.43,9.06,6.39,9.28
			c-0.02,0.07-0.17,0.19-0.4,0.3c-1.12-0.29-3.99-3.15-6.03-6.06c-0.49-0.7-1.32-1.07-2.17-1c-0.85,0.07-1.6,0.61-1.96,1.38
			c-0.1,0.22-0.5,0.86-1.04,1.17c-0.32,0.19-0.56,0.17-0.55,0.19c-0.81-0.43-1.67-0.46-2.41,0.07c-0.64,0.46-0.91,1.12-0.88,1.86
			c-0.55-0.17-1.17-0.12-1.73,0.12c-0.93,0.39-1.51,1.45-1.45,2.46l-0.04-0.77c-0.03-0.01-1.54,0.14-5.61-4.85
			c-2.41-2.94-3.98-8.56-3.59-9.78c0.39-1.12,0.41-2.45-3.45-6.28l-0.33-0.39l5.36-5.12l0.96,1.31l1.78,2.18
			C267.73,354.9,269.37,355.24,271.64,355.7z M255.48,351.72l-12.85-14.7c1.63-4.4,3.8-7.18,5.33-8.73l13.18,18.01L255.48,351.72z
			 M17.54,489.97V388.07h288.9l0.01,101.91H17.54z M123.15,292.07c0,0.05-0.56,5.14-1.63,25.73c-0.07,1.28-1.12,2.27-2.39,2.27
			c-0.04,0-0.08,0-0.12-0.01c-1.32-0.07-2.33-1.19-2.27-2.51c1.09-20.85,1.64-25.82,1.66-26.02c0.15-1.31,1.32-2.26,2.64-2.11
			C122.35,289.58,123.3,290.77,123.15,292.07z M199.25,257.69c-0.3-0.94,0.02-2,0.85-2.62c1.05-0.79,2.56-0.58,3.35,0.48
			c1.59,2.11,1.55,40.17,1.42,48.17c-0.02,1.31-1.09,2.35-2.4,2.35c-0.01,0-0.03,0-0.04,0c-1.32-0.02-2.38-1.1-2.35-2.43
			C200.44,281.17,199.62,260.16,199.25,257.69z M204.96,315.39c-0.01,0.29-0.52,29.39-0.52,34.04c0,1.32-1.07,2.39-2.4,2.39
			c-1.32,0-2.39-1.07-2.39-2.39c0-4.69,0.49-32.92,0.52-34.12c0.02-1.31,1.09-2.35,2.39-2.35c0.02,0,0.03,0,0.04,0
			C203.93,312.98,204.98,314.07,204.96,315.39z M218.95,304.38c-0.04,0.09-1.63,4.12-1.55,9.96c0.02,1.32-1.04,2.41-2.35,2.42
			c-0.02,0-0.03,0-0.04,0c-1.31,0-2.38-1.04-2.4-2.35c-0.1-6.91,1.82-11.65,1.91-11.84c0.51-1.22,1.9-1.8,3.12-1.3
			C218.87,301.77,219.45,303.16,218.95,304.38z M217.29,324.55v36.66c0,1.32-1.07,2.39-2.4,2.39c-1.32,0-2.39-1.07-2.39-2.39v-36.66
			c0-1.32,1.07-2.39,2.39-2.39C216.21,322.16,217.29,323.23,217.29,324.55z M232.01,325.44c-0.02,0.09-1.36,9.2-1.36,37.72
			c0,1.32-1.07,2.39-2.4,2.39c-1.32,0-2.39-1.07-2.39-2.39c0-29.04,1.36-38.08,1.42-38.45c0.2-1.3,1.43-2.19,2.73-1.99
			C231.32,322.92,232.21,324.14,232.01,325.44z M163.87,218.84c0.4,1.26-0.29,2.6-1.55,3.01c-1.1,0.35-2.13,0.47-3.03,0.47
			c-1.73,0-2.95-0.45-3.14-0.52c-1.23-0.47-1.84-1.86-1.37-3.09c0.48-1.22,1.85-1.83,3.07-1.38c0.08,0.03,1.43,0.47,3.01-0.04
			C162.12,216.89,163.46,217.58,163.87,218.84z M152.55,209.1c-1.91,0-3.36-0.72-3.59-0.84c-1.17-0.61-1.62-2.06-1.01-3.23
			c0.62-1.17,2.06-1.61,3.23-1.01c0,0,1.34,0.64,2.47,0.03c1.16-0.62,2.61-0.18,3.23,0.98c0.62,1.16,0.18,2.61-0.98,3.23
			C154.73,208.9,153.58,209.1,152.55,209.1z M161.15,205.03c0.62-1.17,2.06-1.61,3.23-1.01c0,0,1.34,0.64,2.47,0.03
			c1.16-0.62,2.61-0.18,3.24,0.98c0.62,1.16,0.18,2.61-0.99,3.23c-1.17,0.62-2.32,0.83-3.35,0.83c-1.91,0-3.37-0.72-3.6-0.84
			C160.99,207.65,160.54,206.2,161.15,205.03z M159.05,210.86c1.09-0.26,2.27,0.29,2.74,1.36c0.54,1.2-0.01,2.61-1.21,3.15
			c-0.22,0.1-0.81,0.32-1.53,0.32c-0.72,0-1.31-0.22-1.53-0.32c-1.21-0.54-1.76-1.95-1.22-3.15
			C156.79,211.15,157.95,210.6,159.05,210.86z M226.48,458.76c-0.01-0.07-0.02-0.15-0.03-0.22c-0.01-0.07-0.04-0.15-0.06-0.22
			c-0.03-0.07-0.05-0.15-0.08-0.22c-0.01-0.03-0.02-0.05-0.03-0.07c-0.02-0.05-0.05-0.09-0.07-0.13c-0.04-0.07-0.08-0.15-0.12-0.22
			c-0.04-0.06-0.09-0.11-0.14-0.17c-0.05-0.07-0.1-0.13-0.16-0.19c-0.05-0.05-0.11-0.1-0.17-0.15c-0.06-0.05-0.12-0.1-0.19-0.15
			c-0.07-0.05-0.14-0.08-0.2-0.12c-0.05-0.03-0.09-0.06-0.14-0.08l-9.54-4.3c-0.31-0.14-0.65-0.21-0.98-0.21H135.3
			c0.21-3.6,0.59-6.8,1.39-10.19c0.2-0.85-0.08-1.74-0.73-2.32c-0.65-0.58-1.57-0.77-2.39-0.48c-5.13,1.79-8.17,6.36-8.76,12.99
			h-15.74c-0.01-0.01-0.01-0.03-0.02-0.04l-2.19-2.73c-0.61-0.76-1.62-1.08-2.56-0.8c-0.26,0.08-6.25,1.97-6.25,10.29
			c0,8.36,6.23,10.13,6.5,10.2c0.21,0.06,0.42,0.08,0.62,0.08c0.72,0,1.41-0.32,1.87-0.9l2.19-2.73h15.63
			c0.92,12.32,8.9,13.29,9.26,13.32c0.08,0.01,0.16,0.01,0.24,0.01c0.66,0,1.29-0.27,1.74-0.75c0.51-0.54,0.74-1.29,0.62-2.02
			l-0.18-1.15c-0.6-3.71-1.05-6.54-1.3-9.41h79.32c0.34,0,0.67-0.07,0.98-0.21l9.54-4.29c0.08-0.04,0.15-0.08,0.21-0.12
			c0.04-0.03,0.09-0.05,0.13-0.07c0.17-0.11,0.32-0.24,0.45-0.39c0.02-0.03,0.04-0.05,0.06-0.08c0.11-0.14,0.21-0.3,0.3-0.46
			c0.01-0.03,0.03-0.05,0.04-0.07c0.01-0.02,0.02-0.05,0.03-0.07c0.03-0.08,0.06-0.16,0.08-0.24c0.02-0.07,0.05-0.14,0.06-0.21
			c0.02-0.08,0.02-0.16,0.03-0.24c0.01-0.07,0.02-0.15,0.02-0.22C226.49,458.92,226.48,458.84,226.48,458.76z M214.05,460.9h-79.01
			c0-0.45-0.01-0.9,0.01-1.37c0.02-0.84,0.04-1.65,0.06-2.44h78.94l4.23,1.91L214.05,460.9z M265.19,412.56
			c-15.24,0-27.64,12.39-27.64,27.6c0,15.22,12.4,27.61,27.64,27.61c15.24,0,27.64-12.39,27.64-27.61
			C292.83,424.95,280.43,412.56,265.19,412.56z M286.44,431.82c-0.27-0.11-0.56-0.18-0.86-0.18h-13.72l-4.24-13.04
			c-0.16-0.48-0.47-0.89-0.86-1.18C275.72,418.03,283.28,423.82,286.44,431.82z M278.21,436.42l-3.89,2.82l-0.92-2.82H278.21z
			 M260.41,442.2l1.88-5.78h6.08l1.88,5.78l-4.92,3.57L260.41,442.2z M261.26,448.72l-3.89,2.82l1.48-4.57L261.26,448.72z
			 M265.33,427.08l1.48,4.57h-2.97L265.33,427.08z M271.8,446.97l1.48,4.57l-3.89-2.82L271.8,446.97z M263.94,417.41
			c-0.41,0.29-0.72,0.7-0.88,1.2l-4.24,13.04h-13.72c-0.45,0-0.86,0.14-1.22,0.36C247.03,423.82,254.76,417.91,263.94,417.41z
			 M257.26,436.42l-0.92,2.82l-3.89-2.82H257.26z M242.33,440.17c0-1.77,0.22-3.49,0.61-5.15c0.17,0.36,0.4,0.7,0.74,0.95l11.1,8.05
			l-4.24,13.04c-0.06,0.18-0.07,0.36-0.08,0.54C245.5,453.41,242.33,447.15,242.33,440.17z M253.82,459.94
			c0.14-0.06,0.29-0.11,0.41-0.21l11.1-8.06l11.1,8.06c0.08,0.06,0.17,0.08,0.26,0.13c-3.39,1.98-7.31,3.14-11.51,3.14
			C261.05,462.99,257.17,461.87,253.82,459.94z M280.17,457.37c-0.02-0.1-0.02-0.21-0.05-0.31l-4.24-13.04l11.1-8.05
			c0.22-0.16,0.4-0.35,0.55-0.57c0.33,1.54,0.51,3.14,0.51,4.77C288.04,447.03,284.98,453.18,280.17,457.37z M109.46,426.47
			c5.59-0.79,11.86-0.89,15.84-0.85l-1.26,2.15c-0.33,0.57-0.42,1.24-0.23,1.88c0.19,0.63,0.62,1.16,1.21,1.46l5.86,2.98
			c0.34,0.18,0.72,0.26,1.08,0.26c0.65,0,1.29-0.26,1.75-0.76l6.28-6.71c9.32-0.1,78.86-0.83,80.58-0.83c2.6,0,5.08-2.39,5.43-5.22
			c0.27-2.18-0.84-5.08-4.85-6.07c-5.17-1.28-57-3.18-67.18-3.54l-5.43-7.18c-0.75-0.99-2.12-1.24-3.18-0.59l-5.92,3.69
			c-0.55,0.35-0.94,0.9-1.08,1.54c-0.12,0.59-0.02,1.2,0.29,1.72c-9.62-0.61-30.45-1.95-34.67-2.28c-0.02,0-0.04,0-0.05,0
			c-2.43-0.14-7.37,0.98-8.58,6.23c-0.69,2.98-1.31,7.28,1.26,10.07C99.36,427.44,104.41,427.19,109.46,426.47z M100.02,415.44
			c0.57-2.48,3.12-2.56,3.65-2.54c5.69,0.44,39.26,2.57,39.59,2.59c0.92,0.05,1.78-0.41,2.23-1.21c0.45-0.79,0.41-1.78-0.11-2.53
			l-1.28-1.87l1.94-1.21l4.8,6.34c0.44,0.58,1.11,0.93,1.83,0.95c25.03,0.88,63.61,2.52,67.34,3.44c0.12,0.03,1.25,0.32,1.26,0.76
			c0,0.48-0.5,1.05-0.68,1.1c-1.85,0-78.4,0.8-81.66,0.84c-0.65,0.01-1.28,0.28-1.72,0.76l-5.74,6.14l-2-1.02l2.03-3.46
			c0.43-0.72,0.44-1.61,0.04-2.35c-0.4-0.73-1.15-1.21-1.98-1.25c-0.46-0.02-11.33-0.54-20.75,0.8c-1.79,0.25-7.22,1.02-8.65-0.54
			C99.39,420.39,99.34,418.34,100.02,415.44z M77.46,411.95c-0.07-1.36-0.14-2.55-0.14-3.52c0-1.32-1.07-2.39-2.4-2.39H39.18
			c-0.01,0-0.02,0-0.03,0.01c-0.02,0-0.03-0.01-0.04-0.01c-1.32,0-2.39,1.07-2.39,2.39c0,0.96-0.07,2.16-0.14,3.52
			c-0.36,7-0.98,18.71,5.56,25.6c1.85,1.95,4.16,3.36,6.86,4.26l-0.89,2.28c-0.31,0.79-0.18,1.67,0.34,2.33l3.16,4.05l-1.34,16.9
			h-9.39c-1.32,0-2.39,1.07-2.39,2.39v2.47c0,1.32,1.07,2.39,2.39,2.39H57c0.01,0,0.02-0.01,0.02-0.01c0.01,0,0.01,0.01,0.02,0.01
			h16.1c1.32,0,2.4-1.07,2.4-2.39v-2.47c0-1.32-1.07-2.39-2.4-2.39h-9.38l-1.34-16.9l3.16-4.05c0.52-0.66,0.65-1.55,0.35-2.33
			l-0.89-2.28c2.7-0.9,5.01-2.31,6.86-4.26C78.45,430.66,77.83,418.95,77.46,411.95z M72.68,412.2c0.04,0.74,0.08,1.54,0.12,2.35
			H41.24c0.04-0.82,0.08-1.61,0.11-2.35c0.03-0.48,0.05-0.94,0.07-1.38h31.18C72.63,411.26,72.66,411.72,72.68,412.2z M57.75,452.12
			l1.22,15.26h-3.9l1.22-15.26H57.75z M60.97,444.55l-2.18,2.79h-3.55l-2.18-2.79l0.68-1.74c0.94,0.09,1.91,0.16,2.92,0.16
			c0.12,0,0.24-0.02,0.35-0.04c0.11,0.02,0.23,0.04,0.35,0.04c1.02,0,1.98-0.07,2.92-0.16L60.97,444.55z M57.38,438.18
			c-0.12,0-0.24,0.02-0.35,0.04c-0.12-0.02-0.23-0.04-0.35-0.04c-4.93,0-8.55-1.28-11.06-3.92c-3.49-3.68-4.36-9.49-4.45-14.93
			h31.72c-0.09,5.44-0.96,11.26-4.45,14.93C65.93,436.9,62.31,438.18,57.38,438.18z M135.76,157.98c0,3.44,2.18,6.33,5.82,7.74
			c1.47,0.57,3.22,0.89,5.11,0.89c4.14,0,8.97-1.52,13.2-5.28c4.23,3.76,9.06,5.28,13.2,5.28c1.89,0,3.64-0.32,5.11-0.89
			c3.65-1.41,5.82-4.31,5.82-7.74s-2.17-6.34-5.82-7.75c-4.69-1.81-12.14-1.07-18.31,4.42c-6.17-5.48-13.61-6.23-18.31-4.42
			C137.93,151.64,135.76,154.54,135.76,157.98z M176.46,154.69c1.04,0.4,2.77,1.36,2.77,3.29s-1.73,2.89-2.77,3.29
			c-3.36,1.3-8.69,0.49-13.14-3.29C167.78,154.19,173.1,153.39,176.46,154.69z M143.31,154.69c3.35-1.3,8.68-0.49,13.13,3.29
			c-4.45,3.78-9.77,4.59-13.14,3.29c-1.03-0.4-2.77-1.36-2.77-3.29S142.28,155.09,143.31,154.69z M159.6,56.58V31.38
			c0-1.32,1.07-2.39,2.39-2.39c1.32,0,2.4,1.07,2.4,2.39v25.21c0,1.32-1.07,2.39-2.4,2.39C160.67,58.97,159.6,57.9,159.6,56.58z
			 M126.89,101.96c0,1.21-0.99,2.2-2.21,2.2c-2.82,0-5.11,2.29-5.11,5.11c0,1.22-0.99,2.2-2.21,2.2s-2.21-0.98-2.21-2.2
			c0-2.82-2.3-5.11-5.11-5.11c-1.22,0-2.21-0.99-2.21-2.2c0-1.22,0.99-2.21,2.21-2.21c2.82,0,5.11-2.29,5.11-5.11
			c0-1.22,0.99-2.2,2.21-2.2s2.21,0.98,2.21,2.2c0,2.82,2.29,5.11,5.11,5.11C125.9,99.76,126.89,100.74,126.89,101.96z
			 M217.67,101.96c0,1.21-0.99,2.2-2.21,2.2c-2.82,0-5.11,2.29-5.11,5.11c0,1.22-0.99,2.2-2.21,2.2s-2.21-0.98-2.21-2.2
			c0-2.82-2.3-5.11-5.11-5.11c-1.22,0-2.21-0.99-2.21-2.2c0-1.22,0.99-2.21,2.21-2.21c2.82,0,5.11-2.29,5.11-5.11
			c0-1.22,0.99-2.2,2.21-2.2s2.21,0.98,2.21,2.2c0,2.82,2.29,5.11,5.11,5.11C216.68,99.76,217.67,100.74,217.67,101.96z
			 M266.13,155.6c0-2.82-2.3-5.11-5.11-5.11c-1.22,0-2.21-0.99-2.21-2.21c0-1.21,0.99-2.2,2.21-2.2c2.82,0,5.11-2.29,5.11-5.11
			c0-1.22,0.99-2.2,2.21-2.2s2.21,0.98,2.21,2.2c0,2.82,2.29,5.11,5.11,5.11c1.22,0,2.21,0.99,2.21,2.2c0,1.22-0.99,2.21-2.21,2.21
			c-2.82,0-5.11,2.29-5.11,5.11c0,1.21-0.99,2.2-2.21,2.2S266.13,156.82,266.13,155.6z M241.88,211.94c0,1.22-0.99,2.21-2.21,2.21
			c-2.82,0-5.11,2.29-5.11,5.1c0,1.22-0.99,2.21-2.21,2.21s-2.21-0.99-2.21-2.21c0-2.81-2.3-5.1-5.11-5.1
			c-1.22,0-2.21-0.99-2.21-2.21s0.99-2.2,2.21-2.2c2.82,0,5.11-2.29,5.11-5.11c0-1.22,0.99-2.2,2.21-2.2s2.21,0.98,2.21,2.2
			c0,2.82,2.29,5.11,5.11,5.11C240.89,209.74,241.88,210.72,241.88,211.94z M46.31,240.7c1.22,0,2.21,0.98,2.21,2.2
			c0,2.82,2.3,5.11,5.11,5.11c1.22,0,2.21,0.99,2.21,2.2c0,1.22-0.99,2.21-2.21,2.21c-2.82,0-5.11,2.29-5.11,5.11
			c0,1.21-0.99,2.2-2.21,2.2s-2.21-0.99-2.21-2.2c0-2.82-2.29-5.11-5.11-5.11c-1.22,0-2.21-0.99-2.21-2.21c0-1.21,0.99-2.2,2.21-2.2
			c2.82,0,5.11-2.29,5.11-5.11C44.1,241.69,45.09,240.7,46.31,240.7z M56.35,325.51c0-1.22,0.99-2.21,2.21-2.21
			c2.82,0,5.11-2.29,5.11-5.11c0-1.22,0.99-2.2,2.21-2.2s2.21,0.98,2.21,2.2c0,2.82,2.29,5.11,5.11,5.11c1.22,0,2.21,0.99,2.21,2.21
			c0,1.21-0.99,2.2-2.21,2.2c-2.82,0-5.11,2.29-5.11,5.11c0,1.22-0.99,2.2-2.21,2.2s-2.21-0.98-2.21-2.2c0-2.82-2.3-5.11-5.11-5.11
			C57.34,327.71,56.35,326.72,56.35,325.51z M284.68,274.76c0,1.22-0.99,2.21-2.21,2.21c-2.82,0-5.11,2.29-5.11,5.11
			c0,1.21-0.99,2.2-2.21,2.2s-2.21-0.99-2.21-2.2c0-2.82-2.3-5.11-5.11-5.11c-1.22,0-2.21-0.99-2.21-2.21c0-1.21,0.99-2.2,2.21-2.2
			c2.82,0,5.11-2.29,5.11-5.11c0-1.22,0.99-2.2,2.21-2.2s2.21,0.98,2.21,2.2c0,2.82,2.29,5.11,5.11,5.11
			C283.69,272.55,284.68,273.54,284.68,274.76z M37.15,509.53c0.51,0.52,0.77,1.14,0.77,1.86c0,0.72-0.26,1.34-0.77,1.85
			c-0.53,0.52-1.15,0.77-1.88,0.77h-5.61v17.13c0,0.74-0.26,1.36-0.77,1.88c-0.51,0.51-1.14,0.77-1.86,0.77
			c-0.72,0-1.35-0.26-1.88-0.77c-0.52-0.52-0.77-1.14-0.77-1.88v-17.13h-5.59c-0.74,0-1.36-0.26-1.88-0.77
			c-0.52-0.51-0.77-1.13-0.77-1.85c0-0.72,0.26-1.34,0.77-1.86c0.51-0.52,1.14-0.78,1.88-0.78h16.48
			C35.99,508.75,36.62,509.01,37.15,509.53z M63.9,509.53c0.51,0.52,0.77,1.14,0.77,1.86v19.76c0,0.74-0.26,1.36-0.77,1.88
			c-0.53,0.51-1.15,0.77-1.88,0.77c-0.72,0-1.34-0.26-1.86-0.77c-0.51-0.52-0.77-1.14-0.77-1.88v-7.24H48.17v7.24
			c0,0.74-0.26,1.36-0.77,1.88c-0.52,0.51-1.14,0.77-1.86,0.77c-0.74,0-1.36-0.26-1.88-0.77c-0.52-0.52-0.77-1.14-0.77-1.88v-19.76
			c0-0.72,0.26-1.34,0.77-1.86c0.51-0.52,1.14-0.78,1.88-0.78c0.72,0,1.34,0.26,1.86,0.78c0.51,0.52,0.77,1.14,0.77,1.86v7.24h11.22
			v-7.24c0-0.72,0.26-1.34,0.77-1.86c0.52-0.52,1.14-0.78,1.86-0.78C62.74,508.75,63.37,509.01,63.9,509.53z M76.89,514.02v4.62
			h10.55c0.72,0,1.35,0.26,1.88,0.77c0.52,0.51,0.77,1.14,0.77,1.87c0,0.72-0.26,1.34-0.77,1.86c-0.53,0.51-1.15,0.77-1.88,0.77
			H76.89v4.62h13.85c0.73,0,1.35,0.26,1.88,0.77c0.51,0.51,0.77,1.13,0.77,1.85c0,0.74-0.26,1.36-0.77,1.88
			c-0.53,0.51-1.15,0.77-1.88,0.77H74.26c-0.73,0-1.36-0.26-1.88-0.77c-0.52-0.52-0.77-1.14-0.77-1.88v-19.76
			c0-0.73,0.26-1.34,0.77-1.86c0.51-0.52,1.14-0.79,1.88-0.79h16.48c0.73,0,1.35,0.27,1.88,0.79c0.51,0.52,0.77,1.13,0.77,1.86
			c0,0.72-0.26,1.34-0.77,1.85c-0.53,0.52-1.15,0.77-1.88,0.77H76.89z M138.98,509.92c0.3,0.45,0.45,0.94,0.45,1.47v19.76
			c0,0.74-0.27,1.36-0.79,1.88c-0.52,0.51-1.14,0.77-1.86,0.77c-0.73,0-1.35-0.26-1.86-0.77c-0.52-0.52-0.77-1.14-0.77-1.88v-13.4
			l-5.4,5.39c-0.51,0.51-1.14,0.77-1.88,0.77c-0.72,0-1.34-0.26-1.86-0.77l-5.39-5.39v13.4c0,0.74-0.26,1.36-0.77,1.88
			c-0.52,0.51-1.14,0.77-1.86,0.77c-0.73,0-1.36-0.26-1.88-0.77c-0.52-0.52-0.77-1.14-0.77-1.88v-19.76c0-0.54,0.15-1.03,0.45-1.47
			c0.29-0.43,0.68-0.76,1.17-0.97c0.49-0.2,0.99-0.25,1.52-0.15c0.53,0.11,0.98,0.35,1.36,0.73l8.02,8.02l8.04-8.02
			c0.38-0.38,0.82-0.62,1.34-0.73c0.53-0.1,1.03-0.05,1.53,0.15C138.29,509.16,138.69,509.48,138.98,509.92z M159.28,510.2
			c-0.22-0.45-0.55-0.8-0.97-1.07c-0.43-0.26-0.89-0.38-1.39-0.38c-0.5,0-0.97,0.12-1.39,0.38c-0.42,0.27-0.74,0.62-0.97,1.07
			l-9.9,19.77c-0.32,0.65-0.37,1.32-0.14,2.01c0.22,0.69,0.67,1.2,1.32,1.52c0.65,0.32,1.32,0.37,2.01,0.14
			c0.69-0.22,1.2-0.67,1.53-1.32l1.74-3.48h11.57l1.76,3.48c0.22,0.46,0.55,0.82,0.99,1.09c0.42,0.26,0.88,0.39,1.38,0.39
			c0.41,0,0.8-0.1,1.17-0.29c0.65-0.32,1.09-0.83,1.32-1.52c0.23-0.69,0.18-1.36-0.15-2.01L159.28,510.2z M153.77,523.57l3.15-6.29
			l3.15,6.29H153.77z M197.35,519.37c0.55,0.53,0.82,1.16,0.82,1.89v0.02c0,3.45-1.22,6.4-3.68,8.85c-2.45,2.44-5.4,3.66-8.86,3.66
			c-3.45,0-6.41-1.22-8.86-3.66c-2.45-2.45-3.67-5.4-3.67-8.85c0-3.46,1.22-6.41,3.67-8.85c2.45-2.45,5.41-3.68,8.86-3.68
			c3.46,0,6.41,1.22,8.86,3.66c0.53,0.51,0.79,1.14,0.79,1.87c0,0.73-0.26,1.35-0.77,1.86c-0.51,0.52-1.14,0.77-1.88,0.77
			c-0.73,0.01-1.34-0.24-1.86-0.77c-1.42-1.42-3.13-2.12-5.14-2.12c-2,0-3.71,0.71-5.12,2.14c-1.42,1.42-2.12,3.12-2.12,5.12
			s0.71,3.7,2.12,5.12c1.42,1.42,3.12,2.12,5.12,2.12c1.52,0,2.9-0.43,4.14-1.29c1.22-0.84,2.09-1.95,2.63-3.32h-6.77
			c-0.73,0-1.35-0.26-1.86-0.77c-0.52-0.52-0.77-1.14-0.77-1.86s0.26-1.35,0.77-1.87c0.51-0.52,1.13-0.77,1.86-0.77h9.8
			C196.17,518.61,196.81,518.85,197.35,519.37z M208.3,509.53c0.52,0.52,0.77,1.14,0.77,1.86v19.76c0,0.74-0.26,1.36-0.77,1.88
			c-0.51,0.51-1.13,0.77-1.86,0.77c-0.73,0-1.36-0.26-1.88-0.77c-0.51-0.52-0.77-1.14-0.77-1.88v-19.76c0-0.72,0.26-1.34,0.77-1.86
			c0.52-0.52,1.14-0.78,1.88-0.78C207.17,508.75,207.79,509.01,208.3,509.53z M222.12,516.14c-1.42,1.42-2.12,3.13-2.12,5.14
			c0,2,0.71,3.7,2.12,5.12c1.42,1.42,3.12,2.12,5.12,2.12s3.71-0.71,5.12-2.12c0.52-0.51,1.14-0.77,1.88-0.77
			c0.73,0,1.35,0.26,1.86,0.77c0.52,0.52,0.77,1.13,0.77,1.85c0,0.74-0.26,1.36-0.77,1.88c-2.44,2.44-5.4,3.67-8.86,3.67
			c-3.46,0-6.41-1.22-8.86-3.67c-2.44-2.44-3.67-5.39-3.67-8.85c0-3.47,1.22-6.42,3.67-8.85c2.45-2.45,5.4-3.68,8.86-3.68
			c3.46,0,6.42,1.22,8.86,3.68c0.52,0.52,0.77,1.14,0.77,1.86c0,0.72-0.26,1.34-0.77,1.85c-0.51,0.53-1.13,0.79-1.86,0.79
			c-0.73,0-1.36-0.26-1.88-0.79c-1.42-1.42-3.12-2.12-5.12-2.12S223.54,514.72,222.12,516.14z M246.62,509.53
			c0.52,0.52,0.77,1.14,0.77,1.86v19.76c0,0.74-0.26,1.36-0.77,1.88c-0.52,0.51-1.14,0.77-1.86,0.77c-0.74,0-1.36-0.26-1.88-0.77
			c-0.52-0.52-0.77-1.14-0.77-1.88v-19.76c0-0.72,0.26-1.34,0.77-1.86c0.51-0.52,1.14-0.78,1.88-0.78
			C245.49,508.75,246.11,509.01,246.62,509.53z M267.28,510.2c-0.22-0.45-0.55-0.8-0.97-1.07c-0.43-0.26-0.89-0.38-1.4-0.38
			c-0.5,0-0.96,0.12-1.39,0.38c-0.43,0.27-0.75,0.62-0.97,1.07l-9.9,19.77c-0.32,0.65-0.36,1.32-0.13,2.01
			c0.22,0.69,0.66,1.2,1.32,1.52c0.65,0.32,1.32,0.37,2.01,0.14c0.7-0.22,1.2-0.67,1.53-1.32l1.74-3.48h11.57l1.76,3.48
			c0.22,0.46,0.55,0.82,0.98,1.09c0.43,0.26,0.88,0.39,1.38,0.39c0.41,0,0.8-0.1,1.17-0.29c0.65-0.32,1.09-0.83,1.32-1.52
			c0.23-0.69,0.18-1.36-0.15-2.01L267.28,510.2z M261.77,523.57l3.15-6.29l3.15,6.29H261.77z M303.42,509.53
			c0.51,0.52,0.77,1.14,0.77,1.86v19.76c0,0.56-0.16,1.07-0.49,1.52c-0.31,0.46-0.73,0.78-1.26,0.97c-0.29,0.1-0.59,0.15-0.9,0.15
			c-0.83,0-1.51-0.32-2.03-0.96l-11.83-14.17v12.48c0,0.74-0.26,1.36-0.77,1.88c-0.51,0.51-1.13,0.77-1.86,0.77
			c-0.73,0-1.36-0.26-1.88-0.77c-0.52-0.52-0.77-1.14-0.77-1.88v-19.76c0-0.56,0.16-1.07,0.48-1.52c0.31-0.45,0.73-0.77,1.26-0.96
			c0.53-0.19,1.06-0.21,1.59-0.06c0.54,0.15,0.98,0.43,1.34,0.85l11.83,14.17v-12.48c0-0.72,0.26-1.34,0.77-1.86
			c0.51-0.52,1.13-0.78,1.86-0.78C302.27,508.75,302.9,509.01,303.42,509.53z M21.3,80.14c-0.12-0.12-0.16-0.32-0.06-0.48
			c2.74-4.78,8.67-3.96,11.52-3.24c0.72-4.93,0.56-9.03-0.46-11.96c-2.4,4.93-8.36,5.15-8.43,5.16c-0.19,0.03-0.4-0.16-0.41-0.38
			c-0.34-5.74,4.58-9.83,6.93-11.45c-0.13-1.17-0.17-2.32-0.1-3.44c-3.78,2.36-7.93,1.01-8.11,0.95c-0.11-0.04-0.2-0.12-0.24-0.24
			c-0.04-0.11-0.03-0.24,0.03-0.34c2.34-3.97,7.6-6.25,9.94-7.1c0.2-0.47,0.41-0.95,0.65-1.43c-1.86,1.22-3.35,1.73-4.42,1.51
			c-0.61-0.12-1.08-0.47-1.4-1.04c-0.51-0.89-0.68-2.21,1.02-3.72c-1.79-0.12-2.78-0.77-2.92-1.92c-0.09-0.75,0.1-1.38,0.58-1.85
			c0.79-0.79,2.24-0.98,3.36-1c-1.58-1.03-2.2-1.72-2.33-2.48c-0.13-0.8,0.34-1.54,1.16-2.49c0.42-0.49,0.97-0.73,1.53-0.69
			c0.83,0.05,1.66,0.66,2.31,1.32c-0.19-0.99-0.24-2.13,0.31-2.86c0.42-0.57,1.11-0.8,2.04-0.7c1.01,0.11,2.22,0.74,2.6,3.02
			c1.05-1.29,2.11-1.7,3.18-1.25c0.56,0.24,0.95,0.65,1.15,1.21c0.34,0.95,0.12,2.34-0.66,4.16c0.58-0.39,1.2-0.77,1.87-1.14
			c0.08-2.56,1.08-6.33,5.3-10.18c0.15-0.13,0.37-0.14,0.52-0.01c0.04,0.03,3.41,2.85,1.24,7.44c1.82-0.47,3.74-0.84,5.85-1.11
			c-0.53-1.48-0.9-3.7-0.13-6.58l2.13-4.47c0.05-0.1,0.15-0.18,0.27-0.21c0.12-0.03,0.24-0.01,0.33,0.07
			c0.06,0.04,5.33,4.06,2.21,10.75c0.7-0.05,1.39-0.08,2.08-0.11c0.01-0.36,0.09-0.73,0.23-1.12c0.35-0.96,1.24-1.94,3.51-1.61
			c-1.06-1.45-1.2-2.61-0.41-3.47c0.52-0.56,1.11-0.81,1.8-0.74c1.11,0.1,2.19,1.08,2.93,1.93c-0.22-1.88-0.1-2.8,0.41-3.38
			c0.53-0.61,1.36-0.73,2.66-0.72c0.65,0.01,1.18,0.26,1.52,0.73c0.49,0.68,0.55,1.7,0.47,2.61c0.63-0.79,1.47-1.55,2.38-1.6
			c0.68-0.05,1.33,0.33,1.85,1.11c0.56,0.84,0.85,2.18-0.65,3.94c0.03,0,0.05,0,0.07,0c1.84,0,2.59,0.73,2.88,1.45
			c0.23,0.05,0.45,0.11,0.67,0.16c0.19-2.39,1.55-6.29,7.83-8.9c0.17-0.06,0.35-0.02,0.46,0.12c0.08,0.1,1.92,2.47,1.25,5.39
			c-0.47,2.05-2.04,3.8-4.66,5.24c0.65,0.33,1.27,0.69,1.83,1.06c3.42-3.57,8.36-5.39,14.72-5.41c-2.78-3.23-1.55-7.66-1.49-7.85
			c0.06-0.21,0.27-0.33,0.48-0.28c6.71,1.72,7.63,6.02,7.5,8.67c2.3,0.38,4.16,0.86,5.18,1.16c0.09-2.89,0.76-7.73,4.11-9.52
			c0.14-0.07,0.31-0.06,0.43,0.04c0.06,0.05,1.51,1.19,1.72,3.23c0.14,1.35-0.29,2.76-1.29,4.19c3.37-0.59,6.3,0.43,8.34,1.55
			c0.51-1.76,1.66-4.44,4.22-5.91c2.16-1.23,4.89-1.38,8.11-0.41c0.17,0.05,0.29,0.21,0.29,0.39c0,0.08-0.04,1.93-3.15,4.6
			c-1.78,1.52-4.46,2.6-6.63,3.28c0.6,0.51,1.17,1.06,1.7,1.65c1.63,0.32,3.94,1.2,5.96,3.56c3.61,4.21-0.09,9.06-0.13,9.11
			c-0.12,0.15-0.32,0.19-0.49,0.11c-0.18-0.09-4.43-2.23-5.91-4.9c-0.55-0.98-1.04-2.4-1.45-4.2c-0.14-0.09-0.24-0.18-0.34-0.31
			c-0.07-0.08-1.44-1.83-3.6-3.17c2.09,4.55-0.47,8.79-0.5,8.83c-0.11,0.18-0.34,0.24-0.52,0.15c-5.38-2.73-4.94-7.9-4.32-10.47
			c-1.32,0.1-3.69,0.57-5.01,1.1c1.98,2.9,1.94,7.16,1.77,9.26c3.9,0.39,6.31,1.31,7.16,2.76c0.46,0.77,0.47,1.66,0.03,2.65
			l-0.06,0.14c-0.32,0.72-0.45,1.02-0.78,1.14c-0.29,0.1-0.54-0.01-0.88-0.17c0.26,1.31-0.65,2.78-1.68,3.78
			c-0.55,0.53-1.17,0.73-1.83,0.64c-1.11-0.17-2.12-1.21-2.81-2.1c0.11,1.89-0.07,2.79-0.6,3.35c-0.56,0.58-1.41,0.65-2.69,0.56
			c-0.65-0.04-1.16-0.32-1.47-0.82c-0.45-0.7-0.45-1.72-0.32-2.64c-0.68,0.75-1.56,1.46-2.47,1.46c-0.71,0-1.31-0.41-1.78-1.21
			c-0.52-0.88-0.72-2.22,0.88-3.89c-1.66-0.08-2.64-0.68-2.9-1.8c-0.18-0.76-0.04-1.44,0.41-2.01c1.37-1.73,5.3-2.01,7.52-2.01
			c0.09,0,0.19,0,0.3,0c0.06-0.8,0.07-1.72,0.03-2.58l-0.24-1.91c-0.27-1.38-1.32-3.33-2.11-3.9l-0.09-0.03
			c-4.66-1.51-9.23-1.73-13.62-0.69c5.77,4.83,2.12,10.86,2.09,10.92c-0.09,0.16-0.29,0.23-0.46,0.17c-5.77-1.89-6.47-6.3-6.23-9.22
			c-1.16,0.71-2.1,1.55-2.89,2.53c-0.17,0.97-0.65,3.86-0.86,7.06c2.79,0.43,8.56,1.86,10.07,6.3c0.06,0.18-0.02,0.38-0.19,0.47
			c-0.06,0.04-5.76,3.07-9.95-2.19c0.07,1.44,0.24,2.66,0.51,3.65c0.04,0.16,0.05,0.3,0.05,0.43c6.48,8.1,0.85,14.2,0.79,14.26
			c-0.15,0.16-0.39,0.17-0.55,0.03c-6.05-5.32-5.23-10.81-4.15-13.7c-0.23-0.85-0.4-1.84-0.52-2.94c-5.41,7.6-11.87,3.96-11.94,3.93
			c-0.15-0.09-0.23-0.28-0.18-0.45c1.65-6.14,8.66-7.54,11.97-7.85c0.08-3.6,0.57-7.07,0.89-8.98c-0.76-0.52-2.35-1.48-4.66-2.23
			c3.16,5.15-1.53,9.75-1.58,9.8c-0.13,0.12-0.32,0.15-0.47,0.06c-4.34-2.43-4.35-7.35-4.03-9.86c-0.94,0.15-1.8,0.22-2.4,0.27
			c-0.4,0.02-1.01,0.06-1.73,0.08c-1.24,0.03-2.42,0.01-3.51-0.07l-1.37,0.04c-0.93,0.02-1.86,0.04-2.81,0.07
			c0.94,2.77,2.15,8.55-2.07,12.77c-0.12,0.12-0.33,0.15-0.48,0.06c-0.11-0.06-2.71-1.61-2.88-6.83c-0.09-2.9,0.62-4.72,1.41-5.83
			c-2.31,0.13-4.35,0.33-6.21,0.61c0.32,2.52,0.15,7.9-5.94,11.57c-0.17,0.1-0.39,0.07-0.51-0.08c-0.11-0.14-2.62-3.27,2.04-10.59
			c-5.67,1.53-9.74,4.29-12.42,8.42c-0.32,0.49-0.62,1-0.9,1.54c3.22,0.12,8.18,0.99,9.73,5.08c0.06,0.16,0.01,0.34-0.12,0.45
			c-0.04,0.04-4.68,3.59-10.98-2.23c-0.97,3.13-1.02,6.34-0.12,9.34c7.23-4.5,12.61,1.56,12.67,1.62c0.08,0.09,0.11,0.21,0.09,0.33
			c-0.02,0.12-0.09,0.22-0.2,0.28c-3.57,1.98-8.38,1.68-11.31,1.23c0.45,1.38,0.76,2.91,0.91,4.57c3.31,0.22,10.24,1.31,11.18,6.59
			c0.04,0.22-0.1,0.42-0.32,0.46c-0.26,0.05-6.03,1.04-10.75-3.27c-0.05,1.75-0.22,3.6-0.52,5.53c1.9,0.27,5.65,1.1,7.48,3.61
			c0.95,1.31,1.26,2.89,0.9,4.7c-0.04,0.19-0.2,0.32-0.39,0.32c-0.19,0-4.51-0.06-8.79-4.46c-0.39,1.72-0.77,3.04-0.97,3.71
			c2.84,1.07,6.19,2.69,6.85,4.6c0.22,0.62,0.15,1.23-0.21,1.81c-0.54,0.87-1.62,1.65-3.76,0.89c0.75,1.63,0.66,2.8-0.29,3.48
			c-0.61,0.44-1.26,0.57-1.91,0.38c-1.07-0.32-1.93-1.49-2.48-2.47c-0.15,1.89-0.46,2.76-1.07,3.23c-0.35,0.27-0.76,0.38-1.26,0.38
			c-0.42,0-0.92-0.08-1.49-0.2c-0.64-0.14-1.1-0.48-1.34-1.02c-0.35-0.76-0.21-1.77,0.06-2.66c-0.78,0.65-1.76,1.23-2.66,1.1
			c-0.7-0.1-1.24-0.59-1.59-1.46c-0.39-0.94-0.41-2.3,1.41-3.73c-2.01-0.39-2.55-1.37-2.62-2.19c-0.06-0.65,0.14-1.21,0.59-1.67
			c1.4-1.43,4.98-1.54,7.87-1.37c0.15-0.49,0.52-1.76,0.92-3.48C25.09,83.8,21.46,80.3,21.3,80.14z M183.11,23.91
			c0-0.18,0.12-0.33,0.29-0.39c3.23-0.96,5.96-0.82,8.11,0.41c2.56,1.46,3.72,4.15,4.22,5.91c2.04-1.12,4.97-2.14,8.34-1.55
			c-0.99-1.43-1.43-2.84-1.29-4.19c0.21-2.04,1.66-3.18,1.72-3.23c0.12-0.09,0.29-0.11,0.43-0.04c3.36,1.78,4.03,6.62,4.11,9.52
			c1.03-0.3,2.89-0.79,5.19-1.17c-0.13-2.65,0.78-6.94,7.5-8.67c0.22-0.06,0.42,0.07,0.48,0.27c0.06,0.2,1.29,4.62-1.48,7.86
			c6.35,0.02,11.3,1.84,14.71,5.41c0.57-0.38,1.19-0.73,1.84-1.06c-2.63-1.43-4.19-3.19-4.66-5.23c-0.67-2.92,1.17-5.29,1.24-5.39
			c0.11-0.14,0.3-0.19,0.47-0.12c6.28,2.6,7.64,6.51,7.83,8.9c0.22-0.06,0.45-0.11,0.68-0.17c0.31-0.75,1.07-1.45,2.87-1.45
			c0.02,0,0.04,0,0.06,0c-1.5-1.76-1.21-3.09-0.65-3.94c0.52-0.78,1.16-1.16,1.85-1.11c0.91,0.05,1.76,0.81,2.39,1.6
			c-0.08-0.92-0.02-1.94,0.47-2.61c0.34-0.47,0.87-0.72,1.52-0.73c1.3-0.03,2.12,0.1,2.66,0.71c0.5,0.59,0.63,1.51,0.4,3.38
			c0.74-0.85,1.82-1.83,2.93-1.93c0.68-0.06,1.28,0.19,1.8,0.75c0.79,0.85,0.65,2.02-0.41,3.46c2.24-0.32,3.15,0.65,3.51,1.61
			c0.14,0.39,0.22,0.76,0.23,1.12c0.69,0.03,1.38,0.07,2.07,0.11c-3.12-6.69,2.16-10.71,2.22-10.74c0.09-0.07,0.21-0.1,0.33-0.07
			c0.11,0.03,0.21,0.1,0.26,0.21l2.11,4.4c0.79,2.94,0.43,5.17-0.1,6.65c2.11,0.27,4.04,0.63,5.85,1.1
			c-2.17-4.58,1.2-7.41,1.24-7.44c0.15-0.12,0.38-0.11,0.52,0.02c4.21,3.84,5.22,7.61,5.29,10.18c0.67,0.37,1.29,0.75,1.88,1.14
			c-0.78-1.81-0.99-3.21-0.66-4.16c0.2-0.56,0.59-0.97,1.15-1.21c1.06-0.45,2.12-0.03,3.18,1.25c0.39-2.28,1.59-2.91,2.6-3.02
			c0.93-0.1,1.62,0.14,2.04,0.7c0.55,0.73,0.5,1.86,0.31,2.85c0.65-0.65,1.47-1.26,2.31-1.32c0.63-0.05,1.11,0.2,1.53,0.69
			c0.84,0.97,1.3,1.69,1.16,2.49c-0.12,0.76-0.75,1.45-2.33,2.48c1.12,0.02,2.57,0.21,3.36,0.99c0.48,0.48,0.68,1.1,0.58,1.85
			c-0.15,1.15-1.13,1.79-2.92,1.92c1.7,1.51,1.52,2.82,1.02,3.71c-0.32,0.57-0.79,0.92-1.4,1.04c-1.07,0.21-2.55-0.29-4.42-1.51
			c0.24,0.48,0.45,0.96,0.65,1.43c2.34,0.85,7.6,3.14,9.94,7.1c0.06,0.1,0.07,0.23,0.03,0.34c-0.04,0.11-0.13,0.2-0.24,0.23
			c-0.19,0.06-4.33,1.41-8.11-0.95c0.07,1.11,0.03,2.27-0.1,3.44c2.35,1.61,7.27,5.71,6.93,11.44c-0.01,0.22-0.17,0.41-0.41,0.38
			c-0.06,0-6.03-0.23-8.42-5.15c-1.02,2.96-1.18,7.05-0.46,11.96c2.85-0.73,8.78-1.54,11.52,3.24c0.09,0.16,0.06,0.35-0.06,0.48
			c-0.16,0.16-3.79,3.66-10.6,0.75c0.4,1.72,0.77,2.98,0.92,3.48c2.88-0.18,6.47-0.06,7.87,1.37c0.45,0.46,0.65,1.02,0.59,1.67
			c-0.08,0.82-0.62,1.8-2.62,2.18c1.82,1.43,1.8,2.8,1.41,3.73c-0.35,0.86-0.89,1.35-1.59,1.45c-0.92,0.12-1.88-0.45-2.65-1.1
			c0.26,0.89,0.4,1.9,0.05,2.66c-0.24,0.53-0.71,0.88-1.34,1.02c-0.58,0.12-1.07,0.2-1.49,0.2c-0.5,0-0.91-0.11-1.25-0.38
			c-0.61-0.47-0.92-1.35-1.07-3.23c-0.55,0.98-1.42,2.15-2.49,2.47c-0.65,0.2-1.29,0.07-1.91-0.38c-0.94-0.68-1.04-1.85-0.29-3.48
			c-2.13,0.77-3.21-0.02-3.76-0.89c-0.35-0.58-0.43-1.19-0.21-1.81c0.66-1.91,4.02-3.54,6.85-4.6c-0.2-0.67-0.58-1.99-0.97-3.71
			c-4.28,4.41-8.6,4.46-8.79,4.46c-0.19,0-0.36-0.13-0.4-0.32c-0.35-1.81-0.05-3.4,0.9-4.7c1.83-2.51,5.58-3.34,7.49-3.61
			c-0.3-1.93-0.47-3.79-0.52-5.53c-4.72,4.3-10.49,3.31-10.75,3.26c-0.21-0.04-0.36-0.24-0.32-0.46c0.93-5.28,7.87-6.37,11.18-6.59
			c0.15-1.66,0.46-3.19,0.91-4.57c-2.93,0.45-7.74,0.75-11.31-1.23c-0.1-0.06-0.18-0.16-0.2-0.28c-0.02-0.11,0.02-0.24,0.09-0.33
			c0.05-0.06,5.44-6.12,12.66-1.62c0.89-3.01,0.85-6.21-0.12-9.34c-6.31,5.81-10.94,2.26-10.99,2.22c-0.14-0.1-0.19-0.29-0.12-0.45
			c1.55-4.09,6.52-4.96,9.74-5.08c-0.29-0.54-0.58-1.05-0.91-1.54c-2.68-4.13-6.75-6.89-12.42-8.42c4.66,7.33,2.16,10.46,2.04,10.59
			c-0.12,0.15-0.34,0.18-0.51,0.08c-6.08-3.67-6.25-9.06-5.94-11.58c-1.86-0.28-3.9-0.48-6.21-0.61c0.8,1.11,1.51,2.93,1.42,5.84
			c-0.17,5.22-2.77,6.77-2.89,6.83c-0.15,0.09-0.35,0.06-0.48-0.07c-4.22-4.21-3.01-9.99-2.07-12.77c-0.94-0.02-1.88-0.05-2.8-0.07
			l-1.41-0.03c-1.04,0.08-2.22,0.1-3.46,0.07c-0.73-0.02-1.34-0.05-1.73-0.08c-0.59-0.04-1.45-0.11-2.4-0.26
			c0.32,2.51,0.31,7.43-4.04,9.86c-0.15,0.08-0.34,0.06-0.47-0.06c-0.05-0.05-4.74-4.65-1.58-9.8c-2.3,0.75-3.9,1.71-4.66,2.23
			c0.32,1.91,0.81,5.36,0.89,8.98c3.32,0.31,10.32,1.7,11.97,7.85c0.05,0.17-0.03,0.35-0.18,0.45c-0.07,0.04-6.53,3.67-11.94-3.93
			c-0.11,1.09-0.29,2.08-0.52,2.94c1.09,2.89,1.91,8.38-4.15,13.7c-0.16,0.15-0.4,0.13-0.55-0.02c-0.06-0.06-5.69-6.16,0.8-14.27
			c0-0.14,0.01-0.28,0.05-0.43c0.27-0.99,0.44-2.21,0.51-3.65c-4.19,5.26-9.89,2.22-9.94,2.19c-0.17-0.09-0.25-0.3-0.19-0.48
			c1.51-4.44,7.28-5.86,10.07-6.3c-0.21-3.2-0.69-6.08-0.86-7.06c-0.78-0.98-1.73-1.81-2.89-2.53c0.24,2.93-0.46,7.33-6.23,9.22
			c-0.17,0.06-0.37-0.01-0.47-0.17c-0.04-0.06-3.68-6.09,2.09-10.92c-4.38-1.05-8.96-0.82-13.62,0.68l-0.09,0.03
			c-0.79,0.57-1.84,2.53-2.12,3.93l-0.23,1.91c-0.05,0.83-0.04,1.75,0.03,2.55c0.11,0,0.21,0,0.3,0c2.22,0.01,6.15,0.28,7.52,2.01
			c0.45,0.57,0.59,1.25,0.41,2.01c-0.27,1.12-1.24,1.72-2.9,1.8c1.6,1.67,1.39,3.02,0.88,3.89c-0.47,0.81-1.07,1.22-1.78,1.22
			c-0.91,0-1.8-0.71-2.48-1.46c0.14,0.91,0.14,1.93-0.31,2.64c-0.32,0.49-0.83,0.77-1.47,0.82c-1.29,0.08-2.14,0.03-2.7-0.56
			c-0.54-0.55-0.71-1.46-0.6-3.35c-0.68,0.89-1.7,1.93-2.81,2.1c-0.67,0.1-1.29-0.11-1.84-0.64c-1.04-1-1.94-2.46-1.68-3.78
			c-0.34,0.16-0.59,0.28-0.87,0.17c-0.33-0.12-0.46-0.42-0.78-1.14l-0.06-0.14c-0.44-0.99-0.43-1.88,0.03-2.65
			c0.85-1.44,3.26-2.36,7.16-2.76c-0.17-2.1-0.2-6.35,1.78-9.26c-1.32-0.53-3.69-1-5.01-1.1c0.62,2.58,1.05,7.74-4.32,10.47
			c-0.18,0.09-0.41,0.03-0.52-0.15c-0.03-0.05-2.6-4.29-0.51-8.83c-2.16,1.34-3.54,3.09-3.6,3.18c-0.1,0.14-0.23,0.23-0.34,0.31
			c-0.41,1.8-0.9,3.21-1.45,4.2c-1.48,2.66-5.73,4.81-5.92,4.9c-0.16,0.08-0.38,0.04-0.49-0.11c-0.04-0.05-3.75-4.9-0.13-9.11
			c2.02-2.35,4.33-3.23,5.95-3.56c0.53-0.58,1.09-1.13,1.7-1.65c-2.16-0.68-4.85-1.76-6.62-3.28
			C183.15,25.84,183.11,23.98,183.11,23.91z"/>
	</g>
</g>
</svg>
