<?xml version="1.0" encoding="utf-8"?>
<!-- Generator: Adobe Illustrator 29.8.1, SVG Export Plug-In . SVG Version: 9.03 Build 0)  -->
<svg version="1.0" id="Layer_1" xmlns="http://www.w3.org/2000/svg" xmlns:xlink="http://www.w3.org/1999/xlink" x="0px" y="0px"
	 viewBox="0 0 323.01 550" style="enable-background:new 0 0 323.01 550;" xml:space="preserve">
<style type="text/css">
	.st0{clip-path:url(#SVGID_00000023992257737349292530000013128545554552373170_);}
	.st1{fill:#2E2E2E;}
</style>
<g>
	<defs>
		<rect id="SVGID_1_" x="0.01" width="323" height="550"/>
	</defs>
	<clipPath id="SVGID_00000065037660102222761830000000968885123550045614_">
		<use xlink:href="#SVGID_1_"  style="overflow:visible;"/>
	</clipPath>
	<g style="clip-path:url(#SVGID_00000065037660102222761830000000968885123550045614_);">
		<path class="st1" d="M304.52,4.89c3.8,0,7.23,1.53,9.72,4.02c2.49,2.48,4.03,5.91,4.03,9.7v512.78c0,3.79-1.54,7.22-4.03,9.7
			c-2.48,2.48-5.92,4.02-9.72,4.02H18.49c-3.8,0-7.23-1.54-9.72-4.02c-2.49-2.48-4.03-5.91-4.03-9.7V18.61
			c0-3.79,1.54-7.22,4.03-9.7c2.49-2.48,5.92-4.02,9.72-4.02H304.52 M304.52,0.15H18.49c-4.94,0-9.58,1.92-13.08,5.41
			C1.92,9.04,0,13.68,0,18.61v512.78c0,4.93,1.92,9.57,5.42,13.05c3.49,3.49,8.14,5.41,13.08,5.41h286.02
			c4.94,0,9.59-1.92,13.08-5.41c3.49-3.48,5.42-8.12,5.42-13.05V18.61c0-4.93-1.92-9.57-5.42-13.06
			C314.1,2.07,309.46,0.15,304.52,0.15z M154.27,151.08h4.9v14.98c0,0.65,0.22,1.19,0.68,1.64c0.46,0.45,1.01,0.67,1.64,0.67
			s1.18-0.22,1.63-0.67c0.45-0.45,0.67-0.99,0.67-1.64v-14.98h4.91c0.64,0,1.18-0.22,1.64-0.67c0.45-0.45,0.68-0.99,0.68-1.62
			c0-0.64-0.23-1.18-0.68-1.62c-0.46-0.46-1.01-0.69-1.64-0.69h-14.43c-0.65,0-1.19,0.23-1.64,0.69c-0.45,0.45-0.68,0.99-0.68,1.62
			c0,0.64,0.23,1.18,0.68,1.62C153.07,150.85,153.62,151.08,154.27,151.08z M271.63,257.2c-0.23-0.37-0.55-0.65-0.94-0.84
			l-17.33-8.65c-0.56-0.28-1.15-0.32-1.76-0.12c-0.6,0.2-1.05,0.58-1.33,1.16c-0.29,0.56-0.32,1.15-0.12,1.76
			c0.2,0.6,0.58,1.05,1.16,1.33l3.05,1.53v10.11l-3.05,1.54c-0.4,0.2-0.72,0.48-0.95,0.86c-0.22,0.37-0.33,0.77-0.33,1.2
			c0,0.36,0.08,0.7,0.25,1.03c0.28,0.57,0.72,0.95,1.33,1.16c0.6,0.2,1.19,0.16,1.76-0.13l17.33-8.64c0.39-0.2,0.7-0.48,0.94-0.85
			c0.22-0.37,0.34-0.78,0.34-1.21C271.97,257.97,271.85,257.57,271.63,257.2z M258.98,261.17v-5.51l5.51,2.76L258.98,261.17z
			 M167.05,342.93c-0.64,0-1.18,0.22-1.62,0.67c-0.45,0.45-0.68,0.99-0.68,1.64v3.45h-5.4l-5.1-5.09c-0.45-0.45-0.99-0.67-1.63-0.67
			s-1.18,0.22-1.64,0.67c-0.45,0.45-0.67,0.99-0.67,1.64c0,0.64,0.22,1.18,0.67,1.62l3.09,3.09c-1.15,0.73-2.06,1.69-2.73,2.86
			c-0.69,1.22-1.04,2.53-1.04,3.94c0,2.22,0.79,4.12,2.37,5.71c1.59,1.58,3.49,2.37,5.72,2.37h8.65c0.65,0,1.19-0.23,1.64-0.69
			c0.45-0.45,0.68-0.99,0.68-1.62v-17.28c0-0.65-0.23-1.19-0.68-1.64C168.24,343.15,167.69,342.93,167.05,342.93z M164.74,360.22
			h-6.35c-0.96,0-1.77-0.34-2.45-1.03c-0.68-0.67-1.03-1.48-1.03-2.44c0-0.95,0.34-1.76,1.03-2.44c0.68-0.68,1.49-1.01,2.45-1.01
			h6.35V360.22z M63.55,245.45c-3.02,0-5.61,1.07-7.76,3.22c-2.14,2.14-3.21,4.72-3.21,7.74c0,3.01,1.07,5.59,3.21,7.74
			c2.15,2.14,4.73,3.2,7.76,3.2c3.03,0,5.61-1.07,7.76-3.2c2.15-2.15,3.22-4.73,3.22-7.74c0-3.03-1.07-5.61-3.22-7.74
			C69.16,246.53,66.57,245.45,63.55,245.45z M68.05,260.89c-1.25,1.24-2.75,1.86-4.5,1.86s-3.24-0.62-4.49-1.86
			c-1.24-1.24-1.86-2.73-1.86-4.47c0-1.75,0.62-3.24,1.86-4.48c1.24-1.25,2.74-1.88,4.49-1.88s3.25,0.62,4.5,1.88
			c1.24,1.24,1.86,2.73,1.86,4.48C69.91,258.16,69.29,259.65,68.05,260.89z M54.73,507.14H38.3c-0.73,0-1.35,0.26-1.87,0.78
			c-0.51,0.52-0.77,1.13-0.77,1.85c0,0.72,0.26,1.34,0.77,1.85c0.52,0.51,1.14,0.77,1.87,0.77h5.58v17.07
			c0,0.73,0.26,1.36,0.77,1.87c0.53,0.51,1.15,0.77,1.87,0.77c0.72,0,1.34-0.26,1.85-0.77c0.51-0.51,0.77-1.14,0.77-1.87v-17.07
			h5.59c0.72,0,1.35-0.26,1.87-0.77c0.51-0.51,0.77-1.12,0.77-1.85c0-0.72-0.26-1.34-0.77-1.85
			C56.08,507.4,55.46,507.14,54.73,507.14z M83.07,507.14c-0.72,0-1.34,0.26-1.85,0.78c-0.52,0.52-0.77,1.13-0.77,1.85v7.22H69.26
			v-7.22c0-0.72-0.26-1.34-0.77-1.85c-0.51-0.52-1.13-0.78-1.85-0.78c-0.73,0-1.36,0.26-1.87,0.78c-0.52,0.52-0.77,1.13-0.77,1.85
			v19.69c0,0.73,0.25,1.36,0.77,1.87c0.51,0.51,1.14,0.77,1.87,0.77c0.72,0,1.34-0.26,1.85-0.77c0.51-0.51,0.77-1.14,0.77-1.87
			v-7.22h11.19v7.22c0,0.73,0.26,1.36,0.77,1.87c0.51,0.51,1.13,0.77,1.85,0.77c0.72,0,1.35-0.26,1.88-0.77
			c0.51-0.51,0.77-1.14,0.77-1.87v-19.69c0-0.72-0.26-1.34-0.77-1.85C84.42,507.4,83.8,507.14,83.07,507.14z M113.39,512.39
			c0.72,0,1.34-0.26,1.87-0.77c0.51-0.51,0.77-1.12,0.77-1.85c0-0.72-0.26-1.34-0.77-1.85c-0.53-0.52-1.15-0.78-1.87-0.78H96.95
			c-0.73,0-1.35,0.26-1.87,0.78c-0.51,0.52-0.77,1.13-0.77,1.85v19.69c0,0.73,0.26,1.36,0.77,1.87c0.52,0.51,1.14,0.77,1.87,0.77
			h16.44c0.72,0,1.34-0.26,1.87-0.77c0.51-0.51,0.77-1.14,0.77-1.87c0-0.72-0.26-1.34-0.77-1.85c-0.53-0.51-1.15-0.77-1.87-0.77
			H99.58v-4.6h10.52c0.72,0,1.34-0.26,1.87-0.77c0.51-0.51,0.77-1.13,0.77-1.85c0-0.73-0.26-1.35-0.77-1.86
			c-0.53-0.51-1.15-0.77-1.87-0.77H99.58v-4.6H113.39z M172.54,507.43c-0.66-0.32-0.98-0.48-0.98-0.48s-0.34,0.11-1.04,0.33
			c-0.68,0.23-1.18,0.67-1.52,1.31l-7.52,15.01l-1.99-3.96l4.34-8.69c0.33-0.65,0.39-1.31,0.15-2c-0.23-0.69-0.67-1.2-1.32-1.52
			c-0.65-0.32-1.32-0.37-2.01-0.15c-0.69,0.23-1.2,0.67-1.52,1.31l-2.59,5.17l-2.57-5.14c-0.33-0.66-0.84-1.09-1.52-1.32
			c-0.69-0.23-1.36-0.19-2.02,0.14c-0.65,0.32-1.08,0.83-1.32,1.52c-0.22,0.69-0.17,1.36,0.15,2.02l4.34,8.66l-1.98,3.96
			l-7.52-14.97c-0.32-0.66-0.83-1.09-1.52-1.32c-0.69-0.23-1.36-0.19-2.02,0.14c-0.65,0.32-1.08,0.83-1.3,1.52
			c-0.23,0.69-0.19,1.36,0.13,2.02l9.88,19.67c0.22,0.45,0.54,0.8,0.96,1.05c0.43,0.27,0.89,0.4,1.39,0.4c0.5,0,0.96-0.14,1.39-0.4
			c0.42-0.26,0.74-0.6,0.97-1.05l2.57-5.15l2.59,5.15c0.22,0.45,0.54,0.8,0.97,1.05c0.42,0.27,0.89,0.4,1.39,0.4
			c0.49,0,0.94-0.14,1.37-0.4c0.42-0.26,0.74-0.6,0.97-1.05l9.87-19.7c0.32-0.65,0.37-1.31,0.15-2
			C173.63,508.26,173.19,507.74,172.54,507.43z M199.7,507.14c-0.72,0-1.34,0.26-1.85,0.78c-0.52,0.52-0.77,1.13-0.77,1.85v7.22
			h-11.19v-7.22c0-0.72-0.26-1.34-0.77-1.85c-0.51-0.52-1.13-0.78-1.85-0.78c-0.73,0-1.36,0.26-1.87,0.78
			c-0.51,0.52-0.77,1.13-0.77,1.85v19.69c0,0.73,0.26,1.36,0.77,1.87c0.51,0.51,1.14,0.77,1.87,0.77c0.72,0,1.34-0.26,1.85-0.77
			c0.51-0.51,0.77-1.14,0.77-1.87v-7.22h11.19v7.22c0,0.73,0.26,1.36,0.77,1.87c0.51,0.51,1.13,0.77,1.85,0.77
			c0.72,0,1.35-0.26,1.87-0.77c0.51-0.51,0.77-1.14,0.77-1.87v-19.69c0-0.72-0.26-1.34-0.77-1.85
			C201.05,507.4,200.43,507.14,199.7,507.14z M230.02,512.39c0.72,0,1.34-0.26,1.87-0.77c0.51-0.51,0.77-1.12,0.77-1.85
			c0-0.72-0.26-1.34-0.77-1.85c-0.53-0.52-1.15-0.78-1.87-0.78h-16.44c-0.73,0-1.36,0.26-1.87,0.78c-0.51,0.52-0.77,1.13-0.77,1.85
			v19.69c0,0.73,0.26,1.36,0.77,1.87c0.51,0.51,1.14,0.77,1.87,0.77h16.44c0.72,0,1.34-0.26,1.87-0.77
			c0.51-0.51,0.77-1.14,0.77-1.87c0-0.72-0.26-1.34-0.77-1.85c-0.53-0.51-1.15-0.77-1.87-0.77H216.2v-4.6h10.52
			c0.72,0,1.35-0.26,1.87-0.77c0.52-0.51,0.77-1.13,0.77-1.85c0-0.73-0.26-1.35-0.77-1.86c-0.52-0.51-1.15-0.77-1.87-0.77H216.2
			v-4.6H230.02z M259.01,512.39c0.72,0,1.35-0.26,1.88-0.77c0.51-0.51,0.77-1.12,0.77-1.85c0-0.72-0.26-1.34-0.77-1.85
			c-0.53-0.52-1.15-0.78-1.88-0.78h-16.43c-0.73,0-1.36,0.26-1.87,0.78c-0.52,0.52-0.77,1.13-0.77,1.85v19.69
			c0,0.73,0.25,1.36,0.77,1.87c0.51,0.51,1.14,0.77,1.87,0.77h16.43c0.72,0,1.35-0.26,1.88-0.77c0.51-0.51,0.77-1.14,0.77-1.87
			c0-0.72-0.26-1.34-0.77-1.85c-0.53-0.51-1.15-0.77-1.88-0.77h-13.81v-4.6h10.53c0.72,0,1.34-0.26,1.87-0.77
			c0.51-0.51,0.77-1.13,0.77-1.85c0-0.73-0.26-1.35-0.77-1.86c-0.53-0.51-1.15-0.77-1.87-0.77h-10.53v-4.6H259.01z M284.71,526.85
			h-10.52v-17.07c0-0.72-0.26-1.34-0.77-1.85c-0.52-0.52-1.13-0.78-1.85-0.78c-0.73,0-1.36,0.26-1.87,0.78
			c-0.52,0.52-0.77,1.13-0.77,1.85v19.69c0,0.73,0.26,1.36,0.77,1.87c0.51,0.51,1.14,0.77,1.87,0.77h13.14
			c0.72,0,1.35-0.26,1.88-0.77c0.51-0.51,0.77-1.14,0.77-1.87c0-0.72-0.26-1.34-0.77-1.85C286.06,527.1,285.43,526.85,284.71,526.85
			z M150.67,53.59c0.07,0.72,0.38,1.31,0.93,1.77c0.48,0.41,1.04,0.61,1.69,0.61c0.81,0,1.49-0.32,2.02-0.95l6.2-7.42l6.2,7.42
			c0.53,0.63,1.21,0.95,2.02,0.95c0.64,0,1.19-0.2,1.69-0.61c0.55-0.46,0.86-1.05,0.93-1.77c0.07-0.72-0.13-1.36-0.6-1.92
			l-6.82-8.17l6.82-8.17c0.47-0.55,0.67-1.19,0.6-1.92c-0.07-0.72-0.38-1.32-0.93-1.78c-0.56-0.47-1.2-0.67-1.92-0.6
			c-0.72,0.07-1.32,0.38-1.79,0.94l-6.2,7.43l-6.2-7.43c-0.46-0.56-1.06-0.87-1.79-0.94c-0.72-0.06-1.36,0.14-1.92,0.6
			c-0.56,0.46-0.87,1.06-0.94,1.78c-0.07,0.72,0.14,1.36,0.6,1.92l6.82,8.17l-6.82,8.17C150.8,52.23,150.6,52.87,150.67,53.59z
			 M286.76,467.68c-0.45-0.32-0.97-0.48-1.49-0.48c-0.79,0-1.57,0.36-2.07,1.06c-0.69,0.95-2.07,1.98-3.48,1.98
			c-0.14,0-0.32,0.01-0.55,0.03c-0.2,0.02-0.4,0.03-0.58,0.03c-0.34,0-0.64-0.05-0.82-0.21c-0.16-0.15-0.69-0.81-0.69-3.03
			c0-2.46,1.53-5.53,3.16-8.79c2.29-4.59,4.89-9.79,4.89-15.95c0-6.39-3.89-12.83-12.57-12.83c-3.31,0-6.12,1.12-8.14,3.25
			c-2.24,2.36-3.46,5.99-3.26,9.71c0.09,1.72,0.49,3.32,1.03,4.82c-0.22-0.02-0.45-0.03-0.68-0.03c-5.36,0-9.72,4.35-9.72,9.7
			c0,5.35,4.36,9.7,9.72,9.7s9.72-4.35,9.72-9.7c0-1.51-0.36-2.94-0.97-4.21c-0.41-0.99-0.9-1.99-1.41-3.02
			c-1.21-2.42-2.45-4.93-2.59-7.54c-0.1-1.82,0.34-4.33,1.87-5.94c1.06-1.11,2.51-1.66,4.44-1.66c6.94,0,7.48,5.93,7.48,7.74
			c0,4.96-2.21,9.4-4.36,13.69c-1.9,3.8-3.7,7.4-3.7,11.06c0,3.06,0.79,5.34,2.34,6.77c1.44,1.32,3.15,1.55,4.3,1.55
			c0.4,0,0.73-0.03,0.97-0.05l0.12-0.01c3.44,0,6.26-2.21,7.62-4.09C288.16,470.09,287.9,468.5,286.76,467.68z M261.51,461.56
			c-2.55,0-4.62-2.07-4.62-4.61s2.07-4.62,4.62-4.62c1.8,0,3.34,1.04,4.11,2.55c0.31,0.78,0.52,1.49,0.52,2.07
			C266.14,459.49,264.06,461.56,261.51,461.56z M73.3,431.88c-4.45,0-6.93,3.71-9.33,7.3c-2.61,3.91-5.08,7.59-9.9,7.59
			s-7.29-3.69-9.9-7.59c-2.4-3.59-4.88-7.3-9.33-7.3c-1.34,0-2.43,1.09-2.43,2.43c0,1.33,1.09,2.42,2.43,2.42
			c1.73,0,3.15,1.94,5.29,5.14c1.62,2.42,3.46,5.17,6.07,7.14c-4.33,2.65-7.23,7.41-7.23,12.84c0,8.32,6.78,15.08,15.1,15.08
			s15.1-6.77,15.1-15.08c0-5.43-2.9-10.19-7.23-12.84c2.6-1.96,4.44-4.71,6.07-7.14c2.14-3.2,3.56-5.14,5.29-5.14
			c1.34,0,2.43-1.09,2.43-2.42C75.73,432.97,74.64,431.88,73.3,431.88z M64.32,461.85c0,5.64-4.6,10.23-10.25,10.23
			s-10.25-4.59-10.25-10.23c0-5.65,4.6-10.23,10.25-10.23S64.32,456.2,64.32,461.85z M284.03,255.35
			c0-67.44-54.96-122.3-122.52-122.3S38.99,187.91,38.99,255.35s54.96,122.3,122.52,122.3S284.03,322.79,284.03,255.35z
			 M161.51,372.89c-64.92,0-117.74-52.72-117.74-117.54c0-64.81,52.82-117.54,117.74-117.54c64.93,0,117.74,52.73,117.74,117.54
			C279.25,320.16,226.43,372.89,161.51,372.89z M243.03,255.63c0-44.26-36.07-80.27-80.41-80.27c-44.34,0-80.41,36.01-80.41,80.27
			c0,44.26,36.07,80.26,80.41,80.26C206.96,335.89,243.03,299.89,243.03,255.63z M86.98,255.63c0-41.64,33.93-75.51,75.64-75.51
			c41.7,0,75.63,33.87,75.63,75.51c0,41.63-33.93,75.5-75.63,75.5C120.92,331.13,86.98,297.26,86.98,255.63z M168.75,319.41
			c0-1.32-1.07-2.38-2.39-2.38h-2.75V284.8c6.44-0.58,12.27-3.25,16.83-7.32l23.22,23.18l-1.95,1.95c-0.93,0.93-0.93,2.44,0,3.37
			c0.46,0.46,1.07,0.7,1.69,0.7c0.61,0,1.22-0.23,1.68-0.7l3.62-3.61c0.01-0.01,0.02-0.01,0.03-0.02c0.01-0.01,0.01-0.02,0.02-0.03
			l3.62-3.61c0.93-0.93,0.93-2.44,0-3.36c-0.93-0.93-2.44-0.93-3.38,0l-1.95,1.95l-23.3-23.26c3.65-4.51,5.96-10.11,6.4-16.23h32.79
			v2.74c0,1.32,1.07,2.38,2.39,2.38c1.32,0,2.39-1.06,2.39-2.38v-10.29c0-1.32-1.07-2.38-2.39-2.38c-1.32,0-2.39,1.06-2.39,2.38
			v2.78h-32.82c-0.55-6.05-2.94-11.56-6.61-15.98l23.53-23.49l1.67,1.67c0.47,0.46,1.08,0.7,1.69,0.7c0.61,0,1.22-0.23,1.69-0.7
			c0.93-0.93,0.93-2.44,0-3.37l-3.29-3.29c-0.03-0.03-0.03-0.06-0.05-0.08c-0.03-0.02-0.06-0.03-0.08-0.05l-3.86-3.85
			c-0.93-0.93-2.44-0.93-3.38,0c-0.93,0.93-0.93,2.44,0,3.36l2.24,2.23l-23.51,23.47c-4.52-3.92-10.24-6.49-16.54-7.06v-32.81h2.75
			c1.32,0,2.39-1.07,2.39-2.39c0-1.31-1.07-2.38-2.39-2.38h-10.31c-1.31,0-2.39,1.07-2.39,2.38c0,1.32,1.07,2.39,2.39,2.39h2.78
			v32.79c-6.12,0.44-11.72,2.75-16.23,6.39l-22.85-22.81l1.96-1.95c0.93-0.93,0.93-2.44,0-3.37c-0.93-0.93-2.44-0.93-3.38,0
			l-7.29,7.28c-0.93,0.93-0.93,2.44,0,3.36c0.47,0.47,1.08,0.7,1.69,0.7s1.22-0.23,1.69-0.7l1.96-1.95l22.78,22.74
			c-4.07,4.55-6.75,10.36-7.33,16.78H99.49v-2.78c0-1.32-1.07-2.38-2.39-2.38c-1.32,0-2.39,1.06-2.39,2.38v10.29
			c0,1.32,1.07,2.38,2.39,2.38c1.32,0,2.39-1.06,2.39-2.38v-2.74h32.31c0.47,6.5,3.06,12.4,7.1,17.04l-22.53,22.49l-2.24-2.23
			c-0.93-0.93-2.44-0.93-3.38,0c-0.93,0.93-0.93,2.44,0,3.37l7.29,7.27c0.46,0.46,1.08,0.7,1.69,0.7s1.22-0.23,1.69-0.7
			c0.93-0.93,0.93-2.44,0-3.37l-1.67-1.67l22.55-22.51c4.56,3.78,10.29,6.18,16.54,6.63v32.2h-2.78c-1.32,0-2.39,1.06-2.39,2.38
			s1.07,2.38,2.39,2.38h10.3C167.68,321.79,168.75,320.72,168.75,319.41z M180.34,270.65l-12.85-12.83h17.89
			C184.96,262.62,183.15,267.03,180.34,270.65z M185.33,253.05h-17.84l12.61-12.59C182.94,243.99,184.81,248.32,185.33,253.05z
			 M163.61,231.4c4.98,0.54,9.52,2.57,13.16,5.65l-13.16,13.14V231.4z M163.61,260.68l13.45,13.43c-3.69,3.21-8.33,5.36-13.45,5.91
			V260.68z M142.54,239.65l13.43,13.41h-19.35C137.18,247.94,139.32,243.32,142.54,239.65z M142.28,271.48
			c-3.19-3.76-5.26-8.48-5.7-13.67h19.39L142.28,271.48z M158.84,280.07c-4.95-0.43-9.47-2.33-13.14-5.26l13.14-13.12V280.07z
			 M158.84,249.18l-12.82-12.8c3.61-2.8,8.02-4.6,12.82-5.02V249.18z M230.53,187.81c1.61,1.51,5.59,0.5,7.1-2.01
			c1.51-2.51,0.75-6.11,0.75-6.11s-1.46-6.91-3.97-6.8c-2.52,0.11-4.78,2.62-3.52,5.64c1.26,3.01,2.62,4.4,1.8,5.1
			C231.86,184.32,228.92,186.3,230.53,187.81z M239.29,325.47c-2.77,1.92-7.12,7.53-7.12,7.53s-9.64-11.29-11.56-11.88
			c-1.93-0.58-3.02,0.42-3.35,2.26c-0.33,1.84,8.55,9.29,9.14,10.04c0.58,0.76,4.77,3.77,4.77,4.52c0,0.76,0.67,2.76,2.93,2.84
			c2.27,0.08,1.51-2.76,1.51-4.6s4.86-5.69,7.45-7.11c2.6-1.42,3.94-4.27,3.02-5.69C245.16,321.95,242.06,323.55,239.29,325.47z
			 M227.95,311.62c-1.24,1.02-1.23,3.4,2.29,6.24c3.52,2.84,5.28,4.77,6.79,3.51c1.51-1.26-0.09-4.35-2.6-7.11
			C231.92,311.5,229.8,310.11,227.95,311.62z M92.32,177.74c0,0,9.64,11.29,11.56,11.88c1.93,0.58,3.02-0.42,3.35-2.26
			c0.33-1.84-8.55-9.29-9.13-10.04c-0.59-0.76-4.78-3.77-4.78-4.52c0-0.76-0.67-2.76-2.93-2.84c-2.26-0.08-1.51,2.76-1.51,4.6
			c0,1.84-4.85,5.69-7.45,7.11c-2.6,1.42-3.94,4.27-3.02,5.69c0.92,1.42,4.02-0.17,6.79-2.09S92.32,177.74,92.32,177.74z
			 M87.46,189.36c-1.51,1.26,0.08,4.35,2.6,7.11c2.51,2.76,4.63,4.15,6.47,2.64c1.24-1.02,1.23-3.4-2.29-6.24
			C90.73,190.03,88.97,188.11,87.46,189.36z M86.53,323.47c-2.01,2.34-3.35,2.76-3.18,8.45c0.17,5.69,1.26,5.66,2.68,5.69
			c2.93,0.05,2.85-3.12,2.85-6.58c0-3.46,2.29-5.32,4.64-8.03c1.79-2.08,7.93-6.13,4.91-8.81
			C96.09,312.12,88.54,321.14,86.53,323.47z M310.3,275V18.61c0-1.55-0.6-2.99-1.7-4.09c-1.09-1.09-2.55-1.69-4.09-1.69H18.48
			c-1.55,0-3,0.6-4.09,1.69s-1.7,2.54-1.7,4.09v300.67c-0.06,0.27-0.08,0.54-0.05,0.82c0.01,0.08,0.04,0.16,0.05,0.23v37
			c-0.09,0.38-0.08,0.74,0,1.09v27.59c-0.04,0.19-0.07,0.39-0.07,0.6c0.01,0.17,0.03,0.33,0.07,0.49V489.2
			c0.04,2.21,1.84,3.99,4.07,3.99h117.31c0.01,0,0.01,0,0.01,0c0.01,0,0.01,0,0.01,0H306.1c2.26,0,4.21-1.95,4.21-4.2L310.3,275z
			 M229.61,17.59h74.89c0.28,0,0.53,0.1,0.72,0.3c0.2,0.2,0.3,0.44,0.3,0.72v109.54c-20.62,8.61-36.62,9.2-47.56,1.73
			c-16.83-11.49-16.29-38.69-16.29-38.97c0.02-0.65-0.23-1.28-0.69-1.74c-0.45-0.46-1.1-0.76-1.73-0.71
			c-12.32,0.2-21.88-3.05-28.45-9.73c-7.51-7.62-9.21-17.92-9.03-22.8c0.96-26.57,17.82-35.42,27.78-38.33
			C229.57,17.61,229.59,17.6,229.61,17.59z M17.46,18.61c0-0.28,0.1-0.52,0.3-0.72c0.2-0.2,0.44-0.3,0.72-0.3h106.94
			c0.48,2.15,0.66,3.92,0.7,5.1c0.44,13.36-2.85,23.83-9.78,31.1c-9.9,10.39-24.09,10.76-24.22,10.76
			c-1.21,0.02-2.21,0.93-2.34,2.13c-2.3,21.51-9.85,36.14-22.46,43.5c-20.58,12.01-48.34,0.8-49.86,0.17V18.61z M17.46,322.16
			c3.39,0.17,9.81,1.44,12.3,8.37c0.29,0.81,0.99,1.4,1.84,1.54c0.07,0.02,7.34,1.34,10.13,6.31c1.51,2.69,1.46,6.12-0.14,10.19
			c-3.93,9.98-18.85,8.33-24.14,7.4V322.16z M133.4,488.43H17.46v-99.48c30.22,0.77,37.19,32.33,37.48,33.7
			c0.19,0.92,0.92,1.65,1.84,1.84c0.93,0.19,1.88-0.17,2.43-0.94c13.21-18.26,35.55-14.26,39.1-12.76
			c10.19,4.28,16.94,10.38,20.08,18.14c4.56,11.29-0.14,22.48-0.18,22.58c-0.39,0.89-0.2,1.92,0.48,2.61
			c0.68,0.69,1.71,0.9,2.6,0.54c15.82-6.44,23.63,6.03,23.7,6.16C151.37,471.75,141.73,483.15,133.4,488.43z M141.32,488.43
			c8.96-7.94,13.92-19.52,7.81-29.99c-2.4-4.11-11.21-12.96-25.06-9.65c1.2-4.92,2.18-13.11-1.22-21.58
			c-3.62-9.01-11.25-16-22.67-20.8c-6.31-2.65-27.76-4.55-41.88,10.76c-3.39-9.84-14.05-32.44-40.83-33v-23.35
			c1.99,0.32,4.79,0.66,7.9,0.66c7.64,0,17.08-2.02,20.68-11.16c2.16-5.47,2.1-10.28-0.16-14.29c-3.08-5.44-9.35-7.62-12.12-8.34
			c-3.46-7.85-11.04-10.13-16.3-10.32V115.47c4.29,1.6,14.99,5.06,27.23,5.06c8.16,0,16.99-1.55,25.02-6.22
			c13.59-7.93,21.86-23.1,24.59-45.14c4.74-0.49,16.46-2.64,25.46-12.05c7.88-8.24,11.62-19.88,11.14-34.59
			c-0.04-1.19-0.19-2.9-0.58-4.94h87.48c-9.39,5.59-20.02,16.64-20.8,38.18c-0.26,7.01,2.32,18.1,10.4,26.31
			c7.08,7.2,17.01,10.94,29.54,11.16c0.24,7.44,2.32,29.64,18.32,40.57c5.89,4.02,12.94,6.03,21.12,6.03
			c8.52,0,18.26-2.2,29.15-6.56v25.99c-7.02,1.33-11.9,4.93-14.1,10.52c-2.16,5.48-2.1,10.29,0.16,14.29
			c3.93,6.95,13.08,8.58,13.47,8.65c0.14,0.03,0.27,0.04,0.41,0.04c0.02,0,0.04-0.01,0.07-0.02V275l0.01,116.9
			c-1.91-2.26-4.28-4.08-7.1-5.42c-7.62-3.61-17.24-2.92-23.39-0.64c-15.96,5.92-18.42,21.63-18.67,28.94
			c-11.81-4.44-23.7-4.46-33.83,0.01c-10.09,4.45-17.44,12.94-21.25,24.55c-5.38,16.4-0.86,35.18,11.46,49.1L141.32,488.43
			L141.32,488.43z M305.53,164.1v23.86c-1.45-0.33-7.34-1.9-9.78-6.22c-1.53-2.69-1.48-6.13,0.12-10.2
			C297.38,167.72,300.62,165.22,305.53,164.1z M219.34,488.43c-13.47-12.88-18.78-31.56-13.51-47.61
			c3.38-10.29,9.82-17.79,18.64-21.67c9.86-4.34,21.71-3.85,33.37,1.39c0.78,0.35,1.68,0.26,2.38-0.24c0.69-0.5,1.06-1.33,0.97-2.18
			c-0.02-0.21-2.04-21.29,15.52-27.8c5.04-1.87,13.35-2.52,19.68,0.48c4.19,1.98,7.11,5.33,8.7,9.94c0.1,0.3,0.26,0.55,0.44,0.78
			l0.01,86.93H219.34z M32.88,43.42c0.38,0,0.76-0.1,1.09-0.32l8.09-5.1l1.87,4.19c0.25,0.56,0.74,0.98,1.33,1.15
			c0.18,0.05,0.36,0.07,0.55,0.07c0.42,0,0.84-0.13,1.19-0.38l6.94-4.89l1.67,4c0.24,0.57,0.73,1.01,1.33,1.18
			c0.19,0.06,0.38,0.08,0.57,0.08c0.42,0,0.84-0.13,1.19-0.38l6.98-4.93l1.82,4.08c0.34,0.77,1.09,1.22,1.89,1.22
			c0.28,0,0.56-0.06,0.83-0.18c1.04-0.46,1.51-1.68,1.05-2.71l-2.83-6.37c-0.26-0.56-0.74-0.98-1.34-1.15
			c-0.18-0.05-0.36-0.08-0.55-0.08c-0.42,0-0.84,0.13-1.19,0.38l-6.94,4.89l-1.67-4c-0.24-0.57-0.73-1.01-1.33-1.18
			c-0.19-0.05-0.38-0.08-0.57-0.08c-0.42,0-0.83,0.12-1.19,0.38l-6.98,4.92l-1.82-4.08c-0.24-0.55-0.71-0.96-1.28-1.14
			c-0.2-0.06-0.4-0.08-0.6-0.08c-0.39,0-0.77,0.1-1.1,0.31l-10.1,6.37c-0.96,0.61-1.25,1.88-0.64,2.84
			C31.53,43.08,32.2,43.42,32.88,43.42z M45.81,59.45c0.42,0,0.84-0.13,1.19-0.38l6.94-4.89l1.67,4c0.24,0.57,0.73,1.01,1.33,1.18
			c0.19,0.06,0.38,0.08,0.57,0.08c0.42,0,0.84-0.13,1.19-0.38l6.98-4.93l1.82,4.08c0.34,0.77,1.09,1.22,1.89,1.22
			c0.28,0,0.56-0.06,0.83-0.18c1.04-0.46,1.51-1.68,1.05-2.72l-2.83-6.36c-0.26-0.56-0.74-0.98-1.34-1.15
			c-0.18-0.05-0.36-0.08-0.55-0.08c-0.42,0-0.83,0.13-1.19,0.38l-6.94,4.89l-1.67-4c-0.24-0.57-0.73-1.01-1.33-1.18
			c-0.19-0.05-0.38-0.08-0.57-0.08c-0.42,0-0.84,0.13-1.19,0.38l-6.98,4.92l-1.81-4.08c-0.24-0.55-0.71-0.96-1.29-1.14
			c-0.19-0.06-0.4-0.08-0.59-0.08c-0.39,0-0.77,0.1-1.1,0.31l-10.1,6.37c-0.96,0.6-1.25,1.88-0.64,2.84
			c0.39,0.62,1.06,0.96,1.74,0.96c0.38,0,0.76-0.1,1.1-0.32l8.08-5.1l1.87,4.19c0.25,0.56,0.74,0.98,1.33,1.15
			C45.45,59.42,45.63,59.45,45.81,59.45z M252.6,33.27c0.1,0.05,2.47,1.35,2.47,6.59v20.29c0,1.37,1.11,2.48,2.49,2.48
			s2.49-1.11,2.49-2.48V43.43c0-6.41,3.83-8.83,4.65-8.87c0.46,0,0.66,0.03,0.71,0.03c0.01,0,0.02-0.01,0.01-0.01
			c0.08,0.09,0.69,0.91,0.69,5.27v20.29c0,1.37,1.11,2.48,2.49,2.48s2.49-1.11,2.49-2.48V43.43c0-6.41,3.83-8.83,4.65-8.87
			c0.46,0,0.66,0.03,0.71,0.03c0.01,0,0.02-0.01,0.02-0.01c0.07,0.08,0.68,0.9,0.68,5.27v18.6c0,8.22,4.48,10.11,9.06,10.55
			l-0.04,0.04c-1.01,0.93-1.06,2.51-0.12,3.51c0.49,0.53,1.16,0.79,1.82,0.79c0.6,0,1.21-0.22,1.69-0.66l4.53-4.21
			c0.51-0.47,0.8-1.14,0.79-1.83c-0.01-0.7-0.3-1.36-0.82-1.82l-4.53-4.1c-0.48-0.43-1.08-0.64-1.67-0.64
			c-0.68,0-1.35,0.27-1.84,0.81c-0.81,0.89-0.81,2.18-0.13,3.11c-2.82-0.39-3.76-1.62-3.76-5.54v-18.6c0-6.34-1.07-10.27-6.39-10.27
			c-1.79,0-3.93,1.03-5.74,2.97c-0.92-1.91-2.53-2.97-5.29-2.97c-1.9,0-4.2,1.16-6.08,3.34c-1.47-2.99-3.61-4.04-3.96-4.19
			c-0.33-0.14-0.67-0.2-1.01-0.2c-0.97,0-1.91,0.55-2.31,1.48C250.8,31.28,251.34,32.73,252.6,33.27z"/>
	</g>
</g>
</svg>
