<?xml version="1.0" encoding="UTF-8"?>
<svg id="Layer_2" data-name="Layer 2" xmlns="http://www.w3.org/2000/svg" viewBox="0 0 44.55 44.59">
  <defs>
    <style>
      .cls-1 {
        fill: #fff;
      }
    </style>
  </defs>
  <g id="Layer_1-2" data-name="Layer 1">
    <g>
      <path d="M37.86,6.83c20.46,20.61-10.63,51.24-31,31.26C-13.9,17.73,17.12-14.06,37.86,6.83ZM8.35,37.35c3.07,2.42,10.31,8,13.32,3.49,2.99-9.99,3-28.24-.5-38.06-2.32-2.63-10.46,2.4-12.63,4.31C-.36,14.88-.41,29.43,8.35,37.35Z"/>
      <path class="cls-1" d="M8.35,37.35C-.41,29.43-.36,14.88,8.54,7.09c2.17-1.9,10.31-6.94,12.63-4.31.95,1.08,2.35,10.95,2.49,13.01.35,5.38.08,20.37-1.99,25.05-1.08,2.44-3.38,1.71-5.65,1.09-2.42-.65-5.8-2.89-7.67-4.58Z"/>
    </g>
  </g>
</svg>