<?xml version="1.0" encoding="UTF-8"?>
<svg id="Layer_2" data-name="Layer 2" xmlns="http://www.w3.org/2000/svg" viewBox="0 0 44.41 44.66">
  <defs>
    <style>
      .cls-1 {
        fill: #fff;
      }
    </style>
  </defs>
  <g id="Layer_1-2" data-name="Layer 1">
    <g>
      <path d="M8.14,5.49c22.17-18.54,49.36,14.31,29.23,32.98C15.59,58.67-14.72,24.6,8.14,5.49ZM24.07,6.48c-4.17-4.2-6.29-5.1-11.84-2.14-14.05,7.49-13.83,28.62.17,36.07,4.12,2.19,5.82,2.74,9.69-.21,10.7-8.16,11.35-24.28,1.98-33.71Z"/>
      <path class="cls-1" d="M24.07,6.48c9.37,9.44,8.71,25.55-1.98,33.71-3.86,2.95-5.57,2.4-9.69.21C-1.61,32.95-1.83,11.83,12.23,4.33c5.55-2.96,7.67-2.06,11.84,2.14Z"/>
    </g>
  </g>
</svg>