<?xml version="1.0" encoding="UTF-8"?>
<svg id="Layer_2" data-name="Layer 2" xmlns="http://www.w3.org/2000/svg" viewBox="0 0 43.77 43.91">
  <defs>
    <style>
      .cls-1 {
        fill: #fff;
      }
    </style>
  </defs>
  <g id="Layer_1-2" data-name="Layer 1">
    <g>
      <path d="M20.03.11c11-1.22,22.58,7.98,23.6,19.12C46.63,51.78-3.13,52.67.16,18.73,1.12,8.78,10.38,1.18,20.03.11ZM28.14,40.48c-10.7-5.03-15.34-17.12-9.58-27.84,2.38-4.42,5.68-6.52,9.57-9.42C19.13-1.3,7.73,4.41,3.45,13.02s-1.72,19.62,6.24,25.65c4.79,3.63,12.21,5.41,17.83,2.91.68-.3.79-.06.63-1.11Z"/>
      <path class="cls-1" d="M28.14,40.48c.16,1.05.05.81-.63,1.11-5.62,2.5-13.04.72-17.83-2.91C1.73,32.64-1.02,22.02,3.45,13.02S19.13-1.3,28.14,3.22c-3.9,2.89-7.19,4.99-9.57,9.42-5.77,10.72-1.12,22.81,9.58,27.84Z"/>
    </g>
  </g>
</svg>