<?xml version="1.0" encoding="UTF-8"?>
<svg id="Layer_2" data-name="Layer 2" xmlns="http://www.w3.org/2000/svg" viewBox="0 0 44.08 44.13">
  <g id="Layer_1-2" data-name="Layer 1">
    <g>
      <path d="M36.65,5.48c18.21,16.18.07,46.22-23.15,36.89C2.67,38.01-2.66,25.35,1.31,14.5,6.59.08,25.06-4.82,36.65,5.48ZM7.61,7.55c-15.25,15.47.63,40.92,21.13,33.88,10.8-3.71,16.32-15.73,12.56-26.38C36.39,1.12,18-2.98,7.61,7.55Z"/>
      <path d="M7.61,7.55C18-2.98,36.39,1.12,41.31,15.06c3.75,10.64-1.76,22.67-12.56,26.38C8.24,48.47-7.64,23.02,7.61,7.55Z"/>
    </g>
  </g>
</svg>