<svg xmlns="http://www.w3.org/2000/svg" xmlns:xlink="http://www.w3.org/1999/xlink" width="1080" zoomAndPan="magnify" viewBox="0 0 810 809.999993" height="1080" preserveAspectRatio="xMidYMid meet" version="1.0"><defs><clipPath id="24eea2ba38"><path d="M 274.40625 294 L 514.40625 294 L 514.40625 704.21875 L 274.40625 704.21875 Z M 274.40625 294 " clip-rule="nonzero"/></clipPath></defs><g clip-path="url(#24eea2ba38)"><path fill="#2e2e2e" d="M 510.351562 298.140625 C 507.753906 295.535156 504.296875 294.101562 500.625 294.101562 L 288.148438 294.101562 C 284.472656 294.101562 281.019531 295.535156 278.421875 298.140625 C 275.824219 300.742188 274.394531 304.203125 274.394531 307.886719 L 274.394531 690.304688 C 274.394531 693.984375 275.824219 697.445312 278.421875 700.050781 C 281.019531 702.652344 284.472656 704.085938 288.148438 704.085938 L 500.625 704.085938 C 504.296875 704.085938 507.753906 702.652344 510.347656 700.050781 C 512.949219 697.445312 514.378906 693.984375 514.378906 690.304688 L 514.378906 307.886719 C 514.378906 304.203125 512.949219 300.742188 510.351562 298.140625 Z M 510.832031 499.09375 L 510.832031 690.304688 C 510.832031 693.128906 509.691406 695.6875 507.84375 697.539062 C 505.996094 699.390625 503.441406 700.535156 500.625 700.535156 L 288.148438 700.535156 C 285.328125 700.535156 282.777344 699.390625 280.929688 697.539062 C 279.082031 695.6875 277.9375 693.128906 277.9375 690.304688 L 277.9375 307.886719 C 277.9375 305.0625 279.082031 302.503906 280.929688 300.652344 C 282.777344 298.800781 285.328125 297.65625 288.148438 297.65625 L 500.625 297.65625 C 503.441406 297.65625 505.996094 298.800781 507.84375 300.652344 C 509.691406 302.503906 510.832031 305.0625 510.832031 307.886719 Z M 504.917969 307.886719 C 504.917969 306.734375 504.46875 305.652344 503.660156 304.839844 C 502.847656 304.023438 501.765625 303.574219 500.617188 303.574219 L 288.140625 303.574219 C 286.992188 303.574219 285.910156 304.023438 285.101562 304.839844 C 284.289062 305.652344 283.839844 306.734375 283.839844 307.886719 L 283.839844 658.835938 C 283.871094 660.488281 285.210938 661.816406 286.863281 661.816406 L 501.804688 661.816406 C 503.480469 661.816406 504.933594 660.359375 504.933594 658.683594 L 504.917969 499.09375 Z M 488.957031 327.480469 C 490.800781 329.839844 493.449219 333.75 494.460938 337.796875 C 493.207031 341.382812 492.492188 344.851562 492.09375 347.679688 C 490.480469 344.738281 488.773438 342.222656 487.082031 340.046875 C 486.679688 335.636719 487.96875 330.554688 488.957031 327.480469 Z M 491.722656 355.082031 C 492.003906 355.75 492.65625 356.171875 493.355469 356.171875 C 493.476562 356.171875 493.597656 356.160156 493.71875 356.132812 C 494.550781 355.960938 495.140625 355.21875 495.128906 354.367188 C 495.128906 354.222656 495.023438 341.488281 501.371094 331.519531 L 501.371094 367.679688 L 487.410156 367.679688 C 485.167969 364.097656 478.992188 352.890625 475.597656 333.65625 C 479.3125 336.386719 486.648438 342.949219 491.722656 355.082031 Z M 488.609375 371.234375 L 501.375 371.234375 L 501.375 380.183594 L 488.605469 380.183594 Z M 501.152344 307.351562 C 501.296875 307.496094 501.375 307.675781 501.375 307.886719 L 501.375 325.628906 C 499.359375 327.898438 497.765625 330.398438 496.492188 332.953125 C 493.96875 327.363281 489.820312 322.984375 489.605469 322.757812 C 489.191406 322.324219 488.59375 322.128906 488 322.242188 C 487.414062 322.351562 486.917969 322.75 486.6875 323.300781 C 486.558594 323.613281 484.105469 329.574219 483.5625 335.941406 C 478.960938 331.132812 475.175781 329.097656 474.894531 328.949219 C 474.882812 328.941406 474.867188 328.941406 474.855469 328.933594 C 473.9375 322.46875 473.351562 315.207031 473.304688 307.128906 L 500.617188 307.128906 C 500.824219 307.128906 501.003906 307.203125 501.152344 307.351562 Z M 469.757812 307.128906 C 469.96875 344.96875 481.511719 365.179688 484.652344 369.976562 C 484.734375 370.246094 484.875 370.488281 485.0625 370.6875 L 484.992188 658.265625 L 303.5 658.265625 L 303.703125 382.042969 C 303.703125 382.015625 303.710938 381.988281 303.710938 381.960938 C 303.710938 381.933594 303.703125 381.90625 303.703125 381.878906 L 303.710938 370.597656 C 306.125 367.132812 319.25 346.496094 319.621094 307.128906 Z M 302.453125 338.898438 C 302.449219 338.957031 302.453125 339.011719 302.453125 339.070312 C 300.5 341.46875 298.5 344.347656 296.628906 347.773438 C 296.179688 344.703125 295.367188 340.867188 293.902344 336.933594 C 295.050781 332.8125 297.871094 329.046875 299.671875 326.96875 C 301.003906 329.574219 302.972656 334.339844 302.453125 338.898438 Z M 293.644531 354.390625 C 293.644531 355.238281 294.238281 355.96875 295.066406 356.136719 C 295.183594 356.160156 295.300781 356.171875 295.417969 356.171875 C 296.117188 356.171875 296.769531 355.75 297.050781 355.082031 C 302.351562 342.410156 310.128906 335.800781 313.65625 333.300781 C 310.101562 352.640625 303.675781 364.058594 301.375 367.679688 L 287.382812 367.679688 L 287.382812 362.222656 L 289.746094 362.222656 C 290.726562 362.222656 291.519531 361.425781 291.519531 360.445312 C 291.519531 359.464844 290.726562 358.667969 289.746094 358.667969 L 287.382812 358.667969 L 287.382812 331.609375 C 293.566406 341.566406 293.644531 354.246094 293.644531 354.390625 Z M 287.382812 371.234375 L 300.164062 371.234375 L 300.15625 380.183594 L 287.382812 380.183594 Z M 287.605469 307.351562 C 287.753906 307.203125 287.933594 307.128906 288.140625 307.128906 L 316.074219 307.128906 C 315.996094 315.125 315.371094 322.339844 314.402344 328.78125 C 314.222656 328.808594 314.046875 328.859375 313.875 328.949219 C 313.609375 329.089844 310.210938 330.933594 305.953125 335.195312 C 305.242188 328.773438 301.683594 323.285156 301.503906 323.007812 C 301.214844 322.570312 300.746094 322.28125 300.222656 322.222656 C 299.707031 322.160156 299.179688 322.335938 298.800781 322.699219 C 298.582031 322.90625 294.441406 326.90625 291.867188 332.3125 C 290.664062 329.984375 289.1875 327.71875 287.386719 325.644531 L 287.386719 322.253906 L 291.871094 322.253906 C 292.847656 322.253906 293.644531 321.460938 293.644531 320.480469 C 293.644531 319.496094 292.847656 318.703125 291.871094 318.703125 L 287.386719 318.703125 L 287.386719 314.253906 L 304.777344 314.253906 C 305.757812 314.253906 306.550781 313.457031 306.550781 312.476562 C 306.550781 311.496094 305.757812 310.699219 304.777344 310.699219 L 287.386719 310.699219 L 287.386719 307.886719 C 287.382812 307.675781 287.460938 307.496094 287.605469 307.351562 Z M 287.382812 651.871094 L 290.871094 651.871094 C 291.851562 651.871094 292.644531 651.074219 292.644531 650.09375 C 292.644531 649.113281 291.851562 648.316406 290.871094 648.316406 L 287.382812 648.316406 L 287.382812 643.769531 L 290.871094 643.769531 C 291.851562 643.769531 292.644531 642.976562 292.644531 641.996094 C 292.644531 641.011719 291.851562 640.21875 290.871094 640.21875 L 287.382812 640.21875 L 287.382812 635.671875 L 290.871094 635.671875 C 291.851562 635.671875 292.644531 634.875 292.644531 633.894531 C 292.644531 632.914062 291.851562 632.117188 290.871094 632.117188 L 287.382812 632.117188 L 287.382812 627.570312 L 290.871094 627.570312 C 291.851562 627.570312 292.644531 626.777344 292.644531 625.796875 C 292.644531 624.816406 291.851562 624.019531 290.871094 624.019531 L 287.382812 624.019531 L 287.382812 619.472656 L 290.871094 619.472656 C 291.851562 619.472656 292.644531 618.675781 292.644531 617.695312 C 292.644531 616.714844 291.851562 615.921875 290.871094 615.921875 L 287.382812 615.921875 L 287.382812 611.375 L 290.871094 611.375 C 291.851562 611.375 292.644531 610.578125 292.644531 609.597656 C 292.644531 608.617188 291.851562 607.820312 290.871094 607.820312 L 287.382812 607.820312 L 287.382812 603.273438 L 290.871094 603.273438 C 291.851562 603.273438 292.644531 602.476562 292.644531 601.496094 C 292.644531 600.515625 291.851562 599.71875 290.871094 599.71875 L 287.382812 599.71875 L 287.382812 595.171875 L 290.871094 595.171875 C 291.851562 595.171875 292.644531 594.378906 292.644531 593.398438 C 292.644531 592.417969 291.851562 591.621094 290.871094 591.621094 L 287.382812 591.621094 L 287.382812 587.074219 L 290.871094 587.074219 C 291.851562 587.074219 292.644531 586.277344 292.644531 585.296875 C 292.644531 584.316406 291.851562 583.519531 290.871094 583.519531 L 287.382812 583.519531 L 287.382812 578.972656 L 290.871094 578.972656 C 291.851562 578.972656 292.644531 578.179688 292.644531 577.199219 C 292.644531 576.21875 291.851562 575.421875 290.871094 575.421875 L 287.382812 575.421875 L 287.382812 570.875 L 290.871094 570.875 C 291.851562 570.875 292.644531 570.078125 292.644531 569.097656 C 292.644531 568.117188 291.851562 567.324219 290.871094 567.324219 L 287.382812 567.324219 L 287.382812 562.777344 L 290.871094 562.777344 C 291.851562 562.777344 292.644531 561.980469 292.644531 561 C 292.644531 560.019531 291.851562 559.222656 290.871094 559.222656 L 287.382812 559.222656 L 287.382812 554.675781 L 290.871094 554.675781 C 291.851562 554.675781 292.644531 553.882812 292.644531 552.898438 C 292.644531 551.917969 291.851562 551.125 290.871094 551.125 L 287.382812 551.125 L 287.382812 546.578125 L 290.871094 546.578125 C 291.851562 546.578125 292.644531 545.785156 292.644531 544.800781 C 292.644531 543.820312 291.851562 543.027344 290.871094 543.027344 L 287.382812 543.027344 L 287.382812 538.476562 L 290.871094 538.476562 C 291.851562 538.476562 292.644531 537.683594 292.644531 536.703125 C 292.644531 535.71875 291.851562 534.925781 290.871094 534.925781 L 287.382812 534.925781 L 287.382812 530.378906 L 290.871094 530.378906 C 291.851562 530.378906 292.644531 529.582031 292.644531 528.601562 C 292.644531 527.621094 291.851562 526.824219 290.871094 526.824219 L 287.382812 526.824219 L 287.382812 522.28125 L 290.871094 522.28125 C 291.851562 522.28125 292.644531 521.484375 292.644531 520.503906 C 292.644531 519.523438 291.851562 518.726562 290.871094 518.726562 L 287.382812 518.726562 L 287.382812 514.179688 L 290.871094 514.179688 C 291.851562 514.179688 292.644531 513.382812 292.644531 512.402344 C 292.644531 511.421875 291.851562 510.625 290.871094 510.625 L 287.382812 510.625 L 287.382812 506.078125 L 290.871094 506.078125 C 291.851562 506.078125 292.644531 505.285156 292.644531 504.304688 C 292.644531 503.320312 291.851562 502.527344 290.871094 502.527344 L 287.382812 502.527344 L 287.382812 497.980469 L 290.871094 497.980469 C 291.851562 497.980469 292.644531 497.1875 292.644531 496.207031 C 292.644531 495.222656 291.851562 494.429688 290.871094 494.429688 L 287.382812 494.429688 L 287.382812 489.882812 L 290.871094 489.882812 C 291.851562 489.882812 292.644531 489.085938 292.644531 488.105469 C 292.644531 487.125 291.851562 486.328125 290.871094 486.328125 L 287.382812 486.328125 L 287.382812 481.78125 L 290.871094 481.78125 C 291.851562 481.78125 292.644531 480.988281 292.644531 480.003906 C 292.644531 479.023438 291.851562 478.230469 290.871094 478.230469 L 287.382812 478.230469 L 287.382812 473.683594 L 290.871094 473.683594 C 291.851562 473.683594 292.644531 472.886719 292.644531 471.90625 C 292.644531 470.925781 291.851562 470.128906 290.871094 470.128906 L 287.382812 470.128906 L 287.382812 465.582031 L 290.871094 465.582031 C 291.851562 465.582031 292.644531 464.789062 292.644531 463.804688 C 292.644531 462.824219 291.851562 462.03125 290.871094 462.03125 L 287.382812 462.03125 L 287.382812 457.484375 L 290.871094 457.484375 C 291.851562 457.484375 292.644531 456.6875 292.644531 455.707031 C 292.644531 454.726562 291.851562 453.929688 290.871094 453.929688 L 287.382812 453.929688 L 287.382812 449.382812 L 290.871094 449.382812 C 291.851562 449.382812 292.644531 448.589844 292.644531 447.605469 C 292.644531 446.625 291.851562 445.832031 290.871094 445.832031 L 287.382812 445.832031 L 287.382812 441.285156 L 290.871094 441.285156 C 291.851562 441.285156 292.644531 440.488281 292.644531 439.507812 C 292.644531 438.527344 291.851562 437.730469 290.871094 437.730469 L 287.382812 437.730469 L 287.382812 433.183594 L 290.871094 433.183594 C 291.851562 433.183594 292.644531 432.390625 292.644531 431.40625 C 292.644531 430.425781 291.851562 429.632812 290.871094 429.632812 L 287.382812 429.632812 L 287.382812 425.085938 L 290.871094 425.085938 C 291.851562 425.085938 292.644531 424.289062 292.644531 423.308594 C 292.644531 422.328125 291.851562 421.53125 290.871094 421.53125 L 287.382812 421.53125 L 287.382812 416.984375 L 290.871094 416.984375 C 291.851562 416.984375 292.644531 416.191406 292.644531 415.207031 C 292.644531 414.226562 291.851562 413.433594 290.871094 413.433594 L 287.382812 413.433594 L 287.382812 408.886719 L 290.871094 408.886719 C 291.851562 408.886719 292.644531 408.089844 292.644531 407.109375 C 292.644531 406.128906 291.851562 405.332031 290.871094 405.332031 L 287.382812 405.332031 L 287.382812 400.785156 L 290.871094 400.785156 C 291.851562 400.785156 292.644531 399.992188 292.644531 399.007812 C 292.644531 398.027344 291.851562 397.234375 290.871094 397.234375 L 287.382812 397.234375 L 287.382812 392.6875 L 290.871094 392.6875 C 291.851562 392.6875 292.644531 391.890625 292.644531 390.910156 C 292.644531 389.929688 291.851562 389.132812 290.871094 389.132812 L 287.382812 389.132812 L 287.382812 383.734375 L 300.15625 383.734375 L 299.953125 658.261719 L 287.386719 658.261719 L 287.386719 651.871094 Z M 488.539062 658.265625 L 488.605469 383.738281 L 501.375 383.738281 L 501.375 499.09375 L 501.386719 658.265625 Z M 386.871094 336.582031 L 386.871094 317.847656 C 386.871094 316.867188 387.664062 316.070312 388.644531 316.070312 C 389.621094 316.070312 390.417969 316.867188 390.417969 317.847656 L 390.417969 336.582031 C 390.417969 337.5625 389.621094 338.359375 388.644531 338.359375 C 387.664062 338.359375 386.871094 337.5625 386.871094 336.582031 Z M 398.355469 336.582031 L 398.355469 317.847656 C 398.355469 316.867188 399.148438 316.070312 400.128906 316.070312 C 401.105469 316.070312 401.902344 316.867188 401.902344 317.847656 L 401.902344 336.582031 C 401.902344 337.5625 401.105469 338.359375 400.128906 338.359375 C 399.148438 338.359375 398.355469 337.5625 398.355469 336.582031 Z M 400.589844 460.078125 C 401.550781 459.863281 402.496094 460.457031 402.714844 461.414062 C 402.929688 462.367188 402.335938 463.320312 401.382812 463.539062 C 398.792969 464.132812 396.363281 464.332031 394.265625 464.332031 C 390.160156 464.332031 387.34375 463.566406 387.167969 463.519531 C 386.226562 463.257812 385.671875 462.28125 385.933594 461.335938 C 386.195312 460.390625 387.171875 459.839844 388.113281 460.097656 C 388.167969 460.109375 393.84375 461.621094 400.589844 460.078125 Z M 398.515625 467.695312 C 398.628906 468.671875 397.929688 469.550781 396.957031 469.664062 C 396.066406 469.765625 395.199219 469.800781 394.4375 469.800781 C 392.949219 469.800781 391.867188 469.667969 391.800781 469.660156 C 390.828125 469.542969 390.140625 468.65625 390.257812 467.683594 C 390.378906 466.710938 391.238281 466.011719 392.230469 466.136719 C 392.253906 466.140625 394.355469 466.386719 396.554688 466.132812 C 397.535156 466.019531 398.40625 466.722656 398.515625 467.695312 Z M 394.386719 453.449219 C 394.945312 453.449219 395.550781 453.242188 395.734375 453.164062 C 396.632812 452.777344 397.671875 453.1875 398.0625 454.082031 C 398.453125 454.976562 398.054688 456.019531 397.164062 456.414062 C 397.027344 456.472656 395.804688 457 394.386719 457 C 392.96875 457 391.746094 456.472656 391.609375 456.414062 C 390.714844 456.015625 390.3125 454.964844 390.710938 454.070312 C 391.105469 453.175781 392.144531 452.769531 393.042969 453.164062 C 393.226562 453.246094 393.828125 453.449219 394.386719 453.449219 Z M 346.308594 397.257812 C 346.402344 397.277344 355.917969 398.980469 361.488281 407.035156 C 366.507812 414.289062 366.4375 424.074219 366.441406 424.074219 L 366.148438 427.929688 C 333.925781 463.714844 324.039062 514.796875 321.351562 534.121094 C 319.550781 527.636719 318.566406 520.816406 318.566406 513.765625 C 318.566406 513.4375 318.578125 513.109375 318.585938 512.785156 L 318.609375 512.109375 C 318.625 511.25 318.027344 510.5 317.1875 510.332031 C 316.347656 510.164062 315.503906 510.621094 315.1875 511.421875 C 311.238281 521.4375 309.234375 531.980469 309.234375 542.757812 C 309.234375 589.8125 347.433594 628.09375 394.386719 628.09375 C 441.339844 628.09375 479.539062 589.8125 479.539062 542.757812 C 479.539062 531.980469 477.535156 521.4375 473.585938 511.417969 C 473.269531 510.621094 472.425781 510.164062 471.585938 510.332031 C 470.742188 510.503906 470.144531 511.253906 470.164062 512.113281 L 470.183594 512.761719 C 470.195312 513.097656 470.207031 513.429688 470.207031 513.765625 C 470.207031 521.183594 469.121094 528.347656 467.136719 535.132812 C 464.660156 516.648438 455.011719 464.421875 422.257812 427.996094 L 422.335938 424.183594 C 422.335938 424.085938 422.242188 414.324219 427.285156 407.035156 C 432.855469 398.980469 442.371094 397.277344 442.460938 397.261719 C 443.289062 397.121094 443.90625 396.421875 443.941406 395.585938 C 443.976562 394.746094 443.421875 393.996094 442.609375 393.789062 C 442.402344 393.734375 424.144531 389.261719 412.828125 401.621094 C 412.195312 391.96875 404.175781 384.304688 394.386719 384.304688 C 384.597656 384.304688 376.578125 391.96875 375.945312 401.625 C 364.632812 389.261719 346.371094 393.734375 346.164062 393.789062 C 345.351562 393.996094 344.800781 394.742188 344.835938 395.582031 C 344.867188 396.417969 345.484375 397.117188 346.308594 397.257812 Z M 418.808594 423.183594 C 418.789062 423.746094 418.789062 424.109375 418.792969 424.171875 L 418.734375 426.863281 C 415.496094 427.351562 406.847656 428.449219 394.386719 428.449219 C 382.109375 428.449219 373.246094 427.546875 369.765625 427.121094 L 369.980469 424.238281 C 369.984375 424.167969 369.984375 423.808594 369.964844 423.257812 C 374.203125 423.636719 384.980469 424.515625 394.101562 424.515625 C 403.898438 424.515625 415.40625 423.503906 418.808594 423.183594 Z M 412.824219 439.515625 L 411.472656 439.191406 C 410.976562 439.074219 410.476562 439.179688 410.082031 439.445312 C 408.597656 440.027344 404.710938 441.121094 402.554688 439.894531 C 401.707031 439.40625 400.625 439.707031 400.140625 440.558594 C 399.652344 441.414062 399.953125 442.496094 400.804688 442.980469 C 402.144531 443.746094 403.679688 444.011719 405.164062 444.011719 C 407.796875 444.011719 410.261719 443.179688 411.261719 442.792969 L 412.957031 443.199219 C 413.097656 443.234375 413.234375 443.25 413.371094 443.25 C 413.769531 443.25 414.144531 443.113281 414.449219 442.878906 C 415.480469 444.816406 416.75 446.882812 418.316406 449.03125 C 418.117188 450.601562 417.824219 452.171875 417.378906 453.816406 C 416.972656 455.328125 416.496094 456.773438 415.960938 458.164062 L 412.386719 465.1875 C 411.808594 466.066406 411.199219 466.917969 410.550781 467.71875 C 407.109375 471.957031 402.683594 474.757812 398.078125 475.609375 C 391.527344 476.816406 383.921875 473.910156 378.726562 468.191406 C 376.761719 466.027344 375.140625 463.472656 373.804688 460.476562 L 372.683594 457.410156 L 371.601562 454.222656 C 371.132812 452.492188 370.734375 450.621094 370.386719 448.640625 C 371.980469 446.433594 373.257812 444.320312 374.273438 442.359375 C 374.589844 442.636719 374.996094 442.804688 375.433594 442.804688 C 375.535156 442.804688 375.640625 442.796875 375.746094 442.777344 L 377.304688 442.5 C 378.320312 442.945312 380.789062 443.894531 383.429688 443.894531 C 384.742188 443.894531 386.09375 443.660156 387.316406 443.003906 C 388.179688 442.542969 388.507812 441.46875 388.046875 440.601562 C 387.585938 439.734375 386.511719 439.410156 385.648438 439.871094 C 383.445312 441.046875 379.679688 439.714844 378.414062 439.105469 C 378.097656 438.953125 377.761719 438.90625 377.4375 438.941406 C 377.285156 438.925781 377.128906 438.925781 376.96875 438.953125 L 375.773438 439.164062 C 377.222656 435.738281 377.847656 433.019531 378.105469 431.464844 C 382.410156 431.757812 387.898438 432 394.386719 432 C 400.753906 432 406.101562 431.726562 410.296875 431.386719 C 410.601562 433.113281 411.292969 435.972656 412.824219 439.515625 Z M 420.726562 585.011719 C 435.316406 561.699219 429.597656 503.5 429.070312 498.488281 C 429.167969 498.152344 429.496094 497.796875 429.976562 497.515625 C 430.496094 497.207031 431.984375 496.570312 434.847656 496.917969 C 435.199219 500.539062 437.800781 529.070312 435.445312 551.867188 C 433.34375 572.253906 429.613281 579.820312 428.621094 581.527344 C 426.066406 582.828125 423.4375 584.003906 420.726562 585.011719 Z M 347.101562 522.296875 C 346.917969 522.367188 343.550781 523.648438 339.042969 525.929688 C 339.855469 523.765625 340.488281 521.578125 340.976562 519.449219 C 340.984375 519.445312 341 519.441406 341.007812 519.4375 C 343.492188 517.964844 345.78125 516.914062 347.335938 516.265625 C 347.257812 518.195312 347.191406 520.210938 347.140625 522.289062 C 347.125 522.292969 347.113281 522.292969 347.101562 522.296875 Z M 342.59375 503.152344 C 344.035156 501.785156 345.328125 500.410156 346.503906 499.035156 C 347.191406 498.796875 347.84375 498.601562 348.457031 498.433594 C 348.359375 499.546875 348.234375 501.042969 348.101562 502.84375 C 347.085938 503.21875 345.074219 504.023438 342.609375 505.289062 C 342.617188 504.398438 342.605469 503.667969 342.59375 503.152344 Z M 446.542969 515.105469 C 442.789062 513.121094 439.917969 512.160156 439.777344 512.113281 C 439.675781 512.078125 439.574219 512.058594 439.476562 512.042969 C 439.371094 509.996094 439.257812 508.085938 439.144531 506.351562 C 440.507812 506.878906 443.058594 507.960938 445.921875 509.609375 C 446.042969 511.265625 446.238281 513.125 446.542969 515.105469 Z M 377.699219 485.765625 C 379.210938 486.726562 381.6875 487.695312 385.769531 488.25 L 387.050781 488.4375 C 391.09375 489.085938 392.21875 491.828125 392.527344 493.367188 C 392.496094 493.503906 392.472656 493.644531 392.472656 493.789062 L 392.472656 494.617188 C 379.394531 494.269531 376.421875 490.105469 375.984375 489.335938 C 376.671875 488.136719 377.246094 486.929688 377.699219 485.765625 Z M 396.167969 493.785156 C 396.351562 492.441406 397.25 489.15625 401.722656 488.4375 C 401.765625 488.433594 401.8125 488.421875 401.859375 488.410156 L 402.929688 488.152344 C 406.746094 487.679688 409.148438 486.761719 410.675781 485.773438 C 411.140625 487.082031 411.765625 488.441406 412.523438 489.785156 C 411.777344 490.945312 408.550781 494.296875 396.167969 494.613281 C 396.179688 494.53125 396.195312 494.445312 396.195312 494.359375 C 396.195312 494.179688 396.1875 493.988281 396.167969 493.785156 Z M 409.726562 482.003906 C 409.480469 482.351562 408.03125 483.957031 402.398438 484.636719 C 402.328125 484.644531 402.261719 484.65625 402.191406 484.675781 L 401.089844 484.941406 C 397.785156 485.492188 395.679688 487.101562 394.386719 488.929688 C 393.082031 487.089844 390.945312 485.464844 387.589844 484.929688 L 386.265625 484.734375 C 380.160156 483.898438 378.878906 482.234375 378.746094 482.035156 C 378.746094 482.03125 378.742188 482.027344 378.742188 482.023438 C 378.835938 481.4375 378.886719 480.878906 378.886719 480.367188 L 378.886719 473.800781 L 378.964844 473.320312 C 383.679688 477.257812 389.390625 479.441406 394.96875 479.441406 C 396.230469 479.441406 397.488281 479.332031 398.722656 479.101562 C 402.589844 478.386719 406.324219 476.515625 409.589844 473.738281 L 409.589844 480.367188 C 409.589844 480.871094 409.644531 481.425781 409.726562 482.003906 Z M 356.667969 472.117188 C 356.886719 472.980469 357.175781 473.796875 357.546875 474.542969 C 359.128906 477.746094 361.890625 479.4375 365.53125 479.4375 C 370.230469 479.4375 373.527344 479.085938 375.339844 478.824219 L 375.339844 480.367188 C 375.339844 483.050781 373.410156 487.910156 369.964844 491.691406 C 367.902344 491.871094 356.5 492.902344 351.273438 494.28125 C 350.855469 494.328125 350.417969 494.390625 349.96875 494.464844 C 355.515625 486.117188 356.800781 478.105469 356.667969 472.117188 Z M 342.441406 509.414062 C 344.550781 508.21875 346.464844 507.34375 347.832031 506.773438 C 347.722656 508.488281 347.613281 510.367188 347.511719 512.375 C 346.457031 512.765625 344.371094 513.601562 341.832031 514.917969 C 342.136719 512.933594 342.324219 511.066406 342.441406 509.414062 Z M 347.40625 544.203125 C 344.90625 545.308594 336.652344 549.265625 331.117188 555.570312 C 330.074219 553.988281 329.089844 552.367188 328.160156 550.703125 C 333.652344 543.566406 343.578125 538.460938 347.113281 536.792969 C 347.171875 539.265625 347.265625 541.746094 347.40625 544.203125 Z M 347.65625 548.007812 C 347.761719 549.429688 347.886719 550.839844 348.03125 552.230469 C 348.128906 553.191406 348.234375 554.117188 348.339844 555.019531 C 346.058594 556.101562 340.527344 558.992188 336.875 563.195312 C 335.601562 561.707031 334.378906 560.179688 333.21875 558.59375 C 337.554688 553.289062 344.410156 549.566406 347.65625 548.007812 Z M 348.808594 558.753906 C 349.191406 561.511719 349.597656 563.96875 350.019531 566.164062 C 348.601562 566.863281 345.933594 568.359375 343.972656 570.457031 C 342.339844 568.996094 340.777344 567.460938 339.273438 565.867188 C 341.996094 562.554688 346.320312 560.027344 348.808594 558.753906 Z M 350.777344 569.773438 C 351.503906 572.949219 352.242188 575.425781 352.929688 577.335938 C 350.765625 575.914062 348.675781 574.390625 346.675781 572.761719 C 347.917969 571.46875 349.570312 570.429688 350.777344 569.773438 Z M 358.316406 580.585938 C 357.375 579.148438 353.671875 572.34375 351.554688 551.867188 C 349.335938 530.351562 351.53125 503.71875 352.078125 497.761719 C 355.566406 497.480469 357.421875 498.546875 358.769531 499.4375 C 357.984375 508.398438 353.925781 562.625 367.941406 584.96875 C 364.617188 583.726562 361.402344 582.261719 358.316406 580.585938 Z M 373.90625 586.90625 C 357.40625 570.082031 361.402344 510.828125 362.261719 500.234375 C 364.71875 499.742188 366.957031 498.6875 368.9375 497.277344 C 369.761719 504.070312 372.921875 519.3125 384.757812 522 C 384.890625 522.03125 385.019531 522.042969 385.152344 522.042969 C 385.960938 522.042969 386.691406 521.484375 386.878906 520.660156 C 387.09375 519.703125 386.496094 518.75 385.542969 518.535156 C 374.242188 515.96875 372.453125 497.648438 372.226562 494.398438 C 372.816406 493.773438 373.371094 493.125 373.890625 492.457031 C 375.90625 494.6875 380.8125 497.878906 392.472656 498.171875 L 392.472656 589.699219 C 386.054688 589.539062 379.835938 588.578125 373.90625 586.90625 Z M 396.015625 498.175781 C 407.453125 497.910156 412.417969 495.117188 414.570312 492.878906 C 414.867188 493.269531 415.171875 493.648438 415.496094 494.019531 C 415.480469 494.089844 415.460938 494.15625 415.453125 494.226562 C 412.925781 516.355469 402.914062 518.269531 402.707031 518.304688 C 401.746094 518.4375 401.070312 519.316406 401.1875 520.285156 C 401.300781 521.183594 402.0625 521.839844 402.945312 521.839844 C 403.019531 521.839844 403.09375 521.835938 403.167969 521.828125 C 403.675781 521.761719 415.300781 520.039062 418.667969 496.992188 C 420.6875 498.527344 423.027344 499.679688 425.675781 500.207031 C 426.640625 510.675781 431.316406 570.125 414.773438 586.933594 C 408.785156 588.613281 402.5 589.566406 396.015625 589.707031 Z M 436.359375 569.3125 C 437.5625 569.90625 440.074219 571.273438 441.664062 573.101562 C 439.148438 575.121094 436.507812 576.996094 433.742188 578.6875 C 434.554688 576.445312 435.46875 573.398438 436.359375 569.3125 Z M 444.382812 570.820312 C 441.753906 567.777344 437.5 565.914062 437.074219 565.730469 C 437.488281 563.503906 437.886719 561.027344 438.257812 558.277344 C 440.480469 559.34375 446.027344 562.273438 449.09375 566.292969 C 447.585938 567.867188 446.015625 569.378906 444.382812 570.820312 Z M 451.511719 563.644531 C 447.085938 558.238281 439.425781 554.882812 438.71875 554.582031 C 438.804688 553.816406 438.890625 553.035156 438.972656 552.230469 C 439.132812 550.691406 439.269531 549.128906 439.386719 547.546875 C 442.011719 548.734375 450.402344 552.871094 455.203125 559.089844 C 454.035156 560.660156 452.792969 562.171875 451.511719 563.644531 Z M 457.328125 556.078125 C 450.925781 548.433594 440.351562 544.078125 439.882812 543.890625 C 439.796875 543.855469 439.707031 543.832031 439.621094 543.8125 C 439.753906 541.328125 439.84375 538.824219 439.898438 536.332031 C 441.875 537.203125 453.9375 542.769531 460.074219 550.976562 C 460.144531 551.070312 460.226562 551.148438 460.3125 551.226562 C 459.371094 552.878906 458.386719 554.503906 457.328125 556.078125 Z M 439.652344 515.847656 C 441.078125 516.398438 443.894531 517.585938 447.015625 519.4375 C 447.140625 519.511719 447.273438 519.5625 447.410156 519.601562 C 447.910156 521.75 448.554688 523.957031 449.386719 526.136719 C 444.675781 523.726562 441.113281 522.367188 440.921875 522.296875 C 440.570312 522.164062 440.203125 522.15625 439.863281 522.242188 C 439.808594 520.027344 439.734375 517.890625 439.652344 515.847656 Z M 445.742188 505.460938 C 442.105469 503.558594 439.351562 502.636719 439.210938 502.589844 C 439.101562 502.554688 438.988281 502.53125 438.875 502.515625 C 438.722656 500.464844 438.582031 498.832031 438.484375 497.738281 C 439.4375 498.039062 440.472656 498.410156 441.613281 498.902344 C 441.667969 498.925781 441.722656 498.9375 441.773438 498.953125 C 442.96875 500.355469 444.28125 501.757812 445.753906 503.152344 C 445.738281 503.699219 445.730469 504.488281 445.742188 505.460938 Z M 433.894531 493.277344 C 433.785156 493.234375 433.667969 493.199219 433.542969 493.175781 C 433.035156 493.089844 421.714844 491.109375 417.363281 490.660156 C 415.183594 487.847656 413.773438 484.621094 413.3125 482.066406 C 413.3125 482.0625 413.316406 482.058594 413.316406 482.058594 C 413.324219 481.8125 413.28125 481.574219 413.199219 481.359375 C 413.15625 481.011719 413.136719 480.679688 413.136719 480.367188 L 413.136719 478.742188 C 415.195312 479.042969 418.773438 479.4375 423.40625 479.4375 C 427.144531 479.4375 430.085938 477.671875 431.703125 474.472656 C 431.929688 479.988281 433.445312 486.816406 438.015625 493.917969 C 436.453125 493.523438 435.085938 493.328125 433.894531 493.277344 Z M 368.574219 430.554688 C 369.675781 430.699219 371.695312 430.941406 374.539062 431.1875 C 373.859375 434.703125 371.101562 444.398438 360.507812 454.476562 L 359.898438 455.011719 C 359.8125 455.085938 359.738281 455.167969 359.671875 455.253906 C 357.515625 457.230469 355.066406 459.214844 352.257812 461.164062 C 351.574219 461.636719 351.3125 462.53125 351.628906 463.300781 C 351.953125 464.09375 359.351562 482.902344 339.589844 501.101562 C 339.199219 501.460938 338.988281 501.980469 339.019531 502.511719 C 339.023438 502.59375 339.132812 504.765625 338.9375 508.046875 C 338.910156 508.195312 338.902344 508.339844 338.910156 508.492188 C 338.347656 517.105469 335.710938 532.675781 324.289062 539.113281 C 325.832031 525.425781 334.121094 469.011719 368.574219 430.554688 Z M 336.578125 531.285156 C 341.019531 528.75 345.082031 526.964844 347.066406 526.140625 C 347.039062 528.359375 347.03125 530.632812 347.050781 532.925781 C 347.046875 532.925781 347.042969 532.925781 347.039062 532.929688 C 346.476562 533.164062 333.855469 538.53125 326.367188 547.289062 C 325.679688 545.890625 325.027344 544.472656 324.421875 543.03125 C 330.003906 540.417969 333.882812 536.125 336.578125 531.285156 Z M 473.328125 522.015625 C 475.097656 528.765625 475.992188 535.710938 475.992188 542.757812 C 475.992188 587.851562 439.386719 624.539062 394.386719 624.539062 C 349.386719 624.539062 312.777344 587.851562 312.777344 542.757812 C 312.777344 535.710938 313.671875 528.765625 315.445312 522.011719 C 318.171875 548.414062 333.84375 571.015625 355.96875 583.335938 C 356.234375 583.613281 356.570312 583.78125 356.921875 583.847656 C 368.089844 589.867188 380.84375 593.300781 394.386719 593.300781 C 407.242188 593.300781 419.390625 590.21875 430.140625 584.761719 C 430.445312 584.695312 430.730469 584.539062 430.96875 584.316406 C 454.058594 572.242188 470.527344 549.136719 473.328125 522.015625 Z M 462.125 547.84375 C 454.703125 538.757812 441.558594 533.171875 440.984375 532.929688 C 440.644531 532.789062 440.285156 532.757812 439.953125 532.824219 C 439.972656 530.421875 439.964844 528.042969 439.929688 525.722656 C 441.097656 526.179688 446.140625 528.230469 451.746094 531.453125 C 451.792969 531.480469 451.847656 531.492188 451.898438 531.515625 C 454.644531 536.363281 458.605469 540.632812 464.289062 543.1875 C 463.625 544.769531 462.890625 546.316406 462.125 547.84375 Z M 449.328125 502.511719 C 449.359375 501.980469 449.148438 501.460938 448.757812 501.101562 C 428.996094 482.90625 436.394531 464.09375 436.714844 463.304688 C 437.039062 462.53125 436.777344 461.640625 436.089844 461.164062 C 435.695312 460.890625 435.324219 460.617188 434.945312 460.34375 C 434.4375 459.691406 433.789062 459.207031 433.054688 458.929688 C 418.414062 447.59375 414.734375 435.429688 413.859375 431.058594 C 416.496094 430.785156 418.433594 430.511719 419.578125 430.332031 C 454.179688 468.769531 462.507812 525.394531 464.058594 539.113281 C 447.957031 530.039062 449.3125 502.800781 449.328125 502.511719 Z M 434.324219 396.417969 C 434.332031 396.417969 434.339844 396.417969 434.347656 396.417969 C 431.050781 398.105469 427.285156 400.796875 424.371094 405.011719 C 420.96875 409.925781 419.644531 415.671875 419.125 419.582031 C 417.304688 419.761719 407.824219 420.65625 398.554688 420.902344 C 404.582031 419.503906 409.480469 415.152344 411.65625 409.449219 C 411.742188 409.351562 411.820312 409.242188 411.882812 409.121094 C 417.46875 398.476562 427.445312 396.417969 434.324219 396.417969 Z M 394.386719 387.859375 C 402.632812 387.859375 409.347656 394.582031 409.347656 402.847656 C 409.347656 411.113281 402.632812 417.839844 394.386719 417.839844 C 386.136719 417.839844 379.425781 411.113281 379.425781 402.847656 C 379.425781 394.582031 386.136719 387.859375 394.386719 387.859375 Z M 354.449219 396.417969 C 361.324219 396.417969 371.300781 398.476562 376.890625 409.121094 C 376.953125 409.242188 377.03125 409.351562 377.117188 409.453125 C 379.300781 415.171875 384.222656 419.53125 390.277344 420.914062 C 381.761719 420.71875 372.804688 419.953125 369.65625 419.664062 C 369.144531 415.734375 367.824219 409.957031 364.402344 405.011719 C 361.488281 400.796875 357.71875 398.105469 354.425781 396.417969 C 354.433594 396.417969 354.441406 396.417969 354.449219 396.417969 Z M 386.921875 547.148438 C 386.921875 548.128906 386.128906 548.921875 385.148438 548.921875 C 370.335938 548.921875 365.898438 529.804688 365.714844 528.992188 C 365.503906 528.035156 366.101562 527.085938 367.058594 526.871094 C 368.015625 526.65625 368.960938 527.257812 369.175781 528.214844 C 369.214844 528.386719 373.175781 545.371094 385.148438 545.371094 C 386.128906 545.371094 386.921875 546.164062 386.921875 547.148438 Z M 401.203125 547.148438 C 401.203125 546.164062 401.996094 545.371094 402.976562 545.371094 C 414.980469 545.371094 418.910156 528.386719 418.949219 528.214844 C 419.164062 527.257812 420.105469 526.65625 421.066406 526.871094 C 422.019531 527.082031 422.621094 528.035156 422.410156 528.992188 C 422.226562 529.804688 417.789062 548.921875 402.976562 548.921875 C 401.996094 548.921875 401.203125 548.128906 401.203125 547.148438 Z M 383.238281 403.640625 C 383.066406 402.671875 383.707031 401.75 384.671875 401.578125 C 385.636719 401.410156 386.550781 402.050781 386.726562 403.011719 C 386.777344 403.300781 388.078125 409.9375 394.300781 409.9375 C 400.574219 409.9375 402.042969 403.644531 402.101562 403.375 C 402.3125 402.421875 403.253906 401.816406 404.210938 402.023438 C 405.164062 402.230469 405.769531 403.167969 405.566406 404.125 C 404.878906 407.363281 401.636719 413.488281 394.300781 413.488281 C 386.925781 413.488281 383.839844 407.046875 383.238281 403.640625 Z M 386.921875 571.027344 C 386.921875 572.007812 386.128906 572.800781 385.148438 572.800781 C 373.355469 572.800781 368.925781 559.890625 368.742188 559.34375 C 368.433594 558.410156 368.933594 557.40625 369.863281 557.09375 C 370.789062 556.785156 371.792969 557.285156 372.105469 558.214844 C 372.15625 558.371094 375.945312 569.25 385.148438 569.25 C 386.128906 569.25 386.921875 570.046875 386.921875 571.027344 Z M 402.976562 572.800781 C 401.996094 572.800781 401.203125 572.007812 401.203125 571.027344 C 401.203125 570.046875 401.996094 569.25 402.976562 569.25 C 412.242188 569.25 415.984375 558.328125 416.019531 558.21875 C 416.328125 557.289062 417.332031 556.78125 418.261719 557.09375 C 419.191406 557.402344 419.691406 558.410156 419.382812 559.339844 C 419.199219 559.890625 414.769531 572.800781 402.976562 572.800781 Z M 303.445312 673.867188 C 303.773438 674.195312 303.9375 674.589844 303.9375 675.050781 L 303.9375 687.636719 C 303.9375 688.105469 303.773438 688.503906 303.445312 688.828125 C 303.113281 689.15625 302.71875 689.320312 302.257812 689.320312 C 301.796875 689.320312 301.402344 689.15625 301.078125 688.828125 C 300.75 688.503906 300.585938 688.105469 300.585938 687.636719 L 300.585938 683.019531 L 293.460938 683.019531 L 293.460938 687.636719 C 293.460938 688.105469 293.300781 688.503906 292.972656 688.828125 C 292.644531 689.15625 292.253906 689.320312 291.792969 689.320312 C 291.324219 689.320312 290.925781 689.15625 290.601562 688.828125 C 290.273438 688.503906 290.113281 688.105469 290.113281 687.636719 L 290.113281 675.050781 C 290.113281 674.589844 290.273438 674.195312 290.601562 673.867188 C 290.925781 673.535156 291.324219 673.367188 291.792969 673.367188 C 292.253906 673.367188 292.644531 673.53125 292.972656 673.867188 C 293.300781 674.195312 293.460938 674.589844 293.460938 675.050781 L 293.460938 679.664062 L 300.585938 679.664062 L 300.585938 675.050781 C 300.585938 674.589844 300.75 674.195312 301.078125 673.867188 C 301.402344 673.535156 301.796875 673.367188 302.257812 673.367188 C 302.71875 673.367188 303.113281 673.535156 303.445312 673.867188 Z M 311.210938 673.867188 C 311.535156 674.195312 311.699219 674.589844 311.699219 675.050781 L 311.699219 687.636719 C 311.699219 688.105469 311.535156 688.503906 311.210938 688.828125 C 310.886719 689.15625 310.492188 689.320312 310.03125 689.320312 C 309.5625 689.320312 309.164062 689.15625 308.839844 688.828125 C 308.511719 688.503906 308.351562 688.105469 308.351562 687.636719 L 308.351562 675.050781 C 308.351562 674.589844 308.511719 674.195312 308.839844 673.867188 C 309.164062 673.535156 309.5625 673.367188 310.03125 673.367188 C 310.492188 673.367188 310.886719 673.535156 311.210938 673.867188 Z M 330.679688 680.132812 C 331.03125 680.46875 331.203125 680.867188 331.203125 681.335938 L 331.203125 681.347656 C 331.203125 683.542969 330.421875 685.421875 328.863281 686.984375 C 327.3125 688.542969 325.4375 689.320312 323.238281 689.320312 C 321.046875 689.320312 319.171875 688.542969 317.613281 686.984375 C 316.058594 685.421875 315.285156 683.542969 315.285156 681.347656 C 315.285156 679.148438 316.058594 677.265625 317.613281 675.710938 C 319.171875 674.148438 321.046875 673.367188 323.238281 673.367188 C 325.4375 673.367188 327.3125 674.144531 328.863281 675.699219 C 329.195312 676.027344 329.363281 676.425781 329.363281 676.894531 C 329.363281 677.355469 329.199219 677.75 328.875 678.078125 C 328.546875 678.402344 328.152344 678.566406 327.683594 678.566406 C 327.222656 678.574219 326.828125 678.410156 326.503906 678.078125 C 325.601562 677.175781 324.515625 676.722656 323.238281 676.722656 C 321.96875 676.722656 320.882812 677.179688 319.984375 678.085938 C 319.082031 678.988281 318.632812 680.078125 318.632812 681.347656 C 318.632812 682.621094 319.082031 683.707031 319.984375 684.609375 C 320.882812 685.511719 321.96875 685.964844 323.238281 685.964844 C 324.203125 685.964844 325.078125 685.6875 325.867188 685.140625 C 326.636719 684.601562 327.195312 683.894531 327.535156 683.019531 L 323.238281 683.019531 C 322.777344 683.019531 322.382812 682.859375 322.058594 682.53125 C 321.730469 682.207031 321.570312 681.8125 321.570312 681.347656 C 321.570312 680.886719 321.734375 680.488281 322.058594 680.15625 C 322.382812 679.828125 322.777344 679.664062 323.238281 679.664062 L 329.457031 679.664062 C 329.933594 679.652344 330.34375 679.808594 330.679688 680.132812 Z M 348.113281 673.867188 C 348.4375 674.195312 348.601562 674.589844 348.601562 675.050781 L 348.601562 687.636719 C 348.601562 688.105469 348.4375 688.503906 348.113281 688.828125 C 347.777344 689.15625 347.378906 689.320312 346.921875 689.320312 C 346.460938 689.320312 346.066406 689.15625 345.738281 688.828125 C 345.414062 688.503906 345.25 688.105469 345.25 687.636719 L 345.25 683.019531 L 338.125 683.019531 L 338.125 687.636719 C 338.125 688.105469 337.960938 688.503906 337.636719 688.828125 C 337.3125 689.15625 336.917969 689.320312 336.457031 689.320312 C 335.988281 689.320312 335.589844 689.15625 335.265625 688.828125 C 334.941406 688.503906 334.777344 688.105469 334.777344 687.636719 L 334.777344 675.050781 C 334.777344 674.589844 334.941406 674.195312 335.265625 673.867188 C 335.589844 673.535156 335.988281 673.367188 336.457031 673.367188 C 336.917969 673.367188 337.3125 673.53125 337.636719 673.867188 C 337.964844 674.195312 338.125 674.589844 338.125 675.050781 L 338.125 679.664062 L 345.25 679.664062 L 345.25 675.050781 C 345.25 674.589844 345.414062 674.195312 345.738281 673.867188 C 346.066406 673.535156 346.460938 673.367188 346.921875 673.367188 C 347.378906 673.367188 347.777344 673.535156 348.113281 673.867188 Z M 368.050781 673.367188 L 361.777344 673.367188 C 361.308594 673.367188 360.910156 673.53125 360.585938 673.867188 C 360.257812 674.195312 360.097656 674.589844 360.097656 675.050781 L 360.097656 687.636719 C 360.097656 688.105469 360.257812 688.503906 360.585938 688.828125 C 360.910156 689.15625 361.308594 689.320312 361.777344 689.320312 C 362.238281 689.320312 362.632812 689.15625 362.957031 688.828125 C 363.285156 688.503906 363.445312 688.105469 363.445312 687.636719 L 363.445312 685.121094 L 368.050781 685.121094 C 369.667969 685.121094 371.050781 684.546875 372.199219 683.394531 C 373.347656 682.25 373.921875 680.867188 373.921875 679.25 C 373.921875 677.628906 373.347656 676.242188 372.199219 675.09375 C 371.050781 673.941406 369.667969 673.367188 368.050781 673.367188 Z M 369.828125 681.027344 C 369.335938 681.519531 368.746094 681.765625 368.050781 681.765625 L 363.445312 681.765625 L 363.445312 676.722656 L 368.050781 676.722656 C 368.746094 676.722656 369.335938 676.972656 369.828125 677.46875 C 370.324219 677.957031 370.574219 678.554688 370.574219 679.25 C 370.570312 679.9375 370.324219 680.53125 369.828125 681.027344 Z M 390.5625 682.117188 C 391.066406 681.226562 391.320312 680.269531 391.320312 679.25 C 391.320312 677.628906 390.746094 676.242188 389.59375 675.09375 C 388.449219 673.941406 387.066406 673.367188 385.449219 673.367188 L 379.175781 673.367188 C 378.707031 673.367188 378.308594 673.53125 377.984375 673.867188 C 377.65625 674.195312 377.492188 674.589844 377.492188 675.050781 L 377.492188 687.636719 C 377.492188 688.105469 377.65625 688.503906 377.984375 688.828125 C 378.308594 689.15625 378.707031 689.320312 379.175781 689.320312 C 379.636719 689.320312 380.027344 689.15625 380.355469 688.828125 C 380.679688 688.503906 380.84375 688.105469 380.84375 687.636719 L 380.84375 685.121094 L 384.757812 685.121094 L 388.457031 688.828125 C 388.785156 689.15625 389.179688 689.320312 389.640625 689.320312 C 390.097656 689.320312 390.496094 689.15625 390.832031 688.828125 C 391.15625 688.503906 391.320312 688.105469 391.320312 687.636719 C 391.320312 687.171875 391.15625 686.78125 390.832031 686.453125 L 388.585938 684.203125 C 389.421875 683.671875 390.082031 682.976562 390.5625 682.117188 Z M 387.226562 681.027344 C 386.734375 681.519531 386.144531 681.765625 385.449219 681.765625 L 380.84375 681.765625 L 380.84375 676.722656 L 385.449219 676.722656 C 386.144531 676.722656 386.734375 676.972656 387.226562 677.46875 C 387.722656 677.957031 387.96875 678.554688 387.96875 679.25 C 387.96875 679.9375 387.722656 680.53125 387.226562 681.027344 Z M 397.753906 673.867188 C 398.078125 674.195312 398.242188 674.589844 398.242188 675.050781 L 398.242188 687.636719 C 398.242188 688.105469 398.078125 688.503906 397.753906 688.828125 C 397.425781 689.15625 397.035156 689.320312 396.570312 689.320312 C 396.105469 689.320312 395.707031 689.15625 395.382812 688.828125 C 395.054688 688.503906 394.890625 688.105469 394.890625 687.636719 L 394.890625 675.050781 C 394.890625 674.589844 395.054688 674.195312 395.382812 673.867188 C 395.707031 673.535156 396.105469 673.367188 396.570312 673.367188 C 397.035156 673.367188 397.425781 673.535156 397.753906 673.867188 Z M 406.015625 676.722656 L 406.015625 679.664062 L 412.714844 679.664062 C 413.175781 679.664062 413.574219 679.828125 413.90625 680.15625 C 414.230469 680.480469 414.394531 680.878906 414.394531 681.347656 C 414.394531 681.808594 414.230469 682.203125 413.90625 682.53125 C 413.574219 682.859375 413.175781 683.019531 412.714844 683.019531 L 406.015625 683.019531 L 406.015625 685.960938 L 414.8125 685.960938 C 415.269531 685.960938 415.667969 686.125 416 686.453125 C 416.328125 686.78125 416.492188 687.171875 416.492188 687.636719 C 416.492188 688.105469 416.328125 688.503906 416 688.828125 C 415.667969 689.15625 415.269531 689.320312 414.8125 689.320312 L 404.347656 689.320312 C 403.878906 689.320312 403.480469 689.15625 403.15625 688.828125 C 402.828125 688.503906 402.664062 688.105469 402.664062 687.636719 L 402.664062 675.050781 C 402.664062 674.589844 402.828125 674.195312 403.15625 673.867188 C 403.480469 673.53125 403.878906 673.367188 404.347656 673.367188 L 414.8125 673.367188 C 415.269531 673.367188 415.667969 673.53125 416 673.867188 C 416.328125 674.195312 416.492188 674.589844 416.492188 675.050781 C 416.492188 675.511719 416.328125 675.90625 416 676.234375 C 415.667969 676.558594 415.269531 676.722656 414.8125 676.722656 Z M 423.007812 677.160156 C 422.71875 677.445312 422.574219 677.789062 422.574219 678.195312 C 422.574219 678.597656 422.71875 678.949219 423.007812 679.238281 C 423.292969 679.523438 423.636719 679.664062 424.039062 679.664062 L 428.230469 679.664062 C 429.558594 679.664062 430.691406 680.136719 431.632812 681.082031 C 432.578125 682.027344 433.046875 683.164062 433.046875 684.492188 C 433.046875 685.820312 432.578125 686.957031 431.632812 687.902344 C 430.691406 688.847656 429.554688 689.320312 428.230469 689.320312 L 420.902344 689.320312 C 420.433594 689.320312 420.039062 689.15625 419.714844 688.832031 C 419.386719 688.503906 419.222656 688.105469 419.222656 687.636719 C 419.222656 687.175781 419.386719 686.78125 419.714844 686.453125 C 420.039062 686.125 420.433594 685.964844 420.902344 685.964844 L 428.230469 685.964844 C 428.636719 685.964844 428.980469 685.820312 429.261719 685.535156 C 429.554688 685.246094 429.699219 684.898438 429.699219 684.492188 C 429.699219 684.085938 429.554688 683.742188 429.261719 683.457031 C 428.980469 683.167969 428.636719 683.019531 428.230469 683.019531 L 424.042969 683.019531 C 422.714844 683.019531 421.582031 682.550781 420.636719 681.601562 C 419.695312 680.664062 419.222656 679.527344 419.222656 678.191406 C 419.222656 676.863281 419.695312 675.726562 420.636719 674.78125 C 421.582031 673.835938 422.714844 673.363281 424.042969 673.363281 L 431.367188 673.363281 C 431.828125 673.363281 432.226562 673.53125 432.558594 673.867188 C 432.886719 674.191406 433.046875 674.585938 433.046875 675.050781 C 433.046875 675.511719 432.886719 675.90625 432.558594 676.234375 C 432.226562 676.558594 431.828125 676.722656 431.367188 676.722656 L 424.042969 676.722656 C 423.636719 676.722656 423.292969 676.867188 423.007812 677.160156 Z M 448.691406 673.867188 C 449.015625 674.195312 449.179688 674.589844 449.179688 675.050781 C 449.179688 675.511719 449.015625 675.90625 448.691406 676.234375 C 448.355469 676.558594 447.960938 676.722656 447.5 676.722656 L 443.9375 676.722656 L 443.9375 687.636719 C 443.9375 688.105469 443.773438 688.503906 443.449219 688.828125 C 443.121094 689.15625 442.726562 689.320312 442.269531 689.320312 C 441.808594 689.320312 441.410156 689.15625 441.074219 688.828125 C 440.75 688.503906 440.585938 688.105469 440.585938 687.636719 L 440.585938 676.722656 L 437.035156 676.722656 C 436.566406 676.722656 436.171875 676.558594 435.84375 676.234375 C 435.519531 675.90625 435.355469 675.511719 435.355469 675.050781 C 435.355469 674.589844 435.519531 674.195312 435.84375 673.867188 C 436.171875 673.535156 436.566406 673.367188 437.035156 673.367188 L 447.5 673.367188 C 447.960938 673.367188 448.359375 673.535156 448.691406 673.867188 Z M 455.6875 676.722656 L 455.6875 679.664062 L 462.386719 679.664062 C 462.847656 679.664062 463.246094 679.828125 463.578125 680.15625 C 463.90625 680.480469 464.070312 680.878906 464.070312 681.347656 C 464.070312 681.808594 463.90625 682.203125 463.578125 682.53125 C 463.246094 682.859375 462.847656 683.019531 462.386719 683.019531 L 455.6875 683.019531 L 455.6875 685.960938 L 464.484375 685.960938 C 464.945312 685.960938 465.339844 686.125 465.675781 686.453125 C 466 686.78125 466.164062 687.171875 466.164062 687.636719 C 466.164062 688.105469 466 688.503906 465.675781 688.828125 C 465.339844 689.15625 464.945312 689.320312 464.484375 689.320312 L 454.019531 689.320312 C 453.550781 689.320312 453.152344 689.15625 452.828125 688.828125 C 452.503906 688.503906 452.339844 688.105469 452.339844 687.636719 L 452.339844 675.050781 C 452.339844 674.589844 452.503906 674.195312 452.828125 673.867188 C 453.152344 673.53125 453.550781 673.367188 454.019531 673.367188 L 464.484375 673.367188 C 464.945312 673.367188 465.339844 673.53125 465.675781 673.867188 C 466 674.195312 466.164062 674.589844 466.164062 675.050781 C 466.164062 675.511719 466 675.90625 465.675781 676.234375 C 465.339844 676.558594 464.945312 676.722656 464.484375 676.722656 Z M 472.683594 677.160156 C 472.390625 677.445312 472.246094 677.789062 472.246094 678.195312 C 472.246094 678.597656 472.390625 678.949219 472.683594 679.238281 C 472.964844 679.523438 473.308594 679.664062 473.714844 679.664062 L 477.902344 679.664062 C 479.230469 679.664062 480.363281 680.136719 481.304688 681.082031 C 482.25 682.027344 482.71875 683.164062 482.71875 684.492188 C 482.71875 685.820312 482.25 686.957031 481.304688 687.902344 C 480.363281 688.847656 479.230469 689.320312 477.902344 689.320312 L 470.574219 689.320312 C 470.109375 689.320312 469.710938 689.15625 469.386719 688.832031 C 469.058594 688.503906 468.894531 688.105469 468.894531 687.636719 C 468.894531 687.175781 469.058594 686.78125 469.386719 686.453125 C 469.710938 686.125 470.109375 685.964844 470.574219 685.964844 L 477.902344 685.964844 C 478.308594 685.964844 478.652344 685.820312 478.933594 685.535156 C 479.226562 685.246094 479.371094 684.898438 479.371094 684.492188 C 479.371094 684.085938 479.226562 683.742188 478.933594 683.457031 C 478.652344 683.167969 478.308594 683.019531 477.902344 683.019531 L 473.714844 683.019531 C 472.386719 683.019531 471.253906 682.550781 470.308594 681.601562 C 469.367188 680.664062 468.894531 679.527344 468.894531 678.191406 C 468.894531 676.863281 469.367188 675.726562 470.308594 674.78125 C 471.253906 673.835938 472.386719 673.363281 473.714844 673.363281 L 481.039062 673.363281 C 481.5 673.363281 481.898438 673.53125 482.230469 673.867188 C 482.558594 674.191406 482.71875 674.585938 482.71875 675.050781 C 482.71875 675.511719 482.558594 675.90625 482.230469 676.234375 C 481.898438 676.558594 481.5 676.722656 481.039062 676.722656 L 473.714844 676.722656 C 473.308594 676.722656 472.964844 676.867188 472.683594 677.160156 Z M 489.242188 677.160156 C 488.949219 677.445312 488.804688 677.789062 488.804688 678.195312 C 488.804688 678.597656 488.949219 678.949219 489.242188 679.238281 C 489.523438 679.523438 489.867188 679.664062 490.273438 679.664062 L 494.460938 679.664062 C 495.789062 679.664062 496.921875 680.136719 497.863281 681.082031 C 498.804688 682.027344 499.28125 683.164062 499.28125 684.492188 C 499.28125 685.820312 498.804688 686.957031 497.863281 687.902344 C 496.921875 688.847656 495.789062 689.320312 494.460938 689.320312 L 487.132812 689.320312 C 486.664062 689.320312 486.269531 689.15625 485.941406 688.832031 C 485.617188 688.503906 485.453125 688.105469 485.453125 687.636719 C 485.453125 687.175781 485.617188 686.78125 485.941406 686.453125 C 486.269531 686.125 486.664062 685.964844 487.132812 685.964844 L 494.460938 685.964844 C 494.863281 685.964844 495.207031 685.820312 495.492188 685.535156 C 495.785156 685.246094 495.929688 684.898438 495.929688 684.492188 C 495.929688 684.085938 495.785156 683.742188 495.492188 683.457031 C 495.207031 683.167969 494.863281 683.019531 494.460938 683.019531 L 490.273438 683.019531 C 488.945312 683.019531 487.8125 682.550781 486.867188 681.601562 C 485.925781 680.664062 485.453125 679.527344 485.453125 678.191406 C 485.453125 676.863281 485.925781 675.726562 486.867188 674.78125 C 487.8125 673.835938 488.945312 673.363281 490.273438 673.363281 L 497.597656 673.363281 C 498.058594 673.363281 498.457031 673.53125 498.789062 673.867188 C 499.117188 674.191406 499.277344 674.585938 499.277344 675.050781 C 499.277344 675.511719 499.117188 675.90625 498.789062 676.234375 C 498.457031 676.558594 498.058594 676.722656 497.597656 676.722656 L 490.273438 676.722656 C 489.867188 676.722656 489.523438 676.867188 489.242188 677.160156 Z M 329.808594 373.03125 C 329.808594 372.128906 330.539062 371.394531 331.441406 371.394531 C 333.53125 371.394531 335.230469 369.691406 335.230469 367.597656 C 335.230469 366.691406 335.964844 365.957031 336.867188 365.957031 C 337.769531 365.957031 338.503906 366.691406 338.503906 367.597656 C 338.503906 369.691406 340.203125 371.394531 342.292969 371.394531 C 343.195312 371.394531 343.925781 372.128906 343.925781 373.03125 C 343.925781 373.9375 343.195312 374.671875 342.292969 374.671875 C 340.203125 374.671875 338.503906 376.375 338.503906 378.46875 C 338.503906 379.371094 337.769531 380.105469 336.867188 380.105469 C 335.964844 380.105469 335.230469 379.371094 335.230469 378.46875 C 335.230469 376.375 333.53125 374.671875 331.441406 374.671875 C 330.539062 374.671875 329.808594 373.9375 329.808594 373.03125 Z M 326.101562 423.3125 C 326.101562 422.40625 326.832031 421.671875 327.734375 421.671875 C 329.824219 421.671875 331.523438 419.96875 331.523438 417.875 C 331.523438 416.96875 332.257812 416.234375 333.160156 416.234375 C 334.0625 416.234375 334.796875 416.96875 334.796875 417.875 C 334.796875 419.96875 336.496094 421.671875 338.585938 421.671875 C 339.488281 421.671875 340.21875 422.40625 340.21875 423.3125 C 340.21875 424.214844 339.488281 424.949219 338.585938 424.949219 C 336.496094 424.949219 334.796875 426.652344 334.796875 428.746094 C 334.796875 429.652344 334.0625 430.386719 333.160156 430.386719 C 332.257812 430.386719 331.523438 429.652344 331.523438 428.746094 C 331.523438 426.652344 329.824219 424.949219 327.734375 424.949219 C 326.832031 424.949219 326.101562 424.214844 326.101562 423.3125 Z M 321.101562 459.730469 C 322.003906 459.730469 322.734375 460.464844 322.734375 461.371094 C 322.734375 463.464844 324.433594 465.167969 326.523438 465.167969 C 327.429688 465.167969 328.160156 465.902344 328.160156 466.804688 C 328.160156 467.710938 327.429688 468.445312 326.523438 468.445312 C 324.433594 468.445312 322.734375 470.148438 322.734375 472.242188 C 322.734375 473.148438 322.003906 473.882812 321.101562 473.882812 C 320.195312 473.882812 319.464844 473.148438 319.464844 472.242188 C 319.464844 470.148438 317.765625 468.445312 315.675781 468.445312 C 314.773438 468.445312 314.039062 467.710938 314.039062 466.804688 C 314.039062 465.902344 314.773438 465.167969 315.675781 465.167969 C 317.765625 465.167969 319.464844 463.464844 319.464844 461.371094 C 319.464844 460.464844 320.195312 459.730469 321.101562 459.730469 Z M 330.859375 621.542969 C 330.859375 622.449219 330.125 623.183594 329.222656 623.183594 C 327.132812 623.183594 325.433594 624.886719 325.433594 626.980469 C 325.433594 627.886719 324.699219 628.621094 323.796875 628.621094 C 322.894531 628.621094 322.164062 627.886719 322.164062 626.980469 C 322.164062 624.886719 320.464844 623.183594 318.375 623.183594 C 317.472656 623.183594 316.738281 622.449219 316.738281 621.542969 C 316.738281 620.640625 317.472656 619.90625 318.375 619.90625 C 320.464844 619.90625 322.164062 618.203125 322.164062 616.109375 C 322.164062 615.203125 322.894531 614.46875 323.796875 614.46875 C 324.703125 614.46875 325.433594 615.203125 325.433594 616.109375 C 325.433594 618.203125 327.132812 619.90625 329.222656 619.90625 C 330.125 619.90625 330.859375 620.640625 330.859375 621.542969 Z M 472.082031 621.542969 C 472.082031 622.449219 471.351562 623.183594 470.449219 623.183594 C 468.359375 623.183594 466.660156 624.886719 466.660156 626.980469 C 466.660156 627.886719 465.925781 628.621094 465.023438 628.621094 C 464.121094 628.621094 463.386719 627.886719 463.386719 626.980469 C 463.386719 624.886719 461.6875 623.183594 459.597656 623.183594 C 458.695312 623.183594 457.964844 622.449219 457.964844 621.542969 C 457.964844 620.640625 458.695312 619.90625 459.597656 619.90625 C 461.6875 619.90625 463.386719 618.203125 463.386719 616.109375 C 463.386719 615.203125 464.121094 614.46875 465.023438 614.46875 C 465.925781 614.46875 466.660156 615.203125 466.660156 616.109375 C 466.660156 618.203125 468.359375 619.90625 470.449219 619.90625 C 471.351562 619.90625 472.082031 620.640625 472.082031 621.542969 Z M 364.269531 641.328125 C 364.269531 642.234375 363.539062 642.96875 362.636719 642.96875 C 360.546875 642.96875 358.847656 644.671875 358.847656 646.765625 C 358.847656 647.667969 358.113281 648.402344 357.210938 648.402344 C 356.308594 648.402344 355.574219 647.667969 355.574219 646.765625 C 355.574219 644.671875 353.875 642.96875 351.785156 642.96875 C 350.882812 642.96875 350.152344 642.234375 350.152344 641.328125 C 350.152344 640.425781 350.882812 639.691406 351.785156 639.691406 C 353.875 639.691406 355.574219 637.988281 355.574219 635.894531 C 355.574219 634.988281 356.308594 634.253906 357.210938 634.253906 C 358.113281 634.253906 358.847656 634.988281 358.847656 635.894531 C 358.847656 637.988281 360.546875 639.691406 362.636719 639.691406 C 363.539062 639.691406 364.269531 640.425781 364.269531 641.328125 Z M 438.417969 641.328125 C 438.417969 642.234375 437.6875 642.96875 436.785156 642.96875 C 434.695312 642.96875 432.996094 644.671875 432.996094 646.765625 C 432.996094 647.667969 432.261719 648.402344 431.359375 648.402344 C 430.457031 648.402344 429.726562 647.667969 429.726562 646.765625 C 429.726562 644.671875 428.023438 642.96875 425.9375 642.96875 C 425.03125 642.96875 424.300781 642.234375 424.300781 641.328125 C 424.300781 640.425781 425.03125 639.691406 425.9375 639.691406 C 428.023438 639.691406 429.726562 637.988281 429.726562 635.894531 C 429.726562 634.988281 430.457031 634.253906 431.359375 634.253906 C 432.261719 634.253906 432.996094 634.988281 432.996094 635.894531 C 432.996094 637.988281 434.695312 639.691406 436.785156 639.691406 C 437.6875 639.691406 438.417969 640.425781 438.417969 641.328125 Z M 463.128906 465.167969 C 465.214844 465.167969 466.917969 463.464844 466.917969 461.371094 C 466.917969 460.464844 467.648438 459.730469 468.550781 459.730469 C 469.453125 459.730469 470.1875 460.464844 470.1875 461.371094 C 470.1875 463.464844 471.886719 465.167969 473.976562 465.167969 C 474.878906 465.167969 475.613281 465.902344 475.613281 466.804688 C 475.613281 467.710938 474.878906 468.445312 473.976562 468.445312 C 471.886719 468.445312 470.1875 470.148438 470.1875 472.242188 C 470.1875 473.148438 469.453125 473.882812 468.550781 473.882812 C 467.648438 473.882812 466.917969 473.148438 466.917969 472.242188 C 466.917969 470.148438 465.214844 468.445312 463.128906 468.445312 C 462.222656 468.445312 461.492188 467.710938 461.492188 466.804688 C 461.492188 465.902344 462.222656 465.167969 463.128906 465.167969 Z M 460.808594 421.671875 C 461.714844 421.671875 462.445312 422.40625 462.445312 423.3125 C 462.445312 424.214844 461.714844 424.949219 460.808594 424.949219 C 458.71875 424.949219 457.019531 426.652344 457.019531 428.746094 C 457.019531 429.652344 456.289062 430.386719 455.386719 430.386719 C 454.480469 430.386719 453.75 429.652344 453.75 428.746094 C 453.75 426.652344 452.050781 424.949219 449.960938 424.949219 C 449.058594 424.949219 448.324219 424.214844 448.324219 423.3125 C 448.324219 422.40625 449.058594 421.671875 449.960938 421.671875 C 452.050781 421.671875 453.75 419.96875 453.75 417.875 C 453.75 416.96875 454.480469 416.234375 455.386719 416.234375 C 456.289062 416.234375 457.019531 416.96875 457.019531 417.875 C 457.019531 419.96875 458.71875 421.671875 460.808594 421.671875 Z M 444.84375 373.03125 C 444.84375 372.128906 445.578125 371.394531 446.480469 371.394531 C 448.570312 371.394531 450.269531 369.691406 450.269531 367.597656 C 450.269531 366.691406 451 365.957031 451.902344 365.957031 C 452.808594 365.957031 453.539062 366.691406 453.539062 367.597656 C 453.539062 369.691406 455.238281 371.394531 457.328125 371.394531 C 458.230469 371.394531 458.964844 372.128906 458.964844 373.03125 C 458.964844 373.9375 458.230469 374.671875 457.328125 374.671875 C 455.238281 374.671875 453.539062 376.375 453.539062 378.46875 C 453.539062 379.371094 452.808594 380.105469 451.902344 380.105469 C 451 380.105469 450.269531 379.371094 450.269531 378.46875 C 450.269531 376.375 448.570312 374.671875 446.480469 374.671875 C 445.578125 374.671875 444.84375 373.9375 444.84375 373.03125 Z M 388.984375 357.242188 C 391.070312 357.242188 392.773438 355.539062 392.773438 353.445312 C 392.773438 352.539062 393.503906 351.808594 394.40625 351.808594 C 395.308594 351.808594 396.042969 352.539062 396.042969 353.445312 C 396.042969 355.539062 397.742188 357.242188 399.832031 357.242188 C 400.734375 357.242188 401.46875 357.976562 401.46875 358.882812 C 401.46875 359.789062 400.734375 360.519531 399.832031 360.519531 C 397.742188 360.519531 396.042969 362.222656 396.042969 364.316406 C 396.042969 365.222656 395.308594 365.957031 394.40625 365.957031 C 393.503906 365.957031 392.773438 365.222656 392.773438 364.316406 C 392.773438 362.222656 391.070312 360.519531 388.984375 360.519531 C 388.078125 360.519531 387.347656 359.789062 387.347656 358.882812 C 387.347656 357.976562 388.078125 357.242188 388.984375 357.242188 Z M 388.984375 357.242188 " fill-opacity="1" fill-rule="nonzero"/></g></svg>