<svg xmlns="http://www.w3.org/2000/svg" xmlns:xlink="http://www.w3.org/1999/xlink" width="1080" zoomAndPan="magnify" viewBox="0 0 810 809.999993" height="1080" preserveAspectRatio="xMidYMid meet" version="1.0"><defs><clipPath id="9c64a2392b"><path d="M 297.636719 261.5625 L 537.636719 261.5625 L 537.636719 671.8125 L 297.636719 671.8125 Z M 297.636719 261.5625 " clip-rule="nonzero"/></clipPath></defs><g clip-path="url(#9c64a2392b)"><path fill="#2e2e2e" d="M 528.15625 275.476562 C 528.15625 274.328125 527.710938 273.246094 526.898438 272.429688 C 526.085938 271.617188 525.003906 271.167969 523.855469 271.167969 L 311.371094 271.167969 C 310.222656 271.167969 309.144531 271.617188 308.332031 272.429688 C 307.519531 273.246094 307.070312 274.328125 307.070312 275.480469 L 307.070312 626.429688 C 307.101562 628.078125 308.441406 629.410156 310.097656 629.410156 L 525.042969 629.410156 C 526.71875 629.410156 528.171875 627.953125 528.171875 626.273438 L 528.15625 466.6875 Z M 310.625 625.855469 L 310.625 275.476562 C 310.625 275.269531 310.699219 275.089844 310.84375 274.941406 C 310.992188 274.796875 311.171875 274.722656 311.378906 274.722656 L 523.847656 274.722656 C 524.058594 274.722656 524.238281 274.796875 524.382812 274.941406 C 524.53125 275.089844 524.605469 275.269531 524.605469 275.476562 L 524.605469 466.6875 L 524.621094 625.855469 Z M 533.582031 265.730469 C 530.984375 263.128906 527.53125 261.695312 523.855469 261.695312 L 311.378906 261.695312 C 307.707031 261.695312 304.253906 263.128906 301.65625 265.734375 C 299.058594 268.335938 297.625 271.796875 297.625 275.476562 L 297.625 657.894531 C 297.625 661.578125 299.058594 665.039062 301.65625 667.640625 C 304.253906 670.246094 307.707031 671.679688 311.378906 671.679688 L 523.855469 671.679688 C 527.53125 671.679688 530.984375 670.246094 533.582031 667.640625 C 536.179688 665.039062 537.609375 661.578125 537.609375 657.894531 L 537.609375 275.476562 C 537.609375 271.796875 536.179688 268.335938 533.582031 265.730469 Z M 534.066406 466.6875 L 534.066406 657.894531 C 534.066406 660.722656 532.921875 663.277344 531.074219 665.128906 C 529.226562 666.980469 526.675781 668.128906 523.855469 668.128906 L 311.378906 668.128906 C 308.5625 668.128906 306.007812 666.980469 304.160156 665.128906 C 302.3125 663.277344 301.171875 660.722656 301.171875 657.894531 L 301.171875 275.476562 C 301.171875 272.652344 302.3125 270.097656 304.160156 268.246094 C 306.007812 266.390625 308.5625 265.246094 311.378906 265.246094 L 523.855469 265.246094 C 526.675781 265.246094 529.226562 266.390625 531.074219 268.246094 C 532.921875 270.09375 534.066406 272.652344 534.066406 275.476562 Z M 403.625 300.140625 L 408.6875 294.050781 L 403.625 287.957031 C 403.277344 287.542969 403.128906 287.066406 403.179688 286.527344 C 403.226562 285.988281 403.460938 285.546875 403.875 285.199219 C 404.285156 284.851562 404.761719 284.699219 405.300781 284.75 C 405.835938 284.800781 406.28125 285.03125 406.628906 285.445312 L 411.230469 290.992188 L 415.832031 285.445312 C 416.179688 285.03125 416.621094 284.800781 417.160156 284.75 C 417.699219 284.699219 418.171875 284.851562 418.585938 285.199219 C 419 285.546875 419.234375 285.988281 419.28125 286.527344 C 419.332031 287.066406 419.183594 287.542969 418.835938 287.957031 L 413.773438 294.050781 L 418.835938 300.140625 C 419.183594 300.554688 419.332031 301.03125 419.28125 301.570312 C 419.234375 302.109375 419 302.550781 418.585938 302.890625 C 418.222656 303.195312 417.808594 303.351562 417.335938 303.351562 C 416.730469 303.351562 416.230469 303.113281 415.832031 302.640625 L 411.230469 297.109375 L 406.628906 302.640625 C 406.230469 303.113281 405.730469 303.351562 405.125 303.351562 C 404.648438 303.351562 404.230469 303.195312 403.875 302.890625 C 403.460938 302.550781 403.230469 302.109375 403.179688 301.570312 C 403.128906 301.03125 403.277344 300.554688 403.625 300.140625 Z M 425.273438 302.777344 C 424.894531 302.398438 424.703125 301.933594 424.703125 301.386719 L 424.703125 286.703125 C 424.703125 286.164062 424.894531 285.703125 425.273438 285.320312 C 425.65625 284.933594 426.117188 284.738281 426.664062 284.738281 C 427.203125 284.738281 427.660156 284.933594 428.039062 285.320312 C 428.421875 285.703125 428.613281 286.164062 428.613281 286.703125 L 428.613281 301.386719 C 428.613281 301.933594 428.421875 302.398438 428.039062 302.777344 C 427.660156 303.160156 427.203125 303.351562 426.664062 303.351562 C 426.117188 303.351562 425.652344 303.160156 425.273438 302.777344 Z M 366.976562 640.394531 C 367.359375 640.777344 367.550781 641.238281 367.550781 641.777344 L 367.550781 650.34375 C 367.550781 652.574219 366.757812 654.476562 365.179688 656.050781 C 363.605469 657.632812 361.710938 658.425781 359.484375 658.425781 C 357.257812 658.425781 355.363281 657.632812 353.789062 656.050781 C 352.210938 654.472656 351.417969 652.574219 351.417969 650.34375 C 351.417969 649.804688 351.609375 649.34375 351.992188 648.960938 C 352.371094 648.582031 352.835938 648.390625 353.378906 648.390625 C 353.917969 648.390625 354.378906 648.582031 354.757812 648.960938 C 355.136719 649.34375 355.328125 649.804688 355.328125 650.34375 C 355.328125 651.496094 355.734375 652.476562 356.542969 653.289062 C 357.355469 654.101562 358.335938 654.507812 359.484375 654.507812 C 360.625 654.507812 361.601562 654.101562 362.410156 653.289062 C 363.230469 652.476562 363.640625 651.496094 363.640625 650.34375 L 363.640625 643.726562 L 359.484375 643.726562 C 358.945312 643.726562 358.484375 643.539062 358.09375 643.15625 C 357.714844 642.773438 357.523438 642.3125 357.523438 641.777344 C 357.523438 641.238281 357.714844 640.777344 358.09375 640.394531 C 358.484375 640.007812 358.945312 639.8125 359.484375 639.8125 L 365.589844 639.8125 C 366.125 639.8125 366.589844 640.007812 366.976562 640.394531 Z M 389.496094 640.394531 C 389.878906 640.777344 390.066406 641.238281 390.066406 641.777344 L 390.066406 650.34375 C 390.066406 652.574219 389.277344 654.476562 387.699219 656.050781 C 386.125 657.632812 384.226562 658.425781 382.003906 658.425781 C 379.777344 658.425781 377.878906 657.632812 376.308594 656.050781 C 374.726562 654.472656 373.9375 652.574219 373.9375 650.34375 L 373.9375 641.777344 C 373.9375 641.238281 374.128906 640.777344 374.507812 640.394531 C 374.890625 640.007812 375.351562 639.8125 375.898438 639.8125 C 376.4375 639.8125 376.894531 640.007812 377.277344 640.394531 C 377.65625 640.777344 377.847656 641.238281 377.847656 641.777344 L 377.847656 650.34375 C 377.847656 651.496094 378.25 652.476562 379.0625 653.289062 C 379.875 654.101562 380.851562 654.507812 382.003906 654.507812 C 383.144531 654.507812 384.121094 654.101562 384.929688 653.289062 C 385.75 652.476562 386.160156 651.496094 386.160156 650.34375 L 386.160156 641.777344 C 386.160156 641.238281 386.351562 640.777344 386.730469 640.394531 C 387.109375 640.007812 387.570312 639.8125 388.105469 639.8125 C 388.644531 639.8125 389.109375 640.007812 389.496094 640.394531 Z M 399.894531 644.238281 C 399.554688 644.570312 399.382812 644.972656 399.382812 645.445312 C 399.382812 645.917969 399.554688 646.324219 399.894531 646.664062 C 400.222656 646.996094 400.625 647.160156 401.097656 647.160156 L 405.984375 647.160156 C 407.53125 647.160156 408.855469 647.710938 409.957031 648.8125 C 411.054688 649.914062 411.605469 651.242188 411.605469 652.792969 C 411.605469 654.34375 411.054688 655.667969 409.957031 656.769531 C 408.855469 657.875 407.53125 658.425781 405.984375 658.425781 L 397.4375 658.425781 C 396.890625 658.425781 396.425781 658.234375 396.046875 657.851562 C 395.667969 657.472656 395.476562 657.007812 395.476562 656.460938 C 395.476562 655.921875 395.667969 655.460938 396.046875 655.078125 C 396.425781 654.699219 396.890625 654.507812 397.4375 654.507812 L 405.984375 654.507812 C 406.457031 654.507812 406.855469 654.34375 407.1875 654.011719 C 407.527344 653.671875 407.695312 653.265625 407.695312 652.792969 C 407.695312 652.320312 407.527344 651.917969 407.1875 651.585938 C 406.855469 651.246094 406.457031 651.078125 405.984375 651.078125 L 401.097656 651.078125 C 399.550781 651.078125 398.226562 650.523438 397.125 649.421875 C 396.027344 648.328125 395.476562 647.003906 395.476562 645.445312 C 395.476562 643.894531 396.027344 642.566406 397.125 641.464844 C 398.226562 640.363281 399.550781 639.8125 401.097656 639.8125 L 409.644531 639.8125 C 410.183594 639.8125 410.644531 640.007812 411.035156 640.394531 C 411.414062 640.777344 411.605469 641.238281 411.605469 641.777344 C 411.605469 642.316406 411.414062 642.773438 411.035156 643.15625 C 410.644531 643.539062 410.183594 643.726562 409.644531 643.726562 L 401.097656 643.726562 C 400.625 643.726562 400.222656 643.898438 399.894531 644.238281 Z M 431.097656 640.394531 C 431.476562 640.777344 431.667969 641.238281 431.667969 641.777344 C 431.667969 642.316406 431.476562 642.773438 431.097656 643.15625 C 430.707031 643.539062 430.246094 643.726562 429.707031 643.726562 L 425.550781 643.726562 L 425.550781 656.457031 C 425.550781 657.007812 425.359375 657.472656 424.980469 657.851562 C 424.597656 658.234375 424.140625 658.425781 423.601562 658.425781 C 423.066406 658.425781 422.601562 658.234375 422.214844 657.851562 C 421.832031 657.472656 421.640625 657.007812 421.640625 656.457031 L 421.640625 643.726562 L 417.5 643.726562 C 416.953125 643.726562 416.488281 643.539062 416.109375 643.15625 C 415.726562 642.773438 415.539062 642.3125 415.539062 641.777344 C 415.539062 641.238281 415.726562 640.777344 416.109375 640.394531 C 416.488281 640.007812 416.953125 639.8125 417.5 639.8125 L 429.707031 639.8125 C 430.246094 639.8125 430.707031 640.007812 431.097656 640.394531 Z M 439.929688 640.394531 C 440.308594 640.777344 440.5 641.238281 440.5 641.777344 L 440.5 656.460938 C 440.5 657.007812 440.308594 657.472656 439.929688 657.851562 C 439.550781 658.234375 439.089844 658.425781 438.554688 658.425781 C 438.007812 658.425781 437.542969 658.234375 437.164062 657.851562 C 436.78125 657.472656 436.59375 657.007812 436.59375 656.460938 L 436.59375 641.777344 C 436.59375 641.238281 436.78125 640.777344 437.164062 640.394531 C 437.542969 640.007812 438.007812 639.8125 438.554688 639.8125 C 439.089844 639.8125 439.550781 640.007812 439.929688 640.394531 Z M 451.40625 645.308594 C 450.355469 646.359375 449.832031 647.632812 449.832031 649.125 C 449.832031 650.609375 450.355469 651.875 451.40625 652.929688 C 452.457031 653.980469 453.722656 654.507812 455.203125 654.507812 C 456.683594 654.507812 457.949219 653.980469 459 652.929688 C 459.378906 652.546875 459.84375 652.355469 460.386719 652.355469 C 460.925781 652.355469 461.386719 652.546875 461.765625 652.929688 C 462.144531 653.3125 462.335938 653.769531 462.335938 654.308594 C 462.335938 654.855469 462.144531 655.320312 461.765625 655.703125 C 459.953125 657.515625 457.765625 658.425781 455.203125 658.425781 C 452.636719 658.425781 450.449219 657.515625 448.640625 655.703125 C 446.828125 653.886719 445.921875 651.695312 445.921875 649.125 C 445.921875 646.546875 446.828125 644.355469 448.640625 642.546875 C 450.449219 640.722656 452.640625 639.8125 455.203125 639.8125 C 457.765625 639.8125 459.953125 640.722656 461.765625 642.546875 C 462.144531 642.929688 462.335938 643.390625 462.335938 643.925781 C 462.335938 644.464844 462.144531 644.925781 461.765625 645.308594 C 461.386719 645.699219 460.925781 645.890625 460.386719 645.890625 C 459.84375 645.890625 459.378906 645.699219 459 645.308594 C 457.949219 644.253906 456.683594 643.726562 455.203125 643.726562 C 453.722656 643.726562 452.457031 644.253906 451.40625 645.308594 Z M 471.367188 643.726562 L 471.367188 647.160156 L 479.183594 647.160156 C 479.722656 647.160156 480.183594 647.351562 480.574219 647.730469 C 480.953125 648.113281 481.144531 648.578125 481.144531 649.125 C 481.144531 649.664062 480.953125 650.125 480.574219 650.503906 C 480.183594 650.886719 479.722656 651.078125 479.183594 651.078125 L 471.367188 651.078125 L 471.367188 654.507812 L 481.628906 654.507812 C 482.164062 654.507812 482.628906 654.699219 483.019531 655.078125 C 483.398438 655.460938 483.589844 655.921875 483.589844 656.457031 C 483.589844 657.007812 483.398438 657.472656 483.019531 657.851562 C 482.628906 658.234375 482.164062 658.425781 481.628906 658.425781 L 469.421875 658.425781 C 468.875 658.425781 468.410156 658.234375 468.03125 657.851562 C 467.648438 657.472656 467.460938 657.007812 467.460938 656.457031 L 467.460938 641.773438 C 467.460938 641.234375 467.648438 640.777344 468.03125 640.394531 C 468.410156 640.003906 468.875 639.8125 469.421875 639.8125 L 481.628906 639.8125 C 482.164062 639.8125 482.628906 640.003906 483.019531 640.394531 C 483.398438 640.777344 483.589844 641.234375 483.589844 641.773438 C 483.589844 642.3125 483.398438 642.773438 483.019531 643.15625 C 482.628906 643.539062 482.164062 643.726562 481.628906 643.726562 Z M 507.203125 483.691406 C 507.207031 483.683594 507.207031 483.675781 507.207031 483.664062 C 507.238281 483.542969 507.257812 483.421875 507.261719 483.296875 C 507.261719 483.292969 507.261719 483.292969 507.261719 483.292969 C 507.265625 483.167969 507.253906 483.042969 507.230469 482.917969 C 507.222656 482.875 507.207031 482.835938 507.195312 482.792969 C 507.175781 482.726562 507.164062 482.664062 507.140625 482.597656 L 479.667969 412.019531 C 487.675781 410.402344 493.433594 404.300781 493.957031 398.722656 C 493.957031 398.714844 493.957031 398.703125 493.957031 398.691406 C 493.980469 398.441406 493.996094 398.195312 493.996094 397.953125 C 493.996094 393.8125 490.632812 390.441406 486.5 390.441406 C 482.367188 390.441406 479.003906 393.8125 479.003906 397.953125 C 479.003906 399.230469 479.324219 400.464844 479.921875 401.554688 C 478.929688 401.746094 477.449219 401.910156 475.304688 401.910156 C 471.28125 401.910156 465.277344 398.421875 461.304688 396.113281 C 459.613281 395.128906 458.15625 394.28125 457.09375 393.824219 C 448.578125 390.167969 439.773438 388.074219 429.425781 387.300781 L 429.425781 339.867188 C 429.941406 339.988281 430.492188 339.894531 430.929688 339.546875 L 437.246094 334.480469 C 437.8125 334.027344 438.042969 333.277344 437.835938 332.582031 C 437.691406 332.101562 434.113281 320.800781 417.671875 320.800781 C 401.191406 320.800781 397.761719 332.929688 397.726562 333.050781 C 397.542969 333.730469 397.78125 334.457031 398.332031 334.894531 L 404.648438 339.960938 C 404.972656 340.222656 405.363281 340.351562 405.757812 340.351562 C 405.855469 340.351562 405.949219 340.316406 406.046875 340.300781 L 406.046875 387.335938 C 395.625 388.148438 386.652344 390.261719 378.355469 393.824219 C 377.292969 394.28125 375.832031 395.128906 374.144531 396.113281 C 370.171875 398.421875 364.167969 401.910156 360.144531 401.910156 C 358 401.910156 356.519531 401.746094 355.527344 401.554688 C 356.121094 400.464844 356.441406 399.230469 356.441406 397.953125 C 356.441406 393.8125 353.082031 390.441406 348.949219 390.441406 C 344.816406 390.441406 341.453125 393.8125 341.453125 397.953125 C 341.453125 398.199219 341.46875 398.449219 341.492188 398.699219 C 341.492188 398.710938 341.492188 398.714844 341.492188 398.722656 C 342.015625 404.300781 347.773438 410.402344 355.78125 412.019531 L 328.308594 482.597656 C 328.285156 482.664062 328.269531 482.726562 328.253906 482.792969 C 328.242188 482.835938 328.226562 482.875 328.21875 482.917969 C 328.171875 483.171875 328.183594 483.425781 328.242188 483.664062 C 328.242188 483.675781 328.242188 483.683594 328.246094 483.691406 C 331.578125 496.441406 343.984375 505.34375 358.410156 505.34375 C 373.054688 505.34375 385.828125 495.886719 388.777344 482.859375 C 388.777344 482.855469 388.777344 482.851562 388.777344 482.851562 C 388.804688 482.726562 388.816406 482.601562 388.820312 482.472656 C 388.820312 482.441406 388.8125 482.410156 388.8125 482.378906 C 388.804688 482.285156 388.796875 482.195312 388.777344 482.101562 C 388.769531 482.050781 388.75 482.003906 388.738281 481.957031 C 388.722656 481.90625 388.710938 481.851562 388.691406 481.800781 L 360.867188 412.398438 C 365.042969 412.175781 369.257812 410.582031 374.085938 408.734375 C 381.144531 406.03125 389.144531 402.96875 399.949219 402.96875 L 406.046875 402.96875 L 406.046875 586.769531 L 416.113281 609.164062 L 417.730469 608.4375 L 419.34375 609.167969 L 429.425781 586.769531 L 429.425781 402.96875 L 435.496094 402.96875 C 446.304688 402.96875 454.304688 406.03125 461.363281 408.734375 C 466.191406 410.582031 470.40625 412.175781 474.578125 412.398438 L 446.757812 481.800781 C 446.734375 481.851562 446.726562 481.90625 446.710938 481.957031 C 446.695312 482.003906 446.679688 482.050781 446.667969 482.101562 C 446.648438 482.191406 446.640625 482.285156 446.636719 482.375 C 446.636719 482.410156 446.628906 482.441406 446.628906 482.472656 C 446.628906 482.601562 446.644531 482.726562 446.671875 482.851562 C 446.671875 482.851562 446.671875 482.855469 446.671875 482.859375 C 449.621094 495.886719 462.394531 505.34375 477.039062 505.34375 C 491.464844 505.34375 503.871094 496.4375 507.203125 483.691406 Z M 332.566406 481.429688 L 356.464844 420.039062 L 356.464844 481.105469 Z M 360.007812 481.058594 L 360.007812 419.78125 L 384.441406 480.722656 Z M 478.984375 481.105469 L 478.984375 420.039062 L 502.882812 481.429688 Z M 475.441406 481.058594 L 451.007812 480.722656 L 475.441406 419.78125 Z M 409.589844 402.96875 L 415.964844 402.96875 L 415.964844 600.183594 L 409.589844 586.003906 Z M 425.878906 586.003906 L 419.507812 600.164062 L 419.507812 402.96875 L 425.878906 402.96875 Z M 475.332031 303.441406 C 475.332031 302.535156 476.066406 301.800781 476.96875 301.800781 C 479.058594 301.800781 480.757812 300.097656 480.757812 298.003906 C 480.757812 297.097656 481.492188 296.363281 482.394531 296.363281 C 483.296875 296.363281 484.027344 297.097656 484.027344 298.003906 C 484.027344 300.097656 485.730469 301.800781 487.820312 301.800781 C 488.722656 301.800781 489.453125 302.535156 489.453125 303.441406 C 489.453125 304.34375 488.722656 305.078125 487.820312 305.078125 C 485.730469 305.078125 484.027344 306.78125 484.027344 308.875 C 484.027344 309.78125 483.296875 310.515625 482.394531 310.515625 C 481.492188 310.515625 480.757812 309.78125 480.757812 308.875 C 480.757812 306.78125 479.058594 305.078125 476.96875 305.078125 C 476.066406 305.078125 475.332031 304.34375 475.332031 303.441406 Z M 345.78125 302.917969 C 345.78125 302.015625 346.515625 301.28125 347.417969 301.28125 C 349.507812 301.28125 351.207031 299.578125 351.207031 297.484375 C 351.207031 296.578125 351.941406 295.84375 352.84375 295.84375 C 353.746094 295.84375 354.476562 296.578125 354.476562 297.484375 C 354.476562 299.578125 356.179688 301.28125 358.265625 301.28125 C 359.171875 301.28125 359.902344 302.015625 359.902344 302.917969 C 359.902344 303.824219 359.171875 304.558594 358.265625 304.558594 C 356.179688 304.558594 354.476562 306.261719 354.476562 308.355469 C 354.476562 309.261719 353.746094 309.992188 352.84375 309.992188 C 351.941406 309.992188 351.207031 309.261719 351.207031 308.355469 C 351.207031 306.261719 349.507812 304.558594 347.417969 304.558594 C 346.515625 304.558594 345.78125 303.824219 345.78125 302.917969 Z M 510.605469 334.394531 C 510.605469 335.296875 509.871094 336.03125 508.96875 336.03125 C 506.878906 336.03125 505.179688 337.734375 505.179688 339.828125 C 505.179688 340.734375 504.449219 341.46875 503.542969 341.46875 C 502.640625 341.46875 501.910156 340.734375 501.910156 339.828125 C 501.910156 337.734375 500.210938 336.03125 498.121094 336.03125 C 497.21875 336.03125 496.484375 335.296875 496.484375 334.394531 C 496.484375 333.488281 497.21875 332.753906 498.121094 332.753906 C 500.210938 332.753906 501.910156 331.050781 501.910156 328.957031 C 501.910156 328.050781 502.640625 327.316406 503.542969 327.316406 C 504.449219 327.316406 505.179688 328.050781 505.179688 328.957031 C 505.179688 331.050781 506.878906 332.753906 508.96875 332.753906 C 509.871094 332.753906 510.605469 333.488281 510.605469 334.394531 Z M 324.632812 334.394531 C 324.632812 333.488281 325.363281 332.753906 326.265625 332.753906 C 328.355469 332.753906 330.058594 331.050781 330.058594 328.957031 C 330.058594 328.050781 330.789062 327.316406 331.691406 327.316406 C 332.59375 327.316406 333.328125 328.050781 333.328125 328.957031 C 333.328125 331.050781 335.027344 332.753906 337.117188 332.753906 C 338.019531 332.753906 338.753906 333.488281 338.753906 334.394531 C 338.753906 335.296875 338.019531 336.03125 337.117188 336.03125 C 335.027344 336.03125 333.328125 337.734375 333.328125 339.828125 C 333.328125 340.734375 332.59375 341.46875 331.691406 341.46875 C 330.789062 341.46875 330.058594 340.734375 330.058594 339.828125 C 330.058594 337.734375 328.355469 336.03125 326.265625 336.03125 C 325.363281 336.03125 324.632812 335.296875 324.632812 334.394531 Z M 361.214844 362.601562 C 361.214844 361.695312 361.945312 360.960938 362.851562 360.960938 C 364.9375 360.960938 366.640625 359.257812 366.640625 357.164062 C 366.640625 356.261719 367.371094 355.527344 368.273438 355.527344 C 369.175781 355.527344 369.910156 356.261719 369.910156 357.164062 C 369.910156 359.257812 371.609375 360.960938 373.699219 360.960938 C 374.601562 360.960938 375.335938 361.695312 375.335938 362.601562 C 375.335938 363.507812 374.601562 364.238281 373.699219 364.238281 C 371.609375 364.238281 369.910156 365.945312 369.910156 368.039062 C 369.910156 368.941406 369.175781 369.675781 368.273438 369.675781 C 367.371094 369.675781 366.640625 368.941406 366.640625 368.039062 C 366.640625 365.945312 364.9375 364.238281 362.851562 364.238281 C 361.945312 364.238281 361.214844 363.507812 361.214844 362.601562 Z M 459.902344 362.601562 C 459.902344 361.695312 460.632812 360.960938 461.539062 360.960938 C 463.625 360.960938 465.328125 359.257812 465.328125 357.164062 C 465.328125 356.261719 466.058594 355.527344 466.960938 355.527344 C 467.863281 355.527344 468.597656 356.261719 468.597656 357.164062 C 468.597656 359.257812 470.296875 360.960938 472.386719 360.960938 C 473.289062 360.960938 474.023438 361.695312 474.023438 362.601562 C 474.023438 363.507812 473.289062 364.238281 472.386719 364.238281 C 470.296875 364.238281 468.597656 365.945312 468.597656 368.039062 C 468.597656 368.941406 467.863281 369.675781 466.960938 369.675781 C 466.058594 369.675781 465.328125 368.941406 465.328125 368.039062 C 465.328125 365.945312 463.625 364.238281 461.539062 364.238281 C 460.632812 364.238281 459.902344 363.507812 459.902344 362.601562 Z M 326.265625 532.878906 C 325.363281 532.878906 324.632812 532.144531 324.632812 531.238281 C 324.632812 530.332031 325.363281 529.597656 326.265625 529.597656 C 328.355469 529.597656 330.058594 527.894531 330.058594 525.800781 C 330.058594 524.898438 330.789062 524.164062 331.691406 524.164062 C 332.59375 524.164062 333.328125 524.898438 333.328125 525.800781 C 333.328125 527.894531 335.027344 529.597656 337.117188 529.597656 C 338.019531 529.597656 338.753906 530.332031 338.753906 531.238281 C 338.753906 532.144531 338.019531 532.878906 337.117188 532.878906 C 335.027344 532.878906 333.328125 534.582031 333.328125 536.675781 C 333.328125 537.578125 332.59375 538.3125 331.691406 538.3125 C 330.789062 538.3125 330.058594 537.578125 330.058594 536.675781 C 330.054688 534.582031 328.355469 532.878906 326.265625 532.878906 Z M 372.640625 561.78125 C 372.640625 562.6875 371.910156 563.421875 371.007812 563.421875 C 368.917969 563.421875 367.21875 565.125 367.21875 567.21875 C 367.21875 568.121094 366.484375 568.855469 365.582031 568.855469 C 364.679688 568.855469 363.945312 568.121094 363.945312 567.21875 C 363.945312 565.125 362.246094 563.421875 360.15625 563.421875 C 359.253906 563.421875 358.523438 562.6875 358.523438 561.78125 C 358.523438 560.875 359.253906 560.144531 360.15625 560.144531 C 362.246094 560.144531 363.945312 558.4375 363.945312 556.34375 C 363.945312 555.441406 364.679688 554.707031 365.582031 554.707031 C 366.484375 554.707031 367.21875 555.441406 367.21875 556.34375 C 367.21875 558.441406 368.917969 560.144531 371.007812 560.144531 C 371.910156 560.144531 372.640625 560.875 372.640625 561.78125 Z M 476.925781 561.78125 C 476.925781 562.6875 476.195312 563.421875 475.289062 563.421875 C 473.199219 563.421875 471.5 565.125 471.5 567.21875 C 471.5 568.121094 470.769531 568.855469 469.867188 568.855469 C 468.960938 568.855469 468.230469 568.121094 468.230469 567.21875 C 468.230469 565.125 466.53125 563.421875 464.441406 563.421875 C 463.539062 563.421875 462.804688 562.6875 462.804688 561.78125 C 462.804688 560.875 463.539062 560.144531 464.441406 560.144531 C 466.53125 560.144531 468.230469 558.4375 468.230469 556.34375 C 468.230469 555.441406 468.960938 554.707031 469.867188 554.707031 C 470.769531 554.707031 471.5 555.441406 471.5 556.34375 C 471.5 558.441406 473.199219 560.144531 475.289062 560.144531 C 476.195312 560.144531 476.925781 560.875 476.925781 561.78125 Z M 509.175781 530.894531 C 509.175781 531.796875 508.445312 532.53125 507.542969 532.53125 C 505.453125 532.53125 503.753906 534.234375 503.753906 536.328125 C 503.753906 537.234375 503.019531 537.96875 502.117188 537.96875 C 501.214844 537.96875 500.480469 537.234375 500.480469 536.328125 C 500.480469 534.234375 498.78125 532.53125 496.691406 532.53125 C 495.789062 532.53125 495.058594 531.796875 495.058594 530.894531 C 495.058594 529.988281 495.789062 529.253906 496.691406 529.253906 C 498.78125 529.253906 500.480469 527.550781 500.480469 525.457031 C 500.480469 524.550781 501.214844 523.816406 502.117188 523.816406 C 503.019531 523.816406 503.753906 524.550781 503.753906 525.457031 C 503.753906 527.550781 505.453125 529.253906 507.542969 529.253906 C 508.445312 529.253906 509.175781 529.988281 509.175781 530.894531 Z M 460.875 605.820312 C 460.875 606.726562 460.144531 607.460938 459.238281 607.460938 C 457.148438 607.460938 455.449219 609.164062 455.449219 611.257812 C 455.449219 612.164062 454.71875 612.898438 453.816406 612.898438 C 452.910156 612.898438 452.179688 612.164062 452.179688 611.257812 C 452.179688 609.164062 450.480469 607.460938 448.390625 607.460938 C 447.488281 607.460938 446.757812 606.726562 446.757812 605.820312 C 446.757812 604.917969 447.488281 604.183594 448.390625 604.183594 C 450.480469 604.183594 452.179688 602.480469 452.179688 600.386719 C 452.179688 599.480469 452.914062 598.746094 453.816406 598.746094 C 454.71875 598.746094 455.449219 599.480469 455.449219 600.386719 C 455.449219 602.480469 457.148438 604.183594 459.238281 604.183594 C 460.144531 604.183594 460.875 604.917969 460.875 605.820312 Z M 388.273438 605.820312 C 388.273438 606.726562 387.539062 607.460938 386.636719 607.460938 C 384.546875 607.460938 382.847656 609.164062 382.847656 611.257812 C 382.847656 612.164062 382.113281 612.898438 381.210938 612.898438 C 380.308594 612.898438 379.578125 612.164062 379.578125 611.257812 C 379.578125 609.164062 377.878906 607.460938 375.789062 607.460938 C 374.886719 607.460938 374.152344 606.726562 374.152344 605.820312 C 374.152344 604.917969 374.886719 604.183594 375.789062 604.183594 C 377.878906 604.183594 379.578125 602.480469 379.578125 600.386719 C 379.578125 599.480469 380.308594 598.746094 381.210938 598.746094 C 382.117188 598.746094 382.847656 599.480469 382.847656 600.386719 C 382.847656 602.480469 384.546875 604.183594 386.636719 604.183594 C 387.539062 604.183594 388.273438 604.917969 388.273438 605.820312 Z M 340.179688 599.765625 C 340.179688 600.671875 339.445312 601.40625 338.542969 601.40625 C 336.453125 601.40625 334.753906 603.109375 334.753906 605.203125 C 334.753906 606.109375 334.019531 606.84375 333.117188 606.84375 C 332.214844 606.84375 331.484375 606.109375 331.484375 605.203125 C 331.484375 603.109375 329.78125 601.40625 327.695312 601.40625 C 326.789062 601.40625 326.058594 600.671875 326.058594 599.765625 C 326.058594 598.863281 326.789062 598.128906 327.695312 598.128906 C 329.78125 598.128906 331.484375 596.425781 331.484375 594.332031 C 331.484375 593.425781 332.214844 592.691406 333.117188 592.691406 C 334.019531 592.691406 334.753906 593.425781 334.753906 594.332031 C 334.753906 596.425781 336.453125 598.128906 338.542969 598.128906 C 339.445312 598.128906 340.179688 598.863281 340.179688 599.765625 Z M 509.175781 599.765625 C 509.175781 600.671875 508.445312 601.40625 507.542969 601.40625 C 505.453125 601.40625 503.753906 603.109375 503.753906 605.203125 C 503.753906 606.109375 503.019531 606.84375 502.117188 606.84375 C 501.214844 606.84375 500.480469 606.109375 500.480469 605.203125 C 500.480469 603.109375 498.78125 601.40625 496.691406 601.40625 C 495.789062 601.40625 495.058594 600.671875 495.058594 599.765625 C 495.058594 598.863281 495.789062 598.128906 496.691406 598.128906 C 498.78125 598.128906 500.480469 596.425781 500.480469 594.332031 C 500.480469 593.425781 501.214844 592.691406 502.117188 592.691406 C 503.019531 592.691406 503.753906 593.425781 503.753906 594.332031 C 503.753906 596.425781 505.453125 598.128906 507.542969 598.128906 C 508.445312 598.128906 509.175781 598.863281 509.175781 599.765625 Z M 509.175781 599.765625 " fill-opacity="1" fill-rule="nonzero"/></g></svg>