<svg xmlns="http://www.w3.org/2000/svg" xmlns:xlink="http://www.w3.org/1999/xlink" width="1080" zoomAndPan="magnify" viewBox="0 0 810 809.999993" height="1080" preserveAspectRatio="xMidYMid meet" version="1.0"><defs><clipPath id="f5f67290e1"><path d="M 261.277344 313.351562 L 509.527344 313.351562 L 509.527344 737.101562 L 261.277344 737.101562 Z M 261.277344 313.351562 " clip-rule="nonzero"/></clipPath></defs><g clip-path="url(#f5f67290e1)"><path fill="#2e2e2e" d="M 505.371094 317.609375 C 502.679688 314.914062 499.097656 313.449219 495.289062 313.449219 L 275.476562 313.449219 C 271.667969 313.449219 268.089844 314.914062 265.433594 317.609375 C 262.742188 320.304688 261.277344 323.886719 261.277344 327.660156 L 261.277344 722.757812 C 261.277344 726.570312 262.742188 730.148438 265.433594 732.847656 C 268.128906 735.542969 271.707031 737.003906 275.476562 737.003906 L 495.289062 737.003906 C 499.097656 737.003906 502.679688 735.542969 505.371094 732.847656 C 508.066406 730.148438 509.527344 726.570312 509.527344 722.796875 L 509.527344 327.699219 C 509.527344 323.886719 508.066406 320.304688 505.371094 317.609375 Z M 505.871094 525.246094 L 505.871094 722.796875 C 505.871094 725.722656 504.679688 728.339844 502.792969 730.265625 C 500.871094 732.191406 498.253906 733.347656 495.328125 733.347656 L 275.476562 733.347656 C 272.554688 733.347656 269.9375 732.152344 268.011719 730.265625 C 266.089844 728.339844 264.933594 725.722656 264.933594 722.796875 L 264.933594 327.699219 C 264.933594 324.769531 266.128906 322.152344 268.011719 320.226562 C 269.9375 318.300781 272.554688 317.144531 275.476562 317.144531 L 495.289062 317.144531 C 498.214844 317.144531 500.832031 318.339844 502.753906 320.226562 C 504.679688 322.152344 505.832031 324.769531 505.832031 327.699219 Z M 499.753906 327.699219 C 499.753906 326.503906 499.292969 325.386719 498.445312 324.539062 C 497.597656 323.691406 496.484375 323.230469 495.289062 323.230469 L 275.441406 323.230469 C 274.246094 323.230469 273.128906 323.691406 272.285156 324.539062 C 271.4375 325.386719 270.976562 326.503906 270.976562 327.699219 L 270.976562 690.292969 C 271.015625 691.988281 272.398438 693.375 274.09375 693.375 L 496.484375 693.375 C 498.214844 693.375 499.714844 691.871094 499.714844 690.140625 L 499.714844 525.246094 Z M 274.671875 525.246094 L 274.671875 327.699219 C 274.671875 327.464844 274.746094 327.3125 274.902344 327.160156 C 275.054688 327.003906 275.246094 326.925781 275.441406 326.925781 L 495.289062 326.925781 C 495.519531 326.925781 495.675781 327.003906 495.828125 327.160156 C 495.984375 327.3125 496.058594 327.503906 496.058594 327.699219 L 496.058594 606.382812 L 477.78125 606.382812 L 477.78125 564.179688 L 482.707031 564.179688 C 483.707031 564.179688 484.554688 563.371094 484.554688 562.328125 L 484.554688 550.121094 C 484.554688 549.121094 483.746094 548.273438 482.707031 548.273438 L 462.234375 548.273438 C 463.347656 547.15625 464.464844 545.769531 465.582031 544.117188 C 472.46875 533.949219 463.542969 501.332031 462.503906 497.675781 C 462.464844 497.519531 462.386719 497.367188 462.308594 497.25 L 462.308594 497.210938 L 462.347656 497.097656 C 462.617188 495.980469 462.425781 494.863281 461.964844 493.902344 C 462.8125 493.246094 463.464844 492.28125 463.734375 491.128906 C 464.351562 488.46875 462.695312 485.8125 460.039062 485.199219 L 457.652344 484.660156 L 457.652344 482.925781 C 458.078125 482.964844 458.5 482.964844 458.960938 482.964844 C 464.195312 482.964844 469.890625 480.613281 473.855469 478.113281 C 477.164062 476.03125 479.78125 473.105469 481.550781 469.523438 C 481.628906 469.332031 482.011719 468.484375 482.476562 467.445312 C 483.015625 466.210938 483.976562 463.941406 484.246094 463.402344 C 484.398438 463.171875 484.515625 462.941406 484.554688 462.632812 C 484.707031 461.628906 484.015625 460.707031 483.015625 460.550781 C 482.976562 460.550781 482.9375 460.550781 482.898438 460.550781 C 474.585938 459.433594 463.386719 462.476562 458.039062 470.410156 C 457.960938 470.527344 457.886719 470.679688 457.808594 470.832031 L 457.921875 458.050781 C 458.421875 458.394531 458.925781 458.742188 459.386719 459.164062 C 460.425781 460.128906 461.308594 460.898438 462.308594 460.898438 C 462.542969 460.898438 462.773438 460.859375 463.003906 460.78125 C 463.734375 460.550781 464.234375 459.898438 464.386719 459.089844 C 464.542969 458.164062 464.8125 457.242188 465.082031 456.238281 C 465.464844 454.890625 465.8125 453.542969 465.964844 452.117188 C 466.734375 452.195312 467.503906 452.234375 468.3125 452.234375 C 469.699219 452.234375 471.046875 452.082031 472.238281 451.734375 C 473.316406 451.386719 474.007812 450.460938 474.046875 449.421875 C 474.046875 448.613281 473.664062 448.035156 473.507812 447.765625 L 473.046875 447.074219 C 472.699219 446.535156 472.277344 445.957031 471.855469 445.339844 C 473.125 445.148438 474.433594 444.917969 475.664062 444.648438 L 476.855469 444.417969 C 477.472656 444.300781 478.164062 444.148438 478.859375 443.917969 C 479.703125 443.648438 480.667969 442.953125 480.820312 441.796875 C 480.9375 440.953125 480.550781 440.140625 479.820312 439.601562 C 478.972656 439.027344 478.203125 438.410156 477.394531 437.714844 C 476.742188 437.175781 476.085938 436.636719 475.394531 436.136719 C 475.625 435.945312 475.855469 435.792969 476.046875 435.597656 L 476.316406 435.40625 C 477.28125 434.636719 478.164062 433.867188 479.128906 433.289062 L 479.472656 433.058594 C 479.933594 432.75 480.972656 432.054688 481.4375 431.824219 C 482.167969 431.476562 482.589844 430.707031 482.511719 429.898438 C 482.4375 429.089844 481.859375 428.398438 481.089844 428.203125 C 480.628906 428.089844 480.167969 427.859375 479.628906 427.664062 C 479.164062 427.472656 478.664062 427.242188 478.203125 427.089844 C 477.433594 426.820312 476.703125 426.511719 475.933594 426.203125 C 475.125 425.855469 474.277344 425.507812 473.394531 425.238281 C 472.894531 425.085938 472.394531 424.933594 471.929688 424.816406 C 472.085938 424.46875 472.238281 424.121094 472.355469 423.777344 C 472.699219 422.699219 472.929688 421.582031 473.125 420.464844 L 473.164062 420.234375 L 473.855469 416.230469 C 473.96875 415.535156 473.855469 414.917969 473.46875 414.457031 C 473.125 413.996094 472.585938 413.726562 472.007812 413.6875 C 471.777344 413.6875 471.546875 413.6875 471.238281 413.6875 C 470.699219 413.726562 470.121094 413.800781 469.582031 413.839844 L 469.160156 413.878906 C 468.660156 413.917969 468.082031 413.996094 467.503906 414.148438 C 466.390625 414.457031 465.3125 414.957031 464.3125 415.574219 C 464.117188 413.800781 463.8125 412.109375 463.542969 410.644531 L 463.347656 409.683594 C 463.273438 409.335938 463.15625 408.640625 462.578125 408.066406 C 461.808594 407.292969 460.578125 407.140625 459.578125 407.679688 C 457.078125 408.988281 454.5 411.839844 452.882812 414.1875 C 452.226562 413.339844 451.535156 412.53125 450.84375 411.761719 C 449.917969 410.722656 449.074219 409.722656 448.304688 408.640625 C 447.957031 408.179688 447.457031 407.910156 446.917969 407.832031 C 446.378906 407.757812 445.800781 407.910156 445.378906 408.257812 C 444.378906 409.027344 443.992188 410.453125 443.683594 411.839844 L 443.609375 412.148438 C 443.222656 413.6875 443.03125 415.152344 443.03125 416.574219 C 442.300781 416.230469 441.566406 415.921875 440.835938 415.652344 C 440.222656 415.382812 439.605469 415.152344 438.988281 414.882812 C 438.605469 414.6875 438.21875 414.496094 437.835938 414.304688 C 437.449219 414.109375 436.105469 413.300781 435.605469 412.992188 C 434.949219 412.609375 434.140625 412.609375 433.527344 413.03125 C 432.910156 413.457031 432.5625 414.1875 432.679688 414.917969 C 432.792969 415.882812 432.988281 417.191406 433.101562 417.960938 C 433.21875 418.691406 433.332031 419.425781 433.410156 420.15625 C 433.527344 421.003906 433.601562 421.851562 433.757812 422.660156 C 433.910156 423.507812 434.140625 424.277344 434.410156 425.007812 C 433.101562 425.203125 431.832031 425.433594 430.601562 425.703125 C 429.792969 425.855469 429.023438 426.011719 428.214844 426.164062 C 427.90625 426.203125 427.636719 426.28125 427.40625 426.355469 C 424.675781 421.042969 418.324219 418.460938 414.015625 417.730469 C 411.9375 415.804688 409.550781 414.726562 407.320312 414.148438 C 410.511719 411.339844 411.320312 407.640625 411.511719 406.101562 C 418.132812 398.324219 413.824219 389.542969 410.167969 385.421875 C 410.207031 380.222656 406.855469 377.414062 404.472656 375.679688 L 407.125 362.855469 C 407.242188 362.238281 407.050781 361.585938 406.585938 361.160156 C 406.125 360.738281 405.472656 360.546875 404.855469 360.738281 L 393.695312 363.855469 L 385.769531 357.042969 C 385.074219 356.464844 384.074219 356.464844 383.382812 357.042969 L 375.648438 363.664062 L 365.105469 361.355469 C 364.527344 361.238281 363.871094 361.390625 363.449219 361.816406 C 363.027344 362.238281 362.792969 362.855469 362.910156 363.433594 L 364.949219 375.832031 C 362.488281 377.335938 358.5625 379.800781 358.640625 385.460938 C 354.984375 389.582031 350.710938 398.359375 357.332031 406.179688 C 357.5625 407.679688 358.371094 411.300781 361.5625 414.035156 C 359.253906 414.648438 356.753906 415.765625 354.558594 417.808594 C 348.789062 418.808594 339.207031 423.082031 339.859375 433.019531 C 337.472656 435.328125 331.507812 441.644531 331.816406 446.765625 C 321.695312 456.855469 325.46875 473.605469 326.390625 477.109375 C 326.082031 477.84375 325.503906 479.230469 324.621094 480.921875 C 324.621094 480.960938 324.582031 480.960938 324.582031 481 C 323.890625 482.308594 323.082031 483.734375 322.082031 485.160156 C 322.003906 485.042969 321.925781 484.964844 321.847656 484.890625 C 321.847656 484.8125 321.886719 484.734375 321.847656 484.660156 L 319.847656 385.035156 L 326.121094 376.179688 C 326.582031 375.488281 326.582031 374.601562 326.042969 373.945312 L 322.542969 369.671875 C 322.195312 369.25 321.695312 369.015625 321.117188 369.015625 C 320.578125 369.015625 320.039062 369.25 319.695312 369.671875 L 318.847656 370.671875 L 317.808594 344.910156 C 317.769531 344.371094 317.539062 343.910156 317.117188 343.5625 C 316.691406 343.214844 316.191406 343.101562 315.652344 343.179688 L 301.339844 345.640625 C 300.375 345.796875 299.683594 346.722656 299.835938 347.683594 L 306.035156 394.546875 L 305.996094 394.472656 C 305.6875 393.894531 305.070312 393.546875 304.417969 393.546875 C 303.761719 393.546875 303.148438 393.894531 302.839844 394.433594 L 298.953125 401.054688 C 298.566406 401.710938 298.644531 402.558594 299.105469 403.136719 L 305.378906 410.875 L 310.226562 484.8125 L 308.917969 485.121094 C 306.265625 485.738281 304.609375 488.394531 305.226562 491.050781 C 305.496094 492.207031 306.148438 493.167969 306.996094 493.824219 C 306.609375 494.59375 306.457031 495.480469 306.535156 496.402344 C 305.070312 501.488281 295.875 534.371094 302.953125 544.117188 C 304.1875 545.847656 305.378906 547.15625 306.457031 548.199219 L 286.90625 548.199219 C 285.90625 548.199219 285.058594 549.007812 285.058594 550.046875 L 285.058594 562.253906 C 285.058594 563.253906 285.867188 564.101562 286.90625 564.101562 L 294.027344 564.101562 L 294.027344 606.308594 L 274.863281 606.308594 Z M 454.421875 509.535156 L 448.457031 508.148438 C 447.765625 507.996094 447.339844 507.300781 447.496094 506.648438 C 447.648438 506.070312 448.148438 505.683594 448.726562 505.683594 C 448.804688 505.683594 448.917969 505.683594 448.996094 505.722656 L 454.960938 507.109375 C 455.652344 507.261719 456.078125 507.957031 455.921875 508.609375 C 455.769531 509.265625 455.074219 509.6875 454.421875 509.535156 Z M 454.652344 552.585938 L 450.84375 552.316406 L 451.574219 512.617188 L 453.613281 513.078125 C 453.804688 513.117188 454.035156 513.117188 454.230469 513.15625 Z M 455.84375 503.335938 L 447.726562 501.449219 C 447.070312 501.292969 446.609375 500.601562 446.761719 499.945312 C 446.878906 499.367188 447.417969 498.984375 447.996094 498.984375 C 448.070312 498.984375 448.1875 498.984375 448.265625 499.023438 L 456.382812 500.910156 C 457.078125 501.0625 457.5 501.757812 457.347656 502.410156 C 457.269531 502.71875 457.078125 503.027344 456.769531 503.179688 C 456.5 503.335938 456.152344 503.410156 455.84375 503.335938 Z M 457.308594 497.289062 L 446.800781 494.863281 C 446.492188 494.785156 446.226562 494.59375 446.070312 494.324219 C 445.917969 494.054688 445.839844 493.707031 445.957031 493.285156 C 446.070312 492.746094 446.570312 492.359375 447.109375 492.359375 C 447.1875 492.359375 447.300781 492.359375 447.378906 492.398438 L 449.726562 492.9375 L 455.5 494.285156 L 457.921875 494.863281 C 458.578125 495.015625 458.960938 495.671875 458.847656 496.289062 L 458.808594 496.402344 C 458.617188 497.058594 457.921875 497.441406 457.308594 497.289062 Z M 441.066406 450.117188 C 440.335938 450.308594 439.605469 450.425781 438.914062 450.578125 C 438.375 450.695312 437.796875 450.808594 437.257812 450.925781 C 437.335938 450.730469 437.414062 450.578125 437.488281 450.386719 C 437.71875 449.730469 437.949219 449.078125 438.144531 448.382812 C 438.527344 447.191406 438.875 446.074219 439.375 445.070312 C 439.605469 444.570312 439.875 444.1875 440.144531 443.800781 C 440.605469 443.183594 441.492188 442.53125 442.53125 442.105469 C 443.183594 443.03125 443.953125 443.878906 444.800781 444.609375 C 444.070312 445.496094 443.453125 446.574219 442.953125 447.804688 C 442.722656 448.382812 442.53125 449.039062 442.339844 449.730469 C 441.875 449.886719 441.492188 450 441.066406 450.117188 Z M 342.207031 448.613281 C 342.054688 447.613281 341.128906 446.921875 340.128906 447.074219 C 337.433594 447.460938 336.011719 447.074219 335.355469 446.765625 C 335.011719 444.261719 338.433594 439.679688 341.628906 436.40625 C 342.167969 436.832031 342.859375 437.292969 343.785156 437.792969 C 344.054688 437.949219 344.324219 437.984375 344.632812 437.984375 C 345.285156 437.984375 345.941406 437.640625 346.246094 436.984375 C 346.710938 436.097656 346.363281 434.980469 345.4375 434.519531 C 344.285156 433.941406 343.667969 433.402344 343.398438 433.132812 C 342.785156 426.316406 348.710938 423.351562 352.519531 422.160156 C 352.367188 423.238281 352.367188 424.546875 352.710938 425.972656 C 353.636719 429.785156 356.675781 433.171875 361.753906 436.023438 C 362.023438 436.175781 362.332031 436.253906 362.640625 436.253906 C 363.296875 436.253906 363.910156 435.90625 364.257812 435.328125 C 364.757812 434.441406 364.449219 433.328125 363.566406 432.824219 C 359.523438 430.554688 356.984375 427.898438 356.292969 425.164062 C 355.714844 422.96875 356.445312 421.273438 356.714844 420.773438 C 361.253906 416.382812 368.144531 417.113281 368.222656 417.113281 C 368.222656 417.113281 368.222656 417.113281 368.257812 417.113281 C 369.261719 417.269531 370.300781 417.34375 371.375 417.34375 C 371.875 417.34375 372.375 417.34375 372.878906 417.308594 C 371.683594 419.117188 368.796875 421.082031 365.140625 421.621094 C 365.027344 421.425781 364.871094 421.234375 364.796875 421.082031 C 364.257812 420.234375 363.101562 420.003906 362.257812 420.542969 C 361.410156 421.082031 361.179688 422.234375 361.71875 423.082031 C 361.988281 423.507812 367.835938 432.363281 373.53125 436.792969 C 365.757812 441.183594 343.476562 454.273438 332.433594 466.984375 C 332.277344 467.097656 332.164062 467.253906 332.046875 467.40625 C 330.894531 468.792969 329.816406 470.179688 328.96875 471.527344 C 328.160156 465.710938 328.046875 456.316406 333.742188 450 C 335.050781 450.617188 337.242188 451.15625 340.707031 450.65625 C 341.628906 450.539062 342.320312 449.617188 342.207031 448.613281 Z M 387.691406 421.734375 C 387.578125 421.503906 387.386719 421.351562 387.117188 421.390625 C 385.847656 421.425781 384.84375 421.890625 384.152344 422.773438 C 382.882812 424.390625 383.191406 426.703125 383.304688 427.359375 C 383.382812 427.820312 383.652344 428.550781 383.960938 429.4375 C 384.574219 431.09375 385.691406 434.210938 385.039062 434.980469 C 384.84375 435.214844 384.382812 435.175781 384.039062 435.097656 C 380.496094 434.40625 381.574219 428.398438 381.574219 428.320312 C 381.613281 428.089844 381.496094 427.820312 381.304688 427.703125 C 381.074219 427.589844 380.804688 427.589844 380.613281 427.742188 C 380.496094 427.820312 377.839844 429.9375 376.726562 434.636719 C 373.648438 432.59375 370.066406 428.359375 367.488281 424.929688 C 372.878906 423.546875 377.148438 419.617188 377.148438 415.726562 L 377.148438 410.953125 C 379.496094 412.261719 382.074219 412.957031 384.613281 412.957031 C 385.421875 412.957031 386.230469 412.878906 387.039062 412.722656 C 388.65625 412.417969 390.234375 411.800781 391.734375 410.953125 L 391.734375 415.496094 C 391.734375 419.078125 395.503906 423.390625 400.890625 425.046875 C 398.3125 428.4375 394.695312 432.75 391.578125 434.75 C 391.273438 432.75 390.425781 430.746094 389.15625 428.976562 C 385.921875 424.546875 387.578125 422.542969 387.65625 422.46875 C 387.730469 422.234375 387.769531 421.964844 387.691406 421.734375 Z M 370.261719 392.96875 L 370.144531 391.96875 C 373.070312 390.429688 380.457031 386.113281 384.152344 380.070312 C 388.039062 386.578125 395.3125 390.621094 398.3125 392.082031 L 398.160156 393.238281 C 398.042969 394.277344 397.851562 395.28125 397.542969 396.359375 C 396.660156 399.59375 395.3125 402.328125 393.503906 404.5625 C 391.503906 406.988281 388.964844 408.605469 386.347656 409.105469 C 383.152344 409.683594 379.535156 408.566406 376.6875 406.179688 C 376.570312 406.023438 376.417969 405.910156 376.265625 405.792969 C 375.917969 405.484375 375.570312 405.136719 375.261719 404.792969 C 372.722656 402.097656 371.144531 398.285156 370.261719 392.96875 Z M 395.3125 408.027344 C 395.660156 407.679688 396.003906 407.292969 396.3125 406.910156 C 398.007812 404.832031 399.316406 402.402344 400.316406 399.632812 C 400.355469 399.59375 400.355469 399.554688 400.390625 399.515625 C 401.777344 397.320312 403.972656 393.277344 402.855469 390.890625 C 402.46875 390.082031 401.816406 389.542969 400.929688 389.3125 C 400.238281 389.003906 388.769531 383.921875 385.882812 375.253906 C 385.808594 374.984375 385.652344 374.792969 385.5 374.601562 C 392.15625 374.984375 400.121094 377.757812 401.507812 378.257812 L 401.777344 378.453125 C 404.085938 380.144531 406.742188 382.070312 406.394531 386.113281 C 406.355469 386.652344 406.550781 387.15625 406.894531 387.539062 C 407.242188 387.886719 415.398438 396.433594 408.28125 404.253906 C 407.972656 404.5625 407.820312 404.984375 407.820312 405.40625 C 407.820312 405.445312 407.589844 409.179688 404.703125 411.609375 C 402.546875 413.457031 399.390625 414.1875 395.3125 413.800781 Z M 401.007812 374.175781 C 397.507812 373.023438 390.117188 370.867188 384 370.867188 C 378.074219 370.867188 371.570312 373.023438 368.296875 374.292969 L 366.875 365.628906 L 375.6875 367.554688 C 376.265625 367.667969 376.839844 367.515625 377.265625 367.167969 L 384.5 360.96875 L 391.964844 367.398438 C 392.425781 367.785156 393.082031 367.9375 393.65625 367.785156 L 402.894531 365.203125 Z M 367.683594 378.453125 C 368.566406 378.066406 375.917969 374.949219 382.652344 374.5625 C 382.496094 374.753906 382.382812 374.984375 382.304688 375.253906 C 380.152344 383.1875 367.488281 389.195312 367.375 389.273438 C 367.335938 389.273438 367.335938 389.3125 367.296875 389.3125 C 367.257812 389.351562 367.183594 389.386719 367.144531 389.425781 C 367.105469 389.464844 367.066406 389.464844 367.027344 389.503906 C 365.988281 389.851562 365.257812 390.582031 364.949219 391.582031 C 364.140625 394.203125 366.875 398.050781 368.144531 399.632812 C 369.222656 402.75 370.644531 405.253906 372.53125 407.332031 C 372.839844 407.679688 373.148438 407.949219 373.453125 408.257812 L 373.453125 413.570312 C 369.296875 413.957031 366.105469 413.226562 363.910156 411.414062 C 361.023438 409.027344 360.792969 405.40625 360.792969 405.40625 C 360.792969 404.984375 360.601562 404.5625 360.332031 404.253906 C 353.25 396.472656 361.371094 387.886719 361.71875 387.539062 C 362.101562 387.15625 362.292969 386.652344 362.21875 386.113281 C 361.910156 382.03125 364.527344 380.414062 366.835938 379.03125 C 367.144531 378.835938 367.414062 378.644531 367.683594 378.453125 Z M 376.878906 439.140625 C 377.339844 440.914062 378.957031 444.917969 383.960938 444.917969 C 390.117188 444.917969 391.308594 439.679688 391.386719 439.257812 C 391.386719 439.21875 391.386719 439.179688 391.425781 439.101562 C 392.503906 439.71875 394.425781 440.796875 396.890625 442.222656 L 384.230469 456.855469 L 371.261719 442.335938 C 373.800781 440.875 375.761719 439.757812 376.878906 439.140625 Z M 394.851562 436.832031 C 400.507812 432.441406 406.242188 423.777344 406.511719 423.351562 C 407.050781 422.503906 406.820312 421.351562 405.972656 420.8125 C 405.125 420.273438 403.972656 420.503906 403.433594 421.351562 C 403.355469 421.503906 403.238281 421.660156 403.125 421.8125 C 399.96875 421.195312 397.429688 419.347656 396.160156 417.578125 C 396.542969 417.578125 396.929688 417.613281 397.273438 417.613281 C 398.3125 417.613281 399.316406 417.539062 400.277344 417.382812 C 401.355469 417.269531 407.433594 416.769531 411.589844 420.773438 C 411.859375 421.273438 412.589844 422.929688 412.050781 425.085938 C 411.359375 427.820312 408.859375 430.515625 404.777344 432.824219 C 403.894531 433.328125 403.585938 434.441406 404.085938 435.328125 C 404.433594 435.945312 405.046875 436.253906 405.703125 436.253906 C 406.011719 436.253906 406.320312 436.175781 406.585938 436.023438 C 411.667969 433.171875 414.707031 429.785156 415.632812 425.972656 C 415.976562 424.546875 415.976562 423.238281 415.824219 422.160156 C 419.710938 423.351562 425.828125 426.433594 424.90625 433.632812 C 424.828125 434.25 425.058594 434.867188 425.558594 435.289062 C 425.558594 435.289062 427.253906 436.714844 429.101562 438.988281 C 428.253906 439.679688 427.445312 440.375 426.597656 440.988281 C 425.90625 441.492188 425.636719 442.375 425.945312 443.183594 C 426.597656 444.800781 428.636719 445.300781 429.984375 445.609375 L 430.292969 445.6875 C 431.910156 446.109375 433.449219 446.304688 434.949219 446.34375 C 434.832031 446.6875 434.71875 447.035156 434.640625 447.34375 C 434.449219 447.960938 434.257812 448.574219 434.027344 449.152344 C 433.871094 449.539062 433.71875 449.921875 433.5625 450.269531 C 433.371094 450.65625 432.640625 452.15625 432.449219 452.621094 C 432.101562 453.273438 432.179688 454.042969 432.640625 454.621094 C 432.988281 455.082031 433.601562 455.351562 434.179688 455.351562 C 434.296875 455.351562 434.410156 455.351562 434.527344 455.316406 C 435.027344 455.199219 436.679688 454.890625 437.527344 454.660156 C 437.605469 454.660156 437.644531 454.621094 437.71875 454.621094 C 440.375 460.359375 440.144531 467.058594 439.492188 471.605469 C 430.445312 457.585938 403.585938 441.722656 394.851562 436.832031 Z M 448.648438 426.78125 C 449.996094 426.046875 451.496094 425.664062 453.035156 425.664062 C 453.921875 425.664062 454.769531 425.777344 455.652344 426.046875 C 460.5 427.472656 463.273438 432.59375 461.847656 437.445312 C 460.425781 442.300781 455.304688 445.109375 450.457031 443.648438 C 448.109375 442.953125 446.148438 441.375 444.992188 439.21875 C 443.839844 437.0625 443.570312 434.597656 444.261719 432.25 C 444.917969 429.898438 446.492188 427.972656 448.648438 426.78125 Z M 447.070312 413.300781 C 447.378906 413.648438 447.6875 414.035156 447.996094 414.378906 C 448.804688 415.304688 449.535156 416.152344 450.226562 417.074219 C 450.648438 417.613281 451.035156 418.230469 451.34375 418.847656 C 451.921875 420.039062 452.152344 421.121094 451.996094 422.042969 C 450.957031 422.121094 449.917969 422.3125 448.917969 422.660156 C 448.417969 421.3125 447.648438 420.078125 446.726562 419.15625 C 446.6875 418.886719 446.648438 418.617188 446.609375 418.347656 C 446.492188 416.804688 446.648438 415.113281 447.070312 413.300781 Z M 455 417.960938 C 455.152344 417.613281 455.304688 417.308594 455.460938 417.039062 C 456.460938 415.34375 458.230469 413.226562 459.925781 411.914062 C 460.347656 414.226562 460.847656 417 460.734375 419.464844 C 460.65625 421.121094 460.308594 422.429688 459.695312 423.3125 C 459.578125 423.46875 459.460938 423.582031 459.347656 423.699219 C 458.5 423.238281 457.617188 422.8125 456.652344 422.542969 C 456.34375 422.46875 456 422.390625 455.691406 422.3125 C 455.808594 420.925781 455.574219 419.464844 455 417.960938 Z M 471.277344 420.078125 L 469.429688 419.964844 C 469.238281 421.003906 469.082031 421.890625 468.8125 422.773438 C 468.582031 423.429688 468.273438 424.121094 467.851562 424.855469 C 467.773438 424.96875 467.699219 425.085938 467.621094 425.238281 L 467.503906 425.433594 C 466.773438 426.550781 465.964844 427.320312 465.121094 427.78125 C 464.773438 427.972656 464.386719 428.128906 464.003906 428.203125 C 463.503906 427.394531 462.925781 426.664062 462.273438 425.972656 C 462.425781 425.777344 462.578125 425.625 462.734375 425.433594 C 463.65625 424.085938 464.195312 422.429688 464.386719 420.347656 C 464.773438 419.964844 465.195312 419.578125 465.621094 419.269531 C 466.503906 418.65625 467.46875 418.191406 468.46875 417.882812 C 468.738281 417.808594 469.082031 417.769531 469.46875 417.730469 L 469.851562 417.691406 L 469.46875 419.769531 Z M 473.933594 432.671875 L 473.699219 432.863281 C 472.96875 433.480469 472.085938 434.171875 471.121094 434.789062 C 470.429688 435.214844 469.851562 435.519531 469.3125 435.714844 C 468.390625 436.0625 467.082031 436.175781 465.8125 435.90625 C 465.925781 434.40625 465.773438 432.941406 465.390625 431.554688 C 465.964844 431.363281 466.429688 431.132812 466.734375 430.976562 C 467.890625 430.398438 468.929688 429.476562 469.851562 428.28125 C 470.546875 428.359375 471.316406 428.550781 472.160156 428.820312 C 472.96875 429.089844 473.738281 429.398438 474.507812 429.707031 C 475.242188 429.976562 475.933594 430.285156 476.664062 430.554688 C 475.703125 431.207031 474.777344 431.980469 473.933594 432.671875 Z M 475.046875 440.679688 C 475.203125 440.796875 475.316406 440.914062 475.472656 441.027344 L 474.972656 441.144531 C 473.507812 441.414062 472.007812 441.722656 470.546875 441.914062 C 469.8125 442.03125 469.160156 442.066406 468.542969 442.066406 C 468.507812 442.066406 468.46875 442.066406 468.429688 442.066406 C 467.46875 442.066406 466.699219 441.953125 465.964844 441.683594 C 465.351562 441.453125 464.851562 441.144531 464.425781 440.757812 C 464.621094 440.375 464.8125 439.949219 465.003906 439.527344 C 467.082031 440.027344 469.160156 439.757812 470.585938 439.21875 C 471.085938 439.027344 471.585938 438.792969 472.125 438.523438 C 473.125 439.101562 474.046875 439.871094 475.046875 440.679688 Z M 462.273438 443.761719 C 462.964844 444.339844 463.773438 444.800781 464.695312 445.109375 C 465.542969 445.417969 466.464844 445.609375 467.46875 445.6875 C 468.199219 446.652344 468.890625 447.613281 469.546875 448.574219 C 467.929688 448.730469 466.003906 448.539062 464.503906 448.230469 C 464.3125 448.191406 464.082031 448.152344 463.886719 448.074219 C 462.425781 447.691406 460.808594 446.765625 460 445.648438 C 460.808594 445.109375 461.578125 444.457031 462.273438 443.761719 Z M 450.957031 449.921875 C 451.035156 450.347656 451.152344 450.808594 451.304688 451.234375 C 450.457031 453.042969 449.074219 454.582031 447.417969 455.507812 C 446.761719 455.890625 446.070312 456.125 445.222656 456.355469 C 445.222656 456.007812 445.261719 455.660156 445.261719 455.316406 C 445.339844 453.929688 445.378906 452.621094 445.609375 451.347656 C 445.761719 450.5 445.957031 449.808594 446.1875 449.191406 C 446.609375 448.113281 447.148438 447.226562 447.800781 446.574219 C 448.304688 446.804688 448.839844 446.996094 449.378906 447.152344 C 449.878906 447.304688 450.417969 447.421875 450.917969 447.496094 C 450.765625 448.421875 450.84375 449.230469 450.957031 449.921875 Z M 449.574219 487.855469 C 449.726562 487.277344 450.226562 486.890625 450.804688 486.890625 C 450.882812 486.890625 450.996094 486.890625 451.074219 486.929688 L 459.191406 488.816406 C 459.847656 488.972656 460.308594 489.664062 460.15625 490.320312 C 460 491.011719 459.308594 491.4375 458.65625 491.28125 L 450.535156 489.394531 C 449.84375 489.203125 449.417969 488.507812 449.574219 487.855469 Z M 451.996094 456.625 C 452.574219 456.046875 453.113281 455.390625 453.574219 454.699219 C 453.765625 454.890625 453.921875 455.082031 454.113281 455.277344 C 454.152344 455.316406 454.191406 455.351562 454.230469 455.390625 L 454 483.8125 L 451.996094 483.347656 L 451.996094 456.625 C 451.996094 456.664062 451.996094 456.625 451.996094 456.625 Z M 454.960938 450.386719 C 454.769531 450 454.652344 449.652344 454.574219 449.308594 C 454.460938 448.539062 454.5 448.074219 454.769531 447.574219 C 455.382812 447.496094 456 447.34375 456.613281 447.191406 C 457.808594 449.230469 460.078125 450.730469 462.308594 451.425781 C 462.234375 452.65625 461.847656 453.929688 461.503906 455.277344 C 461.425781 455.507812 461.347656 455.777344 461.308594 456.007812 C 460.578125 455.429688 459.847656 454.96875 459.15625 454.507812 C 458.269531 453.929688 457.421875 453.390625 456.730469 452.695312 C 455.882812 451.847656 455.304688 451.117188 454.960938 450.386719 Z M 443.378906 426.394531 C 442.800781 426.011719 442.183594 425.703125 441.53125 425.472656 C 440.53125 425.125 439.453125 424.929688 438.21875 424.855469 C 437.835938 424.121094 437.527344 423.238281 437.296875 422.160156 C 437.144531 421.390625 437.066406 420.65625 436.988281 419.886719 C 436.910156 419.269531 436.835938 418.65625 436.757812 418.039062 C 436.988281 418.152344 437.21875 418.269531 437.414062 418.347656 C 438.066406 418.65625 438.71875 418.925781 439.414062 419.195312 C 441.105469 419.847656 442.683594 420.503906 443.914062 421.503906 C 443.953125 421.542969 443.992188 421.582031 444.03125 421.582031 C 444.648438 422.121094 445.339844 423.199219 445.6875 424.316406 C 444.800781 424.929688 444.03125 425.625 443.378906 426.394531 Z M 437.296875 428.550781 C 438.488281 428.511719 439.453125 428.628906 440.296875 428.9375 C 440.683594 429.089844 441.066406 429.246094 441.375 429.476562 C 441.105469 430.054688 440.875 430.628906 440.722656 431.207031 C 440.53125 431.824219 440.414062 432.441406 440.335938 433.09375 C 439.183594 433.058594 438.027344 433.210938 436.796875 433.632812 C 436.488281 433.558594 436.21875 433.480469 435.949219 433.363281 C 434.0625 432.632812 432.523438 431.363281 430.910156 430.054688 C 430.753906 429.898438 430.5625 429.785156 430.410156 429.628906 C 430.714844 429.589844 430.984375 429.515625 431.292969 429.476562 C 432.71875 429.207031 434.179688 428.898438 435.605469 428.707031 C 436.140625 428.589844 436.71875 428.550781 437.296875 428.550781 Z M 432.371094 440.949219 C 433.332031 440.140625 434.21875 439.332031 435.179688 438.640625 C 435.949219 438.0625 436.757812 437.601562 437.566406 437.253906 C 438.566406 436.832031 439.492188 436.675781 440.296875 436.753906 C 440.414062 437.445312 440.566406 438.140625 440.796875 438.832031 C 439.335938 439.488281 437.949219 440.488281 437.105469 441.644531 C 436.875 441.914062 436.679688 442.222656 436.488281 442.570312 C 434.871094 442.722656 433.0625 442.570312 431.140625 442.066406 L 431.0625 442.066406 C 431.523438 441.683594 431.949219 441.335938 432.371094 440.949219 Z M 443.109375 460.320312 C 443.339844 460.398438 443.609375 460.4375 443.800781 460.4375 C 444.109375 460.4375 444.339844 460.398438 444.453125 460.359375 C 445.648438 460.089844 446.996094 459.78125 448.339844 459.164062 L 448.339844 483.886719 C 447.648438 484.273438 447.070312 484.851562 446.609375 485.582031 C 445.570312 484.121094 444.648438 482.617188 443.953125 481.230469 C 443.953125 481.191406 443.914062 481.152344 443.878906 481.117188 C 442.953125 479.382812 442.339844 477.957031 442.070312 477.1875 C 442.644531 475.03125 444.300781 467.867188 443.109375 460.320312 Z M 459.5 509.417969 C 459.769531 508.226562 459.578125 507.070312 459.039062 506.03125 C 459.617188 505.605469 460.117188 505.066406 460.425781 504.414062 C 463.273438 516.195312 466.773438 535.875 462.542969 542.074219 C 460.769531 544.691406 459.308594 546.15625 458.230469 546.925781 L 457.847656 512 C 458.691406 511.34375 459.269531 510.460938 459.5 509.417969 Z M 458.460938 479.304688 C 458.886719 477.726562 459.539062 475.492188 459.695312 475.070312 C 460.039062 474.183594 460.5 473.335938 461.039062 472.488281 C 465.003906 466.597656 473.199219 463.902344 479.933594 464.019531 C 479.664062 464.671875 479.359375 465.367188 479.089844 465.980469 C 478.664062 466.945312 478.359375 467.714844 478.242188 467.90625 C 476.742188 470.949219 474.664062 473.261719 471.890625 475.03125 C 468.429688 477.226562 463.078125 479.5 458.460938 479.304688 Z M 303.570312 349.03125 L 314.113281 347.222656 L 315.269531 375.640625 C 315.308594 376.410156 315.808594 377.066406 316.5 377.296875 C 317.191406 377.527344 318 377.335938 318.5 376.71875 L 320.964844 373.753906 L 322.195312 375.253906 L 316.386719 383.457031 C 316.152344 383.765625 316.039062 384.152344 316.039062 384.574219 L 318 483.234375 C 317.617188 483.234375 317.191406 483.273438 316.808594 483.347656 L 313.613281 484.082031 L 308.765625 410.144531 C 308.726562 409.757812 308.613281 409.414062 308.34375 409.105469 L 302.53125 401.902344 L 304.1875 399.09375 L 307.304688 404.523438 C 307.726562 405.292969 308.648438 405.640625 309.496094 405.371094 C 310.34375 405.101562 310.84375 404.253906 310.726562 403.40625 Z M 317.65625 486.890625 C 317.730469 486.851562 317.847656 486.851562 317.925781 486.851562 C 318.5 486.851562 319.039062 487.238281 319.15625 487.816406 C 319.234375 488.125 319.15625 488.46875 319 488.777344 C 318.808594 489.046875 318.539062 489.28125 318.230469 489.355469 L 310.113281 491.242188 C 309.417969 491.398438 308.765625 490.972656 308.613281 490.28125 C 308.457031 489.625 308.882812 488.933594 309.574219 488.777344 Z M 309.6875 506.03125 C 309.148438 507.03125 308.957031 508.226562 309.226562 509.417969 C 309.496094 510.535156 310.152344 511.5 311.035156 512.191406 L 312.304688 548.003906 C 310.996094 547.621094 308.6875 546.15625 305.726562 542.035156 C 301.414062 536.105469 305.03125 516.464844 308.113281 504.066406 C 308.417969 504.875 308.996094 505.53125 309.6875 506.03125 Z M 321.003906 501.449219 L 312.882812 503.335938 C 312.574219 503.410156 312.230469 503.335938 311.921875 503.179688 C 311.613281 502.988281 311.421875 502.71875 311.34375 502.410156 C 311.191406 501.71875 311.613281 501.0625 312.304688 500.910156 L 320.425781 499.023438 C 320.503906 498.984375 320.617188 498.984375 320.695312 498.984375 C 321.273438 498.984375 321.8125 499.367188 321.925781 499.945312 C 322.117188 500.601562 321.695312 501.292969 321.003906 501.449219 Z M 321.078125 507.570312 C 320.886719 507.878906 320.617188 508.070312 320.308594 508.148438 L 314.34375 509.535156 C 313.691406 509.6875 313 509.265625 312.84375 508.570312 C 312.691406 507.878906 313.113281 507.222656 313.808594 507.070312 L 319.773438 505.683594 C 319.847656 505.644531 319.964844 505.644531 320.039062 505.644531 C 320.273438 505.644531 320.503906 505.722656 320.695312 505.839844 C 321.003906 506.03125 321.195312 506.300781 321.273438 506.609375 C 321.3125 506.953125 321.273438 507.300781 321.078125 507.570312 Z M 312.460938 551.972656 L 312.769531 560.519531 L 288.5625 560.519531 L 288.5625 551.972656 Z M 297.488281 564.179688 L 312.882812 564.179688 L 316.191406 658.175781 L 297.488281 658.175781 Z M 314.730469 513.15625 C 314.847656 513.117188 315 513.15625 315.113281 513.117188 L 318.925781 512.230469 L 325.003906 682.554688 L 320.695312 682.976562 Z M 321.964844 494.863281 L 311.460938 497.289062 C 310.804688 497.441406 310.152344 497.019531 309.996094 496.289062 C 309.84375 495.632812 310.265625 494.980469 310.882812 494.824219 L 310.921875 494.824219 L 319.039062 492.9375 L 321.386719 492.398438 C 321.464844 492.359375 321.582031 492.359375 321.65625 492.359375 C 321.886719 492.359375 322.117188 492.4375 322.3125 492.550781 C 322.582031 492.707031 322.773438 492.976562 322.886719 493.398438 C 322.964844 493.707031 322.886719 494.015625 322.734375 494.324219 C 322.542969 494.59375 322.273438 494.785156 321.964844 494.863281 Z M 274.671875 689.714844 L 274.671875 684.980469 L 308.1875 684.980469 C 309.1875 684.980469 310.035156 684.171875 310.035156 683.132812 C 310.035156 682.089844 309.226562 681.28125 308.1875 681.28125 L 274.671875 681.28125 L 274.671875 674.160156 L 282.136719 674.160156 C 283.136719 674.160156 283.984375 673.351562 283.984375 672.308594 C 283.984375 671.269531 283.175781 670.460938 282.136719 670.460938 L 274.671875 670.460938 L 274.671875 663.992188 L 283.058594 663.992188 C 284.058594 663.992188 284.90625 663.183594 284.90625 662.144531 C 284.90625 661.105469 284.097656 660.296875 283.058594 660.296875 L 274.671875 660.296875 L 274.671875 652.980469 L 286.097656 652.980469 C 287.101562 652.980469 287.945312 652.171875 287.945312 651.128906 C 287.945312 650.089844 287.136719 649.28125 286.097656 649.28125 L 274.671875 649.28125 L 274.671875 642.503906 L 282.136719 642.503906 C 283.136719 642.503906 283.984375 641.695312 283.984375 640.65625 C 283.984375 639.617188 283.175781 638.808594 282.136719 638.808594 L 274.671875 638.808594 L 274.671875 632.339844 L 283.058594 632.339844 C 284.058594 632.339844 284.90625 631.53125 284.90625 630.488281 C 284.90625 629.449219 284.097656 628.640625 283.058594 628.640625 L 274.671875 628.640625 L 274.671875 621.324219 L 286.097656 621.324219 C 287.101562 621.324219 287.945312 620.515625 287.945312 619.476562 C 287.945312 618.4375 287.136719 617.628906 286.097656 617.628906 L 274.671875 617.628906 L 274.671875 609.886719 L 293.835938 609.886719 L 293.835938 660.027344 C 293.835938 661.027344 294.640625 661.875 295.679688 661.875 L 316.347656 661.875 L 317.15625 685.058594 C 317.15625 685.558594 317.386719 686.019531 317.769531 686.367188 C 318.117188 686.675781 318.539062 686.828125 318.964844 686.828125 C 319.039062 686.828125 319.078125 686.828125 319.15625 686.828125 L 327.121094 686.058594 C 328.082031 685.980469 328.816406 685.132812 328.777344 684.171875 L 328.238281 668.84375 C 329.96875 668.730469 331.855469 667.652344 333.625 666.648438 C 334.164062 666.339844 334.742188 666.035156 335.355469 665.726562 C 333.125 668.882812 332.164062 671.425781 333.164062 673.621094 C 334.28125 676.085938 337.359375 677.125 343.4375 677.125 C 351.058594 677.125 354.214844 673.351562 355.445312 671.078125 C 357.984375 672.195312 360.71875 673.003906 363.832031 673.003906 C 364.835938 673.003906 365.679688 672.195312 365.679688 671.15625 C 365.679688 670.117188 364.871094 669.308594 363.832031 669.308594 C 359.214844 669.308594 355.289062 666.996094 351.519531 664.761719 C 348.441406 662.953125 345.246094 661.066406 341.746094 660.488281 C 338.167969 659.910156 334.703125 661.875 331.894531 663.453125 C 330.738281 664.109375 328.929688 665.109375 328.160156 665.1875 L 326.96875 632.144531 C 330.625 636.960938 337.089844 644.546875 345.707031 651.128906 C 353.136719 656.828125 358.292969 658.292969 361.640625 658.292969 C 364.796875 658.292969 366.375 656.984375 366.679688 656.714844 C 367.414062 656.019531 367.488281 654.828125 366.796875 654.097656 C 366.105469 653.363281 364.988281 653.289062 364.21875 653.980469 C 364.179688 654.019531 359.753906 657.332031 347.941406 648.242188 C 335.742188 638.847656 327.851562 627.179688 326.738281 625.484375 L 324.234375 555.785156 C 324.273438 555.746094 324.351562 555.707031 324.390625 555.628906 C 324.429688 555.550781 329.507812 549.660156 337.320312 549.042969 C 342.824219 548.621094 348.480469 550.894531 354.097656 555.820312 C 367.105469 567.21875 376.800781 569.144531 381.921875 569.144531 C 384.382812 569.144531 385.730469 568.683594 385.921875 568.644531 C 386.886719 568.335938 387.386719 567.296875 387.039062 566.335938 C 386.730469 565.371094 385.691406 564.871094 384.730469 565.179688 C 384.613281 565.21875 373.992188 568.375 356.523438 553.089844 C 350.132812 547.503906 343.554688 544.886719 337.011719 545.425781 C 331.125 545.886719 326.660156 548.738281 324.082031 550.894531 L 323.964844 547.929688 C 325.082031 546.964844 326.273438 545.695312 327.546875 544.269531 C 327.582031 544.230469 327.621094 544.230469 327.660156 544.191406 C 332.738281 539.839844 337.203125 537.414062 341.015625 536.105469 L 341.050781 536.105469 C 349.980469 533.101562 355.019531 536.644531 355.328125 536.875 C 356.136719 537.492188 357.292969 537.339844 357.90625 536.527344 C 358.523438 535.71875 358.371094 534.566406 357.5625 533.949219 C 357.292969 533.757812 353.714844 531.136719 347.515625 531.253906 C 349.480469 528.867188 351.25 525.667969 352.789062 521.742188 C 358.523438 507.300781 360.0625 486.160156 357.714844 481.578125 C 353.867188 474.070312 355.90625 463.824219 355.945312 463.75 C 356.136719 462.746094 355.523438 461.785156 354.519531 461.589844 C 353.519531 461.398438 352.558594 462.015625 352.367188 463.015625 C 352.25 463.480469 350.019531 474.609375 354.484375 483.273438 C 355.214844 484.660156 355.40625 489.933594 354.753906 496.597656 C 354.136719 497.675781 351.441406 502.371094 347.710938 508.535156 C 348.054688 504.914062 348.019531 501.910156 348.019531 501.21875 C 348.019531 500.214844 347.171875 499.40625 346.171875 499.40625 C 346.171875 499.40625 346.171875 499.40625 346.132812 499.40625 C 345.132812 499.40625 344.324219 500.253906 344.324219 501.253906 C 344.363281 504.527344 343.976562 512.960938 342.054688 517.621094 C 339.78125 521.203125 337.394531 524.859375 334.972656 528.402344 C 335.820312 524.746094 336.359375 521.625 336.472656 520.933594 C 336.625 519.933594 335.972656 519.007812 334.972656 518.816406 C 333.972656 518.660156 333.046875 519.316406 332.855469 520.316406 C 332.238281 524.050781 330.316406 533.601562 328.046875 537.953125 C 326.542969 539.878906 325.121094 541.574219 323.773438 543 L 323.542969 536.644531 C 330.929688 528.789062 331.394531 503.757812 331.433594 502.71875 C 331.433594 501.71875 330.625 500.871094 329.621094 500.871094 C 328.660156 500.871094 327.777344 501.679688 327.777344 502.679688 C 327.699219 508.339844 326.699219 522.28125 323.351562 530.136719 L 322.65625 511.191406 C 323.3125 510.804688 323.851562 510.265625 324.273438 509.613281 C 324.964844 508.496094 325.199219 507.1875 324.890625 505.875 C 324.734375 505.183594 324.429688 504.566406 324.003906 504.027344 C 325.351562 502.871094 326.042969 501.023438 325.621094 499.214844 C 325.46875 498.597656 325.199219 498.019531 324.851562 497.519531 C 325.234375 497.171875 325.582031 496.828125 325.890625 496.363281 C 326.582031 495.25 326.8125 493.9375 326.46875 492.550781 C 326.160156 491.28125 325.390625 490.203125 324.3125 489.511719 C 324.121094 489.394531 323.890625 489.277344 323.660156 489.203125 C 325.160156 487.316406 326.429688 485.3125 327.429688 483.503906 C 328.316406 483.234375 330.085938 482.964844 331.699219 484.121094 C 333.855469 485.738281 337.128906 491.203125 334.664062 509.726562 C 334.546875 510.730469 335.242188 511.652344 336.242188 511.808594 C 336.320312 511.808594 336.394531 511.808594 336.472656 511.808594 C 337.394531 511.808594 338.167969 511.152344 338.28125 510.226562 C 340.359375 494.59375 338.859375 484.8125 333.816406 481.117188 C 332.277344 480 330.699219 479.613281 329.316406 479.574219 C 329.738281 478.652344 329.929688 478.035156 329.96875 477.917969 C 329.96875 477.878906 329.96875 477.878906 329.96875 477.84375 L 329.96875 477.804688 C 330.699219 475.339844 332.316406 472.71875 334.585938 470.023438 C 335.28125 469.792969 337.203125 469.371094 339.128906 470.601562 C 341.550781 472.144531 344.476562 476.609375 344.632812 489.046875 C 344.632812 490.050781 345.476562 490.859375 346.476562 490.859375 C 346.476562 490.859375 346.476562 490.859375 346.515625 490.859375 C 347.515625 490.859375 348.324219 490.011719 348.324219 489.007812 C 348.171875 477.6875 345.746094 470.488281 341.128906 467.523438 C 340.089844 466.867188 339.050781 466.480469 338.089844 466.289062 C 346.476562 458.011719 359.292969 449.617188 368.105469 444.261719 L 382.921875 460.859375 C 383.265625 461.246094 383.769531 461.476562 384.304688 461.476562 C 384.84375 461.476562 385.34375 461.246094 385.691406 460.859375 L 400.121094 444.1875 C 409.359375 449.769531 423.019531 458.703125 431.410156 467.367188 C 427.214844 468.984375 420.09375 474.222656 420.09375 490.933594 C 420.09375 491.9375 420.902344 492.785156 421.941406 492.785156 C 422.980469 492.785156 423.789062 491.976562 423.789062 490.933594 C 423.789062 473.605469 431.984375 470.796875 434.140625 470.371094 C 436.257812 472.953125 437.796875 475.453125 438.488281 477.804688 L 438.488281 477.84375 C 438.488281 477.878906 438.488281 477.878906 438.488281 477.917969 C 438.527344 477.996094 438.796875 478.765625 439.296875 479.882812 C 437.949219 480.039062 436.410156 480.5 434.949219 481.691406 C 429.832031 485.773438 428.332031 495.902344 430.445312 511.808594 C 430.5625 512.730469 431.371094 513.386719 432.253906 513.386719 C 432.332031 513.386719 432.410156 513.386719 432.488281 513.386719 C 433.488281 513.230469 434.179688 512.347656 434.0625 511.304688 C 431.523438 492.359375 434.949219 486.429688 437.179688 484.582031 C 438.683594 483.347656 440.261719 483.386719 441.105469 483.503906 C 442.105469 485.3125 443.375 487.355469 444.917969 489.242188 C 444.800781 489.316406 444.683594 489.355469 444.570312 489.394531 C 443.453125 490.089844 442.683594 491.167969 442.375 492.550781 C 442.070312 493.824219 442.300781 495.132812 442.992188 496.25 C 443.261719 496.710938 443.609375 497.058594 444.03125 497.40625 C 443.683594 497.90625 443.414062 498.445312 443.261719 499.097656 C 442.839844 500.949219 443.53125 502.757812 444.878906 503.914062 C 444.453125 504.453125 444.148438 505.066406 443.992188 505.761719 C 443.375 508.417969 445.03125 511.074219 447.6875 511.691406 L 447.996094 511.769531 L 447.570312 534.066406 C 442.222656 528.402344 440.796875 509.417969 440.683594 502.566406 C 440.683594 501.5625 439.835938 500.753906 438.835938 500.753906 C 438.835938 500.753906 438.835938 500.753906 438.796875 500.753906 C 437.796875 500.753906 436.988281 501.601562 436.988281 502.601562 C 436.988281 503.679688 437.488281 528.75 444.878906 536.566406 C 445.222656 536.953125 445.722656 537.144531 446.226562 537.144531 C 446.6875 537.144531 447.148438 536.992188 447.496094 536.644531 C 447.496094 536.644531 447.496094 536.644531 447.496094 536.605469 L 447.339844 545.425781 L 447.03125 545.195312 C 445.109375 543.539062 442.839844 541.035156 440.414062 538.070312 C 440.335938 537.953125 440.296875 537.800781 440.183594 537.722656 L 440.105469 537.644531 C 437.644531 534.179688 436.027344 524.015625 435.601562 520.277344 C 435.488281 519.277344 434.5625 518.546875 433.5625 518.660156 C 432.5625 518.777344 431.832031 519.664062 431.949219 520.703125 C 432.023438 521.433594 432.449219 524.859375 433.21875 528.75 C 431.023438 525.746094 428.867188 522.628906 426.789062 519.585938 C 426.753906 519.546875 426.753906 519.507812 426.714844 519.46875 C 423.789062 515.234375 423.558594 505.644531 423.710938 502.296875 C 423.75 501.292969 422.980469 500.410156 421.980469 500.371094 C 420.941406 500.332031 420.09375 501.101562 420.054688 502.101562 C 420.054688 502.371094 419.902344 505.761719 420.289062 509.804688 C 416.824219 504.492188 414.324219 500.484375 413.707031 499.445312 C 412.9375 491.976562 412.976562 485.351562 414.015625 483.078125 C 418.015625 474.300781 416.167969 463.402344 416.09375 462.941406 C 415.902344 461.9375 414.976562 461.285156 413.976562 461.4375 C 412.976562 461.628906 412.320312 462.554688 412.476562 463.554688 C 412.476562 463.671875 414.207031 473.761719 410.667969 481.539062 C 409.28125 484.542969 409.242188 492.089844 410.128906 500.371094 C 411.089844 509.417969 413.207031 519.316406 415.976562 525.167969 C 412.898438 526.132812 410.242188 528.058594 408.589844 529.480469 C 406.78125 525.824219 402.96875 523.667969 402.085938 523.167969 C 400.738281 517.273438 398.238281 513.847656 397.160156 512.578125 C 396.699219 506.144531 394.964844 500.753906 393.582031 497.828125 C 394.003906 497.328125 394.351562 496.789062 394.65625 496.289062 L 396.160156 496.980469 C 396.429688 497.097656 396.699219 497.171875 396.929688 497.171875 C 397.621094 497.171875 398.277344 496.789062 398.582031 496.132812 C 399.007812 495.210938 398.621094 494.132812 397.699219 493.707031 L 396.003906 492.898438 L 398.390625 492.359375 C 399.390625 492.128906 400.007812 491.167969 399.777344 490.164062 C 399.546875 489.164062 398.582031 488.546875 397.582031 488.777344 L 396.503906 489.011719 C 397.238281 486.46875 397.621094 482.617188 396.96875 480.460938 C 396.542969 479.074219 395.773438 478.496094 395.195312 478.226562 C 392.964844 477.265625 389.925781 479.152344 388.460938 480.34375 C 387.386719 479.84375 385.84375 479.460938 383.921875 479.421875 C 382.113281 479.460938 380.804688 479.84375 379.917969 480.269531 C 378.265625 478.960938 375.6875 477.339844 373.609375 478.265625 C 373.03125 478.535156 372.261719 479.113281 371.839844 480.5 C 371.144531 482.808594 371.605469 487.121094 372.492188 489.585938 L 370.683594 489.203125 C 369.683594 488.972656 368.722656 489.625 368.488281 490.628906 C 368.257812 491.628906 368.914062 492.589844 369.914062 492.820312 L 372.492188 493.359375 L 370.914062 493.632812 C 369.914062 493.824219 369.261719 494.746094 369.414062 495.75 C 369.566406 496.632812 370.335938 497.25 371.222656 497.25 C 371.335938 497.25 371.453125 497.25 371.53125 497.210938 L 373.953125 496.789062 C 374.109375 497.058594 374.300781 497.328125 374.492188 497.597656 C 373.222656 499.984375 370.761719 505.414062 370.183594 512.617188 C 368.835938 514.425781 364.679688 520.816406 364.679688 532.023438 C 364.679688 536.261719 365.488281 539.570312 367.105469 542.191406 C 368.222656 543.960938 369.683594 545.308594 371.375 546.117188 C 373.148438 546.925781 375.148438 547.121094 376.917969 547.3125 L 377.339844 547.351562 C 377.917969 547.464844 378.574219 547.542969 379.34375 547.542969 C 381.152344 547.542969 382.652344 547.003906 383.730469 545.886719 C 383.882812 545.734375 384.035156 545.539062 384.191406 545.386719 C 384.382812 545.617188 384.539062 545.886719 384.769531 546.078125 C 385.808594 547.121094 387.230469 547.660156 389 547.660156 C 390.925781 547.660156 392.386719 547.234375 393.351562 546.425781 L 394.003906 546.273438 C 395.542969 545.925781 397.003906 545.617188 398.199219 544.925781 C 398.851562 545.269531 399.546875 545.464844 400.316406 545.464844 C 400.46875 545.464844 400.660156 545.464844 400.816406 545.425781 C 404.394531 545.078125 408.011719 540.878906 409.242188 535.683594 C 409.433594 534.949219 409.472656 534.257812 409.472656 533.5625 C 410.320312 532.71875 416.207031 526.941406 421.25 528.441406 C 426.753906 530.058594 435.410156 538.300781 437.105469 539.957031 C 437.144531 539.996094 437.144531 540.035156 437.179688 540.035156 C 437.21875 540.070312 437.257812 540.148438 437.296875 540.1875 C 437.296875 540.226562 437.335938 540.226562 437.335938 540.226562 C 439.953125 543.421875 442.453125 546.117188 444.570312 547.964844 L 447.109375 549.929688 L 447.03125 553.898438 C 447.03125 554.859375 447.765625 555.707031 448.726562 555.746094 L 456.269531 556.246094 C 456.308594 556.246094 456.34375 556.246094 456.382812 556.246094 C 456.847656 556.246094 457.308594 556.054688 457.652344 555.746094 C 458.039062 555.398438 458.230469 554.898438 458.230469 554.398438 L 458.191406 551.816406 L 480.78125 551.816406 L 480.78125 560.367188 L 449.878906 560.367188 C 449.726562 560.058594 449.535156 559.75 449.339844 559.480469 C 449.304688 559.441406 449.304688 559.402344 449.265625 559.363281 L 442.492188 550.699219 C 442.300781 550.429688 442.070312 550.160156 441.800781 549.929688 C 439.183594 547.351562 425.484375 534.71875 412.320312 541.304688 C 408.589844 543.152344 405.703125 545.269531 402.894531 547.3125 C 395.8125 552.511719 389.695312 556.976562 372.570312 553.972656 C 371.570312 553.78125 370.605469 554.472656 370.453125 555.476562 C 370.296875 556.476562 370.953125 557.441406 371.953125 557.59375 C 390.617188 560.867188 397.660156 555.707031 405.085938 550.277344 C 407.78125 548.3125 410.511719 546.3125 413.976562 544.578125 C 425.136719 538.992188 437.796875 551.125 439.222656 552.511719 C 439.335938 552.625 439.488281 552.78125 439.605469 552.933594 L 446.339844 561.558594 C 447.800781 563.753906 448.765625 567.375 449.378906 571.917969 L 449.378906 572.148438 C 449.378906 572.34375 449.417969 572.535156 449.496094 572.726562 C 451.457031 588.902344 449.148438 616.125 447.609375 634.070312 C 446.761719 643.890625 446.148438 650.976562 446.417969 653.789062 C 446.570312 655.597656 446.726562 657.214844 446.839844 658.484375 C 446.996094 659.949219 447.070312 660.949219 447.070312 661.144531 C 447.070312 662.683594 446.570312 663.839844 445.648438 664.609375 C 444.070312 665.839844 441.105469 666.035156 437.410156 665.109375 C 434.257812 664.300781 431.753906 663.03125 429.984375 661.835938 C 429.945312 661.757812 429.871094 661.71875 429.832031 661.644531 C 429.601562 661.375 429.253906 661.179688 428.945312 661.066406 C 428.5625 660.757812 428.214844 660.488281 427.945312 660.257812 C 433.023438 653.324219 434.988281 628.257812 434.796875 618.167969 C 434.796875 617.167969 433.949219 616.359375 432.949219 616.359375 C 432.949219 616.359375 432.949219 616.359375 432.910156 616.359375 C 431.910156 616.359375 431.101562 617.203125 431.101562 618.207031 C 431.371094 635.378906 427.523438 656.828125 424.828125 658.410156 C 423.328125 658.753906 421.597656 658.5625 419.363281 658.292969 C 415.785156 657.871094 411.128906 657.371094 404.625 658.792969 C 417.363281 640.808594 423.980469 607.152344 423.980469 606.808594 C 423.980469 605.804688 423.171875 604.960938 422.132812 604.960938 C 421.171875 604.960938 420.363281 605.730469 420.289062 606.652344 C 419.75 610.734375 409.511719 655.597656 393.464844 664.6875 C 391.039062 666.035156 388.65625 666.496094 386.230469 666.109375 C 396.082031 657.445312 400.621094 643.273438 400.890625 642.429688 C 401.199219 641.464844 400.660156 640.425781 399.699219 640.117188 C 398.738281 639.808594 397.699219 640.347656 397.390625 641.3125 C 397.3125 641.582031 388.539062 669.039062 369.835938 669.039062 C 368.835938 669.039062 367.988281 669.847656 367.988281 670.886719 C 367.988281 671.925781 368.796875 672.734375 369.835938 672.734375 C 374.6875 672.734375 378.917969 671.230469 382.574219 668.882812 C 384.382812 669.578125 386.152344 669.960938 387.921875 669.960938 C 390.734375 669.960938 393.542969 669.074219 396.273438 667.304688 C 397.8125 666.304688 399.277344 665.070312 400.660156 663.609375 C 400.660156 663.609375 400.660156 663.609375 400.699219 663.609375 C 400.890625 663.609375 401.085938 663.570312 401.277344 663.53125 C 404.433594 662.527344 407.125 661.988281 409.511719 661.71875 C 409.859375 664.261719 410.78125 667.496094 412.589844 670.347656 L 394.925781 670.347656 C 393.925781 670.347656 393.082031 671.15625 393.082031 672.195312 C 393.082031 673.234375 393.886719 674.042969 394.925781 674.042969 L 415.785156 674.042969 C 417.902344 675.738281 420.59375 676.894531 424.058594 676.894531 C 430.523438 676.894531 433.757812 675.816406 434.910156 673.273438 C 435.640625 671.695312 435.296875 669.921875 434.332031 668.035156 C 434.988281 668.265625 435.679688 668.460938 436.449219 668.652344 C 438.449219 669.152344 440.144531 669.34375 441.605469 669.34375 C 444.683594 669.34375 446.648438 668.421875 447.878906 667.496094 C 449.609375 666.148438 450.574219 664.148438 450.6875 661.683594 L 475.855469 661.683594 C 476.855469 661.683594 477.703125 660.875 477.703125 659.832031 L 477.703125 610.042969 L 495.980469 610.042969 L 495.980469 617.78125 L 484.359375 617.78125 C 483.359375 617.78125 482.511719 618.589844 482.511719 619.628906 C 482.511719 620.671875 483.320312 621.480469 484.359375 621.480469 L 495.980469 621.480469 L 495.980469 628.796875 L 487.363281 628.796875 C 486.363281 628.796875 485.515625 629.605469 485.515625 630.644531 C 485.515625 631.683594 486.324219 632.492188 487.363281 632.492188 L 495.984375 632.492188 L 495.984375 638.960938 L 488.324219 638.960938 C 487.324219 638.960938 486.476562 639.769531 486.476562 640.808594 C 486.476562 641.851562 487.285156 642.660156 488.324219 642.660156 L 495.984375 642.660156 L 495.984375 649.4375 L 484.359375 649.4375 C 483.359375 649.4375 482.511719 650.246094 482.511719 651.285156 C 482.511719 652.324219 483.320312 653.132812 484.359375 653.132812 L 495.984375 653.132812 L 495.984375 660.449219 L 487.363281 660.449219 C 486.363281 660.449219 485.515625 661.257812 485.515625 662.296875 C 485.515625 663.335938 486.324219 664.148438 487.363281 664.148438 L 495.984375 664.148438 L 495.984375 670.617188 L 488.324219 670.617188 C 487.324219 670.617188 486.476562 671.425781 486.476562 672.464844 C 486.476562 673.503906 487.285156 674.3125 488.324219 674.3125 L 495.984375 674.3125 L 495.984375 681.4375 L 462.273438 681.4375 C 461.269531 681.4375 460.425781 682.246094 460.425781 683.285156 C 460.425781 684.324219 461.234375 685.132812 462.273438 685.132812 L 495.984375 685.132812 L 495.984375 689.871094 Z M 341.246094 664.109375 C 344.015625 664.570312 346.710938 666.1875 349.59375 667.882812 C 350.402344 668.382812 351.289062 668.882812 352.136719 669.34375 C 351.328125 670.769531 349.09375 673.386719 343.398438 673.386719 C 337.394531 673.386719 336.550781 672.273438 336.472656 672.039062 C 336.28125 671.578125 336.320312 669.882812 341.246094 664.109375 Z M 334.933594 534.679688 C 337.78125 530.675781 340.746094 526.285156 343.515625 521.972656 C 343.628906 521.894531 343.746094 521.78125 343.863281 521.625 C 344.363281 520.972656 344.824219 520.203125 345.207031 519.355469 C 348.324219 514.425781 351.132812 509.765625 353.367188 506.070312 C 352.441406 510.882812 351.132812 515.890625 349.363281 520.316406 C 346.710938 527.019531 343.4375 531.214844 339.9375 532.523438 C 338.359375 533.0625 336.703125 533.757812 334.933594 534.679688 Z M 427.945312 527.75 C 426.019531 526.515625 424.097656 525.515625 422.367188 525.015625 C 421.519531 524.746094 420.632812 524.667969 419.789062 524.628906 C 417.710938 520.933594 416.054688 514.808594 414.898438 508.339844 C 418.210938 513.5 422.941406 520.703125 427.945312 527.75 Z M 395.8125 542.074219 C 395.429688 542.230469 395.003906 542.34375 394.503906 542.460938 C 394.234375 541.417969 393.734375 540.535156 393.351562 539.917969 C 393.695312 535.953125 394.621094 522.242188 394.660156 521.625 C 394.734375 520.625 393.964844 519.738281 392.964844 519.664062 C 392.003906 519.585938 391.078125 520.355469 391.003906 521.355469 C 391.003906 521.511719 389.925781 537.683594 389.65625 540.1875 C 389.617188 540.6875 389.734375 541.148438 390.039062 541.535156 C 390.578125 542.230469 391.117188 543.34375 391.039062 543.613281 C 391.039062 543.613281 390.65625 543.960938 389.078125 543.960938 C 388.078125 543.960938 387.65625 543.691406 387.460938 543.460938 C 386.691406 542.652344 386.347656 540.6875 386.230469 537.953125 C 386.382812 535.449219 386.347656 532.449219 386.269531 528.828125 C 386.269531 527.519531 386.230469 526.132812 386.230469 524.667969 C 386.230469 524.589844 386.230469 524.554688 386.191406 524.476562 C 386.191406 524.398438 386.191406 524.359375 386.191406 524.285156 C 386.191406 524.207031 386.152344 524.167969 386.152344 524.128906 C 386.152344 524.089844 386.113281 524.015625 386.113281 523.976562 C 386.078125 523.9375 386.039062 523.859375 386.039062 523.820312 C 386 523.78125 386 523.707031 385.960938 523.667969 C 385.921875 523.628906 385.882812 523.550781 385.847656 523.511719 C 385.808594 523.476562 385.769531 523.4375 385.730469 523.398438 C 385.691406 523.359375 385.613281 523.320312 385.578125 523.28125 C 385.539062 523.242188 385.5 523.207031 385.460938 523.167969 C 385.421875 523.128906 385.34375 523.089844 385.269531 523.050781 C 385.230469 523.011719 385.191406 523.011719 385.152344 522.972656 C 385.074219 522.9375 385 522.9375 384.960938 522.898438 C 384.921875 522.898438 384.882812 522.859375 384.84375 522.859375 C 384.730469 522.820312 384.613281 522.820312 384.460938 522.820312 C 384.382812 522.820312 384.34375 522.820312 384.269531 522.820312 C 384.191406 522.820312 384.152344 522.820312 384.074219 522.859375 C 384 522.859375 383.960938 522.898438 383.882812 522.898438 C 383.84375 522.898438 383.769531 522.9375 383.730469 522.9375 C 383.652344 522.972656 383.613281 523.011719 383.535156 523.050781 C 383.5 523.089844 383.460938 523.089844 383.421875 523.128906 C 383.34375 523.167969 383.304688 523.207031 383.265625 523.28125 C 383.230469 523.320312 383.191406 523.320312 383.152344 523.359375 C 383.113281 523.398438 383.035156 523.476562 383 523.550781 C 382.960938 523.589844 382.960938 523.628906 382.921875 523.628906 C 382.882812 523.707031 382.84375 523.746094 382.804688 523.820312 C 382.765625 523.859375 382.765625 523.898438 382.730469 523.9375 C 382.691406 524.015625 382.691406 524.089844 382.652344 524.128906 C 382.652344 524.167969 382.613281 524.207031 382.613281 524.246094 C 382.613281 524.320312 382.613281 524.398438 382.574219 524.4375 C 382.574219 524.476562 382.574219 524.554688 382.574219 524.589844 C 382.574219 526.632812 382.535156 528.480469 382.535156 530.214844 C 382.496094 533.257812 382.460938 535.796875 382.574219 537.914062 C 382.421875 540.496094 382.035156 542.34375 381.226562 543.152344 C 380.957031 543.421875 380.535156 543.730469 379.457031 543.730469 C 378.917969 543.730469 378.496094 543.691406 378.226562 543.652344 C 378.109375 543.613281 378.035156 543.613281 377.917969 543.578125 C 377.648438 543.5 377.570312 543.460938 377.570312 543.421875 C 377.496094 543.074219 377.957031 542.035156 378.609375 541.226562 C 378.917969 540.84375 379.074219 540.378906 379.035156 539.917969 C 378.804688 537.375 378.109375 521.742188 378.109375 521.589844 C 378.074219 520.585938 377.1875 519.777344 376.1875 519.855469 C 375.1875 519.894531 374.378906 520.742188 374.453125 521.78125 C 374.492188 522.398438 375.070312 535.644531 375.339844 539.570312 C 374.839844 540.339844 374.109375 541.613281 373.953125 543 C 373.648438 542.921875 373.339844 542.804688 373.070312 542.691406 C 371.761719 542.074219 370.875 540.996094 370.375 540.1875 C 369.105469 538.183594 368.527344 535.488281 368.527344 531.945312 C 368.527344 520.316406 373.453125 514.503906 373.53125 514.464844 C 373.800781 514.15625 373.953125 513.769531 373.992188 513.347656 C 374.417969 506.339844 376.996094 500.5625 378.496094 498.214844 C 378.996094 497.441406 378.84375 496.441406 378.148438 495.863281 C 375.839844 493.863281 376.570312 490.164062 376.570312 490.164062 C 376.6875 489.703125 376.570312 489.164062 376.300781 488.777344 C 375.648438 487.738281 375.070312 483.234375 375.457031 481.617188 C 376.1875 481.847656 377.609375 482.769531 378.648438 483.773438 C 379.378906 484.464844 380.496094 484.503906 381.1875 483.734375 C 381.1875 483.734375 382.035156 483.003906 384.074219 482.964844 C 386.191406 483.003906 387.308594 483.65625 387.5 483.773438 C 387.808594 484.082031 388.191406 484.234375 388.617188 484.273438 C 389.117188 484.3125 389.578125 484.15625 389.964844 483.851562 C 390.078125 483.773438 390.195312 483.65625 390.308594 483.578125 C 390.347656 483.542969 390.425781 483.503906 390.464844 483.425781 C 391.273438 482.617188 392.925781 481.691406 393.65625 481.5 C 394.082031 483.039062 393.503906 487.660156 392.851562 488.703125 C 392.617188 489.046875 392.503906 489.472656 392.542969 489.894531 C 392.542969 489.933594 392.851562 493.863281 390.234375 495.941406 C 389.5 496.519531 389.347656 497.558594 389.808594 498.328125 C 391.039062 500.332031 393.15625 506.183594 393.582031 513.347656 C 393.621094 513.808594 393.8125 514.234375 394.121094 514.539062 C 394.15625 514.578125 399.351562 519.816406 399.351562 531.371094 C 399.351562 531.910156 399.351562 532.449219 399.316406 532.949219 C 397.582031 535.257812 394.773438 539.339844 395.8125 542.074219 Z M 402.46875 535.027344 C 402.546875 534.949219 402.585938 534.875 402.625 534.835938 C 402.664062 534.796875 402.699219 534.71875 402.699219 534.679688 C 402.738281 534.640625 402.738281 534.566406 402.777344 534.527344 C 402.816406 534.449219 402.816406 534.410156 402.855469 534.335938 C 402.855469 534.296875 402.894531 534.21875 402.894531 534.179688 C 402.894531 534.101562 402.933594 534.066406 402.933594 533.988281 C 402.933594 533.949219 402.933594 533.949219 402.933594 533.910156 C 402.96875 533.179688 402.96875 532.371094 402.96875 531.5625 C 402.96875 530.367188 402.894531 529.25 402.816406 528.171875 C 404.546875 529.636719 406.433594 531.984375 405.742188 534.910156 C 404.777344 538.992188 402.046875 541.6875 400.507812 541.84375 C 400.277344 541.882812 399.738281 541.921875 399.238281 540.804688 C 399.082031 540.035156 400.660156 537.222656 402.46875 535.027344 Z M 453.152344 572.265625 L 453.152344 564.179688 L 474.125 564.179688 L 474.125 658.175781 L 450.535156 658.175781 C 450.417969 656.90625 450.265625 655.367188 450.113281 653.632812 C 449.878906 651.128906 450.535156 643.8125 451.304688 634.535156 C 452.996094 615.394531 455.269531 588.902344 453.152344 572.265625 Z M 431.71875 671.925781 C 431.601562 672.15625 430.714844 673.386719 424.175781 673.386719 C 415.9375 673.386719 413.785156 664.839844 413.285156 661.757812 C 415.4375 661.757812 417.324219 661.988281 419.054688 662.183594 C 421.097656 662.414062 422.90625 662.605469 424.675781 662.375 C 425.289062 662.953125 426.253906 663.839844 427.597656 664.761719 C 431.910156 669.882812 431.910156 671.464844 431.71875 671.925781 Z M 291.679688 380.261719 C 291.71875 379.875 291.949219 379.53125 292.296875 379.375 C 292.640625 379.222656 293.027344 379.183594 293.371094 379.335938 C 296.257812 380.648438 301.261719 385.035156 299.335938 392.46875 C 299.261719 392.816406 299.03125 393.085938 298.722656 393.238281 C 298.527344 393.316406 298.375 393.355469 298.183594 393.355469 C 298.027344 393.355469 297.875 393.316406 297.722656 393.277344 C 297.644531 393.238281 290.292969 390.195312 291.679688 380.261719 Z M 283.25 396.398438 C 283.058594 396.050781 283.019531 395.664062 283.175781 395.320312 C 283.328125 394.972656 283.636719 394.703125 283.984375 394.585938 C 286.867188 393.777344 293.140625 394.046875 296.183594 400.59375 C 296.335938 400.902344 296.335938 401.289062 296.183594 401.59375 C 296.027344 401.902344 295.757812 402.171875 295.449219 402.25 C 295.414062 402.25 294.527344 402.519531 293.140625 402.519531 C 290.601562 402.558594 286.445312 401.632812 283.25 396.398438 Z M 330.277344 341.867188 C 330.585938 342.0625 330.816406 342.40625 330.816406 342.792969 C 330.816406 342.871094 331.394531 352.226562 321.847656 354.539062 C 321.773438 354.578125 321.65625 354.578125 321.582031 354.578125 C 321.347656 354.578125 321.078125 354.5 320.886719 354.34375 C 320.617188 354.152344 320.425781 353.84375 320.386719 353.5 C 320.386719 353.421875 319.578125 345.335938 329.199219 341.753906 C 329.546875 341.597656 329.96875 341.636719 330.277344 341.867188 Z M 333.777344 387.460938 C 333.777344 387.578125 334.394531 397.550781 324.160156 400.015625 C 324.082031 400.054688 323.964844 400.054688 323.890625 400.054688 C 323.660156 400.054688 323.390625 399.976562 323.195312 399.824219 C 322.925781 399.632812 322.734375 399.324219 322.695312 398.976562 C 322.695312 398.898438 321.8125 390.234375 332.164062 386.421875 C 332.507812 386.308594 332.933594 386.347656 333.242188 386.539062 C 333.546875 386.730469 333.777344 387.078125 333.777344 387.460938 Z M 339.628906 361.816406 C 339.859375 362.125 339.9375 362.507812 339.820312 362.894531 C 339.78125 362.972656 337.28125 370.902344 328.585938 370.902344 C 327.890625 370.902344 327.121094 370.867188 326.351562 370.75 C 326.003906 370.710938 325.699219 370.519531 325.503906 370.210938 C 325.3125 369.941406 325.234375 369.554688 325.351562 369.210938 C 325.390625 369.132812 327.582031 361.046875 338.703125 361.316406 C 339.050781 361.316406 339.4375 361.507812 339.628906 361.816406 Z M 382.535156 489.972656 C 382.226562 490.664062 381.574219 491.089844 380.84375 491.089844 C 380.613281 491.089844 380.382812 491.050781 380.152344 490.933594 L 379.574219 490.703125 C 378.648438 490.320312 378.1875 489.242188 378.574219 488.316406 C 378.957031 487.390625 380.035156 486.929688 380.957031 487.316406 L 381.535156 487.546875 C 382.496094 487.96875 382.921875 489.046875 382.535156 489.972656 Z M 389.039062 490.703125 L 388.460938 490.972656 C 388.230469 491.050781 388 491.128906 387.769531 491.128906 C 387.039062 491.128906 386.382812 490.703125 386.078125 490.011719 C 385.691406 489.085938 386.113281 488.007812 387.078125 487.625 L 387.65625 487.390625 C 388.578125 487.007812 389.65625 487.429688 390.039062 488.394531 C 390.425781 489.242188 389.964844 490.320312 389.039062 490.703125 Z M 389.230469 565.296875 C 388.695312 564.449219 388.960938 563.292969 389.847656 562.753906 L 392.195312 561.328125 C 393.042969 560.789062 394.195312 561.058594 394.734375 561.945312 C 395.273438 562.792969 395.003906 563.949219 394.121094 564.488281 L 391.773438 565.910156 C 391.464844 566.105469 391.15625 566.179688 390.808594 566.179688 C 390.195312 566.140625 389.578125 565.835938 389.230469 565.296875 Z M 355.367188 568.453125 C 354.597656 567.796875 354.484375 566.644531 355.136719 565.871094 C 355.792969 565.101562 356.945312 564.988281 357.714844 565.601562 C 357.90625 565.757812 376.226562 580.621094 391.078125 573.652344 C 392.003906 573.226562 393.082031 573.613281 393.503906 574.539062 C 393.925781 575.460938 393.542969 576.539062 392.617188 576.964844 C 389.230469 578.542969 385.730469 579.195312 382.34375 579.195312 C 368.644531 579.234375 356.023438 568.992188 355.367188 568.453125 Z M 367.953125 598.988281 C 355.753906 597.101562 340.246094 579.351562 339.589844 578.582031 C 338.9375 577.808594 339.011719 576.65625 339.78125 576 C 340.550781 575.347656 341.707031 575.421875 342.359375 576.191406 C 342.515625 576.386719 357.636719 593.675781 368.527344 595.371094 C 381.882812 597.449219 390.195312 588.976562 390.308594 588.902344 C 391.003906 588.167969 392.15625 588.167969 392.886719 588.863281 C 393.621094 589.554688 393.65625 590.710938 392.925781 591.441406 C 392.582031 591.789062 385.152344 599.375 372.761719 599.375 C 371.222656 599.375 369.605469 599.257812 367.953125 598.988281 Z M 400.046875 589.941406 C 411.207031 564.101562 425.019531 561.675781 425.597656 561.597656 C 426.597656 561.445312 427.523438 562.136719 427.675781 563.140625 C 427.832031 564.140625 427.175781 565.0625 426.175781 565.21875 C 425.984375 565.257812 413.667969 567.722656 403.433594 591.402344 C 392.3125 617.089844 375.996094 622.597656 375.300781 622.828125 C 375.109375 622.902344 374.917969 622.902344 374.722656 622.902344 C 373.953125 622.902344 373.222656 622.402344 372.992188 621.632812 C 372.683594 620.671875 373.222656 619.628906 374.1875 619.324219 C 374.300781 619.285156 389.65625 613.96875 400.046875 589.941406 Z M 429.523438 568.375 C 430.371094 567.796875 431.484375 568.027344 432.0625 568.875 C 432.640625 569.722656 432.410156 570.839844 431.5625 571.417969 C 431.410156 571.535156 421.632812 578.386719 411.4375 601.03125 C 396.96875 633.1875 387.847656 650.667969 381.265625 650.9375 C 381.226562 650.9375 381.226562 650.9375 381.1875 650.9375 C 380.226562 650.9375 379.378906 650.167969 379.34375 649.167969 C 379.304688 648.164062 380.074219 647.316406 381.113281 647.242188 C 386.691406 647.011719 401.660156 613.699219 408.089844 599.492188 C 418.824219 575.691406 429.101562 568.644531 429.523438 568.375 Z M 335.625 591.058594 C 335.28125 590.09375 335.742188 589.054688 336.703125 588.707031 C 337.664062 588.363281 338.703125 588.824219 339.050781 589.785156 C 345.476562 607.117188 361.988281 617.050781 362.140625 617.167969 C 363.027344 617.667969 363.296875 618.820312 362.792969 619.667969 C 362.449219 620.246094 361.832031 620.554688 361.21875 620.554688 C 360.910156 620.554688 360.5625 620.476562 360.292969 620.285156 C 359.5625 619.898438 342.515625 609.617188 335.625 591.058594 Z M 364.871094 639.386719 C 364.871094 640.386719 364.066406 641.234375 363.027344 641.234375 C 348.789062 641.234375 336.203125 615.585938 335.664062 614.46875 C 335.242188 613.546875 335.585938 612.46875 336.511719 612.007812 C 337.433594 611.582031 338.511719 611.929688 338.972656 612.851562 C 342.320312 619.707031 353.136719 637.539062 363.027344 637.539062 C 364.066406 637.539062 364.871094 638.382812 364.871094 639.386719 Z M 435.71875 580.507812 C 436.105469 579.582031 437.179688 579.121094 438.105469 579.542969 C 439.027344 579.96875 439.492188 581.007812 439.066406 581.929688 C 438.988281 582.085938 432.910156 596.640625 434.332031 609.925781 C 434.449219 610.929688 433.71875 611.851562 432.71875 611.96875 C 432.640625 611.96875 432.601562 611.96875 432.523438 611.96875 C 431.601562 611.96875 430.792969 611.273438 430.714844 610.3125 C 429.175781 596.101562 435.449219 581.121094 435.71875 580.507812 Z M 440.761719 610.117188 C 440.761719 608.15625 442.03125 598.414062 442.183594 597.335938 C 442.300781 596.332031 443.222656 595.640625 444.261719 595.753906 C 445.261719 595.910156 445.957031 596.796875 445.839844 597.835938 C 445.261719 602.070312 444.453125 608.847656 444.453125 610.15625 C 444.453125 611.160156 443.644531 612.007812 442.605469 612.007812 C 441.570312 612.007812 440.761719 611.121094 440.761719 610.117188 Z M 303.453125 672.425781 C 303.453125 673.425781 302.648438 674.273438 301.609375 674.273438 L 292.832031 674.273438 C 291.832031 674.273438 290.988281 673.464844 290.988281 672.425781 C 290.988281 671.386719 291.792969 670.578125 292.832031 670.578125 L 301.609375 670.578125 C 302.648438 670.578125 303.453125 671.425781 303.453125 672.425781 Z M 467.082031 672.425781 C 467.082031 671.425781 467.890625 670.578125 468.929688 670.578125 L 477.703125 670.578125 C 478.703125 670.578125 479.550781 671.386719 479.550781 672.425781 C 479.550781 673.464844 478.742188 674.273438 477.703125 674.273438 L 468.929688 674.273438 C 467.929688 674.273438 467.082031 673.425781 467.082031 672.425781 Z M 388.886719 683.132812 C 388.886719 684.132812 388.078125 684.980469 387.039062 684.980469 L 356.023438 684.980469 C 355.019531 684.980469 354.175781 684.171875 354.175781 683.132812 C 354.175781 682.089844 354.984375 681.28125 356.023438 681.28125 L 387.039062 681.28125 C 388.078125 681.28125 388.886719 682.089844 388.886719 683.132812 Z M 388.847656 403.136719 C 389.039062 404.136719 388.386719 405.101562 387.386719 405.253906 C 386.230469 405.445312 385.152344 405.523438 384.230469 405.523438 C 382.382812 405.523438 381.113281 405.253906 381.035156 405.214844 C 380.035156 404.984375 379.417969 404.019531 379.648438 403.019531 C 379.882812 402.019531 380.84375 401.402344 381.84375 401.632812 C 381.882812 401.632812 384.113281 402.097656 386.769531 401.632812 C 387.691406 401.480469 388.65625 402.171875 388.847656 403.136719 Z M 378.148438 394.394531 C 376.839844 394.394531 375.839844 394.046875 375.6875 393.972656 C 374.722656 393.585938 374.261719 392.546875 374.648438 391.582031 C 375.03125 390.621094 376.070312 390.160156 377.035156 390.542969 C 377.035156 390.542969 378.226562 390.96875 379.34375 390.464844 C 380.265625 390.042969 381.34375 390.464844 381.765625 391.390625 C 382.191406 392.316406 381.765625 393.394531 380.84375 393.816406 C 379.917969 394.277344 378.957031 394.394531 378.148438 394.394531 Z M 386.617188 391.351562 C 387.078125 390.429688 388.15625 390.082031 389.078125 390.503906 C 390.117188 391.003906 391.273438 390.582031 391.273438 390.582031 C 392.195312 390.195312 393.273438 390.621094 393.695312 391.542969 C 394.082031 392.46875 393.65625 393.546875 392.734375 393.972656 C 392.582031 394.046875 391.542969 394.472656 390.195312 394.472656 C 389.386719 394.472656 388.425781 394.316406 387.460938 393.855469 C 386.539062 393.355469 386.152344 392.277344 386.617188 391.351562 Z M 381.691406 397.398438 C 382.035156 396.472656 383.074219 396.011719 384 396.320312 C 384.039062 396.320312 384.382812 396.359375 384.574219 396.28125 C 385.539062 396.011719 386.578125 396.550781 386.847656 397.511719 C 387.117188 398.476562 386.578125 399.476562 385.613281 399.785156 C 385.5 399.824219 384.882812 399.976562 384.230469 399.976562 C 383.421875 399.976562 382.882812 399.785156 382.730469 399.707031 C 381.765625 399.402344 381.304688 398.359375 381.691406 397.398438 Z M 320.039062 336.015625 C 319.773438 335.050781 320.347656 334.011719 321.347656 333.78125 L 328.121094 331.972656 C 329.085938 331.703125 330.125 332.28125 330.355469 333.28125 C 330.585938 334.28125 330.046875 335.285156 329.046875 335.515625 L 322.273438 337.324219 C 322.117188 337.363281 321.964844 337.402344 321.8125 337.402344 C 321.003906 337.363281 320.273438 336.824219 320.039062 336.015625 Z M 349.789062 363.394531 C 349.09375 362.664062 349.132812 361.507812 349.902344 360.816406 L 359.0625 352.34375 C 359.792969 351.648438 360.949219 351.6875 361.640625 352.457031 C 362.332031 353.191406 362.292969 354.34375 361.523438 355.039062 L 352.367188 363.511719 C 352.019531 363.855469 351.558594 364.011719 351.132812 364.011719 C 350.632812 363.972656 350.171875 363.78125 349.789062 363.394531 Z M 333.125 353.5 C 332.546875 352.691406 332.738281 351.535156 333.546875 350.957031 L 343.515625 343.910156 C 344.324219 343.332031 345.476562 343.523438 346.054688 344.332031 C 346.632812 345.140625 346.441406 346.296875 345.632812 346.875 L 335.664062 353.921875 C 335.355469 354.152344 334.972656 354.269531 334.625 354.269531 C 334.011719 354.269531 333.472656 354 333.125 353.5 Z M 440.066406 332.894531 C 440.335938 331.933594 441.335938 331.355469 442.339844 331.625 L 450.265625 333.78125 C 451.226562 334.050781 451.804688 335.050781 451.535156 336.054688 C 451.304688 336.863281 450.574219 337.402344 449.765625 337.402344 C 449.609375 337.402344 449.457031 337.363281 449.265625 337.324219 L 441.335938 335.167969 C 440.375 334.859375 439.796875 333.859375 440.066406 332.894531 Z M 410.589844 354.960938 C 409.859375 354.269531 409.820312 353.113281 410.511719 352.382812 C 411.207031 351.648438 412.359375 351.613281 413.089844 352.304688 L 422.519531 361.238281 C 423.25 361.933594 423.289062 363.085938 422.597656 363.820312 C 422.25 364.203125 421.75 364.394531 421.25 364.394531 C 420.789062 364.394531 420.324219 364.242188 419.980469 363.894531 Z M 426.097656 343.5625 C 426.675781 342.714844 427.832031 342.523438 428.636719 343.101562 L 439.335938 350.457031 C 440.183594 351.035156 440.375 352.1875 439.796875 352.996094 C 439.453125 353.5 438.875 353.804688 438.296875 353.804688 C 437.949219 353.804688 437.566406 353.691406 437.257812 353.5 L 426.558594 346.144531 C 425.753906 345.566406 425.519531 344.410156 426.097656 343.5625 Z M 289.253906 712.976562 C 289.253906 710.585938 288.410156 708.507812 286.714844 706.8125 C 285.023438 705.121094 282.980469 704.273438 280.558594 704.273438 C 278.171875 704.273438 276.132812 705.121094 274.402344 706.8125 C 272.707031 708.507812 271.859375 710.550781 271.859375 712.976562 C 271.859375 715.363281 272.707031 717.402344 274.402344 719.136719 C 276.09375 720.832031 278.132812 721.679688 280.558594 721.679688 C 282.136719 721.679688 283.519531 721.949219 284.714844 722.527344 C 285.097656 722.679688 285.40625 722.871094 285.714844 723.101562 C 285.792969 723.179688 285.90625 723.21875 285.984375 723.296875 C 286.023438 723.296875 286.023438 723.335938 286.0625 723.371094 C 286.40625 723.757812 286.867188 723.949219 287.40625 723.949219 C 287.871094 723.949219 288.292969 723.796875 288.640625 723.449219 C 289.023438 723.101562 289.214844 722.679688 289.214844 722.179688 C 289.253906 721.679688 289.0625 721.253906 288.753906 720.871094 L 288.714844 720.832031 L 288.679688 720.792969 C 288.640625 720.753906 288.601562 720.714844 288.5625 720.636719 C 288.410156 720.523438 288.253906 720.40625 288.101562 720.253906 C 287.640625 719.867188 287.101562 719.558594 286.484375 719.253906 C 287.332031 718.445312 288.023438 717.480469 288.484375 716.441406 C 288.984375 715.363281 289.253906 714.167969 289.253906 712.976562 Z M 284.097656 716.519531 C 283.097656 717.519531 281.90625 717.980469 280.519531 717.980469 C 279.132812 717.980469 277.941406 717.480469 276.980469 716.519531 C 275.980469 715.515625 275.515625 714.363281 275.515625 712.976562 C 275.515625 711.589844 276.015625 710.394531 276.980469 709.433594 C 277.980469 708.429688 279.132812 707.96875 280.519531 707.96875 C 281.90625 707.96875 283.097656 708.46875 284.097656 709.433594 C 285.097656 710.433594 285.5625 711.589844 285.5625 712.976562 C 285.597656 714.363281 285.097656 715.554688 284.097656 716.519531 Z M 307.148438 704.8125 C 307.496094 705.15625 307.6875 705.582031 307.6875 706.082031 L 307.6875 714.09375 C 307.6875 716.171875 306.957031 717.941406 305.457031 719.445312 C 303.992188 720.910156 302.222656 721.679688 300.105469 721.679688 C 298.027344 721.679688 296.257812 720.945312 294.757812 719.445312 C 293.296875 717.980469 292.527344 716.210938 292.527344 714.09375 L 292.527344 706.082031 C 292.527344 705.582031 292.71875 705.15625 293.066406 704.8125 C 293.410156 704.464844 293.871094 704.273438 294.375 704.273438 C 294.875 704.273438 295.296875 704.464844 295.679688 704.8125 C 296.027344 705.15625 296.21875 705.582031 296.21875 706.082031 L 296.21875 714.09375 C 296.21875 715.171875 296.605469 716.09375 297.375 716.863281 C 298.144531 717.636719 299.066406 718.019531 300.144531 718.019531 C 301.222656 718.019531 302.109375 717.636719 302.878906 716.863281 C 303.648438 716.09375 304.03125 715.171875 304.03125 714.09375 L 304.03125 706.082031 C 304.03125 705.582031 304.226562 705.15625 304.570312 704.8125 C 304.917969 704.464844 305.339844 704.273438 305.878906 704.273438 C 306.339844 704.273438 306.765625 704.425781 307.148438 704.8125 Z M 315.578125 707.929688 L 315.578125 711.128906 L 322.886719 711.128906 C 323.390625 711.128906 323.8125 711.320312 324.195312 711.667969 C 324.542969 712.011719 324.734375 712.476562 324.734375 712.976562 C 324.734375 713.476562 324.542969 713.898438 324.195312 714.285156 C 323.851562 714.632812 323.390625 714.824219 322.886719 714.824219 L 315.578125 714.824219 L 315.578125 718.019531 L 325.199219 718.019531 C 325.699219 718.019531 326.121094 718.210938 326.507812 718.558594 C 326.851562 718.90625 327.042969 719.328125 327.042969 719.867188 C 327.042969 720.367188 326.851562 720.832031 326.507812 721.179688 C 326.160156 721.523438 325.699219 721.71875 325.199219 721.71875 L 313.769531 721.71875 C 313.269531 721.71875 312.804688 721.523438 312.460938 721.179688 C 312.113281 720.832031 311.921875 720.367188 311.921875 719.867188 L 311.921875 706.160156 C 311.921875 705.660156 312.113281 705.234375 312.460938 704.890625 C 312.804688 704.542969 313.269531 704.347656 313.769531 704.347656 L 325.199219 704.347656 C 325.699219 704.347656 326.121094 704.542969 326.507812 704.890625 C 326.851562 705.234375 327.042969 705.660156 327.042969 706.160156 C 327.042969 706.660156 326.851562 707.082031 326.507812 707.46875 C 326.160156 707.816406 325.699219 708.007812 325.199219 708.007812 Z M 334.011719 707.929688 L 334.011719 711.128906 L 341.320312 711.128906 C 341.820312 711.128906 342.246094 711.320312 342.628906 711.667969 C 342.976562 712.011719 343.167969 712.476562 343.167969 712.976562 C 343.167969 713.476562 342.976562 713.898438 342.628906 714.285156 C 342.285156 714.632812 341.820312 714.824219 341.320312 714.824219 L 334.011719 714.824219 L 334.011719 718.019531 L 343.628906 718.019531 C 344.132812 718.019531 344.554688 718.210938 344.9375 718.558594 C 345.285156 718.90625 345.476562 719.328125 345.476562 719.867188 C 345.476562 720.367188 345.285156 720.832031 344.9375 721.179688 C 344.59375 721.523438 344.132812 721.71875 343.628906 721.71875 L 332.203125 721.71875 C 331.699219 721.71875 331.238281 721.523438 330.894531 721.179688 C 330.546875 720.832031 330.355469 720.367188 330.355469 719.867188 L 330.355469 706.160156 C 330.355469 705.660156 330.546875 705.234375 330.894531 704.890625 C 331.238281 704.542969 331.699219 704.347656 332.203125 704.347656 L 343.628906 704.347656 C 344.132812 704.347656 344.554688 704.542969 344.9375 704.890625 C 345.285156 705.234375 345.476562 705.660156 345.476562 706.160156 C 345.476562 706.660156 345.285156 707.082031 344.9375 707.46875 C 344.59375 707.816406 344.132812 708.007812 343.628906 708.007812 Z M 363.332031 704.8125 C 363.679688 705.15625 363.871094 705.582031 363.871094 706.082031 L 363.871094 719.792969 C 363.871094 720.175781 363.757812 720.523438 363.527344 720.832031 C 363.296875 721.140625 363.027344 721.371094 362.640625 721.523438 C 362.449219 721.601562 362.21875 721.640625 362.023438 721.640625 C 361.449219 721.640625 360.984375 721.410156 360.601562 720.984375 L 352.40625 711.128906 L 352.40625 719.792969 C 352.40625 720.292969 352.210938 720.753906 351.867188 721.101562 C 351.519531 721.449219 351.097656 721.640625 350.558594 721.640625 C 350.058594 721.640625 349.59375 721.449219 349.25 721.101562 C 348.902344 720.753906 348.710938 720.292969 348.710938 719.792969 L 348.710938 706.082031 C 348.710938 705.699219 348.824219 705.351562 349.058594 705.042969 C 349.289062 704.734375 349.558594 704.503906 349.941406 704.386719 C 350.289062 704.273438 350.671875 704.234375 351.058594 704.347656 C 351.441406 704.464844 351.75 704.65625 351.980469 704.925781 L 360.179688 714.785156 L 360.179688 706.121094 C 360.179688 705.621094 360.371094 705.195312 360.71875 704.851562 C 361.0625 704.503906 361.488281 704.3125 362.023438 704.3125 C 362.527344 704.273438 362.949219 704.425781 363.332031 704.8125 Z M 426.523438 706.890625 L 419.671875 720.636719 C 419.519531 720.945312 419.285156 721.175781 418.980469 721.371094 C 418.671875 721.5625 418.363281 721.640625 418.015625 721.640625 C 417.671875 721.640625 417.363281 721.5625 417.054688 721.371094 C 416.746094 721.175781 416.554688 720.945312 416.363281 720.636719 L 414.554688 717.058594 L 412.785156 720.636719 C 412.628906 720.945312 412.398438 721.175781 412.089844 721.371094 C 411.78125 721.5625 411.476562 721.640625 411.128906 721.640625 C 410.78125 721.640625 410.472656 721.5625 410.167969 721.371094 C 409.859375 721.175781 409.667969 720.945312 409.472656 720.636719 L 402.625 706.929688 C 402.394531 706.46875 402.355469 706.003906 402.546875 705.503906 C 402.699219 705.042969 403.007812 704.65625 403.472656 704.464844 C 403.933594 704.234375 404.394531 704.195312 404.894531 704.386719 C 405.355469 704.542969 405.742188 704.851562 405.933594 705.3125 L 411.167969 715.746094 L 412.550781 712.976562 L 409.550781 706.929688 C 409.320312 706.46875 409.28125 706.003906 409.4375 705.503906 C 409.589844 705.042969 409.898438 704.65625 410.359375 704.464844 C 410.820312 704.234375 411.28125 704.195312 411.78125 704.386719 C 412.246094 704.542969 412.589844 704.851562 412.820312 705.3125 L 414.59375 708.894531 L 416.402344 705.273438 C 416.632812 704.8125 416.976562 704.503906 417.441406 704.347656 C 417.902344 704.195312 418.402344 704.234375 418.824219 704.464844 C 419.25 704.695312 419.59375 705.042969 419.75 705.503906 C 419.902344 705.96875 419.863281 706.46875 419.632812 706.890625 L 416.632812 712.9375 L 418.015625 715.710938 L 423.25 705.234375 C 423.480469 704.773438 423.828125 704.464844 424.289062 704.3125 C 424.75 704.15625 425.019531 704.078125 425.019531 704.078125 C 425.019531 704.078125 425.25 704.195312 425.714844 704.425781 C 426.175781 704.65625 426.484375 705.003906 426.636719 705.464844 C 426.792969 706.003906 426.753906 706.46875 426.523438 706.890625 Z M 435.488281 705.273438 C 435.335938 704.964844 435.101562 704.734375 434.796875 704.542969 C 434.488281 704.347656 434.179688 704.273438 433.832031 704.273438 C 433.488281 704.273438 433.179688 704.347656 432.871094 704.542969 C 432.5625 704.734375 432.371094 704.964844 432.179688 705.273438 L 425.328125 719.019531 C 425.097656 719.484375 425.058594 719.945312 425.25 720.40625 C 425.40625 720.871094 425.714844 721.253906 426.175781 721.445312 C 426.636719 721.679688 427.097656 721.714844 427.5625 721.523438 C 428.023438 721.371094 428.40625 721.0625 428.601562 720.601562 L 429.792969 718.175781 L 437.835938 718.175781 L 439.066406 720.601562 C 439.222656 720.90625 439.453125 721.175781 439.757812 721.371094 C 440.066406 721.5625 440.375 721.640625 440.722656 721.640625 C 440.992188 721.640625 441.261719 721.5625 441.53125 721.445312 C 441.992188 721.214844 442.300781 720.871094 442.453125 720.40625 C 442.605469 719.945312 442.570312 719.445312 442.339844 719.019531 Z M 431.640625 714.554688 L 433.832031 710.203125 L 436.027344 714.554688 Z M 459.964844 704.8125 C 460.308594 705.15625 460.5 705.582031 460.5 706.082031 L 460.5 719.792969 C 460.5 720.175781 460.386719 720.523438 460.15625 720.832031 C 459.925781 721.140625 459.65625 721.371094 459.269531 721.523438 C 459.078125 721.601562 458.847656 721.640625 458.65625 721.640625 C 458.078125 721.640625 457.617188 721.410156 457.230469 720.984375 L 449.035156 711.128906 L 449.035156 719.792969 C 449.035156 720.292969 448.839844 720.753906 448.496094 721.101562 C 448.148438 721.449219 447.726562 721.640625 447.1875 721.640625 C 446.6875 721.640625 446.226562 721.449219 445.878906 721.101562 C 445.53125 720.753906 445.339844 720.292969 445.339844 719.792969 L 445.339844 706.082031 C 445.339844 705.699219 445.453125 705.351562 445.6875 705.042969 C 445.917969 704.734375 446.1875 704.503906 446.570312 704.386719 C 446.917969 704.273438 447.300781 704.234375 447.6875 704.347656 C 448.070312 704.464844 448.378906 704.65625 448.609375 704.925781 L 456.808594 714.785156 L 456.808594 706.121094 C 456.808594 705.621094 457 705.195312 457.347656 704.851562 C 457.691406 704.503906 458.117188 704.3125 458.65625 704.3125 C 459.191406 704.273438 459.617188 704.425781 459.964844 704.8125 Z M 471.160156 704.273438 L 466.582031 704.273438 C 466.082031 704.273438 465.621094 704.464844 465.273438 704.8125 C 464.925781 705.15625 464.734375 705.582031 464.734375 706.082031 L 464.734375 719.792969 C 464.734375 720.292969 464.925781 720.753906 465.273438 721.101562 C 465.621094 721.449219 466.082031 721.640625 466.582031 721.640625 L 471.160156 721.640625 C 473.546875 721.640625 475.625 720.792969 477.320312 719.097656 C 479.011719 717.402344 479.859375 715.363281 479.859375 712.9375 C 479.859375 710.550781 479.011719 708.46875 477.320312 706.777344 C 475.585938 705.121094 473.546875 704.273438 471.160156 704.273438 Z M 474.703125 716.519531 C 473.699219 717.519531 472.546875 717.980469 471.121094 717.980469 L 468.390625 717.980469 L 468.390625 707.890625 L 471.121094 707.890625 C 472.507812 707.890625 473.699219 708.394531 474.703125 709.394531 C 475.703125 710.394531 476.164062 711.550781 476.164062 712.9375 C 476.203125 714.363281 475.703125 715.554688 474.703125 716.519531 Z M 486.398438 708.394531 C 486.09375 708.699219 485.9375 709.085938 485.9375 709.507812 C 485.9375 709.933594 486.09375 710.316406 486.398438 710.664062 C 486.707031 710.972656 487.09375 711.125 487.515625 711.125 L 492.097656 711.125 C 493.558594 711.125 494.789062 711.628906 495.828125 712.667969 C 496.867188 713.707031 497.367188 714.9375 497.367188 716.402344 C 497.367188 717.867188 496.867188 719.097656 495.828125 720.136719 C 494.789062 721.175781 493.558594 721.679688 492.097656 721.679688 L 484.089844 721.679688 C 483.589844 721.679688 483.128906 721.484375 482.78125 721.140625 C 482.4375 720.792969 482.246094 720.332031 482.246094 719.828125 C 482.246094 719.328125 482.4375 718.90625 482.78125 718.519531 C 483.128906 718.175781 483.589844 717.980469 484.089844 717.980469 L 492.097656 717.980469 C 492.519531 717.980469 492.902344 717.828125 493.210938 717.519531 C 493.519531 717.210938 493.671875 716.824219 493.671875 716.363281 C 493.671875 715.902344 493.519531 715.554688 493.210938 715.246094 C 492.902344 714.9375 492.519531 714.785156 492.097656 714.785156 L 487.515625 714.785156 C 486.054688 714.785156 484.824219 714.285156 483.785156 713.246094 C 482.746094 712.207031 482.246094 710.972656 482.246094 709.507812 C 482.246094 708.046875 482.746094 706.8125 483.785156 705.773438 C 484.824219 704.734375 486.054688 704.234375 487.515625 704.234375 L 495.519531 704.234375 C 496.019531 704.234375 496.445312 704.425781 496.828125 704.773438 C 497.175781 705.121094 497.367188 705.542969 497.367188 706.042969 C 497.367188 706.542969 497.175781 706.96875 496.828125 707.351562 C 496.484375 707.699219 496.019531 707.890625 495.519531 707.890625 L 487.515625 707.890625 C 487.054688 707.929688 486.707031 708.085938 486.398438 708.394531 Z M 377.726562 706.3125 C 375.457031 706.3125 373.492188 707.199219 372.109375 708.816406 C 370.914062 710.242188 370.261719 712.089844 370.261719 714.09375 C 370.261719 717.90625 372.800781 721.792969 377.6875 721.792969 C 379.917969 721.792969 381.882812 720.90625 383.230469 719.289062 C 384.382812 717.90625 385.039062 716.015625 385.039062 714.054688 C 385.113281 710.203125 382.574219 706.3125 377.726562 706.3125 Z M 380.496094 716.902344 C 379.84375 717.671875 378.917969 718.097656 377.765625 718.097656 C 374.992188 718.097656 373.992188 715.902344 373.992188 714.054688 C 373.992188 712.9375 374.339844 711.898438 374.957031 711.164062 C 375.609375 710.355469 376.570312 709.972656 377.765625 709.972656 C 380.6875 709.972656 381.457031 712.511719 381.457031 714.054688 C 381.457031 715.132812 381.074219 716.171875 380.496094 716.902344 Z M 396.46875 708.238281 C 396.46875 709.238281 395.660156 710.085938 394.621094 710.085938 L 390.386719 710.085938 L 390.386719 713.050781 L 393.851562 713.050781 C 394.851562 713.050781 395.699219 713.859375 395.699219 714.902344 C 395.699219 715.941406 394.890625 716.75 393.851562 716.75 L 390.386719 716.75 L 390.386719 719.675781 C 390.386719 720.675781 389.578125 721.523438 388.539062 721.523438 C 387.5 721.523438 386.691406 720.714844 386.691406 719.675781 L 386.691406 708.316406 C 386.691406 707.316406 387.5 706.46875 388.539062 706.46875 L 394.660156 706.46875 C 395.660156 706.429688 396.46875 707.238281 396.46875 708.238281 Z M 396.46875 708.238281 " fill-opacity="1" fill-rule="nonzero"/></g></svg>