<svg xmlns="http://www.w3.org/2000/svg" xmlns:xlink="http://www.w3.org/1999/xlink" width="1080" zoomAndPan="magnify" viewBox="0 0 810 809.999993" height="1080" preserveAspectRatio="xMidYMid meet" version="1.0"><defs><clipPath id="78094514eb"><path d="M 269.800781 213.382812 L 512.050781 213.382812 L 512.050781 625.882812 L 269.800781 625.882812 Z M 269.800781 213.382812 " clip-rule="nonzero"/></clipPath></defs><g clip-path="url(#78094514eb)"><path fill="#2e2e2e" d="M 507.996094 217.546875 C 505.367188 214.925781 501.875 213.5 498.195312 213.5 L 283.660156 213.5 C 279.941406 213.5 276.449219 214.925781 273.859375 217.546875 C 271.230469 220.171875 269.800781 223.660156 269.800781 227.332031 L 269.800781 611.933594 C 269.800781 615.644531 271.230469 619.132812 273.859375 621.71875 C 276.488281 624.34375 279.980469 625.765625 283.660156 625.765625 L 498.15625 625.765625 C 501.875 625.765625 505.367188 624.34375 507.960938 621.71875 C 510.585938 619.09375 512.015625 615.609375 512.015625 611.898438 L 512.015625 227.371094 C 512.050781 223.660156 510.625 220.171875 507.996094 217.546875 Z M 508.484375 419.671875 L 508.484375 611.972656 C 508.484375 614.820312 507.320312 617.371094 505.480469 619.242188 C 503.601562 621.117188 501.050781 622.242188 498.195312 622.242188 L 283.660156 622.242188 C 280.804688 622.242188 278.25 621.082031 276.375 619.242188 C 274.496094 617.371094 273.371094 614.820312 273.371094 611.972656 L 273.371094 227.371094 C 273.371094 224.519531 274.535156 221.972656 276.375 220.097656 C 278.25 218.222656 280.804688 217.097656 283.660156 217.097656 L 498.15625 217.097656 C 501.011719 217.097656 503.566406 218.261719 505.441406 220.097656 C 507.320312 221.972656 508.445312 224.519531 508.445312 227.371094 Z M 502.515625 373.339844 C 503.003906 372.925781 503.265625 372.25 503.078125 371.578125 C 503.003906 371.203125 502.777344 370.863281 502.515625 370.640625 L 502.515625 291.695312 C 503.003906 291.09375 503.078125 290.234375 502.625 289.558594 C 502.589844 289.519531 502.550781 289.484375 502.515625 289.40625 L 502.515625 227.371094 C 502.515625 226.46875 502.25 225.644531 501.761719 224.894531 C 501.6875 224.558594 501.5 224.21875 501.199219 223.957031 C 500.898438 223.695312 500.5625 223.582031 500.222656 223.546875 C 499.585938 223.207031 498.910156 223.019531 498.195312 223.019531 L 283.621094 223.019531 C 282.457031 223.019531 281.367188 223.472656 280.542969 224.296875 C 279.714844 225.121094 279.265625 226.207031 279.265625 227.371094 L 279.265625 371.464844 C 279.265625 371.5 279.226562 371.539062 279.226562 371.613281 C 279.152344 371.953125 279.191406 372.289062 279.265625 372.589844 L 279.265625 580.332031 C 279.304688 581.984375 280.65625 583.332031 282.308594 583.332031 L 499.320312 583.332031 C 501.011719 583.332031 502.476562 581.871094 502.476562 580.183594 L 502.476562 530.476562 C 502.8125 529.914062 502.8125 529.242188 502.476562 528.640625 L 502.476562 461.128906 C 502.515625 461.09375 502.550781 461.054688 502.550781 461.015625 C 502.964844 460.378906 502.890625 459.59375 502.476562 458.992188 L 502.476562 419.632812 Z M 442.917969 226.582031 L 423.390625 261.03125 C 422.902344 261.894531 423.203125 262.980469 424.066406 263.46875 C 424.328125 263.617188 424.628906 263.691406 424.929688 263.691406 C 425.570312 263.691406 426.171875 263.355469 426.46875 262.792969 L 447.011719 226.582031 L 496.46875 226.582031 L 448.738281 280.9375 C 448.101562 281.6875 448.175781 282.8125 448.890625 283.449219 C 449.226562 283.746094 449.640625 283.898438 450.054688 283.898438 C 450.542969 283.898438 451.03125 283.710938 451.40625 283.296875 L 498.945312 229.242188 L 498.945312 289.894531 L 461.65625 315.234375 C 460.832031 315.796875 460.644531 316.886719 461.167969 317.710938 C 461.507812 318.234375 462.070312 318.496094 462.632812 318.496094 C 462.972656 318.496094 463.347656 318.382812 463.648438 318.195312 L 498.910156 294.207031 L 498.910156 370.675781 L 476.527344 375.851562 C 475.550781 376.074219 474.949219 377.050781 475.175781 377.988281 C 475.363281 378.8125 476.113281 379.375 476.902344 379.375 C 477.054688 379.375 477.167969 379.375 477.316406 379.335938 L 498.871094 374.351562 L 498.871094 456.632812 L 488.242188 449.957031 C 487.417969 449.433594 486.292969 449.695312 485.765625 450.519531 C 485.238281 451.347656 485.503906 452.46875 486.328125 452.996094 L 498.871094 460.828125 L 498.871094 524.667969 L 472.996094 496.777344 C 472.320312 496.066406 471.195312 496.027344 470.480469 496.664062 C 469.769531 497.339844 469.730469 498.464844 470.371094 499.175781 L 498.871094 529.878906 C 492.035156 523.542969 481.933594 525.304688 476.191406 527.742188 C 469.355469 521.105469 462.03125 517.769531 454.410156 517.769531 L 454.371094 517.769531 C 446.863281 517.769531 440.851562 521.03125 437.359375 523.542969 C 433.53125 510.648438 431.914062 497.039062 434.019531 494.378906 C 436.949219 490.628906 446.109375 484.671875 451.332031 481.972656 C 457.675781 478.671875 466.5 463.230469 466.578125 463.042969 C 469.054688 458.65625 479.53125 438.414062 479.945312 437.589844 C 480.019531 437.476562 481.523438 434.816406 482.085938 432.527344 C 482.535156 430.578125 482.234375 429.15625 481.183594 428.253906 C 479.644531 426.980469 477.503906 427.691406 476.867188 427.953125 C 474.949219 428.554688 473.261719 429.640625 471.796875 430.992188 C 471.832031 424.582031 470.746094 420.609375 468.492188 418.921875 C 467.289062 417.984375 465.9375 417.945312 465.113281 418.171875 C 462.933594 418.621094 461.769531 420.269531 461.167969 422.070312 C 460.867188 421.996094 460.566406 421.957031 460.304688 421.957031 C 459.066406 419.371094 457.601562 416.671875 455.875 413.933594 C 452.042969 407.863281 446.636719 401.152344 439.125 395.34375 C 448.851562 371.914062 448.4375 354.746094 437.847656 344.324219 C 433.042969 339.601562 428.121094 336.527344 423.164062 335.179688 C 423.617188 332.929688 423.84375 330.605469 423.84375 328.28125 C 423.84375 307.777344 411.300781 294.804688 410.773438 294.28125 C 410.210938 293.71875 409.347656 293.570312 408.671875 293.945312 C 407.957031 294.320312 407.621094 295.105469 407.769531 295.894531 C 409.007812 301.816406 407.730469 307.25 406.457031 310.8125 C 405.140625 307.289062 402.664062 301.890625 398.117188 295.105469 C 390.382812 283.523438 391.507812 271.265625 391.546875 271.113281 C 391.621094 270.328125 391.207031 269.617188 390.457031 269.277344 C 389.746094 268.976562 388.917969 269.164062 388.390625 269.765625 C 388.015625 270.214844 379.265625 280.523438 378.816406 290.570312 C 378.628906 294.355469 379.53125 298.140625 380.320312 301.441406 C 381.785156 307.625 382.082031 310.023438 379.265625 311.113281 C 378.367188 311.449219 377.691406 311.414062 377.015625 311 C 374.648438 309.574219 373.183594 304.101562 372.808594 300.992188 C 372.734375 300.242188 372.167969 299.640625 371.457031 299.492188 C 370.742188 299.304688 369.992188 299.605469 369.542969 300.203125 C 361.167969 312.085938 358.011719 323.070312 359.664062 334.617188 C 353.917969 335.851562 348.25 339.039062 342.691406 344.25 C 331.085938 355.121094 330.710938 372.140625 341.488281 396.28125 C 337.546875 399.503906 333.867188 403.140625 330.5625 407.300781 C 328.121094 410.335938 326.394531 413.109375 326.355469 413.222656 C 324.441406 416.222656 322.824219 419.183594 321.4375 422.03125 C 321.097656 422.03125 320.796875 422.070312 320.460938 422.183594 C 320.347656 422.21875 320.273438 422.257812 320.160156 422.292969 C 319.859375 421.132812 319.371094 419.933594 318.582031 419.183594 C 317.980469 418.621094 317.269531 418.285156 316.515625 418.207031 C 315.503906 417.871094 313.738281 417.722656 312.160156 418.882812 C 309.796875 420.570312 308.667969 424.320312 308.742188 430.277344 C 307.429688 429.191406 305.964844 428.367188 304.386719 427.84375 C 303.976562 427.691406 301.757812 426.980469 300.371094 428.328125 C 299.46875 429.230469 299.316406 430.542969 299.957031 432.265625 C 301.195312 435.675781 301.945312 436.988281 301.984375 437.027344 C 302.433594 437.925781 312.648438 458.691406 315.128906 463.078125 C 315.203125 463.230469 324.027344 478.710938 330.375 482.007812 C 335.59375 484.707031 344.757812 490.667969 347.6875 494.417969 C 350.238281 497.640625 349.148438 509.1875 345.207031 521.257812 C 345.167969 521.40625 345.132812 521.554688 345.132812 521.707031 C 343.441406 522.945312 342.089844 524.179688 341.1875 525.117188 C 335.820312 520.132812 329.886719 517.621094 323.613281 517.621094 C 313.851562 517.621094 306.191406 523.65625 303.636719 525.941406 C 298.53125 523.917969 292.445312 522.90625 287.152344 525.828125 L 311.859375 499.214844 C 312.535156 498.503906 312.5 497.378906 311.75 496.703125 C 311.035156 496.027344 309.90625 496.066406 309.230469 496.816406 L 282.832031 525.265625 L 282.832031 461.167969 L 295.902344 452.996094 C 296.726562 452.46875 296.988281 451.382812 296.464844 450.519531 C 295.9375 449.695312 294.851562 449.433594 293.984375 449.960938 L 282.832031 456.929688 L 282.832031 374.277344 L 304.953125 379.375 C 305.101562 379.410156 305.214844 379.410156 305.363281 379.410156 C 306.191406 379.410156 306.902344 378.847656 307.089844 378.023438 C 307.316406 377.050781 306.714844 376.113281 305.738281 375.886719 L 282.832031 370.601562 L 282.832031 293.867188 L 318.621094 318.195312 C 318.921875 318.421875 319.296875 318.496094 319.632812 318.496094 C 320.199219 318.496094 320.761719 318.234375 321.097656 317.710938 C 321.660156 316.886719 321.4375 315.796875 320.609375 315.234375 L 282.796875 289.519531 L 282.796875 228.644531 L 330.789062 283.296875 C 331.125 283.710938 331.652344 283.898438 332.140625 283.898438 C 332.550781 283.898438 332.964844 283.746094 333.304688 283.449219 C 334.054688 282.8125 334.128906 281.6875 333.453125 280.9375 L 285.722656 226.582031 L 335.179688 226.582031 L 355.722656 262.792969 C 356.058594 263.355469 356.660156 263.691406 357.261719 263.691406 C 357.5625 263.691406 357.863281 263.617188 358.125 263.46875 C 358.988281 262.980469 359.289062 261.894531 358.800781 261.03125 L 339.273438 226.582031 Z M 414.417969 522.082031 C 412.914062 517.695312 409.683594 506.636719 409.683594 492.617188 C 409.683594 477.171875 415.730469 473.835938 422.453125 471.511719 C 424.105469 470.949219 425.457031 470.613281 426.660156 470.3125 C 431.804688 469.078125 434.695312 467.988281 443.746094 457.457031 C 449.902344 450.296875 453.957031 450.296875 453.921875 450.296875 C 453.996094 450.296875 454.109375 450.296875 454.183594 450.296875 C 454.296875 450.296875 454.484375 450.296875 454.632812 450.332031 C 454.597656 450.410156 454.558594 450.519531 454.484375 450.632812 C 452.117188 454.644531 442.355469 466.453125 442.242188 466.566406 C 442.054688 466.789062 441.941406 467.050781 441.867188 467.351562 C 441.867188 467.390625 440.929688 471.699219 439.652344 475.035156 C 439.277344 475.972656 439.765625 476.984375 440.664062 477.359375 C 441.605469 477.699219 442.617188 477.25 442.992188 476.347656 C 444.15625 473.351562 445.019531 469.789062 445.285156 468.550781 C 446.074219 467.613281 448.25 464.914062 450.652344 461.917969 C 450.691406 461.917969 450.730469 461.878906 450.765625 461.878906 C 451.894531 461.09375 461.917969 454.230469 464.699219 449.808594 C 465.375 448.722656 466.089844 447.222656 466.914062 445.460938 C 466.914062 445.421875 466.953125 445.421875 466.953125 445.386719 C 467.140625 445.160156 467.253906 444.898438 467.328125 444.597656 C 469.730469 439.5 473.035156 433.015625 478.066406 431.441406 C 478.140625 431.441406 478.179688 431.402344 478.253906 431.367188 C 478.367188 431.328125 478.59375 431.253906 478.78125 431.214844 C 478.78125 431.367188 478.742188 431.554688 478.667969 431.777344 C 478.253906 433.578125 476.902344 435.863281 476.867188 435.976562 C 476.753906 436.203125 465.9375 457.042969 463.535156 461.390625 C 460.230469 467.277344 453.582031 476.910156 449.753906 478.898438 C 445.546875 481.070312 435.03125 487.480469 431.238281 492.28125 C 427.410156 497.152344 430.902344 513.648438 433.605469 523.242188 C 427.296875 517.882812 419.523438 519.496094 414.417969 522.082031 Z M 350.578125 492.207031 C 346.820312 487.40625 336.308594 480.996094 332.0625 478.824219 C 328.234375 476.835938 321.585938 467.203125 318.28125 461.316406 C 315.839844 457.007812 305.328125 435.640625 305.175781 435.339844 C 305.175781 435.339844 304.539062 434.175781 303.449219 431.253906 C 308.78125 433.054688 312.460938 440.585938 314.941406 445.609375 C 315.730469 447.261719 316.441406 448.683594 317.082031 449.695312 C 319.710938 453.894531 329.359375 460.640625 331.351562 461.992188 C 333.640625 464.914062 335.746094 467.503906 336.457031 468.4375 C 336.71875 469.675781 337.585938 473.238281 338.75 476.238281 C 339.085938 477.171875 340.136719 477.625 341.078125 477.25 C 342.015625 476.875 342.464844 475.863281 342.089844 474.925781 C 340.777344 471.589844 339.875 467.277344 339.875 467.238281 C 339.800781 466.976562 339.6875 466.714844 339.5 466.488281 C 339.460938 466.414062 336.910156 463.304688 334.128906 459.707031 C 334.054688 459.59375 333.980469 459.480469 333.902344 459.40625 C 331.726562 456.632812 329.472656 453.671875 328.046875 451.644531 C 328.046875 451.609375 328.007812 451.609375 327.972656 451.570312 C 327.671875 451.160156 327.445312 450.785156 327.21875 450.484375 C 327.40625 450.371094 327.746094 450.257812 328.007812 450.183594 C 328.121094 450.144531 328.234375 450.144531 328.308594 450.109375 C 328.347656 450.109375 331.574219 449.996094 337.996094 457.382812 C 347.160156 467.914062 349.863281 468.925781 355.121094 470.238281 C 356.324219 470.539062 357.675781 470.875 359.289062 471.4375 C 366.011719 473.761719 372.058594 477.097656 372.058594 492.542969 C 372.058594 506.1875 369.730469 516.871094 368.566406 521.40625 C 364.207031 518.445312 359.738281 517.132812 355.195312 517.621094 C 353.167969 517.84375 351.289062 518.371094 349.601562 519.082031 C 352.566406 509.074219 354.332031 497.003906 350.578125 492.207031 Z M 314.226562 421.808594 C 314.789062 421.394531 315.351562 421.582031 315.429688 421.621094 C 315.652344 421.730469 315.917969 421.769531 316.140625 421.769531 C 316.59375 422.21875 317.003906 424.207031 317.042969 425.929688 C 316.929688 427.054688 316.855469 429.980469 316.894531 433.539062 C 316.253906 435.527344 315.804688 437.289062 315.429688 438.789062 C 314.566406 437.25 313.625 435.75 312.574219 434.289062 C 311.710938 424.542969 313.625 422.292969 314.226562 421.808594 Z M 370.179688 305.828125 C 371.003906 308.824219 372.546875 312.460938 375.210938 314.074219 C 376.828125 315.046875 378.703125 315.199219 380.582031 314.484375 C 386.589844 312.238281 385.199219 306.351562 383.847656 300.652344 C 383.058594 297.429688 382.269531 294.054688 382.421875 290.796875 C 382.683594 285.585938 385.652344 280.074219 388.054688 276.402344 C 388.46875 281.5 390.007812 289.40625 395.1875 297.128906 C 403.039062 308.863281 404.390625 316.136719 404.390625 316.210938 C 404.503906 316.960938 405.101562 317.523438 405.816406 317.671875 C 406.566406 317.820312 407.28125 317.484375 407.695312 316.847656 C 407.882812 316.511719 411.75 310.0625 411.898438 301.441406 C 415.429688 306.6875 420.3125 316.097656 420.3125 328.316406 C 420.3125 330.417969 420.085938 332.515625 419.710938 334.539062 C 417.910156 334.351562 416.105469 334.351562 414.339844 334.578125 C 411.863281 334.914062 409.570312 335.628906 407.429688 336.601562 C 407.207031 332.890625 405.742188 329.253906 403.113281 326.367188 C 397.441406 320.183594 396.089844 311.9375 396.089844 311.863281 C 395.976562 311.226562 395.566406 310.699219 394.964844 310.476562 C 394.363281 310.25 393.6875 310.363281 393.199219 310.773438 C 389.554688 313.847656 387.941406 319.097656 389.21875 323.894531 L 389.40625 324.605469 C 389.894531 326.367188 391.019531 330.53125 390.082031 332.105469 C 389.96875 332.292969 389.78125 332.515625 389.292969 332.628906 C 387.941406 332.964844 387.453125 332.515625 387.265625 332.367188 C 385.726562 331.015625 385.765625 326.519531 386.027344 324.570312 C 386.101562 323.933594 385.839844 323.296875 385.3125 322.882812 C 384.789062 322.507812 384.113281 322.433594 383.511719 322.695312 C 383.246094 322.808594 377.316406 325.582031 375.363281 333.417969 C 375.363281 333.453125 375.0625 334.578125 374.875 336.039062 C 372.808594 335.214844 370.59375 334.578125 368.265625 334.277344 C 366.574219 334.054688 364.921875 334.015625 363.269531 334.128906 C 361.917969 324.683594 364.132812 315.574219 370.179688 305.828125 Z M 392.824219 323.671875 L 392.636719 322.996094 C 391.996094 320.632812 392.335938 318.121094 393.425781 316.058594 C 394.4375 319.398438 396.503906 324.496094 400.484375 328.804688 C 402.960938 331.503906 404.125 335.027344 403.863281 338.550781 C 398.15625 342.1875 394.0625 347.285156 392.035156 350.136719 C 389.746094 347.023438 384.976562 341.4375 378.289062 337.726562 C 378.367188 336.675781 378.554688 335.402344 378.816406 334.316406 C 379.566406 331.316406 381.03125 329.292969 382.308594 327.980469 C 382.421875 330.417969 382.984375 333.339844 384.863281 335.027344 C 385.800781 335.890625 387.492188 336.753906 390.121094 336.113281 C 391.433594 335.777344 392.484375 335.027344 393.125 333.902344 C 394.851562 331.015625 393.574219 326.40625 392.824219 323.671875 Z M 392.109375 383.570312 C 395.265625 383.570312 397.667969 383.871094 397.78125 383.871094 C 422.152344 385.820312 440.664062 396.542969 452.792969 415.773438 C 460.832031 428.515625 463.234375 441 463.722656 443.8125 C 463.722656 443.8125 463.722656 443.847656 463.683594 443.847656 C 463.007812 445.273438 462.40625 446.511719 461.917969 447.410156 C 461.019531 442.386719 458.316406 431.066406 450.917969 419.632812 C 442.167969 406.101562 424.96875 390.058594 392.523438 389.15625 C 392.410156 389.121094 392.261719 389.121094 392.148438 389.121094 C 391.734375 389.121094 391.359375 389.121094 390.945312 389.121094 C 390.53125 389.121094 390.15625 389.121094 389.746094 389.121094 C 389.632812 389.121094 389.480469 389.121094 389.367188 389.15625 C 356.921875 390.058594 339.613281 406.175781 330.789062 419.78125 C 323.652344 430.804688 320.796875 441.675781 319.746094 447.035156 C 319.296875 446.210938 318.808594 445.199219 318.246094 444.035156 C 318.207031 444 318.207031 443.921875 318.167969 443.886719 C 318.621094 441.226562 321.0625 428.253906 329.511719 415.136719 C 329.511719 415.097656 331.199219 412.398438 333.492188 409.550781 C 347.199219 392.34375 366.949219 383.570312 392.109375 383.570312 Z M 466.5 421.917969 C 467.066406 422.445312 468.828125 425.070312 468.078125 435.601562 C 467.441406 436.578125 466.839844 437.589844 466.277344 438.601562 C 465.9375 437.175781 465.488281 435.527344 464.925781 433.691406 C 464.847656 429.566406 464.585938 427.128906 464.25 425.707031 C 464.25 425.667969 464.25 425.667969 464.25 425.667969 C 464.210938 424.917969 464.4375 422.03125 465.9375 421.730469 C 465.976562 421.730469 466.050781 421.695312 466.089844 421.695312 C 466.125 421.730469 466.277344 421.730469 466.5 421.917969 Z M 448.175781 448.835938 C 442.691406 432.339844 428.3125 407.1875 391.285156 406.886719 C 391.246094 406.886719 391.207031 406.886719 391.132812 406.886719 C 391.058594 406.886719 390.984375 406.886719 390.871094 406.886719 C 390.796875 406.886719 390.71875 406.886719 390.609375 406.886719 C 390.570312 406.886719 390.496094 406.886719 390.457031 406.886719 C 353.582031 407.1875 339.160156 432.152344 333.640625 448.648438 C 332.25 447.710938 331.050781 447.183594 330.109375 446.921875 C 335.480469 429.417969 350.351562 402.238281 390.871094 402.128906 C 431.953125 402.238281 446.410156 429.941406 451.441406 447.261719 C 450.578125 447.523438 449.453125 448.046875 448.175781 448.835938 Z M 390.910156 392.757812 C 416.445312 393.054688 435.597656 402.691406 447.835938 421.46875 C 454.523438 431.777344 457.226562 442.199219 458.238281 447.296875 C 457.527344 447.074219 456.511719 446.960938 455.761719 446.921875 C 455.535156 446.847656 455.3125 446.808594 455.085938 446.808594 C 449.902344 428.59375 434.84375 398.867188 391.285156 398.566406 C 391.246094 398.566406 391.207031 398.566406 391.132812 398.566406 C 391.058594 398.566406 390.984375 398.566406 390.910156 398.566406 C 390.832031 398.566406 390.722656 398.566406 390.644531 398.566406 C 390.609375 398.566406 390.53125 398.566406 390.496094 398.566406 C 345.621094 398.902344 330.824219 431.929688 326.394531 447.035156 C 325.34375 447.148438 324.214844 447.449219 323.203125 447.785156 C 324.179688 442.761719 326.917969 432.226562 333.714844 421.769531 C 346.070312 402.800781 365.296875 393.054688 390.910156 392.757812 Z M 360.492188 468.140625 C 358.6875 467.539062 357.261719 467.164062 356.023438 466.863281 C 351.703125 465.816406 349.527344 465.253906 340.738281 455.132812 C 339.273438 453.445312 337.921875 452.058594 336.683594 450.972656 C 339.425781 442.273438 344.871094 430.617188 355.421875 422.070312 C 371.15625 446.699219 390.082031 467.277344 390.269531 467.503906 C 390.609375 467.878906 391.097656 468.066406 391.585938 468.066406 C 391.621094 468.066406 391.660156 468.066406 391.695312 468.027344 C 391.734375 468.027344 391.773438 468.066406 391.808594 468.066406 C 392.296875 468.066406 392.824219 467.839844 393.160156 467.425781 C 393.347656 467.203125 411.035156 446.398438 425.792969 421.621094 C 436.722656 430.242188 442.316406 442.160156 445.097656 451.046875 C 443.820312 452.132812 442.46875 453.445312 441.039062 455.132812 C 432.292969 465.253906 430.152344 465.777344 425.792969 466.828125 C 424.519531 467.128906 423.089844 467.503906 421.289062 468.101562 C 412.164062 471.214844 406.078125 476.574219 406.078125 492.582031 C 406.078125 501.839844 407.394531 509.785156 408.785156 515.519531 C 405.253906 512.222656 400.558594 510.273438 394.703125 509.710938 C 383.960938 508.699219 377.089844 513.460938 373.144531 517.808594 C 374.347656 512.074219 375.699219 503.261719 375.699219 492.542969 C 375.699219 476.609375 369.617188 471.25 360.492188 468.140625 Z M 282.871094 579.773438 L 282.871094 535.949219 L 282.984375 535.726562 C 284.671875 532.390625 289.105469 523.542969 303.335938 529.691406 C 304.011719 529.992188 304.800781 529.839844 305.328125 529.316406 C 305.402344 529.242188 313.363281 521.21875 323.613281 521.21875 C 329.511719 521.21875 334.992188 523.84375 340.0625 528.980469 C 340.4375 529.351562 340.925781 529.539062 341.453125 529.503906 C 341.976562 529.464844 342.464844 529.203125 342.765625 528.792969 C 342.804688 528.714844 347.984375 522.007812 355.609375 521.257812 C 360.152344 520.769531 364.734375 522.53125 369.203125 526.429688 C 369.652344 526.804688 370.21875 526.953125 370.78125 526.84375 C 371.34375 526.691406 371.792969 526.316406 372.019531 525.792969 C 372.09375 525.640625 377.992188 511.847656 394.363281 513.347656 C 397.519531 513.648438 407.167969 514.546875 411.035156 525.753906 C 411.222656 526.28125 411.636719 526.691406 412.199219 526.878906 C 412.726562 527.066406 413.328125 526.953125 413.777344 526.617188 C 413.777344 526.617188 413.816406 526.578125 413.851562 526.578125 C 413.964844 526.542969 414.078125 526.503906 414.191406 526.46875 C 414.492188 526.355469 414.753906 526.128906 414.90625 525.90625 C 418.132812 524.03125 427.410156 519.792969 433.792969 528.714844 C 434.09375 529.128906 434.582031 529.429688 435.109375 529.464844 C 435.519531 529.503906 435.933594 529.390625 436.273438 529.128906 C 436.382812 529.167969 436.535156 529.203125 436.683594 529.203125 C 436.871094 529.203125 437.058594 529.167969 437.246094 529.128906 C 438.035156 528.867188 438.523438 528.117188 438.488281 527.292969 C 441.339844 525.082031 447.160156 521.445312 454.445312 521.445312 C 461.394531 521.445312 468.191406 524.742188 474.574219 531.265625 C 475.101562 531.828125 475.964844 531.941406 476.640625 531.601562 C 477.242188 531.304688 491.8125 524.367188 498.722656 535.386719 C 498.757812 535.464844 498.832031 535.539062 498.910156 535.613281 L 498.910156 579.808594 Z M 339.238281 557.84375 C 339.613281 558.742188 339.160156 559.792969 338.261719 560.167969 C 337.320312 560.542969 336.308594 560.089844 335.933594 559.191406 C 335.855469 559.003906 333.980469 554.730469 327.859375 554.054688 C 320.574219 553.230469 318.320312 559.15625 318.207031 559.378906 C 318.019531 559.902344 317.605469 560.277344 317.082031 560.464844 C 316.554688 560.652344 315.992188 560.542969 315.539062 560.242188 C 310.808594 557.09375 306.304688 556.191406 302.136719 557.503906 C 297.742188 558.890625 295.113281 562.304688 294.738281 563.203125 C 294.550781 563.988281 293.796875 564.550781 293.007812 564.550781 C 292.898438 564.550781 292.820312 564.550781 292.710938 564.515625 C 291.734375 564.363281 291.058594 563.429688 291.246094 562.453125 C 291.507812 560.917969 294.625 556.753906 299.46875 554.65625 C 303.109375 553.082031 308.78125 552.183594 315.839844 556.191406 C 317.71875 553.230469 321.738281 549.707031 328.269531 550.457031 C 336.53125 551.433594 339.125 557.582031 339.238281 557.84375 Z M 491.210938 562.453125 C 491.359375 563.429688 490.722656 564.363281 489.746094 564.515625 C 489.632812 564.515625 489.558594 564.550781 489.445312 564.550781 C 488.621094 564.550781 487.90625 563.988281 487.71875 563.203125 C 487.34375 562.339844 484.675781 558.890625 480.320312 557.503906 C 476.152344 556.191406 471.644531 557.128906 466.914062 560.242188 C 466.464844 560.542969 465.902344 560.617188 465.375 560.464844 C 464.847656 560.277344 464.4375 559.902344 464.25 559.378906 C 464.171875 559.15625 461.84375 553.230469 454.597656 554.054688 C 448.402344 554.769531 446.5625 559.15625 446.523438 559.191406 C 446.148438 560.089844 445.097656 560.542969 444.195312 560.167969 C 443.292969 559.792969 442.84375 558.742188 443.21875 557.84375 C 443.332031 557.578125 445.921875 551.433594 454.183594 550.496094 C 460.679688 549.746094 464.734375 553.269531 466.613281 556.230469 C 473.636719 552.21875 479.34375 553.121094 482.988281 554.695312 C 487.832031 556.753906 490.949219 560.917969 491.210938 562.453125 Z M 430.300781 569.726562 C 430.601562 570.664062 430.039062 571.675781 429.097656 571.9375 C 428.160156 572.199219 427.144531 571.675781 426.882812 570.738281 C 426.882812 570.699219 425.269531 565.675781 420.050781 562.941406 C 415.542969 560.578125 409.535156 562.714844 409.460938 562.753906 C 408.558594 563.089844 407.582031 562.640625 407.207031 561.777344 C 407.132812 561.628906 405.515625 558.140625 401.199219 557.691406 C 396.578125 557.207031 392.597656 560.652344 392.523438 560.691406 C 391.808594 561.292969 390.796875 561.292969 390.121094 560.652344 C 390.042969 560.578125 387.640625 558.480469 382.308594 558.855469 C 375.738281 559.34375 374.5 565.339844 374.5 565.414062 C 374.386719 565.9375 374.085938 566.351562 373.632812 566.613281 C 373.183594 566.875 372.621094 566.914062 372.132812 566.765625 C 361.054688 562.828125 356.8125 572.238281 356.625 572.648438 C 356.324219 573.324219 355.683594 573.738281 354.972656 573.738281 C 354.746094 573.738281 354.484375 573.699219 354.257812 573.585938 C 353.355469 573.210938 352.941406 572.160156 353.320312 571.261719 C 353.355469 571.148438 358.539062 559.417969 371.53125 562.867188 C 372.808594 559.753906 375.960938 555.742188 382.046875 555.332031 C 386.664062 554.992188 389.707031 556.269531 391.285156 557.207031 C 393.125 555.929688 397.03125 553.757812 401.535156 554.207031 C 405.929688 554.65625 408.445312 557.316406 409.609375 559.003906 C 412.089844 558.367188 417.234375 557.503906 421.625 559.828125 C 428.3125 563.277344 430.226562 569.464844 430.300781 569.726562 Z M 360.941406 544.121094 C 356.097656 539.738281 351.441406 537.710938 347.046875 538.085938 C 341.640625 538.574219 338.410156 542.699219 338.371094 542.734375 C 337.773438 543.523438 336.644531 543.671875 335.855469 543.074219 C 335.066406 542.472656 334.917969 541.347656 335.519531 540.5625 C 335.667969 540.335938 339.648438 535.164062 346.671875 534.527344 C 351.742188 534.039062 356.960938 536.027344 362.179688 540.449219 C 364.808594 538.5 371.195312 534.828125 378.667969 538.3125 C 379.566406 538.726562 379.941406 539.8125 379.53125 540.675781 C 379.117188 541.574219 378.066406 541.949219 377.164062 541.535156 C 369.839844 538.125 363.683594 543.824219 363.421875 544.085938 C 363.082031 544.421875 362.632812 544.574219 362.179688 544.574219 C 361.691406 544.574219 361.28125 544.421875 360.941406 544.121094 Z M 443.445312 542.734375 C 443.40625 542.660156 440.175781 538.574219 434.769531 538.085938 C 430.414062 537.710938 425.71875 539.738281 420.875 544.121094 C 420.539062 544.421875 420.085938 544.574219 419.671875 544.574219 C 419.222656 544.574219 418.773438 544.421875 418.433594 544.085938 C 418.171875 543.859375 412.011719 538.125 404.691406 541.574219 C 403.789062 541.984375 402.738281 541.609375 402.324219 540.710938 C 401.910156 539.8125 402.285156 538.761719 403.1875 538.351562 C 410.625 534.863281 417.007812 538.539062 419.671875 540.488281 C 424.929688 536.101562 430.113281 534.078125 435.183594 534.5625 C 442.167969 535.203125 446.148438 540.375 446.335938 540.597656 C 446.9375 541.386719 446.785156 542.511719 445.996094 543.109375 C 445.171875 543.671875 444.046875 543.523438 443.445312 542.734375 Z M 375.285156 239.550781 C 375.0625 239.066406 375.023438 238.539062 375.175781 238.054688 C 375.324219 237.527344 375.664062 237.152344 376.152344 236.929688 C 376.636719 236.703125 377.164062 236.664062 377.652344 236.816406 C 378.179688 236.964844 378.554688 237.304688 378.777344 237.789062 L 384.410156 249.035156 L 390.042969 237.789062 C 390.269531 237.304688 390.683594 236.964844 391.171875 236.816406 C 391.695312 236.664062 392.183594 236.703125 392.671875 236.929688 C 393.160156 237.152344 393.5 237.566406 393.648438 238.054688 C 393.835938 238.578125 393.800781 239.066406 393.539062 239.550781 L 386.140625 254.320312 C 385.988281 254.660156 385.726562 254.921875 385.425781 255.109375 C 385.125 255.296875 384.75 255.410156 384.375 255.410156 C 384 255.410156 383.660156 255.296875 383.324219 255.109375 C 383.023438 254.921875 382.757812 254.660156 382.609375 254.320312 Z M 399.394531 254.808594 C 399.019531 254.433594 398.832031 253.945312 398.832031 253.421875 L 398.832031 238.652344 C 398.832031 238.128906 399.019531 237.640625 399.394531 237.265625 C 399.769531 236.890625 400.257812 236.664062 400.785156 236.664062 C 401.308594 236.664062 401.796875 236.851562 402.175781 237.265625 C 402.550781 237.640625 402.738281 238.128906 402.738281 238.652344 L 402.738281 253.421875 C 402.738281 253.984375 402.550781 254.433594 402.175781 254.808594 C 401.796875 255.183594 401.308594 255.371094 400.785156 255.371094 C 400.222656 255.410156 399.769531 255.183594 399.394531 254.808594 Z M 310.320312 594.390625 C 310.695312 594.765625 310.882812 595.253906 310.882812 595.777344 C 310.882812 596.300781 310.695312 596.789062 310.320312 597.164062 C 309.945312 597.539062 309.457031 597.726562 308.933594 597.726562 L 304.726562 597.726562 L 304.726562 610.546875 C 304.726562 611.109375 304.539062 611.558594 304.164062 611.933594 C 303.785156 612.308594 303.300781 612.496094 302.773438 612.496094 C 302.246094 612.496094 301.757812 612.308594 301.382812 611.933594 C 301.007812 611.558594 300.820312 611.070312 300.820312 610.546875 L 300.820312 597.726562 L 296.652344 597.726562 C 296.089844 597.726562 295.636719 597.539062 295.261719 597.164062 C 294.886719 596.789062 294.699219 596.300781 294.699219 595.777344 C 294.699219 595.253906 294.886719 594.765625 295.261719 594.390625 C 295.636719 594.015625 296.125 593.792969 296.652344 593.792969 L 308.96875 593.792969 C 309.457031 593.828125 309.90625 594.015625 310.320312 594.390625 Z M 330.335938 594.390625 C 330.710938 594.765625 330.898438 595.253906 330.898438 595.777344 L 330.898438 610.546875 C 330.898438 611.109375 330.710938 611.558594 330.335938 611.933594 C 329.960938 612.308594 329.472656 612.496094 328.945312 612.496094 C 328.421875 612.496094 327.933594 612.308594 327.558594 611.933594 C 327.183594 611.558594 326.996094 611.070312 326.996094 610.546875 L 326.996094 605.148438 L 318.582031 605.148438 L 318.582031 610.546875 C 318.582031 611.109375 318.394531 611.558594 318.019531 611.933594 C 317.644531 612.308594 317.15625 612.496094 316.628906 612.496094 C 316.066406 612.496094 315.617188 612.308594 315.242188 611.933594 C 314.863281 611.558594 314.675781 611.070312 314.675781 610.546875 L 314.675781 595.777344 C 314.675781 595.253906 314.863281 594.765625 315.242188 594.390625 C 315.617188 594.015625 316.105469 593.792969 316.628906 593.792969 C 317.15625 593.792969 317.644531 593.980469 318.019531 594.390625 C 318.394531 594.765625 318.582031 595.253906 318.582031 595.777344 L 318.582031 601.175781 L 326.996094 601.175781 L 326.996094 595.777344 C 326.996094 595.253906 327.183594 594.765625 327.558594 594.390625 C 327.933594 594.015625 328.421875 593.792969 328.945312 593.792969 C 329.472656 593.792969 329.921875 594.015625 330.335938 594.390625 Z M 340.023438 597.765625 L 340.023438 601.214844 L 347.910156 601.214844 C 348.4375 601.214844 348.925781 601.402344 349.300781 601.777344 C 349.675781 602.152344 349.863281 602.636719 349.863281 603.164062 C 349.863281 603.6875 349.675781 604.175781 349.300781 604.550781 C 348.925781 604.925781 348.4375 605.113281 347.910156 605.113281 L 340.023438 605.113281 L 340.023438 608.558594 L 350.390625 608.558594 C 350.914062 608.558594 351.402344 608.746094 351.777344 609.121094 C 352.15625 609.496094 352.34375 609.984375 352.34375 610.507812 C 352.34375 611.070312 352.15625 611.523438 351.777344 611.898438 C 351.402344 612.273438 350.914062 612.457031 350.390625 612.457031 L 338.074219 612.457031 C 337.507812 612.457031 337.058594 612.273438 336.683594 611.898438 C 336.308594 611.523438 336.121094 611.035156 336.121094 610.507812 L 336.121094 595.742188 C 336.121094 595.214844 336.308594 594.726562 336.683594 594.351562 C 337.058594 593.980469 337.546875 593.753906 338.074219 593.753906 L 350.390625 593.753906 C 350.914062 593.753906 351.402344 593.941406 351.777344 594.351562 C 352.15625 594.726562 352.34375 595.214844 352.34375 595.742188 C 352.34375 596.265625 352.15625 596.753906 351.777344 597.128906 C 351.402344 597.503906 350.914062 597.691406 350.390625 597.691406 Z M 381.933594 609.160156 C 382.308594 609.535156 382.496094 610.023438 382.496094 610.546875 C 382.496094 611.109375 382.308594 611.558594 381.933594 611.933594 C 381.558594 612.308594 381.070312 612.496094 380.542969 612.496094 L 370.667969 612.496094 C 370.105469 612.496094 369.652344 612.308594 369.277344 611.933594 C 368.902344 611.558594 368.714844 611.070312 368.714844 610.546875 L 368.714844 595.777344 C 368.714844 595.253906 368.902344 594.765625 369.277344 594.390625 C 369.652344 594.015625 370.140625 593.792969 370.667969 593.792969 C 371.195312 593.792969 371.683594 593.980469 372.058594 594.390625 C 372.433594 594.765625 372.621094 595.253906 372.621094 595.777344 L 372.621094 608.597656 L 380.507812 608.597656 C 381.070312 608.597656 381.558594 608.785156 381.933594 609.160156 Z M 394.625 593.828125 C 392.035156 593.828125 389.820312 594.726562 388.015625 596.566406 C 386.175781 598.402344 385.277344 600.613281 385.277344 603.164062 C 385.277344 605.75 386.175781 607.960938 388.015625 609.761719 C 389.855469 611.597656 392.074219 612.496094 394.625 612.496094 C 397.21875 612.496094 399.433594 611.597656 401.234375 609.761719 C 403.074219 607.921875 403.976562 605.710938 403.976562 603.164062 C 403.976562 600.574219 403.074219 598.363281 401.234375 596.566406 C 399.394531 594.726562 397.21875 593.828125 394.625 593.828125 Z M 398.457031 607.023438 C 397.40625 608.074219 396.089844 608.597656 394.625 608.597656 C 393.160156 608.597656 391.847656 608.074219 390.796875 607.023438 C 389.746094 605.972656 389.21875 604.699219 389.21875 603.199219 C 389.21875 601.699219 389.746094 600.425781 390.796875 599.375 C 391.847656 598.328125 393.125 597.765625 394.625 597.765625 C 396.128906 597.765625 397.40625 598.289062 398.457031 599.375 C 399.507812 600.425781 400.035156 601.699219 400.035156 603.199219 C 400.035156 604.660156 399.507812 605.9375 398.457031 607.023438 Z M 425.382812 595.179688 C 425.570312 595.703125 425.53125 596.191406 425.269531 596.675781 L 417.871094 611.445312 C 417.722656 611.785156 417.457031 612.046875 417.15625 612.234375 C 416.855469 612.421875 416.480469 612.535156 416.105469 612.535156 C 415.730469 612.535156 415.390625 612.421875 415.054688 612.234375 C 414.753906 612.046875 414.492188 611.785156 414.339844 611.445312 L 406.941406 596.675781 C 406.71875 596.191406 406.679688 595.664062 406.832031 595.179688 C 406.980469 594.652344 407.320312 594.277344 407.808594 594.054688 C 408.296875 593.828125 408.820312 593.792969 409.308594 593.941406 C 409.835938 594.089844 410.210938 594.429688 410.4375 594.914062 L 416.070312 606.160156 L 421.703125 594.914062 C 421.925781 594.429688 422.339844 594.089844 422.828125 593.941406 C 423.355469 593.792969 423.84375 593.828125 424.328125 594.054688 C 424.855469 594.277344 425.195312 594.652344 425.382812 595.179688 Z M 433.117188 597.765625 L 433.117188 601.214844 L 441.003906 601.214844 C 441.527344 601.214844 442.015625 601.402344 442.394531 601.777344 C 442.769531 602.152344 442.957031 602.636719 442.957031 603.164062 C 442.957031 603.6875 442.769531 604.175781 442.394531 604.550781 C 442.015625 604.925781 441.527344 605.113281 441.003906 605.113281 L 433.117188 605.113281 L 433.117188 608.558594 L 443.480469 608.558594 C 444.007812 608.558594 444.496094 608.746094 444.871094 609.121094 C 445.246094 609.496094 445.433594 609.984375 445.433594 610.507812 C 445.433594 611.070312 445.246094 611.523438 444.871094 611.898438 C 444.496094 612.273438 444.007812 612.457031 443.480469 612.457031 L 431.164062 612.457031 C 430.601562 612.457031 430.152344 612.273438 429.773438 611.898438 C 429.398438 611.523438 429.210938 611.035156 429.210938 610.507812 L 429.210938 595.742188 C 429.210938 595.214844 429.398438 594.726562 429.773438 594.351562 C 430.152344 593.980469 430.640625 593.753906 431.164062 593.753906 L 443.480469 593.753906 C 444.007812 593.753906 444.496094 593.941406 444.871094 594.351562 C 445.246094 594.726562 445.433594 595.214844 445.433594 595.742188 C 445.433594 596.265625 445.246094 596.753906 444.871094 597.128906 C 444.496094 597.503906 444.007812 597.691406 443.480469 597.691406 Z M 465.074219 604.101562 C 465.675781 603.050781 465.976562 601.925781 465.976562 600.726562 C 465.976562 598.8125 465.300781 597.203125 463.949219 595.851562 C 462.597656 594.503906 460.980469 593.828125 459.066406 593.828125 L 451.667969 593.828125 C 451.105469 593.828125 450.652344 594.015625 450.277344 594.429688 C 449.902344 594.804688 449.714844 595.289062 449.714844 595.816406 L 449.714844 610.585938 C 449.714844 611.148438 449.902344 611.597656 450.277344 611.972656 C 450.652344 612.347656 451.140625 612.535156 451.667969 612.535156 C 452.195312 612.535156 452.683594 612.347656 453.058594 611.972656 C 453.433594 611.597656 453.621094 611.109375 453.621094 610.585938 L 453.621094 607.625 L 458.238281 607.625 L 462.597656 611.972656 C 462.972656 612.347656 463.460938 612.535156 463.984375 612.535156 C 464.511719 612.535156 465 612.347656 465.375 611.972656 C 465.75 611.597656 465.9375 611.109375 465.9375 610.585938 C 465.9375 610.058594 465.75 609.574219 465.375 609.199219 L 462.746094 606.574219 C 463.722656 605.898438 464.511719 605.113281 465.074219 604.101562 Z M 461.132812 602.824219 C 460.566406 603.386719 459.855469 603.6875 459.027344 603.6875 L 453.621094 603.6875 L 453.621094 597.765625 L 459.027344 597.765625 C 459.855469 597.765625 460.53125 598.066406 461.132812 598.625 C 461.730469 599.1875 461.996094 599.902344 461.996094 600.726562 C 462.03125 601.511719 461.730469 602.226562 461.132812 602.824219 Z M 473.636719 598.289062 C 473.296875 598.625 473.109375 599.039062 473.109375 599.488281 C 473.109375 599.976562 473.296875 600.386719 473.636719 600.726562 C 473.972656 601.0625 474.386719 601.214844 474.839844 601.214844 L 479.757812 601.214844 C 481.335938 601.214844 482.648438 601.777344 483.773438 602.863281 C 484.902344 603.988281 485.425781 605.300781 485.425781 606.875 C 485.425781 608.449219 484.863281 609.761719 483.773438 610.882812 C 482.648438 612.007812 481.335938 612.535156 479.757812 612.535156 L 471.121094 612.535156 C 470.558594 612.535156 470.105469 612.347656 469.730469 611.972656 C 469.355469 611.597656 469.167969 611.109375 469.167969 610.585938 C 469.167969 610.058594 469.355469 609.574219 469.730469 609.199219 C 470.105469 608.824219 470.59375 608.636719 471.121094 608.636719 L 479.757812 608.636719 C 480.246094 608.636719 480.621094 608.484375 480.957031 608.148438 C 481.296875 607.8125 481.484375 607.398438 481.484375 606.910156 C 481.484375 606.425781 481.296875 606.050781 480.957031 605.710938 C 480.621094 605.375 480.207031 605.1875 479.757812 605.1875 L 474.839844 605.1875 C 473.261719 605.1875 471.945312 604.625 470.820312 603.539062 C 469.691406 602.449219 469.167969 601.101562 469.167969 599.527344 C 469.167969 597.953125 469.730469 596.640625 470.820312 595.515625 C 471.945312 594.390625 473.261719 593.867188 474.839844 593.867188 L 483.476562 593.867188 C 484 593.867188 484.488281 594.054688 484.863281 594.464844 C 485.238281 594.839844 485.425781 595.328125 485.425781 595.851562 C 485.425781 596.378906 485.238281 596.863281 484.863281 597.238281 C 484.488281 597.613281 484 597.800781 483.476562 597.800781 L 474.839844 597.800781 C 474.386719 597.765625 473.972656 597.914062 473.636719 598.289062 Z M 473.636719 598.289062 " fill-opacity="1" fill-rule="nonzero"/></g></svg>