<svg xmlns="http://www.w3.org/2000/svg" xmlns:xlink="http://www.w3.org/1999/xlink" width="1080" zoomAndPan="magnify" viewBox="0 0 810 809.999993" height="1080" preserveAspectRatio="xMidYMid meet" version="1.0"><defs><clipPath id="c73b27c84c"><path d="M 271.4375 323.613281 L 509.9375 323.613281 L 509.9375 730.863281 L 271.4375 730.863281 Z M 271.4375 323.613281 " clip-rule="nonzero"/></clipPath></defs><g clip-path="url(#c73b27c84c)"><path fill="#2e2e2e" d="M 311.277344 699.671875 C 311.652344 700.050781 311.84375 700.507812 311.84375 701.042969 C 311.84375 701.578125 311.652344 702.035156 311.277344 702.414062 C 310.890625 702.792969 310.429688 702.980469 309.894531 702.980469 L 305.765625 702.980469 L 305.765625 715.617188 C 305.765625 716.164062 305.574219 716.625 305.199219 717.003906 C 304.820312 717.378906 304.363281 717.570312 303.828125 717.570312 C 303.292969 717.570312 302.835938 717.378906 302.449219 717.003906 C 302.070312 716.625 301.882812 716.164062 301.882812 715.617188 L 301.882812 702.980469 L 297.761719 702.980469 C 297.21875 702.980469 296.761719 702.792969 296.382812 702.414062 C 296.003906 702.035156 295.816406 701.578125 295.816406 701.042969 C 295.816406 700.507812 296.003906 700.050781 296.382812 699.671875 C 296.761719 699.285156 297.21875 699.09375 297.761719 699.09375 L 309.894531 699.09375 C 310.429688 699.09375 310.890625 699.285156 311.277344 699.671875 Z M 330.816406 699.09375 C 330.28125 699.09375 329.824219 699.285156 329.449219 699.671875 C 329.070312 700.050781 328.882812 700.507812 328.882812 701.042969 L 328.882812 706.386719 L 320.621094 706.386719 L 320.621094 701.042969 C 320.621094 700.507812 320.429688 700.050781 320.054688 699.671875 C 319.675781 699.285156 319.21875 699.09375 318.683594 699.09375 C 318.140625 699.09375 317.683594 699.285156 317.304688 699.671875 C 316.925781 700.050781 316.738281 700.507812 316.738281 701.042969 L 316.738281 715.617188 C 316.738281 716.164062 316.925781 716.625 317.304688 717.003906 C 317.683594 717.378906 318.140625 717.570312 318.683594 717.570312 C 319.21875 717.570312 319.675781 717.378906 320.054688 717.003906 C 320.429688 716.625 320.621094 716.164062 320.621094 715.617188 L 320.621094 710.273438 L 328.882812 710.273438 L 328.882812 715.617188 C 328.882812 716.164062 329.070312 716.625 329.449219 717.003906 C 329.828125 717.378906 330.28125 717.570312 330.816406 717.570312 C 331.351562 717.570312 331.8125 717.378906 332.199219 717.003906 C 332.578125 716.625 332.765625 716.164062 332.765625 715.617188 L 332.765625 701.042969 C 332.765625 700.507812 332.578125 700.050781 332.199219 699.671875 C 331.8125 699.285156 331.351562 699.09375 330.816406 699.09375 Z M 353.195312 702.980469 C 353.730469 702.980469 354.191406 702.792969 354.578125 702.414062 C 354.953125 702.035156 355.144531 701.578125 355.144531 701.042969 C 355.144531 700.507812 354.953125 700.054688 354.578125 699.675781 C 354.191406 699.285156 353.730469 699.09375 353.195312 699.09375 L 341.0625 699.09375 C 340.519531 699.09375 340.058594 699.285156 339.683594 699.675781 C 339.304688 700.054688 339.117188 700.507812 339.117188 701.042969 L 339.117188 715.621094 C 339.117188 716.164062 339.304688 716.625 339.683594 717.003906 C 340.058594 717.378906 340.519531 717.570312 341.0625 717.570312 L 353.195312 717.570312 C 353.730469 717.570312 354.191406 717.378906 354.578125 717.003906 C 354.953125 716.625 355.144531 716.164062 355.144531 715.621094 C 355.144531 715.085938 354.953125 714.628906 354.578125 714.25 C 354.191406 713.871094 353.730469 713.679688 353.195312 713.679688 L 343 713.679688 L 343 710.277344 L 350.765625 710.277344 C 351.300781 710.277344 351.761719 710.085938 352.148438 709.707031 C 352.527344 709.328125 352.714844 708.875 352.714844 708.339844 C 352.714844 707.796875 352.527344 707.332031 352.148438 706.957031 C 351.761719 706.578125 351.300781 706.386719 350.765625 706.386719 L 343 706.386719 L 343 702.980469 Z M 386.273438 699.09375 L 374.140625 699.09375 C 373.597656 699.09375 373.140625 699.285156 372.761719 699.671875 C 372.382812 700.050781 372.195312 700.507812 372.195312 701.042969 C 372.195312 701.578125 372.382812 702.035156 372.761719 702.414062 C 373.140625 702.792969 373.597656 702.980469 374.140625 702.980469 L 378.261719 702.980469 L 378.261719 715.617188 C 378.261719 716.164062 378.449219 716.625 378.828125 717.003906 C 379.214844 717.378906 379.671875 717.570312 380.207031 717.570312 C 380.742188 717.570312 381.199219 717.378906 381.578125 717.003906 C 381.953125 716.625 382.144531 716.164062 382.144531 715.617188 L 382.144531 702.980469 L 386.273438 702.980469 C 386.808594 702.980469 387.269531 702.792969 387.65625 702.414062 C 388.03125 702.035156 388.222656 701.578125 388.222656 701.042969 C 388.222656 700.507812 388.03125 700.050781 387.65625 699.671875 C 387.269531 699.285156 386.808594 699.09375 386.273438 699.09375 Z M 407.886719 701.808594 C 409.695312 703.609375 410.601562 705.789062 410.601562 708.339844 C 410.601562 710.878906 409.695312 713.058594 407.886719 714.867188 C 406.085938 716.667969 403.914062 717.570312 401.367188 717.570312 C 398.824219 717.570312 396.652344 716.667969 394.84375 714.867188 C 393.042969 713.058594 392.144531 710.878906 392.144531 708.339844 C 392.144531 705.789062 393.042969 703.609375 394.84375 701.808594 C 396.652344 700 398.824219 699.09375 401.367188 699.09375 C 403.914062 699.09375 406.085938 700 407.886719 701.808594 Z M 406.71875 708.339844 C 406.71875 706.867188 406.195312 705.605469 405.152344 704.5625 C 404.097656 703.507812 402.835938 702.980469 401.367188 702.980469 C 399.894531 702.980469 398.636719 703.507812 397.59375 704.5625 C 396.550781 705.605469 396.027344 706.867188 396.027344 708.339844 C 396.027344 709.8125 396.550781 711.070312 397.59375 712.113281 C 398.636719 713.160156 399.894531 713.679688 401.367188 713.679688 C 402.835938 713.679688 404.097656 713.160156 405.152344 712.113281 C 406.195312 711.070312 406.71875 709.8125 406.71875 708.339844 Z M 439.179688 699.304688 C 438.695312 699.0625 438.453125 698.945312 438.453125 698.945312 C 438.453125 698.945312 438.199219 699.027344 437.6875 699.191406 C 437.1875 699.363281 436.8125 699.691406 436.566406 700.167969 L 431.019531 711.277344 L 429.550781 708.339844 L 432.757812 701.90625 C 433.003906 701.429688 433.039062 700.9375 432.867188 700.425781 C 432.695312 699.917969 432.371094 699.542969 431.894531 699.304688 C 431.417969 699.066406 430.921875 699.027344 430.414062 699.191406 C 429.902344 699.367188 429.53125 699.691406 429.292969 700.167969 L 427.382812 703.992188 L 425.484375 700.191406 C 425.234375 699.707031 424.863281 699.382812 424.359375 699.21875 C 423.851562 699.042969 423.351562 699.078125 422.867188 699.316406 C 422.390625 699.554688 422.066406 699.929688 421.894531 700.4375 C 421.730469 700.949219 421.769531 701.449219 422.007812 701.933594 L 425.210938 708.339844 L 423.746094 711.277344 L 418.195312 700.191406 C 417.957031 699.707031 417.582031 699.382812 417.074219 699.21875 C 416.5625 699.042969 416.066406 699.078125 415.582031 699.316406 C 415.105469 699.554688 414.785156 699.929688 414.621094 700.4375 C 414.449219 700.949219 414.480469 701.449219 414.71875 701.933594 L 422.007812 716.496094 C 422.171875 716.824219 422.410156 717.085938 422.722656 717.273438 C 423.035156 717.46875 423.375 717.570312 423.746094 717.570312 C 424.113281 717.570312 424.457031 717.46875 424.769531 717.273438 C 425.082031 717.082031 425.320312 716.824219 425.484375 716.496094 L 427.382812 712.679688 L 429.292969 716.496094 C 429.457031 716.824219 429.695312 717.085938 430.007812 717.273438 C 430.320312 717.46875 430.664062 717.570312 431.03125 717.570312 C 431.394531 717.570312 431.730469 717.46875 432.042969 717.273438 C 432.355469 717.082031 432.59375 716.824219 432.757812 716.496094 L 440.046875 701.90625 C 440.285156 701.429688 440.320312 700.9375 440.15625 700.425781 C 439.980469 699.917969 439.65625 699.542969 439.179688 699.304688 Z M 459.226562 702.980469 C 459.761719 702.980469 460.222656 702.792969 460.609375 702.414062 C 460.984375 702.035156 461.175781 701.578125 461.175781 701.042969 C 461.175781 700.507812 460.984375 700.054688 460.609375 699.675781 C 460.222656 699.285156 459.761719 699.09375 459.226562 699.09375 L 447.09375 699.09375 C 446.550781 699.09375 446.089844 699.285156 445.714844 699.675781 C 445.335938 700.054688 445.144531 700.507812 445.144531 701.042969 L 445.144531 715.621094 C 445.144531 716.164062 445.335938 716.625 445.714844 717.003906 C 446.089844 717.378906 446.550781 717.570312 447.09375 717.570312 L 459.226562 717.570312 C 459.761719 717.570312 460.222656 717.378906 460.609375 717.003906 C 460.984375 716.625 461.175781 716.164062 461.175781 715.621094 C 461.175781 715.085938 460.984375 714.628906 460.609375 714.25 C 460.222656 713.871094 459.761719 713.679688 459.226562 713.679688 L 449.03125 713.679688 L 449.03125 710.277344 L 456.796875 710.277344 C 457.332031 710.277344 457.792969 710.085938 458.179688 709.707031 C 458.558594 709.328125 458.746094 708.875 458.746094 708.339844 C 458.746094 707.796875 458.558594 707.332031 458.179688 706.957031 C 457.792969 706.578125 457.332031 706.386719 456.796875 706.386719 L 449.03125 706.386719 L 449.03125 702.980469 Z M 479.410156 711.644531 L 482.011719 714.25 C 482.390625 714.628906 482.578125 715.085938 482.578125 715.621094 C 482.578125 716.164062 482.390625 716.625 482.011719 717.003906 C 481.625 717.378906 481.164062 717.570312 480.628906 717.570312 C 480.09375 717.570312 479.636719 717.378906 479.261719 717.003906 L 474.96875 712.707031 L 470.433594 712.707031 L 470.433594 715.621094 C 470.433594 716.164062 470.242188 716.625 469.867188 717.003906 C 469.488281 717.378906 469.03125 717.570312 468.496094 717.570312 C 467.953125 717.570312 467.492188 717.378906 467.117188 717.003906 C 466.738281 716.625 466.550781 716.164062 466.550781 715.621094 L 466.550781 701.042969 C 466.550781 700.507812 466.738281 700.054688 467.117188 699.675781 C 467.492188 699.289062 467.953125 699.09375 468.496094 699.09375 L 475.773438 699.09375 C 477.644531 699.09375 479.25 699.761719 480.582031 701.09375 C 481.910156 702.425781 482.578125 704.03125 482.578125 705.90625 C 482.578125 707.09375 482.285156 708.199219 481.703125 709.226562 C 481.144531 710.222656 480.378906 711.027344 479.410156 711.644531 Z M 478.695312 705.90625 C 478.695312 705.101562 478.40625 704.414062 477.832031 703.84375 C 477.265625 703.269531 476.578125 702.980469 475.773438 702.980469 L 470.433594 702.980469 L 470.433594 708.820312 L 475.773438 708.820312 C 476.578125 708.820312 477.265625 708.535156 477.832031 707.96875 C 478.40625 707.390625 478.695312 706.703125 478.695312 705.90625 Z M 509.914062 337.429688 L 509.914062 717.046875 C 509.914062 720.703125 508.492188 724.136719 505.910156 726.722656 C 503.328125 729.304688 499.894531 730.730469 496.246094 730.730469 L 285.097656 730.730469 C 281.445312 730.730469 278.011719 729.304688 275.433594 726.722656 C 272.851562 724.136719 271.429688 720.703125 271.429688 717.046875 L 271.429688 337.429688 C 271.429688 333.777344 272.851562 330.339844 275.433594 327.757812 C 278.011719 325.171875 281.445312 323.75 285.097656 323.75 L 496.246094 323.75 C 499.894531 323.75 503.328125 325.171875 505.910156 327.757812 C 508.492188 330.339844 509.914062 333.777344 509.914062 337.429688 Z M 506.390625 337.429688 C 506.390625 334.625 505.253906 332.085938 503.417969 330.25 C 501.582031 328.410156 499.046875 327.273438 496.246094 327.273438 L 285.097656 327.273438 C 282.296875 327.273438 279.757812 328.410156 277.921875 330.25 C 276.085938 332.085938 274.949219 334.625 274.949219 337.429688 L 274.949219 717.046875 C 274.949219 719.851562 276.085938 722.390625 277.921875 724.226562 C 279.757812 726.066406 282.296875 727.203125 285.097656 727.203125 L 496.246094 727.203125 C 499.046875 727.203125 501.582031 726.066406 503.417969 724.226562 C 505.253906 722.390625 506.390625 719.851562 506.390625 717.046875 Z M 500.511719 527.238281 L 500.527344 685.65625 C 500.527344 687.320312 499.082031 688.769531 497.417969 688.769531 L 283.820312 688.769531 C 282.175781 688.769531 280.847656 687.449219 280.816406 685.808594 L 280.816406 337.429688 C 280.816406 336.289062 281.257812 335.214844 282.066406 334.40625 C 282.875 333.597656 283.949219 333.152344 285.089844 333.152344 L 463.652344 333.152344 L 463.710938 333.097656 L 463.765625 333.152344 L 496.238281 333.152344 C 497.359375 333.152344 498.414062 333.585938 499.21875 334.371094 C 499.230469 334.382812 499.246094 334.394531 499.257812 334.40625 C 500.066406 335.214844 500.511719 336.289062 500.511719 337.429688 Z M 426.53125 616.902344 L 426.53125 648.710938 L 434.628906 648.710938 L 423.878906 454.476562 L 357.464844 454.476562 L 346.714844 648.710938 L 354.808594 648.710938 L 354.808594 616.902344 C 354.808594 615.929688 355.597656 615.140625 356.570312 615.140625 C 357.542969 615.140625 358.332031 615.929688 358.332031 616.902344 L 358.332031 648.710938 L 366.644531 648.710938 L 366.644531 627.621094 C 366.644531 626.648438 367.433594 625.859375 368.40625 625.859375 C 369.378906 625.859375 370.167969 626.648438 370.167969 627.621094 L 370.167969 648.710938 L 378.484375 648.710938 L 378.484375 631.007812 C 378.484375 630.035156 379.273438 629.246094 380.242188 629.246094 C 381.214844 629.246094 382.003906 630.035156 382.003906 631.007812 L 382.003906 648.710938 L 395.957031 648.710938 L 395.957031 631.007812 C 395.957031 630.035156 396.746094 629.246094 397.714844 629.246094 C 398.6875 629.246094 399.476562 630.035156 399.476562 631.007812 L 399.476562 648.710938 L 409.484375 648.710938 L 409.484375 627.621094 C 409.484375 626.648438 410.273438 625.859375 411.246094 625.859375 C 412.21875 625.859375 413.007812 626.648438 413.007812 627.621094 L 413.007812 648.710938 L 423.011719 648.710938 L 423.011719 616.902344 C 423.011719 615.929688 423.800781 615.140625 424.769531 615.140625 C 425.742188 615.140625 426.53125 615.929688 426.53125 616.902344 Z M 344.851562 652.234375 C 333.792969 652.234375 313.59375 656.074219 298.503906 660.558594 L 482.953125 660.558594 C 467.863281 656.074219 447.667969 652.234375 436.605469 652.234375 C 436.585938 652.234375 436.566406 652.230469 436.546875 652.230469 C 436.527344 652.230469 436.507812 652.234375 436.488281 652.234375 Z M 497 661.8125 L 496.988281 527.238281 L 496.988281 372.429688 C 493.488281 379.394531 487.605469 383.25 484.25 384.984375 L 492.867188 397.167969 L 467.238281 411.335938 L 466.476562 412.65625 C 457.269531 439.34375 433.640625 449.746094 427.203125 452.140625 C 427.253906 452.292969 427.292969 452.449219 427.304688 452.617188 L 438.15625 648.730469 C 453.671875 649.167969 483.460938 655.816406 497 661.8125 Z M 439.003906 361.597656 L 462.816406 390.542969 L 399.390625 437.492188 L 395.800781 427.425781 L 384.851562 450.671875 L 409.386719 450.671875 L 402.527344 443.078125 L 470.621094 405.4375 L 487.714844 395.984375 L 481.269531 386.878906 L 466.285156 365.703125 L 496.988281 343.507812 L 496.988281 337.429688 C 496.988281 337.222656 496.914062 337.046875 496.769531 336.898438 C 496.707031 336.839844 496.640625 336.800781 496.570312 336.761719 C 496.46875 336.710938 496.359375 336.679688 496.238281 336.679688 L 465.066406 336.679688 Z M 408.652344 363.148438 C 408.652344 363.691406 408.839844 364.152344 409.21875 364.53125 C 409.597656 364.90625 410.058594 365.097656 410.601562 365.097656 C 411.132812 365.097656 411.589844 364.90625 411.96875 364.53125 C 412.347656 364.152344 412.535156 363.691406 412.535156 363.148438 L 412.535156 348.570312 C 412.535156 348.035156 412.347656 347.578125 411.96875 347.203125 C 411.589844 346.816406 411.132812 346.621094 410.601562 346.621094 C 410.058594 346.621094 409.597656 346.816406 409.21875 347.203125 C 408.839844 347.582031 408.652344 348.035156 408.652344 348.570312 Z M 385.511719 349.460938 L 392.796875 364.023438 C 392.960938 364.355469 393.199219 364.613281 393.511719 364.800781 C 393.824219 365 394.164062 365.097656 394.535156 365.097656 C 394.902344 365.097656 395.246094 365 395.558594 364.800781 C 395.871094 364.613281 396.109375 364.355469 396.273438 364.023438 L 403.546875 349.433594 C 403.792969 348.957031 403.832031 348.464844 403.65625 347.953125 C 403.484375 347.445312 403.160156 347.070312 402.683594 346.832031 C 402.207031 346.59375 401.714844 346.554688 401.207031 346.722656 C 400.695312 346.894531 400.320312 347.21875 400.082031 347.695312 L 394.535156 358.804688 L 388.988281 347.71875 C 388.75 347.234375 388.375 346.910156 387.863281 346.746094 C 387.355469 346.570312 386.859375 346.605469 386.375 346.84375 C 385.894531 347.082031 385.578125 347.457031 385.414062 347.964844 C 385.238281 348.476562 385.273438 348.976562 385.511719 349.460938 Z M 370.851562 355.867188 L 365.820312 361.914062 C 365.476562 362.324219 365.328125 362.796875 365.375 363.332031 C 365.425781 363.867188 365.65625 364.304688 366.066406 364.640625 C 366.417969 364.945312 366.835938 365.097656 367.3125 365.097656 C 367.914062 365.097656 368.410156 364.863281 368.804688 364.394531 L 373.378906 358.902344 L 377.953125 364.394531 C 378.347656 364.863281 378.84375 365.097656 379.441406 365.097656 C 379.914062 365.097656 380.324219 364.945312 380.6875 364.640625 C 381.097656 364.304688 381.328125 363.867188 381.378906 363.332031 C 381.429688 362.796875 381.28125 362.324219 380.933594 361.914062 L 375.902344 355.867188 L 380.933594 349.816406 C 381.28125 349.40625 381.429688 348.933594 381.378906 348.398438 C 381.328125 347.863281 381.097656 347.421875 380.6875 347.078125 C 380.277344 346.730469 379.804688 346.585938 379.269531 346.632812 C 378.738281 346.683594 378.296875 346.914062 377.949219 347.324219 L 373.378906 352.828125 L 368.804688 347.324219 C 368.457031 346.914062 368.015625 346.683594 367.484375 346.632812 C 366.949219 346.585938 366.476562 346.730469 366.066406 347.078125 C 365.65625 347.421875 365.425781 347.863281 365.375 348.398438 C 365.324219 348.933594 365.472656 349.40625 365.820312 349.816406 Z M 338.773438 403.957031 L 353.265625 421.175781 C 353.609375 421.582031 354.105469 421.804688 354.613281 421.804688 C 354.8125 421.804688 355.007812 421.769531 355.199219 421.703125 L 380.40625 412.820312 L 404.539062 404.316406 C 405.230469 404.074219 405.699219 403.425781 405.71875 402.695312 L 406.242188 380.183594 C 406.257812 379.519531 405.894531 378.902344 405.308594 378.585938 C 404.722656 378.273438 404.011719 378.316406 403.464844 378.699219 L 385.574219 391.308594 L 370.394531 381.925781 C 370.394531 381.925781 370.390625 381.925781 370.390625 381.925781 C 370.324219 381.886719 370.25 381.855469 370.175781 381.820312 C 370.140625 381.804688 370.105469 381.785156 370.066406 381.769531 C 370.066406 381.769531 370.0625 381.765625 370.058594 381.765625 C 370.054688 381.765625 370.046875 381.765625 370.042969 381.761719 C 370.019531 381.753906 369.992188 381.75 369.96875 381.746094 C 369.949219 381.738281 369.929688 381.734375 369.910156 381.730469 C 369.847656 381.714844 369.789062 381.695312 369.726562 381.683594 C 369.710938 381.683594 369.695312 381.683594 369.679688 381.679688 C 369.640625 381.675781 369.601562 381.675781 369.558594 381.675781 C 369.5 381.671875 369.441406 381.664062 369.382812 381.667969 C 369.359375 381.667969 369.335938 381.675781 369.3125 381.675781 C 369.269531 381.679688 369.226562 381.6875 369.183594 381.695312 C 369.136719 381.703125 369.089844 381.707031 369.046875 381.71875 C 369.015625 381.726562 368.984375 381.738281 368.957031 381.75 C 368.929688 381.753906 368.90625 381.757812 368.882812 381.765625 C 368.859375 381.773438 368.839844 381.785156 368.820312 381.796875 C 368.789062 381.808594 368.757812 381.816406 368.726562 381.832031 C 368.6875 381.847656 368.652344 381.871094 368.617188 381.894531 C 368.574219 381.917969 368.53125 381.9375 368.492188 381.964844 C 368.472656 381.976562 368.453125 381.988281 368.433594 382.003906 C 368.390625 382.035156 368.351562 382.074219 368.3125 382.109375 C 368.277344 382.140625 368.238281 382.167969 368.207031 382.199219 C 368.199219 382.210938 368.1875 382.21875 368.179688 382.226562 C 368.132812 382.277344 368.09375 382.335938 368.050781 382.394531 C 368.027344 382.429688 367.996094 382.460938 367.972656 382.496094 C 367.972656 382.5 367.972656 382.5 367.96875 382.5 C 367.96875 382.503906 367.96875 382.503906 367.96875 382.507812 C 367.933594 382.566406 367.90625 382.628906 367.875 382.695312 C 367.855469 382.738281 367.832031 382.78125 367.8125 382.824219 C 367.8125 382.828125 367.808594 382.832031 367.808594 382.839844 L 361.84375 399.667969 L 340.007812 401.0625 C 339.34375 401.101562 338.761719 401.515625 338.5 402.128906 C 338.238281 402.742188 338.34375 403.449219 338.773438 403.957031 Z M 284.339844 661.863281 C 297.789062 655.871094 327.59375 649.203125 343.183594 648.738281 L 354.039062 452.617188 C 354.046875 452.488281 354.070312 452.359375 354.105469 452.238281 C 342.476562 449.007812 334.679688 443.335938 329.488281 436.949219 C 316.410156 424.597656 319.371094 403.0625 319.371094 403.0625 C 319.371094 403.0625 299.082031 400.242188 296.828125 381.625 C 296.703125 380.601562 296.648438 379.609375 296.621094 378.628906 C 295.890625 370.949219 299.277344 363.835938 301.207031 360.492188 C 301.9375 359.210938 302.464844 358.492188 302.464844 358.492188 C 301.863281 358.386719 301.277344 358.265625 300.710938 358.132812 C 291.316406 355.902344 286.652344 349.546875 284.339844 343.972656 Z M 284.339844 673.253906 L 497.003906 673.253906 L 497 665.695312 C 495.707031 665.066406 494.210938 664.425781 492.546875 663.78125 C 492.265625 663.972656 491.925781 664.085938 491.558594 664.085938 L 288.652344 664.085938 C 288.515625 664.085938 288.382812 664.066406 288.253906 664.035156 C 286.800781 664.613281 285.488281 665.1875 284.339844 665.753906 Z M 497.003906 685.242188 L 497.003906 676.777344 L 284.339844 676.777344 L 284.339844 685.242188 Z M 413.636719 527.753906 C 413.636719 528.730469 412.847656 529.519531 411.878906 529.519531 L 368.546875 529.519531 C 367.574219 529.519531 366.785156 528.730469 366.785156 527.753906 C 366.785156 526.78125 367.574219 525.992188 368.546875 525.992188 L 374.394531 525.992188 L 374.394531 508.925781 C 374.394531 494.449219 381.6875 486.636719 388.546875 486.636719 C 391.707031 486.636719 399.0625 487.839844 401.898438 498.367188 C 402.296875 498.066406 402.699219 497.761719 403.089844 497.507812 C 403.707031 497.101562 404.511719 497.125 405.105469 497.5625 C 405.699219 498.003906 405.953125 498.765625 405.746094 499.476562 L 403.039062 508.71875 L 409.996094 501.753906 C 410.480469 501.269531 411.199219 501.113281 411.839844 501.339844 C 412.480469 501.574219 412.933594 502.15625 412.996094 502.835938 C 413.054688 503.453125 414.144531 516.53125 405.746094 525.992188 L 411.875 525.992188 C 412.847656 525.992188 413.636719 526.78125 413.636719 527.753906 Z M 409.4375 507.304688 L 400.652344 516.097656 C 400.085938 516.664062 399.203125 516.78125 398.507812 516.367188 C 397.816406 515.957031 397.492188 515.125 397.714844 514.355469 L 400.738281 504.042969 C 395.386719 509.296875 390.140625 516.816406 390.074219 516.914062 C 389.617188 517.570312 388.777344 517.835938 388.027344 517.566406 C 387.277344 517.292969 386.800781 516.546875 386.875 515.75 L 387.570312 507.945312 L 387.300781 508.183594 C 383.371094 512.695312 380.074219 521.359375 378.632812 525.992188 L 400.667969 525.992188 C 407.34375 520.496094 409.050781 512.238281 409.4375 507.304688 Z M 413.636719 591.511719 C 413.636719 592.484375 412.847656 593.277344 411.878906 593.277344 L 368.546875 593.277344 C 367.574219 593.277344 366.785156 592.484375 366.785156 591.511719 C 366.785156 590.539062 367.574219 589.75 368.546875 589.75 L 374.394531 589.75 L 374.394531 572.683594 C 374.394531 558.207031 381.6875 550.394531 388.546875 550.394531 C 392.460938 550.394531 399.195312 551.984375 401.902344 562.121094 C 402.300781 561.820312 402.699219 561.519531 403.089844 561.265625 C 403.707031 560.859375 404.515625 560.882812 405.105469 561.320312 C 405.699219 561.761719 405.953125 562.527344 405.746094 563.234375 L 403.039062 572.476562 L 409.996094 565.511719 C 410.480469 565.027344 411.199219 564.871094 411.839844 565.097656 C 412.480469 565.332031 412.933594 565.914062 412.996094 566.59375 C 413.054688 567.207031 414.148438 580.289062 405.746094 589.75 L 411.878906 589.75 C 412.847656 589.75 413.636719 590.539062 413.636719 591.511719 Z M 409.4375 571.0625 L 400.652344 579.851562 C 400.085938 580.421875 399.203125 580.535156 398.507812 580.121094 C 397.816406 579.710938 397.492188 578.882812 397.714844 578.109375 L 400.738281 567.800781 C 395.386719 573.054688 390.140625 580.574219 390.074219 580.671875 C 389.617188 581.328125 388.777344 581.589844 388.027344 581.320312 C 387.277344 581.046875 386.800781 580.300781 386.875 579.507812 L 387.570312 571.703125 L 387.289062 571.949219 C 383.359375 576.464844 380.070312 585.117188 378.628906 589.75 L 400.667969 589.75 C 407.34375 584.25 409.050781 575.996094 409.4375 571.0625 Z M 302.734375 476.296875 C 302.734375 477.195312 303.464844 477.921875 304.359375 477.921875 C 305.257812 477.921875 305.984375 477.195312 305.984375 476.296875 C 305.984375 474.21875 307.675781 472.527344 309.75 472.527344 C 310.648438 472.527344 311.375 471.800781 311.375 470.902344 C 311.375 470.003906 310.648438 469.273438 309.75 469.273438 C 307.675781 469.273438 305.984375 467.582031 305.984375 465.503906 C 305.984375 464.605469 305.257812 463.878906 304.359375 463.878906 C 303.464844 463.878906 302.734375 464.605469 302.734375 465.503906 C 302.734375 467.582031 301.046875 469.273438 298.96875 469.273438 C 298.074219 469.273438 297.34375 470.003906 297.34375 470.902344 C 297.34375 471.800781 298.074219 472.527344 298.96875 472.527344 C 301.046875 472.527344 302.734375 474.21875 302.734375 476.296875 Z M 323.871094 511.84375 C 323.871094 512.742188 324.601562 513.46875 325.496094 513.46875 C 326.394531 513.46875 327.121094 512.742188 327.121094 511.84375 C 327.121094 509.765625 328.8125 508.074219 330.886719 508.074219 C 331.785156 508.074219 332.511719 507.34375 332.511719 506.445312 C 332.511719 505.546875 331.785156 504.820312 330.886719 504.820312 C 328.8125 504.820312 327.121094 503.128906 327.121094 501.050781 C 327.121094 500.152344 326.394531 499.421875 325.496094 499.421875 C 324.597656 499.421875 323.871094 500.152344 323.871094 501.050781 C 323.871094 503.128906 322.183594 504.820312 320.105469 504.820312 C 319.210938 504.820312 318.480469 505.546875 318.480469 506.445312 C 318.480469 507.34375 319.210938 508.074219 320.105469 508.074219 C 322.183594 508.074219 323.871094 509.765625 323.871094 511.84375 Z M 303.582031 546.542969 C 303.582031 547.441406 304.308594 548.167969 305.207031 548.167969 C 306.105469 548.167969 306.832031 547.441406 306.832031 546.542969 C 306.832031 544.464844 308.519531 542.773438 310.597656 542.773438 C 311.496094 542.773438 312.222656 542.042969 312.222656 541.144531 C 312.222656 540.246094 311.492188 539.519531 310.597656 539.519531 C 308.519531 539.519531 306.832031 537.828125 306.832031 535.75 C 306.832031 534.851562 306.105469 534.121094 305.207031 534.121094 C 304.308594 534.121094 303.582031 534.851562 303.582031 535.75 C 303.582031 537.828125 301.890625 539.519531 299.816406 539.519531 C 298.917969 539.519531 298.191406 540.246094 298.191406 541.144531 C 298.191406 542.042969 298.917969 542.773438 299.816406 542.773438 C 301.890625 542.773438 303.582031 544.464844 303.582031 546.542969 Z M 331.734375 579.296875 C 329.65625 579.296875 327.96875 577.605469 327.96875 575.527344 C 327.96875 574.628906 327.238281 573.898438 326.34375 573.898438 C 325.445312 573.898438 324.71875 574.628906 324.71875 575.527344 C 324.71875 577.605469 323.027344 579.296875 320.953125 579.296875 C 320.054688 579.296875 319.328125 580.023438 319.328125 580.921875 C 319.328125 581.820312 320.054688 582.550781 320.953125 582.550781 C 323.027344 582.550781 324.71875 584.238281 324.71875 586.320312 C 324.71875 587.21875 325.445312 587.945312 326.34375 587.945312 C 327.238281 587.945312 327.96875 587.21875 327.96875 586.320312 C 327.96875 584.238281 329.65625 582.550781 331.734375 582.550781 C 332.628906 582.550781 333.359375 581.820312 333.359375 580.921875 C 333.359375 580.023438 332.628906 579.296875 331.734375 579.296875 Z M 313.980469 620.765625 C 311.902344 620.765625 310.214844 619.074219 310.214844 616.996094 C 310.214844 616.097656 309.484375 615.367188 308.589844 615.367188 C 307.691406 615.367188 306.964844 616.097656 306.964844 616.996094 C 306.964844 619.074219 305.273438 620.765625 303.199219 620.765625 C 302.300781 620.765625 301.574219 621.492188 301.574219 622.390625 C 301.574219 623.289062 302.300781 624.019531 303.199219 624.019531 C 305.273438 624.019531 306.964844 625.710938 306.964844 627.789062 C 306.964844 628.6875 307.691406 629.414062 308.589844 629.414062 C 309.484375 629.414062 310.214844 628.6875 310.214844 627.789062 C 310.214844 625.710938 311.902344 624.019531 313.980469 624.019531 C 314.875 624.019531 315.605469 623.289062 315.605469 622.390625 C 315.605469 621.492188 314.875 620.765625 313.980469 620.765625 Z M 482.222656 469.273438 C 480.144531 469.273438 478.457031 467.582031 478.457031 465.503906 C 478.457031 464.605469 477.726562 463.878906 476.832031 463.878906 C 475.933594 463.878906 475.207031 464.605469 475.207031 465.503906 C 475.207031 467.582031 473.515625 469.273438 471.441406 469.273438 C 470.542969 469.273438 469.816406 470.003906 469.816406 470.902344 C 469.816406 471.800781 470.542969 472.527344 471.441406 472.527344 C 473.515625 472.527344 475.207031 474.21875 475.207031 476.296875 C 475.207031 477.195312 475.933594 477.921875 476.832031 477.921875 C 477.726562 477.921875 478.457031 477.195312 478.457031 476.296875 C 478.457031 474.21875 480.144531 472.527344 482.222656 472.527344 C 483.117188 472.527344 483.847656 471.800781 483.847656 470.902344 C 483.847656 470.003906 483.117188 469.273438 482.222656 469.273438 Z M 461.085938 504.820312 C 459.007812 504.820312 457.320312 503.128906 457.320312 501.050781 C 457.320312 500.152344 456.59375 499.421875 455.695312 499.421875 C 454.796875 499.421875 454.070312 500.152344 454.070312 501.050781 C 454.070312 503.128906 452.378906 504.820312 450.304688 504.820312 C 449.40625 504.820312 448.679688 505.546875 448.679688 506.445312 C 448.679688 507.34375 449.40625 508.074219 450.304688 508.074219 C 452.378906 508.074219 454.070312 509.765625 454.070312 511.84375 C 454.070312 512.742188 454.796875 513.46875 455.695312 513.46875 C 456.59375 513.46875 457.320312 512.742188 457.320312 511.84375 C 457.320312 509.765625 459.007812 508.074219 461.085938 508.074219 C 461.984375 508.074219 462.710938 507.34375 462.710938 506.445312 C 462.710938 505.546875 461.984375 504.820312 461.085938 504.820312 Z M 481.375 539.519531 C 479.300781 539.519531 477.609375 537.828125 477.609375 535.75 C 477.609375 534.851562 476.882812 534.121094 475.984375 534.121094 C 475.085938 534.121094 474.359375 534.851562 474.359375 535.75 C 474.359375 537.828125 472.671875 539.519531 470.59375 539.519531 C 469.695312 539.519531 468.96875 540.246094 468.96875 541.144531 C 468.96875 542.042969 469.699219 542.773438 470.59375 542.773438 C 472.671875 542.773438 474.359375 544.464844 474.359375 546.542969 C 474.359375 547.441406 475.089844 548.167969 475.984375 548.167969 C 476.882812 548.167969 477.609375 547.441406 477.609375 546.542969 C 477.609375 544.464844 479.300781 542.773438 481.375 542.773438 C 482.273438 542.773438 483 542.042969 483 541.144531 C 483 540.246094 482.273438 539.519531 481.375 539.519531 Z M 460.238281 579.296875 C 458.164062 579.296875 456.472656 577.605469 456.472656 575.527344 C 456.472656 574.628906 455.746094 573.898438 454.847656 573.898438 C 453.953125 573.898438 453.222656 574.628906 453.222656 575.527344 C 453.222656 577.605469 451.535156 579.296875 449.457031 579.296875 C 448.5625 579.296875 447.832031 580.023438 447.832031 580.921875 C 447.832031 581.820312 448.5625 582.550781 449.457031 582.550781 C 451.535156 582.550781 453.222656 584.238281 453.222656 586.320312 C 453.222656 587.21875 453.953125 587.945312 454.847656 587.945312 C 455.746094 587.945312 456.472656 587.21875 456.472656 586.320312 C 456.472656 584.238281 458.164062 582.550781 460.238281 582.550781 C 461.136719 582.550781 461.863281 581.820312 461.863281 580.921875 C 461.863281 580.023438 461.136719 579.296875 460.238281 579.296875 Z M 477.992188 620.765625 C 475.917969 620.765625 474.226562 619.074219 474.226562 616.996094 C 474.226562 616.097656 473.5 615.367188 472.601562 615.367188 C 471.707031 615.367188 470.980469 616.097656 470.980469 616.996094 C 470.980469 619.074219 469.289062 620.765625 467.210938 620.765625 C 466.316406 620.765625 465.585938 621.492188 465.585938 622.390625 C 465.585938 623.289062 466.316406 624.019531 467.210938 624.019531 C 469.289062 624.019531 470.980469 625.710938 470.980469 627.789062 C 470.980469 628.6875 471.707031 629.414062 472.601562 629.414062 C 473.5 629.414062 474.226562 628.6875 474.226562 627.789062 C 474.226562 625.710938 475.917969 624.019531 477.992188 624.019531 C 478.890625 624.019531 479.617188 623.289062 479.617188 622.390625 C 479.617188 621.492188 478.890625 620.765625 477.992188 620.765625 Z M 477.992188 620.765625 " fill-opacity="1" fill-rule="nonzero"/></g></svg>