<svg xmlns="http://www.w3.org/2000/svg" xmlns:xlink="http://www.w3.org/1999/xlink" width="1080" zoomAndPan="magnify" viewBox="0 0 810 809.999993" height="1080" preserveAspectRatio="xMidYMid meet" version="1.0"><defs><clipPath id="db1e991a4e"><path d="M 274.117188 269.316406 L 520.117188 269.316406 L 520.117188 688.566406 L 274.117188 688.566406 Z M 274.117188 269.316406 " clip-rule="nonzero"/></clipPath></defs><g clip-path="url(#db1e991a4e)"><path fill="#2e2e2e" d="M 330 657.203125 C 330.386719 657.59375 330.582031 658.0625 330.582031 658.613281 C 330.582031 659.164062 330.386719 659.636719 330 660.027344 C 329.597656 660.414062 329.125 660.609375 328.574219 660.609375 L 324.3125 660.609375 L 324.3125 673.621094 C 324.3125 674.179688 324.117188 674.652344 323.726562 675.042969 C 323.339844 675.433594 322.867188 675.628906 322.316406 675.628906 C 321.765625 675.628906 321.289062 675.433594 320.894531 675.042969 C 320.503906 674.652344 320.308594 674.179688 320.308594 673.621094 L 320.308594 660.609375 L 316.058594 660.609375 C 315.5 660.609375 315.023438 660.414062 314.636719 660.027344 C 314.246094 659.636719 314.050781 659.164062 314.050781 658.613281 C 314.050781 658.0625 314.246094 657.59375 314.636719 657.203125 C 315.023438 656.804688 315.5 656.609375 316.058594 656.609375 L 328.574219 656.609375 C 329.125 656.609375 329.597656 656.804688 330 657.203125 Z M 408.867188 656.609375 L 396.355469 656.609375 C 395.792969 656.609375 395.320312 656.804688 394.929688 657.203125 C 394.539062 657.59375 394.347656 658.0625 394.347656 658.613281 L 394.347656 673.621094 C 394.347656 674.179688 394.539062 674.65625 394.929688 675.042969 C 395.320312 675.433594 395.796875 675.628906 396.355469 675.628906 C 396.90625 675.628906 397.375 675.433594 397.765625 675.042969 C 398.15625 674.65625 398.351562 674.179688 398.351562 673.621094 L 398.351562 668.121094 L 406.363281 668.121094 C 406.914062 668.121094 407.386719 667.925781 407.785156 667.535156 C 408.175781 667.144531 408.371094 666.675781 408.371094 666.125 C 408.371094 665.566406 408.175781 665.089844 407.785156 664.703125 C 407.386719 664.3125 406.914062 664.117188 406.363281 664.117188 L 398.351562 664.117188 L 398.351562 660.609375 L 408.867188 660.609375 C 409.417969 660.609375 409.894531 660.414062 410.292969 660.027344 C 410.683594 659.636719 410.878906 659.164062 410.878906 658.613281 C 410.878906 658.066406 410.683594 657.59375 410.292969 657.207031 C 409.894531 656.804688 409.417969 656.609375 408.867188 656.609375 Z M 350.15625 656.609375 C 349.601562 656.609375 349.132812 656.804688 348.742188 657.203125 C 348.351562 657.59375 348.160156 658.0625 348.160156 658.613281 L 348.160156 664.117188 L 339.636719 664.117188 L 339.636719 658.613281 C 339.636719 658.0625 339.441406 657.59375 339.050781 657.203125 C 338.664062 656.804688 338.191406 656.609375 337.640625 656.609375 C 337.082031 656.609375 336.605469 656.804688 336.21875 657.203125 C 335.828125 657.59375 335.632812 658.0625 335.632812 658.613281 L 335.632812 673.621094 C 335.632812 674.179688 335.828125 674.65625 336.21875 675.042969 C 336.605469 675.433594 337.082031 675.628906 337.640625 675.628906 C 338.191406 675.628906 338.664062 675.433594 339.050781 675.042969 C 339.441406 674.65625 339.636719 674.179688 339.636719 673.621094 L 339.636719 668.121094 L 348.160156 668.121094 L 348.160156 673.621094 C 348.160156 674.179688 348.351562 674.65625 348.742188 675.042969 C 349.132812 675.433594 349.605469 675.628906 350.15625 675.628906 C 350.707031 675.628906 351.179688 675.433594 351.578125 675.042969 C 351.96875 674.65625 352.164062 674.179688 352.164062 673.621094 L 352.164062 658.613281 C 352.164062 658.0625 351.96875 657.59375 351.578125 657.203125 C 351.179688 656.804688 350.707031 656.609375 350.15625 656.609375 Z M 373.234375 660.609375 C 373.789062 660.609375 374.261719 660.414062 374.660156 660.027344 C 375.050781 659.636719 375.246094 659.164062 375.246094 658.613281 C 375.246094 658.0625 375.050781 657.59375 374.660156 657.203125 C 374.261719 656.804688 373.789062 656.609375 373.234375 656.609375 L 360.722656 656.609375 C 360.164062 656.609375 359.6875 656.804688 359.296875 657.203125 C 358.910156 657.59375 358.714844 658.0625 358.714844 658.613281 L 358.714844 673.621094 C 358.714844 674.179688 358.910156 674.65625 359.296875 675.042969 C 359.6875 675.433594 360.164062 675.628906 360.722656 675.628906 L 373.234375 675.628906 C 373.789062 675.628906 374.261719 675.433594 374.660156 675.042969 C 375.050781 674.65625 375.246094 674.179688 375.246094 673.621094 C 375.246094 673.070312 375.050781 672.601562 374.660156 672.210938 C 374.261719 671.820312 373.789062 671.625 373.234375 671.625 L 362.71875 671.625 L 362.71875 668.121094 L 370.730469 668.121094 C 371.28125 668.121094 371.757812 667.925781 372.15625 667.535156 C 372.546875 667.144531 372.742188 666.675781 372.742188 666.125 C 372.742188 665.566406 372.546875 665.089844 372.15625 664.703125 C 371.757812 664.3125 371.28125 664.117188 370.730469 664.117188 L 362.71875 664.117188 L 362.71875 660.609375 Z M 431.65625 659.402344 C 433.523438 661.257812 434.453125 663.5 434.453125 666.125 C 434.453125 668.742188 433.523438 670.984375 431.65625 672.847656 C 429.800781 674.699219 427.558594 675.628906 424.929688 675.628906 C 422.308594 675.628906 420.066406 674.699219 418.203125 672.847656 C 416.347656 670.980469 415.417969 668.742188 415.417969 666.125 C 415.417969 663.5 416.347656 661.257812 418.203125 659.402344 C 420.066406 657.539062 422.308594 656.609375 424.929688 656.609375 C 427.558594 656.609375 429.800781 657.539062 431.65625 659.402344 Z M 430.449219 666.125 C 430.449219 664.609375 429.910156 663.3125 428.835938 662.238281 C 427.75 661.152344 426.449219 660.609375 424.929688 660.609375 C 423.414062 660.609375 422.113281 661.152344 421.039062 662.238281 C 419.960938 663.3125 419.425781 664.609375 419.425781 666.125 C 419.425781 667.640625 419.960938 668.9375 421.039062 670.011719 C 422.113281 671.085938 423.414062 671.625 424.929688 671.625 C 426.449219 671.625 427.75 671.085938 428.835938 670.011719 C 429.910156 668.9375 430.449219 667.640625 430.449219 666.125 Z M 455.234375 659.402344 C 457.101562 661.257812 458.03125 663.5 458.03125 666.125 C 458.03125 668.742188 457.101562 670.984375 455.234375 672.847656 C 453.378906 674.699219 451.132812 675.628906 448.507812 675.628906 C 445.886719 675.628906 443.644531 674.699219 441.78125 672.847656 C 439.925781 670.980469 438.996094 668.742188 438.996094 666.125 C 438.996094 663.5 439.925781 661.257812 441.78125 659.402344 C 443.644531 657.539062 445.886719 656.609375 448.507812 656.609375 C 451.136719 656.609375 453.378906 657.539062 455.234375 659.402344 Z M 454.027344 666.125 C 454.027344 664.609375 453.488281 663.3125 452.410156 662.238281 C 451.324219 661.152344 450.023438 660.609375 448.507812 660.609375 C 446.988281 660.609375 445.691406 661.152344 444.617188 662.238281 C 443.539062 663.3125 443 664.609375 443 666.125 C 443 667.640625 443.539062 668.9375 444.617188 670.011719 C 445.691406 671.085938 446.988281 671.625 448.507812 671.625 C 450.023438 671.625 451.324219 671.085938 452.410156 670.011719 C 453.488281 668.9375 454.027344 667.640625 454.027344 666.125 Z M 510.398438 478.941406 L 510.414062 642.027344 C 510.414062 643.742188 508.925781 645.230469 507.207031 645.230469 L 286.894531 645.230469 C 285.199219 645.230469 283.828125 643.871094 283.796875 642.183594 L 283.796875 283.542969 C 283.796875 282.367188 284.253906 281.257812 285.085938 280.425781 C 285.917969 279.59375 287.027344 279.136719 288.203125 279.136719 L 505.992188 279.136719 C 507.167969 279.136719 508.277344 279.59375 509.109375 280.425781 C 509.941406 281.257812 510.398438 282.367188 510.398438 283.542969 Z M 506.765625 487.679688 L 499.339844 487.679688 L 499.339844 468.511719 L 492.949219 468.511719 L 492.949219 460.960938 L 486.117188 460.960938 L 486.117188 467.351562 L 478.558594 467.351562 L 478.558594 488.261719 L 468.53125 488.261719 L 468.53125 475.480469 L 454.144531 475.480469 L 454.144531 491.746094 L 440.042969 491.746094 L 440.042969 466.1875 L 432.050781 466.1875 L 432.050781 487.679688 L 431.527344 487.679688 C 434.035156 490.230469 435.796875 492.046875 436.222656 492.554688 C 438.207031 494.929688 422.65625 501.371094 416.699219 503.40625 C 416.324219 503.535156 415.804688 503.695312 415.15625 503.882812 L 412.894531 515.277344 C 417.894531 518.367188 428.121094 525.050781 432.300781 530.453125 C 434.71875 526.964844 443.195312 529.960938 439.042969 537.574219 C 441.308594 540.136719 445.640625 545.085938 448.652344 548.773438 C 455.050781 545.414062 456.894531 542.972656 456.933594 542.917969 C 457.144531 542.621094 457.457031 542.375 457.796875 542.25 C 470.511719 537.515625 499.472656 527.074219 506.769531 527.265625 Z M 400.671875 555.792969 C 400.742188 557.207031 400.859375 559.015625 400.992188 561 C 401.019531 561.441406 401.050781 561.878906 401.078125 562.316406 C 415.167969 560.035156 425.808594 557.390625 433.824219 554.796875 C 432.863281 553.847656 431.558594 552.808594 430.25 552.011719 C 429.957031 551.832031 429.71875 551.59375 429.53125 551.324219 C 428.789062 552.0625 428.070312 552.535156 427.328125 552.660156 C 424.351562 553.167969 420.054688 549.570312 421.660156 547.433594 C 421.960938 547.03125 422.246094 546.648438 422.53125 546.265625 C 416.164062 542.449219 403.976562 532.484375 397.582031 527.140625 C 398.628906 533.921875 399.773438 541.6875 400.117188 545.273438 C 401.03125 545.042969 402.617188 545.117188 403.464844 547.910156 C 404.441406 551.113281 403.945312 553.539062 400.671875 555.792969 Z M 392.050781 515.425781 L 393.714844 508.257812 C 388.488281 508.996094 382.953125 509.519531 377.699219 509.574219 C 377.238281 511.769531 377.136719 514.320312 377.914062 517.015625 L 378.78125 519.980469 C 382.953125 534.230469 385.742188 544.617188 386.265625 550.132812 C 388.992188 549.449219 393.261719 548.273438 396.59375 546.90625 C 396.59375 546.886719 396.589844 546.871094 396.589844 546.851562 C 396.589844 544.050781 393.355469 523.46875 392.105469 515.777344 Z M 396.730469 521.679688 C 405.339844 528.976562 419.125 540.113281 424.648438 543.351562 C 427.355469 539.550781 429.140625 536.691406 430.417969 534.285156 C 429.128906 530.480469 417.125 521.980469 408.816406 517.046875 C 407.949219 516.535156 407.667969 515.421875 408.179688 514.558594 C 408.476562 514.0625 408.972656 513.765625 409.503906 513.695312 L 411.25 504.902344 C 407.710938 505.765625 402.914062 506.792969 397.582031 507.667969 L 395.75 515.546875 C 395.917969 516.582031 396.28125 518.832031 396.730469 521.679688 Z M 386.3125 302.519531 C 386.3125 305.136719 387.242188 307.378906 389.097656 309.242188 C 390.964844 311.097656 393.207031 312.023438 395.828125 312.023438 C 398.453125 312.023438 400.699219 311.097656 402.554688 309.242188 C 404.417969 307.378906 405.351562 305.136719 405.351562 302.519531 C 405.351562 299.894531 404.417969 297.65625 402.554688 295.800781 C 400.699219 293.9375 398.453125 293.003906 395.828125 293.003906 C 393.207031 293.003906 390.964844 293.9375 389.097656 295.800781 C 387.242188 297.65625 386.3125 299.894531 386.3125 302.519531 Z M 287.429688 481.726562 L 310.546875 481.726562 L 310.546875 491.601562 L 316.21875 491.601562 L 316.21875 470.6875 L 324.355469 470.6875 L 324.355469 466.042969 L 337.871094 466.042969 L 337.871094 470.6875 L 347.757812 470.6875 L 347.757812 484.046875 L 360.714844 484.046875 C 366.246094 470.183594 370.6875 455.386719 370.355469 451.59375 C 369.628906 443.316406 369.699219 432.601562 369.917969 426.761719 C 369.949219 425.980469 368.003906 427.515625 367.449219 428.070312 C 363.988281 431.539062 356.308594 437.800781 354.496094 439.660156 C 352.226562 441.984375 324.90625 450.15625 323.761719 450.5 C 323.734375 450.507812 323.707031 450.511719 323.679688 450.519531 C 322.875 450.679688 310.652344 453.007812 305.855469 446.78125 C 305.808594 446.71875 305.773438 446.660156 305.730469 446.601562 L 302.136719 448.6875 C 301.847656 448.855469 301.535156 448.933594 301.222656 448.933594 C 300.597656 448.933594 299.988281 448.609375 299.652344 448.03125 C 299.148438 447.164062 299.441406 446.054688 300.308594 445.550781 L 304.898438 442.886719 C 305.886719 440.285156 310.363281 438.984375 312.421875 438.515625 L 390.160156 393.367188 C 390.789062 392.210938 391.300781 391.042969 391.828125 389.953125 C 393.828125 385.8125 388.238281 384.171875 387.105469 380.730469 C 386.199219 377.972656 389.214844 377.210938 389.214844 377.210938 C 389.214844 377.210938 388.957031 376.339844 389.105469 375.832031 C 389.25 375.324219 389.792969 374.960938 389.792969 374.960938 C 389.792969 374.960938 389.722656 374.015625 390.15625 373.796875 C 390.59375 373.582031 391.285156 373.691406 391.285156 373.691406 L 390.882812 371.691406 C 390.738281 370.820312 391.417969 370.472656 391.902344 370.386719 C 392.585938 370.265625 393.339844 370.007812 395.425781 369.476562 C 397.769531 368.882812 398.789062 366.816406 400.464844 365.398438 C 400.996094 363.617188 403.492188 358.816406 414.394531 365.230469 C 418.316406 367.539062 420.699219 371.273438 421.691406 375.054688 L 463.621094 350.703125 C 464.488281 350.199219 465.601562 350.492188 466.105469 351.359375 C 466.246094 351.601562 466.320312 351.867188 466.339844 352.132812 C 467.925781 355.453125 470.539062 361.195312 472.496094 365.347656 C 475.433594 371.582031 482.484375 390.835938 467.003906 394.382812 C 453.050781 397.574219 445.199219 390.523438 447.183594 379.082031 C 448.460938 371.726562 451.597656 364.734375 453.679688 360.675781 L 422.21875 378.945312 C 422.246094 381.429688 421.667969 383.722656 420.496094 385.378906 C 417.085938 390.207031 415.191406 394.285156 417.445312 395.324219 C 419.332031 396.195312 417.335938 397.792969 414.394531 397.792969 C 412.261719 397.792969 409.089844 397.257812 406.429688 395.261719 L 405.816406 396.558594 C 405.238281 398.15625 406.335938 399.097656 406.980469 399.171875 C 410.035156 399.519531 416.496094 400.582031 421.332031 407.105469 C 426.984375 414.722656 434.769531 420.972656 436.289062 422.160156 C 436.460938 422.292969 436.664062 422.355469 436.878906 422.335938 C 439.476562 422.121094 456.828125 420.671875 462.523438 420.339844 C 462.640625 420.332031 462.746094 420.304688 462.851562 420.25 C 463.933594 419.703125 470.429688 416.453125 475.265625 414.90625 C 480.5625 413.210938 485.523438 411.851562 483.207031 413.886719 C 482.675781 414.355469 482.070312 414.773438 481.453125 415.132812 C 480.695312 415.582031 481.039062 416.742188 481.921875 416.726562 C 484.445312 416.683594 487.34375 416.769531 488.832031 417.277344 C 490.984375 418.011719 490.539062 418.921875 488.628906 419.242188 C 490.351562 419.324219 492.175781 419.707031 491.8125 421.007812 C 491.464844 422.257812 488.917969 422.375 486.582031 422.210938 C 487.804688 422.554688 488.902344 423.117188 489.164062 424.058594 C 489.476562 425.171875 487.597656 425.238281 485.523438 424.996094 C 486.472656 425.449219 487.179688 426.117188 487.179688 427.109375 C 487.179688 429.921875 471.464844 426.40625 468.980469 425.832031 C 468.765625 425.78125 468.550781 425.8125 468.359375 425.925781 C 465.679688 427.484375 445.160156 439.207031 435.894531 437.621094 C 427.386719 436.167969 415.484375 426.253906 412.246094 423.445312 C 411.820312 423.070312 411.160156 423.207031 410.914062 423.714844 C 409.273438 427.070312 403.980469 437.871094 401.480469 442.707031 C 398.503906 448.472656 400.820312 454.914062 402.144531 457.289062 C 403.0625 458.933594 418.128906 474.101562 427.949219 484.046875 L 428.417969 484.046875 L 428.417969 462.554688 L 443.679688 462.554688 L 443.679688 488.113281 L 450.511719 488.113281 L 450.511719 471.847656 L 472.164062 471.847656 L 472.164062 484.625 L 474.925781 484.625 L 474.925781 463.714844 L 482.484375 463.714844 L 482.484375 457.328125 L 496.582031 457.328125 L 496.582031 464.878906 L 502.976562 464.878906 L 502.976562 484.046875 L 506.769531 484.046875 L 506.769531 283.542969 C 506.769531 283.328125 506.691406 283.144531 506.539062 282.996094 C 506.464844 282.917969 506.382812 282.863281 506.289062 282.824219 C 506.199219 282.785156 506.097656 282.765625 505.992188 282.765625 L 441.320312 282.765625 C 441.25 285.3125 440.972656 287.808594 440.496094 290.234375 L 469.4375 298.246094 C 470.402344 298.515625 470.972656 299.515625 470.703125 300.480469 C 470.480469 301.285156 469.75 301.8125 468.953125 301.8125 C 468.792969 301.8125 468.628906 301.789062 468.46875 301.746094 L 439.644531 293.765625 C 438.730469 297.003906 437.472656 300.101562 435.894531 303.003906 L 449.273438 309.699219 C 450.167969 310.148438 450.53125 311.238281 450.082031 312.136719 C 449.765625 312.769531 449.125 313.136719 448.457031 313.136719 C 448.183594 313.136719 447.90625 313.078125 447.644531 312.945312 L 434.019531 306.125 C 431.90625 309.359375 429.398438 312.3125 426.554688 314.902344 L 442.777344 331.394531 C 443.480469 332.109375 443.472656 333.257812 442.757812 333.960938 C 442.402344 334.308594 441.941406 334.484375 441.480469 334.484375 C 441.011719 334.484375 440.542969 334.300781 440.1875 333.941406 L 423.757812 317.238281 C 420.632812 319.652344 417.1875 321.675781 413.492188 323.214844 L 418.335938 336.398438 C 418.679688 337.339844 418.199219 338.382812 417.257812 338.726562 C 417.050781 338.804688 416.839844 338.839844 416.628906 338.839844 C 415.890625 338.839844 415.195312 338.382812 414.925781 337.648438 L 410.085938 324.472656 C 406.238281 325.722656 402.171875 326.46875 397.953125 326.636719 L 397.953125 347.480469 C 397.953125 348.480469 397.140625 349.292969 396.136719 349.292969 C 395.132812 349.292969 394.320312 348.480469 394.320312 347.480469 L 394.320312 326.636719 C 390.226562 326.472656 386.273438 325.769531 382.527344 324.585938 L 377.730469 337.648438 C 377.460938 338.382812 376.765625 338.839844 376.023438 338.839844 C 375.816406 338.839844 375.605469 338.804688 375.398438 338.726562 C 374.457031 338.382812 373.972656 337.339844 374.316406 336.398438 L 379.113281 323.347656 C 375.378906 321.824219 371.890625 319.820312 368.734375 317.40625 L 352.464844 333.941406 C 352.109375 334.300781 351.640625 334.484375 351.171875 334.484375 C 350.710938 334.484375 350.25 334.308594 349.898438 333.960938 C 349.179688 333.261719 349.171875 332.109375 349.875 331.394531 L 365.925781 315.082031 C 363.039062 312.484375 360.492188 309.523438 358.347656 306.269531 L 345.007812 312.945312 C 344.746094 313.078125 344.46875 313.136719 344.195312 313.136719 C 343.53125 313.136719 342.890625 312.769531 342.570312 312.136719 C 342.121094 311.238281 342.484375 310.148438 343.382812 309.699219 L 356.464844 303.152344 C 354.863281 300.234375 353.585938 297.121094 352.65625 293.863281 L 324.1875 301.746094 C 324.023438 301.789062 323.863281 301.8125 323.703125 301.8125 C 322.90625 301.8125 322.175781 301.285156 321.953125 300.480469 C 321.683594 299.515625 322.25 298.515625 323.21875 298.246094 L 351.796875 290.335938 C 351.308594 287.878906 351.027344 285.347656 350.957031 282.765625 L 288.203125 282.765625 C 288.023438 282.765625 287.871094 282.832031 287.734375 282.941406 C 287.710938 282.960938 287.679688 282.96875 287.65625 282.996094 C 287.503906 283.144531 287.429688 283.328125 287.429688 283.542969 Z M 460.265625 367.617188 C 460.402344 368.296875 461.394531 368.246094 461.460938 367.554688 L 462.570312 355.511719 L 458.324219 357.976562 Z M 316.40625 440.398438 C 317.785156 441.105469 319.53125 441.648438 321.40625 441.355469 C 325.707031 440.675781 346.554688 430.84375 348.207031 428.808594 C 349.011719 427.820312 353.515625 421.734375 359.289062 415.496094 Z M 361.539062 641.601562 C 361.15625 626.371094 349.984375 613.679688 346.664062 610.242188 L 342.605469 625.882812 C 342.324219 626.964844 341.382812 627.6875 340.285156 627.6875 C 340.226562 627.6875 340.167969 627.6875 340.109375 627.683594 C 338.933594 627.601562 338.019531 626.726562 337.882812 625.558594 C 337.25 620.136719 328.414062 607.425781 318.46875 604.957031 C 310.789062 603.046875 306.753906 600.207031 306.136719 596.28125 C 305.179688 590.164062 313.507812 584.816406 314.460938 584.226562 C 314.523438 584.1875 314.582031 584.152344 314.648438 584.125 C 314.910156 584 340.09375 572.382812 387.003906 564.519531 L 386.6875 560.40625 C 384.40625 560.453125 382.574219 559.9375 381.691406 558.613281 C 379.832031 555.828125 379.925781 552.320312 382.726562 551.070312 C 382.355469 545.121094 377.3125 527.902344 375.292969 521.003906 L 374.425781 518.023438 C 373.535156 514.941406 373.554688 512.050781 373.992188 509.53125 C 366.589844 509.257812 360.117188 507.835938 356.480469 504.421875 C 356.480469 504.421875 352.734375 503.105469 359.019531 488.1875 C 359.089844 488.019531 359.160156 487.847656 359.230469 487.679688 L 344.125 487.679688 L 344.125 474.320312 L 334.242188 474.320312 L 334.242188 469.671875 L 327.992188 469.671875 L 327.992188 474.320312 L 319.851562 474.320312 L 319.851562 495.230469 L 306.914062 495.230469 L 306.914062 485.355469 L 287.429688 485.355469 L 287.429688 641.601562 Z M 356.328125 616.417969 L 356.328125 610.574219 L 350.441406 608.941406 C 351.984375 610.625 354.136719 613.179688 356.328125 616.417969 Z M 369.121094 616.527344 L 365.027344 614.191406 C 363.402344 613.265625 361.707031 612.472656 359.964844 611.796875 L 359.964844 622.359375 L 359.882812 622.359375 C 362.734375 627.828125 365.015625 634.414062 365.175781 641.601562 L 369.121094 641.601562 Z M 381.910156 623.765625 C 381.757812 623.699219 381.59375 623.652344 381.449219 623.566406 L 372.753906 618.601562 L 372.753906 641.601562 L 381.910156 641.601562 Z M 394.699219 610.542969 L 394.539062 610.621094 C 393.371094 611.175781 392.476562 612.152344 392.023438 613.363281 L 389.25 620.75 C 388.6875 622.246094 387.503906 623.414062 386 623.960938 C 385.851562 624.011719 385.695312 624.03125 385.542969 624.070312 L 385.542969 641.601562 L 394.699219 641.601562 Z M 407.488281 604.433594 L 398.332031 608.808594 L 398.332031 641.601562 L 407.488281 641.601562 Z M 420.28125 617.648438 C 419.414062 617.214844 418.671875 616.542969 418.152344 615.667969 L 411.246094 603.984375 C 411.214844 603.929688 411.164062 603.894531 411.121094 603.84375 L 411.121094 641.601562 L 420.28125 641.601562 Z M 433.070312 604.796875 L 427.089844 615.546875 C 426.390625 616.800781 425.25 617.671875 423.914062 618.019531 L 423.914062 641.601562 L 433.066406 641.601562 L 433.066406 604.796875 Z M 445.859375 598.761719 L 438.882812 598.265625 C 438.097656 598.207031 437.324219 598.441406 436.703125 598.894531 L 436.703125 641.601562 L 445.859375 641.601562 Z M 458.648438 597.589844 L 449.492188 598.734375 L 449.492188 641.601562 L 458.648438 641.601562 Z M 471.4375 596.757812 C 469.082031 596.546875 466.710938 596.582031 464.363281 596.875 L 462.28125 597.136719 L 462.28125 641.601562 L 471.4375 641.601562 Z M 473.921875 593.390625 C 483.085938 594.753906 498.910156 597.136719 506.777344 598.496094 L 506.769531 530.875 C 506.710938 530.855469 506.648438 530.84375 506.585938 530.820312 C 503.644531 530.160156 480.417969 537.71875 459.535156 545.476562 C 458.699219 546.441406 456.46875 548.625 451.550781 551.351562 C 451.988281 551.824219 452.402344 552.433594 452.710938 553.285156 C 454.746094 558.875 450.375 562.414062 448.511719 563.921875 C 448.222656 564.15625 447.972656 564.347656 447.808594 564.515625 C 446.832031 565.515625 442.507812 570.445312 440.925781 572.257812 C 440.742188 572.46875 440.523438 572.644531 440.28125 572.78125 C 433.835938 576.367188 431.167969 577.050781 429.878906 577.050781 C 429.386719 577.050781 429.09375 576.953125 428.867188 576.875 C 427.953125 576.5625 427.28125 575.816406 427.074219 574.878906 C 426.867188 573.941406 426.519531 572.386719 432.503906 566.5625 C 433.1875 564.617188 434.464844 560.777344 435.058594 558.226562 C 426.742188 560.921875 415.761719 563.636719 401.304688 565.957031 C 401.855469 575.386719 402.019531 583.347656 400.476562 585.402344 C 397.730469 589.0625 390.734375 593.335938 383.070312 596.035156 C 381.195312 596.695312 379.59375 597.027344 378.269531 597.027344 C 376.851562 597.027344 375.753906 596.648438 374.984375 595.890625 C 373.875 594.800781 373.613281 592.953125 374.289062 590.949219 C 375.316406 587.878906 385.871094 578.6875 387.949219 576.894531 L 387.28125 568.152344 C 342.566406 575.679688 318.003906 586.585938 316.285156 587.367188 C 314.324219 588.609375 309.234375 592.589844 309.726562 595.71875 C 310.078125 597.949219 313.496094 599.976562 319.34375 601.429688 C 328.40625 603.683594 336.964844 613.265625 340.191406 620.714844 L 343.246094 608.949219 C 343.617188 607.515625 344.527344 606.324219 345.808594 605.585938 C 347.089844 604.847656 348.578125 604.660156 350.007812 605.050781 L 357.355469 607.09375 C 360.660156 608.007812 363.847656 609.335938 366.828125 611.039062 L 383.25 620.414062 C 383.71875 620.683594 384.261719 620.730469 384.765625 620.542969 C 385.273438 620.363281 385.65625 619.980469 385.847656 619.476562 L 388.621094 612.085938 C 389.40625 609.992188 390.953125 608.308594 392.96875 607.34375 L 407.949219 600.1875 C 410.292969 599.070312 413.054688 599.90625 414.371094 602.140625 L 421.28125 613.820312 C 421.683594 614.5 422.300781 614.570312 422.605469 614.566406 C 422.871094 614.5625 423.527344 614.476562 423.910156 613.785156 L 432.582031 598.191406 C 432.726562 597.929688 432.894531 597.6875 433.066406 597.453125 L 433.066406 597.382812 L 433.113281 597.382812 C 434.515625 595.53125 436.789062 594.476562 439.140625 594.644531 L 447.914062 595.269531 L 463.910156 593.273438 C 467.238281 592.859375 470.609375 592.894531 473.921875 593.390625 Z M 484.226562 598.605469 C 480.9375 598.109375 477.789062 597.636719 475.070312 597.230469 L 475.070312 641.601562 L 484.226562 641.601562 Z M 495.273438 600.304688 C 492.871094 599.929688 490.363281 599.542969 487.859375 599.160156 L 487.859375 641.601562 L 495.273438 641.601562 Z M 506.78125 641.601562 L 506.777344 602.183594 C 504.707031 601.816406 501.984375 601.371094 498.90625 600.878906 L 498.90625 641.601562 Z M 395.828125 308.023438 C 397.34375 308.023438 398.644531 307.484375 399.730469 306.410156 C 400.808594 305.332031 401.347656 304.035156 401.347656 302.519531 C 401.347656 301.003906 400.808594 299.707031 399.730469 298.632812 C 398.644531 297.550781 397.34375 297.007812 395.828125 297.007812 C 394.308594 297.007812 393.011719 297.550781 391.9375 298.632812 C 390.859375 299.710938 390.320312 301.003906 390.320312 302.519531 C 390.320312 304.035156 390.859375 305.332031 391.9375 306.410156 C 393.011719 307.484375 394.308594 308.023438 395.828125 308.023438 Z M 520.089844 283.542969 L 520.089844 674.34375 C 520.089844 678.105469 518.621094 681.640625 515.960938 684.300781 C 513.296875 686.960938 509.757812 688.425781 505.992188 688.425781 L 288.203125 688.425781 C 284.4375 688.425781 280.898438 686.960938 278.234375 684.300781 C 275.570312 681.640625 274.105469 678.105469 274.105469 674.34375 L 274.105469 283.542969 C 274.105469 279.78125 275.574219 276.242188 278.234375 273.582031 C 280.898438 270.921875 284.4375 269.457031 288.203125 269.457031 L 505.992188 269.457031 C 509.757812 269.457031 513.296875 270.921875 515.960938 273.582031 C 518.621094 276.242188 520.089844 279.78125 520.089844 283.542969 Z M 516.457031 283.542969 C 516.457031 280.65625 515.285156 278.042969 513.390625 276.148438 C 511.496094 274.257812 508.882812 273.085938 505.992188 273.085938 L 288.203125 273.085938 C 285.3125 273.085938 282.699219 274.257812 280.804688 276.148438 C 278.910156 278.042969 277.738281 280.65625 277.738281 283.542969 L 277.738281 674.34375 C 277.738281 677.230469 278.910156 679.84375 280.804688 681.734375 C 282.699219 683.628906 285.3125 684.796875 288.203125 684.796875 L 505.992188 684.796875 C 508.882812 684.796875 511.496094 683.628906 513.390625 681.734375 C 515.285156 679.84375 516.457031 677.230469 516.457031 674.34375 Z M 475.59375 671.625 L 467.582031 671.625 L 467.582031 658.613281 C 467.582031 658.0625 467.386719 657.59375 466.996094 657.207031 C 466.609375 656.808594 466.136719 656.609375 465.585938 656.609375 C 465.027344 656.609375 464.550781 656.808594 464.164062 657.207031 C 463.773438 657.59375 463.578125 658.0625 463.578125 658.613281 L 463.578125 673.621094 C 463.578125 674.179688 463.773438 674.65625 464.164062 675.042969 C 464.550781 675.433594 465.027344 675.628906 465.585938 675.628906 L 475.59375 675.628906 C 476.144531 675.628906 476.621094 675.433594 477.019531 675.042969 C 477.410156 674.65625 477.605469 674.179688 477.605469 673.621094 C 477.605469 673.070312 477.410156 672.601562 477.019531 672.210938 C 476.621094 671.820312 476.144531 671.625 475.59375 671.625 Z M 475.59375 671.625 " fill-opacity="1" fill-rule="nonzero"/></g></svg>