<svg xmlns="http://www.w3.org/2000/svg" xmlns:xlink="http://www.w3.org/1999/xlink" width="1080" zoomAndPan="magnify" viewBox="0 0 810 809.999993" height="1080" preserveAspectRatio="xMidYMid meet" version="1.0"><defs><clipPath id="65bd9ec93d"><path d="M 283.839844 254.660156 L 526.089844 254.660156 L 526.089844 667.910156 L 283.839844 667.910156 Z M 283.839844 254.660156 " clip-rule="nonzero"/></clipPath></defs><g clip-path="url(#65bd9ec93d)"><path fill="#2e2e2e" d="M 522.03125 258.824219 C 519.410156 256.203125 515.925781 254.761719 512.222656 254.761719 L 297.703125 254.761719 C 294 254.761719 290.515625 256.203125 287.898438 258.824219 C 285.277344 261.445312 283.835938 264.925781 283.835938 268.632812 L 283.835938 653.9375 C 283.835938 657.644531 285.277344 661.128906 287.898438 663.746094 C 290.515625 666.367188 294 667.808594 297.703125 667.808594 L 512.222656 667.808594 C 515.925781 667.808594 519.410156 666.367188 522.03125 663.746094 C 524.648438 661.128906 526.09375 657.644531 526.09375 653.9375 L 526.09375 268.632812 C 526.09375 264.925781 524.648438 261.445312 522.03125 258.824219 Z M 522.53125 461.285156 L 522.53125 653.9375 C 522.53125 656.785156 521.375 659.363281 519.511719 661.226562 C 517.644531 663.09375 515.070312 664.246094 512.222656 664.246094 L 297.703125 664.246094 C 294.859375 664.246094 292.28125 663.09375 290.417969 661.226562 C 288.550781 659.363281 287.398438 656.785156 287.398438 653.9375 L 287.398438 268.632812 C 287.398438 265.785156 288.550781 263.210938 290.417969 261.34375 C 292.28125 259.476562 294.859375 258.324219 297.703125 258.324219 L 512.222656 258.324219 C 515.070312 258.324219 517.644531 259.476562 519.511719 261.34375 C 521.375 263.210938 522.53125 265.785156 522.53125 268.632812 Z M 351.238281 637.328125 C 351.625 637.714844 351.816406 638.175781 351.816406 638.71875 C 351.816406 639.261719 351.625 639.726562 351.238281 640.109375 C 350.847656 640.496094 350.378906 640.6875 349.835938 640.6875 L 345.640625 640.6875 L 345.640625 653.515625 C 345.640625 654.066406 345.449219 654.535156 345.0625 654.917969 C 344.679688 655.300781 344.21875 655.496094 343.675781 655.496094 C 343.132812 655.496094 342.664062 655.300781 342.273438 654.917969 C 341.886719 654.535156 341.695312 654.066406 341.695312 653.515625 L 341.695312 640.6875 L 337.511719 640.6875 C 336.960938 640.6875 336.492188 640.496094 336.109375 640.109375 C 335.722656 639.726562 335.53125 639.261719 335.53125 638.71875 C 335.53125 638.175781 335.722656 637.714844 336.109375 637.328125 C 336.492188 636.9375 336.960938 636.742188 337.511719 636.742188 L 349.835938 636.742188 C 350.378906 636.742188 350.847656 636.9375 351.238281 637.328125 Z M 372.496094 637.328125 C 372.878906 637.714844 373.074219 638.175781 373.074219 638.71875 L 373.074219 653.515625 C 373.074219 654.066406 372.878906 654.535156 372.496094 654.917969 C 372.105469 655.300781 371.636719 655.492188 371.09375 655.492188 C 370.550781 655.492188 370.085938 655.300781 369.703125 654.917969 C 369.320312 654.535156 369.125 654.066406 369.125 653.515625 L 369.125 648.089844 L 360.734375 648.089844 L 360.734375 653.515625 C 360.734375 654.066406 360.542969 654.535156 360.15625 654.917969 C 359.773438 655.300781 359.308594 655.492188 358.769531 655.492188 C 358.214844 655.492188 357.75 655.300781 357.363281 654.917969 C 356.980469 654.535156 356.789062 654.066406 356.789062 653.515625 L 356.789062 638.71875 C 356.789062 638.175781 356.980469 637.714844 357.363281 637.328125 C 357.75 636.9375 358.214844 636.742188 358.769531 636.742188 C 359.3125 636.742188 359.773438 636.9375 360.15625 637.328125 C 360.542969 637.714844 360.734375 638.175781 360.734375 638.71875 L 360.734375 644.144531 L 369.125 644.144531 L 369.125 638.71875 C 369.125 638.175781 369.320312 637.714844 369.703125 637.328125 C 370.085938 636.9375 370.550781 636.742188 371.09375 636.742188 C 371.636719 636.742188 372.105469 636.9375 372.496094 637.328125 Z M 383.46875 640.6875 L 383.46875 644.144531 L 391.359375 644.144531 C 391.902344 644.144531 392.371094 644.335938 392.765625 644.71875 C 393.148438 645.105469 393.339844 645.570312 393.339844 646.125 C 393.339844 646.667969 393.148438 647.128906 392.765625 647.515625 C 392.371094 647.898438 391.902344 648.089844 391.359375 648.089844 L 383.46875 648.089844 L 383.46875 651.546875 L 393.828125 651.546875 C 394.371094 651.546875 394.839844 651.738281 395.230469 652.125 C 395.617188 652.507812 395.808594 652.972656 395.808594 653.515625 C 395.808594 654.066406 395.617188 654.535156 395.230469 654.917969 C 394.839844 655.300781 394.371094 655.496094 393.828125 655.496094 L 381.503906 655.496094 C 380.953125 655.496094 380.484375 655.300781 380.101562 654.917969 C 379.714844 654.535156 379.523438 654.066406 379.523438 653.515625 L 379.523438 638.71875 C 379.523438 638.175781 379.714844 637.714844 380.101562 637.328125 C 380.484375 636.9375 380.953125 636.742188 381.503906 636.742188 L 393.828125 636.742188 C 394.371094 636.742188 394.839844 636.9375 395.230469 637.328125 C 395.617188 637.714844 395.808594 638.175781 395.808594 638.71875 C 395.808594 639.261719 395.617188 639.726562 395.230469 640.109375 C 394.839844 640.496094 394.371094 640.6875 393.828125 640.6875 Z M 418.089844 641.199219 C 417.75 641.535156 417.578125 641.9375 417.578125 642.414062 C 417.578125 642.890625 417.75 643.300781 418.089844 643.644531 C 418.425781 643.976562 418.828125 644.144531 419.304688 644.144531 L 424.242188 644.144531 C 425.800781 644.144531 427.140625 644.699219 428.25 645.808594 C 429.359375 646.921875 429.917969 648.257812 429.917969 649.820312 C 429.917969 651.382812 429.359375 652.71875 428.25 653.828125 C 427.140625 654.9375 425.800781 655.492188 424.242188 655.492188 L 415.609375 655.492188 C 415.058594 655.492188 414.59375 655.300781 414.207031 654.917969 C 413.824219 654.535156 413.632812 654.066406 413.632812 653.515625 C 413.632812 652.972656 413.824219 652.507812 414.207031 652.125 C 414.59375 651.738281 415.058594 651.546875 415.609375 651.546875 L 424.242188 651.546875 C 424.71875 651.546875 425.121094 651.382812 425.457031 651.046875 C 425.800781 650.703125 425.96875 650.296875 425.96875 649.820312 C 425.96875 649.34375 425.800781 648.9375 425.457031 648.605469 C 425.121094 648.261719 424.71875 648.089844 424.242188 648.089844 L 419.304688 648.089844 C 417.742188 648.089844 416.40625 647.535156 415.296875 646.425781 C 414.1875 645.320312 413.632812 643.984375 413.632812 642.414062 C 413.632812 640.851562 414.1875 639.515625 415.296875 638.40625 C 416.40625 637.296875 417.742188 636.742188 419.304688 636.742188 L 427.9375 636.742188 C 428.480469 636.742188 428.945312 636.9375 429.339844 637.328125 C 429.722656 637.714844 429.917969 638.175781 429.917969 638.71875 C 429.917969 639.261719 429.722656 639.726562 429.339844 640.109375 C 428.945312 640.496094 428.480469 640.6875 427.9375 640.6875 L 419.304688 640.6875 C 418.828125 640.6875 418.425781 640.859375 418.089844 641.199219 Z M 451.085938 637.328125 C 451.46875 637.714844 451.660156 638.175781 451.660156 638.71875 L 451.660156 647.351562 C 451.660156 649.597656 450.863281 651.515625 449.269531 653.101562 C 447.683594 654.695312 445.765625 655.496094 443.519531 655.496094 C 441.273438 655.496094 439.355469 654.695312 437.769531 653.101562 C 436.175781 651.515625 435.378906 649.597656 435.378906 647.351562 L 435.378906 638.71875 C 435.378906 638.175781 435.570312 637.714844 435.953125 637.328125 C 436.335938 636.9375 436.804688 636.742188 437.355469 636.742188 C 437.898438 636.742188 438.363281 636.9375 438.746094 637.328125 C 439.128906 637.714844 439.324219 638.175781 439.324219 638.71875 L 439.324219 647.351562 C 439.324219 648.511719 439.730469 649.503906 440.550781 650.320312 C 441.367188 651.140625 442.359375 651.546875 443.519531 651.546875 C 444.671875 651.546875 445.65625 651.140625 446.476562 650.320312 C 447.300781 649.503906 447.714844 648.511719 447.714844 647.351562 L 447.714844 638.71875 C 447.714844 638.175781 447.90625 637.714844 448.292969 637.328125 C 448.675781 636.9375 449.136719 636.742188 449.679688 636.742188 C 450.222656 636.742188 450.691406 636.9375 451.085938 637.328125 Z M 473.820312 637.328125 C 474.203125 637.714844 474.394531 638.175781 474.394531 638.71875 L 474.394531 653.515625 C 474.394531 653.933594 474.273438 654.3125 474.03125 654.652344 C 473.796875 654.996094 473.484375 655.238281 473.09375 655.382812 C 472.875 655.457031 472.648438 655.496094 472.417969 655.496094 C 471.796875 655.496094 471.292969 655.253906 470.902344 654.78125 L 462.058594 644.167969 L 462.058594 653.515625 C 462.058594 654.066406 461.863281 654.535156 461.480469 654.917969 C 461.097656 655.300781 460.632812 655.496094 460.089844 655.496094 C 459.539062 655.496094 459.070312 655.300781 458.6875 654.917969 C 458.304688 654.535156 458.113281 654.066406 458.113281 653.515625 L 458.113281 638.71875 C 458.113281 638.300781 458.234375 637.921875 458.476562 637.578125 C 458.707031 637.246094 459.019531 637.007812 459.414062 636.867188 C 459.804688 636.722656 460.203125 636.707031 460.605469 636.816406 C 461.003906 636.925781 461.339844 637.136719 461.605469 637.457031 L 470.449219 648.066406 L 470.449219 638.71875 C 470.449219 638.175781 470.640625 637.714844 471.023438 637.328125 C 471.410156 636.9375 471.875 636.742188 472.414062 636.742188 C 472.957031 636.742188 473.425781 636.9375 473.820312 637.328125 Z M 381.703125 293.769531 L 386.8125 287.628906 L 381.703125 281.492188 C 381.351562 281.074219 381.203125 280.59375 381.25 280.050781 C 381.300781 279.507812 381.535156 279.0625 381.953125 278.710938 C 382.371094 278.359375 382.851562 278.210938 383.394531 278.257812 C 383.9375 278.308594 384.382812 278.542969 384.734375 278.960938 L 389.382812 284.546875 L 394.027344 278.960938 C 394.378906 278.542969 394.828125 278.308594 395.371094 278.257812 C 395.914062 278.210938 396.390625 278.359375 396.808594 278.710938 C 397.226562 279.0625 397.460938 279.507812 397.511719 280.050781 C 397.5625 280.59375 397.410156 281.074219 397.058594 281.492188 L 391.949219 287.628906 L 397.058594 293.769531 C 397.410156 294.1875 397.5625 294.667969 397.511719 295.210938 C 397.460938 295.753906 397.226562 296.195312 396.808594 296.535156 C 396.441406 296.847656 396.019531 297 395.542969 297 C 394.933594 297 394.429688 296.761719 394.027344 296.285156 L 389.382812 290.710938 L 384.734375 296.285156 C 384.332031 296.761719 383.828125 297 383.21875 297 C 382.734375 297 382.3125 296.847656 381.953125 296.535156 C 381.535156 296.195312 381.304688 295.753906 381.253906 295.210938 C 381.203125 294.667969 381.351562 294.1875 381.703125 293.769531 Z M 403.558594 296.425781 C 403.175781 296.039062 402.984375 295.574219 402.984375 295.019531 L 402.984375 280.226562 C 402.984375 279.683594 403.175781 279.222656 403.558594 278.835938 C 403.945312 278.445312 404.414062 278.246094 404.964844 278.246094 C 405.507812 278.246094 405.96875 278.445312 406.355469 278.835938 C 406.738281 279.222656 406.929688 279.683594 406.929688 280.226562 L 406.929688 295.019531 C 406.929688 295.574219 406.738281 296.039062 406.355469 296.425781 C 405.96875 296.808594 405.503906 297 404.964844 297 C 404.414062 297 403.945312 296.808594 403.558594 296.425781 Z M 412.867188 293.769531 L 417.980469 287.628906 L 412.867188 281.492188 C 412.515625 281.074219 412.367188 280.59375 412.417969 280.050781 C 412.46875 279.507812 412.699219 279.0625 413.117188 278.710938 C 413.535156 278.359375 414.015625 278.210938 414.558594 278.257812 C 415.101562 278.308594 415.546875 278.542969 415.898438 278.960938 L 420.546875 284.546875 L 425.191406 278.960938 C 425.542969 278.542969 425.988281 278.308594 426.53125 278.257812 C 427.074219 278.210938 427.554688 278.359375 427.972656 278.710938 C 428.390625 279.0625 428.625 279.507812 428.675781 280.050781 C 428.726562 280.59375 428.574219 281.074219 428.226562 281.492188 L 423.113281 287.628906 L 428.226562 293.769531 C 428.574219 294.1875 428.726562 294.667969 428.675781 295.210938 C 428.625 295.753906 428.390625 296.195312 427.972656 296.535156 C 427.605469 296.847656 427.1875 297 426.707031 297 C 426.101562 297 425.59375 296.761719 425.195312 296.285156 L 420.546875 290.710938 L 415.898438 296.285156 C 415.5 296.761719 414.992188 297 414.382812 297 C 413.898438 297 413.476562 296.847656 413.117188 296.535156 C 412.703125 296.195312 412.46875 295.753906 412.417969 295.210938 C 412.367188 294.667969 412.515625 294.1875 412.867188 293.769531 Z M 516.558594 268.917969 C 516.558594 267.765625 516.109375 266.679688 515.296875 265.863281 C 515.183594 265.601562 515.015625 265.363281 514.777344 265.175781 C 514.410156 264.882812 513.964844 264.765625 513.527344 264.796875 C 513.105469 264.664062 512.667969 264.574219 512.214844 264.574219 L 297.699219 264.574219 C 296.539062 264.574219 295.445312 265.027344 294.625 265.847656 C 293.804688 266.667969 293.355469 267.757812 293.355469 268.917969 L 293.355469 582 C 293.324219 582.183594 293.328125 582.363281 293.355469 582.546875 L 293.355469 622.519531 C 293.386719 624.183594 294.738281 625.523438 296.410156 625.523438 L 513.414062 625.523438 C 515.105469 625.523438 516.574219 624.054688 516.574219 622.363281 L 516.558594 461.570312 Z M 296.933594 587.269531 C 305.925781 599.292969 304.285156 610.222656 304.257812 610.40625 C 304.246094 610.472656 304.246094 610.539062 304.242188 610.605469 L 296.933594 621.304688 Z M 322.664062 621.882812 C 322.613281 621.898438 322.566406 621.925781 322.519531 621.945312 L 307.617188 621.945312 L 323.632812 615.714844 C 324.550781 615.355469 325.007812 614.320312 324.652344 613.398438 C 324.292969 612.476562 323.253906 612.023438 322.335938 612.378906 L 301.949219 620.308594 L 306.386719 613.804688 C 306.480469 613.757812 306.570312 613.707031 306.65625 613.644531 C 306.785156 613.550781 319.1875 604.5625 335.289062 609.667969 C 332.675781 613.675781 327.507812 620.363281 322.664062 621.882812 Z M 389.339844 621.945312 L 383.789062 614.371094 C 383.203125 613.574219 382.082031 613.40625 381.289062 613.988281 C 380.492188 614.570312 380.320312 615.691406 380.902344 616.488281 L 384.902344 621.945312 L 378.09375 621.945312 C 378.050781 621.851562 378 621.761719 377.9375 621.675781 C 374.90625 617.542969 374.542969 608.359375 374.71875 603.207031 C 387.832031 607.671875 393.597656 618.199219 395.285156 621.945312 Z M 404.882812 603.664062 C 404.882812 603.664062 404.878906 603.664062 404.878906 603.664062 C 403.667969 603.65625 401.3125 600.007812 401.3125 593.351562 C 401.3125 592.535156 400.757812 591.820312 399.964844 591.617188 C 399.816406 591.582031 399.667969 591.5625 399.523438 591.5625 C 398.878906 591.5625 398.269531 591.914062 397.949219 592.5 C 395.132812 597.714844 391.957031 599.503906 390.960938 599.042969 C 390.007812 598.601562 389.3125 595.136719 391.316406 589.808594 C 391.582031 589.097656 391.375 588.296875 390.792969 587.808594 C 390.207031 587.320312 389.382812 587.25 388.730469 587.636719 C 383.820312 590.539062 380.285156 590.453125 379.683594 589.589844 C 379.058594 588.6875 380.378906 585.089844 385.132812 581.410156 C 385.707031 580.96875 385.957031 580.21875 385.761719 579.519531 C 385.570312 578.820312 384.972656 578.304688 384.25 578.21875 C 379.339844 577.632812 376.632812 575.757812 376.636719 574.683594 C 376.636719 574.644531 376.636719 574.597656 376.632812 574.542969 C 376.640625 573.472656 379.375 571.632812 384.304688 571.117188 C 385.023438 571.039062 385.628906 570.535156 385.832031 569.835938 C 386.035156 569.136719 385.796875 568.386719 385.230469 567.933594 C 380.527344 564.195312 379.253906 560.574219 379.894531 559.683594 C 380.503906 558.832031 384.039062 558.792969 388.914062 561.757812 C 389.558594 562.152344 390.386719 562.097656 390.976562 561.613281 C 391.5625 561.132812 391.785156 560.335938 391.527344 559.621094 C 389.597656 554.265625 390.335938 550.8125 391.292969 550.382812 C 392.230469 549.960938 395.289062 551.6875 397.992188 556.640625 C 398.378906 557.351562 399.191406 557.710938 399.980469 557.523438 C 400.769531 557.335938 401.332031 556.640625 401.351562 555.832031 C 401.53125 549.429688 403.882812 545.953125 405.046875 545.953125 C 405.046875 545.953125 405.050781 545.953125 405.050781 545.953125 C 406.261719 545.960938 408.617188 549.605469 408.613281 556.261719 C 408.613281 557.082031 409.171875 557.796875 409.964844 557.996094 C 410.761719 558.199219 411.589844 557.835938 411.976562 557.113281 C 414.792969 551.90625 417.984375 550.117188 418.96875 550.570312 C 419.921875 551.011719 420.613281 554.476562 418.613281 559.804688 C 418.34375 560.515625 418.554688 561.316406 419.136719 561.804688 C 419.71875 562.292969 420.542969 562.359375 421.195312 561.976562 C 426.109375 559.078125 429.644531 559.164062 430.242188 560.027344 C 430.871094 560.925781 429.546875 564.527344 424.796875 568.203125 C 424.222656 568.648438 423.972656 569.398438 424.167969 570.097656 C 424.359375 570.796875 424.957031 571.308594 425.679688 571.398438 C 430.589844 571.984375 433.296875 573.859375 433.289062 574.929688 C 433.289062 574.933594 433.289062 574.933594 433.289062 574.933594 C 433.289062 574.847656 433.296875 574.757812 433.3125 574.671875 C 433.289062 574.800781 433.285156 574.9375 433.296875 575.070312 C 433.289062 576.144531 430.554688 577.980469 425.625 578.5 C 424.902344 578.574219 424.300781 579.082031 424.09375 579.777344 C 423.890625 580.476562 424.132812 581.226562 424.699219 581.679688 C 429.402344 585.421875 430.671875 589.039062 430.035156 589.929688 C 429.421875 590.785156 425.886719 590.820312 421.015625 587.855469 C 420.367188 587.464844 419.542969 587.519531 418.953125 588 C 418.367188 588.480469 418.144531 589.277344 418.402344 589.992188 C 420.332031 595.347656 419.589844 598.800781 418.632812 599.230469 C 417.691406 599.652344 414.636719 597.925781 411.933594 592.972656 C 411.546875 592.265625 410.734375 591.90625 409.945312 592.089844 C 409.160156 592.28125 408.597656 592.972656 408.574219 593.78125 C 408.398438 600.183594 406.046875 603.664062 404.882812 603.664062 Z M 432.867188 621.675781 C 432.804688 621.761719 432.753906 621.851562 432.707031 621.945312 L 426.039062 621.945312 L 429.839844 615.476562 C 430.339844 614.625 430.058594 613.527344 429.207031 613.027344 C 428.355469 612.527344 427.257812 612.8125 426.757812 613.664062 L 421.886719 621.945312 L 415.515625 621.945312 C 417.1875 618.203125 422.917969 607.679688 436.085938 603.207031 C 436.261719 608.355469 435.902344 617.535156 432.867188 621.675781 Z M 436.863281 621.945312 C 440.617188 614.453125 439.582031 601.285156 439.53125 600.679688 C 439.484375 600.148438 439.207031 599.664062 438.773438 599.363281 C 438.335938 599.054688 437.785156 598.960938 437.277344 599.101562 C 418.613281 604.191406 412.402344 619.839844 411.648438 621.945312 L 407.058594 621.945312 L 407.316406 606.515625 C 409.378906 605.207031 410.820312 602.257812 411.570312 598.804688 C 414.414062 602.175781 417.574219 603.625 420.097656 602.496094 C 422.789062 601.292969 423.773438 597.601562 422.882812 592.808594 C 427.410156 594.644531 431.226562 594.414062 432.945312 592.011719 C 434.789062 589.441406 433.445312 585.335938 429.695312 581.398438 C 434.132812 580.226562 436.855469 577.914062 436.875 575.082031 C 436.875 575.0625 436.871094 575.007812 436.867188 574.960938 C 436.867188 574.957031 436.867188 574.957031 436.867188 574.953125 C 436.886719 572.132812 434.203125 569.785156 429.785156 568.554688 C 433.589844 564.667969 434.988281 560.582031 433.183594 557.984375 C 431.496094 555.558594 427.679688 555.277344 423.128906 557.050781 C 424.085938 552.273438 423.148438 548.566406 420.476562 547.324219 C 417.9375 546.148438 414.652344 547.667969 411.726562 551.117188 C 410.808594 546.285156 408.5625 542.394531 405.074219 542.371094 C 405.0625 542.371094 405.054688 542.371094 405.042969 542.371094 C 401.65625 542.371094 399.371094 546.132812 398.359375 550.8125 C 395.515625 547.441406 392.351562 545.992188 389.832031 547.117188 C 387.140625 548.324219 386.15625 552.015625 387.046875 556.804688 C 382.519531 554.976562 378.703125 555.203125 376.984375 557.601562 C 375.140625 560.175781 376.484375 564.28125 380.230469 568.21875 C 375.792969 569.386719 373.074219 571.691406 373.058594 574.480469 C 373.054688 574.558594 373.058594 574.632812 373.058594 574.648438 C 373.058594 574.652344 373.058594 574.660156 373.058594 574.664062 C 373.039062 577.484375 375.726562 579.828125 380.144531 581.0625 C 376.339844 584.945312 374.941406 589.035156 376.746094 591.632812 C 378.433594 594.058594 382.25 594.335938 386.800781 592.566406 C 385.84375 597.34375 386.777344 601.050781 389.453125 602.292969 C 391.992188 603.46875 395.277344 601.949219 398.203125 598.5 C 399.019531 602.785156 400.878906 606.324219 403.726562 607.085938 L 403.480469 621.945312 L 399.15625 621.945312 C 398.402344 619.84375 392.191406 604.191406 373.527344 599.101562 C 373.015625 598.960938 372.464844 599.058594 372.03125 599.363281 C 371.597656 599.667969 371.320312 600.148438 371.273438 600.679688 C 371.226562 601.285156 370.1875 614.453125 373.941406 621.945312 L 329.484375 621.945312 C 335.074219 617.296875 339.296875 610.007812 339.527344 609.605469 C 339.789062 609.152344 339.835938 608.605469 339.660156 608.117188 C 339.488281 607.625 339.105469 607.234375 338.621094 607.046875 C 326.886719 602.519531 316.863281 604.84375 310.773438 607.382812 L 320.84375 592.636719 C 320.953125 592.703125 321.050781 592.785156 321.167969 592.839844 C 323.699219 594.015625 326.988281 592.5 329.917969 589.050781 C 330.835938 593.878906 333.082031 597.769531 336.570312 597.796875 C 336.582031 597.796875 336.589844 597.796875 336.601562 597.796875 C 339.988281 597.796875 342.273438 594.035156 343.285156 589.355469 C 346.128906 592.726562 349.289062 594.175781 351.8125 593.050781 C 354.503906 591.84375 355.488281 588.152344 354.59375 583.359375 C 359.125 585.195312 362.941406 584.96875 364.660156 582.566406 C 366.503906 579.992188 365.160156 575.886719 361.414062 571.949219 C 365.851562 570.78125 368.570312 568.46875 368.589844 565.644531 C 368.589844 565.644531 368.585938 565.566406 368.585938 565.53125 C 368.585938 565.523438 368.585938 565.515625 368.585938 565.507812 C 368.605469 562.683594 365.917969 560.339844 361.503906 559.105469 C 365.304688 555.222656 366.703125 551.132812 364.898438 548.535156 C 363.210938 546.109375 359.394531 545.832031 354.84375 547.601562 C 355.800781 542.824219 354.867188 539.117188 352.191406 537.878906 C 349.652344 536.695312 346.367188 538.21875 343.441406 541.667969 C 342.523438 536.839844 340.277344 532.949219 336.789062 532.925781 C 336.777344 532.925781 336.769531 532.925781 336.757812 532.925781 C 333.371094 532.925781 331.085938 536.683594 330.074219 541.363281 C 327.230469 537.992188 324.0625 536.542969 321.546875 537.667969 C 318.855469 538.875 317.871094 542.566406 318.761719 547.359375 C 314.238281 545.527344 310.417969 545.753906 308.699219 548.152344 C 306.855469 550.726562 308.199219 554.835938 311.949219 558.769531 C 307.507812 559.941406 304.789062 562.253906 304.769531 565.085938 C 304.769531 565.140625 304.773438 565.199219 304.773438 565.203125 C 304.773438 565.207031 304.773438 565.210938 304.773438 565.210938 C 304.753906 568.035156 307.441406 570.378906 311.855469 571.613281 C 308.054688 575.496094 306.65625 579.585938 308.460938 582.183594 C 310.148438 584.609375 313.964844 584.886719 318.515625 583.117188 C 318.007812 585.65625 318.046875 587.875 318.585938 589.601562 L 307.878906 605.28125 C 307.398438 599.707031 305.171875 590.769531 296.933594 581.660156 L 296.933594 500.328125 L 333.753906 470.359375 C 334.519531 469.734375 334.636719 468.605469 334.011719 467.839844 C 333.386719 467.074219 332.257812 466.957031 331.492188 467.582031 L 296.933594 495.714844 L 296.933594 417.5 L 324.703125 417.5 C 325.691406 417.5 326.492188 416.699219 326.492188 415.710938 C 326.492188 414.722656 325.691406 413.921875 324.703125 413.921875 L 296.933594 413.921875 L 296.933594 333.65625 L 332.765625 359.605469 C 333.082031 359.835938 333.449219 359.945312 333.816406 359.945312 C 334.371094 359.945312 334.917969 359.691406 335.265625 359.207031 C 335.847656 358.40625 335.667969 357.289062 334.867188 356.707031 L 297.503906 329.648438 C 297.328125 329.519531 297.132812 329.4375 296.933594 329.378906 L 296.933594 270.492188 L 328.550781 310.304688 C 328.902344 310.75 329.425781 310.984375 329.953125 310.984375 C 330.34375 310.984375 330.734375 310.855469 331.0625 310.59375 C 331.839844 309.980469 331.964844 308.855469 331.351562 308.082031 L 299.648438 268.15625 L 347.976562 268.15625 L 373.40625 317.742188 C 373.722656 318.359375 374.347656 318.714844 375 318.714844 C 375.273438 318.714844 375.554688 318.652344 375.8125 318.519531 C 376.695312 318.066406 377.039062 316.988281 376.589844 316.109375 L 352 268.15625 L 458.539062 268.15625 L 433.339844 317.300781 C 432.886719 318.179688 433.234375 319.257812 434.113281 319.710938 C 434.375 319.84375 434.652344 319.90625 434.929688 319.90625 C 435.578125 319.90625 436.207031 319.554688 436.523438 318.933594 L 462.292969 268.683594 C 462.378906 268.511719 462.425781 268.332031 462.457031 268.15625 L 510.128906 268.15625 L 477.480469 309.273438 C 476.863281 310.046875 476.992188 311.171875 477.769531 311.789062 C 478.097656 312.050781 478.488281 312.175781 478.878906 312.175781 C 479.40625 312.175781 479.929688 311.945312 480.28125 311.5 L 512.980469 270.320312 L 512.980469 331.375 L 476.351562 357.898438 C 475.550781 358.480469 475.371094 359.597656 475.953125 360.398438 C 476.300781 360.882812 476.847656 361.140625 477.402344 361.140625 C 477.765625 361.140625 478.132812 361.027344 478.449219 360.800781 L 512.980469 335.792969 L 512.980469 415.113281 L 487.707031 415.113281 C 486.71875 415.113281 485.917969 415.914062 485.917969 416.902344 C 485.917969 417.890625 486.71875 418.691406 487.707031 418.691406 L 512.980469 418.691406 L 512.980469 461.570312 L 512.984375 496.816406 L 478.53125 468.773438 C 477.765625 468.148438 476.636719 468.265625 476.015625 469.03125 C 475.390625 469.796875 475.503906 470.925781 476.269531 471.550781 L 512.984375 501.433594 L 512.992188 582.675781 C 505.207031 590.335938 503.457031 598.734375 503.363281 604.425781 L 491.484375 586.738281 C 491.496094 585.695312 491.390625 584.5625 491.167969 583.359375 C 495.6875 585.191406 499.511719 584.964844 501.230469 582.5625 C 503.070312 579.988281 501.730469 575.882812 497.984375 571.949219 C 502.421875 570.78125 505.140625 568.476562 505.15625 565.683594 C 505.160156 565.625 505.15625 565.582031 505.15625 565.523438 C 505.15625 565.519531 505.15625 565.511719 505.15625 565.503906 C 505.175781 562.683594 502.488281 560.335938 498.074219 559.105469 C 501.875 555.21875 503.273438 551.128906 501.46875 548.53125 C 499.78125 546.105469 495.960938 545.828125 491.414062 547.601562 C 492.371094 542.824219 491.4375 539.117188 488.761719 537.875 C 486.226562 536.699219 482.9375 538.21875 480.011719 541.667969 C 479.09375 536.835938 476.847656 532.945312 473.359375 532.921875 C 473.347656 532.921875 473.339844 532.921875 473.328125 532.921875 C 469.941406 532.921875 467.65625 536.683594 466.644531 541.359375 C 463.800781 537.988281 460.632812 536.539062 458.117188 537.667969 C 455.425781 538.871094 454.441406 542.566406 455.332031 547.355469 C 450.808594 545.523438 446.988281 545.75 445.269531 548.152344 C 443.425781 550.726562 444.769531 554.832031 448.519531 558.765625 C 444.078125 559.9375 441.359375 562.25 441.339844 565.082031 C 441.339844 565.140625 441.34375 565.195312 441.34375 565.203125 C 441.34375 565.207031 441.34375 565.210938 441.34375 565.210938 C 441.324219 568.03125 444.011719 570.378906 448.425781 571.609375 C 444.625 575.496094 443.226562 579.585938 445.03125 582.183594 C 446.714844 584.609375 450.539062 584.890625 455.085938 583.113281 C 454.128906 587.890625 455.0625 591.597656 457.738281 592.839844 C 460.269531 594.015625 463.558594 592.5 466.488281 589.046875 C 467.40625 593.878906 469.652344 597.769531 473.140625 597.792969 C 473.152344 597.792969 473.160156 597.792969 473.171875 597.792969 C 476.558594 597.792969 478.84375 594.035156 479.855469 589.355469 C 482.699219 592.726562 485.863281 594.175781 488.382812 593.046875 C 489.167969 592.695312 489.792969 592.109375 490.28125 591.363281 L 499.972656 605.796875 C 495.136719 603.949219 486.507812 602.410156 474.488281 607.042969 C 474.003906 607.230469 473.621094 607.621094 473.449219 608.113281 C 473.273438 608.605469 473.324219 609.148438 473.582031 609.601562 C 473.8125 610.007812 478.039062 617.296875 483.625 621.941406 L 436.863281 621.941406 Z M 317.476562 570.070312 C 317.285156 569.367188 316.6875 568.855469 315.964844 568.769531 C 311.050781 568.183594 308.347656 566.308594 308.351562 565.226562 C 308.351562 565.191406 308.351562 565.148438 308.347656 565.097656 C 308.355469 564.023438 311.089844 562.183594 316.019531 561.667969 C 316.738281 561.589844 317.34375 561.085938 317.546875 560.386719 C 317.75 559.6875 317.511719 558.9375 316.945312 558.484375 C 312.242188 554.746094 310.96875 551.125 311.605469 550.234375 C 312.21875 549.382812 315.753906 549.34375 320.628906 552.308594 C 321.273438 552.703125 322.101562 552.644531 322.6875 552.167969 C 323.277344 551.683594 323.5 550.886719 323.242188 550.171875 C 321.3125 544.816406 322.050781 541.363281 323.007812 540.933594 C 323.953125 540.507812 327.003906 542.238281 329.707031 547.191406 C 330.09375 547.902344 330.90625 548.265625 331.695312 548.074219 C 332.480469 547.886719 333.042969 547.191406 333.066406 546.386719 C 333.246094 539.984375 335.597656 536.503906 336.761719 536.503906 C 336.761719 536.503906 336.765625 536.503906 336.765625 536.503906 C 337.976562 536.511719 340.332031 540.15625 340.328125 546.8125 C 340.328125 547.632812 340.882812 548.34375 341.679688 548.546875 C 342.46875 548.75 343.300781 548.382812 343.691406 547.664062 C 346.507812 542.457031 349.699219 540.664062 350.683594 541.121094 C 351.632812 541.5625 352.328125 545.027344 350.324219 550.355469 C 350.058594 551.066406 350.269531 551.867188 350.851562 552.355469 C 351.433594 552.84375 352.257812 552.910156 352.910156 552.527344 C 357.820312 549.628906 361.359375 549.714844 361.957031 550.578125 C 362.582031 551.476562 361.261719 555.078125 356.507812 558.753906 C 355.933594 559.199219 355.683594 559.949219 355.878906 560.648438 C 356.074219 561.347656 356.671875 561.859375 357.390625 561.949219 C 362.304688 562.535156 365.011719 564.40625 365.003906 565.480469 C 365.003906 565.484375 365.003906 565.488281 365.003906 565.492188 C 365.003906 565.527344 365.007812 565.566406 365.007812 565.621094 C 365 566.695312 362.265625 568.53125 357.339844 569.050781 C 356.617188 569.128906 356.011719 569.632812 355.808594 570.328125 C 355.605469 571.027344 355.84375 571.777344 356.414062 572.230469 C 361.113281 575.972656 362.386719 579.589844 361.75 580.480469 C 361.136719 581.335938 357.597656 581.371094 352.730469 578.40625 C 352.082031 578.015625 351.257812 578.070312 350.667969 578.550781 C 350.078125 579.03125 349.859375 579.828125 350.117188 580.542969 C 352.046875 585.898438 351.304688 589.351562 350.347656 589.78125 C 349.402344 590.203125 346.351562 588.476562 343.648438 583.527344 C 343.261719 582.816406 342.449219 582.453125 341.660156 582.640625 C 340.875 582.832031 340.3125 583.523438 340.289062 584.332031 C 340.113281 590.734375 337.757812 594.214844 336.597656 594.214844 C 336.59375 594.214844 336.59375 594.214844 336.59375 594.214844 C 335.382812 594.207031 333.027344 590.558594 333.027344 583.902344 C 333.027344 583.085938 332.472656 582.371094 331.675781 582.167969 C 331.53125 582.132812 331.382812 582.113281 331.238281 582.113281 C 330.59375 582.113281 329.980469 582.464844 329.664062 583.050781 C 326.847656 588.261719 323.660156 590.050781 322.671875 589.59375 C 321.722656 589.152344 321.027344 585.691406 323.03125 580.359375 C 323.296875 579.648438 323.085938 578.847656 322.507812 578.359375 C 321.921875 577.871094 321.097656 577.804688 320.445312 578.1875 C 315.535156 581.089844 312 581.003906 311.398438 580.140625 C 310.773438 579.242188 312.09375 575.640625 316.847656 571.960938 C 317.421875 571.519531 317.671875 570.769531 317.476562 570.070312 Z M 486.6875 580.542969 C 488.617188 585.898438 487.875 589.351562 486.917969 589.78125 C 485.96875 590.203125 482.921875 588.476562 480.21875 583.527344 C 479.832031 582.816406 479.019531 582.453125 478.230469 582.640625 C 477.445312 582.832031 476.882812 583.523438 476.859375 584.332031 C 476.683594 590.734375 474.328125 594.214844 473.167969 594.214844 C 473.164062 594.214844 473.164062 594.214844 473.164062 594.214844 C 471.953125 594.207031 469.597656 590.558594 469.597656 583.902344 C 469.597656 583.085938 469.042969 582.371094 468.25 582.167969 C 468.101562 582.132812 467.957031 582.113281 467.808594 582.113281 C 467.164062 582.113281 466.554688 582.464844 466.234375 583.050781 C 463.417969 588.261719 460.222656 590.050781 459.246094 589.59375 C 458.292969 589.152344 457.597656 585.691406 459.601562 580.359375 C 459.867188 579.648438 459.660156 578.847656 459.078125 578.359375 C 458.492188 577.871094 457.671875 577.804688 457.015625 578.1875 C 452.105469 581.089844 448.566406 581.003906 447.96875 580.140625 C 447.34375 579.242188 448.664062 575.640625 453.417969 571.960938 C 453.992188 571.515625 454.242188 570.769531 454.046875 570.070312 C 453.855469 569.367188 453.257812 568.855469 452.535156 568.769531 C 447.621094 568.183594 444.917969 566.308594 444.921875 565.226562 C 444.921875 565.191406 444.921875 565.148438 444.917969 565.097656 C 444.925781 564.023438 447.660156 562.183594 452.585938 561.667969 C 453.308594 561.589844 453.914062 561.085938 454.117188 560.386719 C 454.320312 559.6875 454.082031 558.9375 453.511719 558.484375 C 448.8125 554.746094 447.539062 551.125 448.179688 550.234375 C 448.789062 549.378906 452.324219 549.34375 457.199219 552.308594 C 457.84375 552.703125 458.671875 552.648438 459.261719 552.164062 C 459.847656 551.683594 460.070312 550.886719 459.8125 550.171875 C 457.882812 544.816406 458.621094 541.363281 459.578125 540.933594 C 460.519531 540.507812 463.574219 542.238281 466.277344 547.191406 C 466.664062 547.902344 467.476562 548.265625 468.265625 548.074219 C 469.054688 547.886719 469.613281 547.191406 469.636719 546.386719 C 469.816406 539.984375 472.167969 536.503906 473.332031 536.503906 C 473.332031 536.503906 473.332031 536.503906 473.335938 536.503906 C 474.546875 536.511719 476.902344 540.15625 476.898438 546.8125 C 476.898438 547.632812 477.457031 548.34375 478.25 548.546875 C 479.046875 548.75 479.871094 548.382812 480.261719 547.664062 C 483.078125 542.453125 486.277344 540.667969 487.253906 541.121094 C 488.207031 541.5625 488.898438 545.027344 486.894531 550.355469 C 486.628906 551.066406 486.839844 551.867188 487.421875 552.355469 C 488.003906 552.84375 488.828125 552.910156 489.480469 552.527344 C 494.390625 549.628906 497.925781 549.714844 498.527344 550.578125 C 499.152344 551.476562 497.832031 555.078125 493.078125 558.753906 C 492.503906 559.199219 492.253906 559.945312 492.449219 560.648438 C 492.644531 561.347656 493.242188 561.859375 493.960938 561.949219 C 498.875 562.535156 501.582031 564.40625 501.574219 565.480469 C 501.574219 565.484375 501.574219 565.488281 501.574219 565.492188 C 501.574219 565.527344 501.578125 565.566406 501.578125 565.621094 C 501.570312 566.695312 498.835938 568.53125 493.910156 569.050781 C 493.1875 569.128906 492.582031 569.632812 492.378906 570.328125 C 492.175781 571.027344 492.414062 571.777344 492.984375 572.230469 C 497.6875 575.972656 498.957031 579.589844 498.320312 580.480469 C 497.710938 581.332031 494.171875 581.375 489.300781 578.40625 C 488.652344 578.015625 487.824219 578.070312 487.238281 578.550781 C 486.652344 579.03125 486.429688 579.828125 486.6875 580.542969 Z M 488.621094 615.410156 L 508.222656 621.945312 L 490.589844 621.945312 C 490.542969 621.925781 490.496094 621.898438 490.449219 621.882812 C 485.242188 620.25 480.050781 613.066406 477.820312 609.644531 C 493.480469 604.390625 501.878906 610.691406 502.261719 610.988281 C 502.679688 611.316406 503.199219 611.421875 503.6875 611.332031 L 508.296875 618.195312 L 489.753906 612.015625 C 488.816406 611.699219 487.800781 612.207031 487.488281 613.144531 C 487.175781 614.082031 487.683594 615.097656 488.621094 615.410156 Z M 507.574219 610.699219 C 507.574219 610.542969 507.558594 610.382812 507.515625 610.222656 C 507.480469 610.097656 504.449219 598.71875 512.992188 588.003906 L 512.992188 618.769531 Z M 404.832031 585.5625 C 398.753906 585.519531 393.859375 580.558594 393.902344 574.476562 C 393.941406 568.398438 398.902344 563.503906 404.980469 563.542969 C 411.0625 563.585938 415.957031 568.546875 415.914062 574.628906 C 415.871094 580.707031 410.910156 585.601562 404.832031 585.5625 Z M 325.617188 565.027344 C 325.65625 558.949219 330.617188 554.054688 336.695312 554.097656 C 342.777344 554.136719 347.671875 559.097656 347.628906 565.179688 C 347.585938 571.257812 342.625 576.152344 336.546875 576.113281 C 330.46875 576.070312 325.574219 571.109375 325.617188 565.027344 Z M 484.199219 565.179688 C 484.15625 571.257812 479.195312 576.152344 473.117188 576.113281 C 467.039062 576.070312 462.144531 571.109375 462.1875 565.027344 C 462.226562 558.949219 467.1875 554.054688 473.265625 554.097656 C 479.347656 554.136719 484.242188 559.097656 484.199219 565.179688 Z M 459.324219 494.5 C 459.421875 494.554688 459.519531 494.597656 459.625 494.632812 C 460.703125 495 461.863281 494.277344 461.976562 493.128906 C 461.980469 493.089844 461.984375 493.050781 461.984375 493.011719 C 461.992188 492.855469 461.980469 492.703125 461.945312 492.539062 L 451.523438 448.46875 L 494.4375 446.28125 C 495.171875 446.242188 495.808594 445.757812 496.042969 445.058594 C 496.277344 444.359375 496.058594 443.589844 495.492188 443.117188 L 461.230469 414.605469 L 495.410156 389.300781 C 496.007812 388.859375 496.269531 388.09375 496.070312 387.378906 C 495.871094 386.664062 495.246094 386.148438 494.507812 386.082031 L 450.054688 382.058594 L 462.242188 339.800781 C 462.449219 339.082031 462.1875 338.308594 461.582031 337.863281 C 460.984375 337.417969 460.164062 337.398438 459.539062 337.808594 L 421.765625 362.5625 C 421.765625 362.5625 406.636719 322.285156 406.625 322.265625 C 406.566406 322.117188 406.488281 321.980469 406.390625 321.851562 C 406.371094 321.824219 406.347656 321.796875 406.324219 321.769531 C 405.449219 320.730469 403.789062 321.082031 403.285156 322.285156 L 388.566406 361.46875 C 388.566406 361.46875 351.15625 337.558594 350.976562 337.449219 C 349.90625 336.796875 348.363281 337.480469 348.257812 338.835938 C 348.257812 338.871094 348.253906 338.902344 348.253906 338.9375 C 348.25 339.101562 348.265625 339.261719 348.304688 339.425781 L 359.472656 381.898438 C 359.472656 381.898438 315.40625 386.082031 315.398438 386.085938 C 315.238281 386.101562 315.082031 386.140625 314.933594 386.199219 C 314.902344 386.210938 314.871094 386.226562 314.839844 386.238281 C 314.707031 386.300781 314.582031 386.375 314.4375 386.484375 C 313.730469 387.03125 313.601562 388.070312 314.066406 388.808594 C 314.085938 388.84375 314.105469 388.871094 314.128906 388.902344 C 314.222656 389.03125 314.324219 389.148438 314.453125 389.253906 L 346.425781 415.234375 C 339.320312 421.308594 332.214844 427.378906 325.109375 433.453125 C 322.820312 435.410156 320.535156 437.363281 318.246094 439.320312 C 317.304688 440.125 310.71875 444.800781 315.234375 445.691406 C 315.300781 445.707031 315.363281 445.730469 315.429688 445.738281 L 356.226562 449.082031 L 347.960938 492.617188 C 347.828125 493.3125 348.117188 494.019531 348.699219 494.425781 C 349.007812 494.636719 349.359375 494.742188 349.71875 494.742188 C 350.042969 494.742188 350.367188 494.652344 350.652344 494.476562 L 387.515625 471.894531 L 403.109375 509.851562 C 403.382812 510.519531 404.035156 510.957031 404.765625 510.960938 C 405.484375 510.960938 406.132812 510.53125 406.414062 509.867188 L 422.417969 471.902344 L 459.269531 494.476562 C 459.289062 494.488281 459.308594 494.492188 459.324219 494.5 Z M 486.375 440.1875 L 450.539062 428.167969 C 450.863281 426.550781 451.453125 423.402344 451.605469 421.734375 L 458.269531 416.800781 Z M 484.4375 388.761719 L 447.808594 398.46875 C 445.515625 393.289062 442.320312 388.597656 438.417969 384.601562 Z M 452.949219 346.40625 L 429.277344 377.292969 C 428.457031 376.792969 427.617188 376.316406 426.761719 375.863281 L 423.054688 365.996094 Z M 391.136719 364.8125 C 391.136719 364.808594 391.136719 364.808594 391.136719 364.804688 L 403.101562 332.957031 L 402.835938 370.445312 C 397.570312 370.660156 392.53125 371.75 387.847656 373.566406 Z M 357.378906 345.785156 L 387.28125 364.894531 L 383.242188 375.644531 C 382.40625 376.078125 381.582031 376.53125 380.773438 377.011719 Z M 325.113281 388.753906 L 371.382812 384.363281 C 367.175781 388.613281 363.773438 393.652344 361.421875 399.242188 Z M 324.316406 438.839844 L 349.246094 417.527344 L 358.371094 424.941406 C 358.441406 425.378906 358.519531 425.8125 358.601562 426.246094 Z M 352.957031 485.480469 L 362.128906 437.183594 C 365.011719 443.386719 369.210938 448.859375 374.363281 453.246094 Z M 406.375 500.742188 L 406.375 464.414062 C 407.535156 464.375 408.683594 464.304688 409.820312 464.183594 C 409.824219 464.183594 409.828125 464.1875 409.832031 464.191406 L 419.332031 470.011719 Z M 404.785156 460.875 C 380.832031 460.875 361.339844 441.382812 361.339844 417.425781 C 361.339844 393.46875 380.832031 373.976562 404.785156 373.976562 C 428.742188 373.976562 448.234375 393.46875 448.234375 417.425781 C 448.234375 441.382812 428.742188 460.875 404.785156 460.875 Z M 434.546875 453.808594 C 439.132812 450.050781 442.992188 445.441406 445.894531 440.230469 L 447.550781 447.222656 C 447.550781 447.226562 447.550781 447.230469 447.550781 447.234375 L 456.355469 484.457031 Z M 378.65625 502.257812 L 368.300781 529.03125 C 368.027344 529.738281 367.347656 530.175781 366.632812 530.175781 C 366.414062 530.175781 366.199219 530.136719 365.984375 530.054688 C 365.066406 529.699219 364.605469 528.660156 364.960938 527.738281 L 375.316406 500.964844 C 375.675781 500.042969 376.714844 499.585938 377.632812 499.941406 C 378.550781 500.300781 379.011719 501.335938 378.65625 502.257812 Z M 443.132812 530.238281 L 432.011719 502.273438 C 431.648438 501.355469 432.097656 500.3125 433.015625 499.949219 C 433.933594 499.585938 434.972656 500.03125 435.339844 500.949219 L 446.457031 528.917969 C 446.820312 529.835938 446.375 530.875 445.453125 531.238281 C 445.238281 531.328125 445.011719 531.367188 444.792969 531.367188 C 444.082031 531.367188 443.410156 530.941406 443.132812 530.238281 Z M 418.117188 435.792969 C 417.429688 436 416.699219 436.167969 415.953125 436.316406 C 415.925781 436.3125 415.902344 436.308594 415.875 436.308594 C 415.867188 436.304688 415.859375 436.304688 415.851562 436.308594 C 415.261719 436.308594 413.828125 435.5 412.875 434.964844 C 411.519531 434.199219 410.230469 433.480469 409.019531 433.347656 C 408.75 433.292969 408.46875 433.253906 408.179688 433.253906 C 407.050781 433.253906 406.046875 433.730469 405.375 434.460938 C 404.628906 433.847656 403.734375 433.246094 402.660156 433.253906 C 402.625 433.253906 402.585938 433.265625 402.546875 433.269531 C 402.492188 433.265625 402.441406 433.253906 402.386719 433.253906 C 401.589844 433.253906 400.859375 433.488281 400.261719 433.878906 C 399.710938 434.117188 399.15625 434.394531 398.585938 434.6875 C 397.3125 435.351562 395.871094 436.089844 394.808594 436.023438 C 393.644531 435.78125 392.898438 435.59375 392.878906 435.589844 C 391.921875 435.34375 390.953125 435.921875 390.710938 436.871094 C 390.464844 437.824219 391.039062 438.796875 391.992188 439.039062 C 392.117188 439.074219 393.609375 439.449219 395.742188 439.832031 C 396.691406 442.46875 399.734375 446.75 405.617188 446.75 C 411.445312 446.75 414.519531 442.609375 415.519531 440.015625 C 416.75 439.8125 417.992188 439.550781 419.144531 439.203125 C 420.085938 438.917969 420.621094 437.925781 420.335938 436.980469 C 420.050781 436.039062 419.054688 435.503906 418.117188 435.792969 Z M 405.617188 443.1875 C 402.773438 443.1875 401.066406 441.75 400.101562 440.441406 C 401.316406 440.558594 402.570312 440.636719 403.804688 440.636719 L 407.144531 440.644531 C 407.175781 440.644531 407.277344 440.644531 407.445312 440.644531 C 408.03125 440.644531 409.421875 440.628906 411.160156 440.507812 C 410.175781 441.785156 408.457031 443.1875 405.617188 443.1875 Z M 398.683594 425.65625 C 399.363281 424.753906 400.675781 424.46875 401.660156 424.386719 C 402.003906 424.359375 402.355469 424.429688 402.660156 424.597656 C 403.652344 425.136719 405.128906 425.738281 405.65625 425.738281 C 406.277344 425.738281 407.625 425.183594 408.339844 424.8125 C 408.457031 424.75 408.582031 424.699219 408.707031 424.667969 C 409.265625 424.519531 410.675781 424.25 411.730469 424.960938 C 412.300781 425.34375 412.660156 425.933594 412.746094 426.621094 C 412.867188 427.59375 412.175781 428.488281 411.199219 428.609375 C 410.628906 428.675781 410.097656 428.476562 409.722656 428.105469 C 408.96875 428.476562 407.128906 429.300781 405.65625 429.300781 C 404.289062 429.300781 402.488281 428.507812 401.496094 428.007812 C 401.417969 428.027344 401.347656 428.042969 401.292969 428.058594 C 400.671875 428.613281 399.730469 428.671875 399.039062 428.152344 C 398.253906 427.558594 398.09375 426.445312 398.683594 425.65625 Z M 394.203125 411.558594 C 395.191406 412.347656 395.582031 413.160156 395.621094 413.246094 C 396.003906 414.140625 397.035156 414.5625 397.941406 414.1875 C 398.847656 413.808594 399.277344 412.765625 398.902344 411.859375 C 398.808594 411.636719 396.566406 406.464844 389.210938 406.421875 L 388.851562 404.910156 C 388.625 403.953125 387.664062 403.355469 386.707031 403.589844 C 385.75 403.816406 385.15625 404.777344 385.386719 405.734375 L 385.667969 406.914062 C 385.429688 406.984375 385.203125 407.066406 384.984375 407.152344 L 384.050781 405.886719 C 383.464844 405.09375 382.351562 404.929688 381.558594 405.511719 C 380.765625 406.097656 380.597656 407.210938 381.183594 408.003906 L 381.933594 409.023438 C 381.753906 409.1875 381.582031 409.355469 381.421875 409.523438 L 380.375 408.824219 C 379.554688 408.277344 378.449219 408.496094 377.902344 409.316406 C 377.355469 410.136719 377.578125 411.242188 378.398438 411.789062 L 379.5 412.523438 C 379.476562 412.582031 379.464844 412.617188 379.460938 412.632812 C 379.148438 413.566406 379.65625 414.574219 380.589844 414.886719 C 380.777344 414.945312 380.964844 414.976562 381.152344 414.976562 C 381.898438 414.976562 382.59375 414.503906 382.84375 413.753906 C 382.847656 413.734375 383.253906 412.570312 384.46875 411.542969 C 385.074219 413.671875 387.019531 415.242188 389.339844 415.242188 C 391.652344 415.242188 393.589844 413.679688 394.203125 411.558594 Z M 389.339844 411.679688 C 388.496094 411.679688 387.8125 410.996094 387.8125 410.15625 C 387.8125 410.132812 387.824219 410.109375 387.828125 410.085938 C 388.234375 410.023438 388.660156 409.984375 389.128906 409.984375 C 389.761719 409.984375 390.335938 410.035156 390.863281 410.125 C 390.863281 410.136719 390.863281 410.144531 390.863281 410.15625 C 390.863281 410.996094 390.179688 411.679688 389.339844 411.679688 Z M 378.621094 402.402344 C 378.277344 402.71875 377.84375 402.875 377.410156 402.875 C 376.933594 402.875 376.453125 402.683594 376.101562 402.304688 C 375.433594 401.585938 375.476562 400.457031 376.199219 399.789062 C 376.382812 399.617188 380.738281 395.648438 387.667969 394.902344 C 392.765625 394.355469 396.085938 395.449219 398.402344 396.460938 C 399.304688 396.855469 399.71875 397.90625 399.324219 398.808594 C 398.929688 399.707031 397.878906 400.117188 396.976562 399.726562 C 394.945312 398.839844 392.296875 397.992188 388.046875 398.445312 C 382.28125 399.066406 378.65625 402.367188 378.621094 402.402344 Z M 430.09375 408.824219 L 429.042969 409.523438 C 428.886719 409.355469 428.714844 409.1875 428.53125 409.023438 L 429.285156 408.003906 C 429.867188 407.210938 429.699219 406.097656 428.90625 405.511719 C 428.117188 404.929688 427.003906 405.09375 426.417969 405.886719 L 425.484375 407.152344 C 425.261719 407.066406 425.039062 406.984375 424.800781 406.914062 L 425.082031 405.734375 C 425.308594 404.777344 424.71875 403.816406 423.761719 403.589844 C 422.804688 403.355469 421.84375 403.953125 421.617188 404.910156 L 421.257812 406.421875 C 413.898438 406.464844 411.660156 411.636719 411.566406 411.859375 C 411.1875 412.765625 411.621094 413.808594 412.527344 414.1875 C 413.4375 414.5625 414.480469 414.132812 414.855469 413.226562 C 414.863281 413.210938 415.234375 412.367188 416.261719 411.546875 C 416.871094 413.671875 418.808594 415.242188 421.128906 415.242188 C 423.445312 415.242188 425.386719 413.671875 425.996094 411.546875 C 427.175781 412.550781 427.597656 413.679688 427.625 413.753906 C 427.875 414.503906 428.570312 414.976562 429.316406 414.976562 C 429.503906 414.976562 429.691406 414.945312 429.875 414.886719 C 430.8125 414.574219 431.316406 413.566406 431.007812 412.632812 C 431.003906 412.617188 430.988281 412.578125 430.96875 412.523438 L 432.070312 411.789062 C 432.890625 411.242188 433.109375 410.132812 432.5625 409.316406 C 432.015625 408.496094 430.910156 408.277344 430.09375 408.824219 Z M 422.652344 410.15625 C 422.652344 410.996094 421.96875 411.679688 421.128906 411.679688 C 420.289062 411.679688 419.605469 410.996094 419.605469 410.15625 C 419.605469 410.140625 419.605469 410.132812 419.605469 410.121094 C 420.128906 410.03125 420.703125 409.984375 421.339844 409.984375 C 421.808594 409.984375 422.234375 410.023438 422.640625 410.085938 C 422.640625 410.109375 422.652344 410.132812 422.652344 410.15625 Z M 434.265625 399.789062 C 434.988281 400.457031 435.03125 401.585938 434.363281 402.304688 C 434.011719 402.683594 433.535156 402.875 433.054688 402.875 C 432.625 402.875 432.191406 402.71875 431.851562 402.40625 C 431.808594 402.367188 428.125 399.058594 422.417969 398.445312 C 418.167969 397.996094 415.523438 398.839844 413.488281 399.726562 C 412.589844 400.121094 411.539062 399.707031 411.144531 398.808594 C 410.75 397.90625 411.160156 396.855469 412.0625 396.460938 C 414.382812 395.449219 417.695312 394.355469 422.800781 394.902344 C 429.730469 395.648438 434.085938 399.617188 434.265625 399.789062 Z M 434.265625 399.789062 " fill-opacity="1" fill-rule="nonzero"/></g></svg>