<svg xmlns="http://www.w3.org/2000/svg" xmlns:xlink="http://www.w3.org/1999/xlink" width="1080" zoomAndPan="magnify" viewBox="0 0 810 809.999993" height="1080" preserveAspectRatio="xMidYMid meet" version="1.0"><defs><clipPath id="7d7bfe8149"><path d="M 305.175781 286.597656 L 548.175781 286.597656 L 548.175781 700.597656 L 305.175781 700.597656 Z M 305.175781 286.597656 " clip-rule="nonzero"/></clipPath></defs><g clip-path="url(#7d7bfe8149)"><path fill="#2e2e2e" d="M 544.070312 290.8125 C 541.441406 288.183594 537.941406 286.738281 534.222656 286.738281 L 319.089844 286.738281 C 315.371094 286.738281 311.875 288.183594 309.246094 290.8125 C 306.613281 293.4375 305.164062 296.933594 305.164062 300.648438 L 305.164062 686.546875 C 305.164062 690.261719 306.613281 693.757812 309.246094 696.382812 C 311.875 699.011719 315.371094 700.457031 319.089844 700.457031 L 534.222656 700.457031 C 537.941406 700.457031 541.441406 699.011719 544.070312 696.382812 C 546.699219 693.757812 548.148438 690.261719 548.148438 686.546875 L 548.148438 300.648438 C 548.148438 296.933594 546.699219 293.4375 544.070312 290.8125 Z M 544.558594 493.597656 L 544.558594 686.546875 C 544.558594 689.398438 543.402344 691.980469 541.53125 693.847656 C 539.660156 695.71875 537.078125 696.871094 534.222656 696.871094 L 319.089844 696.871094 C 316.238281 696.871094 313.652344 695.71875 311.78125 693.847656 C 309.910156 691.980469 308.753906 689.398438 308.753906 686.546875 L 308.753906 300.648438 C 308.753906 297.796875 309.910156 295.214844 311.78125 293.347656 C 313.652344 291.476562 316.238281 290.324219 319.089844 290.324219 L 534.222656 290.324219 C 537.078125 290.324219 539.660156 291.476562 541.53125 293.347656 C 543.402344 295.214844 544.558594 297.796875 544.558594 300.648438 Z M 538.570312 300.648438 C 538.570312 299.484375 538.117188 298.394531 537.296875 297.570312 C 536.472656 296.75 535.378906 296.296875 534.214844 296.296875 L 319.085938 296.296875 C 317.921875 296.296875 316.828125 296.75 316.003906 297.570312 C 315.183594 298.394531 314.730469 299.484375 314.730469 300.648438 L 314.730469 654.792969 C 314.761719 656.460938 316.117188 657.800781 317.792969 657.800781 L 535.417969 657.800781 C 537.113281 657.800781 538.585938 656.332031 538.585938 654.640625 L 538.570312 493.597656 Z M 318.316406 300.648438 C 318.316406 300.4375 318.394531 300.253906 318.542969 300.105469 C 318.691406 299.957031 318.875 299.882812 319.082031 299.882812 L 534.214844 299.882812 C 534.425781 299.882812 534.609375 299.957031 534.757812 300.105469 C 534.90625 300.253906 534.980469 300.4375 534.980469 300.648438 L 534.980469 493.597656 L 534.988281 574.203125 L 493.371094 574.203125 C 494.023438 569.132812 494.480469 559.191406 494.699219 553.605469 L 496.726562 555.925781 C 496.757812 555.957031 496.785156 555.988281 496.816406 556.019531 C 497.433594 556.625 498.09375 557.367188 498.410156 557.800781 C 498.015625 560.710938 500.070312 565.59375 501.890625 567.820312 C 504.03125 570.441406 506.851562 573.359375 509.714844 572.675781 C 510.648438 572.453125 511.296875 572.027344 511.734375 571.527344 C 512.238281 571.476562 512.796875 571.304688 513.394531 570.945312 C 513.867188 570.664062 514.210938 570.289062 514.453125 569.882812 C 514.9375 569.804688 515.453125 569.636719 515.960938 569.34375 C 516.160156 569.230469 516.34375 569.105469 516.511719 568.976562 C 518.21875 571.0625 520.5 573.210938 522.660156 573.210938 C 523.066406 573.210938 523.46875 573.132812 523.863281 572.96875 C 525.617188 572.222656 526.207031 571 526.390625 570.109375 C 526.878906 567.722656 525.136719 564.609375 520.746094 560.015625 C 520.464844 559.628906 519.527344 558.078125 518.777344 556.777344 C 518.699219 555.804688 518.3125 554.78125 517.46875 553.742188 C 515.378906 551.1875 511.910156 550.476562 509.617188 550.007812 C 509.007812 549.882812 508.199219 549.714844 507.871094 549.585938 L 506.714844 548.171875 L 495.164062 532.394531 C 495.066406 522.242188 490.722656 518.085938 488.488281 516.628906 C 488.210938 512.703125 482.992188 507.183594 480.023438 504.339844 C 479.769531 495.484375 472.425781 489.59375 469.945312 487.851562 C 468.769531 473.113281 457.546875 465.316406 454.558594 463.492188 C 453.1875 458.621094 449.570312 456.832031 447.722656 456.222656 C 447.34375 453.863281 446.878906 451.675781 446.453125 449.671875 C 445.941406 447.28125 445.503906 445.214844 445.308594 443.390625 C 443.183594 423.367188 431.71875 419.851562 426.625 419.289062 C 426.59375 419.28125 426.570312 419.269531 426.539062 419.261719 C 426.300781 419.199219 426.0625 419.1875 425.832031 419.21875 C 425.117188 419.175781 424.59375 419.1875 424.34375 419.199219 C 422.546875 419.144531 405.8125 419.183594 403.625 441.25 C 403.300781 444.488281 402.304688 449.304688 401.726562 451.945312 C 401.628906 451.925781 401.535156 451.894531 401.433594 451.878906 C 400.753906 450.3125 398.300781 445.214844 393.851562 441.75 C 393.335938 439.621094 391.980469 436.785156 389.410156 436.125 C 386.863281 431.433594 373.71875 407.109375 368.984375 395.980469 C 366.664062 390.53125 365.820312 386.9375 365.144531 384.050781 C 364.304688 380.476562 363.691406 377.875 360.820312 374.851562 C 360.269531 373.949219 358.066406 370.71875 353.941406 368.824219 L 353.941406 356.808594 C 353.941406 356.347656 353.761719 355.90625 353.441406 355.570312 L 352.992188 355.097656 L 354.292969 353.757812 C 354.875 353.160156 354.964844 352.238281 354.511719 351.539062 L 350.519531 345.359375 C 350.191406 344.851562 349.625 344.539062 349.015625 344.539062 C 349.015625 344.539062 349.015625 344.539062 349.011719 344.539062 C 348.40625 344.539062 347.839844 344.847656 347.507812 345.355469 L 343.59375 351.375 C 343.15625 352.050781 343.21875 352.9375 343.753906 353.539062 L 345.085938 355.042969 L 344.582031 355.574219 C 344.265625 355.90625 344.089844 356.347656 344.089844 356.808594 L 344.089844 367.863281 C 343.046875 368.394531 342.375 369.503906 342.316406 370.929688 C 342.265625 372.125 342.628906 373.449219 343.335938 374.566406 C 342.621094 375.171875 341.992188 376.066406 341.644531 377.402344 C 341.488281 378.003906 341.433594 378.792969 341.546875 379.554688 C 340.949219 380.1875 340.492188 381.15625 340.492188 382.585938 C 340.492188 383.734375 340.851562 384.605469 341.328125 385.242188 C 341.144531 385.859375 341.078125 386.589844 341.214844 387.402344 C 341.402344 388.523438 341.96875 389.339844 342.496094 389.882812 C 342.484375 390.710938 342.660156 391.816406 343.449219 392.789062 C 343.714844 393.117188 344.042969 393.382812 344.402344 393.609375 L 344.402344 409.660156 C 344.402344 409.996094 344.496094 410.324219 344.671875 410.609375 L 345.496094 411.925781 L 344.433594 413.027344 C 343.824219 413.660156 343.761719 414.640625 344.289062 415.34375 L 347.730469 419.957031 C 348.066406 420.40625 348.59375 420.671875 349.160156 420.675781 C 349.160156 420.675781 349.167969 420.675781 349.171875 420.675781 C 349.730469 420.675781 350.253906 420.417969 350.59375 419.976562 L 354.195312 415.285156 C 354.769531 414.539062 354.664062 413.476562 353.960938 412.851562 L 353.066406 412.0625 L 353.976562 410.613281 C 354.15625 410.328125 354.25 409.996094 354.25 409.660156 L 354.25 395.417969 L 354.511719 395.539062 C 356.164062 400.550781 365.261719 428.128906 369.199219 438.84375 C 369.171875 438.964844 369.160156 439.089844 369.160156 439.222656 C 369.359375 461.644531 370.269531 478.402344 371.867188 489.027344 C 373.191406 497.871094 374.933594 502.46875 377.511719 503.75 C 377.628906 504.015625 377.808594 504.257812 378.058594 504.445312 L 378.167969 504.527344 C 379.226562 505.320312 380.242188 506.074219 381.289062 506.621094 C 380.796875 514.0625 378.070312 555.894531 377.921875 574.203125 L 318.316406 574.203125 Z M 479.296875 574.203125 L 478.441406 568.238281 C 478.300781 567.257812 477.378906 566.578125 476.414062 566.714844 C 475.429688 566.855469 474.75 567.765625 474.890625 568.746094 L 475.667969 574.203125 L 468.707031 574.203125 L 468.441406 565.621094 C 468.410156 564.632812 467.554688 563.824219 466.589844 563.886719 C 465.597656 563.914062 464.820312 564.742188 464.851562 565.730469 L 465.117188 574.203125 L 452.171875 574.203125 L 452.265625 565.546875 C 452.257812 565.261719 451.851562 536.632812 452.261719 521.003906 C 452.410156 515.378906 452.339844 507.457031 452.183594 499.582031 C 452.195312 499.195312 452.214844 498.808594 452.214844 498.425781 C 452.214844 498.269531 452.1875 498.121094 452.148438 497.976562 C 451.863281 484.40625 451.355469 471.460938 451.347656 471.253906 C 451.339844 470.976562 451.265625 470.707031 451.132812 470.464844 C 450.769531 469.800781 450.515625 469.222656 450.292969 468.710938 C 449.886719 467.777344 449.433594 466.753906 448.480469 466.15625 C 448.515625 464.164062 448.425781 462.257812 448.257812 460.429688 C 449.421875 461.210938 450.71875 462.601562 451.25 465.035156 C 451.359375 465.546875 451.691406 465.988281 452.152344 466.234375 C 452.277344 466.300781 463.945312 472.726562 466.109375 486.035156 C 464.839844 485.617188 463.347656 485.285156 462.011719 485.398438 C 461.023438 485.476562 460.289062 486.34375 460.371094 487.332031 C 460.453125 488.320312 461.339844 489.058594 462.308594 488.96875 C 463.722656 488.855469 466.109375 489.78125 467.324219 490.410156 C 467.804688 490.714844 475.285156 495.574219 476.308594 503.117188 C 474.113281 503.226562 471.4375 504.289062 469.910156 507.71875 C 469.511719 508.625 469.917969 509.683594 470.824219 510.085938 C 471.058594 510.191406 471.308594 510.242188 471.550781 510.242188 C 472.238281 510.242188 472.894531 509.84375 473.191406 509.175781 C 474.359375 506.554688 476.433594 506.585938 477.34375 506.746094 C 480.621094 509.867188 483.46875 513.367188 484.519531 515.429688 C 483.289062 515.566406 481.75 516.164062 479.964844 517.738281 C 479.222656 518.390625 479.152344 519.523438 479.808594 520.265625 C 480.164062 520.667969 480.65625 520.871094 481.15625 520.871094 C 481.578125 520.871094 482 520.726562 482.339844 520.425781 C 484.152344 518.828125 485.234375 518.886719 485.492188 519.042969 C 485.421875 519 485.390625 518.960938 485.390625 518.960938 L 485.394531 518.957031 C 485.558594 519.101562 485.746094 519.222656 485.957031 519.300781 C 486.003906 519.320312 490.078125 521.082031 491.257812 528.488281 C 491.027344 528.527344 490.804688 528.609375 490.59375 528.738281 C 490.300781 528.925781 483.414062 533.382812 482.085938 545.574219 C 481.957031 546.75 481.816406 548.269531 481.6875 549.996094 C 481.660156 550.152344 481.640625 550.300781 481.65625 550.460938 C 481.578125 551.535156 481.507812 552.679688 481.449219 553.875 C 481.378906 554.125 481.371094 554.382812 481.414062 554.636719 C 481.097656 561.613281 481.191406 569.917969 482.734375 574.203125 Z M 407.175781 464.238281 C 407.167969 463.253906 406.367188 462.457031 405.382812 462.457031 C 405.378906 462.457031 405.375 462.457031 405.371094 462.457031 C 404.378906 462.464844 403.582031 463.273438 403.585938 464.261719 C 403.59375 464.886719 404.003906 527.023438 404.003906 546.390625 C 404.003906 561.222656 403.703125 570.597656 403.558594 574.203125 L 394.863281 574.203125 C 394.886719 561.632812 395.242188 547.652344 395.929688 532.601562 C 395.976562 531.613281 395.210938 530.773438 394.222656 530.730469 C 393.261719 530.699219 392.390625 531.449219 392.347656 532.4375 C 391.652344 547.542969 391.296875 561.578125 391.273438 574.203125 L 381.511719 574.203125 C 381.65625 556.40625 384.257812 516.144531 384.832031 507.410156 C 386.171875 507.277344 387.652344 506.644531 389.382812 505.261719 C 394.417969 501.242188 395.71875 479.382812 395.929688 475.039062 C 395.980469 474.050781 395.214844 473.210938 394.226562 473.164062 C 393.242188 473.097656 392.394531 473.878906 392.347656 474.867188 C 391.855469 484.992188 389.917969 500.246094 387.144531 502.460938 C 385.0625 504.121094 384.101562 504.21875 382.386719 503.136719 C 386.480469 500.203125 389.042969 489.921875 389.042969 461.398438 C 389.042969 453.855469 389.527344 445.511719 389.824219 441.085938 C 390.152344 441.78125 390.371094 442.566406 390.460938 443.070312 C 390.460938 443.085938 390.472656 443.097656 390.476562 443.113281 C 390.484375 443.148438 390.484375 443.183594 390.492188 443.21875 C 390.507812 443.28125 392.019531 449.398438 391.722656 462.320312 C 391.699219 463.3125 392.484375 464.132812 393.476562 464.15625 C 393.492188 464.15625 393.503906 464.15625 393.519531 464.15625 C 394.492188 464.15625 395.289062 463.378906 395.3125 462.402344 C 395.460938 455.910156 395.171875 451.097656 394.820312 447.804688 C 395.957031 449.246094 396.820312 450.6875 397.398438 451.777344 C 396.871094 452.085938 396.503906 452.578125 396.527344 453.382812 C 396.582031 455.238281 398.316406 455.308594 400.714844 455.410156 C 403.578125 455.527344 406.628906 461.40625 407.660156 464.234375 C 407.886719 464.859375 408.441406 465.308594 409.101562 465.398438 C 409.53125 465.460938 411.070312 465.632812 412.660156 465.378906 C 414.632812 466.066406 416.6875 466.835938 416.695312 466.835938 C 416.902344 466.914062 417.117188 466.953125 417.324219 466.953125 C 418.050781 466.953125 418.734375 466.507812 419.003906 465.789062 C 419.351562 464.863281 418.882812 463.828125 417.953125 463.480469 C 417.953125 463.480469 417.386719 463.269531 416.566406 462.96875 C 417.496094 461.457031 417.832031 459.425781 417.882812 457.476562 C 419.734375 458.867188 422.023438 459.730469 424.875 459.730469 C 426.992188 459.730469 428.875 459.21875 430.523438 458.238281 C 429.996094 463.414062 430.09375 469.332031 430.457031 474.894531 C 429.71875 475.492188 427.457031 476.414062 425.433594 476.414062 C 418.113281 476.414062 411.488281 467.457031 411.421875 467.367188 C 410.839844 466.566406 409.714844 466.390625 408.917969 466.972656 C 408.117188 467.554688 407.9375 468.671875 408.519531 469.472656 C 408.832031 469.902344 416.277344 480 425.433594 480 C 426.875 480 428.980469 479.589844 430.757812 478.816406 C 431.515625 487.453125 432.734375 494.433594 432.835938 495 C 432.933594 495.550781 433.28125 496.019531 433.773438 496.277344 C 434.035156 496.414062 434.320312 496.480469 434.605469 496.480469 C 434.859375 496.480469 435.117188 496.425781 435.359375 496.316406 C 435.910156 496.058594 440.878906 493.476562 445.464844 481.574219 C 446.605469 478.609375 447.347656 475.761719 447.824219 473.027344 C 447.972656 477.117188 448.367188 488.339844 448.59375 499.660156 C 448.304688 507.253906 445.5 515.816406 444.527344 518.578125 C 441.660156 519.164062 432.925781 520.832031 426.253906 520.832031 C 418.285156 520.832031 412.609375 519.25 412.550781 519.234375 C 411.59375 518.964844 410.605469 519.515625 410.335938 520.46875 C 410.0625 521.417969 410.613281 522.410156 411.566406 522.679688 C 411.816406 522.75 417.75 524.417969 426.253906 524.417969 C 432.53125 524.417969 440.261719 523.070312 444.015625 522.335938 L 443.914062 525.898438 C 440.34375 526.480469 431.011719 527.921875 425.835938 527.921875 C 419.773438 527.921875 416.03125 527.382812 414.019531 527.09375 C 413.125 526.964844 412.535156 526.878906 412.058594 526.878906 C 411.070312 526.878906 410.265625 527.683594 410.265625 528.671875 C 410.265625 529.664062 411.070312 530.464844 412.058594 530.464844 C 412.277344 530.464844 412.875 530.550781 413.507812 530.640625 C 415.605469 530.945312 419.515625 531.507812 425.835938 531.507812 C 431.265625 531.507812 440.578125 530.078125 444.339844 529.460938 L 448.402344 538.867188 C 448.425781 538.921875 448.464844 538.957031 448.492188 539.007812 C 448.484375 552.320312 448.671875 565.390625 448.671875 565.554688 L 448.582031 574.207031 L 407.152344 574.207031 C 407.296875 570.4375 407.59375 561.054688 407.59375 546.394531 C 407.59375 527.011719 407.179688 464.863281 407.175781 464.238281 Z M 349.320312 411.273438 C 349.308594 411.253906 349.296875 411.230469 349.285156 411.210938 L 347.988281 409.144531 L 347.988281 394.601562 C 348.304688 394.621094 348.617188 394.636719 348.910156 394.636719 C 349.589844 394.636719 350.195312 394.589844 350.664062 394.542969 L 350.664062 409.144531 Z M 350.328125 414.429688 L 349.191406 415.914062 L 348.074219 414.421875 L 349.054688 413.40625 C 349.09375 413.363281 349.132812 413.316406 349.171875 413.273438 C 349.265625 413.445312 349.390625 413.601562 349.546875 413.738281 Z M 347.675781 357.527344 L 348.820312 356.324219 C 348.894531 356.25 348.957031 356.171875 349.011719 356.089844 C 349.066406 356.171875 349.128906 356.253906 349.203125 356.328125 L 350.351562 357.527344 L 350.351562 367.683594 C 349.515625 367.527344 348.621094 367.449219 347.675781 367.429688 Z M 347.347656 352.1875 L 349.007812 349.628906 L 350.722656 352.285156 L 349.210938 353.839844 C 349.136719 353.917969 349.070312 354 349.011719 354.085938 C 348.96875 354.023438 348.921875 353.960938 348.867188 353.902344 Z M 344.15625 382.050781 C 344.839844 381.898438 345.382812 381.351562 345.523438 380.648438 C 345.632812 380.089844 345.46875 379.523438 345.105469 379.117188 C 345.066406 378.917969 345.046875 378.585938 345.121094 378.304688 C 345.394531 377.238281 345.925781 377.082031 346.164062 377.082031 C 346.164062 377.082031 346.167969 377.082031 346.167969 377.082031 C 346.277344 377.09375 346.386719 377.097656 346.492188 377.085938 C 348.945312 376.898438 351.148438 377.585938 351.234375 378.113281 C 351.253906 378.230469 351.300781 378.503906 351.117188 378.632812 C 350.433594 378.996094 350.0625 379.753906 350.191406 380.515625 C 350.320312 381.277344 350.921875 381.867188 351.6875 381.984375 C 351.914062 382.019531 351.957031 382.085938 351.96875 382.105469 C 352.074219 382.261719 352.128906 382.675781 352.035156 383.082031 C 352.011719 383.183594 351.988281 383.265625 351.964844 383.332031 C 351.335938 383.5625 350.867188 384.140625 350.800781 384.84375 C 350.722656 385.660156 351.207031 386.414062 351.957031 386.691406 C 351.964844 386.8125 351.96875 386.9375 351.972656 387.019531 L 351.972656 387.023438 C 351.917969 387.128906 351.816406 387.292969 351.734375 387.402344 C 351.335938 387.910156 351.242188 388.59375 351.492188 389.191406 C 351.605469 389.464844 351.78125 389.703125 352.003906 389.886719 C 351.96875 390.03125 351.914062 390.203125 351.828125 390.378906 C 351.679688 390.566406 351.011719 390.859375 350.585938 390.949219 C 348.773438 391.179688 346.621094 390.976562 346.238281 390.535156 C 346.035156 390.285156 346.070312 389.777344 346.113281 389.601562 C 346.328125 388.8125 345.984375 387.980469 345.277344 387.574219 C 345.273438 387.570312 344.828125 387.257812 344.753906 386.8125 C 344.679688 386.371094 344.800781 386.160156 344.78125 386.160156 C 345.390625 385.761719 345.777344 385.164062 345.632812 384.445312 C 345.492188 383.730469 345.003906 383.304688 344.285156 383.167969 C 344.222656 383.132812 344.082031 383.011719 344.082031 382.585938 C 344.082031 382.289062 344.125 382.125 344.15625 382.050781 Z M 355.371094 388.1875 C 355.496094 387.828125 355.582031 387.4375 355.5625 387.039062 L 355.558594 386.898438 C 355.53125 386.082031 355.390625 385.441406 355.183594 384.941406 C 355.320312 384.640625 355.4375 384.292969 355.527344 383.898438 C 355.851562 382.535156 355.632812 381.113281 354.945312 380.097656 C 354.839844 379.945312 354.726562 379.800781 354.605469 379.664062 C 354.820312 379.066406 354.914062 378.351562 354.777344 377.527344 C 354.246094 374.320312 350.257812 373.480469 347.332031 373.476562 C 346.757812 373.296875 346.378906 372.695312 346.238281 372.429688 C 345.953125 371.875 345.886719 371.359375 345.902344 371.066406 C 354.023438 370.257812 357.65625 376.539062 357.804688 376.804688 C 357.882812 376.945312 357.976562 377.074219 358.089844 377.191406 C 360.402344 379.570312 360.84375 381.453125 361.648438 384.871094 C 362.257812 387.46875 363.085938 390.953125 365.054688 395.863281 L 359.71875 399.859375 C 358.5 396.179688 357.710938 393.777344 357.679688 393.683594 C 357.527344 393.214844 357.183594 392.828125 356.734375 392.617188 L 355.09375 391.851562 C 355.382812 391.222656 356.007812 389.574219 355.371094 388.1875 Z M 366.503906 399.261719 C 372.023438 411.605469 384.445312 434.507812 386.433594 438.164062 C 386.246094 440.675781 385.457031 451.679688 385.457031 461.398438 C 385.457031 463.273438 385.441406 465.054688 385.421875 466.761719 C 383.554688 462.671875 380.992188 457.039062 378.691406 451.917969 C 378.691406 451.917969 378.691406 451.917969 378.691406 451.914062 C 376.292969 446.574219 374.179688 441.796875 373.445312 439.933594 C 371.15625 434.113281 364.820312 415.210938 360.910156 403.449219 Z M 375.378906 453.300781 C 375.617188 455.46875 377.117188 469.289062 377.921875 483.066406 C 378.449219 488.839844 379.550781 495.863281 381.832031 498.097656 C 380.964844 499.910156 380.035156 500.554688 379.15625 500.554688 C 378.585938 500.390625 373.796875 497.484375 372.867188 447.667969 C 373.625 449.390625 374.480469 451.300781 375.378906 453.300781 Z M 413.914062 437.375 C 416.40625 437.664062 420.152344 438.003906 424.171875 438.003906 C 428.28125 438.003906 432.273438 437.664062 434.902344 437.382812 C 434.671875 445.171875 432.917969 456.144531 424.875 456.144531 C 415.78125 456.144531 414.191406 442.722656 413.914062 437.375 Z M 508.894531 553.515625 C 510.90625 553.929688 513.40625 554.441406 514.6875 556.007812 C 515.660156 557.199219 515.21875 558.398438 512.996094 560.582031 C 512.78125 560.792969 512.601562 560.972656 512.472656 561.117188 C 511.578125 562.101562 510.859375 562.375 510.640625 562.441406 C 510.433594 562.371094 510.195312 562.230469 510.148438 562.148438 C 510.148438 562.144531 510.105469 561.496094 511.5625 560.035156 C 512.066406 559.523438 512.191406 558.761719 511.921875 558.09375 C 511.652344 557.429688 510.980469 556.992188 510.261719 556.976562 C 510.214844 556.976562 509.0625 556.945312 507.4375 555.683594 C 506.652344 555.074219 505.527344 555.214844 504.917969 556 C 504.3125 556.78125 504.453125 557.90625 505.234375 558.515625 C 505.945312 559.066406 506.625 559.472656 507.242188 559.765625 C 506.492188 561.109375 506.351562 562.363281 506.835938 563.519531 C 507.578125 565.304688 509.636719 566.042969 510.574219 566.042969 C 511.671875 566.042969 513.449219 565.382812 515.132812 563.519531 C 515.226562 563.417969 515.359375 563.289062 515.515625 563.136719 C 515.929688 562.726562 516.609375 562.058594 517.242188 561.203125 C 517.550781 561.695312 517.824219 562.113281 517.988281 562.316406 C 518.019531 562.351562 518.050781 562.390625 518.082031 562.425781 C 523.0625 567.613281 522.90625 569.222656 522.875 569.386719 C 522.863281 569.441406 522.746094 569.527344 522.578125 569.613281 C 521.734375 569.398438 519.585938 567.253906 518.054688 565.070312 C 517.6875 564.546875 517.0625 564.265625 516.425781 564.320312 C 515.789062 564.375 515.222656 564.777344 514.953125 565.355469 C 514.875 565.519531 514.578125 566 514.171875 566.234375 C 513.929688 566.375 513.75 566.363281 513.761719 566.375 C 513.15625 566.054688 512.511719 566.027344 511.953125 566.429688 C 511.476562 566.773438 511.269531 567.269531 511.296875 567.828125 C 510.882812 567.703125 510.421875 567.738281 509.996094 567.917969 C 509.296875 568.210938 508.867188 569.007812 508.910156 569.765625 C 508.910156 569.765625 508.878906 569.191406 508.878906 569.191406 C 508.859375 569.183594 507.722656 569.292969 504.671875 565.554688 C 502.867188 563.347656 501.6875 559.132812 501.976562 558.222656 C 502.265625 557.378906 502.28125 556.382812 499.386719 553.515625 L 499.136719 553.226562 L 503.15625 549.382812 L 503.875 550.363281 L 505.210938 552 C 505.960938 552.914062 507.191406 553.167969 508.894531 553.515625 Z M 496.773438 550.527344 L 487.132812 539.503906 C 488.355469 536.203125 489.984375 534.121094 491.132812 532.957031 L 501.019531 546.460938 Z M 318.316406 654.21875 L 318.316406 577.789062 L 534.988281 577.789062 L 534.996094 654.21875 Z M 397.523438 505.792969 C 397.523438 505.832031 397.105469 509.644531 396.300781 525.09375 C 396.25 526.050781 395.457031 526.792969 394.507812 526.792969 C 394.476562 526.792969 394.445312 526.792969 394.414062 526.789062 C 393.425781 526.738281 392.664062 525.894531 392.714844 524.90625 C 393.53125 509.269531 393.941406 505.542969 393.960938 505.394531 C 394.070312 504.410156 394.949219 503.699219 395.941406 503.8125 C 396.925781 503.925781 397.636719 504.8125 397.523438 505.792969 Z M 454.601562 480.003906 C 454.378906 479.300781 454.613281 478.503906 455.238281 478.035156 C 456.027344 477.441406 457.15625 477.601562 457.75 478.394531 C 458.941406 479.980469 458.910156 508.523438 458.816406 514.523438 C 458.800781 515.503906 458 516.285156 457.019531 516.285156 C 457.011719 516.285156 457 516.285156 456.992188 516.285156 C 456 516.269531 455.210938 515.457031 455.226562 514.464844 C 455.496094 497.613281 454.878906 481.855469 454.601562 480.003906 Z M 458.882812 523.28125 C 458.875 523.5 458.496094 545.320312 458.496094 548.808594 C 458.496094 549.800781 457.691406 550.601562 456.699219 550.601562 C 455.710938 550.601562 454.90625 549.800781 454.90625 548.808594 C 454.90625 545.289062 455.277344 524.117188 455.292969 523.21875 C 455.308594 522.238281 456.109375 521.457031 457.085938 521.457031 C 457.097656 521.457031 457.105469 521.457031 457.117188 521.457031 C 458.109375 521.476562 458.898438 522.292969 458.882812 523.28125 Z M 469.378906 515.019531 C 469.351562 515.089844 468.15625 518.113281 468.21875 522.488281 C 468.234375 523.476562 467.441406 524.292969 466.453125 524.304688 C 466.441406 524.304688 466.433594 524.304688 466.425781 524.304688 C 465.445312 524.304688 464.644531 523.523438 464.628906 522.539062 C 464.554688 517.355469 465.996094 513.804688 466.058594 513.65625 C 466.4375 512.742188 467.484375 512.304688 468.402344 512.683594 C 469.316406 513.0625 469.753906 514.109375 469.378906 515.019531 Z M 468.128906 530.148438 L 468.128906 557.644531 C 468.128906 558.632812 467.324219 559.4375 466.332031 559.4375 C 465.34375 559.4375 464.539062 558.632812 464.539062 557.644531 L 464.539062 530.148438 C 464.539062 529.160156 465.34375 528.355469 466.332031 528.355469 C 467.324219 528.355469 468.128906 529.160156 468.128906 530.148438 Z M 479.171875 530.820312 C 479.160156 530.890625 478.148438 537.722656 478.148438 559.109375 C 478.148438 560.097656 477.34375 560.902344 476.351562 560.902344 C 475.363281 560.902344 474.558594 560.097656 474.558594 559.109375 C 474.558594 537.328125 475.582031 530.550781 475.625 530.269531 C 475.777344 529.292969 476.699219 528.625 477.675781 528.777344 C 478.652344 528.929688 479.324219 529.84375 479.171875 530.820312 Z M 428.066406 450.867188 C 428.367188 451.8125 427.847656 452.820312 426.902344 453.121094 C 426.078125 453.386719 425.304688 453.476562 424.632812 453.476562 C 423.335938 453.476562 422.421875 453.140625 422.277344 453.085938 C 421.351562 452.730469 420.894531 451.691406 421.25 450.765625 C 421.609375 449.851562 422.636719 449.394531 423.550781 449.734375 C 423.609375 449.753906 424.625 450.085938 425.808594 449.707031 C 426.757812 449.40625 427.761719 449.925781 428.066406 450.867188 Z M 419.574219 443.566406 C 418.144531 443.566406 417.050781 443.023438 416.878906 442.933594 C 416 442.472656 415.660156 441.390625 416.121094 440.511719 C 416.585938 439.636719 417.667969 439.300781 418.546875 439.757812 C 418.546875 439.757812 419.554688 440.234375 420.402344 439.78125 C 421.273438 439.3125 422.363281 439.644531 422.828125 440.519531 C 423.296875 441.390625 422.964844 442.476562 422.089844 442.941406 C 421.214844 443.410156 420.347656 443.566406 419.574219 443.566406 Z M 426.027344 440.511719 C 426.492188 439.636719 427.574219 439.300781 428.453125 439.757812 C 428.453125 439.757812 429.460938 440.234375 430.308594 439.78125 C 431.179688 439.3125 432.269531 439.644531 432.738281 440.519531 C 433.203125 441.390625 432.871094 442.476562 431.996094 442.941406 C 431.121094 443.410156 430.253906 443.566406 429.484375 443.566406 C 428.050781 443.566406 426.957031 443.023438 426.785156 442.933594 C 425.90625 442.472656 425.570312 441.390625 426.027344 440.511719 Z M 424.453125 444.882812 C 425.273438 444.6875 426.15625 445.097656 426.511719 445.902344 C 426.914062 446.804688 426.507812 447.863281 425.601562 448.265625 C 425.4375 448.339844 424.996094 448.507812 424.453125 448.507812 C 423.910156 448.507812 423.46875 448.339844 423.308594 448.265625 C 422.398438 447.863281 421.992188 446.804688 422.394531 445.902344 C 422.753906 445.097656 423.625 444.6875 424.453125 444.882812 Z M 475.023438 630.808594 C 475.015625 630.753906 475.011719 630.695312 475 630.640625 C 474.992188 630.585938 474.972656 630.53125 474.957031 630.472656 C 474.9375 630.417969 474.921875 630.359375 474.898438 630.304688 C 474.890625 630.285156 474.886719 630.265625 474.878906 630.25 C 474.863281 630.214844 474.84375 630.183594 474.824219 630.152344 C 474.792969 630.097656 474.765625 630.042969 474.730469 629.988281 C 474.699219 629.941406 474.664062 629.902344 474.628906 629.859375 C 474.589844 629.808594 474.550781 629.761719 474.507812 629.71875 C 474.46875 629.679688 474.425781 629.644531 474.382812 629.609375 C 474.335938 629.570312 474.289062 629.53125 474.238281 629.5 C 474.1875 629.464844 474.136719 629.4375 474.085938 629.410156 C 474.050781 629.390625 474.019531 629.367188 473.980469 629.351562 L 466.828125 626.128906 C 466.597656 626.023438 466.34375 625.96875 466.089844 625.96875 L 406.640625 625.96875 C 406.796875 623.269531 407.082031 620.871094 407.683594 618.328125 C 407.832031 617.691406 407.625 617.023438 407.136719 616.585938 C 406.652344 616.148438 405.960938 616.007812 405.347656 616.222656 C 401.5 617.5625 399.21875 620.996094 398.777344 625.96875 L 386.972656 625.96875 C 386.964844 625.960938 386.964844 625.949219 386.957031 625.9375 L 385.3125 623.886719 C 384.855469 623.316406 384.097656 623.078125 383.394531 623.289062 C 383.203125 623.347656 378.707031 624.769531 378.707031 631.003906 C 378.707031 637.277344 383.382812 638.601562 383.582031 638.65625 C 383.738281 638.699219 383.894531 638.71875 384.046875 638.71875 C 384.585938 638.71875 385.105469 638.476562 385.449219 638.042969 L 387.089844 635.996094 L 398.8125 635.996094 C 399.503906 645.238281 405.488281 645.960938 405.757812 645.988281 C 405.816406 645.992188 405.875 645.996094 405.9375 645.996094 C 406.429688 645.996094 406.902344 645.792969 407.242188 645.433594 C 407.625 645.027344 407.796875 644.46875 407.707031 643.917969 L 407.570312 643.054688 C 407.121094 640.273438 406.78125 638.152344 406.597656 635.996094 L 466.089844 635.996094 C 466.34375 635.996094 466.59375 635.941406 466.828125 635.835938 L 473.980469 632.621094 C 474.039062 632.59375 474.089844 632.558594 474.140625 632.527344 C 474.171875 632.507812 474.207031 632.492188 474.238281 632.472656 C 474.363281 632.386719 474.480469 632.289062 474.578125 632.179688 C 474.59375 632.160156 474.609375 632.140625 474.625 632.121094 C 474.710938 632.015625 474.785156 631.898438 474.847656 631.777344 C 474.855469 631.757812 474.871094 631.742188 474.878906 631.722656 C 474.886719 631.707031 474.890625 631.6875 474.898438 631.671875 C 474.921875 631.613281 474.941406 631.550781 474.957031 631.488281 C 474.972656 631.433594 474.992188 631.382812 475 631.332031 C 475.011719 631.273438 475.015625 631.210938 475.023438 631.152344 C 475.027344 631.097656 475.035156 631.042969 475.035156 630.988281 C 475.035156 630.925781 475.027344 630.867188 475.023438 630.808594 Z M 465.703125 632.410156 L 406.449219 632.410156 C 406.449219 632.070312 406.445312 631.738281 406.453125 631.382812 C 406.46875 630.753906 406.484375 630.144531 406.5 629.554688 L 465.703125 629.554688 L 468.875 630.984375 Z M 504.054688 596.160156 C 492.625 596.160156 483.324219 605.449219 483.324219 616.863281 C 483.324219 628.28125 492.625 637.570312 504.054688 637.570312 C 515.484375 637.570312 524.785156 628.28125 524.785156 616.863281 C 524.785156 605.449219 515.484375 596.160156 504.054688 596.160156 Z M 519.992188 610.605469 C 519.789062 610.523438 519.570312 610.472656 519.34375 610.472656 L 509.050781 610.472656 L 505.871094 600.691406 C 505.75 600.328125 505.519531 600.023438 505.222656 599.804688 C 511.953125 600.261719 517.621094 604.601562 519.992188 610.605469 Z M 513.820312 614.054688 L 510.902344 616.171875 L 510.214844 614.054688 Z M 500.472656 618.386719 L 501.882812 614.054688 L 506.441406 614.054688 L 507.851562 618.386719 L 504.164062 621.0625 Z M 501.109375 623.277344 L 498.195312 625.394531 L 499.308594 621.96875 Z M 504.164062 607.046875 L 505.277344 610.472656 L 503.050781 610.472656 Z M 509.015625 621.96875 L 510.128906 625.394531 L 507.214844 623.277344 Z M 503.117188 599.792969 C 502.8125 600.011719 502.578125 600.320312 502.457031 600.691406 L 499.277344 610.472656 L 488.984375 610.472656 C 488.648438 610.472656 488.339844 610.578125 488.066406 610.742188 C 490.433594 604.601562 496.234375 600.167969 503.117188 599.792969 Z M 498.109375 614.054688 L 497.421875 616.171875 L 494.507812 614.054688 Z M 486.914062 616.863281 C 486.914062 615.535156 487.082031 614.246094 487.371094 613.003906 C 487.496094 613.277344 487.671875 613.527344 487.929688 613.714844 L 496.253906 619.753906 L 493.074219 629.53125 C 493.03125 629.664062 493.023438 629.800781 493.011719 629.9375 C 489.289062 626.792969 486.914062 622.101562 486.914062 616.863281 Z M 495.527344 631.691406 C 495.632812 631.644531 495.742188 631.605469 495.835938 631.535156 L 504.164062 625.492188 L 512.488281 631.535156 C 512.546875 631.578125 512.617188 631.597656 512.683594 631.632812 C 510.144531 633.117188 507.203125 633.984375 504.054688 633.984375 C 500.949219 633.984375 498.042969 633.140625 495.527344 631.691406 Z M 515.289062 629.765625 C 515.273438 629.6875 515.277344 629.609375 515.25 629.53125 L 512.070312 619.753906 L 520.398438 613.714844 C 520.5625 613.59375 520.699219 613.449219 520.8125 613.285156 C 521.058594 614.441406 521.195312 615.636719 521.195312 616.863281 C 521.195312 622.011719 518.898438 626.625 515.289062 629.765625 Z M 387.257812 606.59375 C 391.449219 606.003906 396.15625 605.929688 399.140625 605.957031 L 398.195312 607.570312 C 397.945312 607.996094 397.882812 608.503906 398.019531 608.980469 C 398.160156 609.453125 398.488281 609.851562 398.929688 610.074219 L 403.328125 612.3125 C 403.585938 612.445312 403.867188 612.507812 404.140625 612.507812 C 404.628906 612.507812 405.105469 612.3125 405.453125 611.9375 L 410.160156 606.90625 C 417.152344 606.832031 469.308594 606.285156 470.59375 606.285156 C 472.542969 606.285156 474.402344 604.492188 474.664062 602.371094 C 474.863281 600.734375 474.03125 598.5625 471.027344 597.820312 C 467.152344 596.863281 428.277344 595.4375 420.640625 595.167969 L 416.566406 589.78125 C 416.003906 589.039062 414.972656 588.851562 414.183594 589.339844 L 409.746094 592.105469 C 409.332031 592.367188 409.039062 592.78125 408.9375 593.261719 C 408.847656 593.703125 408.925781 594.164062 409.15625 594.550781 C 401.9375 594.089844 386.320312 593.089844 383.15625 592.839844 C 383.144531 592.839844 383.128906 592.839844 383.117188 592.839844 C 381.296875 592.734375 377.589844 593.574219 376.679688 597.511719 C 376.160156 599.75 375.695312 602.96875 377.621094 605.066406 C 379.6875 607.316406 383.472656 607.132812 387.257812 606.59375 Z M 380.175781 598.320312 C 380.605469 596.457031 382.515625 596.398438 382.910156 596.417969 C 387.175781 596.75 412.351562 598.34375 412.605469 598.363281 C 413.296875 598.402344 413.941406 598.054688 414.28125 597.457031 C 414.617188 596.863281 414.585938 596.125 414.199219 595.558594 L 413.238281 594.15625 L 414.691406 593.25 L 418.289062 598.007812 C 418.617188 598.441406 419.121094 598.703125 419.660156 598.71875 C 438.429688 599.378906 467.367188 600.609375 470.164062 601.300781 C 470.257812 601.324219 471.101562 601.542969 471.105469 601.871094 C 471.105469 602.234375 470.730469 602.65625 470.59375 602.699219 C 469.207031 602.699219 411.796875 603.300781 409.351562 603.328125 C 408.863281 603.335938 408.394531 603.539062 408.058594 603.898438 L 403.753906 608.503906 L 402.253906 607.742188 L 403.773438 605.148438 C 404.09375 604.605469 404.105469 603.941406 403.804688 603.386719 C 403.507812 602.835938 402.941406 602.480469 402.316406 602.449219 C 401.972656 602.433594 393.820312 602.046875 386.753906 603.046875 C 385.414062 603.234375 381.339844 603.8125 380.269531 602.640625 C 379.707031 602.03125 379.671875 600.496094 380.175781 598.320312 Z M 363.257812 595.699219 C 363.203125 594.679688 363.15625 593.785156 363.15625 593.0625 C 363.15625 592.070312 362.351562 591.269531 361.359375 591.269531 L 334.546875 591.269531 C 334.539062 591.269531 334.53125 591.269531 334.523438 591.273438 C 334.511719 591.273438 334.503906 591.269531 334.496094 591.269531 C 333.507812 591.269531 332.703125 592.070312 332.703125 593.0625 C 332.703125 593.785156 332.652344 594.679688 332.597656 595.699219 C 332.324219 600.949219 331.859375 609.734375 336.765625 614.898438 C 338.15625 616.363281 339.882812 617.421875 341.914062 618.09375 L 341.25 619.800781 C 341.019531 620.390625 341.117188 621.054688 341.507812 621.550781 L 343.878906 624.585938 L 342.871094 637.261719 L 335.832031 637.261719 C 334.84375 637.261719 334.039062 638.0625 334.039062 639.054688 L 334.039062 640.90625 C 334.039062 641.894531 334.84375 642.699219 335.832031 642.699219 L 347.914062 642.699219 C 347.917969 642.699219 347.925781 642.695312 347.929688 642.695312 C 347.933594 642.695312 347.9375 642.699219 347.945312 642.699219 L 360.023438 642.699219 C 361.015625 642.699219 361.820312 641.894531 361.820312 640.90625 L 361.820312 639.054688 C 361.820312 638.0625 361.015625 637.261719 360.023438 637.261719 L 352.988281 637.261719 L 351.980469 624.585938 L 354.347656 621.550781 C 354.738281 621.054688 354.835938 620.390625 354.609375 619.800781 L 353.945312 618.09375 C 355.972656 617.421875 357.703125 616.363281 359.089844 614.902344 C 364 609.734375 363.535156 600.949219 363.257812 595.699219 Z M 359.671875 595.886719 C 359.703125 596.445312 359.734375 597.039062 359.761719 597.652344 L 336.097656 597.652344 C 336.125 597.039062 336.15625 596.445312 336.183594 595.886719 C 336.203125 595.527344 336.21875 595.183594 336.234375 594.855469 L 359.621094 594.855469 C 359.636719 595.183594 359.65625 595.527344 359.671875 595.886719 Z M 348.476562 625.828125 L 349.390625 637.273438 L 346.46875 637.273438 L 347.382812 625.828125 Z M 350.894531 620.148438 L 349.257812 622.242188 L 346.597656 622.242188 L 344.964844 620.148438 L 345.472656 618.839844 C 346.179688 618.910156 346.902344 618.960938 347.664062 618.960938 C 347.753906 618.960938 347.84375 618.949219 347.929688 618.933594 C 348.015625 618.949219 348.105469 618.960938 348.195312 618.960938 C 348.957031 618.960938 349.679688 618.910156 350.382812 618.839844 Z M 348.195312 615.375 C 348.105469 615.375 348.015625 615.390625 347.929688 615.402344 C 347.839844 615.390625 347.753906 615.375 347.664062 615.375 C 343.964844 615.375 341.25 614.414062 339.371094 612.433594 C 336.753906 609.675781 336.101562 605.3125 336.035156 601.234375 L 359.824219 601.234375 C 359.757812 605.3125 359.105469 609.675781 356.488281 612.433594 C 354.609375 614.414062 351.894531 615.375 348.195312 615.375 Z M 406.980469 405.222656 C 406.980469 407.800781 408.613281 409.972656 411.347656 411.03125 C 412.453125 411.460938 413.761719 411.699219 415.179688 411.699219 C 418.28125 411.699219 421.90625 410.558594 425.078125 407.738281 C 428.25 410.558594 431.875 411.699219 434.976562 411.699219 C 436.394531 411.699219 437.703125 411.460938 438.808594 411.03125 C 441.542969 409.972656 443.171875 407.800781 443.171875 405.222656 C 443.171875 402.644531 441.542969 400.46875 438.808594 399.410156 C 435.292969 398.050781 429.703125 398.609375 425.078125 402.722656 C 420.453125 398.609375 414.867188 398.046875 411.347656 399.410156 C 408.613281 400.46875 406.980469 402.644531 406.980469 405.222656 Z M 437.507812 402.753906 C 438.285156 403.054688 439.585938 403.773438 439.585938 405.222656 C 439.585938 406.671875 438.285156 407.390625 437.511719 407.691406 C 434.988281 408.667969 430.996094 408.058594 427.660156 405.222656 C 431 402.382812 434.992188 401.777344 437.507812 402.753906 Z M 412.648438 402.753906 C 415.164062 401.777344 419.15625 402.382812 422.496094 405.222656 C 419.160156 408.058594 415.167969 408.667969 412.644531 407.691406 C 411.871094 407.390625 410.570312 406.671875 410.570312 405.222656 C 410.570312 403.773438 411.871094 403.054688 412.648438 402.753906 Z M 424.863281 329.175781 L 424.863281 310.269531 C 424.863281 309.28125 425.667969 308.476562 426.65625 308.476562 C 427.648438 308.476562 428.453125 309.28125 428.453125 310.269531 L 428.453125 329.175781 C 428.453125 330.164062 427.648438 330.964844 426.65625 330.964844 C 425.667969 330.964844 424.863281 330.164062 424.863281 329.175781 Z M 400.332031 363.210938 C 400.332031 364.121094 399.589844 364.863281 398.675781 364.863281 C 396.558594 364.863281 394.839844 366.582031 394.839844 368.695312 C 394.839844 369.609375 394.097656 370.347656 393.183594 370.347656 C 392.269531 370.347656 391.527344 369.609375 391.527344 368.695312 C 391.527344 366.582031 389.804688 364.863281 387.691406 364.863281 C 386.777344 364.863281 386.035156 364.121094 386.035156 363.210938 C 386.035156 362.296875 386.777344 361.554688 387.691406 361.554688 C 389.804688 361.554688 391.527344 359.835938 391.527344 357.722656 C 391.527344 356.808594 392.269531 356.070312 393.183594 356.070312 C 394.097656 356.070312 394.839844 356.808594 394.839844 357.722656 C 394.839844 359.835938 396.558594 361.554688 398.675781 361.554688 C 399.589844 361.554688 400.332031 362.296875 400.332031 363.210938 Z M 468.417969 363.210938 C 468.417969 364.121094 467.675781 364.863281 466.761719 364.863281 C 464.644531 364.863281 462.925781 366.582031 462.925781 368.695312 C 462.925781 369.609375 462.183594 370.347656 461.269531 370.347656 C 460.355469 370.347656 459.613281 369.609375 459.613281 368.695312 C 459.613281 366.582031 457.890625 364.863281 455.777344 364.863281 C 454.863281 364.863281 454.121094 364.121094 454.121094 363.210938 C 454.121094 362.296875 454.863281 361.554688 455.777344 361.554688 C 457.890625 361.554688 459.613281 359.835938 459.613281 357.722656 C 459.613281 356.808594 460.355469 356.070312 461.269531 356.070312 C 462.183594 356.070312 462.925781 356.808594 462.925781 357.722656 C 462.925781 359.835938 464.644531 361.554688 466.761719 361.554688 C 467.675781 361.554688 468.417969 362.296875 468.417969 363.210938 Z M 504.761719 403.441406 C 504.761719 401.328125 503.039062 399.609375 500.925781 399.609375 C 500.011719 399.609375 499.269531 398.867188 499.269531 397.953125 C 499.269531 397.042969 500.011719 396.300781 500.925781 396.300781 C 503.039062 396.300781 504.761719 394.582031 504.761719 392.46875 C 504.761719 391.554688 505.503906 390.816406 506.417969 390.816406 C 507.332031 390.816406 508.074219 391.554688 508.074219 392.46875 C 508.074219 394.582031 509.792969 396.300781 511.910156 396.300781 C 512.824219 396.300781 513.566406 397.042969 513.566406 397.953125 C 513.566406 398.867188 512.824219 399.609375 511.910156 399.609375 C 509.792969 399.609375 508.074219 401.328125 508.074219 403.441406 C 508.074219 404.351562 507.332031 405.09375 506.417969 405.09375 C 505.503906 405.09375 504.761719 404.351562 504.761719 403.441406 Z M 486.574219 445.695312 C 486.574219 446.609375 485.832031 447.351562 484.917969 447.351562 C 482.800781 447.351562 481.082031 449.070312 481.082031 451.179688 C 481.082031 452.09375 480.339844 452.835938 479.425781 452.835938 C 478.511719 452.835938 477.769531 452.09375 477.769531 451.179688 C 477.769531 449.070312 476.046875 447.351562 473.933594 447.351562 C 473.019531 447.351562 472.277344 446.609375 472.277344 445.695312 C 472.277344 444.78125 473.019531 444.042969 473.933594 444.042969 C 476.046875 444.042969 477.769531 442.324219 477.769531 440.210938 C 477.769531 439.296875 478.511719 438.558594 479.425781 438.558594 C 480.339844 438.558594 481.082031 439.296875 481.082031 440.210938 C 481.082031 442.324219 482.800781 444.042969 484.917969 444.042969 C 485.832031 444.042969 486.574219 444.78125 486.574219 445.695312 Z M 339.894531 467.265625 C 340.808594 467.265625 341.550781 468.003906 341.550781 468.917969 C 341.550781 471.03125 343.273438 472.75 345.386719 472.75 C 346.300781 472.75 347.042969 473.492188 347.042969 474.402344 C 347.042969 475.316406 346.300781 476.058594 345.386719 476.058594 C 343.273438 476.058594 341.550781 477.777344 341.550781 479.890625 C 341.550781 480.800781 340.808594 481.542969 339.894531 481.542969 C 338.980469 481.542969 338.238281 480.800781 338.238281 479.890625 C 338.238281 477.777344 336.519531 476.058594 334.402344 476.058594 C 333.488281 476.058594 332.746094 475.316406 332.746094 474.402344 C 332.746094 473.492188 333.488281 472.75 334.402344 472.75 C 336.519531 472.75 338.238281 471.03125 338.238281 468.917969 C 338.238281 468.003906 338.980469 467.265625 339.894531 467.265625 Z M 347.429688 530.871094 C 347.429688 529.957031 348.171875 529.214844 349.085938 529.214844 C 351.199219 529.214844 352.921875 527.496094 352.921875 525.382812 C 352.921875 524.46875 353.664062 523.730469 354.578125 523.730469 C 355.492188 523.730469 356.234375 524.46875 356.234375 525.382812 C 356.234375 527.496094 357.953125 529.214844 360.070312 529.214844 C 360.984375 529.214844 361.726562 529.957031 361.726562 530.871094 C 361.726562 531.78125 360.984375 532.523438 360.070312 532.523438 C 357.953125 532.523438 356.234375 534.242188 356.234375 536.355469 C 356.234375 537.269531 355.492188 538.007812 354.578125 538.007812 C 353.664062 538.007812 352.921875 537.269531 352.921875 536.355469 C 352.921875 534.242188 351.199219 532.523438 349.085938 532.523438 C 348.171875 532.523438 347.429688 531.78125 347.429688 530.871094 Z M 518.671875 492.804688 C 518.671875 493.71875 517.929688 494.460938 517.015625 494.460938 C 514.898438 494.460938 513.179688 496.179688 513.179688 498.292969 C 513.179688 499.203125 512.4375 499.945312 511.523438 499.945312 C 510.609375 499.945312 509.867188 499.203125 509.867188 498.292969 C 509.867188 496.179688 508.144531 494.460938 506.03125 494.460938 C 505.117188 494.460938 504.375 493.71875 504.375 492.804688 C 504.375 491.894531 505.117188 491.152344 506.03125 491.152344 C 508.144531 491.152344 509.867188 489.433594 509.867188 487.320312 C 509.867188 486.40625 510.609375 485.667969 511.523438 485.667969 C 512.4375 485.667969 513.179688 486.40625 513.179688 487.320312 C 513.179688 489.433594 514.898438 491.152344 517.015625 491.152344 C 517.929688 491.152344 518.671875 491.890625 518.671875 492.804688 Z M 333.023438 668.886719 C 333.40625 669.273438 333.601562 669.738281 333.601562 670.28125 C 333.601562 670.824219 333.40625 671.289062 333.023438 671.671875 C 332.628906 672.058594 332.160156 672.25 331.613281 672.25 L 327.40625 672.25 L 327.40625 685.097656 C 327.40625 685.652344 327.214844 686.117188 326.828125 686.503906 C 326.445312 686.886719 325.976562 687.082031 325.433594 687.082031 C 324.890625 687.082031 324.421875 686.886719 324.027344 686.503906 C 323.640625 686.117188 323.449219 685.652344 323.449219 685.097656 L 323.449219 672.25 L 319.253906 672.25 C 318.699219 672.25 318.230469 672.058594 317.847656 671.671875 C 317.460938 671.289062 317.269531 670.824219 317.269531 670.28125 C 317.269531 669.738281 317.460938 669.273438 317.847656 668.886719 C 318.230469 668.496094 318.699219 668.300781 319.253906 668.300781 L 331.613281 668.300781 C 332.160156 668.300781 332.628906 668.496094 333.023438 668.886719 Z M 353.085938 668.886719 C 353.46875 669.273438 353.660156 669.738281 353.660156 670.28125 L 353.660156 685.097656 C 353.660156 685.652344 353.46875 686.117188 353.085938 686.503906 C 352.691406 686.886719 352.222656 687.082031 351.675781 687.082031 C 351.132812 687.082031 350.667969 686.886719 350.28125 686.503906 C 349.898438 686.117188 349.703125 685.652344 349.703125 685.097656 L 349.703125 679.664062 L 341.289062 679.664062 L 341.289062 685.097656 C 341.289062 685.652344 341.09375 686.117188 340.710938 686.503906 C 340.324219 686.886719 339.859375 687.082031 339.316406 687.082031 C 338.761719 687.082031 338.292969 686.886719 337.910156 686.503906 C 337.523438 686.117188 337.332031 685.652344 337.332031 685.097656 L 337.332031 670.28125 C 337.332031 669.738281 337.523438 669.273438 337.910156 668.886719 C 338.292969 668.496094 338.761719 668.300781 339.316406 668.300781 C 339.859375 668.300781 340.324219 668.496094 340.710938 668.886719 C 341.09375 669.273438 341.289062 669.738281 341.289062 670.28125 L 341.289062 675.714844 L 349.703125 675.714844 L 349.703125 670.28125 C 349.703125 669.738281 349.898438 669.273438 350.28125 668.886719 C 350.667969 668.496094 351.132812 668.300781 351.675781 668.300781 C 352.21875 668.300781 352.691406 668.496094 353.085938 668.886719 Z M 362.832031 672.25 L 362.832031 675.714844 L 370.746094 675.714844 C 371.289062 675.714844 371.757812 675.90625 372.152344 676.292969 C 372.539062 676.675781 372.730469 677.144531 372.730469 677.695312 C 372.730469 678.238281 372.539062 678.703125 372.152344 679.089844 C 371.757812 679.472656 371.289062 679.664062 370.746094 679.664062 L 362.832031 679.664062 L 362.832031 683.128906 L 373.21875 683.128906 C 373.765625 683.128906 374.234375 683.320312 374.628906 683.707031 C 375.011719 684.089844 375.207031 684.554688 375.207031 685.097656 C 375.207031 685.652344 375.011719 686.117188 374.628906 686.503906 C 374.234375 686.886719 373.765625 687.082031 373.21875 687.082031 L 360.859375 687.082031 C 360.308594 687.082031 359.835938 686.886719 359.453125 686.503906 C 359.066406 686.117188 358.875 685.652344 358.875 685.097656 L 358.875 670.28125 C 358.875 669.734375 359.066406 669.273438 359.453125 668.886719 C 359.835938 668.496094 360.308594 668.296875 360.859375 668.296875 L 373.21875 668.296875 C 373.765625 668.296875 374.234375 668.496094 374.628906 668.886719 C 375.011719 669.273438 375.207031 669.734375 375.207031 670.28125 C 375.207031 670.824219 375.011719 671.289062 374.628906 671.671875 C 374.234375 672.058594 373.765625 672.25 373.21875 672.25 Z M 409.398438 669.175781 C 409.625 669.511719 409.738281 669.878906 409.738281 670.28125 L 409.738281 685.097656 C 409.738281 685.652344 409.539062 686.117188 409.148438 686.503906 C 408.761719 686.886719 408.296875 687.082031 407.753906 687.082031 C 407.207031 687.082031 406.742188 686.886719 406.359375 686.503906 C 405.972656 686.117188 405.78125 685.652344 405.78125 685.097656 L 405.78125 675.046875 L 401.734375 679.089844 C 401.351562 679.472656 400.882812 679.667969 400.328125 679.667969 C 399.785156 679.667969 399.320312 679.472656 398.933594 679.089844 L 394.890625 675.046875 L 394.890625 685.097656 C 394.890625 685.652344 394.699219 686.117188 394.3125 686.503906 C 393.925781 686.886719 393.460938 687.082031 392.917969 687.082031 C 392.367188 687.082031 391.894531 686.886719 391.511719 686.503906 C 391.125 686.117188 390.933594 685.652344 390.933594 685.097656 L 390.933594 670.28125 C 390.933594 669.878906 391.046875 669.511719 391.273438 669.175781 C 391.488281 668.851562 391.785156 668.609375 392.152344 668.449219 C 392.519531 668.300781 392.898438 668.261719 393.292969 668.335938 C 393.6875 668.417969 394.027344 668.601562 394.3125 668.886719 L 400.328125 674.898438 L 406.359375 668.886719 C 406.644531 668.605469 406.976562 668.417969 407.363281 668.335938 C 407.757812 668.261719 408.136719 668.300781 408.507812 668.449219 C 408.882812 668.609375 409.179688 668.851562 409.398438 669.175781 Z M 424.621094 669.390625 C 424.457031 669.054688 424.210938 668.789062 423.894531 668.585938 C 423.574219 668.394531 423.230469 668.300781 422.851562 668.300781 C 422.476562 668.300781 422.125 668.394531 421.808594 668.585938 C 421.492188 668.789062 421.25 669.054688 421.082031 669.390625 L 413.65625 684.21875 C 413.414062 684.707031 413.378906 685.207031 413.554688 685.726562 C 413.722656 686.246094 414.054688 686.625 414.546875 686.867188 C 415.035156 687.109375 415.535156 687.144531 416.054688 686.96875 C 416.574219 686.800781 416.957031 686.46875 417.199219 685.976562 L 418.503906 683.367188 L 427.183594 683.367188 L 428.503906 685.976562 C 428.671875 686.320312 428.917969 686.589844 429.246094 686.792969 C 429.5625 686.984375 429.90625 687.082031 430.277344 687.082031 C 430.585938 687.082031 430.878906 687.007812 431.15625 686.867188 C 431.640625 686.625 431.972656 686.246094 432.148438 685.726562 C 432.324219 685.207031 432.285156 684.707031 432.035156 684.21875 Z M 420.488281 679.414062 L 422.851562 674.695312 L 425.214844 679.414062 Z M 453.175781 676.265625 C 453.585938 676.660156 453.789062 677.132812 453.789062 677.683594 L 453.789062 677.695312 C 453.789062 680.28125 452.871094 682.492188 451.027344 684.332031 C 449.191406 686.164062 446.976562 687.078125 444.382812 687.078125 C 441.792969 687.078125 439.578125 686.164062 437.738281 684.332031 C 435.902344 682.492188 434.988281 680.28125 434.988281 677.695312 C 434.988281 675.101562 435.902344 672.890625 437.738281 671.058594 C 439.578125 669.21875 441.792969 668.300781 444.382812 668.300781 C 446.976562 668.300781 449.191406 669.214844 451.027344 671.046875 C 451.421875 671.429688 451.617188 671.898438 451.617188 672.449219 C 451.617188 672.996094 451.425781 673.460938 451.039062 673.84375 C 450.65625 674.230469 450.1875 674.421875 449.632812 674.421875 C 449.085938 674.429688 448.625 674.238281 448.238281 673.84375 C 447.175781 672.78125 445.890625 672.25 444.382812 672.25 C 442.882812 672.25 441.601562 672.785156 440.539062 673.855469 C 439.476562 674.917969 438.945312 676.199219 438.945312 677.695312 C 438.945312 679.191406 439.476562 680.472656 440.539062 681.535156 C 441.601562 682.597656 442.882812 683.128906 444.382812 683.128906 C 445.519531 683.128906 446.554688 682.808594 447.484375 682.160156 C 448.398438 681.527344 449.054688 680.695312 449.457031 679.667969 L 444.382812 679.667969 C 443.835938 679.667969 443.371094 679.472656 442.988281 679.089844 C 442.601562 678.703125 442.410156 678.238281 442.410156 677.695312 C 442.410156 677.152344 442.601562 676.683594 442.988281 676.292969 C 443.371094 675.90625 443.835938 675.714844 444.382812 675.714844 L 451.730469 675.714844 C 452.292969 675.699219 452.773438 675.878906 453.175781 676.265625 Z M 461.390625 668.886719 C 461.777344 669.273438 461.96875 669.738281 461.96875 670.28125 L 461.96875 685.097656 C 461.96875 685.652344 461.777344 686.117188 461.390625 686.503906 C 461.007812 686.886719 460.542969 687.082031 459.996094 687.082031 C 459.445312 687.082031 458.976562 686.886719 458.589844 686.503906 C 458.207031 686.117188 458.011719 685.652344 458.011719 685.097656 L 458.011719 670.28125 C 458.011719 669.738281 458.207031 669.273438 458.589844 668.886719 C 458.976562 668.496094 459.445312 668.300781 459.996094 668.300781 C 460.542969 668.300781 461.007812 668.496094 461.390625 668.886719 Z M 471.753906 673.84375 C 470.691406 674.90625 470.160156 676.191406 470.160156 677.695312 C 470.160156 679.195312 470.691406 680.472656 471.753906 681.535156 C 472.820312 682.597656 474.097656 683.128906 475.597656 683.128906 C 477.097656 683.128906 478.378906 682.597656 479.441406 681.535156 C 479.828125 681.152344 480.296875 680.957031 480.847656 680.957031 C 481.394531 680.957031 481.859375 681.152344 482.242188 681.535156 C 482.628906 681.921875 482.820312 682.382812 482.820312 682.925781 C 482.820312 683.480469 482.628906 683.949219 482.242188 684.332031 C 480.410156 686.164062 478.195312 687.082031 475.597656 687.082031 C 473.003906 687.082031 470.789062 686.164062 468.953125 684.332031 C 467.121094 682.5 466.203125 680.289062 466.203125 677.695312 C 466.203125 675.09375 467.121094 672.882812 468.953125 671.058594 C 470.789062 669.21875 473.003906 668.300781 475.597656 668.300781 C 478.195312 668.300781 480.410156 669.21875 482.242188 671.058594 C 482.628906 671.445312 482.820312 671.910156 482.820312 672.453125 C 482.820312 672.996094 482.628906 673.460938 482.242188 673.84375 C 481.859375 674.238281 481.394531 674.433594 480.847656 674.433594 C 480.296875 674.433594 479.828125 674.238281 479.441406 673.84375 C 478.378906 672.78125 477.097656 672.25 475.597656 672.25 C 474.097656 672.25 472.820312 672.78125 471.753906 673.84375 Z M 490.132812 668.886719 C 490.519531 669.273438 490.710938 669.738281 490.710938 670.28125 L 490.710938 685.097656 C 490.710938 685.652344 490.519531 686.117188 490.132812 686.503906 C 489.746094 686.886719 489.28125 687.082031 488.738281 687.082031 C 488.183594 687.082031 487.714844 686.886719 487.332031 686.503906 C 486.945312 686.117188 486.753906 685.652344 486.753906 685.097656 L 486.753906 670.28125 C 486.753906 669.738281 486.945312 669.273438 487.332031 668.886719 C 487.714844 668.496094 488.183594 668.300781 488.738281 668.300781 C 489.28125 668.300781 489.746094 668.496094 490.132812 668.886719 Z M 505.621094 669.390625 C 505.453125 669.054688 505.210938 668.789062 504.894531 668.585938 C 504.574219 668.394531 504.226562 668.300781 503.847656 668.300781 C 503.472656 668.300781 503.125 668.394531 502.808594 668.585938 C 502.488281 668.789062 502.246094 669.054688 502.078125 669.390625 L 494.652344 684.21875 C 494.410156 684.707031 494.378906 685.207031 494.554688 685.726562 C 494.722656 686.246094 495.050781 686.625 495.546875 686.867188 C 496.03125 687.109375 496.535156 687.144531 497.050781 686.96875 C 497.574219 686.800781 497.953125 686.46875 498.195312 685.976562 L 499.503906 683.367188 L 508.183594 683.367188 L 509.503906 685.976562 C 509.667969 686.320312 509.917969 686.589844 510.242188 686.792969 C 510.5625 686.984375 510.902344 687.082031 511.273438 687.082031 C 511.582031 687.082031 511.875 687.007812 512.152344 686.867188 C 512.636719 686.625 512.96875 686.246094 513.144531 685.726562 C 513.320312 685.207031 513.28125 684.707031 513.03125 684.21875 Z M 501.488281 679.414062 L 503.847656 674.695312 L 506.210938 679.414062 Z M 532.730469 668.886719 C 533.113281 669.273438 533.308594 669.738281 533.308594 670.28125 L 533.308594 685.097656 C 533.308594 685.515625 533.1875 685.898438 532.941406 686.238281 C 532.707031 686.582031 532.394531 686.824219 532 686.96875 C 531.78125 687.042969 531.554688 687.082031 531.324219 687.082031 C 530.703125 687.082031 530.195312 686.84375 529.804688 686.363281 L 520.933594 675.738281 L 520.933594 685.097656 C 520.933594 685.652344 520.742188 686.117188 520.355469 686.503906 C 519.972656 686.886719 519.507812 687.082031 518.960938 687.082031 C 518.410156 687.082031 517.941406 686.886719 517.554688 686.503906 C 517.167969 686.117188 516.976562 685.652344 516.976562 685.097656 L 516.976562 670.28125 C 516.976562 669.863281 517.097656 669.480469 517.339844 669.140625 C 517.574219 668.804688 517.890625 668.566406 518.28125 668.421875 C 518.675781 668.28125 519.074219 668.265625 519.476562 668.375 C 519.878906 668.484375 520.214844 668.695312 520.480469 669.011719 L 529.351562 679.640625 L 529.351562 670.28125 C 529.351562 669.738281 529.542969 669.273438 529.929688 668.886719 C 530.3125 668.496094 530.777344 668.300781 531.324219 668.300781 C 531.867188 668.300781 532.335938 668.496094 532.730469 668.886719 Z M 321.140625 346.84375 C 321.046875 346.75 321.023438 346.601562 321.09375 346.484375 C 323.152344 342.902344 327.597656 343.511719 329.734375 344.054688 C 330.273438 340.359375 330.15625 337.285156 329.390625 335.085938 C 327.59375 338.78125 323.121094 338.949219 323.070312 338.953125 C 322.925781 338.976562 322.773438 338.832031 322.765625 338.671875 C 322.511719 334.367188 326.199219 331.300781 327.964844 330.085938 C 327.867188 329.207031 327.839844 328.34375 327.890625 327.507812 C 325.054688 329.277344 321.945312 328.265625 321.804688 328.21875 C 321.71875 328.191406 321.652344 328.125 321.621094 328.039062 C 321.589844 327.957031 321.597656 327.859375 321.640625 327.785156 C 323.394531 324.808594 327.34375 323.097656 329.097656 322.457031 C 329.246094 322.101562 329.40625 321.742188 329.585938 321.382812 C 328.1875 322.296875 327.074219 322.679688 326.273438 322.515625 C 325.816406 322.421875 325.460938 322.160156 325.222656 321.738281 C 324.839844 321.070312 324.710938 320.078125 325.984375 318.949219 C 324.640625 318.859375 323.902344 318.375 323.792969 317.511719 C 323.722656 316.949219 323.867188 316.480469 324.230469 316.125 C 324.824219 315.53125 325.910156 315.386719 326.753906 315.375 C 325.566406 314.601562 325.101562 314.082031 325.003906 313.511719 C 324.90625 312.914062 325.261719 312.355469 325.875 311.644531 C 326.191406 311.273438 326.601562 311.097656 327.023438 311.125 C 327.648438 311.164062 328.265625 311.621094 328.753906 312.113281 C 328.609375 311.367188 328.574219 310.519531 328.984375 309.96875 C 329.300781 309.542969 329.816406 309.367188 330.515625 309.445312 C 331.273438 309.527344 332.179688 310.003906 332.46875 311.710938 C 333.257812 310.746094 334.054688 310.433594 334.851562 310.773438 C 335.273438 310.953125 335.5625 311.257812 335.714844 311.683594 C 335.96875 312.394531 335.804688 313.441406 335.222656 314.800781 C 335.65625 314.507812 336.121094 314.222656 336.625 313.945312 C 336.683594 312.027344 337.4375 309.199219 340.597656 306.3125 C 340.707031 306.214844 340.875 306.210938 340.988281 306.304688 C 341.015625 306.324219 343.546875 308.445312 341.917969 311.882812 C 343.28125 311.527344 344.726562 311.25 346.308594 311.050781 C 345.910156 309.941406 345.636719 308.273438 346.210938 306.117188 L 347.808594 302.765625 C 347.847656 302.6875 347.921875 302.628906 348.007812 302.605469 C 348.097656 302.585938 348.1875 302.601562 348.257812 302.65625 C 348.300781 302.6875 352.257812 305.699219 349.917969 310.71875 C 350.441406 310.683594 350.960938 310.65625 351.476562 310.636719 C 351.484375 310.367188 351.542969 310.085938 351.652344 309.792969 C 351.917969 309.074219 352.585938 308.339844 354.28125 308.585938 C 353.488281 307.496094 353.382812 306.625 353.972656 305.984375 C 354.359375 305.566406 354.804688 305.378906 355.320312 305.425781 C 356.15625 305.5 356.964844 306.238281 357.515625 306.875 C 357.347656 305.46875 357.441406 304.777344 357.820312 304.339844 C 358.214844 303.878906 358.84375 303.792969 359.8125 303.800781 C 360.300781 303.804688 360.695312 303.996094 360.953125 304.347656 C 361.324219 304.855469 361.367188 305.621094 361.308594 306.308594 C 361.78125 305.71875 362.414062 305.144531 363.09375 305.105469 C 363.605469 305.070312 364.09375 305.355469 364.484375 305.9375 C 364.90625 306.570312 365.125 307.570312 364 308.890625 C 364.019531 308.890625 364.035156 308.890625 364.050781 308.890625 C 365.433594 308.890625 365.992188 309.4375 366.207031 309.980469 C 366.378906 310.019531 366.546875 310.0625 366.710938 310.101562 C 366.851562 308.308594 367.875 305.382812 372.585938 303.425781 C 372.710938 303.378906 372.851562 303.414062 372.933594 303.519531 C 372.996094 303.59375 374.371094 305.375 373.871094 307.558594 C 373.519531 309.09375 372.34375 310.410156 370.375 311.488281 C 370.863281 311.738281 371.324219 312.003906 371.75 312.28125 C 374.3125 309.605469 378.023438 308.242188 382.789062 308.222656 C 380.707031 305.796875 381.628906 302.480469 381.671875 302.332031 C 381.71875 302.175781 381.871094 302.082031 382.035156 302.125 C 387.070312 303.417969 387.757812 306.640625 387.660156 308.628906 C 389.382812 308.910156 390.78125 309.277344 391.546875 309.5 C 391.613281 307.335938 392.117188 303.699219 394.632812 302.363281 C 394.738281 302.308594 394.863281 302.320312 394.957031 302.390625 C 395.003906 302.425781 396.089844 303.285156 396.25 304.816406 C 396.355469 305.828125 396.03125 306.882812 395.285156 307.957031 C 397.8125 307.515625 400.011719 308.277344 401.542969 309.121094 C 401.921875 307.804688 402.789062 305.792969 404.707031 304.691406 C 406.324219 303.765625 408.375 303.660156 410.792969 304.382812 C 410.921875 304.421875 411.007812 304.539062 411.007812 304.671875 C 411.007812 304.730469 410.980469 306.121094 408.644531 308.125 C 407.3125 309.265625 405.296875 310.074219 403.671875 310.585938 C 404.125 310.96875 404.550781 311.382812 404.945312 311.820312 C 406.167969 312.0625 407.902344 312.722656 409.414062 314.488281 C 412.125 317.648438 409.34375 321.28125 409.316406 321.320312 C 409.226562 321.433594 409.074219 321.464844 408.945312 321.402344 C 408.8125 321.335938 405.621094 319.726562 404.511719 317.730469 C 404.097656 316.992188 403.734375 315.929688 403.425781 314.578125 C 403.324219 314.511719 403.242188 314.441406 403.167969 314.347656 C 403.117188 314.285156 402.085938 312.972656 400.464844 311.96875 C 402.035156 315.378906 400.109375 318.558594 400.089844 318.59375 C 400.007812 318.726562 399.835938 318.773438 399.699219 318.703125 C 395.667969 316.652344 395.992188 312.78125 396.460938 310.847656 C 395.46875 310.925781 393.695312 311.277344 392.703125 311.675781 C 394.1875 313.851562 394.15625 317.042969 394.03125 318.617188 C 396.957031 318.90625 398.761719 319.601562 399.398438 320.683594 C 399.742188 321.257812 399.75 321.925781 399.421875 322.667969 L 399.378906 322.773438 C 399.136719 323.3125 399.039062 323.539062 398.796875 323.628906 C 398.582031 323.703125 398.394531 323.621094 398.140625 323.5 C 398.335938 324.484375 397.65625 325.582031 396.878906 326.332031 C 396.46875 326.726562 396.003906 326.882812 395.503906 326.8125 C 394.671875 326.683594 393.910156 325.902344 393.394531 325.234375 C 393.480469 326.648438 393.34375 327.328125 392.941406 327.746094 C 392.519531 328.183594 391.882812 328.230469 390.921875 328.164062 C 390.433594 328.132812 390.054688 327.921875 389.816406 327.550781 C 389.476562 327.027344 389.476562 326.257812 389.578125 325.574219 C 389.070312 326.136719 388.40625 326.667969 387.722656 326.667969 C 387.191406 326.667969 386.742188 326.363281 386.386719 325.757812 C 386 325.097656 385.84375 324.089844 387.042969 322.839844 C 385.796875 322.78125 385.066406 322.328125 384.867188 321.488281 C 384.730469 320.917969 384.835938 320.410156 385.171875 319.980469 C 386.199219 318.679688 389.148438 318.476562 390.8125 318.472656 C 390.878906 318.472656 390.953125 318.472656 391.039062 318.472656 C 391.085938 317.871094 391.09375 317.179688 391.058594 316.535156 L 390.878906 315.105469 C 390.679688 314.070312 389.886719 312.609375 389.296875 312.179688 L 389.226562 312.15625 C 385.734375 311.027344 382.300781 310.855469 379.011719 311.640625 C 383.339844 315.261719 380.605469 319.785156 380.578125 319.828125 C 380.507812 319.949219 380.359375 320 380.230469 319.957031 C 375.90625 318.539062 375.375 315.234375 375.558594 313.039062 C 374.691406 313.574219 373.980469 314.199219 373.390625 314.933594 C 373.261719 315.660156 372.90625 317.828125 372.746094 320.226562 C 374.835938 320.550781 379.164062 321.621094 380.300781 324.953125 C 380.34375 325.089844 380.289062 325.238281 380.160156 325.308594 C 380.117188 325.335938 375.84375 327.613281 372.699219 323.667969 C 372.753906 324.746094 372.882812 325.660156 373.082031 326.402344 C 373.113281 326.519531 373.117188 326.625 373.117188 326.726562 C 377.980469 332.804688 373.757812 337.375 373.710938 337.421875 C 373.601562 337.539062 373.417969 337.546875 373.296875 337.441406 C 368.757812 333.449219 369.371094 329.332031 370.1875 327.164062 C 370.015625 326.523438 369.886719 325.785156 369.800781 324.960938 C 365.742188 330.660156 360.898438 327.933594 360.847656 327.90625 C 360.734375 327.835938 360.675781 327.699219 360.710938 327.570312 C 361.949219 322.964844 367.203125 321.917969 369.6875 321.683594 C 369.75 318.984375 370.113281 316.382812 370.351562 314.945312 C 369.78125 314.554688 368.585938 313.835938 366.859375 313.273438 C 369.226562 317.136719 365.710938 320.585938 365.671875 320.625 C 365.574219 320.714844 365.429688 320.734375 365.316406 320.667969 C 362.058594 318.84375 362.050781 315.152344 362.292969 313.273438 C 361.585938 313.386719 360.941406 313.441406 360.496094 313.472656 C 360.195312 313.488281 359.742188 313.515625 359.195312 313.53125 C 358.261719 313.550781 357.378906 313.535156 356.566406 313.476562 L 355.539062 313.503906 C 354.84375 313.515625 354.140625 313.535156 353.433594 313.554688 C 354.140625 315.628906 355.046875 319.964844 351.878906 323.128906 C 351.785156 323.222656 351.632812 323.242188 351.519531 323.175781 C 351.4375 323.128906 349.484375 321.964844 349.359375 318.050781 C 349.289062 315.875 349.824219 314.511719 350.417969 313.675781 C 348.6875 313.773438 347.15625 313.921875 345.761719 314.132812 C 346 316.023438 345.871094 320.058594 341.308594 322.8125 C 341.183594 322.890625 341.019531 322.863281 340.925781 322.75 C 340.839844 322.648438 338.960938 320.300781 342.457031 314.804688 C 338.203125 315.953125 335.152344 318.023438 333.140625 321.117188 C 332.902344 321.488281 332.675781 321.867188 332.464844 322.269531 C 334.882812 322.359375 338.601562 323.011719 339.765625 326.082031 C 339.8125 326.203125 339.773438 326.339844 339.671875 326.421875 C 339.640625 326.449219 336.160156 329.113281 331.433594 324.75 C 330.703125 327.097656 330.671875 329.503906 331.339844 331.753906 C 336.761719 328.378906 340.796875 332.925781 340.839844 332.972656 C 340.898438 333.042969 340.921875 333.132812 340.90625 333.21875 C 340.890625 333.308594 340.835938 333.386719 340.757812 333.429688 C 338.082031 334.914062 334.476562 334.691406 332.273438 334.351562 C 332.609375 335.382812 332.839844 336.535156 332.953125 337.78125 C 335.433594 337.945312 340.636719 338.761719 341.335938 342.722656 C 341.367188 342.886719 341.257812 343.039062 341.097656 343.070312 C 340.90625 343.105469 336.578125 343.851562 333.035156 340.621094 C 332.996094 341.933594 332.867188 343.324219 332.648438 344.769531 C 334.074219 344.972656 336.886719 345.597656 338.261719 347.480469 C 338.976562 348.464844 339.203125 349.648438 338.9375 351.007812 C 338.910156 351.148438 338.785156 351.246094 338.644531 351.246094 C 338.5 351.246094 335.265625 351.203125 332.050781 347.898438 C 331.757812 349.191406 331.476562 350.179688 331.324219 350.683594 C 333.453125 351.484375 335.96875 352.703125 336.464844 354.136719 C 336.628906 354.601562 336.574219 355.058594 336.304688 355.492188 C 335.898438 356.144531 335.089844 356.730469 333.488281 356.15625 C 334.050781 357.378906 333.980469 358.253906 333.273438 358.765625 C 332.8125 359.097656 332.332031 359.195312 331.84375 359.046875 C 331.039062 358.804688 330.394531 357.925781 329.980469 357.191406 C 329.867188 358.605469 329.636719 359.261719 329.179688 359.617188 C 328.917969 359.820312 328.613281 359.898438 328.238281 359.898438 C 327.921875 359.898438 327.550781 359.839844 327.117188 359.75 C 326.640625 359.648438 326.292969 359.386719 326.109375 358.988281 C 325.847656 358.421875 325.953125 357.660156 326.152344 356.996094 C 325.570312 357.484375 324.832031 357.917969 324.160156 357.824219 C 323.632812 357.75 323.230469 357.382812 322.964844 356.730469 C 322.671875 356.027344 322.660156 355.003906 324.023438 353.933594 C 322.519531 353.644531 322.113281 352.90625 322.058594 352.292969 C 322.011719 351.808594 322.160156 351.386719 322.5 351.042969 C 323.546875 349.972656 326.234375 349.886719 328.402344 350.015625 C 328.511719 349.648438 328.792969 348.699219 329.089844 347.40625 C 323.980469 349.589844 321.257812 346.960938 321.140625 346.84375 Z M 442.496094 304.671875 C 442.496094 304.539062 442.585938 304.421875 442.710938 304.382812 C 445.132812 303.664062 447.179688 303.765625 448.796875 304.691406 C 450.71875 305.789062 451.585938 307.804688 451.964844 309.121094 C 453.496094 308.277344 455.691406 307.515625 458.222656 307.957031 C 457.476562 306.882812 457.152344 305.828125 457.257812 304.8125 C 457.417969 303.28125 458.503906 302.425781 458.550781 302.390625 C 458.640625 302.320312 458.769531 302.308594 458.871094 302.363281 C 461.390625 303.699219 461.894531 307.332031 461.957031 309.5 C 462.726562 309.277344 464.121094 308.910156 465.847656 308.625 C 465.75 306.640625 466.433594 303.417969 471.472656 302.125 C 471.636719 302.082031 471.789062 302.175781 471.832031 302.328125 C 471.875 302.480469 472.800781 305.796875 470.71875 308.222656 C 475.484375 308.238281 479.191406 309.605469 481.753906 312.28125 C 482.183594 312 482.644531 311.734375 483.132812 311.484375 C 481.160156 310.410156 479.988281 309.09375 479.636719 307.558594 C 479.136719 305.371094 480.511719 303.59375 480.570312 303.519531 C 480.652344 303.414062 480.796875 303.375 480.921875 303.425781 C 485.628906 305.378906 486.652344 308.308594 486.796875 310.101562 C 486.964844 310.058594 487.136719 310.019531 487.308594 309.976562 C 487.542969 309.414062 488.109375 308.890625 489.460938 308.890625 C 489.476562 308.890625 489.492188 308.890625 489.507812 308.890625 C 488.382812 307.570312 488.597656 306.570312 489.023438 305.9375 C 489.414062 305.355469 489.890625 305.070312 490.410156 305.105469 C 491.09375 305.144531 491.726562 305.714844 492.199219 306.304688 C 492.140625 305.617188 492.183594 304.851562 492.554688 304.347656 C 492.8125 303.996094 493.207031 303.804688 493.695312 303.800781 C 494.667969 303.78125 495.289062 303.875 495.6875 304.335938 C 496.0625 304.777344 496.160156 305.464844 495.988281 306.871094 C 496.542969 306.234375 497.351562 305.5 498.1875 305.421875 C 498.699219 305.378906 499.148438 305.566406 499.535156 305.984375 C 500.125 306.621094 500.019531 307.496094 499.226562 308.582031 C 500.910156 308.339844 501.585938 309.070312 501.855469 309.792969 C 501.960938 310.082031 502.019531 310.363281 502.03125 310.632812 C 502.546875 310.65625 503.066406 310.683594 503.585938 310.714844 C 501.246094 305.695312 505.207031 302.683594 505.25 302.65625 C 505.320312 302.601562 505.410156 302.582031 505.5 302.605469 C 505.585938 302.625 505.65625 302.683594 505.695312 302.765625 L 507.277344 306.0625 C 507.871094 308.265625 507.597656 309.941406 507.199219 311.050781 C 508.78125 311.25 510.226562 311.523438 511.589844 311.878906 C 509.960938 308.445312 512.492188 306.324219 512.519531 306.300781 C 512.632812 306.207031 512.800781 306.214844 512.910156 306.3125 C 516.066406 309.195312 516.824219 312.023438 516.878906 313.945312 C 517.382812 314.222656 517.847656 314.507812 518.285156 314.800781 C 517.703125 313.441406 517.539062 312.394531 517.792969 311.679688 C 517.945312 311.257812 518.234375 310.953125 518.65625 310.769531 C 519.453125 310.429688 520.25 310.746094 521.039062 311.707031 C 521.328125 310 522.234375 309.523438 522.992188 309.441406 C 523.6875 309.363281 524.207031 309.542969 524.523438 309.96875 C 524.933594 310.515625 524.898438 311.367188 524.753906 312.109375 C 525.242188 311.621094 525.859375 311.164062 526.484375 311.121094 C 526.957031 311.085938 527.320312 311.273438 527.632812 311.640625 C 528.261719 312.371094 528.605469 312.910156 528.503906 313.511719 C 528.410156 314.082031 527.941406 314.597656 526.753906 315.375 C 527.597656 315.386719 528.679688 315.53125 529.277344 316.121094 C 529.640625 316.480469 529.785156 316.949219 529.714844 317.511719 C 529.601562 318.375 528.867188 318.855469 527.523438 318.949219 C 528.796875 320.078125 528.664062 321.066406 528.285156 321.734375 C 528.042969 322.160156 527.691406 322.421875 527.234375 322.515625 C 526.433594 322.675781 525.320312 322.296875 523.921875 321.382812 C 524.101562 321.742188 524.261719 322.101562 524.410156 322.457031 C 526.164062 323.09375 530.113281 324.808594 531.863281 327.78125 C 531.910156 327.859375 531.917969 327.953125 531.886719 328.039062 C 531.855469 328.121094 531.789062 328.1875 531.703125 328.214844 C 531.5625 328.261719 528.453125 329.273438 525.617188 327.503906 C 525.667969 328.339844 525.640625 329.203125 525.542969 330.085938 C 527.308594 331.296875 530.996094 334.367188 530.742188 338.667969 C 530.734375 338.832031 530.613281 338.976562 530.433594 338.949219 C 530.386719 338.949219 525.914062 338.777344 524.117188 335.085938 C 523.351562 337.308594 523.234375 340.375 523.773438 344.054688 C 525.910156 343.507812 530.355469 342.902344 532.414062 346.484375 C 532.480469 346.601562 532.460938 346.746094 532.367188 346.84375 C 532.25 346.960938 529.523438 349.585938 524.414062 347.40625 C 524.714844 348.695312 524.988281 349.644531 525.105469 350.015625 C 527.265625 349.882812 529.957031 349.96875 531.007812 351.042969 C 531.34375 351.386719 531.492188 351.808594 531.449219 352.292969 C 531.390625 352.90625 530.984375 353.644531 529.480469 353.929688 C 530.84375 355.003906 530.832031 356.027344 530.539062 356.730469 C 530.273438 357.378906 529.871094 357.746094 529.34375 357.820312 C 528.652344 357.914062 527.933594 357.480469 527.355469 356.996094 C 527.550781 357.660156 527.65625 358.421875 527.394531 358.988281 C 527.210938 359.386719 526.863281 359.648438 526.386719 359.75 C 525.953125 359.839844 525.585938 359.898438 525.265625 359.898438 C 524.890625 359.898438 524.585938 359.816406 524.328125 359.617188 C 523.871094 359.261719 523.640625 358.601562 523.527344 357.191406 C 523.113281 357.925781 522.464844 358.804688 521.660156 359.046875 C 521.171875 359.195312 520.691406 359.097656 520.230469 358.765625 C 519.523438 358.253906 519.453125 357.378906 520.015625 356.15625 C 518.417969 356.730469 517.605469 356.144531 517.199219 355.492188 C 516.933594 355.058594 516.878906 354.601562 517.039062 354.136719 C 517.535156 352.703125 520.050781 351.484375 522.179688 350.683594 C 522.027344 350.179688 521.746094 349.191406 521.453125 347.898438 C 518.242188 351.203125 515.003906 351.246094 514.863281 351.246094 C 514.71875 351.246094 514.59375 351.148438 514.566406 351.007812 C 514.300781 349.648438 514.527344 348.460938 515.242188 347.480469 C 516.617188 345.597656 519.429688 344.972656 520.859375 344.769531 C 520.636719 343.320312 520.507812 341.929688 520.46875 340.621094 C 516.929688 343.847656 512.597656 343.101562 512.40625 343.066406 C 512.246094 343.039062 512.136719 342.882812 512.167969 342.722656 C 512.867188 338.761719 518.070312 337.945312 520.550781 337.78125 C 520.664062 336.535156 520.894531 335.386719 521.230469 334.351562 C 519.03125 334.6875 515.421875 334.914062 512.746094 333.429688 C 512.667969 333.386719 512.613281 333.308594 512.597656 333.21875 C 512.582031 333.132812 512.609375 333.039062 512.667969 332.972656 C 512.707031 332.925781 516.746094 328.378906 522.164062 331.753906 C 522.832031 329.5 522.800781 327.097656 522.074219 324.75 C 517.34375 329.109375 513.867188 326.445312 513.832031 326.417969 C 513.730469 326.339844 513.691406 326.203125 513.738281 326.078125 C 514.902344 323.011719 518.625 322.359375 521.042969 322.269531 C 520.828125 321.863281 520.605469 321.484375 520.363281 321.117188 C 518.351562 318.019531 515.300781 315.949219 511.046875 314.804688 C 514.542969 320.300781 512.664062 322.648438 512.578125 322.75 C 512.484375 322.859375 512.320312 322.886719 512.195312 322.8125 C 507.632812 320.058594 507.507812 316.019531 507.742188 314.128906 C 506.347656 313.921875 504.816406 313.769531 503.085938 313.671875 C 503.683594 314.507812 504.21875 315.871094 504.148438 318.050781 C 504.019531 321.964844 502.070312 323.125 501.984375 323.175781 C 501.871094 323.242188 501.722656 323.222656 501.625 323.125 C 498.460938 319.964844 499.367188 315.628906 500.070312 313.550781 C 499.367188 313.535156 498.660156 313.515625 497.96875 313.5 L 496.910156 313.476562 C 496.128906 313.535156 495.246094 313.550781 494.3125 313.527344 C 493.761719 313.515625 493.308594 313.488281 493.011719 313.46875 C 492.566406 313.441406 491.921875 313.386719 491.214844 313.273438 C 491.453125 315.152344 491.445312 318.84375 488.1875 320.667969 C 488.074219 320.730469 487.929688 320.714844 487.835938 320.621094 C 487.796875 320.585938 484.28125 317.136719 486.648438 313.269531 C 484.921875 313.832031 483.722656 314.554688 483.152344 314.945312 C 483.390625 316.375 483.757812 318.964844 483.816406 321.683594 C 486.304688 321.917969 491.558594 322.960938 492.792969 327.570312 C 492.828125 327.699219 492.773438 327.835938 492.65625 327.90625 C 492.605469 327.933594 487.761719 330.660156 483.703125 324.960938 C 483.617188 325.78125 483.488281 326.519531 483.316406 327.164062 C 484.132812 329.328125 484.75 333.445312 480.207031 337.4375 C 480.089844 337.546875 479.90625 337.535156 479.792969 337.421875 C 479.75 337.375 475.523438 332.804688 480.390625 326.722656 C 480.390625 326.617188 480.394531 326.515625 480.425781 326.402344 C 480.625 325.660156 480.753906 324.742188 480.804688 323.667969 C 477.660156 327.609375 473.390625 325.332031 473.347656 325.308594 C 473.21875 325.238281 473.160156 325.085938 473.207031 324.949219 C 474.339844 321.617188 478.667969 320.550781 480.757812 320.222656 C 480.601562 317.824219 480.242188 315.660156 480.113281 314.929688 C 479.527344 314.195312 478.8125 313.574219 477.949219 313.035156 C 478.128906 315.230469 477.601562 318.535156 473.277344 319.953125 C 473.148438 319.996094 473 319.945312 472.925781 319.828125 C 472.898438 319.78125 470.167969 315.257812 474.492188 311.640625 C 471.207031 310.855469 467.773438 311.027344 464.277344 312.152344 L 464.210938 312.175781 C 463.621094 312.605469 462.828125 314.070312 462.621094 315.121094 L 462.445312 316.554688 C 462.410156 317.179688 462.417969 317.867188 462.46875 318.46875 C 462.550781 318.46875 462.628906 318.46875 462.695312 318.46875 C 464.359375 318.472656 467.304688 318.675781 468.332031 319.976562 C 468.671875 320.40625 468.773438 320.914062 468.636719 321.484375 C 468.4375 322.324219 467.707031 322.777344 466.464844 322.835938 C 467.664062 324.085938 467.507812 325.097656 467.121094 325.753906 C 466.765625 326.359375 466.316406 326.667969 465.785156 326.667969 C 465.101562 326.667969 464.4375 326.132812 463.925781 325.574219 C 464.03125 326.257812 464.027344 327.023438 463.691406 327.550781 C 463.453125 327.917969 463.070312 328.128906 462.585938 328.164062 C 461.621094 328.226562 460.984375 328.183594 460.5625 327.742188 C 460.160156 327.328125 460.027344 326.644531 460.109375 325.230469 C 459.597656 325.898438 458.832031 326.679688 458.003906 326.808594 C 457.5 326.882812 457.035156 326.722656 456.625 326.328125 C 455.847656 325.578125 455.167969 324.480469 455.363281 323.496094 C 455.109375 323.617188 454.921875 323.703125 454.710938 323.625 C 454.464844 323.535156 454.367188 323.3125 454.128906 322.769531 L 454.085938 322.664062 C 453.757812 321.921875 453.765625 321.253906 454.105469 320.679688 C 454.746094 319.597656 456.550781 318.90625 459.472656 318.613281 C 459.347656 317.039062 459.320312 313.847656 460.804688 311.671875 C 459.8125 311.277344 458.039062 310.921875 457.046875 310.84375 C 457.511719 312.777344 457.835938 316.648438 453.804688 318.699219 C 453.667969 318.769531 453.496094 318.722656 453.417969 318.589844 C 453.394531 318.554688 451.46875 315.375 453.039062 311.964844 C 451.417969 312.96875 450.386719 314.28125 450.335938 314.347656 C 450.257812 314.449219 450.164062 314.519531 450.082031 314.578125 C 449.773438 315.925781 449.40625 316.988281 448.996094 317.726562 C 447.886719 319.722656 444.695312 321.332031 444.558594 321.398438 C 444.4375 321.460938 444.277344 321.429688 444.191406 321.316406 C 444.164062 321.28125 441.378906 317.644531 444.09375 314.484375 C 445.605469 312.722656 447.339844 312.058594 448.558594 311.816406 C 448.953125 311.378906 449.378906 310.96875 449.832031 310.582031 C 448.210938 310.070312 446.195312 309.261719 444.863281 308.121094 C 442.523438 306.121094 442.496094 304.726562 442.496094 304.671875 Z M 442.496094 304.671875 " fill-opacity="1" fill-rule="nonzero"/></g></svg>