<svg xmlns="http://www.w3.org/2000/svg" xmlns:xlink="http://www.w3.org/1999/xlink" width="1080" zoomAndPan="magnify" viewBox="0 0 810 809.999993" height="1080" preserveAspectRatio="xMidYMid meet" version="1.0"><defs><clipPath id="5051fd52b9"><path d="M 285.652344 164.835938 L 524.152344 164.835938 L 524.152344 572 L 285.652344 572 Z M 285.652344 164.835938 " clip-rule="nonzero"/></clipPath></defs><g clip-path="url(#5051fd52b9)"><path fill="#2e2e2e" d="M 520.125 168.976562 C 517.542969 166.394531 514.109375 164.96875 510.457031 164.96875 L 299.308594 164.96875 C 295.660156 164.96875 292.226562 166.394531 289.644531 168.976562 C 287.0625 171.5625 285.640625 174.996094 285.640625 178.652344 L 285.640625 558.269531 C 285.640625 561.921875 287.0625 565.359375 289.644531 567.941406 C 292.226562 570.527344 295.660156 571.949219 299.308594 571.949219 L 510.457031 571.949219 C 514.109375 571.949219 517.542969 570.527344 520.121094 567.941406 C 522.703125 565.359375 524.125 561.921875 524.125 558.269531 L 524.125 178.652344 C 524.125 174.996094 522.703125 171.5625 520.125 168.976562 Z M 520.605469 368.460938 L 520.605469 558.269531 C 520.605469 561.074219 519.46875 563.613281 517.632812 565.449219 C 515.796875 567.289062 513.257812 568.425781 510.457031 568.425781 L 299.308594 568.425781 C 296.507812 568.425781 293.972656 567.289062 292.136719 565.449219 C 290.300781 563.613281 289.164062 561.074219 289.164062 558.269531 L 289.164062 178.652344 C 289.164062 175.847656 290.300781 173.308594 292.136719 171.472656 C 293.972656 169.632812 296.507812 168.496094 299.308594 168.496094 L 510.457031 168.496094 C 513.257812 168.496094 515.796875 169.632812 517.632812 171.472656 C 519.46875 173.308594 520.605469 175.847656 520.605469 178.652344 Z M 514.726562 178.652344 C 514.726562 177.507812 514.28125 176.433594 513.472656 175.628906 C 512.667969 174.820312 511.59375 174.375 510.453125 174.375 L 299.304688 174.375 C 298.160156 174.375 297.085938 174.820312 296.28125 175.628906 C 295.472656 176.4375 295.027344 177.511719 295.027344 178.652344 L 295.027344 527.03125 C 295.058594 528.671875 296.390625 529.992188 298.035156 529.992188 L 511.632812 529.992188 C 513.292969 529.992188 514.738281 528.542969 514.738281 526.878906 L 514.726562 368.460938 Z M 306.757812 444.089844 C 305.992188 439.929688 304.464844 425.421875 316.78125 413.402344 C 330.324219 400.183594 344.109375 369.304688 347.285156 354.683594 C 350.804688 338.476562 358.289062 328.09375 360.316406 325.507812 C 360.367188 325.460938 360.421875 325.421875 360.46875 325.371094 C 360.515625 325.316406 362.414062 323.269531 366.382812 320.71875 C 361.289062 329.164062 362.351562 338.042969 362.417969 338.527344 C 362.53125 339.414062 363.289062 340.058594 364.160156 340.058594 C 364.234375 340.058594 364.3125 340.054688 364.390625 340.046875 C 365.351562 339.921875 366.03125 339.035156 365.910156 338.070312 C 365.839844 337.523438 364.335938 324.59375 374.996094 316.246094 C 375.839844 315.894531 376.710938 315.550781 377.628906 315.210938 C 377.066406 316.273438 376.527344 317.386719 376.035156 318.558594 C 375.65625 319.453125 376.074219 320.488281 376.972656 320.867188 C 377.195312 320.960938 377.425781 321.003906 377.65625 321.003906 C 378.34375 321.003906 378.996094 320.601562 379.277344 319.925781 C 379.800781 318.691406 380.367188 317.511719 380.972656 316.421875 C 381.382812 315.671875 381.195312 314.753906 380.5625 314.222656 C 387.109375 312.167969 395.355469 310.652344 405.46875 310.652344 C 414.976562 310.652344 422.746094 312.003906 428.972656 313.878906 C 428.855469 313.914062 428.734375 313.960938 428.621094 314.027344 C 427.769531 314.496094 427.460938 315.570312 427.929688 316.421875 C 428.535156 317.511719 429.105469 318.695312 429.625 319.925781 C 429.90625 320.601562 430.5625 321.007812 431.246094 321.007812 C 431.476562 321.007812 431.707031 320.960938 431.929688 320.867188 C 432.828125 320.488281 433.246094 319.453125 432.867188 318.558594 C 432.300781 317.210938 431.675781 315.917969 431.015625 314.714844 C 430.96875 314.628906 430.910156 314.550781 430.847656 314.476562 C 432.207031 314.929688 433.488281 315.40625 434.6875 315.894531 C 445.234375 324.25 443.898438 337.882812 443.875 338.097656 C 443.765625 339.066406 444.460938 339.9375 445.425781 340.050781 C 445.496094 340.058594 445.5625 340.0625 445.628906 340.0625 C 446.511719 340.0625 447.273438 339.398438 447.375 338.5 C 447.433594 338 448.378906 328.871094 443.210938 320.308594 C 446.183594 322.226562 448.027344 323.90625 448.871094 324.746094 C 448.898438 324.78125 448.917969 324.824219 448.949219 324.859375 C 449.042969 324.96875 458.433594 335.941406 462.503906 354.683594 C 465.679688 369.304688 479.464844 400.183594 493.007812 413.402344 C 505.324219 425.421875 503.796875 439.929688 503.03125 444.089844 C 502.015625 449.636719 499.625 454.035156 496.667969 455.949219 C 495.515625 454.5625 494.625 453.796875 494.328125 453.558594 C 493.210938 452.496094 492.082031 451.484375 490.929688 450.507812 C 502.285156 438.023438 491.664062 422.457031 481.378906 407.394531 C 479.320312 404.378906 477.195312 401.265625 475.277344 398.222656 C 468.167969 386.9375 464.964844 379.5 462.769531 373.710938 C 462.425781 372.800781 461.40625 372.34375 460.5 372.691406 C 459.589844 373.035156 459.132812 374.054688 459.476562 374.964844 C 461.601562 380.566406 464.980469 388.488281 472.296875 400.105469 C 474.25 403.203125 476.394531 406.34375 478.46875 409.382812 C 488.4375 423.984375 497.855469 437.789062 488.167969 448.292969 C 485.226562 446.070312 482.082031 444.140625 478.558594 442.570312 C 484.09375 434.226562 482.316406 428.210938 476.671875 419.167969 C 476.160156 418.339844 475.070312 418.089844 474.246094 418.605469 C 473.421875 419.121094 473.171875 420.207031 473.683594 421.035156 C 479.460938 430.292969 479.851562 434.644531 475.210938 441.222656 C 470.339844 439.488281 464.726562 438.394531 457.988281 438.074219 C 466.832031 429.519531 461.304688 413.234375 455.933594 397.421875 C 454.386719 392.863281 452.785156 388.144531 451.492188 383.578125 C 450.125 378.761719 449.289062 374.082031 448.789062 369.808594 C 450.5 375.792969 453 382.964844 456.660156 391.179688 C 457.761719 393.65625 463.632812 404.40625 464.929688 406.703125 C 465.253906 407.277344 465.851562 407.601562 466.464844 407.601562 C 466.757812 407.601562 467.054688 407.527344 467.328125 407.371094 C 468.175781 406.894531 468.476562 405.820312 467.996094 404.96875 C 466.5 402.3125 460.871094 391.976562 459.878906 389.746094 C 448.742188 364.75 448.605469 349.386719 448.605469 349.234375 C 448.605469 349.214844 448.597656 349.195312 448.597656 349.175781 C 448.597656 349.113281 448.589844 349.054688 448.582031 348.996094 C 448.574219 348.9375 448.566406 348.882812 448.554688 348.828125 C 448.539062 348.769531 448.519531 348.71875 448.503906 348.664062 C 448.484375 348.609375 448.464844 348.554688 448.441406 348.5 C 448.417969 348.449219 448.390625 348.402344 448.363281 348.355469 C 448.332031 348.304688 448.304688 348.257812 448.273438 348.210938 C 448.238281 348.164062 448.203125 348.121094 448.164062 348.078125 C 448.128906 348.035156 448.09375 347.996094 448.054688 347.957031 C 448.011719 347.917969 447.964844 347.878906 447.914062 347.84375 C 447.875 347.8125 447.832031 347.777344 447.789062 347.75 C 447.738281 347.71875 447.683594 347.691406 447.632812 347.664062 C 447.582031 347.640625 447.535156 347.613281 447.484375 347.59375 C 447.429688 347.574219 447.371094 347.558594 447.3125 347.542969 C 447.257812 347.527344 447.203125 347.511719 447.144531 347.5 C 447.125 347.496094 447.105469 347.488281 447.085938 347.484375 C 447.042969 347.480469 446.996094 347.484375 446.953125 347.480469 C 446.917969 347.480469 446.882812 347.46875 446.84375 347.46875 C 446.824219 347.46875 446.808594 347.472656 446.792969 347.476562 C 446.726562 347.476562 446.664062 347.484375 446.601562 347.496094 C 446.546875 347.5 446.492188 347.507812 446.441406 347.519531 C 446.386719 347.535156 446.332031 347.550781 446.28125 347.570312 C 446.222656 347.589844 446.164062 347.609375 446.109375 347.632812 C 446.066406 347.652344 446.023438 347.679688 445.984375 347.703125 C 445.925781 347.734375 445.871094 347.765625 445.816406 347.804688 C 445.777344 347.832031 445.742188 347.863281 445.707031 347.894531 C 445.660156 347.9375 445.609375 347.976562 445.566406 348.023438 C 445.53125 348.0625 445.5 348.101562 445.46875 348.140625 C 445.429688 348.191406 445.390625 348.238281 445.359375 348.289062 C 445.332031 348.335938 445.308594 348.382812 445.28125 348.429688 C 445.253906 348.484375 445.226562 348.535156 445.207031 348.59375 C 445.1875 348.644531 445.171875 348.695312 445.15625 348.75 C 445.140625 348.808594 445.125 348.871094 445.113281 348.933594 C 445.109375 348.953125 445.101562 348.96875 445.097656 348.988281 C 445.003906 349.667969 442.824219 365.898438 448.101562 384.539062 C 449.421875 389.195312 451.035156 393.953125 452.597656 398.554688 C 458.703125 416.527344 463.96875 432.0625 452.070312 437.90625 C 438.804688 437.023438 430.121094 426.21875 430.121094 418.964844 L 430.121094 399.585938 C 434.640625 393.933594 437.363281 387.449219 438.921875 382.542969 C 439.738281 386.09375 440.808594 389.867188 441.867188 393.582031 C 444.09375 401.421875 446.398438 409.527344 445.851562 414.191406 C 445.289062 418.980469 443.558594 421.96875 440.558594 423.328125 C 439.675781 423.726562 439.28125 424.773438 439.683594 425.660156 C 439.976562 426.3125 440.617188 426.695312 441.289062 426.695312 C 441.53125 426.695312 441.777344 426.644531 442.015625 426.539062 C 446.171875 424.652344 448.640625 420.640625 449.347656 414.605469 C 449.980469 409.238281 447.683594 401.164062 445.253906 392.617188 C 443.1875 385.34375 441.046875 377.820312 441.046875 372.683594 C 441.046875 372.464844 441.003906 372.257812 440.929688 372.0625 L 442.074219 343.503906 C 442.113281 342.53125 441.355469 341.707031 440.386719 341.671875 C 440.074219 341.664062 439.78125 341.742188 439.523438 341.878906 C 439.03125 341.929688 438.042969 342.027344 436.625 342.152344 C 437.019531 335.28125 436.414062 329.222656 434.753906 323.6875 C 434.472656 322.753906 433.484375 322.226562 432.558594 322.507812 C 431.625 322.785156 431.097656 323.769531 431.378906 324.703125 C 432.960938 329.96875 433.511719 335.78125 433.082031 342.441406 C 431.015625 342.597656 428.527344 342.769531 425.695312 342.925781 C 426.222656 339.628906 426.832031 332.535156 424.351562 324.292969 C 424.070312 323.359375 423.089844 322.832031 422.160156 323.113281 C 421.226562 323.394531 420.699219 324.375 420.980469 325.308594 C 423.464844 333.566406 422.53125 340.691406 422.085938 343.109375 C 419.539062 343.226562 416.773438 343.328125 413.839844 343.402344 C 414.242188 336.171875 413.996094 330.332031 413.082031 325.640625 C 412.894531 324.683594 411.96875 324.0625 411.015625 324.25 C 410.0625 324.4375 409.4375 325.363281 409.625 326.316406 C 410.496094 330.777344 410.714844 336.417969 410.308594 343.476562 C 406.617188 343.535156 402.703125 343.542969 398.628906 343.480469 C 398.152344 335.144531 398.828125 330.085938 399.390625 326.964844 C 399.5625 326.007812 398.929688 325.089844 397.972656 324.917969 C 397.019531 324.746094 396.097656 325.378906 395.925781 326.335938 C 395.003906 331.429688 394.746094 336.898438 395.101562 343.410156 C 392.40625 343.339844 389.652344 343.234375 386.859375 343.09375 C 386.523438 340.710938 385.949219 334.125 388.316406 326.042969 C 388.59375 325.109375 388.058594 324.128906 387.125 323.855469 C 386.191406 323.585938 385.210938 324.117188 384.9375 325.050781 C 382.578125 333.101562 382.902344 339.753906 383.277344 342.886719 C 380.808594 342.734375 378.316406 342.546875 375.816406 342.320312 C 375.449219 336.308594 375.988281 330.570312 377.441406 325.265625 C 377.699219 324.328125 377.144531 323.355469 376.207031 323.097656 C 375.273438 322.84375 374.300781 323.394531 374.042969 324.335938 C 372.535156 329.847656 371.945312 335.777344 372.269531 341.976562 C 371.363281 341.878906 370.457031 341.785156 369.550781 341.679688 C 369.035156 341.625 368.53125 341.789062 368.152344 342.140625 C 367.773438 342.488281 367.570312 342.988281 367.589844 343.503906 L 368.753906 372.574219 C 368.753906 372.609375 368.742188 372.644531 368.742188 372.683594 C 368.742188 377.792969 366.851562 385.34375 365.023438 392.640625 C 362.832031 401.390625 360.761719 409.65625 361.394531 415.039062 C 362.105469 421.074219 364.574219 425.089844 368.730469 426.972656 C 368.964844 427.082031 369.210938 427.132812 369.457031 427.132812 C 370.125 427.132812 370.765625 426.746094 371.0625 426.09375 C 371.460938 425.207031 371.070312 424.164062 370.183594 423.761719 C 367.1875 422.402344 365.457031 419.414062 364.894531 414.628906 C 364.335938 409.886719 366.421875 401.554688 368.441406 393.5 C 369.320312 389.988281 370.207031 386.429688 370.910156 383.058594 C 372.503906 387.9375 375.222656 394.234375 379.652344 399.71875 L 379.652344 418.960938 C 379.652344 426.125 371.179688 436.753906 358.191406 437.867188 C 346.796875 432.191406 351.695312 417.28125 357.363281 400.039062 C 359.074219 394.839844 360.84375 389.460938 362.183594 384.1875 C 366.554688 366.988281 364.867188 349.777344 364.792969 349.050781 C 364.789062 349.011719 364.777344 348.976562 364.769531 348.9375 C 364.761719 348.878906 364.75 348.816406 364.734375 348.757812 C 364.71875 348.707031 364.703125 348.660156 364.683594 348.609375 C 364.660156 348.546875 364.636719 348.484375 364.605469 348.425781 C 364.585938 348.390625 364.566406 348.355469 364.542969 348.320312 C 364.503906 348.253906 364.460938 348.1875 364.410156 348.128906 C 364.394531 348.109375 364.378906 348.089844 364.363281 348.070312 C 364.300781 348 364.234375 347.933594 364.160156 347.875 C 364.15625 347.867188 364.148438 347.863281 364.140625 347.855469 C 364.054688 347.789062 363.96875 347.730469 363.875 347.679688 C 363.871094 347.679688 363.871094 347.675781 363.867188 347.675781 C 363.773438 347.625 363.671875 347.582031 363.570312 347.550781 C 363.558594 347.546875 363.542969 347.542969 363.53125 347.542969 C 363.445312 347.515625 363.351562 347.496094 363.257812 347.484375 C 363.210938 347.480469 363.164062 347.480469 363.117188 347.476562 C 363.074219 347.476562 363.035156 347.46875 362.992188 347.46875 C 362.972656 347.46875 362.953125 347.476562 362.9375 347.476562 C 362.910156 347.476562 362.886719 347.472656 362.863281 347.476562 C 362.816406 347.480469 362.773438 347.496094 362.730469 347.503906 C 362.683594 347.511719 362.632812 347.519531 362.585938 347.53125 C 362.519531 347.550781 362.453125 347.574219 362.390625 347.601562 C 362.347656 347.617188 362.308594 347.632812 362.265625 347.652344 C 362.203125 347.683594 362.144531 347.71875 362.085938 347.757812 C 362.046875 347.78125 362.011719 347.804688 361.980469 347.832031 C 361.921875 347.875 361.871094 347.921875 361.820312 347.96875 C 361.789062 348 361.761719 348.027344 361.730469 348.0625 C 361.6875 348.113281 361.644531 348.167969 361.605469 348.222656 C 361.578125 348.257812 361.554688 348.296875 361.53125 348.335938 C 361.496094 348.390625 361.46875 348.449219 361.441406 348.511719 C 361.421875 348.554688 361.402344 348.601562 361.386719 348.644531 C 361.363281 348.707031 361.347656 348.769531 361.332031 348.832031 C 361.320312 348.882812 361.3125 348.929688 361.304688 348.984375 C 361.292969 349.046875 361.292969 349.109375 361.289062 349.175781 C 361.289062 349.210938 361.28125 349.246094 361.28125 349.28125 C 361.285156 349.433594 361.578125 364.78125 350.457031 389.746094 C 349.460938 391.976562 343.832031 402.3125 342.335938 404.96875 C 341.859375 405.816406 342.160156 406.890625 343.003906 407.371094 C 343.28125 407.527344 343.578125 407.597656 343.871094 407.597656 C 344.484375 407.597656 345.082031 407.277344 345.40625 406.703125 C 346.699219 404.402344 352.570312 393.65625 353.671875 391.179688 C 356.914062 383.910156 359.210938 377.453125 360.84375 371.910156 C 360.40625 375.597656 359.746094 379.46875 358.769531 383.316406 C 357.457031 388.476562 355.710938 393.792969 354.019531 398.9375 C 348.808594 414.78125 343.855469 429.859375 352.296875 438.035156 C 345.421875 438.292969 339.8125 439.300781 334.941406 440.96875 C 330.492188 434.527344 330.949219 430.175781 336.648438 421.035156 C 337.164062 420.207031 336.914062 419.121094 336.089844 418.605469 C 335.261719 418.089844 334.175781 418.339844 333.660156 419.164062 C 328.085938 428.101562 326.285156 434.078125 331.582031 442.273438 C 331.5625 442.28125 331.542969 442.289062 331.523438 442.296875 C 331.132812 442.339844 330.777344 442.507812 330.503906 442.765625 C 327.414062 444.210938 324.597656 445.96875 321.90625 448.011719 C 312.640625 437.542969 321.984375 423.851562 331.867188 409.378906 C 333.941406 406.339844 336.085938 403.199219 338.035156 400.105469 C 345.359375 388.484375 348.734375 380.5625 350.855469 374.960938 C 351.199219 374.050781 350.742188 373.035156 349.835938 372.6875 C 348.921875 372.34375 347.90625 372.800781 347.5625 373.710938 C 345.371094 379.496094 342.171875 386.933594 335.058594 398.222656 C 333.140625 401.261719 331.015625 404.375 328.957031 407.390625 C 318.75 422.339844 308.214844 437.78125 319.152344 450.21875 C 317.910156 451.273438 316.679688 452.382812 315.441406 453.558594 C 315.144531 453.796875 314.257812 454.558594 313.109375 455.941406 C 310.15625 454.019531 307.769531 449.628906 306.757812 444.089844 Z M 450.792969 321.679688 C 446.710938 317.785156 433.019531 307.125 405.46875 307.125 C 377.5 307.125 363.125 318.101562 359.058594 321.820312 C 358.496094 321.332031 357.753906 320.664062 356.921875 319.867188 C 360.144531 316.734375 374.417969 304.726562 403.898438 304.726562 C 434.585938 304.726562 449.835938 317.398438 452.496094 319.847656 C 451.847656 320.570312 451.261719 321.199219 450.792969 321.679688 Z M 440.90625 485.320312 C 428.582031 488.125 419.3125 487.210938 413.351562 482.605469 C 408.90625 479.171875 407.433594 474.417969 406.945312 471.863281 C 430.246094 471.730469 446.660156 466.71875 455.714844 456.9375 C 461.269531 450.9375 462.371094 444.832031 462.5625 441.988281 C 466.457031 442.445312 469.917969 443.210938 473.050781 444.25 C 473.371094 449.824219 473.324219 477.945312 440.90625 485.320312 Z M 348.546875 441.804688 C 348.863281 444.761719 350.230469 450.886719 355.980469 456.890625 C 365.070312 466.382812 380.835938 471.394531 402.839844 471.832031 C 402.371094 474.363281 400.917969 479.101562 396.457031 482.574219 C 390.496094 487.207031 381.214844 488.128906 368.863281 485.320312 C 336.9375 478.058594 333.796875 451.328125 333.496094 445.253906 C 337.746094 443.472656 342.601562 442.316406 348.546875 441.804688 Z M 355.957031 441.496094 C 370.457031 441.496094 379.441406 442.632812 383.421875 444.972656 C 383.699219 445.140625 384.007812 445.21875 384.3125 445.21875 C 384.914062 445.21875 385.503906 444.90625 385.832031 444.347656 C 386.324219 443.507812 386.042969 442.429688 385.203125 441.933594 C 382.089844 440.101562 376.804688 438.933594 368.945312 438.371094 C 374.628906 435.457031 378.875 430.894531 381.1875 426.328125 C 386.007812 431.027344 398.496094 442.574219 404.882812 442.574219 C 411.316406 442.574219 423.53125 430.445312 428.203125 425.539062 C 430.417969 430.371094 434.828125 435.304688 440.851562 438.382812 C 433.523438 438.933594 428.421875 440.054688 424.707031 441.867188 C 423.832031 442.296875 423.46875 443.351562 423.894531 444.226562 C 424.199219 444.851562 424.824219 445.21875 425.476562 445.21875 C 425.738281 445.21875 426 445.160156 426.25 445.039062 C 431.269531 442.589844 439.773438 441.496094 453.816406 441.496094 C 455.652344 441.496094 457.378906 441.566406 459.050781 441.675781 C 458.921875 443.871094 458.066406 449.210938 453.132812 454.539062 C 447.300781 460.839844 434.390625 468.351562 406.011719 468.351562 C 383.734375 468.351562 367.34375 463.574219 358.613281 454.542969 C 353.550781 449.300781 352.339844 444.046875 352.058594 441.582031 C 353.3125 441.527344 354.601562 441.496094 355.957031 441.496094 Z M 371.191406 345.410156 C 374.964844 345.8125 378.726562 346.121094 382.445312 346.363281 C 380.496094 346.832031 378.421875 347.59375 376.265625 348.796875 C 375.417969 349.273438 375.113281 350.347656 375.589844 351.195312 C 375.910156 351.773438 376.511719 352.101562 377.128906 352.101562 C 377.417969 352.101562 377.710938 352.027344 377.984375 351.875 C 386.992188 346.84375 394.300781 350.605469 394.609375 350.769531 C 395.464844 351.226562 396.53125 350.910156 396.992188 350.054688 C 397.457031 349.199219 397.136719 348.128906 396.28125 347.664062 C 396.1875 347.613281 395.566406 347.285156 394.519531 346.914062 C 401.410156 347.101562 407.941406 347.070312 413.796875 346.925781 C 412.773438 347.292969 412.164062 347.617188 412.074219 347.667969 C 411.21875 348.132812 410.902344 349.203125 411.371094 350.058594 C 411.835938 350.914062 412.910156 351.230469 413.757812 350.761719 C 413.835938 350.722656 421.226562 346.804688 430.230469 351.875 C 430.5 352.027344 430.796875 352.101562 431.089844 352.101562 C 431.707031 352.101562 432.304688 351.777344 432.628906 351.199219 C 433.105469 350.351562 432.804688 349.277344 431.957031 348.800781 C 429.925781 347.65625 427.96875 346.902344 426.117188 346.429688 C 431.871094 346.105469 436.1875 345.738281 438.464844 345.519531 L 437.304688 374.546875 C 436.957031 376.839844 431.691406 408.308594 404.832031 408.488281 C 394.84375 408.421875 387.839844 404.035156 382.96875 398.425781 C 382.851562 398.199219 382.6875 398.003906 382.488281 397.847656 C 374.65625 388.425781 372.570312 375.960938 372.355469 374.546875 Z M 383.171875 418.960938 L 383.171875 403.535156 C 388.296875 408.328125 395.179688 411.816406 404.332031 411.996094 C 404.421875 412.011719 404.511719 412.023438 404.605469 412.023438 C 404.679688 412.023438 404.753906 412.015625 404.832031 412.015625 C 404.90625 412.015625 404.980469 412.023438 405.058594 412.023438 C 405.148438 412.023438 405.238281 412.011719 405.328125 411.996094 C 414.546875 411.816406 421.460938 408.277344 426.597656 403.433594 L 426.597656 418.960938 C 426.597656 419.855469 426.707031 420.792969 426.917969 421.757812 C 420.582031 428.628906 409.355469 439.046875 404.882812 439.046875 C 400.449219 439.046875 389.171875 429.339844 382.597656 422.765625 C 382.972656 421.445312 383.171875 420.164062 383.171875 418.960938 Z M 317.65625 456.296875 C 317.710938 456.257812 317.761719 456.214844 317.808594 456.171875 C 321.824219 452.347656 325.699219 449.242188 330.121094 446.875 C 331.003906 455.554688 336.300781 481.527344 368.082031 488.761719 C 372.976562 489.871094 377.445312 490.429688 381.488281 490.429688 C 388.539062 490.429688 394.273438 488.734375 398.617188 485.359375 C 401.832031 482.859375 403.738281 479.84375 404.882812 477.15625 C 406.027344 479.84375 407.9375 482.859375 411.148438 485.359375 C 415.492188 488.734375 421.230469 490.429688 428.28125 490.429688 C 432.320312 490.429688 436.792969 489.871094 441.683594 488.761719 C 473.941406 481.421875 476.574219 454.183594 476.578125 445.574219 C 482.558594 448.136719 487.355469 451.789062 491.960938 456.171875 C 492.003906 456.210938 492.054688 456.257812 492.101562 456.292969 C 492.222656 456.382812 503.957031 465.847656 501.269531 493.214844 C 500.460938 501.480469 498.648438 512.957031 496.03125 526.464844 L 477.613281 526.464844 C 478.230469 525.183594 478.699219 523.902344 479.046875 522.636719 L 486.25 522.636719 C 487.222656 522.636719 488.011719 521.84375 488.011719 520.871094 C 488.011719 519.898438 487.222656 519.109375 486.25 519.109375 L 479.738281 519.109375 C 479.863281 518.042969 479.929688 517.007812 479.933594 516.023438 L 485.710938 516.023438 C 486.683594 516.023438 487.472656 515.234375 487.472656 514.261719 C 487.472656 513.285156 486.683594 512.496094 485.710938 512.496094 L 479.722656 512.496094 C 479.585938 511.359375 479.402344 510.355469 479.21875 509.539062 L 482.378906 509.539062 C 483.351562 509.539062 484.140625 508.746094 484.140625 507.773438 C 484.140625 506.800781 483.351562 506.011719 482.378906 506.011719 L 476.960938 506.011719 C 476.933594 506.011719 476.914062 506.015625 476.886719 506.019531 C 476.695312 506.019531 476.5 506.046875 476.308594 506.117188 C 475.394531 506.449219 474.921875 507.457031 475.25 508.371094 C 475.285156 508.472656 478.625 518.132812 473.609375 526.464844 L 336.386719 526.464844 C 331.359375 518.128906 334.507812 508.46875 334.546875 508.34375 C 334.558594 508.3125 334.5625 508.28125 334.570312 508.25 C 334.585938 508.1875 334.605469 508.125 334.613281 508.058594 C 334.625 508 334.628906 507.941406 334.632812 507.882812 C 334.632812 507.847656 334.644531 507.8125 334.644531 507.773438 C 334.644531 507.753906 334.636719 507.734375 334.636719 507.714844 C 334.636719 507.652344 334.625 507.589844 334.617188 507.53125 C 334.609375 507.476562 334.601562 507.417969 334.589844 507.367188 C 334.578125 507.3125 334.558594 507.257812 334.539062 507.207031 C 334.523438 507.148438 334.503906 507.09375 334.480469 507.042969 C 334.457031 506.992188 334.429688 506.945312 334.402344 506.898438 C 334.371094 506.847656 334.34375 506.796875 334.3125 506.753906 C 334.277344 506.703125 334.238281 506.660156 334.199219 506.617188 C 334.164062 506.578125 334.132812 506.535156 334.09375 506.5 C 334.050781 506.457031 334.003906 506.421875 333.953125 506.386719 C 333.910156 506.351562 333.867188 506.316406 333.820312 506.289062 C 333.773438 506.257812 333.726562 506.234375 333.675781 506.207031 C 333.621094 506.179688 333.566406 506.152344 333.507812 506.132812 C 333.488281 506.125 333.472656 506.113281 333.453125 506.105469 C 333.417969 506.09375 333.382812 506.09375 333.347656 506.082031 C 333.289062 506.066406 333.230469 506.050781 333.167969 506.039062 C 333.109375 506.03125 333.050781 506.027344 332.988281 506.023438 C 332.953125 506.019531 332.917969 506.011719 332.882812 506.011719 L 327.464844 506.011719 C 326.492188 506.011719 325.703125 506.800781 325.703125 507.773438 C 325.703125 508.75 326.492188 509.539062 327.464844 509.539062 L 330.605469 509.539062 C 330.433594 510.351562 330.269531 511.359375 330.148438 512.496094 L 324.128906 512.496094 C 323.15625 512.496094 322.367188 513.289062 322.367188 514.261719 C 322.367188 515.234375 323.15625 516.023438 324.128906 516.023438 L 329.980469 516.023438 C 329.996094 517.007812 330.070312 518.042969 330.207031 519.109375 L 323.589844 519.109375 C 322.617188 519.109375 321.828125 519.898438 321.828125 520.875 C 321.828125 521.847656 322.617188 522.636719 323.589844 522.636719 L 330.925781 522.636719 C 331.28125 523.902344 331.757812 525.183594 332.378906 526.464844 L 313.738281 526.464844 C 311.121094 512.960938 309.308594 501.480469 308.496094 493.214844 C 305.808594 465.84375 317.546875 456.382812 317.65625 456.296875 Z M 499.621094 526.464844 C 502.1875 513.140625 503.96875 501.792969 504.777344 493.558594 C 506.5625 475.371094 502.355469 464.546875 498.730469 458.816406 C 502.46875 456.308594 505.308594 451.207031 506.496094 444.722656 C 508.742188 432.460938 504.621094 419.808594 495.46875 410.878906 C 495.328125 410.742188 495.1875 410.589844 495.046875 410.449219 L 495.046875 380.144531 C 495.507812 380.179688 496.011719 380.207031 496.527344 380.207031 C 497.40625 380.207031 498.308594 380.136719 499.046875 379.917969 C 503.617188 378.574219 506.558594 373.085938 505.335938 368.179688 C 505.214844 367.703125 504.902344 367.296875 504.46875 367.058594 C 503.695312 366.632812 502.894531 366.433594 502.085938 366.371094 C 504.742188 364.023438 506.136719 360.054688 505.230469 356.402344 C 505.109375 355.925781 504.796875 355.519531 504.363281 355.28125 C 503.804688 354.972656 503.230469 354.78125 502.648438 354.671875 C 505.417969 352.347656 506.898438 348.285156 505.96875 344.554688 C 505.816406 343.945312 505.417969 343.425781 504.847656 343.097656 C 502.949219 342.007812 498.699219 343.238281 498.65625 343.25 C 498.449219 343.3125 498.246094 343.378906 498.046875 343.449219 C 497.707031 343.570312 497.394531 343.726562 497.078125 343.875 C 499.253906 341.445312 500.019531 337.859375 498.777344 334.488281 C 497.875 332.035156 496.363281 330.308594 494.28125 329.347656 C 493.835938 329.140625 493.324219 329.132812 492.867188 329.320312 C 488.457031 331.160156 486.347656 336.253906 488.066406 340.921875 C 488.472656 342.03125 489.015625 342.988281 489.671875 343.800781 C 489.371094 343.664062 489.058594 343.539062 488.726562 343.441406 C 486.433594 342.765625 484.003906 342.210938 481.773438 343.433594 C 481.339844 343.667969 481.027344 344.074219 480.910156 344.554688 C 479.984375 348.261719 481.441406 352.296875 484.179688 354.632812 C 483.484375 354.722656 482.796875 354.914062 482.125 355.28125 C 481.691406 355.519531 481.378906 355.925781 481.261719 356.402344 C 480.339844 360.105469 481.785156 364.132812 484.511719 366.464844 C 483.679688 366.523438 482.851562 366.726562 482.054688 367.164062 C 481.621094 367.398438 481.308594 367.808594 481.1875 368.285156 C 479.96875 373.195312 482.90625 378.679688 487.480469 380.023438 C 488.378906 380.289062 489.3125 380.417969 490.238281 380.417969 C 490.671875 380.417969 491.101562 380.378906 491.523438 380.324219 L 491.523438 406.53125 C 479.800781 392.234375 468.722656 366.714844 465.945312 353.933594 C 462.609375 338.5625 456.003906 328.371094 453.066406 324.40625 C 456.25 321.179688 465.257812 311.289062 466.59375 301.445312 C 466.726562 300.480469 466.050781 299.589844 465.085938 299.460938 C 464.132812 299.332031 463.234375 300.003906 463.105469 300.96875 C 462.3125 306.792969 458.261719 312.882812 454.792969 317.164062 C 451.421875 314.027344 435.683594 301.199219 403.898438 301.199219 C 372.972656 301.199219 358.144531 313.667969 354.449219 317.339844 C 350.625 313.1875 346.335938 307.191406 346.40625 301.265625 C 346.417969 300.292969 345.636719 299.496094 344.664062 299.484375 C 343.703125 299.4375 342.894531 300.25 342.882812 301.226562 C 342.757812 311.492188 352.90625 321.183594 356.695312 324.441406 C 353.742188 328.433594 347.167969 338.609375 343.84375 353.933594 C 341.058594 366.753906 329.921875 392.390625 318.15625 406.664062 L 318.15625 380.144531 C 318.621094 380.179688 319.121094 380.207031 319.640625 380.207031 C 320.515625 380.207031 321.417969 380.132812 322.15625 379.917969 C 326.730469 378.574219 329.667969 373.085938 328.449219 368.179688 C 328.328125 367.699219 328.015625 367.292969 327.582031 367.058594 C 326.804688 366.632812 326.007812 366.433594 325.199219 366.371094 C 327.855469 364.023438 329.25 360.054688 328.339844 356.402344 C 328.222656 355.925781 327.90625 355.519531 327.476562 355.28125 C 326.914062 354.972656 326.339844 354.78125 325.757812 354.671875 C 328.53125 352.347656 330.007812 348.285156 329.082031 344.554688 C 328.929688 343.945312 328.53125 343.425781 327.957031 343.097656 C 326.0625 342.007812 321.941406 343.199219 321.765625 343.25 C 321.5625 343.3125 321.355469 343.378906 321.15625 343.449219 C 320.816406 343.570312 320.503906 343.726562 320.191406 343.875 C 322.367188 341.445312 323.128906 337.859375 321.890625 334.488281 C 320.984375 332.035156 319.472656 330.304688 317.394531 329.347656 C 316.949219 329.140625 316.433594 329.132812 315.980469 329.320312 C 311.570312 331.160156 309.460938 336.253906 311.175781 340.917969 C 311.585938 342.03125 312.128906 342.988281 312.78125 343.796875 C 312.480469 343.664062 312.171875 343.539062 311.839844 343.441406 C 309.546875 342.765625 307.113281 342.210938 304.882812 343.433594 C 304.453125 343.667969 304.136719 344.074219 304.019531 344.554688 C 303.097656 348.261719 304.550781 352.296875 307.289062 354.628906 C 306.59375 354.722656 305.90625 354.914062 305.238281 355.28125 C 304.804688 355.515625 304.492188 355.921875 304.371094 356.402344 C 303.449219 360.105469 304.898438 364.132812 307.625 366.464844 C 306.789062 366.523438 305.964844 366.726562 305.167969 367.164062 C 304.734375 367.398438 304.421875 367.804688 304.300781 368.285156 C 303.082031 373.195312 306.019531 378.679688 310.589844 380.023438 C 311.492188 380.289062 312.425781 380.417969 313.351562 380.417969 C 313.78125 380.417969 314.210938 380.378906 314.636719 380.324219 L 314.636719 410.558594 C 314.53125 410.664062 314.425781 410.773438 314.324219 410.878906 C 305.171875 419.808594 301.046875 432.460938 303.292969 444.722656 C 304.476562 451.195312 307.316406 456.292969 311.042969 458.804688 C 307.421875 464.535156 303.203125 475.359375 304.992188 493.558594 C 305.800781 501.792969 307.582031 513.140625 310.152344 526.464844 L 298.554688 526.464844 L 298.554688 178.652344 C 298.554688 178.445312 298.628906 178.265625 298.773438 178.121094 C 298.917969 177.972656 299.097656 177.902344 299.304688 177.902344 L 510.453125 177.902344 C 510.65625 177.902344 510.835938 177.972656 510.984375 178.121094 C 511.128906 178.265625 511.203125 178.445312 511.203125 178.652344 L 511.203125 368.460938 L 511.21875 526.464844 Z M 493.34375 342.46875 C 492.480469 341.863281 491.832031 340.953125 491.371094 339.703125 C 490.390625 337.042969 491.304688 334.28125 493.5 332.945312 C 494.363281 333.546875 495.011719 334.457031 495.472656 335.710938 C 496.449219 338.367188 495.539062 341.132812 493.34375 342.46875 Z M 495.046875 356.46875 C 495.046875 356.46875 495.046875 356.46875 495.046875 356.472656 Z M 491.523438 368.390625 L 491.523438 368.441406 C 491.503906 368.429688 491.484375 368.414062 491.464844 368.398438 C 491.484375 368.398438 491.503906 368.394531 491.523438 368.390625 Z M 495.046875 374.671875 C 495.046875 374.667969 495.050781 374.664062 495.050781 374.65625 C 495.632812 372.371094 496.796875 370.957031 498.507812 370.453125 C 499.820312 370.066406 501.074219 369.742188 502.0625 369.910156 C 502.3125 372.746094 500.539062 375.804688 498.054688 376.535156 C 497.394531 376.726562 496.164062 376.707031 495.046875 376.605469 Z M 497.949219 364.757812 C 496.996094 365.039062 495.996094 365.050781 495.046875 364.816406 L 495.046875 362.546875 C 495.65625 360.460938 496.78125 359.152344 498.402344 358.675781 C 499.710938 358.289062 500.96875 357.96875 501.957031 358.132812 C 502.207031 360.96875 500.433594 364.027344 497.949219 364.757812 Z M 498.6875 352.910156 C 497.59375 353.230469 496.238281 353.207031 495.113281 352.867188 C 495.308594 351.71875 496.1875 349.328125 496.539062 348.730469 C 497.257812 347.648438 498.398438 347.070312 499.230469 346.769531 C 499.371094 346.722656 499.507812 346.675781 499.648438 346.636719 C 500.394531 346.414062 501.84375 346.175781 502.6875 346.164062 C 502.996094 349.03125 501.207031 352.167969 498.6875 352.910156 Z M 491.488281 352.90625 C 490.425781 353.210938 489.242188 353.21875 488.1875 352.910156 C 485.703125 352.175781 483.929688 349.121094 484.179688 346.285156 C 485.167969 346.113281 486.425781 346.441406 487.734375 346.824219 C 490.148438 347.535156 491.242188 350.410156 491.488281 352.90625 Z M 484.53125 358.132812 C 485.519531 357.964844 486.777344 358.289062 488.085938 358.675781 C 489.773438 359.171875 490.917969 360.492188 491.492188 362.59375 C 491.496094 362.667969 491.507812 362.742188 491.523438 362.8125 L 491.523438 364.804688 C 490.550781 365.058594 489.519531 365.046875 488.542969 364.757812 C 486.058594 364.027344 484.285156 360.96875 484.53125 358.132812 Z M 488.015625 370.558594 C 490.203125 371.199219 491.128906 373.15625 491.523438 374.695312 L 491.523438 376.753906 C 490.554688 376.96875 489.46875 376.933594 488.472656 376.640625 C 485.988281 375.910156 484.214844 372.851562 484.460938 370.019531 C 485.449219 369.847656 486.707031 370.171875 488.015625 370.558594 Z M 318.15625 356.46875 C 318.15625 356.46875 318.15625 356.46875 318.15625 356.472656 Z M 314.632812 368.390625 L 314.632812 368.441406 C 314.613281 368.429688 314.59375 368.414062 314.574219 368.398438 C 314.59375 368.398438 314.613281 368.394531 314.632812 368.390625 Z M 318.15625 374.671875 C 318.15625 374.667969 318.160156 374.664062 318.160156 374.65625 C 318.746094 372.371094 319.90625 370.957031 321.617188 370.453125 C 322.929688 370.066406 324.1875 369.742188 325.175781 369.910156 C 325.421875 372.746094 323.648438 375.804688 321.164062 376.535156 C 320.503906 376.726562 319.273438 376.707031 318.15625 376.605469 Z M 321.058594 364.757812 C 320.105469 365.039062 319.109375 365.050781 318.15625 364.816406 L 318.15625 362.546875 C 318.765625 360.460938 319.890625 359.152344 321.511719 358.675781 C 322.824219 358.289062 324.082031 357.96875 325.066406 358.132812 C 325.316406 360.96875 323.542969 364.027344 321.058594 364.757812 Z M 321.796875 352.910156 C 320.703125 353.230469 319.347656 353.207031 318.222656 352.867188 C 318.417969 351.71875 319.296875 349.328125 319.652344 348.730469 C 320.367188 347.648438 321.507812 347.070312 322.34375 346.769531 C 322.480469 346.722656 322.621094 346.675781 322.757812 346.636719 C 323.503906 346.414062 324.957031 346.175781 325.796875 346.164062 C 326.109375 349.03125 324.316406 352.167969 321.796875 352.910156 Z M 316.453125 342.46875 C 315.589844 341.863281 314.941406 340.953125 314.480469 339.703125 C 313.503906 337.042969 314.414062 334.28125 316.609375 332.945312 C 317.472656 333.546875 318.121094 334.457031 318.582031 335.710938 C 319.5625 338.367188 318.644531 341.132812 316.453125 342.46875 Z M 314.597656 352.90625 C 313.535156 353.210938 312.351562 353.21875 311.300781 352.910156 C 308.816406 352.175781 307.039062 349.121094 307.289062 346.285156 C 308.28125 346.113281 309.535156 346.441406 310.84375 346.824219 C 313.257812 347.535156 314.351562 350.410156 314.597656 352.90625 Z M 307.644531 358.132812 C 308.628906 357.964844 309.890625 358.289062 311.199219 358.675781 C 312.882812 359.171875 314.023438 360.492188 314.601562 362.589844 C 314.609375 362.667969 314.617188 362.742188 314.632812 362.8125 L 314.632812 364.804688 C 313.660156 365.058594 312.628906 365.046875 311.652344 364.757812 C 309.167969 364.027344 307.394531 360.96875 307.644531 358.132812 Z M 311.128906 370.558594 C 313.3125 371.199219 314.238281 373.15625 314.632812 374.695312 L 314.632812 376.753906 C 313.664062 376.96875 312.582031 376.933594 311.582031 376.640625 C 309.097656 375.910156 307.324219 372.851562 307.574219 370.019531 C 308.5625 369.847656 309.816406 370.171875 311.128906 370.558594 Z M 403.109375 206.640625 L 403.109375 188.042969 C 403.109375 187.070312 403.898438 186.28125 404.871094 186.28125 C 405.84375 186.28125 406.632812 187.070312 406.632812 188.042969 L 406.632812 206.640625 C 406.632812 207.613281 405.84375 208.402344 404.871094 208.402344 C 403.898438 208.402344 403.109375 207.613281 403.109375 206.640625 Z M 393.070312 206.640625 L 393.070312 188.042969 C 393.070312 187.070312 393.859375 186.28125 394.832031 186.28125 C 395.804688 186.28125 396.59375 187.070312 396.59375 188.042969 L 396.59375 206.640625 C 396.59375 207.613281 395.804688 208.402344 394.832031 208.402344 C 393.859375 208.402344 393.070312 207.613281 393.070312 206.640625 Z M 413.175781 206.640625 L 413.175781 188.042969 C 413.175781 187.070312 413.964844 186.28125 414.9375 186.28125 C 415.910156 186.28125 416.699219 187.070312 416.699219 188.042969 L 416.699219 206.640625 C 416.699219 207.613281 415.910156 208.402344 414.9375 208.402344 C 413.964844 208.402344 413.175781 207.613281 413.175781 206.640625 Z M 385.015625 291.242188 C 385.117188 291.558594 385.03125 291.910156 384.792969 292.144531 L 382.265625 294.609375 L 382.863281 298.089844 C 382.917969 298.417969 382.785156 298.753906 382.511719 298.949219 C 382.242188 299.148438 381.882812 299.175781 381.585938 299.019531 L 378.464844 297.375 L 375.34375 299.019531 C 375.214844 299.085938 375.074219 299.121094 374.933594 299.121094 C 374.75 299.121094 374.566406 299.0625 374.417969 298.949219 C 374.144531 298.753906 374.007812 298.417969 374.066406 298.089844 L 374.660156 294.609375 L 372.136719 292.144531 C 371.898438 291.910156 371.808594 291.558594 371.914062 291.242188 C 372.015625 290.921875 372.292969 290.6875 372.625 290.640625 L 376.113281 290.132812 L 377.671875 286.96875 C 377.972656 286.367188 378.957031 286.367188 379.253906 286.96875 L 380.816406 290.132812 L 384.304688 290.640625 C 384.636719 290.6875 384.910156 290.921875 385.015625 291.242188 Z M 437.855469 290.324219 C 437.960938 290.644531 437.871094 290.992188 437.632812 291.226562 L 435.105469 293.691406 L 435.703125 297.171875 C 435.757812 297.503906 435.625 297.835938 435.351562 298.035156 C 435.082031 298.230469 434.722656 298.257812 434.425781 298.101562 L 431.304688 296.457031 L 428.183594 298.101562 C 428.054688 298.167969 427.914062 298.203125 427.773438 298.203125 C 427.589844 298.203125 427.410156 298.144531 427.257812 298.035156 C 426.984375 297.835938 426.847656 297.503906 426.90625 297.171875 L 427.5 293.691406 L 424.976562 291.226562 C 424.738281 290.992188 424.648438 290.644531 424.753906 290.324219 C 424.855469 290.003906 425.132812 289.773438 425.464844 289.722656 L 428.953125 289.214844 L 430.515625 286.050781 C 430.8125 285.449219 431.796875 285.449219 432.09375 286.050781 L 433.65625 289.214844 L 437.144531 289.722656 C 437.476562 289.773438 437.75 290.003906 437.855469 290.324219 Z M 355.277344 289.195312 C 355.378906 289.515625 355.292969 289.867188 355.054688 290.101562 L 352.527344 292.566406 L 353.125 296.042969 C 353.179688 296.375 353.046875 296.710938 352.773438 296.90625 C 352.503906 297.105469 352.144531 297.132812 351.847656 296.976562 L 348.726562 295.332031 L 345.605469 296.976562 C 345.476562 297.042969 345.335938 297.074219 345.195312 297.074219 C 345.011719 297.074219 344.828125 297.019531 344.675781 296.90625 C 344.40625 296.710938 344.269531 296.375 344.328125 296.042969 L 344.921875 292.566406 L 342.398438 290.101562 C 342.160156 289.867188 342.070312 289.515625 342.175781 289.195312 C 342.277344 288.878906 342.554688 288.644531 342.886719 288.597656 L 346.375 288.089844 L 347.9375 284.925781 C 348.234375 284.320312 349.21875 284.324219 349.515625 284.925781 L 351.078125 288.089844 L 354.566406 288.597656 C 354.898438 288.644531 355.171875 288.878906 355.277344 289.195312 Z M 468.988281 289.195312 C 469.09375 289.515625 469.007812 289.867188 468.765625 290.101562 L 466.238281 292.566406 L 466.835938 296.042969 C 466.890625 296.375 466.757812 296.710938 466.484375 296.90625 C 466.332031 297.019531 466.152344 297.074219 465.96875 297.074219 C 465.828125 297.074219 465.6875 297.042969 465.558594 296.976562 L 462.4375 295.332031 L 459.316406 296.976562 C 459.019531 297.128906 458.65625 297.105469 458.390625 296.90625 C 458.117188 296.710938 457.980469 296.375 458.039062 296.042969 L 458.632812 292.566406 L 456.109375 290.101562 C 455.871094 289.867188 455.78125 289.515625 455.886719 289.195312 C 455.988281 288.878906 456.265625 288.644531 456.597656 288.597656 L 460.085938 288.089844 L 461.648438 284.925781 C 461.796875 284.625 462.101562 284.433594 462.4375 284.433594 C 462.773438 284.433594 463.078125 284.625 463.226562 284.925781 L 464.789062 288.089844 L 468.277344 288.597656 C 468.609375 288.644531 468.886719 288.878906 468.988281 289.195312 Z M 369.71875 279.59375 C 369.824219 279.910156 369.734375 280.261719 369.496094 280.496094 L 366.96875 282.960938 L 367.566406 286.441406 C 367.621094 286.769531 367.488281 287.105469 367.214844 287.300781 C 366.945312 287.5 366.585938 287.527344 366.289062 287.371094 L 363.167969 285.726562 L 360.046875 287.371094 C 359.917969 287.4375 359.777344 287.472656 359.636719 287.472656 C 359.453125 287.472656 359.273438 287.414062 359.121094 287.300781 C 358.847656 287.105469 358.710938 286.769531 358.769531 286.441406 L 359.363281 282.960938 L 356.839844 280.496094 C 356.597656 280.261719 356.511719 279.914062 356.617188 279.59375 C 356.71875 279.273438 356.996094 279.039062 357.328125 278.992188 L 360.816406 278.484375 L 362.378906 275.320312 C 362.675781 274.71875 363.660156 274.71875 363.957031 275.320312 L 365.519531 278.484375 L 369.007812 278.992188 C 369.339844 279.039062 369.613281 279.273438 369.71875 279.59375 Z M 455.53125 279.59375 C 455.632812 279.910156 455.546875 280.261719 455.308594 280.496094 L 452.78125 282.960938 L 453.378906 286.441406 C 453.433594 286.769531 453.300781 287.105469 453.027344 287.300781 C 452.757812 287.5 452.398438 287.527344 452.101562 287.371094 L 448.980469 285.726562 L 445.859375 287.371094 C 445.730469 287.4375 445.589844 287.472656 445.449219 287.472656 C 445.265625 287.472656 445.082031 287.414062 444.929688 287.300781 C 444.660156 287.105469 444.523438 286.769531 444.582031 286.441406 L 445.175781 282.960938 L 442.652344 280.496094 C 442.410156 280.261719 442.324219 279.914062 442.429688 279.59375 C 442.53125 279.273438 442.804688 279.039062 443.140625 278.992188 L 446.628906 278.484375 L 448.1875 275.320312 C 448.488281 274.71875 449.472656 274.71875 449.769531 275.320312 L 451.328125 278.484375 L 454.820312 278.992188 C 455.152344 279.039062 455.425781 279.273438 455.53125 279.59375 Z M 372.890625 273.101562 L 370.367188 270.636719 C 370.125 270.402344 370.039062 270.050781 370.144531 269.730469 C 370.246094 269.414062 370.523438 269.179688 370.855469 269.132812 L 374.34375 268.625 L 375.90625 265.457031 C 376.203125 264.855469 377.1875 264.855469 377.484375 265.457031 L 379.046875 268.625 L 382.535156 269.132812 C 382.867188 269.179688 383.140625 269.414062 383.246094 269.730469 C 383.351562 270.050781 383.261719 270.402344 383.023438 270.636719 L 380.496094 273.101562 L 381.09375 276.578125 C 381.148438 276.910156 381.015625 277.246094 380.742188 277.441406 C 380.589844 277.554688 380.40625 277.609375 380.226562 277.609375 C 380.085938 277.609375 379.945312 277.578125 379.816406 277.507812 L 376.695312 275.867188 L 373.574219 277.507812 C 373.277344 277.664062 372.914062 277.640625 372.644531 277.441406 C 372.375 277.246094 372.238281 276.910156 372.296875 276.578125 Z M 439.890625 269.730469 C 439.996094 270.050781 439.90625 270.402344 439.667969 270.636719 L 437.140625 273.101562 L 437.738281 276.578125 C 437.792969 276.910156 437.660156 277.246094 437.386719 277.441406 C 437.234375 277.554688 437.050781 277.609375 436.871094 277.609375 C 436.730469 277.609375 436.589844 277.578125 436.460938 277.507812 L 433.339844 275.867188 L 430.21875 277.507812 C 429.917969 277.664062 429.558594 277.640625 429.289062 277.441406 C 429.019531 277.246094 428.882812 276.910156 428.941406 276.578125 L 429.535156 273.101562 L 427.011719 270.636719 C 426.769531 270.402344 426.683594 270.050781 426.789062 269.730469 C 426.890625 269.414062 427.167969 269.179688 427.5 269.132812 L 430.988281 268.625 L 432.550781 265.457031 C 432.699219 265.15625 433.003906 264.96875 433.339844 264.96875 C 433.675781 264.96875 433.980469 265.15625 434.128906 265.460938 L 435.6875 268.625 L 439.179688 269.132812 C 439.511719 269.179688 439.789062 269.414062 439.890625 269.730469 Z M 393.554688 267.941406 L 390.433594 266.296875 L 387.3125 267.941406 C 387.183594 268.011719 387.042969 268.042969 386.902344 268.042969 C 386.71875 268.042969 386.535156 267.988281 386.382812 267.875 C 386.113281 267.675781 385.976562 267.34375 386.035156 267.011719 L 386.628906 263.53125 L 384.105469 261.070312 C 383.863281 260.835938 383.777344 260.484375 383.882812 260.164062 C 383.984375 259.84375 384.261719 259.613281 384.59375 259.566406 L 388.082031 259.058594 L 389.644531 255.890625 C 389.792969 255.589844 390.097656 255.398438 390.433594 255.398438 C 390.769531 255.398438 391.074219 255.589844 391.222656 255.890625 L 392.78125 259.058594 L 396.273438 259.566406 C 396.605469 259.613281 396.882812 259.84375 396.984375 260.164062 C 397.089844 260.484375 397.003906 260.835938 396.761719 261.066406 L 394.234375 263.53125 L 394.832031 267.011719 C 394.886719 267.34375 394.753906 267.675781 394.480469 267.875 C 394.210938 268.070312 393.851562 268.101562 393.554688 267.941406 Z M 422.941406 266.519531 C 423 266.851562 422.863281 267.183594 422.59375 267.382812 C 422.324219 267.578125 421.960938 267.605469 421.664062 267.449219 L 418.542969 265.804688 L 415.421875 267.449219 C 415.292969 267.515625 415.152344 267.550781 415.011719 267.550781 C 414.832031 267.550781 414.648438 267.492188 414.496094 267.382812 C 414.222656 267.183594 414.089844 266.851562 414.144531 266.519531 L 414.742188 263.039062 L 412.214844 260.574219 C 411.976562 260.339844 411.886719 259.992188 411.992188 259.671875 C 412.09375 259.351562 412.371094 259.121094 412.703125 259.070312 L 416.191406 258.5625 L 417.753906 255.398438 C 418.050781 254.796875 419.035156 254.796875 419.332031 255.398438 L 420.894531 258.5625 L 424.382812 259.070312 C 424.714844 259.121094 424.992188 259.351562 425.09375 259.671875 C 425.199219 259.992188 425.113281 260.339844 424.871094 260.574219 L 422.347656 263.039062 Z M 397.917969 251.722656 C 397.679688 251.488281 397.589844 251.136719 397.695312 250.816406 C 397.796875 250.5 398.074219 250.265625 398.40625 250.21875 L 401.894531 249.710938 L 403.457031 246.542969 C 403.605469 246.242188 403.910156 246.050781 404.246094 246.050781 C 404.582031 246.050781 404.886719 246.242188 405.035156 246.542969 L 406.597656 249.710938 L 410.085938 250.21875 C 410.417969 250.265625 410.695312 250.5 410.796875 250.816406 C 410.902344 251.136719 410.816406 251.488281 410.574219 251.722656 L 408.050781 254.183594 L 408.644531 257.664062 C 408.703125 257.996094 408.566406 258.328125 408.292969 258.527344 C 408.140625 258.636719 407.960938 258.695312 407.777344 258.695312 C 407.636719 258.695312 407.496094 258.664062 407.367188 258.59375 L 404.246094 256.953125 L 401.125 258.59375 C 400.828125 258.75 400.464844 258.722656 400.199219 258.527344 C 399.925781 258.328125 399.789062 257.996094 399.847656 257.664062 L 400.441406 254.183594 Z M 417.25 278.398438 L 412.527344 282.882812 L 417.25 287.363281 C 417.519531 287.617188 417.601562 288.015625 417.453125 288.351562 C 417.308594 288.691406 416.96875 288.886719 416.597656 288.882812 L 410.3125 288.546875 L 410.636719 295.203125 C 410.652344 295.582031 410.433594 295.925781 410.082031 296.066406 C 409.734375 296.203125 409.332031 296.109375 409.089844 295.820312 L 404.882812 290.925781 L 400.679688 295.820312 C 400.507812 296.019531 400.265625 296.128906 400.011719 296.128906 C 399.902344 296.128906 399.792969 296.109375 399.6875 296.066406 C 399.335938 295.925781 399.113281 295.582031 399.132812 295.203125 L 399.457031 288.546875 L 393.171875 288.882812 C 392.804688 288.890625 392.460938 288.691406 392.3125 288.351562 C 392.167969 288.011719 392.25 287.617188 392.515625 287.363281 L 397.238281 282.882812 L 392.515625 278.398438 C 392.25 278.144531 392.167969 277.75 392.3125 277.410156 C 392.460938 277.070312 392.800781 276.859375 393.171875 276.878906 L 399.457031 277.21875 L 399.132812 270.558594 C 399.113281 270.183594 399.335938 269.835938 399.6875 269.695312 C 400.03125 269.558594 400.433594 269.65625 400.679688 269.941406 L 404.882812 274.835938 L 409.089844 269.941406 C 409.332031 269.65625 409.734375 269.558594 410.082031 269.695312 C 410.429688 269.835938 410.652344 270.183594 410.636719 270.558594 L 410.3125 277.21875 L 416.597656 276.878906 C 416.96875 276.859375 417.308594 277.070312 417.453125 277.410156 C 417.601562 277.75 417.519531 278.144531 417.25 278.398438 Z M 375.320312 357.011719 C 375.859375 356.203125 376.949219 355.980469 377.761719 356.519531 L 379.03125 357.363281 C 379.175781 357.203125 379.335938 357.046875 379.503906 356.890625 L 379.023438 356.234375 C 378.445312 355.449219 378.617188 354.34375 379.402344 353.769531 C 380.183594 353.195312 381.289062 353.367188 381.867188 354.152344 L 382.46875 354.976562 C 382.746094 354.859375 383.035156 354.746094 383.34375 354.648438 L 383.160156 354.242188 C 382.761719 353.355469 383.152344 352.3125 384.039062 351.910156 C 384.929688 351.507812 385.972656 351.902344 386.371094 352.789062 L 386.96875 354.113281 C 386.992188 354.113281 387.011719 354.109375 387.035156 354.109375 C 394.703125 354.109375 397.027344 359.472656 397.125 359.703125 C 397.5 360.601562 397.074219 361.632812 396.175781 362.007812 C 395.285156 362.378906 394.261719 361.964844 393.878906 361.078125 C 393.839844 360.988281 393.386719 360.050781 392.226562 359.175781 C 391.648438 361.390625 389.648438 363.035156 387.253906 363.035156 C 384.851562 363.035156 382.847656 361.378906 382.277344 359.152344 C 380.875 360.269531 380.410156 361.59375 380.402344 361.613281 C 380.15625 362.355469 379.46875 362.820312 378.730469 362.820312 C 378.546875 362.820312 378.359375 362.792969 378.175781 362.730469 C 377.25 362.421875 376.753906 361.425781 377.058594 360.5 C 377.066406 360.480469 377.089844 360.414062 377.125 360.328125 L 375.8125 359.457031 C 375.003906 358.917969 374.78125 357.824219 375.320312 357.011719 Z M 410.722656 359.703125 C 410.816406 359.472656 413.140625 354.109375 420.808594 354.109375 C 421.640625 354.109375 422.390625 354.191406 423.097656 354.320312 L 423.558594 353.347656 C 423.976562 352.46875 425.027344 352.09375 425.90625 352.511719 C 426.785156 352.929688 427.15625 353.980469 426.738281 354.859375 L 426.730469 354.882812 L 427.0625 354.53125 C 427.730469 353.824219 428.847656 353.792969 429.550781 354.464844 C 430.191406 355.070312 430.246094 356.03125 429.757812 356.734375 L 429.976562 356.589844 C 430.785156 356.050781 431.878906 356.269531 432.417969 357.082031 C 432.957031 357.894531 432.738281 358.988281 431.925781 359.527344 L 430.722656 360.328125 C 430.753906 360.414062 430.78125 360.480469 430.785156 360.5 C 431.09375 361.425781 430.59375 362.421875 429.671875 362.730469 C 429.484375 362.792969 429.300781 362.820312 429.113281 362.820312 C 428.375 362.820312 427.6875 362.355469 427.445312 361.613281 C 427.414062 361.53125 426.933594 360.246094 425.570312 359.160156 C 425 361.382812 422.996094 363.035156 420.59375 363.035156 C 418.195312 363.035156 416.191406 361.382812 415.621094 359.164062 C 414.414062 360.066406 413.980469 361.042969 413.972656 361.0625 C 413.597656 361.960938 412.570312 362.382812 411.667969 362.007812 C 410.769531 361.632812 410.347656 360.601562 410.722656 359.703125 Z M 397.417969 378.730469 C 398.121094 377.792969 399.519531 377.492188 400.570312 377.40625 C 400.910156 377.378906 401.253906 377.453125 401.558594 377.613281 C 402.714844 378.242188 404.375 378.910156 405.011719 378.910156 C 405.75 378.910156 407.296875 378.28125 408.109375 377.851562 C 408.222656 377.792969 408.347656 377.746094 408.472656 377.710938 C 409.066406 377.554688 410.558594 377.269531 411.660156 378.007812 C 412.238281 378.398438 412.605469 379 412.695312 379.699219 C 412.816406 380.664062 412.132812 381.546875 411.167969 381.667969 C 410.558594 381.742188 409.988281 381.503906 409.617188 381.074219 C 409.585938 381.078125 409.554688 381.082031 409.523438 381.089844 C 408.757812 381.472656 406.664062 382.4375 405.011719 382.4375 C 403.5 382.4375 401.425781 381.5 400.402344 380.988281 C 400.253906 381.015625 400.117188 381.050781 400.023438 381.082031 C 399.410156 381.65625 398.453125 381.722656 397.761719 381.199219 C 396.984375 380.613281 396.832031 379.507812 397.417969 378.730469 Z M 397.457031 320.316406 C 397.847656 318.898438 398.246094 317.964844 398.261719 317.925781 C 398.644531 317.03125 399.683594 316.613281 400.574219 317 C 401.46875 317.382812 401.882812 318.417969 401.503906 319.3125 C 401.5 319.320312 401.175781 320.085938 400.855469 321.253906 C 400.640625 322.035156 399.929688 322.550781 399.160156 322.550781 C 399.003906 322.550781 398.847656 322.527344 398.691406 322.484375 C 397.753906 322.226562 397.199219 321.257812 397.457031 320.316406 Z M 386.636719 319.113281 L 386.816406 318.625 C 387.128906 317.789062 387.351562 317.183594 387.972656 315.976562 C 388.417969 315.109375 389.480469 314.773438 390.34375 315.21875 C 391.207031 315.664062 391.546875 316.726562 391.101562 317.59375 C 390.578125 318.609375 390.40625 319.074219 390.121094 319.851562 L 389.933594 320.355469 C 389.667969 321.0625 388.996094 321.5 388.285156 321.5 C 388.078125 321.5 387.867188 321.460938 387.664062 321.386719 C 386.753906 321.042969 386.292969 320.023438 386.636719 319.113281 Z M 407.457031 319.4375 C 407.011719 318.574219 407.347656 317.511719 408.207031 317.0625 C 409.066406 316.613281 410.125 316.941406 410.574219 317.796875 C 410.609375 317.859375 410.910156 318.441406 411.316406 319.570312 C 411.648438 320.484375 411.171875 321.496094 410.257812 321.828125 C 410.058594 321.898438 409.859375 321.933594 409.660156 321.933594 C 408.9375 321.933594 408.261719 321.484375 408.003906 320.765625 C 407.683594 319.878906 407.460938 319.441406 407.457031 319.4375 Z M 417.8125 317.949219 C 417.363281 317.082031 417.703125 316.019531 418.570312 315.574219 C 419.433594 315.125 420.492188 315.464844 420.941406 316.332031 C 421.179688 316.796875 421.328125 317.011719 421.453125 317.191406 C 421.738281 317.609375 421.953125 317.949219 422.289062 318.839844 C 422.636719 319.75 422.179688 320.769531 421.273438 321.113281 C 421.066406 321.195312 420.851562 321.230469 420.644531 321.230469 C 419.933594 321.230469 419.265625 320.796875 419 320.09375 C 418.785156 319.53125 418.710938 319.425781 418.550781 319.191406 C 418.382812 318.945312 418.152344 318.613281 417.8125 317.949219 Z M 402.324219 391.117188 C 399.273438 391.117188 393.929688 390.976562 392.359375 390.039062 C 391.523438 389.542969 391.25 388.460938 391.746094 387.625 C 392.246094 386.785156 393.328125 386.515625 394.160156 387.011719 C 394.925781 387.347656 399.011719 387.589844 402.324219 387.589844 C 403.292969 387.589844 404.082031 388.378906 404.082031 389.351562 C 404.082031 390.328125 403.292969 391.117188 402.324219 391.117188 Z M 418.046875 387.613281 C 418.542969 388.449219 418.246094 389.542969 417.410156 390.039062 C 415.839844 390.976562 410.492188 391.113281 407.445312 391.113281 C 406.472656 391.113281 405.683594 390.324219 405.683594 389.351562 C 405.683594 388.378906 406.472656 387.589844 407.445312 387.589844 C 410.757812 387.585938 414.84375 387.34375 415.652344 386.984375 C 416.488281 386.488281 417.550781 386.777344 418.046875 387.613281 Z M 410.863281 394.472656 C 411.152344 395.398438 410.640625 396.390625 409.710938 396.683594 C 408.179688 397.167969 406.613281 397.328125 405.203125 397.328125 C 402.496094 397.328125 400.375 396.734375 400.242188 396.699219 C 399.308594 396.429688 398.765625 395.453125 399.035156 394.519531 C 399.300781 393.582031 400.273438 393.042969 401.207031 393.304688 C 401.246094 393.316406 405.210938 394.40625 408.652344 393.320312 C 409.582031 393.023438 410.566406 393.542969 410.863281 394.472656 Z M 341.597656 413.203125 C 341.332031 413.609375 341.175781 413.867188 341.03125 414.113281 C 340.847656 414.417969 340.675781 414.703125 340.359375 415.175781 C 340.023438 415.6875 339.460938 415.964844 338.890625 415.964844 C 338.558594 415.964844 338.21875 415.871094 337.921875 415.671875 C 337.109375 415.132812 336.886719 414.039062 337.425781 413.230469 C 337.699219 412.8125 337.851562 412.5625 338.011719 412.296875 C 338.175781 412.019531 338.351562 411.734375 338.644531 411.28125 C 339.175781 410.464844 340.265625 410.234375 341.082031 410.765625 C 341.898438 411.292969 342.128906 412.386719 341.597656 413.203125 Z M 349.855469 367.574219 C 350.566406 365.488281 350.910156 364.28125 350.914062 364.269531 C 351.175781 363.332031 352.152344 362.789062 353.085938 363.046875 C 354.019531 363.3125 354.566406 364.285156 354.304688 365.222656 C 354.289062 365.273438 353.9375 366.527344 353.1875 368.71875 C 352.933594 369.449219 352.25 369.910156 351.519531 369.910156 C 351.332031 369.910156 351.136719 369.878906 350.949219 369.8125 C 350.027344 369.496094 349.539062 368.492188 349.855469 367.574219 Z M 352.347656 357.378906 C 352.367188 357.316406 354.160156 351.015625 354.160156 341.683594 C 354.160156 340.710938 354.949219 339.921875 355.921875 339.921875 C 356.890625 339.921875 357.679688 340.710938 357.679688 341.683594 C 357.679688 351.554688 355.8125 358.089844 355.730469 358.363281 C 355.507812 359.132812 354.804688 359.632812 354.042969 359.632812 C 353.878906 359.632812 353.714844 359.609375 353.550781 359.5625 C 352.617188 359.289062 352.078125 358.3125 352.347656 357.378906 Z M 468.734375 413.203125 C 468.207031 412.386719 468.4375 411.292969 469.25 410.765625 C 470.066406 410.234375 471.15625 410.464844 471.6875 411.28125 C 471.984375 411.730469 472.15625 412.019531 472.320312 412.296875 C 472.480469 412.5625 472.632812 412.8125 472.90625 413.230469 C 473.445312 414.039062 473.222656 415.136719 472.410156 415.671875 C 472.113281 415.871094 471.773438 415.964844 471.441406 415.964844 C 470.871094 415.964844 470.308594 415.6875 469.972656 415.175781 C 469.660156 414.703125 469.484375 414.417969 469.304688 414.113281 C 469.15625 413.867188 469 413.609375 468.734375 413.203125 Z M 459.421875 364.269531 C 459.425781 364.28125 459.765625 365.488281 460.480469 367.574219 C 460.792969 368.492188 460.304688 369.496094 459.382812 369.8125 C 459.195312 369.878906 459.003906 369.910156 458.8125 369.910156 C 458.082031 369.910156 457.398438 369.449219 457.148438 368.71875 C 456.394531 366.527344 456.042969 365.273438 456.027344 365.222656 C 455.765625 364.285156 456.3125 363.3125 457.246094 363.046875 C 458.183594 362.789062 459.15625 363.332031 459.421875 364.269531 Z M 454.601562 358.363281 C 454.523438 358.089844 452.652344 351.554688 452.652344 341.683594 C 452.652344 340.710938 453.441406 339.921875 454.414062 339.921875 C 455.386719 339.921875 456.175781 340.710938 456.175781 341.683594 C 456.175781 351.015625 457.964844 357.316406 457.984375 357.378906 C 458.253906 358.3125 457.71875 359.289062 456.785156 359.5625 C 456.621094 359.609375 456.457031 359.632812 456.292969 359.632812 C 455.527344 359.632812 454.824219 359.132812 454.601562 358.363281 Z M 403.179688 510.355469 L 403.179688 512.320312 L 401.683594 512.320312 C 400.714844 512.320312 399.925781 513.113281 399.925781 514.085938 C 399.925781 515.058594 400.714844 515.847656 401.683594 515.847656 L 403.179688 515.847656 L 403.179688 519.257812 C 403.179688 520.230469 403.96875 521.023438 404.941406 521.023438 C 405.914062 521.023438 406.703125 520.230469 406.703125 519.257812 L 406.703125 515.847656 L 408.269531 515.847656 C 409.242188 515.847656 410.03125 515.058594 410.03125 514.085938 C 410.03125 513.113281 409.242188 512.320312 408.269531 512.320312 L 406.703125 512.320312 L 406.703125 510.355469 C 410.738281 509.535156 413.78125 505.960938 413.78125 501.683594 C 413.78125 496.804688 409.816406 492.835938 404.941406 492.835938 C 400.066406 492.835938 396.101562 496.804688 396.101562 501.683594 C 396.101562 505.960938 399.148438 509.535156 403.179688 510.355469 Z M 404.941406 496.359375 C 407.875 496.359375 410.261719 498.75 410.261719 501.683594 C 410.261719 504.621094 407.875 507.007812 404.941406 507.007812 C 402.011719 507.007812 399.625 504.621094 399.625 501.683594 C 399.625 498.75 402.011719 496.359375 404.941406 496.359375 Z M 404.492188 462.804688 C 404.601562 462.90625 404.730469 462.980469 404.878906 462.980469 C 404.90625 462.980469 404.933594 462.96875 404.960938 462.964844 C 404.984375 462.96875 405.011719 462.980469 405.039062 462.980469 C 405.1875 462.980469 405.316406 462.90625 405.425781 462.804688 C 406.9375 462.222656 408.308594 461.527344 409.488281 460.714844 C 412.902344 458.378906 414.921875 455.039062 415.023438 451.558594 C 415.09375 448.984375 414.042969 445.992188 411.527344 445.117188 C 409.324219 444.355469 406.40625 444.808594 404.96875 446.734375 C 404.09375 445.625 402.71875 444.914062 401.105469 444.789062 C 399.023438 444.636719 397.117188 445.476562 396.097656 446.988281 C 394.296875 449.648438 394.757812 453.066406 395.789062 455.375 C 397.601562 459.425781 401.449219 461.636719 404.492188 462.804688 Z M 405.003906 450.800781 L 405 448.445312 C 405.007812 448.445312 405.019531 448.445312 405.03125 448.445312 Z M 336.207031 257.390625 C 336.207031 258.289062 335.480469 259.015625 334.582031 259.015625 C 332.507812 259.015625 330.816406 260.707031 330.816406 262.785156 C 330.816406 263.683594 330.089844 264.414062 329.191406 264.414062 C 328.292969 264.414062 327.566406 263.683594 327.566406 262.785156 C 327.566406 260.707031 325.878906 259.015625 323.800781 259.015625 C 322.902344 259.015625 322.175781 258.289062 322.175781 257.390625 C 322.175781 256.492188 322.902344 255.761719 323.800781 255.761719 C 325.878906 255.761719 327.566406 254.070312 327.566406 251.992188 C 327.566406 251.09375 328.292969 250.367188 329.191406 250.367188 C 330.089844 250.367188 330.816406 251.09375 330.816406 251.992188 C 330.816406 254.070312 332.507812 255.761719 334.582031 255.761719 C 335.480469 255.761719 336.207031 256.492188 336.207031 257.390625 Z M 397.730469 230.675781 C 397.730469 229.777344 398.457031 229.046875 399.355469 229.046875 C 401.429688 229.046875 403.121094 227.355469 403.121094 225.277344 C 403.121094 224.382812 403.847656 223.652344 404.746094 223.652344 C 405.644531 223.652344 406.371094 224.382812 406.371094 225.277344 C 406.371094 227.359375 408.058594 229.046875 410.136719 229.046875 C 411.035156 229.046875 411.761719 229.777344 411.761719 230.675781 C 411.761719 231.574219 411.035156 232.300781 410.136719 232.300781 C 408.058594 232.300781 406.371094 233.992188 406.371094 236.070312 C 406.371094 236.96875 405.640625 237.699219 404.746094 237.699219 C 403.847656 237.699219 403.121094 236.96875 403.121094 236.070312 C 403.121094 233.992188 401.429688 232.300781 399.355469 232.300781 C 398.457031 232.300781 397.730469 231.574219 397.730469 230.675781 Z M 487.554688 257.375 C 487.554688 258.273438 486.828125 259.003906 485.929688 259.003906 C 483.851562 259.003906 482.164062 260.695312 482.164062 262.773438 C 482.164062 263.671875 481.4375 264.398438 480.539062 264.398438 C 479.640625 264.398438 478.914062 263.671875 478.914062 262.773438 C 478.914062 260.695312 477.222656 259.003906 475.148438 259.003906 C 474.25 259.003906 473.523438 258.273438 473.523438 257.375 C 473.523438 256.476562 474.25 255.75 475.148438 255.75 C 477.222656 255.75 478.914062 254.058594 478.914062 251.980469 C 478.914062 251.082031 479.640625 250.351562 480.539062 250.351562 C 481.4375 250.351562 482.164062 251.082031 482.164062 251.980469 C 482.164062 254.058594 483.851562 255.75 485.929688 255.75 C 486.828125 255.75 487.554688 256.476562 487.554688 257.375 Z M 316.75 539.394531 C 317.128906 539.773438 317.316406 540.230469 317.316406 540.765625 C 317.316406 541.300781 317.128906 541.757812 316.75 542.136719 C 316.363281 542.515625 315.902344 542.703125 315.367188 542.703125 L 311.238281 542.703125 L 311.238281 555.34375 C 311.238281 555.886719 311.050781 556.347656 310.671875 556.722656 C 310.292969 557.101562 309.835938 557.292969 309.304688 557.292969 C 308.769531 557.292969 308.308594 557.101562 307.921875 556.722656 C 307.542969 556.347656 307.355469 555.882812 307.355469 555.34375 L 307.355469 542.703125 L 303.238281 542.703125 C 302.695312 542.703125 302.234375 542.515625 301.855469 542.136719 C 301.476562 541.757812 301.289062 541.300781 301.289062 540.765625 C 301.289062 540.230469 301.476562 539.773438 301.855469 539.394531 C 302.234375 539.011719 302.695312 538.816406 303.238281 538.816406 L 315.367188 538.816406 C 315.902344 538.816406 316.363281 539.011719 316.75 539.394531 Z M 335.949219 539.394531 C 336.324219 539.773438 336.515625 540.230469 336.515625 540.765625 L 336.515625 555.34375 C 336.515625 555.886719 336.324219 556.347656 335.949219 556.722656 C 335.5625 557.101562 335.101562 557.292969 334.566406 557.292969 C 334.03125 557.292969 333.574219 557.101562 333.199219 556.722656 C 332.820312 556.347656 332.628906 555.886719 332.628906 555.34375 L 332.628906 549.996094 L 324.371094 549.996094 L 324.371094 555.34375 C 324.371094 555.886719 324.179688 556.347656 323.804688 556.722656 C 323.425781 557.101562 322.96875 557.292969 322.433594 557.292969 C 321.890625 557.292969 321.429688 557.101562 321.054688 556.722656 C 320.675781 556.347656 320.488281 555.886719 320.488281 555.34375 L 320.488281 540.765625 C 320.488281 540.230469 320.675781 539.773438 321.054688 539.394531 C 321.429688 539.011719 321.890625 538.816406 322.433594 538.816406 C 322.96875 538.816406 323.425781 539.011719 323.804688 539.394531 C 324.179688 539.773438 324.371094 540.230469 324.371094 540.765625 L 324.371094 546.109375 L 332.628906 546.109375 L 332.628906 540.765625 C 332.628906 540.230469 332.820312 539.773438 333.199219 539.394531 C 333.574219 539.011719 334.03125 538.816406 334.566406 538.816406 C 335.101562 538.816406 335.5625 539.011719 335.949219 539.394531 Z M 345.023438 542.703125 L 345.023438 546.109375 L 352.789062 546.109375 C 353.324219 546.109375 353.785156 546.296875 354.171875 546.675781 C 354.546875 547.054688 354.738281 547.515625 354.738281 548.058594 C 354.738281 548.59375 354.546875 549.050781 354.171875 549.429688 C 353.785156 549.808594 353.324219 549.996094 352.789062 549.996094 L 345.023438 549.996094 L 345.023438 553.402344 L 355.21875 553.402344 C 355.753906 553.402344 356.210938 553.59375 356.597656 553.972656 C 356.976562 554.351562 357.167969 554.808594 357.167969 555.34375 C 357.167969 555.886719 356.976562 556.347656 356.597656 556.722656 C 356.210938 557.101562 355.753906 557.292969 355.21875 557.292969 L 343.085938 557.292969 C 342.542969 557.292969 342.082031 557.101562 341.707031 556.722656 C 341.328125 556.347656 341.136719 555.882812 341.136719 555.34375 L 341.136719 540.765625 C 341.136719 540.230469 341.328125 539.773438 341.707031 539.394531 C 342.082031 539.007812 342.542969 538.816406 343.085938 538.816406 L 355.21875 538.816406 C 355.753906 538.816406 356.210938 539.007812 356.597656 539.394531 C 356.976562 539.773438 357.167969 540.230469 357.167969 540.765625 C 357.167969 541.300781 356.976562 541.757812 356.597656 542.136719 C 356.210938 542.515625 355.753906 542.703125 355.21875 542.703125 Z M 376.117188 542.703125 L 376.117188 546.109375 L 383.882812 546.109375 C 384.417969 546.109375 384.878906 546.296875 385.261719 546.675781 C 385.640625 547.054688 385.832031 547.515625 385.832031 548.058594 C 385.832031 548.59375 385.640625 549.050781 385.261719 549.429688 C 384.878906 549.808594 384.417969 549.996094 383.882812 549.996094 L 376.117188 549.996094 L 376.117188 553.402344 L 386.3125 553.402344 C 386.847656 553.402344 387.304688 553.59375 387.691406 553.972656 C 388.070312 554.351562 388.261719 554.808594 388.261719 555.34375 C 388.261719 555.886719 388.070312 556.347656 387.691406 556.722656 C 387.304688 557.101562 386.847656 557.292969 386.3125 557.292969 L 374.179688 557.292969 C 373.636719 557.292969 373.175781 557.101562 372.800781 556.722656 C 372.421875 556.347656 372.230469 555.882812 372.230469 555.34375 L 372.230469 540.765625 C 372.230469 540.230469 372.421875 539.773438 372.800781 539.394531 C 373.175781 539.007812 373.636719 538.816406 374.179688 538.816406 L 386.3125 538.816406 C 386.847656 538.816406 387.304688 539.007812 387.691406 539.394531 C 388.070312 539.773438 388.261719 540.230469 388.261719 540.765625 C 388.261719 541.300781 388.070312 541.757812 387.691406 542.136719 C 387.304688 542.515625 386.847656 542.703125 386.3125 542.703125 Z M 410.035156 539.679688 C 410.253906 540.007812 410.367188 540.371094 410.367188 540.765625 L 410.367188 555.34375 C 410.367188 555.886719 410.171875 556.347656 409.785156 556.722656 C 409.410156 557.101562 408.953125 557.292969 408.417969 557.292969 C 407.882812 557.292969 407.425781 557.101562 407.050781 556.722656 C 406.671875 556.347656 406.484375 555.886719 406.484375 555.34375 L 406.484375 545.457031 L 402.511719 549.429688 C 402.132812 549.808594 401.675781 549.996094 401.132812 549.996094 C 400.597656 549.996094 400.140625 549.808594 399.761719 549.429688 L 395.792969 545.457031 L 395.792969 555.34375 C 395.792969 555.886719 395.605469 556.347656 395.226562 556.722656 C 394.847656 557.101562 394.390625 557.292969 393.859375 557.292969 C 393.316406 557.292969 392.855469 557.101562 392.476562 556.722656 C 392.097656 556.347656 391.910156 555.886719 391.910156 555.34375 L 391.910156 540.765625 C 391.910156 540.371094 392.019531 540.007812 392.242188 539.679688 C 392.457031 539.359375 392.746094 539.121094 393.105469 538.964844 C 393.464844 538.816406 393.839844 538.777344 394.226562 538.851562 C 394.613281 538.933594 394.945312 539.117188 395.226562 539.394531 L 401.132812 545.308594 L 407.050781 539.394531 C 407.328125 539.117188 407.65625 538.933594 408.035156 538.851562 C 408.421875 538.777344 408.796875 538.816406 409.15625 538.964844 C 409.527344 539.121094 409.820312 539.359375 410.035156 539.679688 Z M 424.199219 538.816406 L 416.925781 538.816406 C 416.382812 538.816406 415.921875 539.011719 415.546875 539.394531 C 415.167969 539.773438 414.976562 540.230469 414.976562 540.765625 L 414.976562 555.34375 C 414.976562 555.886719 415.167969 556.347656 415.546875 556.722656 C 415.921875 557.101562 416.382812 557.292969 416.925781 557.292969 C 417.460938 557.292969 417.917969 557.101562 418.292969 556.722656 C 418.671875 556.347656 418.859375 555.886719 418.859375 555.34375 L 418.859375 552.429688 L 424.199219 552.429688 C 426.074219 552.429688 427.675781 551.761719 429.007812 550.429688 C 430.339844 549.105469 431.007812 547.503906 431.007812 545.628906 C 431.007812 543.753906 430.339844 542.148438 429.007812 540.816406 C 427.675781 539.484375 426.074219 538.816406 424.199219 538.816406 Z M 426.257812 547.691406 C 425.691406 548.257812 425.003906 548.542969 424.199219 548.542969 L 418.859375 548.542969 L 418.859375 542.703125 L 424.199219 542.703125 C 425.003906 542.703125 425.691406 542.992188 426.257812 543.566406 C 426.832031 544.136719 427.121094 544.824219 427.121094 545.628906 C 427.121094 546.425781 426.832031 547.113281 426.257812 547.691406 Z M 449.808594 548.949219 C 450.390625 547.917969 450.683594 546.8125 450.683594 545.628906 C 450.683594 543.753906 450.015625 542.148438 448.683594 540.816406 C 447.351562 539.484375 445.75 538.816406 443.875 538.816406 L 436.601562 538.816406 C 436.058594 538.816406 435.597656 539.007812 435.222656 539.394531 C 434.84375 539.773438 434.652344 540.230469 434.652344 540.765625 L 434.652344 555.34375 C 434.652344 555.886719 434.84375 556.347656 435.222656 556.722656 C 435.597656 557.101562 436.058594 557.292969 436.601562 557.292969 C 437.136719 557.292969 437.59375 557.101562 437.96875 556.722656 C 438.347656 556.347656 438.535156 555.882812 438.535156 555.34375 L 438.535156 552.429688 L 443.074219 552.429688 L 447.367188 556.722656 C 447.742188 557.101562 448.199219 557.292969 448.734375 557.292969 C 449.265625 557.292969 449.726562 557.101562 450.113281 556.722656 C 450.492188 556.347656 450.683594 555.886719 450.683594 555.34375 C 450.683594 554.808594 450.492188 554.351562 450.113281 553.972656 L 447.511719 551.367188 C 448.484375 550.75 449.246094 549.945312 449.808594 548.949219 Z M 445.9375 547.691406 C 445.367188 548.257812 444.679688 548.542969 443.875 548.542969 L 438.539062 548.542969 L 438.539062 542.703125 L 443.875 542.703125 C 444.679688 542.703125 445.367188 542.992188 445.9375 543.566406 C 446.511719 544.136719 446.796875 544.824219 446.796875 545.628906 C 446.796875 546.425781 446.511719 547.113281 445.9375 547.691406 Z M 458.214844 542.703125 L 458.214844 546.109375 L 465.980469 546.109375 C 466.515625 546.109375 466.976562 546.296875 467.363281 546.675781 C 467.742188 547.054688 467.929688 547.515625 467.929688 548.058594 C 467.929688 548.59375 467.742188 549.050781 467.363281 549.429688 C 466.976562 549.808594 466.515625 549.996094 465.980469 549.996094 L 458.214844 549.996094 L 458.214844 553.402344 L 468.410156 553.402344 C 468.945312 553.402344 469.40625 553.59375 469.792969 553.972656 C 470.171875 554.351562 470.359375 554.808594 470.359375 555.34375 C 470.359375 555.886719 470.171875 556.347656 469.792969 556.722656 C 469.40625 557.101562 468.945312 557.292969 468.410156 557.292969 L 456.277344 557.292969 C 455.734375 557.292969 455.277344 557.101562 454.898438 556.722656 C 454.519531 556.347656 454.332031 555.882812 454.332031 555.34375 L 454.332031 540.765625 C 454.332031 540.230469 454.519531 539.773438 454.898438 539.394531 C 455.277344 539.007812 455.738281 538.816406 456.277344 538.816406 L 468.410156 538.816406 C 468.945312 538.816406 469.40625 539.007812 469.792969 539.394531 C 470.171875 539.773438 470.359375 540.230469 470.359375 540.765625 C 470.359375 541.300781 470.171875 541.757812 469.792969 542.136719 C 469.40625 542.515625 468.945312 542.703125 468.410156 542.703125 Z M 477.425781 543.210938 C 477.085938 543.539062 476.917969 543.9375 476.917969 544.40625 C 476.917969 544.875 477.085938 545.28125 477.425781 545.617188 C 477.753906 545.945312 478.152344 546.109375 478.621094 546.109375 L 483.476562 546.109375 C 485.015625 546.109375 486.328125 546.65625 487.421875 547.75 C 488.515625 548.847656 489.0625 550.164062 489.0625 551.699219 C 489.0625 553.242188 488.515625 554.558594 487.421875 555.652344 C 486.328125 556.746094 485.015625 557.292969 483.476562 557.292969 L 474.984375 557.292969 C 474.441406 557.292969 473.980469 557.101562 473.601562 556.722656 C 473.222656 556.347656 473.035156 555.886719 473.035156 555.34375 C 473.035156 554.808594 473.222656 554.351562 473.601562 553.972656 C 473.980469 553.59375 474.441406 553.40625 474.984375 553.40625 L 483.476562 553.40625 C 483.945312 553.40625 484.34375 553.242188 484.671875 552.910156 C 485.011719 552.574219 485.179688 552.171875 485.179688 551.703125 C 485.179688 551.234375 485.011719 550.832031 484.671875 550.503906 C 484.34375 550.167969 483.945312 549.996094 483.476562 549.996094 L 478.621094 549.996094 C 477.082031 549.996094 475.765625 549.453125 474.675781 548.355469 C 473.582031 547.269531 473.035156 545.953125 473.035156 544.40625 C 473.035156 542.867188 473.582031 541.550781 474.675781 540.457031 C 475.765625 539.363281 477.082031 538.816406 478.621094 538.816406 L 487.113281 538.816406 C 487.648438 538.816406 488.109375 539.011719 488.496094 539.394531 C 488.875 539.773438 489.0625 540.230469 489.0625 540.765625 C 489.0625 541.300781 488.875 541.757812 488.496094 542.136719 C 488.109375 542.515625 487.648438 542.703125 487.113281 542.703125 L 478.621094 542.703125 C 478.152344 542.703125 477.753906 542.871094 477.425781 543.210938 Z M 496.125 543.210938 C 495.789062 543.539062 495.621094 543.9375 495.621094 544.40625 C 495.621094 544.875 495.789062 545.28125 496.125 545.617188 C 496.457031 545.945312 496.855469 546.109375 497.324219 546.109375 L 502.179688 546.109375 C 503.71875 546.109375 505.035156 546.65625 506.125 547.75 C 507.21875 548.847656 507.765625 550.164062 507.765625 551.699219 C 507.765625 553.242188 507.21875 554.558594 506.125 555.652344 C 505.035156 556.746094 503.71875 557.292969 502.179688 557.292969 L 493.6875 557.292969 C 493.144531 557.292969 492.683594 557.101562 492.304688 556.722656 C 491.925781 556.347656 491.738281 555.886719 491.738281 555.34375 C 491.738281 554.808594 491.925781 554.351562 492.304688 553.972656 C 492.683594 553.59375 493.144531 553.40625 493.6875 553.40625 L 502.179688 553.40625 C 502.648438 553.40625 503.046875 553.242188 503.378906 552.910156 C 503.714844 552.574219 503.882812 552.171875 503.882812 551.703125 C 503.882812 551.234375 503.714844 550.832031 503.378906 550.503906 C 503.046875 550.167969 502.648438 549.996094 502.179688 549.996094 L 497.324219 549.996094 C 495.785156 549.996094 494.472656 549.453125 493.378906 548.355469 C 492.285156 547.269531 491.738281 545.953125 491.738281 544.40625 C 491.738281 542.867188 492.285156 541.550781 493.378906 540.457031 C 494.472656 539.363281 495.785156 538.816406 497.324219 538.816406 L 505.816406 538.816406 C 506.351562 538.816406 506.8125 539.011719 507.199219 539.394531 C 507.578125 539.773438 507.765625 540.230469 507.765625 540.765625 C 507.765625 541.300781 507.578125 541.757812 507.199219 542.136719 C 506.8125 542.515625 506.351562 542.703125 505.816406 542.703125 L 497.324219 542.703125 C 496.855469 542.703125 496.457031 542.871094 496.125 543.210938 Z M 496.125 543.210938 " fill-opacity="1" fill-rule="nonzero"/></g></svg>