<svg xmlns="http://www.w3.org/2000/svg" xmlns:xlink="http://www.w3.org/1999/xlink" width="1080" zoomAndPan="magnify" viewBox="0 0 810 809.999993" height="1080" preserveAspectRatio="xMidYMid meet" version="1.0"><defs><clipPath id="28daab3fff"><path d="M 291.027344 278.414062 L 537.777344 278.414062 L 537.777344 699.914062 L 291.027344 699.914062 Z M 291.027344 278.414062 " clip-rule="nonzero"/></clipPath></defs><g clip-path="url(#28daab3fff)"><path fill="#2e2e2e" d="M 533.609375 282.699219 C 530.9375 280.023438 527.386719 278.550781 523.609375 278.550781 L 305.15625 278.550781 C 301.382812 278.550781 297.828125 280.023438 295.160156 282.699219 C 292.488281 285.375 291.015625 288.929688 291.015625 292.710938 L 291.015625 685.617188 C 291.015625 689.398438 292.488281 692.957031 295.160156 695.628906 C 297.832031 698.304688 301.382812 699.777344 305.15625 699.777344 L 523.609375 699.777344 C 527.386719 699.777344 530.9375 698.304688 533.609375 695.628906 C 536.28125 692.957031 537.75 689.398438 537.75 685.617188 L 537.75 292.710938 C 537.75 288.929688 536.28125 285.375 533.609375 282.699219 Z M 534.105469 489.164062 L 534.105469 685.617188 C 534.105469 688.519531 532.929688 691.148438 531.03125 693.050781 C 529.132812 694.953125 526.507812 696.128906 523.609375 696.128906 L 305.15625 696.128906 C 302.257812 696.128906 299.636719 694.953125 297.734375 693.050781 C 295.835938 691.148438 294.660156 688.519531 294.660156 685.617188 L 294.660156 292.710938 C 294.660156 289.808594 295.835938 287.183594 297.734375 285.28125 C 299.636719 283.375 302.257812 282.199219 305.15625 282.199219 L 523.609375 282.199219 C 526.507812 282.199219 529.132812 283.375 531.03125 285.28125 C 532.929688 287.179688 534.105469 289.808594 534.105469 292.710938 Z M 329.453125 667.636719 C 329.847656 668.027344 330.042969 668.5 330.042969 669.054688 C 330.042969 669.605469 329.847656 670.082031 329.453125 670.472656 C 329.054688 670.863281 328.578125 671.058594 328.027344 671.058594 L 323.753906 671.058594 L 323.753906 684.140625 C 323.753906 684.703125 323.558594 685.179688 323.167969 685.570312 C 322.773438 685.960938 322.304688 686.160156 321.75 686.160156 C 321.199219 686.160156 320.71875 685.960938 320.320312 685.570312 C 319.929688 685.179688 319.734375 684.703125 319.734375 684.140625 L 319.734375 671.058594 L 315.472656 671.058594 C 314.914062 671.058594 314.4375 670.863281 314.046875 670.472656 C 313.652344 670.078125 313.460938 669.605469 313.460938 669.054688 C 313.460938 668.5 313.652344 668.027344 314.046875 667.636719 C 314.4375 667.234375 314.914062 667.035156 315.472656 667.035156 L 328.027344 667.035156 C 328.578125 667.035156 329.054688 667.234375 329.453125 667.636719 Z M 351.101562 667.636719 C 351.492188 668.027344 351.6875 668.5 351.6875 669.054688 L 351.6875 684.140625 C 351.6875 684.703125 351.492188 685.179688 351.101562 685.570312 C 350.703125 685.960938 350.226562 686.160156 349.671875 686.160156 C 349.121094 686.160156 348.648438 685.960938 348.257812 685.570312 C 347.867188 685.179688 347.671875 684.703125 347.671875 684.140625 L 347.671875 678.609375 L 339.125 678.609375 L 339.125 684.140625 C 339.125 684.703125 338.925781 685.179688 338.539062 685.570312 C 338.144531 685.960938 337.671875 686.160156 337.121094 686.160156 C 336.558594 686.160156 336.082031 685.960938 335.691406 685.570312 C 335.300781 685.179688 335.105469 684.703125 335.105469 684.140625 L 335.105469 669.054688 C 335.105469 668.5 335.300781 668.027344 335.691406 667.636719 C 336.082031 667.234375 336.558594 667.035156 337.121094 667.035156 C 337.675781 667.035156 338.144531 667.234375 338.539062 667.636719 C 338.925781 668.027344 339.125 668.5 339.125 669.054688 L 339.125 674.585938 L 347.671875 674.585938 L 347.671875 669.054688 C 347.671875 668.5 347.867188 668.027344 348.257812 667.636719 C 348.648438 667.234375 349.121094 667.035156 349.671875 667.035156 C 350.226562 667.035156 350.703125 667.234375 351.101562 667.636719 Z M 362.277344 671.058594 L 362.277344 674.585938 L 370.3125 674.585938 C 370.863281 674.585938 371.339844 674.78125 371.742188 675.171875 C 372.132812 675.5625 372.328125 676.042969 372.328125 676.605469 C 372.328125 677.15625 372.132812 677.628906 371.742188 678.019531 C 371.339844 678.414062 370.863281 678.609375 370.3125 678.609375 L 362.277344 678.609375 L 362.277344 682.132812 L 372.824219 682.132812 C 373.378906 682.132812 373.851562 682.332031 374.253906 682.722656 C 374.644531 683.113281 374.839844 683.585938 374.839844 684.140625 C 374.839844 684.703125 374.644531 685.179688 374.253906 685.570312 C 373.851562 685.960938 373.378906 686.160156 372.824219 686.160156 L 360.273438 686.160156 C 359.710938 686.160156 359.234375 685.960938 358.84375 685.570312 C 358.453125 685.179688 358.257812 684.703125 358.257812 684.140625 L 358.257812 669.054688 C 358.257812 668.5 358.453125 668.027344 358.84375 667.636719 C 359.234375 667.234375 359.710938 667.035156 360.273438 667.035156 L 372.824219 667.035156 C 373.378906 667.035156 373.851562 667.234375 374.253906 667.636719 C 374.644531 668.027344 374.839844 668.5 374.839844 669.054688 C 374.839844 669.605469 374.644531 670.082031 374.253906 670.472656 C 373.851562 670.863281 373.378906 671.058594 372.824219 671.058594 Z M 409.996094 667.636719 C 410.386719 668.027344 410.582031 668.5 410.582031 669.054688 L 410.582031 684.140625 C 410.582031 684.703125 410.386719 685.179688 409.996094 685.570312 C 409.59375 685.960938 409.117188 686.160156 408.566406 686.160156 C 408.011719 686.160156 407.542969 685.960938 407.148438 685.570312 C 406.757812 685.179688 406.5625 684.703125 406.5625 684.140625 L 406.5625 678.609375 L 398.015625 678.609375 L 398.015625 684.140625 C 398.015625 684.703125 397.820312 685.179688 397.429688 685.570312 C 397.039062 685.960938 396.566406 686.160156 396.015625 686.160156 C 395.453125 686.160156 394.976562 685.960938 394.585938 685.570312 C 394.195312 685.179688 394 684.703125 394 684.140625 L 394 669.054688 C 394 668.5 394.195312 668.027344 394.585938 667.636719 C 394.976562 667.234375 395.453125 667.035156 396.015625 667.035156 C 396.566406 667.035156 397.039062 667.234375 397.429688 667.636719 C 397.820312 668.027344 398.015625 668.5 398.015625 669.054688 L 398.015625 674.585938 L 406.5625 674.585938 L 406.5625 669.054688 C 406.5625 668.5 406.757812 668.027344 407.148438 667.636719 C 407.542969 667.234375 408.011719 667.035156 408.566406 667.035156 C 409.121094 667.035156 409.59375 667.234375 409.996094 667.636719 Z M 421.167969 671.058594 L 421.167969 674.585938 L 429.203125 674.585938 C 429.757812 674.585938 430.234375 674.78125 430.632812 675.171875 C 431.023438 675.5625 431.222656 676.042969 431.222656 676.605469 C 431.222656 677.15625 431.023438 677.628906 430.632812 678.019531 C 430.234375 678.414062 429.757812 678.609375 429.203125 678.609375 L 421.167969 678.609375 L 421.167969 682.132812 L 431.71875 682.132812 C 432.269531 682.132812 432.746094 682.332031 433.148438 682.722656 C 433.535156 683.113281 433.734375 683.585938 433.734375 684.140625 C 433.734375 684.703125 433.535156 685.179688 433.148438 685.570312 C 432.746094 685.960938 432.269531 686.160156 431.71875 686.160156 L 419.164062 686.160156 C 418.605469 686.160156 418.128906 685.960938 417.738281 685.570312 C 417.34375 685.179688 417.152344 684.703125 417.152344 684.140625 L 417.152344 669.054688 C 417.152344 668.5 417.34375 668.027344 417.738281 667.636719 C 418.128906 667.234375 418.605469 667.035156 419.164062 667.035156 L 431.71875 667.035156 C 432.269531 667.035156 432.746094 667.234375 433.148438 667.636719 C 433.535156 668.027344 433.734375 668.5 433.734375 669.054688 C 433.734375 669.605469 433.535156 670.082031 433.148438 670.472656 C 432.746094 670.863281 432.269531 671.058594 431.71875 671.058594 Z M 454.972656 677.523438 C 455.574219 676.457031 455.875 675.3125 455.875 674.085938 C 455.875 672.144531 455.1875 670.484375 453.808594 669.105469 C 452.433594 667.726562 450.773438 667.035156 448.835938 667.035156 L 441.308594 667.035156 C 440.746094 667.035156 440.269531 667.234375 439.882812 667.636719 C 439.488281 668.027344 439.292969 668.5 439.292969 669.054688 L 439.292969 684.140625 C 439.292969 684.703125 439.488281 685.179688 439.882812 685.570312 C 440.273438 685.960938 440.746094 686.160156 441.308594 686.160156 C 441.863281 686.160156 442.335938 685.960938 442.726562 685.570312 C 443.113281 685.179688 443.3125 684.703125 443.3125 684.140625 L 443.3125 681.125 L 448.003906 681.125 L 452.445312 685.570312 C 452.835938 685.960938 453.308594 686.160156 453.859375 686.160156 C 454.414062 686.160156 454.890625 685.960938 455.289062 685.570312 C 455.679688 685.179688 455.875 684.703125 455.875 684.140625 C 455.875 683.585938 455.679688 683.113281 455.289062 682.722656 L 452.597656 680.027344 C 453.601562 679.390625 454.394531 678.554688 454.972656 677.523438 Z M 450.964844 676.21875 C 450.378906 676.808594 449.667969 677.101562 448.835938 677.101562 L 443.3125 677.101562 L 443.3125 671.058594 L 448.835938 671.058594 C 449.667969 671.058594 450.378906 671.359375 450.964844 671.953125 C 451.558594 672.542969 451.859375 673.253906 451.859375 674.085938 C 451.859375 674.914062 451.558594 675.625 450.964844 676.21875 Z M 480.191406 667.929688 C 480.417969 668.269531 480.535156 668.644531 480.535156 669.054688 L 480.535156 684.140625 C 480.535156 684.703125 480.335938 685.179688 479.933594 685.570312 C 479.542969 685.960938 479.070312 686.160156 478.519531 686.160156 C 477.964844 686.160156 477.496094 685.960938 477.101562 685.570312 C 476.710938 685.179688 476.515625 684.703125 476.515625 684.140625 L 476.515625 673.910156 L 472.410156 678.019531 C 472.019531 678.414062 471.542969 678.609375 470.980469 678.609375 C 470.425781 678.609375 469.953125 678.414062 469.566406 678.019531 L 465.457031 673.910156 L 465.457031 684.140625 C 465.457031 684.703125 465.261719 685.179688 464.871094 685.570312 C 464.480469 685.960938 464.007812 686.160156 463.453125 686.160156 C 462.894531 686.160156 462.414062 685.960938 462.027344 685.570312 C 461.632812 685.179688 461.4375 684.703125 461.4375 684.140625 L 461.4375 669.054688 C 461.4375 668.644531 461.554688 668.269531 461.78125 667.929688 C 462.003906 667.597656 462.300781 667.351562 462.675781 667.191406 C 463.050781 667.035156 463.4375 666.996094 463.835938 667.074219 C 464.234375 667.160156 464.582031 667.347656 464.871094 667.636719 L 470.980469 673.753906 L 477.101562 667.636719 C 477.390625 667.347656 477.730469 667.160156 478.121094 667.074219 C 478.523438 666.996094 478.910156 667.035156 479.28125 667.191406 C 479.667969 667.351562 479.96875 667.597656 480.191406 667.929688 Z M 490.519531 667.636719 C 490.910156 668.027344 491.109375 668.5 491.109375 669.054688 L 491.109375 684.140625 C 491.109375 684.703125 490.910156 685.179688 490.519531 685.570312 C 490.128906 685.960938 489.65625 686.160156 489.105469 686.160156 C 488.542969 686.160156 488.066406 685.960938 487.675781 685.570312 C 487.285156 685.179688 487.089844 684.703125 487.089844 684.140625 L 487.089844 669.054688 C 487.089844 668.5 487.285156 668.027344 487.675781 667.636719 C 488.066406 667.234375 488.542969 667.035156 489.105469 667.035156 C 489.65625 667.035156 490.128906 667.234375 490.519531 667.636719 Z M 512.167969 667.636719 C 512.558594 668.027344 512.753906 668.5 512.753906 669.054688 C 512.753906 669.605469 512.558594 670.082031 512.167969 670.472656 C 511.769531 670.863281 511.289062 671.058594 510.738281 671.058594 L 506.464844 671.058594 L 506.464844 684.140625 C 506.464844 684.703125 506.269531 685.179688 505.878906 685.570312 C 505.488281 685.960938 505.015625 686.160156 504.460938 686.160156 C 503.910156 686.160156 503.433594 685.960938 503.035156 685.570312 C 502.640625 685.179688 502.449219 684.703125 502.449219 684.140625 L 502.449219 671.058594 L 498.1875 671.058594 C 497.625 671.058594 497.148438 670.863281 496.757812 670.472656 C 496.367188 670.078125 496.171875 669.605469 496.171875 669.054688 C 496.171875 668.5 496.367188 668.027344 496.757812 667.636719 C 497.148438 667.234375 497.625 667.035156 498.1875 667.035156 L 510.738281 667.035156 C 511.292969 667.035156 511.769531 667.234375 512.167969 667.636719 Z M 401.117188 320.757812 C 400.726562 320.367188 400.53125 319.890625 400.53125 319.328125 L 400.53125 304.242188 C 400.53125 303.6875 400.726562 303.214844 401.117188 302.824219 C 401.507812 302.425781 401.984375 302.222656 402.546875 302.222656 C 403.097656 302.222656 403.570312 302.425781 403.960938 302.824219 C 404.351562 303.214844 404.546875 303.6875 404.546875 304.242188 L 404.546875 319.328125 C 404.546875 319.890625 404.351562 320.367188 403.960938 320.757812 C 403.570312 321.152344 403.097656 321.347656 402.546875 321.347656 C 401.984375 321.347656 401.507812 321.152344 401.117188 320.757812 Z M 410.59375 318.050781 L 415.796875 311.792969 L 410.59375 305.53125 C 410.238281 305.105469 410.082031 304.617188 410.132812 304.0625 C 410.183594 303.511719 410.425781 303.054688 410.847656 302.695312 C 411.273438 302.339844 411.761719 302.1875 412.316406 302.238281 C 412.867188 302.289062 413.324219 302.527344 413.679688 302.953125 L 418.414062 308.648438 L 423.144531 302.953125 C 423.503906 302.527344 423.957031 302.289062 424.507812 302.238281 C 425.0625 302.1875 425.550781 302.339844 425.976562 302.695312 C 426.402344 303.054688 426.640625 303.511719 426.691406 304.0625 C 426.742188 304.617188 426.589844 305.105469 426.230469 305.53125 L 421.027344 311.792969 L 426.230469 318.050781 C 426.589844 318.476562 426.742188 318.96875 426.691406 319.519531 C 426.640625 320.074219 426.402344 320.527344 425.976562 320.875 C 425.601562 321.191406 425.175781 321.347656 424.6875 321.347656 C 424.070312 321.347656 423.554688 321.105469 423.144531 320.617188 L 418.414062 314.933594 L 413.679688 320.617188 C 413.273438 321.105469 412.757812 321.347656 412.136719 321.347656 C 411.644531 321.347656 411.214844 321.191406 410.847656 320.875 C 410.425781 320.523438 410.1875 320.074219 410.136719 319.519531 C 410.085938 318.96875 410.238281 318.476562 410.59375 318.050781 Z M 414.941406 498.019531 L 414.941406 504.445312 C 414.941406 505.453125 414.125 506.269531 413.121094 506.269531 C 412.113281 506.269531 411.296875 505.453125 411.296875 504.445312 L 411.296875 498.019531 C 411.296875 497.011719 412.113281 496.195312 413.121094 496.195312 C 414.125 496.195312 414.941406 497.011719 414.941406 498.019531 Z M 443.273438 470.261719 C 444.035156 470.921875 444.121094 472.074219 443.460938 472.835938 C 443.101562 473.257812 442.59375 473.46875 442.082031 473.46875 C 441.660156 473.46875 441.238281 473.324219 440.890625 473.027344 C 423.4375 457.957031 425.738281 438.921875 425.84375 438.121094 C 425.976562 437.121094 426.898438 436.414062 427.890625 436.550781 C 428.886719 436.683594 429.585938 437.597656 429.457031 438.59375 C 429.433594 438.773438 427.359375 456.523438 443.273438 470.261719 Z M 456.878906 574.421875 L 456.878906 601.285156 C 456.878906 602.292969 456.0625 603.109375 455.054688 603.109375 C 454.050781 603.109375 453.234375 602.292969 453.234375 601.285156 L 453.234375 574.421875 C 453.234375 573.414062 454.050781 572.597656 455.054688 572.597656 C 456.0625 572.597656 456.878906 573.414062 456.878906 574.421875 Z M 456.878906 547.558594 L 456.878906 565.664062 C 456.878906 566.671875 456.0625 567.488281 455.054688 567.488281 C 454.050781 567.488281 453.234375 566.671875 453.234375 565.664062 L 453.234375 547.558594 C 453.234375 546.554688 454.050781 545.734375 455.054688 545.734375 C 456.0625 545.734375 456.878906 546.554688 456.878906 547.558594 Z M 452.945312 430.476562 C 452.945312 406.5625 449.398438 402.90625 448.890625 402.507812 C 448.085938 402.425781 447.40625 401.808594 447.277344 400.972656 C 447.125 399.972656 447.808594 399.042969 448.804688 398.890625 C 449.171875 398.835938 450.179688 398.800781 451.308594 399.773438 C 454.8125 402.785156 456.589844 413.113281 456.589844 430.476562 C 456.589844 431.484375 455.773438 432.300781 454.765625 432.300781 C 453.761719 432.300781 452.945312 431.484375 452.945312 430.476562 Z M 371.160156 632.625 C 371.160156 633.632812 370.34375 634.449219 369.335938 634.449219 L 362.921875 634.449219 C 361.917969 634.449219 361.101562 633.632812 361.101562 632.625 C 361.101562 631.617188 361.917969 630.800781 362.921875 630.800781 L 369.339844 630.800781 C 370.34375 630.800781 371.160156 631.617188 371.160156 632.625 Z M 433.554688 557.585938 L 433.554688 574.667969 C 433.554688 575.675781 432.738281 576.492188 431.730469 576.492188 C 430.726562 576.492188 429.910156 575.675781 429.910156 574.667969 L 429.910156 557.585938 C 429.910156 556.578125 430.726562 555.761719 431.730469 555.761719 C 432.738281 555.761719 433.554688 556.578125 433.554688 557.585938 Z M 351.839844 510.570312 C 351.839844 509.640625 352.589844 508.886719 353.519531 508.886719 C 355.667969 508.886719 357.414062 507.132812 357.414062 504.984375 C 357.414062 504.054688 358.167969 503.300781 359.097656 503.300781 C 360.023438 503.300781 360.777344 504.054688 360.777344 504.984375 C 360.777344 507.136719 362.527344 508.886719 364.671875 508.886719 C 365.601562 508.886719 366.355469 509.640625 366.355469 510.570312 C 366.355469 511.5 365.601562 512.253906 364.671875 512.253906 C 362.527344 512.253906 360.777344 514.003906 360.777344 516.152344 C 360.777344 517.082031 360.023438 517.835938 359.097656 517.835938 C 358.167969 517.835938 357.414062 517.082031 357.414062 516.152344 C 357.414062 514.003906 355.667969 512.253906 353.519531 512.253906 C 352.589844 512.253906 351.839844 511.5 351.839844 510.570312 Z M 374.519531 566.046875 C 374.519531 566.976562 373.765625 567.730469 372.835938 567.730469 C 370.6875 567.730469 368.941406 569.480469 368.941406 571.628906 C 368.941406 572.558594 368.1875 573.316406 367.261719 573.316406 C 366.332031 573.316406 365.578125 572.558594 365.578125 571.628906 C 365.578125 569.480469 363.832031 567.730469 361.683594 567.730469 C 360.753906 567.730469 360.003906 566.976562 360.003906 566.046875 C 360.003906 565.117188 360.753906 564.363281 361.683594 564.363281 C 363.832031 564.363281 365.578125 562.613281 365.578125 560.460938 C 365.578125 559.53125 366.332031 558.777344 367.261719 558.777344 C 368.1875 558.777344 368.941406 559.53125 368.941406 560.460938 C 368.941406 562.613281 370.6875 564.363281 372.835938 564.363281 C 373.765625 564.363281 374.519531 565.117188 374.519531 566.046875 Z M 335.773438 530.164062 C 336.699219 530.164062 337.453125 530.917969 337.453125 531.847656 C 337.453125 533.996094 339.199219 535.746094 341.347656 535.746094 C 342.277344 535.746094 343.03125 536.5 343.03125 537.433594 C 343.03125 538.363281 342.277344 539.117188 341.347656 539.117188 C 339.199219 539.117188 337.453125 540.867188 337.453125 543.015625 C 337.453125 543.945312 336.699219 544.699219 335.773438 544.699219 C 334.84375 544.699219 334.089844 543.945312 334.089844 543.015625 C 334.089844 540.867188 332.34375 539.117188 330.195312 539.117188 C 329.265625 539.117188 328.511719 538.363281 328.511719 537.433594 C 328.511719 536.5 329.265625 535.746094 330.195312 535.746094 C 332.34375 535.746094 334.089844 533.996094 334.089844 531.847656 C 334.089844 530.917969 334.84375 530.164062 335.773438 530.164062 Z M 338.363281 584.148438 C 338.363281 585.078125 337.613281 585.832031 336.683594 585.832031 C 334.535156 585.832031 332.789062 587.582031 332.789062 589.734375 C 332.789062 590.664062 332.035156 591.417969 331.105469 591.417969 C 330.179688 591.417969 329.425781 590.664062 329.425781 589.734375 C 329.425781 587.582031 327.675781 585.832031 325.53125 585.832031 C 324.601562 585.832031 323.847656 585.078125 323.847656 584.148438 C 323.847656 583.21875 324.601562 582.464844 325.53125 582.464844 C 327.675781 582.464844 329.425781 580.714844 329.425781 578.5625 C 329.425781 577.632812 330.179688 576.878906 331.105469 576.878906 C 332.035156 576.878906 332.789062 577.632812 332.789062 578.5625 C 332.789062 580.714844 334.535156 582.464844 336.683594 582.464844 C 337.613281 582.464844 338.363281 583.21875 338.363281 584.148438 Z M 508.636719 571.886719 C 508.636719 572.816406 507.882812 573.570312 506.957031 573.570312 C 504.808594 573.570312 503.058594 575.320312 503.058594 577.46875 C 503.058594 578.398438 502.308594 579.152344 501.378906 579.152344 C 500.449219 579.152344 499.695312 578.398438 499.695312 577.46875 C 499.695312 575.320312 497.949219 573.570312 495.800781 573.570312 C 494.875 573.570312 494.121094 572.816406 494.121094 571.886719 C 494.121094 570.957031 494.875 570.203125 495.800781 570.203125 C 497.949219 570.203125 499.695312 568.453125 499.695312 566.300781 C 499.695312 565.371094 500.449219 564.617188 501.378906 564.617188 C 502.308594 564.617188 503.058594 565.371094 503.058594 566.300781 C 503.058594 568.453125 504.808594 570.203125 506.957031 570.203125 C 507.882812 570.203125 508.636719 570.957031 508.636719 571.886719 Z M 360.875 467.648438 C 360.875 466.71875 361.628906 465.964844 362.558594 465.964844 C 364.707031 465.964844 366.453125 464.214844 366.453125 462.0625 C 366.453125 461.132812 367.207031 460.378906 368.132812 460.378906 C 369.0625 460.378906 369.816406 461.132812 369.816406 462.0625 C 369.816406 464.214844 371.5625 465.964844 373.710938 465.964844 C 374.640625 465.964844 375.394531 466.71875 375.394531 467.648438 C 375.394531 468.578125 374.640625 469.332031 373.710938 469.332031 C 371.5625 469.332031 369.816406 471.082031 369.816406 473.234375 C 369.816406 474.164062 369.0625 474.917969 368.132812 474.917969 C 367.207031 474.917969 366.453125 474.164062 366.453125 473.234375 C 366.453125 471.082031 364.707031 469.332031 362.558594 469.332031 C 361.628906 469.332031 360.875 468.578125 360.875 467.648438 Z M 490.007812 465.050781 C 490.9375 465.050781 491.6875 465.804688 491.6875 466.734375 C 491.6875 468.886719 493.4375 470.636719 495.585938 470.636719 C 496.511719 470.636719 497.265625 471.390625 497.265625 472.320312 C 497.265625 473.25 496.511719 474.003906 495.585938 474.003906 C 493.4375 474.003906 491.6875 475.753906 491.6875 477.902344 C 491.6875 478.832031 490.9375 479.589844 490.007812 479.589844 C 489.078125 479.589844 488.328125 478.832031 488.328125 477.902344 C 488.328125 475.753906 486.578125 474.003906 484.429688 474.003906 C 483.5 474.003906 482.75 473.25 482.75 472.320312 C 482.75 471.390625 483.503906 470.636719 484.429688 470.636719 C 486.578125 470.636719 488.328125 468.886719 488.328125 466.734375 C 488.328125 465.804688 489.078125 465.050781 490.007812 465.050781 Z M 475.75 369.542969 C 475.75 368.613281 476.503906 367.859375 477.433594 367.859375 C 479.582031 367.859375 481.328125 366.105469 481.328125 363.957031 C 481.328125 363.027344 482.082031 362.273438 483.007812 362.273438 C 483.9375 362.273438 484.691406 363.027344 484.691406 363.957031 C 484.691406 366.105469 486.4375 367.859375 488.585938 367.859375 C 489.515625 367.859375 490.269531 368.613281 490.269531 369.542969 C 490.269531 370.472656 489.515625 371.226562 488.585938 371.226562 C 486.4375 371.226562 484.691406 372.976562 484.691406 375.125 C 484.691406 376.054688 483.9375 376.808594 483.007812 376.808594 C 482.082031 376.808594 481.328125 376.054688 481.328125 375.125 C 481.328125 372.976562 479.582031 371.226562 477.433594 371.226562 C 476.503906 371.222656 475.75 370.472656 475.75 369.542969 Z M 494.226562 320.679688 C 494.226562 319.75 494.976562 318.996094 495.90625 318.996094 C 498.054688 318.996094 499.800781 317.246094 499.800781 315.09375 C 499.800781 314.164062 500.554688 313.410156 501.484375 313.410156 C 502.410156 313.410156 503.164062 314.164062 503.164062 315.09375 C 503.164062 317.246094 504.910156 318.996094 507.058594 318.996094 C 507.988281 318.996094 508.742188 319.75 508.742188 320.679688 C 508.742188 321.609375 507.988281 322.363281 507.058594 322.363281 C 504.910156 322.363281 503.164062 324.113281 503.164062 326.265625 C 503.164062 327.195312 502.410156 327.949219 501.484375 327.949219 C 500.554688 327.949219 499.800781 327.195312 499.800781 326.265625 C 499.800781 324.113281 498.054688 322.363281 495.90625 322.363281 C 494.976562 322.363281 494.226562 321.609375 494.226562 320.679688 Z M 319.871094 320.679688 C 319.871094 319.75 320.625 318.996094 321.550781 318.996094 C 323.699219 318.996094 325.449219 317.246094 325.449219 315.09375 C 325.449219 314.164062 326.203125 313.410156 327.128906 313.410156 C 328.058594 313.410156 328.8125 314.164062 328.8125 315.09375 C 328.8125 317.246094 330.558594 318.996094 332.707031 318.996094 C 333.636719 318.996094 334.386719 319.75 334.386719 320.679688 C 334.386719 321.609375 333.636719 322.363281 332.707031 322.363281 C 330.558594 322.363281 328.8125 324.113281 328.8125 326.265625 C 328.8125 327.195312 328.058594 327.949219 327.128906 327.949219 C 326.199219 327.949219 325.449219 327.195312 325.449219 326.265625 C 325.449219 324.113281 323.699219 322.363281 321.550781 322.363281 C 320.625 322.363281 319.871094 321.609375 319.871094 320.679688 Z M 449.324219 330.023438 C 449.324219 329.09375 450.078125 328.339844 451.003906 328.339844 C 453.152344 328.339844 454.902344 326.589844 454.902344 324.4375 C 454.902344 323.507812 455.652344 322.753906 456.582031 322.753906 C 457.511719 322.753906 458.261719 323.507812 458.261719 324.4375 C 458.261719 326.589844 460.011719 328.339844 462.160156 328.339844 C 463.089844 328.339844 463.839844 329.09375 463.839844 330.023438 C 463.839844 330.953125 463.085938 331.707031 462.160156 331.707031 C 460.011719 331.707031 458.261719 333.457031 458.261719 335.609375 C 458.261719 336.539062 457.511719 337.292969 456.582031 337.292969 C 455.652344 337.292969 454.902344 336.539062 454.902344 335.609375 C 454.902344 333.457031 453.152344 331.707031 451.003906 331.707031 C 450.078125 331.707031 449.324219 330.953125 449.324219 330.023438 Z M 510.933594 504.691406 C 510.933594 506.84375 512.679688 508.59375 514.828125 508.59375 C 515.757812 508.59375 516.507812 509.347656 516.507812 510.277344 C 516.507812 511.207031 515.757812 511.960938 514.828125 511.960938 C 512.679688 511.960938 510.933594 513.710938 510.933594 515.863281 C 510.933594 516.792969 510.179688 517.546875 509.25 517.546875 C 508.320312 517.546875 507.570312 516.792969 507.570312 515.863281 C 507.570312 513.710938 505.820312 511.960938 503.675781 511.960938 C 502.746094 511.960938 501.992188 511.207031 501.992188 510.277344 C 501.992188 509.347656 502.746094 508.59375 503.675781 508.59375 C 505.820312 508.59375 507.570312 506.84375 507.570312 504.691406 C 507.570312 503.761719 508.320312 503.007812 509.25 503.007812 C 510.179688 503.007812 510.933594 503.761719 510.933594 504.691406 Z M 334.71875 479.1875 C 335.644531 479.1875 336.398438 479.941406 336.398438 480.871094 C 336.398438 481.800781 335.644531 482.554688 334.71875 482.554688 C 332.570312 482.554688 330.820312 484.304688 330.820312 486.457031 C 330.820312 487.386719 330.066406 488.140625 329.140625 488.140625 C 328.210938 488.140625 327.457031 487.386719 327.457031 486.457031 C 327.457031 484.304688 325.710938 482.554688 323.5625 482.554688 C 322.632812 482.554688 321.882812 481.800781 321.882812 480.871094 C 321.882812 479.941406 322.636719 479.1875 323.5625 479.1875 C 325.710938 479.1875 327.457031 477.4375 327.457031 475.285156 C 327.457031 474.355469 328.210938 473.601562 329.140625 473.601562 C 330.066406 473.601562 330.820312 474.355469 330.820312 475.285156 C 330.820312 477.4375 332.570312 479.1875 334.71875 479.1875 Z M 508.996094 419.246094 C 509.925781 419.246094 510.679688 420 510.679688 420.929688 C 510.679688 421.859375 509.925781 422.613281 508.996094 422.613281 C 506.847656 422.613281 505.101562 424.363281 505.101562 426.515625 C 505.101562 427.445312 504.347656 428.199219 503.417969 428.199219 C 502.492188 428.199219 501.738281 427.445312 501.738281 426.515625 C 501.738281 424.363281 499.992188 422.613281 497.84375 422.613281 C 496.914062 422.613281 496.160156 421.859375 496.160156 420.929688 C 496.160156 420 496.914062 419.246094 497.84375 419.246094 C 499.992188 419.246094 501.738281 417.496094 501.738281 415.34375 C 501.738281 414.414062 502.492188 413.660156 503.417969 413.660156 C 504.347656 413.660156 505.101562 414.414062 505.101562 415.34375 C 505.101562 417.496094 506.847656 419.246094 508.996094 419.246094 Z M 528.039062 631.894531 L 528.023438 489.164062 L 528.023438 292.710938 C 528.023438 291.527344 527.5625 290.417969 526.730469 289.582031 C 525.894531 288.746094 524.785156 288.285156 523.601562 288.285156 L 305.152344 288.285156 C 303.96875 288.285156 302.859375 288.746094 302.023438 289.582031 C 301.1875 290.417969 300.730469 291.53125 300.730469 292.710938 L 300.730469 653.285156 C 300.761719 654.984375 302.136719 656.347656 303.839844 656.347656 L 524.824219 656.347656 C 526.542969 656.347656 528.039062 654.851562 528.039062 653.128906 L 528.039062 634.523438 C 528.382812 634.191406 528.601562 633.726562 528.601562 633.210938 C 528.601562 632.691406 528.382812 632.226562 528.039062 631.894531 Z M 304.375 292.710938 C 304.375 292.496094 304.449219 292.3125 304.601562 292.160156 C 304.753906 292.011719 304.9375 291.933594 305.152344 291.933594 L 523.601562 291.933594 C 523.816406 291.933594 524 292.011719 524.152344 292.160156 C 524.304688 292.3125 524.378906 292.5 524.378906 292.710938 L 524.378906 489.164062 L 524.390625 608.464844 L 467.605469 608.464844 C 467.625 608.265625 467.640625 608.0625 467.640625 607.84375 C 467.640625 606.121094 468.722656 603.5625 469.140625 602.722656 L 469.113281 602.707031 C 469.683594 600.957031 469.550781 591.980469 468.175781 522.179688 C 467.363281 480.742188 466.4375 433.777344 466.789062 427.78125 C 467.753906 411.316406 461.785156 399.515625 458.484375 394.335938 C 459.078125 394.140625 459.632812 393.820312 460.066406 393.316406 C 460.660156 392.617188 461.207031 391.371094 460.421875 389.378906 C 459.894531 388.042969 459.878906 387.34375 459.863281 386.667969 C 459.816406 384.449219 459.226562 383.285156 455.636719 380.308594 C 452.710938 377.886719 452.710938 377.886719 453.367188 376.109375 C 453.519531 375.699219 453.691406 375.234375 453.871094 374.699219 C 454.902344 371.597656 451.75 367.628906 446.824219 361.929688 C 445.65625 360.574219 444.136719 358.820312 443.476562 357.84375 C 443.507812 357.839844 443.542969 357.835938 443.570312 357.828125 C 444.746094 357.664062 447.183594 357.3125 447.613281 354.738281 C 447.828125 353.449219 447.375 352.035156 446.347656 350.757812 C 443.984375 347.824219 439.03125 345.90625 433.09375 345.621094 C 423.417969 345.164062 418.371094 349.710938 411.304688 359.4375 C 406.117188 366.582031 408.21875 377.289062 409.976562 383.132812 C 408.304688 382.347656 406.410156 381.425781 404.488281 380.445312 L 404.488281 358.445312 C 404.488281 358.195312 404.539062 357.945312 404.632812 357.710938 L 409.394531 346.109375 C 409.640625 345.503906 409.566406 344.8125 409.195312 344.273438 L 404.1875 337.039062 C 403.414062 335.917969 401.757812 335.929688 401 337.0625 L 396.167969 344.300781 C 395.820312 344.824219 395.746094 345.488281 395.972656 346.074219 L 400.492188 357.699219 C 400.582031 357.921875 400.625 358.160156 400.625 358.398438 L 400.625 378.398438 C 396.878906 376.335938 393.5625 374.226562 392.300781 372.679688 C 390.984375 371.070312 389.597656 371.164062 388.882812 371.363281 C 388.859375 371.371094 388.832031 371.386719 388.808594 371.394531 L 374.457031 360.324219 L 365.261719 353 C 363.234375 350.753906 356.824219 344.253906 352.4375 346.324219 C 349.386719 347.761719 348.058594 350.683594 347.515625 352.441406 C 346.4375 352.640625 345.058594 353.128906 344.292969 354.289062 C 343.917969 354.863281 343.398438 356.074219 344.125 357.789062 C 342.667969 359.191406 340.859375 362.027344 340.859375 367.476562 C 340.859375 370.636719 341.734375 373.042969 343.453125 374.628906 C 344.015625 375.144531 344.601562 375.503906 345.175781 375.773438 C 340.824219 376.835938 338.644531 379.105469 337.679688 380.488281 L 335.976562 380.488281 C 333.765625 380.488281 331.96875 382.289062 331.96875 384.503906 L 331.96875 386.480469 C 331.96875 388.144531 332.980469 389.574219 334.421875 390.183594 L 334.421875 422.683594 C 332.980469 423.292969 331.96875 424.722656 331.96875 426.382812 L 331.96875 428.363281 C 331.96875 430.578125 333.765625 432.378906 335.976562 432.378906 L 364.816406 432.378906 C 367.027344 432.378906 368.828125 430.578125 368.828125 428.363281 L 368.828125 426.382812 C 368.828125 424.375 367.339844 422.71875 365.410156 422.429688 L 365.410156 390.4375 C 367.339844 390.148438 368.828125 388.496094 368.828125 386.484375 L 368.828125 384.503906 C 368.828125 382.289062 367.027344 380.488281 364.816406 380.488281 L 363.160156 380.488281 C 362.261719 379.179688 360.152344 376.933594 355.859375 375.835938 C 356.480469 375.582031 357.117188 375.21875 357.707031 374.695312 C 359.269531 373.3125 360.0625 371.257812 360.0625 368.589844 C 360.0625 366.863281 359.941406 365.445312 359.746094 364.285156 C 360.5 364.542969 361.257812 364.773438 361.96875 364.9375 L 365.921875 367.871094 C 362.894531 372.335938 364.042969 373.484375 364.625 374.066406 C 365.183594 374.625 366.359375 375.257812 368.753906 376.515625 C 370.777344 377.582031 373.300781 378.910156 374.800781 379.984375 C 376.851562 381.449219 380.6875 385.949219 382.511719 388.191406 C 381.578125 394.773438 377.992188 425.226562 381.386719 429.761719 C 383.609375 432.726562 387.195312 433.015625 389.277344 432.886719 C 390.195312 435.074219 391.46875 436.058594 392.5625 436.484375 C 392.304688 450.765625 390.402344 557.8125 390.402344 568.4375 C 390.402344 577.691406 396.292969 581.609375 400.304688 582.6875 C 400.390625 582.960938 400.503906 583.222656 400.625 583.480469 L 400.625 608.757812 L 304.375 608.757812 Z M 395.652344 433.417969 C 395.160156 433.070312 394.71875 432.941406 394.152344 433.148438 C 393.816406 433.195312 393.015625 432.675781 392.414062 430.835938 C 392.421875 430.789062 392.4375 430.738281 392.441406 430.6875 L 393.316406 416.867188 C 393.378906 415.863281 392.617188 414.996094 391.613281 414.929688 C 390.597656 414.859375 389.742188 415.632812 389.679688 416.636719 L 388.878906 429.25 C 387.546875 429.308594 385.464844 429.121094 384.3125 427.585938 C 382.546875 424.808594 384.246094 400.492188 386.238281 387.921875 C 387.039062 382.320312 388.546875 376.785156 389.652344 375.195312 C 391.601562 377.417969 396.117188 380.15625 400.625 382.558594 L 400.625 397.023438 C 399.652344 397.15625 398.671875 397.460938 397.738281 397.945312 C 395.519531 399.105469 394.136719 400.996094 393.941406 403.132812 C 393.511719 407.859375 396.613281 412.929688 396.96875 413.492188 C 397.757812 414.742188 398.988281 415.613281 400.625 416.128906 L 400.625 578.953125 C 398.304688 578.144531 394.046875 575.671875 394.046875 568.4375 C 394.046875 557.136719 396.210938 436.207031 396.234375 434.984375 C 396.246094 434.382812 396.144531 433.769531 395.652344 433.417969 Z M 356.417969 368.585938 C 356.417969 370.152344 356.046875 371.28125 355.3125 371.945312 C 355.085938 372.144531 354.839844 372.289062 354.585938 372.402344 L 354.585938 370.417969 L 345.78125 370.417969 L 345.78125 371.765625 C 344.945312 370.882812 344.507812 369.453125 344.507812 367.476562 C 344.507812 363.054688 345.902344 361.117188 346.726562 360.355469 C 349.25 361.6875 352.753906 362.003906 354.457031 362.078125 C 354.6875 362.1875 355.03125 362.351562 355.429688 362.535156 C 355.765625 363.132812 356.417969 364.78125 356.417969 368.585938 Z M 346.945312 422.367188 L 346.945312 390.496094 L 353.167969 390.496094 L 353.167969 422.367188 Z M 343.300781 390.496094 L 343.300781 422.367188 L 338.066406 422.367188 L 338.066406 390.496094 Z M 356.8125 422.367188 L 356.8125 390.496094 L 361.765625 390.496094 L 361.765625 422.367188 Z M 369.902344 368.582031 L 371.023438 367.109375 L 370.832031 366.96875 L 371.085938 367.066406 L 373.695312 364.34375 L 386.203125 373.992188 C 384.910156 376.320312 383.964844 379.851562 383.285156 383.429688 C 381.347656 381.175781 378.730469 378.308594 376.921875 377.011719 C 375.214844 375.792969 372.683594 374.460938 370.453125 373.285156 C 369.542969 372.808594 368.480469 372.246094 367.8125 371.867188 C 368.199219 371.054688 369.046875 369.710938 369.902344 368.582031 Z M 404.492188 587.128906 C 409.371094 589.476562 417.050781 589.085938 420.816406 588.707031 L 420.816406 599.363281 C 420.816406 600.589844 421.304688 601.691406 422.226562 602.535156 C 424.257812 604.398438 428.089844 604.699219 430.519531 604.660156 C 430.675781 606.402344 431.050781 607.726562 431.574219 608.757812 L 404.488281 608.757812 L 404.488281 587.128906 Z M 458.847656 608.464844 L 458.847656 608.523438 C 457.082031 608.5625 454.984375 608.5625 452.691406 608.5625 L 439.460938 608.5625 C 435.660156 608.5625 434.085938 608.5625 434.085938 602.753906 C 434.085938 602.246094 433.871094 601.757812 433.496094 601.410156 C 433.328125 601.257812 433.136719 601.140625 432.933594 601.058594 L 433.664062 601.058594 L 433.664062 582.40625 L 430.019531 582.40625 L 430.019531 601.003906 C 427.902344 600.972656 425.566406 600.652344 424.6875 599.84375 C 424.496094 599.667969 424.460938 599.535156 424.460938 599.363281 L 424.460938 586.644531 C 424.460938 586.5 424.4375 586.359375 424.40625 586.222656 L 424.460938 586.222656 L 424.460938 539.164062 L 420.816406 539.164062 L 420.816406 585.035156 C 419.226562 585.199219 417.128906 585.339844 414.941406 585.324219 L 414.941406 513.203125 L 411.296875 513.203125 L 411.296875 585.136719 C 408.734375 584.867188 406.375 584.285156 404.941406 583.164062 C 404.769531 583.03125 404.625 582.890625 404.488281 582.75 L 404.488281 416.675781 C 404.808594 416.675781 405.121094 416.683594 405.457031 416.671875 C 406.40625 416.636719 407.050781 416.589844 407.527344 416.554688 C 408.515625 416.484375 408.519531 416.484375 410.117188 416.976562 L 410.25 417.015625 C 411.824219 417.503906 413.714844 418.429688 414.914062 419.058594 C 414.601562 425.355469 414.492188 432.738281 415.15625 438.636719 C 415.308594 441.40625 416.941406 465.847656 427.296875 471.257812 C 427.566406 471.398438 427.855469 471.464844 428.140625 471.464844 C 428.796875 471.464844 429.433594 471.109375 429.757812 470.484375 C 430.222656 469.589844 429.875 468.488281 428.984375 468.023438 C 421.757812 464.25 419.179688 445.382812 418.785156 438.332031 C 417.488281 426.785156 419.289062 408.78125 419.550781 406.277344 L 425.78125 392.746094 C 426.585938 391.4375 427.046875 389.992188 426.847656 387.003906 C 426.425781 380.648438 427.753906 377.6875 425.648438 372.171875 C 421.746094 361.933594 415.707031 365.390625 415.402344 369.378906 C 414.769531 377.75 417.152344 378.464844 419.339844 388.210938 C 419.988281 391.09375 420.488281 393.160156 420.882812 394.675781 L 416.113281 405.023438 C 416.03125 405.199219 415.980469 405.390625 415.957031 405.585938 C 415.949219 405.648438 415.929688 405.832031 415.902344 406.101562 C 414.28125 405.710938 412.667969 405.089844 412.230469 404.519531 C 409.859375 401.410156 407.5 399.210938 405.019531 397.792969 C 404.851562 397.695312 404.667969 397.617188 404.492188 397.539062 L 404.492188 384.542969 C 408.347656 386.457031 411.597656 387.898438 412.378906 388.238281 C 413.058594 388.539062 413.859375 388.390625 414.390625 387.867188 C 414.921875 387.339844 415.078125 386.542969 414.785156 385.855469 C 414.71875 385.695312 408.160156 369.976562 414.253906 361.582031 C 420.789062 352.582031 424.800781 348.875 432.921875 349.265625 C 438.703125 349.542969 442.183594 351.402344 443.511719 353.050781 C 443.871094 353.496094 443.992188 353.84375 444.015625 354.035156 C 443.777344 354.113281 443.339844 354.175781 443.058594 354.214844 C 442.066406 354.359375 440.832031 354.535156 440.054688 355.597656 C 439.730469 356.039062 439.386719 356.796875 439.570312 357.917969 C 439.808594 359.339844 441.199219 360.996094 444.070312 364.316406 C 446.074219 366.636719 450.769531 372.066406 450.414062 373.542969 C 450.25 374.035156 450.089844 374.460938 449.953125 374.839844 C 448.625 378.417969 449.128906 379.65625 453.3125 383.121094 C 456.195312 385.507812 456.203125 385.921875 456.21875 386.746094 C 456.238281 387.554688 456.265625 388.777344 457.03125 390.71875 C 457.0625 390.796875 457.085938 390.863281 457.101562 390.921875 C 456.789062 390.960938 456.320312 390.949219 455.871094 390.890625 C 454.859375 390.011719 452.300781 388.210938 447.640625 387.433594 C 446.136719 387.183594 441.558594 386.421875 440.277344 384.328125 C 439.753906 383.46875 438.632812 383.195312 437.773438 383.722656 C 436.914062 384.246094 436.644531 385.371094 437.167969 386.230469 C 439.316406 389.75 444.730469 390.652344 447.15625 391.054688 C 451.554688 391.789062 453.511719 393.660156 453.664062 393.8125 C 454.394531 394.734375 464.320312 407.636719 463.152344 427.566406 C 462.789062 433.703125 463.675781 478.71875 464.53125 522.25 C 465.261719 559.257812 466.011719 597.496094 465.757812 601.339844 C 465.320312 602.269531 463.992188 605.28125 463.992188 607.839844 C 463.992188 607.90625 463.992188 607.953125 463.988281 607.988281 C 463.578125 608.242188 462.429688 608.382812 460.773438 608.460938 L 458.847656 608.460938 Z M 466.242188 600.597656 C 466.46875 600.371094 466.773438 600.191406 467.144531 600.121094 C 466.800781 600.191406 466.488281 600.355469 466.242188 600.597656 Z M 304.375 652.699219 L 304.375 645.875 C 304.621094 646.003906 304.898438 646.082031 305.195312 646.082031 L 366.421875 646.082031 C 367.429688 646.082031 368.246094 645.261719 368.246094 644.257812 C 368.246094 643.25 367.429688 642.429688 366.421875 642.429688 L 305.195312 642.429688 C 304.898438 642.429688 304.621094 642.507812 304.375 642.636719 L 304.375 635.011719 C 304.453125 635.019531 304.53125 635.035156 304.613281 635.035156 L 355.34375 635.035156 C 356.347656 635.035156 357.164062 634.214844 357.164062 633.210938 C 357.164062 632.203125 356.347656 631.382812 355.34375 631.382812 L 304.609375 631.382812 C 304.53125 631.382812 304.453125 631.398438 304.371094 631.410156 L 304.371094 622.566406 C 304.621094 622.691406 304.898438 622.769531 305.195312 622.769531 L 366.421875 622.769531 C 367.429688 622.769531 368.246094 621.953125 368.246094 620.945312 C 368.246094 619.9375 367.429688 619.121094 366.421875 619.121094 L 305.195312 619.121094 C 304.898438 619.121094 304.621094 619.199219 304.375 619.324219 L 304.375 612.40625 L 400.625 612.40625 L 400.625 632.882812 C 400.625 634.28125 401.195312 635.382812 402.59375 635.382812 C 403.882812 635.382812 404.492188 634.449219 404.492188 632.863281 L 404.492188 612.40625 L 442.296875 612.40625 C 442.308594 613.175781 442.269531 613.988281 442.109375 614.625 C 441.6875 616.320312 438.300781 618.015625 427.71875 619.289062 C 417.132812 620.558594 417.558594 623.527344 417.558594 623.527344 C 417.980469 629.464844 431.105469 626.917969 431.105469 626.917969 C 431.105469 626.917969 415.441406 629.886719 416.710938 635.398438 C 417.980469 640.910156 440.839844 637.09375 454.386719 634.550781 C 467.933594 632.007812 460.3125 620.984375 460.3125 616.746094 C 460.3125 615 460.3125 613.402344 460.3125 612.121094 C 460.371094 612.121094 460.429688 612.117188 460.488281 612.113281 L 524.390625 612.113281 L 524.390625 619.121094 L 476.339844 619.121094 C 475.335938 619.121094 474.519531 619.9375 474.519531 620.945312 C 474.519531 621.953125 475.335938 622.773438 476.339844 622.773438 L 524.390625 622.773438 L 524.394531 631.386719 L 496.167969 631.386719 C 495.160156 631.386719 494.34375 632.203125 494.34375 633.210938 C 494.34375 634.21875 495.160156 635.035156 496.167969 635.035156 L 524.394531 635.035156 L 524.394531 642.433594 L 469.34375 642.433594 C 468.335938 642.433594 467.519531 643.25 467.519531 644.257812 C 467.519531 645.265625 468.335938 646.082031 469.34375 646.082031 L 524.394531 646.082031 L 524.394531 652.699219 Z M 473.933594 632.625 C 473.933594 631.617188 474.75 630.800781 475.757812 630.800781 L 481.589844 630.800781 C 482.59375 630.800781 483.410156 631.617188 483.410156 632.625 C 483.410156 633.632812 482.59375 634.449219 481.589844 634.449219 L 475.757812 634.449219 C 474.75 634.449219 473.933594 633.632812 473.933594 632.625 Z M 473.933594 632.625 " fill-opacity="1" fill-rule="nonzero"/></g></svg>