<svg xmlns="http://www.w3.org/2000/svg" xmlns:xlink="http://www.w3.org/1999/xlink" width="1080" zoomAndPan="magnify" viewBox="0 0 810 809.999993" height="1080" preserveAspectRatio="xMidYMid meet" version="1.0"><defs><clipPath id="51ddbee1e0"><path d="M 286.589844 322.117188 L 526.589844 322.117188 L 526.589844 732.367188 L 286.589844 732.367188 Z M 286.589844 322.117188 " clip-rule="nonzero"/></clipPath></defs><g clip-path="url(#51ddbee1e0)"><path fill="#2e2e2e" d="M 522.574219 326.230469 C 519.96875 323.621094 516.507812 322.203125 512.863281 322.203125 L 300.320312 322.203125 C 296.636719 322.203125 293.175781 323.621094 290.609375 326.230469 C 288.003906 328.839844 286.589844 332.308594 286.589844 335.960938 L 286.589844 718.484375 C 286.589844 722.171875 288.003906 725.640625 290.609375 728.25 C 293.214844 730.859375 296.671875 732.277344 300.320312 732.277344 L 512.824219 732.277344 C 516.507812 732.277344 519.96875 730.859375 522.535156 728.25 C 525.140625 725.640625 526.554688 722.171875 526.554688 718.484375 L 526.554688 336 C 526.589844 332.308594 525.175781 328.839844 522.574219 326.230469 Z M 523.058594 527.257812 L 523.058594 718.519531 C 523.058594 721.351562 521.902344 723.890625 520.082031 725.753906 C 518.21875 727.617188 515.691406 728.734375 512.863281 728.734375 L 300.320312 728.734375 C 297.492188 728.734375 294.960938 727.578125 293.101562 725.753906 C 291.242188 723.890625 290.125 721.351562 290.125 718.519531 L 290.125 336 C 290.125 333.164062 291.277344 330.628906 293.101562 328.765625 C 294.960938 326.902344 297.492188 325.78125 300.320312 325.78125 L 512.824219 325.78125 C 515.652344 325.78125 518.183594 326.9375 520.042969 328.765625 C 521.902344 330.628906 523.019531 333.164062 523.019531 336 Z M 517.140625 336 C 517.140625 334.84375 516.695312 333.761719 515.875 332.941406 C 515.058594 332.121094 513.980469 331.671875 512.824219 331.671875 L 300.28125 331.671875 C 299.128906 331.671875 298.050781 332.121094 297.230469 332.941406 C 296.414062 333.761719 295.964844 334.84375 295.964844 336 L 295.964844 687.054688 C 296.003906 688.695312 297.34375 690.035156 298.980469 690.035156 L 498.984375 690.035156 C 499.058594 690.074219 499.136719 690.109375 499.246094 690.109375 C 499.359375 690.148438 499.46875 690.148438 499.582031 690.148438 C 499.804688 690.148438 499.992188 690.109375 500.175781 690.035156 L 513.980469 690.035156 C 515.652344 690.035156 517.105469 688.582031 517.105469 686.902344 L 517.105469 336 Z M 511.820312 629.453125 C 512.601562 628.070312 512.976562 626.28125 512.824219 624.230469 C 512.640625 621.472656 511.5625 618.230469 509.925781 615.285156 C 508.585938 612.933594 508.992188 609.578125 509.367188 606.335938 C 509.738281 603.277344 510.074219 600.40625 508.957031 598.207031 C 508.546875 597.425781 508.25 595.820312 507.953125 594.144531 C 506.984375 589 505.535156 581.320312 498.242188 579.902344 C 498.09375 579.789062 497.945312 579.714844 497.796875 579.640625 C 497.164062 578.671875 496.046875 577.144531 494.410156 575.613281 C 492.4375 573.75 489.757812 571.8125 486.261719 570.804688 C 484.886719 570.394531 483.433594 570.171875 481.984375 570.097656 C 481.835938 570.058594 481.6875 570.097656 481.5 570.097656 C 480.757812 570.097656 480.050781 570.097656 479.304688 570.171875 C 479.492188 566.554688 477.257812 563.011719 475.0625 559.546875 C 474.246094 558.242188 473.5 557.046875 472.90625 555.890625 L 474.617188 554.101562 C 475.882812 554.996094 478.339844 558.015625 481.945312 563.164062 C 482.617188 564.09375 483.0625 564.765625 483.359375 565.101562 C 483.695312 565.546875 484.214844 565.734375 484.738281 565.734375 C 485.144531 565.734375 485.519531 565.585938 485.851562 565.324219 C 486.597656 564.691406 486.707031 563.574219 486.113281 562.828125 C 485.925781 562.566406 485.40625 561.894531 484.847656 561.074219 C 484.441406 560.476562 484.03125 559.917969 483.660156 559.398438 C 484.664062 558.128906 487.007812 555.296875 488.753906 553.132812 C 489.796875 551.867188 490.503906 550.820312 491.0625 550 C 491.695312 549.105469 492.140625 548.398438 492.808594 547.726562 C 493.515625 548.4375 494.820312 550.597656 495.898438 553.582031 C 497.089844 556.863281 505.980469 565.585938 507.765625 567.300781 C 508.101562 567.636719 508.546875 567.785156 508.992188 567.785156 C 509.441406 567.785156 509.925781 567.597656 510.257812 567.226562 C 510.929688 566.519531 510.929688 565.398438 510.222656 564.726562 C 508.917969 563.460938 507.429688 562.007812 505.980469 560.476562 C 507.582031 558.128906 509.402344 556.117188 510.332031 555.742188 C 511.226562 556.898438 512.824219 558.351562 513.605469 559.023438 L 513.605469 647.570312 L 511.820312 642.875 C 512.230469 640.5625 513.273438 633.402344 511.820312 629.453125 Z M 455.347656 686.492188 C 455.199219 686.417969 455.011719 686.382812 454.824219 686.382812 L 452.296875 686.234375 C 395.96875 676.761719 347.605469 637.207031 340.351562 631.054688 C 341.726562 629.863281 343.101562 628.632812 344.40625 627.4375 C 344.441406 627.886719 344.664062 628.332031 345.039062 628.667969 C 345.597656 629.117188 400.878906 674.601562 457.652344 682.019531 C 457.726562 682.019531 457.800781 682.019531 457.875 682.019531 C 458.769531 682.019531 459.511719 681.347656 459.625 680.492188 C 459.738281 679.523438 459.066406 678.628906 458.097656 678.515625 C 402.367188 671.207031 347.828125 626.429688 347.308594 625.945312 C 347.046875 625.722656 346.75 625.609375 346.453125 625.574219 C 355.34375 617.183594 362.449219 608.757812 365.460938 603.578125 C 367.25 600.519531 368.289062 597.6875 368.8125 595.152344 C 370.1875 597.089844 372.160156 599.625 374.761719 602.53125 L 366.875 610.398438 C 366.167969 611.109375 366.207031 612.226562 366.875 612.898438 C 367.210938 613.234375 367.65625 613.417969 368.140625 613.417969 C 368.585938 613.417969 369.070312 613.234375 369.40625 612.898438 L 377.144531 605.066406 C 378.261719 606.261719 379.488281 607.453125 380.828125 608.722656 L 373.722656 616.214844 C 373.050781 616.925781 373.089844 618.042969 373.796875 618.714844 C 374.132812 619.050781 374.578125 619.199219 375.023438 619.199219 C 375.507812 619.199219 375.953125 619.011719 376.324219 618.640625 L 383.433594 611.109375 C 384.808594 612.375 386.296875 613.644531 387.894531 614.949219 L 381.125 623.261719 C 380.492188 624.007812 380.605469 625.125 381.386719 625.761719 C 381.71875 626.019531 382.128906 626.171875 382.5 626.171875 C 383.023438 626.171875 383.542969 625.945312 383.878906 625.5 L 390.648438 617.183594 C 391.617188 617.929688 392.585938 618.675781 393.625 619.460938 C 394.257812 619.945312 394.964844 620.429688 395.632812 620.914062 L 389.457031 629.265625 C 388.863281 630.046875 389.050781 631.167969 389.832031 631.761719 C 390.128906 631.988281 390.5 632.097656 390.871094 632.097656 C 391.429688 632.097656 391.953125 631.835938 392.285156 631.390625 L 398.5 622.964844 C 400.136719 624.082031 401.808594 625.199219 403.632812 626.320312 L 398.015625 635.566406 C 397.496094 636.386719 397.753906 637.503906 398.609375 637.988281 C 398.910156 638.175781 399.207031 638.25 399.542969 638.25 C 400.136719 638.25 400.730469 637.953125 401.066406 637.390625 L 406.683594 628.144531 C 408.433594 629.191406 410.253906 630.234375 412.152344 631.316406 L 407.28125 640.785156 C 406.832031 641.644531 407.167969 642.722656 408.023438 643.171875 C 408.285156 643.320312 408.542969 643.359375 408.84375 643.359375 C 409.472656 643.359375 410.105469 643.023438 410.40625 642.386719 L 415.242188 632.992188 C 417.289062 634.074219 419.40625 635.15625 421.640625 636.238281 L 417.101562 646.191406 C 416.691406 647.085938 417.101562 648.128906 417.992188 648.539062 C 418.21875 648.652344 418.476562 648.6875 418.738281 648.6875 C 419.40625 648.6875 420.039062 648.316406 420.335938 647.644531 L 424.839844 637.726562 C 427.109375 638.773438 429.488281 639.851562 431.945312 640.859375 L 427.703125 650.738281 C 427.332031 651.632812 427.742188 652.679688 428.632812 653.089844 C 428.855469 653.199219 429.117188 653.238281 429.339844 653.238281 C 430.011719 653.238281 430.679688 652.828125 430.976562 652.15625 L 435.257812 642.203125 C 437.152344 642.984375 439.089844 643.730469 441.058594 644.476562 L 437.414062 655.140625 C 437.078125 656.070312 437.601562 657.078125 438.53125 657.375 C 438.714844 657.449219 438.902344 657.488281 439.089844 657.488281 C 439.832031 657.488281 440.503906 657.039062 440.761719 656.296875 L 444.371094 645.707031 C 446.378906 646.414062 448.425781 647.125 450.511719 647.832031 L 446.902344 658.382812 C 446.566406 659.316406 447.085938 660.320312 448.015625 660.621094 C 448.203125 660.695312 448.390625 660.730469 448.574219 660.730469 C 449.320312 660.730469 449.988281 660.285156 450.25 659.539062 L 453.859375 648.949219 L 453.859375 648.914062 C 456.015625 649.585938 458.210938 650.253906 460.480469 650.925781 L 457.390625 662.371094 C 457.132812 663.304688 457.691406 664.3125 458.621094 664.535156 C 458.769531 664.570312 458.917969 664.609375 459.105469 664.609375 C 459.886719 664.609375 460.59375 664.085938 460.816406 663.304688 L 463.902344 651.894531 C 466.023438 652.492188 468.179688 653.050781 470.375 653.574219 L 467.550781 665.09375 C 467.324219 666.0625 467.882812 666.996094 468.851562 667.257812 C 469 667.292969 469.148438 667.292969 469.261719 667.292969 C 470.042969 667.292969 470.785156 666.734375 470.972656 665.953125 L 473.800781 654.429688 C 476.03125 654.953125 478.339844 655.476562 480.683594 655.996094 L 478.523438 667.925781 C 478.339844 668.898438 478.96875 669.828125 479.9375 669.976562 C 480.050781 670.015625 480.160156 670.015625 480.273438 670.015625 C 481.128906 670.015625 481.871094 669.417969 482.019531 668.5625 L 484.179688 656.742188 C 486.375 657.191406 488.644531 657.636719 490.949219 658.046875 L 489.574219 669.679688 C 489.460938 670.648438 490.167969 671.542969 491.136719 671.65625 C 491.210938 671.65625 491.285156 671.65625 491.359375 671.65625 C 492.253906 671.65625 492.996094 670.984375 493.109375 670.089844 L 494.445312 658.679688 C 496.828125 659.089844 499.246094 659.464844 501.703125 659.835938 C 500.808594 668.152344 499.617188 678.253906 498.09375 686.417969 Z M 364.421875 686.492188 C 334.84375 672.921875 321.375 651.113281 318.734375 646.453125 C 325.058594 642.949219 331.53125 638.363281 337.558594 633.367188 C 338.082031 633.8125 339.011719 634.597656 340.3125 635.675781 L 334.992188 642.015625 C 334.359375 642.761719 334.472656 643.878906 335.214844 644.511719 C 335.550781 644.8125 335.960938 644.921875 336.371094 644.921875 C 336.890625 644.921875 337.375 644.699219 337.707031 644.289062 L 343.101562 637.878906 C 344.367188 638.882812 345.78125 639.964844 347.417969 641.195312 L 342.472656 647.644531 C 341.875 648.429688 342.023438 649.546875 342.804688 650.144531 C 343.140625 650.402344 343.511719 650.515625 343.882812 650.515625 C 344.40625 650.515625 344.925781 650.292969 345.296875 649.808594 L 350.285156 643.285156 C 351.808594 644.402344 353.484375 645.632812 355.269531 646.863281 L 350.359375 653.796875 C 349.800781 654.578125 349.984375 655.699219 350.765625 656.257812 C 351.066406 656.480469 351.4375 656.59375 351.808594 656.59375 C 352.367188 656.59375 352.925781 656.332031 353.261719 655.847656 L 358.171875 648.914062 C 359.695312 649.957031 361.296875 651.039062 362.96875 652.15625 L 358.578125 659.464844 C 358.058594 660.320312 358.355469 661.402344 359.175781 661.886719 C 359.472656 662.074219 359.769531 662.148438 360.066406 662.148438 C 360.664062 662.148438 361.257812 661.851562 361.59375 661.289062 L 365.910156 654.09375 C 367.695312 655.25 369.519531 656.40625 371.414062 657.5625 L 367.25 664.722656 C 366.765625 665.578125 367.023438 666.660156 367.878906 667.144531 C 368.179688 667.292969 368.476562 667.40625 368.773438 667.40625 C 369.367188 667.40625 369.964844 667.105469 370.300781 666.511719 L 374.429688 659.425781 C 376.25 660.507812 378.074219 661.589844 380.007812 662.671875 L 376.324219 669.828125 C 375.878906 670.6875 376.214844 671.765625 377.105469 672.214844 C 377.367188 672.363281 377.628906 672.402344 377.925781 672.402344 C 378.558594 672.402344 379.191406 672.066406 379.488281 671.433594 L 383.097656 664.386719 C 385.292969 665.578125 387.523438 666.808594 389.792969 667.964844 L 386.332031 674.824219 C 385.886719 675.71875 386.257812 676.761719 387.113281 677.210938 C 387.375 677.324219 387.636719 677.398438 387.894531 677.398438 C 388.527344 677.398438 389.160156 677.023438 389.496094 676.425781 L 392.957031 669.566406 C 395.152344 670.6875 397.382812 671.765625 399.652344 672.8125 L 396.566406 679.632812 C 396.15625 680.527344 396.566406 681.574219 397.457031 681.984375 C 397.679688 682.09375 397.941406 682.132812 398.203125 682.132812 C 398.871094 682.132812 399.542969 681.757812 399.800781 681.089844 L 402.851562 674.300781 C 404.972656 675.273438 407.128906 676.203125 409.324219 677.097656 L 406.90625 683.136719 C 406.535156 684.035156 406.980469 685.078125 407.875 685.449219 C 408.097656 685.523438 408.320312 685.5625 408.542969 685.5625 C 409.25 685.5625 409.921875 685.152344 410.179688 684.445312 L 412.597656 678.402344 C 414.832031 679.296875 417.101562 680.15625 419.40625 680.976562 L 417.546875 686.382812 Z M 315.015625 686.492188 C 312.96875 675.644531 311.515625 662.261719 310.402344 650.367188 C 312.113281 649.734375 313.824219 648.949219 315.574219 648.09375 C 318.101562 652.714844 330.042969 672.289062 356.460938 686.492188 Z M 301.621094 642.949219 L 299.539062 648.464844 L 299.539062 557.980469 C 299.910156 557.53125 300.914062 556.339844 302.367188 554.625 C 303.296875 553.46875 304.300781 552.574219 305.339844 551.679688 C 305.789062 551.269531 306.234375 550.894531 306.679688 550.449219 C 306.980469 551.15625 307.351562 551.941406 307.984375 552.6875 C 309.769531 554.886719 313.339844 558.242188 314.605469 559.359375 C 315.347656 560.738281 318.625 566.144531 324.054688 567.414062 C 324.203125 567.449219 324.316406 567.449219 324.464844 567.449219 C 325.28125 567.449219 325.988281 566.890625 326.175781 566.070312 C 326.398438 565.101562 325.804688 564.167969 324.875 563.945312 C 322.230469 563.3125 320.1875 561.1875 318.957031 559.546875 C 319.886719 559.210938 320.96875 558.726562 322.269531 558.167969 C 323.050781 557.832031 324.054688 557.347656 324.613281 557.160156 C 325.691406 557.757812 328.558594 559.507812 330.492188 560.738281 C 331.71875 561.484375 332.871094 562.191406 333.726562 562.714844 C 333.988281 562.863281 334.25 563.011719 334.472656 563.164062 C 333.207031 565.4375 332.3125 567.785156 332.5 570.132812 C 332.3125 570.132812 332.128906 570.132812 331.941406 570.132812 C 331.792969 570.097656 331.644531 570.097656 331.496094 570.132812 C 330.042969 570.207031 328.59375 570.433594 327.21875 570.84375 C 320.820312 572.707031 317.0625 577.589844 315.683594 579.714844 C 315.535156 579.789062 315.386719 579.863281 315.238281 579.976562 C 307.945312 581.394531 306.496094 589.074219 305.527344 594.21875 C 305.191406 595.898438 304.894531 597.5 304.523438 598.28125 C 303.40625 600.484375 303.742188 603.351562 304.113281 606.410156 C 304.523438 609.652344 304.894531 613.007812 303.554688 615.359375 C 300.804688 620.167969 299.613281 625.910156 301.621094 629.527344 C 300.207031 633.441406 301.210938 640.5625 301.621094 642.949219 Z M 339.421875 541.316406 C 336.59375 539.113281 335.140625 537.0625 335.066406 535.199219 C 334.957031 532.21875 338.378906 529.234375 341.652344 526.328125 C 346.152344 522.300781 351.808594 517.339844 347.941406 511.117188 C 338.453125 495.828125 360.253906 475.957031 366.394531 470.8125 L 367.546875 473.945312 C 363.75 477.113281 350.730469 488.96875 350.023438 502.128906 C 349.800781 506.304688 351.363281 508.992188 352.480469 510.964844 C 353.742188 513.167969 354.117188 513.949219 353.074219 515.550781 C 352.554688 516.371094 352.777344 517.492188 353.59375 518.011719 C 353.890625 518.199219 354.226562 518.3125 354.5625 518.3125 C 355.15625 518.3125 355.714844 518.011719 356.050781 517.492188 C 358.320312 513.984375 356.867188 511.449219 355.566406 509.214844 C 354.488281 507.351562 353.410156 505.449219 353.558594 502.355469 C 354.300781 488.859375 370.597656 476.070312 370.746094 475.957031 C 370.78125 475.921875 370.78125 475.921875 370.820312 475.882812 C 370.855469 475.847656 370.855469 475.847656 370.894531 475.808594 C 371.042969 475.660156 371.15625 475.511719 371.230469 475.359375 C 371.230469 475.359375 371.230469 475.359375 371.230469 475.324219 C 373.574219 473.796875 387.375 465.21875 406.460938 465.21875 C 427.257812 465.21875 441.394531 475.847656 441.542969 475.957031 C 441.878906 476.21875 442.289062 476.332031 442.695312 476.332031 C 446.195312 479.3125 458.285156 490.347656 458.917969 501.945312 C 459.105469 505.039062 457.988281 506.976562 456.910156 508.804688 C 455.605469 511.039062 454.15625 513.574219 456.425781 517.082031 C 456.761719 517.601562 457.316406 517.902344 457.914062 517.902344 C 458.25 517.902344 458.582031 517.789062 458.878906 517.601562 C 459.699219 517.082031 459.921875 515.960938 459.402344 515.140625 C 458.359375 513.539062 458.730469 512.792969 459.996094 510.554688 C 461.148438 508.582031 462.710938 505.859375 462.453125 501.71875 C 461.707031 488.335938 448.351562 476.367188 444.742188 473.386719 C 444.929688 472.675781 445.191406 471.820312 445.488281 470.738281 C 451.292969 476.144531 472.609375 497.507812 464.164062 511.078125 C 460.292969 517.304688 465.914062 522.300781 470.449219 526.289062 C 473.726562 529.199219 477.109375 532.21875 477.035156 535.164062 C 476.960938 537.027344 475.511719 539.113281 472.683594 541.277344 C 463.792969 548.210938 468.40625 555.558594 472.125 561.484375 C 474.28125 564.914062 476.328125 568.160156 475.695312 570.878906 C 475.546875 570.917969 475.398438 570.953125 475.214844 571.027344 C 475.101562 571.066406 474.953125 571.105469 474.839844 571.140625 C 474.730469 571.179688 474.617188 571.214844 474.507812 571.253906 L 469.1875 561.859375 C 468.703125 561 467.625 560.703125 466.769531 561.1875 C 465.914062 561.671875 465.613281 562.753906 466.097656 563.609375 L 471.15625 572.558594 C 470.265625 572.96875 469.371094 573.414062 468.441406 573.9375 C 467.4375 574.496094 466.507812 575.09375 465.613281 575.726562 C 464.199219 568.160156 460.703125 562.378906 457.839844 557.644531 C 453.484375 550.449219 451.738281 547.054688 456.164062 542.730469 C 464.683594 534.378906 460.40625 529.273438 455.867188 523.902344 C 454.789062 522.636719 453.933594 521.480469 453.335938 520.4375 C 452.816406 519.578125 451.738281 519.316406 450.917969 519.839844 C 450.101562 520.363281 449.804688 521.441406 450.324219 522.261719 C 451.03125 523.457031 452 524.761719 453.1875 526.179688 C 457.652344 531.472656 459.886719 534.117188 453.746094 540.160156 C 447.125 546.644531 450.734375 552.574219 454.898438 559.472656 C 457.988281 564.617188 461.484375 570.433594 462.488281 578.300781 C 461.855469 578.894531 461.261719 579.53125 460.703125 580.125 L 456.722656 579.863281 C 457.132812 573.714844 452.445312 565.734375 448.910156 559.730469 C 448.539062 559.0625 448.128906 558.425781 447.792969 557.832031 C 442.585938 548.847656 445.597656 544.296875 445.785156 544.035156 C 446.34375 543.253906 446.195312 542.136719 445.414062 541.574219 C 444.632812 540.980469 443.515625 541.128906 442.921875 541.910156 C 442.847656 541.984375 442.363281 542.65625 441.953125 543.886719 C 443.179688 536.246094 443.179688 529.273438 442.996094 525.207031 C 443.144531 525.097656 443.328125 524.984375 443.441406 524.835938 C 449.355469 517.828125 451.03125 512.53125 448.539062 508.617188 C 447.234375 506.566406 445.191406 505.1875 443.441406 504.515625 L 443.476562 503.472656 C 443.589844 503.25 443.628906 502.988281 443.628906 502.726562 C 443.628906 502.355469 443.476562 502.019531 443.292969 501.71875 C 442.996094 501.199219 442.472656 500.863281 441.839844 500.824219 C 441.582031 500.824219 441.320312 500.863281 441.058594 500.976562 C 436.148438 500.898438 430.792969 498.515625 425.84375 495.382812 C 425.65625 495.195312 425.472656 495.082031 425.210938 494.972656 C 415.800781 488.820312 408.023438 480.171875 407.875 480.058594 C 407.539062 479.6875 407.09375 479.5 406.609375 479.460938 C 406.125 479.460938 405.640625 479.613281 405.308594 479.945312 C 399.167969 485.875 381.238281 501.050781 371.710938 499.96875 C 371.191406 499.894531 370.707031 500.078125 370.300781 500.414062 C 369.925781 500.75 369.703125 501.273438 369.742188 501.757812 L 369.777344 503.324219 C 367.992188 503.957031 365.871094 505.375 364.496094 507.5 C 360.960938 513.015625 367.769531 522.226562 370.113281 525.097656 C 370.039062 529.011719 370.148438 535.722656 371.378906 543.179688 C 370.820312 541.761719 370.226562 540.980469 370.148438 540.90625 C 369.554688 540.121094 368.4375 540.011719 367.695312 540.605469 C 366.914062 541.203125 366.765625 542.320312 367.359375 543.105469 C 367.507812 543.328125 371.378906 548.660156 365.722656 557.71875 C 361.109375 565.136719 356.3125 573.488281 356.757812 579.789062 L 352.738281 580.089844 C 352.21875 579.453125 351.621094 578.859375 350.992188 578.261719 C 351.996094 570.359375 355.492188 564.542969 358.617188 559.398438 C 362.785156 552.535156 366.355469 546.570312 359.769531 540.085938 C 353.59375 534.042969 355.828125 531.359375 360.292969 526.101562 C 361.445312 524.722656 362.410156 523.417969 363.117188 522.261719 C 363.640625 521.441406 363.378906 520.324219 362.523438 519.800781 C 361.703125 519.28125 360.589844 519.542969 360.066406 520.398438 C 359.4375 521.441406 358.578125 522.5625 357.539062 523.828125 C 353 529.199219 348.683594 534.304688 357.242188 542.65625 C 361.667969 546.980469 359.917969 550.375 355.566406 557.570312 C 352.703125 562.304688 349.203125 568.121094 347.789062 575.691406 C 346.898438 575.054688 345.96875 574.460938 344.925781 573.863281 C 343.996094 573.339844 343.101562 572.855469 342.171875 572.445312 L 346.488281 563.722656 C 346.933594 562.828125 346.5625 561.78125 345.671875 561.335938 C 344.777344 560.886719 343.734375 561.261719 343.289062 562.15625 L 338.824219 571.179688 C 338.714844 571.140625 338.601562 571.105469 338.488281 571.066406 C 338.414062 571.027344 338.378906 571.027344 338.304688 570.992188 C 337.523438 570.769531 336.777344 570.582031 336.035156 570.433594 C 335.4375 567.75 337.523438 564.542969 339.71875 561.1875 C 343.402344 555.742188 348.347656 548.210938 339.421875 541.316406 Z M 406.015625 421.675781 L 404.230469 419.960938 L 406.164062 416.195312 L 408.285156 419.472656 Z M 406.015625 426.519531 C 420.152344 438.453125 443.21875 439.644531 451.773438 439.644531 C 451.886719 439.644531 451.960938 439.644531 452.074219 439.644531 C 450.957031 442.066406 449.839844 445.085938 448.6875 448.292969 C 443.8125 445.460938 428.746094 437.964844 406.015625 437.964844 C 382.949219 437.964844 367.359375 446.691406 362.523438 449.824219 L 358.878906 439.867188 C 385.21875 442.105469 401.550781 430.285156 406.015625 426.519531 Z M 370.449219 471.558594 L 366.019531 459.480469 C 368.585938 457.578125 382.539062 447.996094 405.566406 447.996094 C 427.777344 447.996094 442.027344 456.273438 445.375 458.433594 C 443.703125 463.839844 442.324219 468.800781 441.542969 471.632812 C 436.671875 468.539062 423.910156 461.640625 406.421875 461.640625 C 388.304688 461.605469 374.949219 468.761719 370.449219 471.558594 Z M 363.75 453.253906 C 367.210938 450.976562 382.800781 441.507812 406.015625 441.507812 C 428.820312 441.507812 443.851562 449.523438 447.535156 451.722656 C 447.199219 452.769531 446.828125 453.8125 446.492188 454.894531 C 441.691406 451.949219 427.445312 444.417969 405.566406 444.417969 C 383.171875 444.417969 369.070312 452.917969 364.753906 456.011719 Z M 480.199219 578.074219 C 480.273438 578.074219 480.382812 578.113281 480.457031 578.113281 C 481.3125 578.113281 482.058594 577.480469 482.207031 576.621094 C 482.394531 575.464844 482.652344 574.496094 482.878906 573.824219 C 483.621094 573.898438 484.328125 574.050781 485.035156 574.234375 C 484.625 574.832031 484.179688 575.578125 483.695312 576.507812 C 483.25 577.367188 483.582031 578.449219 484.441406 578.894531 C 484.699219 579.042969 484.960938 579.082031 485.257812 579.082031 C 485.890625 579.082031 486.523438 578.746094 486.820312 578.113281 C 487.414062 576.996094 487.972656 576.136719 488.382812 575.613281 C 489.054688 575.988281 489.683594 576.433594 490.28125 576.84375 C 489.609375 577.40625 488.867188 578.148438 488.121094 579.15625 C 487.527344 579.941406 487.675781 581.058594 488.421875 581.65625 C 488.753906 581.914062 489.128906 582.027344 489.5 582.027344 C 490.019531 582.027344 490.539062 581.804688 490.914062 581.355469 C 491.65625 580.386719 492.363281 579.753906 492.921875 579.304688 C 493.367188 579.789062 493.742188 580.273438 494.074219 580.683594 C 493.21875 581.171875 492.289062 581.914062 491.433594 582.960938 C 490.800781 583.707031 490.914062 584.824219 491.695312 585.457031 C 492.027344 585.71875 492.4375 585.867188 492.808594 585.867188 C 493.332031 585.867188 493.816406 585.644531 494.1875 585.234375 C 495.042969 584.191406 496.046875 583.628906 496.679688 583.371094 C 501.925781 583.890625 503.265625 588.699219 504.417969 594.925781 C 504.789062 596.941406 505.125 598.691406 505.757812 599.921875 C 506.390625 601.152344 506.09375 603.613281 505.792969 606 C 505.347656 609.652344 504.863281 613.753906 506.800781 617.148438 C 508.210938 619.609375 509.105469 622.292969 509.253906 624.53125 C 509.328125 625.648438 509.253906 627.027344 508.585938 627.996094 C 508.472656 628.109375 508.363281 628.222656 508.285156 628.371094 C 508.136719 628.554688 507.953125 628.707031 507.730469 628.816406 C 507.429688 629.003906 507.171875 629.003906 506.835938 628.890625 C 504.902344 628.144531 502.519531 623.746094 501.253906 620.019531 C 501.070312 619.460938 500.921875 618.976562 500.808594 618.601562 C 500.027344 615.878906 499.582031 615.621094 495.117188 612.972656 C 494.410156 612.5625 493.628906 612.078125 492.699219 611.519531 C 485.296875 607.007812 487.601562 600.332031 488.496094 598.394531 C 490.167969 594.742188 489.164062 591.160156 488.976562 590.527344 C 487.863281 586.277344 485.667969 583.445312 482.46875 582.101562 C 478.078125 580.238281 473.464844 581.953125 472.164062 582.660156 C 469.261719 584.339844 467.289062 586.277344 466.246094 588.515625 C 464.90625 591.421875 465.167969 594.59375 467.101562 597.949219 C 469.335938 601.824219 471.9375 604.171875 474.914062 604.917969 C 476.144531 605.21875 477.222656 605.21875 478.113281 605.105469 C 477.78125 605.738281 476.960938 606.707031 475.027344 607.828125 C 472.792969 609.09375 470.601562 609.09375 468.332031 607.789062 C 466.359375 606.671875 464.425781 604.582031 462.972656 602.046875 C 462.378906 601.003906 461.707031 599.738281 461.148438 598.320312 L 461.222656 598.320312 C 462.191406 598.132812 462.824219 597.238281 462.636719 596.269531 C 462.453125 595.300781 461.523438 594.667969 460.59375 594.851562 L 460.070312 594.964844 C 459.921875 594.332031 459.8125 593.660156 459.773438 593.027344 L 460.257812 593.0625 C 460.332031 593.0625 460.40625 593.0625 460.441406 593.0625 C 461.335938 593.0625 462.117188 592.390625 462.191406 591.496094 C 462.304688 590.527344 461.597656 589.632812 460.628906 589.519531 L 459.886719 589.445312 C 460.035156 588.664062 460.21875 587.917969 460.519531 587.171875 L 461.148438 587.621094 C 461.449219 587.84375 461.820312 587.917969 462.15625 587.917969 C 462.710938 587.917969 463.269531 587.65625 463.605469 587.136719 C 464.164062 586.316406 463.941406 585.234375 463.160156 584.675781 L 462.191406 584.003906 C 462.527344 583.519531 462.9375 582.996094 463.34375 582.550781 L 463.867188 583.257812 C 464.199219 583.707031 464.757812 583.964844 465.28125 583.964844 C 465.652344 583.964844 466.023438 583.855469 466.359375 583.59375 C 467.140625 582.996094 467.289062 581.878906 466.695312 581.09375 L 465.914062 580.050781 C 466.65625 579.417969 467.511719 578.820312 468.367188 578.261719 C 468.554688 578.710938 468.738281 579.195312 468.886719 579.640625 C 469.148438 580.351562 469.820312 580.761719 470.527344 580.761719 C 470.75 580.761719 470.972656 580.722656 471.195312 580.648438 C 472.089844 580.273438 472.535156 579.269531 472.199219 578.335938 C 471.976562 577.738281 471.714844 577.070312 471.492188 576.472656 C 472.199219 576.097656 472.90625 575.765625 473.574219 575.503906 C 473.613281 576.0625 473.652344 576.695312 473.726562 577.367188 C 473.835938 578.261719 474.617188 578.933594 475.472656 578.933594 C 475.546875 578.933594 475.621094 578.933594 475.695312 578.933594 C 476.664062 578.820312 477.371094 577.925781 477.222656 576.957031 C 477.074219 575.839844 477.074219 574.980469 477.109375 574.382812 C 477.78125 574.234375 478.488281 574.085938 479.121094 574.011719 C 478.933594 574.644531 478.785156 575.390625 478.636719 576.25 C 478.5625 576.996094 479.230469 577.925781 480.199219 578.074219 Z M 471.9375 614.835938 L 469.222656 611.890625 C 471.789062 612.597656 474.355469 612.226562 476.851562 610.808594 C 479.75 609.132812 481.425781 607.269531 481.871094 605.179688 C 482.320312 603.128906 481.351562 601.75 481.238281 601.601562 C 480.683594 600.855469 479.675781 600.667969 478.894531 601.152344 C 478.894531 601.152344 477.632812 601.863281 475.882812 601.414062 C 473.910156 600.929688 471.976562 599.066406 470.265625 596.121094 C 468.925781 593.808594 468.703125 591.796875 469.558594 589.96875 C 470.265625 588.441406 471.789062 586.984375 474.023438 585.679688 C 474.582031 585.34375 478.078125 584.003906 481.164062 585.308594 C 483.324219 586.203125 484.8125 588.253906 485.628906 591.421875 C 485.628906 591.460938 485.667969 591.535156 485.667969 591.570312 C 485.667969 591.609375 486.523438 594.257812 485.332031 596.867188 C 482.878906 602.273438 483.027344 609.730469 490.914062 614.5 C 491.84375 615.058594 492.660156 615.542969 493.332031 615.953125 C 497.015625 618.191406 497.015625 618.191406 497.421875 619.535156 C 497.535156 619.945312 497.683594 620.464844 497.90625 621.101562 C 498.429688 622.664062 501.253906 630.53125 505.570312 632.171875 C 506.128906 632.398438 506.6875 632.472656 507.246094 632.472656 C 507.804688 632.472656 508.363281 632.359375 508.882812 632.136719 C 509.21875 634.445312 508.992188 637.914062 508.585938 640.824219 C 504.15625 639.292969 491.507812 633.628906 471.9375 614.835938 Z M 436.484375 608.386719 C 436.671875 608.421875 438.789062 608.871094 441.804688 608.871094 C 444.371094 608.871094 447.535156 608.535156 450.621094 607.304688 C 459.476562 619.496094 481.128906 640.636719 500.214844 649.136719 C 481.910156 646.5625 454.566406 638.363281 452.816406 637.726562 C 452.035156 637.390625 451.105469 637.652344 450.621094 638.363281 C 450.0625 639.183594 450.285156 640.300781 451.105469 640.824219 C 452.148438 641.53125 484.289062 650.890625 502.484375 652.976562 C 502.371094 654.019531 502.261719 655.140625 502.148438 656.296875 C 447.535156 648.09375 414.273438 630.273438 396.007812 616.738281 C 377.628906 603.128906 370.300781 591.011719 369.21875 589.1875 C 369.070312 587.210938 368.660156 585.53125 368.179688 584.152344 C 367.582031 579.269531 370.1875 577.851562 372.457031 576.621094 C 373.722656 575.949219 374.914062 575.316406 375.359375 574.050781 C 376.363281 571.140625 379.003906 569.984375 380.605469 569.648438 C 379.675781 572.558594 377.738281 575.613281 375.097656 578.1875 C 374.390625 578.859375 374.390625 580.015625 375.0625 580.683594 C 375.171875 580.796875 375.320312 580.871094 375.46875 580.945312 C 376.402344 582.175781 382.800781 590.378906 391.578125 597.277344 C 391.652344 597.386719 391.765625 597.5 391.839844 597.574219 C 416.953125 619.234375 433.695312 623.636719 443.105469 623.636719 C 449.207031 623.636719 452.296875 621.808594 452.59375 621.585938 C 453.410156 621.0625 453.671875 619.945312 453.152344 619.125 C 452.628906 618.304688 451.515625 618.042969 450.695312 618.566406 C 450.546875 618.640625 437.824219 626.246094 408.953125 606.335938 C 410.886719 606.785156 412.824219 607.042969 414.792969 607.042969 C 429.191406 607.042969 434.585938 600.484375 436.597656 594.964844 C 439.386719 587.285156 436.820312 577.738281 434.847656 575.988281 C 434.25 575.203125 433.730469 574.382812 433.285156 573.527344 C 434.882812 573.789062 437.226562 575.054688 439.089844 579.828125 C 439.757812 581.542969 440.054688 583.890625 439.980469 585.085938 C 439.90625 586.054688 440.652344 586.910156 441.617188 586.984375 C 441.65625 586.984375 441.691406 586.984375 441.765625 586.984375 C 442.25 586.984375 442.695312 586.761719 442.996094 586.464844 C 443.476562 586.6875 444 586.875 444.519531 587.0625 C 443.8125 591.085938 444.183594 596.640625 448.054688 603.351562 C 448.203125 603.613281 448.390625 603.875 448.539062 604.136719 C 443.070312 606 437.300781 604.769531 437.226562 604.769531 C 436.261719 604.546875 435.332031 605.179688 435.109375 606.113281 C 434.921875 607.230469 435.515625 608.199219 436.484375 608.386719 Z M 304.894531 640.859375 C 304.484375 637.953125 304.261719 634.484375 304.597656 632.171875 C 305.117188 632.398438 305.675781 632.507812 306.234375 632.507812 C 306.792969 632.507812 307.351562 632.398438 307.910156 632.210938 C 312.222656 630.570312 315.050781 622.703125 315.574219 621.136719 C 315.796875 620.503906 315.945312 619.980469 316.054688 619.570312 C 316.464844 618.191406 316.464844 618.191406 320.148438 615.992188 C 320.855469 615.582031 321.636719 615.097656 322.566406 614.539062 C 330.453125 609.765625 330.601562 602.273438 328.148438 596.902344 C 326.957031 594.292969 327.8125 591.683594 327.8125 591.609375 C 327.8125 591.570312 327.851562 591.535156 327.851562 591.460938 C 328.667969 588.328125 330.15625 586.242188 332.3125 585.34375 C 335.402344 584.039062 338.898438 585.382812 339.457031 585.71875 C 341.691406 587.023438 343.214844 588.441406 343.921875 590.007812 C 344.777344 591.832031 344.554688 593.847656 343.214844 596.15625 C 341.390625 599.328125 339.308594 601.191406 337.1875 601.5625 C 335.664062 601.789062 334.621094 601.226562 334.582031 601.191406 C 333.800781 600.707031 332.761719 600.894531 332.238281 601.636719 C 332.128906 601.789062 331.160156 603.203125 331.605469 605.21875 C 332.054688 607.304688 333.726562 609.167969 336.628906 610.847656 C 339.308594 612.375 341.875 612.597656 344.21875 611.964844 L 341.613281 614.800781 C 321.933594 633.628906 309.324219 639.292969 304.894531 640.859375 Z M 307.609375 605.964844 C 307.3125 603.578125 307.015625 601.117188 307.648438 599.886719 C 308.28125 598.65625 308.617188 596.902344 308.988281 594.890625 C 310.140625 588.664062 311.480469 583.855469 316.726562 583.332031 C 317.394531 583.59375 318.363281 584.117188 319.21875 585.195312 C 319.554688 585.605469 320.074219 585.832031 320.59375 585.832031 C 321.003906 585.832031 321.375 585.679688 321.710938 585.421875 C 322.457031 584.785156 322.566406 583.667969 321.933594 582.921875 C 321.078125 581.878906 320.148438 581.171875 319.292969 580.648438 C 319.589844 580.238281 320 579.753906 320.445312 579.269531 C 321.003906 579.714844 321.710938 580.351562 322.457031 581.320312 C 322.789062 581.765625 323.3125 581.988281 323.867188 581.988281 C 324.242188 581.988281 324.648438 581.878906 324.949219 581.617188 C 325.730469 581.019531 325.839844 579.902344 325.246094 579.121094 C 324.464844 578.148438 323.71875 577.40625 323.085938 576.808594 C 323.683594 576.359375 324.316406 575.949219 324.984375 575.578125 C 325.394531 576.136719 325.953125 576.957031 326.546875 578.074219 C 326.84375 578.671875 327.476562 579.042969 328.109375 579.042969 C 328.371094 579.042969 328.667969 578.96875 328.929688 578.859375 C 329.785156 578.410156 330.15625 577.328125 329.671875 576.472656 C 329.1875 575.539062 328.742188 574.792969 328.332031 574.199219 C 329.039062 574.011719 329.746094 573.863281 330.492188 573.789062 C 330.714844 574.460938 331.011719 575.429688 331.199219 576.585938 C 331.347656 577.480469 332.089844 578.074219 332.945312 578.074219 C 333.019531 578.074219 333.132812 578.074219 333.207031 578.039062 C 334.175781 577.890625 334.84375 576.996094 334.695312 576.023438 C 334.582031 575.167969 334.398438 574.460938 334.210938 573.789062 C 334.882812 573.863281 335.550781 573.972656 336.21875 574.125 C 336.257812 574.71875 336.21875 575.613281 336.109375 576.734375 C 335.996094 577.703125 336.667969 578.597656 337.632812 578.710938 C 337.707031 578.710938 337.785156 578.710938 337.859375 578.710938 C 338.75 578.710938 339.496094 578.039062 339.605469 577.144531 C 339.679688 576.433594 339.753906 575.800781 339.753906 575.242188 C 340.460938 575.539062 341.167969 575.839844 341.875 576.210938 C 341.652344 576.808594 341.390625 577.515625 341.167969 578.074219 C 340.796875 578.96875 341.242188 580.015625 342.171875 580.386719 C 342.394531 580.460938 342.621094 580.5 342.84375 580.5 C 343.550781 580.5 344.21875 580.089844 344.480469 579.378906 C 344.664062 578.933594 344.816406 578.484375 345 578 C 345.894531 578.597656 346.710938 579.195312 347.457031 579.789062 L 346.675781 580.835938 C 346.078125 581.617188 346.226562 582.734375 347.007812 583.332031 C 347.34375 583.59375 347.714844 583.707031 348.089844 583.707031 C 348.609375 583.707031 349.167969 583.445312 349.503906 582.996094 L 350.023438 582.289062 C 350.433594 582.773438 350.804688 583.257812 351.175781 583.742188 L 350.210938 584.414062 C 349.390625 584.972656 349.203125 586.089844 349.761719 586.875 C 350.097656 587.359375 350.65625 587.65625 351.214844 587.65625 C 351.546875 587.65625 351.921875 587.546875 352.21875 587.359375 L 352.851562 586.910156 C 352.960938 587.210938 353.035156 587.507812 353.148438 587.769531 L 353.109375 589.222656 L 352.703125 589.261719 C 351.734375 589.371094 351.027344 590.265625 351.140625 591.234375 C 351.25 592.132812 351.996094 592.800781 352.886719 592.800781 C 352.925781 592.800781 352.960938 592.800781 353 592.800781 L 352.960938 594.628906 L 352.738281 594.59375 C 351.773438 594.40625 350.839844 595.078125 350.691406 596.007812 C 350.507812 596.976562 351.175781 597.910156 352.105469 598.058594 L 352.179688 598.058594 C 351.585938 599.476562 350.953125 600.742188 350.359375 601.789062 C 349.429688 603.390625 344.554688 611.144531 338.304688 607.566406 C 336.371094 606.449219 335.550781 605.515625 335.214844 604.84375 C 336.109375 604.992188 337.1875 604.992188 338.414062 604.65625 C 341.390625 603.914062 344.035156 601.5625 346.226562 597.6875 C 348.164062 594.332031 348.421875 591.160156 347.085938 588.253906 C 346.042969 586.015625 344.070312 584.078125 341.167969 582.398438 C 339.902344 581.65625 335.253906 579.976562 330.863281 581.839844 C 327.664062 583.183594 325.46875 586.015625 324.351562 590.265625 C 324.167969 590.863281 323.164062 594.441406 324.835938 598.132812 C 325.730469 600.074219 328.035156 606.746094 320.632812 611.257812 C 319.703125 611.816406 318.921875 612.300781 318.214844 612.710938 C 313.785156 615.359375 313.304688 615.65625 312.523438 618.339844 C 312.410156 618.714844 312.261719 619.199219 312.074219 619.757812 C 310.8125 623.523438 308.429688 627.921875 306.496094 628.632812 C 306.160156 628.78125 305.898438 628.742188 305.601562 628.554688 C 305.378906 628.445312 305.191406 628.257812 305.007812 628.070312 C 304.933594 627.960938 304.820312 627.8125 304.710938 627.699219 C 303.183594 625.460938 304.300781 620.652344 306.457031 616.8125 C 308.542969 613.71875 308.058594 609.578125 307.609375 605.964844 Z M 356.570312 584.191406 L 356.71875 584.226562 L 356.71875 584.75 Z M 360.328125 579.605469 C 359.917969 573.898438 365.613281 564.726562 368.773438 559.65625 C 371.636719 555.070312 372.417969 551.15625 372.382812 548.101562 C 373.796875 554.328125 376.101562 560.777344 379.710938 566.257812 C 377.03125 566.851562 373.535156 568.679688 372.046875 572.78125 C 371.824219 572.96875 371.230469 573.304688 370.78125 573.527344 C 370.484375 573.675781 370.1875 573.863281 369.851562 574.050781 C 370.261719 571.253906 372.605469 567.339844 374.355469 565.0625 C 374.949219 564.28125 374.800781 563.164062 374.019531 562.566406 C 373.238281 561.96875 372.121094 562.117188 371.527344 562.902344 C 370.855469 563.796875 364.980469 571.589844 366.503906 576.769531 C 365.910156 577.515625 365.386719 578.375 365.054688 579.417969 C 364.832031 579.34375 364.605469 579.304688 364.382812 579.34375 Z M 386.632812 498.8125 C 386.667969 498.8125 386.667969 498.8125 386.707031 498.8125 C 388.15625 498.515625 392.433594 497.84375 394.851562 498.253906 C 396.566406 498.550781 399.726562 499.222656 399.765625 499.222656 C 399.875 499.257812 400.023438 499.257812 400.136719 499.257812 C 400.507812 499.257812 400.878906 499.148438 401.179688 498.925781 C 401.585938 498.625 401.847656 498.179688 401.921875 497.695312 L 402.332031 494.152344 C 402.441406 493.257812 401.847656 492.398438 400.953125 492.214844 C 400.65625 492.136719 399.132812 491.804688 397.308594 491.578125 C 401.402344 488.410156 404.75 485.425781 406.5 483.789062 C 408.097656 485.464844 411.074219 488.449219 414.867188 491.691406 C 413.34375 491.953125 412.226562 492.25 412.152344 492.25 C 411.296875 492.472656 410.777344 493.292969 410.886719 494.1875 L 411.296875 497.730469 C 411.371094 498.214844 411.632812 498.664062 412.042969 498.960938 C 412.339844 499.183594 412.710938 499.296875 413.082031 499.296875 C 413.195312 499.296875 413.34375 499.296875 413.457031 499.257812 C 413.492188 499.257812 416.65625 498.589844 418.367188 498.289062 C 420.597656 497.917969 422.90625 498.179688 423.835938 498.328125 C 428.96875 501.570312 434.585938 504.144531 439.945312 504.515625 L 439.535156 514.882812 C 434.328125 522.039062 427.480469 529.792969 425.25 530.539062 C 422.832031 530.019531 412.488281 528.003906 406.648438 531.023438 C 400.992188 527.632812 390.425781 529.90625 387.933594 530.503906 C 385.703125 529.757812 378.929688 522.039062 373.722656 514.917969 L 373.425781 503.546875 C 377.40625 503.398438 382.054688 501.460938 386.632812 498.8125 Z M 415.984375 495.082031 C 415.5 495.195312 415.019531 495.269531 414.570312 495.382812 L 414.570312 495.34375 C 414.980469 495.234375 415.464844 495.160156 415.984375 495.082031 Z M 439.199219 521.890625 C 439.238281 522.1875 441.953125 551.417969 428.820312 567.152344 C 423.386719 573.675781 415.875 576.996094 406.535156 577.03125 C 398.089844 576.996094 391.171875 574.085938 385.925781 568.382812 C 374.28125 555.816406 373.609375 532.890625 373.757812 524.761719 C 373.757812 524.613281 373.796875 524.5 373.757812 524.351562 C 373.796875 522.785156 373.871094 521.851562 373.871094 521.816406 C 373.871094 521.742188 373.871094 521.703125 373.871094 521.628906 L 373.871094 520.996094 C 378 526.253906 384.398438 533.707031 387.785156 534.082031 C 388.007812 534.117188 388.195312 534.082031 388.417969 534.042969 C 391.914062 533.148438 401.734375 531.433594 405.382812 534.453125 C 405.605469 534.640625 405.902344 534.753906 406.199219 534.789062 C 406.238281 534.789062 406.238281 534.789062 406.273438 534.789062 C 406.347656 534.789062 406.421875 534.828125 406.5 534.828125 C 406.535156 534.828125 406.535156 534.828125 406.574219 534.828125 L 406.609375 534.828125 C 406.683594 534.828125 406.796875 534.789062 406.871094 534.789062 C 407.128906 534.753906 407.390625 534.679688 407.613281 534.492188 C 411.484375 531.734375 421.304688 533.222656 424.765625 534.007812 C 424.949219 534.042969 425.136719 534.042969 425.359375 534.042969 C 428.746094 533.671875 435.109375 526.289062 439.238281 520.996094 L 439.199219 521.554688 C 439.199219 521.742188 439.199219 521.816406 439.199219 521.890625 Z M 378.78125 579.492188 C 381.050781 576.957031 382.761719 574.125 383.765625 571.328125 C 389.570312 577.367188 397.121094 580.460938 406.164062 580.609375 C 406.199219 580.609375 406.238281 580.609375 406.273438 580.609375 C 406.347656 580.609375 406.421875 580.609375 406.5 580.609375 C 406.574219 580.609375 406.648438 580.609375 406.722656 580.609375 C 406.757812 580.609375 406.796875 580.609375 406.832031 580.609375 C 415.722656 580.5 423.128906 577.664062 428.894531 572.222656 C 429.488281 574.460938 430.644531 576.660156 432.316406 578.746094 C 432.390625 578.820312 432.464844 578.894531 432.539062 578.96875 C 433.582031 580.722656 435.777344 588.8125 432.6875 595.1875 C 430.011719 600.78125 423.984375 603.613281 414.757812 603.613281 C 398.871094 603.613281 382.09375 583.628906 378.78125 579.492188 Z M 443.292969 508.394531 C 444.074219 508.878906 444.929688 509.585938 445.523438 510.519531 C 446.753906 512.457031 445.820312 515.664062 442.808594 519.839844 Z M 370.226562 519.207031 C 367.769531 515.328125 366.28125 511.375 367.507812 509.476562 C 368.179688 508.46875 369.109375 507.722656 369.925781 507.238281 Z M 447.570312 579.941406 C 447.460938 580.089844 446.34375 581.429688 445.449219 583.78125 C 444.816406 583.554688 444.183594 583.257812 443.589844 582.996094 C 443.664062 582.921875 443.738281 582.808594 443.777344 582.699219 L 445.898438 578.226562 C 445.933594 578.148438 445.972656 578.039062 446.007812 577.964844 C 447.941406 571.363281 441.46875 563.609375 441.171875 563.3125 C 440.539062 562.566406 439.421875 562.492188 438.679688 563.125 C 437.933594 563.757812 437.859375 564.878906 438.492188 565.625 C 440.019531 567.414062 443.703125 572.894531 442.660156 576.84375 L 442.101562 578 C 439.089844 570.917969 434.585938 570.023438 432.09375 570.171875 C 432.019531 569.722656 431.984375 569.3125 431.984375 568.902344 C 436.855469 562.789062 439.644531 555.148438 441.210938 547.765625 C 441.097656 550.671875 441.804688 554.660156 444.707031 559.621094 C 445.039062 560.21875 445.449219 560.886719 445.820312 561.558594 C 448.910156 566.851562 453.484375 574.644531 453.152344 579.640625 L 449.058594 579.34375 C 448.539062 579.269531 447.941406 579.492188 447.570312 579.941406 Z M 458.097656 583.816406 L 458.097656 583.519531 L 458.25 583.519531 C 458.210938 583.628906 458.136719 583.707031 458.097656 583.816406 Z M 304.785156 644.625 C 308.46875 643.582031 321.933594 638.546875 344.109375 617.261719 L 357.09375 603.167969 C 363.042969 596.457031 361.964844 587.097656 361.109375 583.109375 L 363.601562 582.921875 C 364.90625 585.046875 368.03125 591.832031 362.300781 601.710938 C 354.972656 614.351562 324.167969 644.550781 303.148438 648.800781 Z M 422.792969 682.242188 C 427.371094 683.808594 432.019531 685.226562 436.78125 686.457031 L 421.34375 686.457031 Z M 451.105469 601.710938 C 445.339844 591.757812 448.464844 585.011719 449.804688 582.921875 L 452.296875 583.109375 C 451.476562 587.097656 450.359375 596.457031 456.351562 603.203125 L 469.410156 617.371094 C 491.507812 638.585938 505.011719 643.617188 508.660156 644.664062 L 510.257812 648.875 C 489.238281 644.589844 458.433594 614.351562 451.105469 601.710938 Z M 299.539062 336 C 299.539062 335.773438 299.613281 335.625 299.761719 335.476562 C 299.910156 335.328125 300.097656 335.253906 300.28125 335.253906 L 512.824219 335.253906 C 513.050781 335.253906 513.199219 335.328125 513.347656 335.476562 C 513.496094 335.625 513.570312 335.8125 513.570312 336 L 513.570312 554.175781 C 513.347656 553.953125 513.160156 553.691406 513.011719 553.507812 C 512.34375 552.613281 511.410156 552.164062 510.332031 552.203125 C 507.878906 552.3125 505.199219 555.445312 503.449219 557.90625 C 501.253906 555.519531 499.542969 553.394531 499.210938 552.460938 C 498.203125 549.667969 496.121094 544.855469 493.441406 544.148438 C 492.511719 543.886719 491.582031 544.109375 490.839844 544.78125 C 489.609375 545.863281 488.902344 546.871094 488.085938 548.0625 C 487.527344 548.882812 486.894531 549.816406 485.964844 550.933594 C 484.476562 552.761719 482.578125 555.070312 481.425781 556.527344 C 478.078125 552.125 476.179688 550.523438 474.542969 550.410156 C 473.761719 550.335938 473.09375 550.636719 472.570312 551.15625 L 471.382812 552.425781 C 470.5625 549.441406 471.269531 546.871094 474.804688 544.148438 C 478.5625 541.238281 480.421875 538.332031 480.53125 535.3125 C 480.683594 530.6875 476.664062 527.109375 472.757812 523.644531 C 467.398438 518.871094 465.09375 516.261719 467.140625 512.980469 C 478.152344 495.34375 449.355469 469.394531 446.566406 466.933594 C 448.984375 458.507812 452.964844 445.683594 456.128906 439.421875 L 460.851562 438.265625 C 461.558594 438.078125 462.082031 437.519531 462.191406 436.8125 L 463.382812 429.429688 C 463.492188 428.796875 463.234375 428.125 462.710938 427.714844 C 462.191406 427.304688 461.484375 427.230469 460.890625 427.527344 L 454.34375 430.660156 C 453.785156 430.921875 453.410156 431.441406 453.335938 432.039062 L 452.816406 436.101562 C 445.746094 436.140625 422.421875 435.394531 408.691406 424.097656 L 411.855469 421.039062 C 412.449219 420.445312 412.5625 419.511719 412.117188 418.804688 L 407.503906 411.683594 C 407.167969 411.160156 406.574219 410.824219 405.941406 410.863281 C 405.308594 410.898438 404.75 411.273438 404.453125 411.832031 L 400.472656 419.511719 C 400.097656 420.21875 400.246094 421.078125 400.804688 421.597656 L 403.371094 424.097656 C 398.761719 427.789062 382.875 438.636719 358.097656 436.214844 L 357.539062 432.039062 C 357.464844 431.441406 357.09375 430.921875 356.535156 430.660156 L 349.984375 427.527344 C 349.390625 427.230469 348.683594 427.304688 348.164062 427.714844 C 347.640625 428.125 347.382812 428.757812 347.492188 429.429688 L 348.683594 436.8125 C 348.796875 437.519531 349.316406 438.078125 350.023438 438.265625 L 354.972656 439.457031 L 365.128906 467.234375 C 360.253906 471.109375 333.207031 494.003906 344.964844 512.941406 C 347.007812 516.261719 344.703125 518.871094 339.347656 523.605469 C 335.4375 527.074219 331.421875 530.613281 331.570312 535.273438 C 331.683594 538.292969 333.542969 541.164062 337.300781 544.109375 C 343.328125 548.769531 341.058594 552.945312 336.890625 559.320312 C 336.703125 559.582031 336.519531 559.882812 336.371094 560.140625 C 335.550781 559.65625 333.839844 558.613281 332.425781 557.71875 C 327.179688 554.476562 325.988281 553.765625 325.394531 553.617188 C 324.464844 553.355469 323.535156 553.730469 320.855469 554.921875 C 319.738281 555.445312 317.730469 556.339844 316.800781 556.527344 C 315.347656 555.222656 312.1875 552.203125 310.734375 550.410156 C 310.214844 549.777344 309.953125 548.996094 309.695312 548.285156 C 309.359375 547.355469 308.949219 546.160156 307.648438 545.902344 C 306.347656 545.640625 305.417969 546.644531 305.082031 546.980469 C 304.449219 547.691406 303.742188 548.324219 302.996094 548.957031 C 301.917969 549.925781 300.765625 550.933594 299.648438 552.3125 C 299.613281 552.351562 299.613281 552.386719 299.574219 552.425781 L 299.574219 527.257812 Z M 456.386719 435.691406 L 456.6875 433.457031 L 459.328125 432.1875 L 458.878906 435.058594 Z M 351.957031 435.097656 L 351.511719 432.1875 L 354.152344 433.457031 L 354.449219 435.691406 Z M 299.539062 652.492188 C 299.835938 652.679688 300.132812 652.789062 300.46875 652.789062 C 300.503906 652.789062 300.578125 652.789062 300.617188 652.789062 C 302.664062 652.605469 304.785156 652.195312 306.941406 651.523438 C 308.019531 663.042969 309.433594 675.867188 311.40625 686.457031 L 299.539062 686.457031 Z M 501.777344 686.492188 C 503.859375 675.046875 505.347656 660.171875 506.203125 651.449219 C 508.511719 652.15625 510.742188 652.605469 512.863281 652.789062 C 512.898438 652.789062 512.976562 652.789062 513.011719 652.789062 C 513.234375 652.789062 513.421875 652.753906 513.644531 652.679688 L 513.644531 686.492188 Z M 379.710938 506.605469 C 379.785156 506.378906 382.019531 500.9375 389.757812 500.9375 C 397.457031 500.9375 399.800781 506.34375 399.914062 506.566406 C 400.285156 507.460938 399.875 508.503906 398.945312 508.878906 C 398.722656 508.992188 398.5 509.027344 398.277344 509.027344 C 397.605469 509.027344 396.9375 508.617188 396.640625 507.945312 C 396.601562 507.835938 396.082031 506.789062 394.742188 505.859375 C 394.183594 507.984375 392.285156 509.585938 389.980469 509.585938 C 387.597656 509.585938 385.625 507.910156 385.144531 505.671875 C 383.582031 506.640625 383.023438 507.871094 382.984375 507.945312 C 382.613281 508.839844 381.570312 509.289062 380.679688 508.914062 C 379.824219 508.542969 379.375 507.5 379.710938 506.605469 Z M 413.640625 506.605469 C 413.753906 506.378906 416.058594 500.976562 423.796875 500.976562 C 431.574219 500.976562 433.621094 506.457031 433.695312 506.679688 C 434.027344 507.609375 433.546875 508.617188 432.613281 508.953125 C 432.429688 509.027344 432.207031 509.066406 432.019531 509.066406 C 431.277344 509.066406 430.605469 508.617188 430.34375 507.871094 C 430.308594 507.796875 429.824219 506.640625 428.375 505.710938 C 427.890625 507.945312 425.917969 509.625 423.574219 509.625 C 421.269531 509.625 419.371094 508.019531 418.8125 505.894531 C 417.4375 506.828125 416.953125 507.910156 416.914062 507.984375 C 416.507812 508.878906 415.464844 509.289062 414.570312 508.914062 C 413.679688 508.503906 413.269531 507.5 413.640625 506.605469 Z M 398.351562 523.644531 C 399.09375 522.746094 400.621094 522.449219 401.734375 522.375 C 402.035156 522.335938 402.367188 522.414062 402.628906 522.5625 C 403.820312 523.121094 405.867188 523.941406 406.757812 523.941406 C 407.761719 523.941406 409.699219 523.195312 410.480469 522.824219 C 410.589844 522.785156 410.703125 522.746094 410.8125 522.710938 C 411.484375 522.5625 413.121094 522.261719 414.273438 523.046875 C 414.832031 523.417969 415.203125 524.015625 415.316406 524.722656 C 415.464844 525.691406 414.757812 526.589844 413.789062 526.738281 C 413.15625 526.8125 412.5625 526.550781 412.191406 526.101562 C 412.078125 526.101562 411.929688 526.140625 411.78125 526.140625 C 411.035156 526.476562 408.582031 527.519531 406.722656 527.519531 C 405.011719 527.519531 402.589844 526.511719 401.511719 525.992188 C 401.214844 526.027344 400.953125 526.101562 400.804688 526.140625 C 400.171875 526.699219 399.167969 526.738281 398.5 526.179688 C 397.828125 525.507812 397.71875 524.386719 398.351562 523.644531 Z M 411.445312 547.464844 C 411.074219 547.578125 410.738281 547.691406 410.367188 547.765625 C 410.664062 549.21875 411.074219 550.5625 411.445312 551.007812 C 412.265625 551.269531 412.785156 552.050781 412.675781 552.910156 C 412.5625 553.804688 411.816406 554.476562 410.925781 554.476562 C 410.851562 554.476562 410.777344 554.476562 410.703125 554.476562 C 408.433594 554.214844 407.316406 551.121094 406.796875 548.136719 C 406.535156 548.136719 406.3125 548.136719 406.089844 548.136719 C 405.566406 551.15625 404.488281 554.25 402.183594 554.511719 C 402.109375 554.511719 402.035156 554.511719 401.960938 554.511719 C 401.066406 554.511719 400.324219 553.839844 400.210938 552.945312 C 400.097656 552.089844 400.65625 551.269531 401.4375 551.046875 C 401.808594 550.597656 402.21875 549.179688 402.515625 547.691406 C 402.144531 547.617188 401.921875 547.539062 401.886719 547.539062 C 400.953125 547.28125 400.398438 546.273438 400.65625 545.339844 C 400.917969 544.410156 401.921875 543.851562 402.851562 544.109375 C 402.890625 544.109375 406.871094 545.230469 410.328125 544.109375 C 411.261719 543.8125 412.265625 544.335938 412.5625 545.265625 C 412.898438 546.199219 412.375 547.167969 411.445312 547.464844 Z M 389.941406 538.445312 C 390.277344 537.511719 391.28125 537.027344 392.210938 537.363281 C 397.53125 539.300781 403.894531 537.808594 405.753906 537.324219 C 406.050781 537.140625 406.386719 537.0625 406.722656 537.101562 C 407.09375 537.0625 407.464844 537.175781 407.761719 537.363281 C 409.546875 537.882812 415.351562 539.300781 420.597656 537.398438 C 421.527344 537.0625 422.53125 537.550781 422.867188 538.480469 C 423.203125 539.414062 422.71875 540.417969 421.789062 540.753906 C 419.371094 541.648438 416.878906 541.949219 414.609375 541.949219 C 411 541.949219 407.984375 541.203125 406.683594 540.792969 C 405.308594 541.164062 402.070312 541.949219 398.3125 541.949219 C 395.96875 541.949219 393.402344 541.648438 390.984375 540.753906 C 390.089844 540.382812 389.644531 539.375 389.941406 538.445312 Z M 393.664062 568.417969 C 393.328125 568.941406 392.769531 569.238281 392.175781 569.238281 C 391.839844 569.238281 391.503906 569.164062 391.207031 568.941406 C 379.972656 561.671875 377.515625 539.972656 377.441406 539.078125 C 377.332031 538.109375 378.039062 537.214844 379.003906 537.101562 C 379.972656 536.988281 380.863281 537.699219 380.976562 538.667969 C 381.015625 538.890625 383.359375 559.582031 393.140625 565.921875 C 393.960938 566.480469 394.183594 567.5625 393.664062 568.417969 Z M 405.34375 567.414062 C 405.085938 568.160156 404.414062 568.644531 403.671875 568.644531 C 403.484375 568.644531 403.296875 568.605469 403.113281 568.570312 C 389.609375 564.132812 387.933594 547.28125 387.859375 546.535156 C 387.785156 545.566406 388.492188 544.707031 389.457031 544.59375 C 390.425781 544.519531 391.28125 545.230469 391.394531 546.199219 C 391.394531 546.347656 392.957031 561.449219 404.230469 565.175781 C 405.160156 565.472656 405.640625 566.480469 405.34375 567.414062 Z M 435.628906 539.039062 C 435.515625 539.972656 433.0625 561.632812 421.863281 568.902344 C 421.566406 569.089844 421.230469 569.203125 420.894531 569.203125 C 420.300781 569.203125 419.742188 568.902344 419.40625 568.382812 C 418.886719 567.5625 419.109375 566.441406 419.929688 565.921875 C 429.75 559.546875 432.09375 538.855469 432.09375 538.667969 C 432.207031 537.699219 433.0625 536.988281 434.066406 537.101562 C 435.035156 537.214844 435.738281 538.070312 435.628906 539.039062 Z M 425.210938 546.535156 C 425.136719 547.242188 423.464844 564.09375 409.957031 568.570312 C 409.773438 568.644531 409.585938 568.644531 409.398438 568.644531 C 408.65625 568.644531 407.949219 568.160156 407.726562 567.414062 C 407.429688 566.480469 407.910156 565.472656 408.84375 565.175781 C 420.113281 561.449219 421.640625 546.347656 421.675781 546.199219 C 421.75 545.230469 422.644531 544.519531 423.613281 544.59375 C 424.578125 544.671875 425.324219 545.527344 425.210938 546.535156 Z M 386.519531 458.175781 C 386.519531 460.523438 384.621094 462.425781 382.277344 462.425781 C 379.933594 462.425781 378.039062 460.523438 378.039062 458.175781 C 378.039062 455.824219 379.933594 453.921875 382.277344 453.921875 C 384.621094 453.960938 386.519531 455.863281 386.519531 458.175781 Z M 425.359375 458.175781 C 425.359375 455.824219 427.257812 453.921875 429.601562 453.921875 C 431.945312 453.921875 433.84375 455.824219 433.84375 458.175781 C 433.84375 460.523438 431.945312 462.425781 429.601562 462.425781 C 427.257812 462.425781 425.359375 460.523438 425.359375 458.175781 Z M 405.792969 458.433594 C 403.449219 458.433594 401.550781 456.535156 401.550781 454.183594 C 401.550781 451.835938 403.449219 449.933594 405.792969 449.933594 C 408.136719 449.933594 410.03125 451.835938 410.03125 454.183594 C 410.03125 456.535156 408.136719 458.433594 405.792969 458.433594 Z M 421.9375 625.910156 C 421.640625 626.542969 421.007812 626.917969 420.335938 626.917969 C 420.078125 626.917969 419.816406 626.839844 419.554688 626.730469 C 387.636719 611.109375 372.828125 589.335938 372.195312 588.402344 C 371.636719 587.582031 371.863281 586.5 372.679688 585.941406 C 373.5 585.382812 374.578125 585.605469 375.136719 586.425781 C 375.285156 586.652344 390.089844 608.386719 421.117188 623.5625 C 421.976562 623.933594 422.347656 625.015625 421.9375 625.910156 Z M 374.054688 492.363281 C 374.167969 492.324219 383.691406 489.679688 397.382812 477.410156 C 398.128906 476.742188 399.242188 476.816406 399.875 477.5625 C 400.546875 478.308594 400.472656 479.425781 399.726562 480.058594 C 385.328125 492.996094 375.359375 495.679688 374.949219 495.792969 C 374.800781 495.828125 374.652344 495.867188 374.503906 495.867188 C 373.722656 495.867188 373.015625 495.34375 372.792969 494.523438 C 372.570312 493.59375 373.125 492.625 374.054688 492.363281 Z M 360.21875 500.339844 C 365.5 475.546875 389.535156 471.484375 389.757812 471.445312 C 390.722656 471.296875 391.617188 471.96875 391.765625 472.9375 C 391.914062 473.90625 391.246094 474.800781 390.277344 474.953125 C 389.382812 475.101562 368.4375 478.714844 363.640625 501.085938 C 363.453125 501.90625 362.710938 502.503906 361.890625 502.503906 C 361.78125 502.503906 361.628906 502.503906 361.519531 502.464844 C 360.625 502.242188 360.03125 501.273438 360.21875 500.339844 Z M 343.882812 538.964844 L 343.625 538.78125 C 342.621094 537.960938 341.988281 536.804688 341.875 535.425781 C 341.464844 530.390625 348.015625 522.972656 348.757812 522.113281 C 349.429688 521.367188 350.542969 521.332031 351.25 522.003906 C 351.996094 522.671875 352.03125 523.792969 351.398438 524.5 C 348.980469 527.183594 345.222656 532.480469 345.410156 535.125 C 345.445312 535.648438 345.632812 535.835938 345.820312 535.984375 L 346.078125 536.167969 C 351.621094 540.605469 357.351562 545.191406 349.875 557.867188 C 349.539062 558.425781 348.945312 558.726562 348.347656 558.726562 C 348.050781 558.726562 347.714844 558.652344 347.457031 558.464844 C 346.601562 557.980469 346.339844 556.863281 346.824219 556.042969 C 352.738281 546.085938 349.390625 543.402344 343.882812 538.964844 Z M 364.71875 528.378906 C 365.648438 528.714844 366.132812 529.71875 365.796875 530.652344 C 364.570312 534.195312 366.28125 535.535156 366.316406 535.535156 C 367.136719 536.09375 367.324219 537.214844 366.765625 537.996094 C 366.429688 538.480469 365.871094 538.742188 365.3125 538.742188 C 364.980469 538.742188 364.605469 538.628906 364.308594 538.40625 C 364.160156 538.292969 360.367188 535.535156 362.488281 529.457031 C 362.785156 528.527344 363.789062 528.042969 364.71875 528.378906 Z M 413.753906 480.058594 C 413.007812 479.386719 412.972656 478.269531 413.605469 477.5625 C 414.273438 476.816406 415.390625 476.777344 416.097656 477.410156 C 429.789062 489.679688 439.3125 492.324219 439.421875 492.363281 C 440.351562 492.625 440.949219 493.59375 440.6875 494.523438 C 440.464844 495.308594 439.757812 495.867188 438.976562 495.867188 C 438.828125 495.867188 438.679688 495.828125 438.53125 495.792969 C 438.121094 495.71875 428.152344 492.996094 413.753906 480.058594 Z M 421.714844 472.9375 C 421.863281 471.96875 422.792969 471.296875 423.722656 471.445312 C 423.945312 471.484375 447.980469 475.546875 453.261719 500.339844 C 453.484375 501.308594 452.855469 502.242188 451.886719 502.464844 C 451.773438 502.503906 451.625 502.503906 451.515625 502.503906 C 450.695312 502.503906 449.953125 501.945312 449.765625 501.085938 C 444.964844 478.640625 423.351562 474.988281 423.128906 474.953125 C 422.199219 474.800781 421.566406 473.90625 421.714844 472.9375 Z M 461.707031 525.394531 C 461 524.722656 461 523.566406 461.671875 522.898438 C 462.339844 522.1875 463.492188 522.1875 464.164062 522.859375 C 464.945312 523.644531 471.789062 530.464844 471.566406 535.386719 C 471.492188 536.765625 470.898438 537.960938 469.855469 538.78125 C 469.445312 539.113281 469.074219 539.414062 468.664062 539.710938 C 463.417969 543.851562 460.257812 546.308594 465.800781 555.707031 C 466.285156 556.5625 466.023438 557.644531 465.167969 558.128906 C 464.871094 558.316406 464.574219 558.390625 464.273438 558.390625 C 463.679688 558.390625 463.085938 558.09375 462.75 557.53125 C 455.605469 545.453125 461.148438 541.128906 466.46875 536.914062 C 466.84375 536.617188 467.25 536.320312 467.625 536.019531 C 467.808594 535.871094 467.996094 535.683594 467.996094 535.238281 C 468.144531 532.8125 464.425781 528.042969 461.707031 525.394531 Z M 449.765625 527.742188 C 452.667969 532.851562 450.621094 537.027344 449.132812 538.554688 C 448.796875 538.890625 448.316406 539.078125 447.867188 539.078125 C 447.421875 539.078125 446.976562 538.890625 446.601562 538.554688 C 445.898438 537.882812 445.898438 536.765625 446.566406 536.058594 C 446.828125 535.796875 448.871094 533.375 446.679688 529.496094 C 446.195312 528.636719 446.492188 527.558594 447.347656 527.074219 C 448.203125 526.589844 449.28125 526.886719 449.765625 527.742188 Z M 392.917969 363.289062 C 392.546875 362.917969 392.359375 362.429688 392.359375 361.910156 L 392.359375 347.21875 C 392.359375 346.699219 392.546875 346.214844 392.917969 345.839844 C 393.289062 345.46875 393.773438 345.246094 394.296875 345.246094 C 394.816406 345.246094 395.300781 345.429688 395.671875 345.839844 C 396.042969 346.214844 396.230469 346.699219 396.230469 347.21875 L 396.230469 361.910156 C 396.230469 362.46875 396.042969 362.917969 395.671875 363.289062 C 395.300781 363.660156 394.816406 363.847656 394.296875 363.847656 C 393.773438 363.886719 393.328125 363.660156 392.917969 363.289062 Z M 401.402344 348.113281 C 401.179688 347.628906 401.140625 347.109375 401.289062 346.625 C 401.4375 346.101562 401.773438 345.730469 402.257812 345.503906 C 402.742188 345.28125 403.261719 345.246094 403.746094 345.394531 C 404.265625 345.542969 404.636719 345.878906 404.859375 346.363281 L 410.441406 357.546875 L 416.023438 346.363281 C 416.246094 345.878906 416.65625 345.542969 417.136719 345.394531 C 417.660156 345.246094 418.144531 345.28125 418.625 345.503906 C 419.109375 345.730469 419.445312 346.140625 419.59375 346.625 C 419.78125 347.144531 419.742188 347.628906 419.480469 348.113281 L 412.152344 362.804688 C 412.003906 363.140625 411.742188 363.402344 411.445312 363.585938 C 411.148438 363.773438 410.777344 363.886719 410.40625 363.886719 C 410.03125 363.886719 409.699219 363.773438 409.363281 363.585938 C 409.066406 363.402344 408.804688 363.140625 408.65625 362.804688 Z M 315.648438 448.183594 C 315.648438 447.289062 316.390625 446.542969 317.285156 446.542969 C 319.367188 446.542969 321.078125 444.828125 321.078125 442.738281 C 321.078125 441.84375 321.824219 441.097656 322.714844 441.097656 C 323.609375 441.097656 324.351562 441.84375 324.351562 442.738281 C 324.351562 444.828125 326.0625 446.542969 328.148438 446.542969 C 329.039062 446.542969 329.785156 447.289062 329.785156 448.183594 C 329.785156 449.078125 329.039062 449.824219 328.148438 449.824219 C 326.0625 449.824219 324.351562 451.539062 324.351562 453.625 C 324.351562 454.519531 323.609375 455.265625 322.714844 455.265625 C 321.824219 455.265625 321.078125 454.519531 321.078125 453.625 C 321.078125 451.539062 319.367188 449.824219 317.285156 449.824219 C 316.390625 449.824219 315.648438 449.078125 315.648438 448.183594 Z M 356.386719 392.59375 C 356.386719 391.699219 357.128906 390.953125 358.023438 390.953125 C 360.105469 390.953125 361.816406 389.238281 361.816406 387.148438 C 361.816406 386.253906 362.5625 385.507812 363.453125 385.507812 C 364.347656 385.507812 365.089844 386.253906 365.089844 387.148438 C 365.089844 389.238281 366.800781 390.953125 368.886719 390.953125 C 369.777344 390.953125 370.523438 391.699219 370.523438 392.59375 C 370.523438 393.488281 369.777344 394.234375 368.886719 394.234375 C 366.800781 394.234375 365.089844 395.949219 365.089844 398.035156 C 365.089844 398.929688 364.347656 399.675781 363.453125 399.675781 C 362.5625 399.675781 361.816406 398.929688 361.816406 398.035156 C 361.816406 395.949219 360.105469 394.234375 358.023438 394.234375 C 357.128906 394.234375 356.386719 393.488281 356.386719 392.59375 Z M 442.324219 392.59375 C 442.324219 391.699219 443.070312 390.953125 443.960938 390.953125 C 446.046875 390.953125 447.757812 389.238281 447.757812 387.148438 C 447.757812 386.253906 448.5 385.507812 449.394531 385.507812 C 450.285156 385.507812 451.03125 386.253906 451.03125 387.148438 C 451.03125 389.238281 452.742188 390.953125 454.824219 390.953125 C 455.71875 390.953125 456.460938 391.699219 456.460938 392.59375 C 456.460938 393.488281 455.71875 394.234375 454.824219 394.234375 C 452.742188 394.234375 451.03125 395.949219 451.03125 398.035156 C 451.03125 398.929688 450.285156 399.675781 449.394531 399.675781 C 448.5 399.675781 447.757812 398.929688 447.757812 398.035156 C 447.757812 395.949219 446.046875 394.234375 443.960938 394.234375 C 443.03125 394.234375 442.324219 393.488281 442.324219 392.59375 Z M 483.324219 448.183594 C 483.324219 447.289062 484.066406 446.542969 484.960938 446.542969 C 487.042969 446.542969 488.753906 444.828125 488.753906 442.738281 C 488.753906 441.84375 489.5 441.097656 490.390625 441.097656 C 491.285156 441.097656 492.027344 441.84375 492.027344 442.738281 C 492.027344 444.828125 493.742188 446.542969 495.824219 446.542969 C 496.714844 446.542969 497.460938 447.289062 497.460938 448.183594 C 497.460938 449.078125 496.714844 449.824219 495.824219 449.824219 C 493.742188 449.824219 492.027344 451.539062 492.027344 453.625 C 492.027344 454.519531 491.285156 455.265625 490.390625 455.265625 C 489.5 455.265625 488.753906 454.519531 488.753906 453.625 C 488.753906 451.539062 487.042969 449.824219 484.960938 449.824219 C 484.03125 449.824219 483.324219 449.078125 483.324219 448.183594 Z M 316.128906 699.503906 C 316.503906 699.878906 316.6875 700.363281 316.6875 700.886719 C 316.6875 701.40625 316.503906 701.890625 316.128906 702.265625 C 315.757812 702.636719 315.273438 702.824219 314.753906 702.824219 L 310.585938 702.824219 L 310.585938 715.574219 C 310.585938 716.132812 310.402344 716.582031 310.03125 716.953125 C 309.65625 717.328125 309.171875 717.511719 308.652344 717.511719 C 308.132812 717.511719 307.648438 717.328125 307.277344 716.953125 C 306.902344 716.582031 306.71875 716.097656 306.71875 715.574219 L 306.71875 702.859375 L 302.589844 702.859375 C 302.03125 702.859375 301.585938 702.675781 301.210938 702.300781 C 300.839844 701.929688 300.652344 701.445312 300.652344 700.921875 C 300.652344 700.402344 300.839844 699.914062 301.210938 699.542969 C 301.585938 699.171875 302.066406 698.945312 302.589844 698.945312 L 314.792969 698.945312 C 315.273438 698.910156 315.757812 699.132812 316.128906 699.503906 Z M 335.476562 699.503906 C 335.847656 699.878906 336.035156 700.363281 336.035156 700.886719 L 336.035156 715.574219 C 336.035156 716.132812 335.847656 716.582031 335.476562 716.953125 C 335.105469 717.328125 334.621094 717.511719 334.101562 717.511719 C 333.578125 717.511719 333.09375 717.328125 332.722656 716.953125 C 332.351562 716.582031 332.164062 716.097656 332.164062 715.574219 L 332.164062 710.207031 L 323.832031 710.207031 L 323.832031 715.574219 C 323.832031 716.132812 323.644531 716.582031 323.273438 716.953125 C 322.902344 717.328125 322.417969 717.511719 321.898438 717.511719 C 321.339844 717.511719 320.894531 717.328125 320.519531 716.953125 C 320.148438 716.582031 319.960938 716.097656 319.960938 715.574219 L 319.960938 700.886719 C 319.960938 700.363281 320.148438 699.878906 320.519531 699.503906 C 320.894531 699.132812 321.375 698.910156 321.898438 698.910156 C 322.417969 698.910156 322.902344 699.09375 323.273438 699.503906 C 323.644531 699.878906 323.832031 700.363281 323.832031 700.886719 L 323.832031 706.253906 L 332.164062 706.253906 L 332.164062 700.886719 C 332.164062 700.363281 332.351562 699.878906 332.722656 699.503906 C 333.09375 699.132812 333.578125 698.910156 334.101562 698.910156 C 334.621094 698.910156 335.066406 699.132812 335.476562 699.503906 Z M 344.589844 702.859375 L 344.589844 706.292969 L 352.402344 706.292969 C 352.925781 706.292969 353.410156 706.476562 353.78125 706.851562 C 354.152344 707.222656 354.339844 707.707031 354.339844 708.230469 C 354.339844 708.75 354.152344 709.238281 353.78125 709.609375 C 353.410156 709.980469 352.925781 710.167969 352.402344 710.167969 L 344.589844 710.167969 L 344.589844 713.597656 L 354.859375 713.597656 C 355.378906 713.597656 355.863281 713.785156 356.234375 714.15625 C 356.609375 714.53125 356.792969 715.015625 356.792969 715.539062 C 356.792969 716.097656 356.609375 716.542969 356.234375 716.917969 C 355.863281 717.289062 355.378906 717.476562 354.859375 717.476562 L 342.65625 717.476562 C 342.097656 717.476562 341.652344 717.289062 341.28125 716.917969 C 340.910156 716.542969 340.722656 716.058594 340.722656 715.539062 L 340.722656 700.847656 C 340.722656 700.324219 340.910156 699.839844 341.28125 699.46875 C 341.652344 699.09375 342.136719 698.871094 342.65625 698.871094 L 354.859375 698.871094 C 355.378906 698.871094 355.863281 699.058594 356.234375 699.46875 C 356.609375 699.839844 356.792969 700.324219 356.792969 700.847656 C 356.792969 701.371094 356.609375 701.855469 356.234375 702.226562 C 355.863281 702.601562 355.378906 702.785156 354.859375 702.785156 Z M 375.917969 702.859375 L 375.917969 706.292969 L 383.730469 706.292969 C 384.25 706.292969 384.734375 706.476562 385.105469 706.851562 C 385.476562 707.222656 385.664062 707.707031 385.664062 708.230469 C 385.664062 708.75 385.476562 709.238281 385.105469 709.609375 C 384.734375 709.980469 384.25 710.167969 383.730469 710.167969 L 375.917969 710.167969 L 375.917969 713.597656 L 386.183594 713.597656 C 386.707031 713.597656 387.191406 713.785156 387.5625 714.15625 C 387.933594 714.53125 388.121094 715.015625 388.121094 715.539062 C 388.121094 716.097656 387.933594 716.542969 387.5625 716.917969 C 387.191406 717.289062 386.707031 717.476562 386.183594 717.476562 L 373.980469 717.476562 C 373.425781 717.476562 372.976562 717.289062 372.605469 716.917969 C 372.234375 716.542969 372.046875 716.058594 372.046875 715.539062 L 372.046875 700.847656 C 372.046875 700.324219 372.234375 699.839844 372.605469 699.46875 C 372.976562 699.09375 373.460938 698.871094 373.980469 698.871094 L 386.183594 698.871094 C 386.707031 698.871094 387.191406 699.058594 387.5625 699.46875 C 387.933594 699.839844 388.121094 700.324219 388.121094 700.847656 C 388.121094 701.371094 387.933594 701.855469 387.5625 702.226562 C 387.191406 702.601562 386.707031 702.785156 386.183594 702.785156 Z M 410.03125 699.804688 C 410.253906 700.140625 410.367188 700.511719 410.367188 700.886719 L 410.367188 715.574219 C 410.367188 716.132812 410.179688 716.582031 409.773438 716.953125 C 409.398438 717.328125 408.917969 717.511719 408.394531 717.511719 C 407.875 717.511719 407.390625 717.328125 407.019531 716.953125 C 406.648438 716.582031 406.460938 716.097656 406.460938 715.574219 L 406.460938 705.621094 L 402.480469 709.609375 C 402.109375 709.980469 401.625 710.167969 401.105469 710.167969 C 400.582031 710.167969 400.097656 709.980469 399.726562 709.609375 L 395.746094 705.621094 L 395.746094 715.574219 C 395.746094 716.132812 395.558594 716.582031 395.1875 716.953125 C 394.816406 717.328125 394.332031 717.511719 393.8125 717.511719 C 393.253906 717.511719 392.808594 717.328125 392.433594 716.953125 C 392.0625 716.582031 391.878906 716.097656 391.878906 715.574219 L 391.878906 700.886719 C 391.878906 700.476562 391.988281 700.140625 392.210938 699.804688 C 392.433594 699.46875 392.734375 699.246094 393.066406 699.09375 C 393.441406 698.945312 393.8125 698.910156 394.183594 698.984375 C 394.554688 699.058594 394.890625 699.246094 395.1875 699.542969 L 401.140625 705.507812 L 407.09375 699.542969 C 407.390625 699.246094 407.6875 699.09375 408.097656 698.984375 C 408.46875 698.910156 408.878906 698.945312 409.214844 699.09375 C 409.546875 699.246094 409.847656 699.46875 410.03125 699.804688 Z M 424.320312 698.910156 L 416.988281 698.910156 C 416.429688 698.910156 415.984375 699.09375 415.613281 699.503906 C 415.242188 699.878906 415.054688 700.363281 415.054688 700.886719 L 415.054688 715.574219 C 415.054688 716.132812 415.242188 716.582031 415.613281 716.953125 C 415.984375 717.328125 416.46875 717.511719 416.988281 717.511719 C 417.511719 717.511719 417.992188 717.328125 418.367188 716.953125 C 418.738281 716.582031 418.925781 716.097656 418.925781 715.574219 L 418.925781 712.628906 L 424.28125 712.628906 C 426.179688 712.628906 427.777344 711.957031 429.117188 710.617188 C 430.457031 709.273438 431.125 707.671875 431.125 705.769531 C 431.125 703.867188 430.457031 702.265625 429.117188 700.921875 C 427.816406 699.582031 426.179688 698.910156 424.320312 698.910156 Z M 426.363281 707.855469 C 425.808594 708.417969 425.101562 708.714844 424.28125 708.714844 L 418.925781 708.714844 L 418.925781 702.859375 L 424.28125 702.859375 C 425.101562 702.859375 425.769531 703.160156 426.363281 703.71875 C 426.960938 704.277344 427.21875 704.988281 427.21875 705.804688 C 427.257812 706.589844 426.960938 707.296875 426.363281 707.855469 Z M 438.753906 702.859375 L 438.753906 706.292969 L 446.566406 706.292969 C 447.085938 706.292969 447.570312 706.476562 447.941406 706.851562 C 448.316406 707.222656 448.5 707.707031 448.5 708.230469 C 448.5 708.75 448.316406 709.238281 447.941406 709.609375 C 447.570312 709.980469 447.085938 710.167969 446.566406 710.167969 L 438.753906 710.167969 L 438.753906 713.597656 L 448.984375 713.597656 C 449.503906 713.597656 449.988281 713.785156 450.359375 714.15625 C 450.734375 714.53125 450.917969 715.015625 450.917969 715.539062 C 450.917969 716.097656 450.734375 716.542969 450.359375 716.917969 C 449.988281 717.289062 449.503906 717.476562 448.984375 717.476562 L 436.78125 717.476562 C 436.222656 717.476562 435.777344 717.289062 435.40625 716.917969 C 435.035156 716.542969 434.847656 716.058594 434.847656 715.539062 L 434.847656 700.847656 C 434.847656 700.324219 435.035156 699.839844 435.40625 699.46875 C 435.777344 699.09375 436.261719 698.871094 436.78125 698.871094 L 448.984375 698.871094 C 449.503906 698.871094 449.988281 699.058594 450.359375 699.46875 C 450.734375 699.839844 450.917969 700.324219 450.917969 700.847656 C 450.917969 701.371094 450.734375 701.855469 450.359375 702.226562 C 449.988281 702.601562 449.503906 702.785156 448.984375 702.785156 Z M 469.894531 709.125 C 470.488281 708.082031 470.785156 706.960938 470.785156 705.769531 C 470.785156 703.867188 470.117188 702.265625 468.777344 700.921875 C 467.4375 699.582031 465.835938 698.910156 463.941406 698.910156 L 456.609375 698.910156 C 456.054688 698.910156 455.605469 699.09375 455.234375 699.503906 C 454.863281 699.878906 454.675781 700.363281 454.675781 700.886719 L 454.675781 715.574219 C 454.675781 716.132812 454.863281 716.582031 455.234375 716.953125 C 455.605469 717.328125 456.089844 717.511719 456.609375 717.511719 C 457.132812 717.511719 457.617188 717.328125 457.988281 716.953125 C 458.359375 716.582031 458.546875 716.097656 458.546875 715.574219 L 458.546875 712.628906 L 463.121094 712.628906 L 467.4375 716.953125 C 467.808594 717.328125 468.292969 717.511719 468.8125 717.511719 C 469.335938 717.511719 469.820312 717.328125 470.191406 716.953125 C 470.5625 716.582031 470.75 716.097656 470.75 715.574219 C 470.75 715.050781 470.5625 714.566406 470.191406 714.195312 L 467.585938 711.585938 C 468.554688 710.953125 469.335938 710.132812 469.894531 709.125 Z M 465.988281 707.855469 C 465.429688 708.417969 464.722656 708.714844 463.902344 708.714844 L 458.546875 708.714844 L 458.546875 702.859375 L 463.902344 702.859375 C 464.722656 702.859375 465.390625 703.160156 465.988281 703.71875 C 466.582031 704.277344 466.84375 704.988281 466.84375 705.804688 C 466.84375 706.589844 466.582031 707.296875 465.988281 707.855469 Z M 482.726562 698.910156 C 480.160156 698.910156 477.964844 699.804688 476.179688 701.632812 C 474.355469 703.457031 473.464844 705.65625 473.464844 708.191406 C 473.464844 710.765625 474.355469 712.964844 476.179688 714.753906 C 478.003906 716.582031 480.199219 717.476562 482.726562 717.476562 C 485.296875 717.476562 487.488281 716.582031 489.277344 714.753906 C 491.097656 712.925781 491.992188 710.726562 491.992188 708.191406 C 491.992188 705.621094 491.097656 703.421875 489.277344 701.632812 C 487.488281 699.839844 485.296875 698.910156 482.726562 698.910156 Z M 486.558594 712.03125 C 485.519531 713.078125 484.214844 713.597656 482.765625 713.597656 C 481.277344 713.597656 480.011719 713.078125 478.96875 712.03125 C 477.929688 710.988281 477.40625 709.722656 477.40625 708.230469 C 477.40625 706.738281 477.929688 705.472656 478.96875 704.425781 C 480.011719 703.382812 481.277344 702.824219 482.765625 702.824219 C 484.253906 702.824219 485.519531 703.347656 486.558594 704.425781 C 487.601562 705.472656 488.121094 706.738281 488.121094 708.230469 C 488.121094 709.722656 487.601562 710.988281 486.558594 712.03125 Z M 510.964844 709.125 C 511.5625 708.082031 511.859375 706.960938 511.859375 705.769531 C 511.859375 703.867188 511.1875 702.265625 509.847656 700.921875 C 508.511719 699.582031 506.910156 698.910156 505.011719 698.910156 L 497.683594 698.910156 C 497.125 698.910156 496.679688 699.09375 496.308594 699.503906 C 495.933594 699.878906 495.75 700.363281 495.75 700.886719 L 495.75 715.574219 C 495.75 716.132812 495.933594 716.582031 496.308594 716.953125 C 496.679688 717.328125 497.164062 717.511719 497.683594 717.511719 C 498.203125 717.511719 498.6875 717.328125 499.058594 716.953125 C 499.433594 716.582031 499.617188 716.097656 499.617188 715.574219 L 499.617188 712.628906 L 504.195312 712.628906 L 508.511719 716.953125 C 508.882812 717.328125 509.367188 717.511719 509.886719 717.511719 C 510.40625 717.511719 510.890625 717.328125 511.261719 716.953125 C 511.636719 716.582031 511.820312 716.097656 511.820312 715.574219 C 511.820312 715.050781 511.636719 714.566406 511.261719 714.195312 L 508.660156 711.585938 C 509.625 710.953125 510.40625 710.132812 510.964844 709.125 Z M 507.058594 707.855469 C 506.5 708.417969 505.792969 708.714844 504.976562 708.714844 L 499.617188 708.714844 L 499.617188 702.859375 L 504.976562 702.859375 C 505.792969 702.859375 506.464844 703.160156 507.058594 703.71875 C 507.65625 704.277344 507.914062 704.988281 507.914062 705.804688 C 507.953125 706.589844 507.65625 707.296875 507.058594 707.855469 Z M 310.625 606.375 C 310.550781 606.148438 309.097656 600.519531 313.453125 597.386719 C 316.539062 595.1875 318.289062 596.457031 318.734375 596.902344 C 319.8125 597.949219 319.886719 599.664062 318.921875 601.078125 C 317.210938 603.6875 311.925781 606.933594 311.703125 607.042969 C 311.59375 607.117188 311.515625 607.117188 311.40625 607.117188 C 311.21875 607.117188 310.996094 607.007812 310.886719 606.820312 C 310.847656 606.746094 310.8125 606.707031 310.8125 606.632812 C 310.734375 606.632812 310.660156 606.523438 310.625 606.375 Z M 494.523438 601.117188 C 493.589844 599.664062 493.664062 597.949219 494.707031 596.941406 C 495.152344 596.492188 496.902344 595.226562 499.992188 597.425781 C 504.34375 600.519531 502.890625 606.148438 502.816406 606.410156 C 502.78125 606.558594 502.707031 606.671875 502.59375 606.746094 C 502.59375 606.820312 502.558594 606.859375 502.519531 606.933594 C 502.410156 607.117188 502.222656 607.230469 502 607.230469 C 501.886719 607.230469 501.777344 607.195312 501.703125 607.15625 C 501.515625 606.933594 496.234375 603.726562 494.523438 601.117188 Z M 494.523438 601.117188 " fill-opacity="1" fill-rule="nonzero"/></g></svg>