<svg xmlns="http://www.w3.org/2000/svg" xmlns:xlink="http://www.w3.org/1999/xlink" width="1080" zoomAndPan="magnify" viewBox="0 0 810 809.999993" height="1080" preserveAspectRatio="xMidYMid meet" version="1.0"><defs><clipPath id="445c556fcb"><path d="M 283.855469 266.585938 L 530.605469 266.585938 L 530.605469 685.835938 L 283.855469 685.835938 Z M 283.855469 266.585938 " clip-rule="nonzero"/></clipPath></defs><g clip-path="url(#445c556fcb)"><path fill="#2e2e2e" d="M 431.191406 427.636719 C 431.027344 426.652344 431.695312 425.71875 432.679688 425.554688 C 433.070312 425.492188 433.507812 425.402344 433.960938 425.308594 C 435.792969 424.921875 437.96875 424.316406 439.183594 423.679688 C 439.039062 422.882812 439.4375 422.058594 440.210938 421.710938 C 441.125 421.292969 442.195312 421.699219 442.609375 422.605469 L 443.441406 424.433594 C 443.855469 425.34375 443.453125 426.414062 442.539062 426.828125 C 442.296875 426.9375 442.042969 426.988281 441.792969 426.988281 C 441.519531 426.988281 441.261719 426.914062 441.015625 426.796875 C 438.425781 428.207031 434.207031 428.964844 433.273438 429.121094 C 433.226562 429.128906 433.179688 429.128906 433.132812 429.132812 C 433.082031 429.136719 433.027344 429.148438 432.976562 429.148438 C 432.105469 429.148438 431.339844 428.519531 431.191406 427.636719 Z M 435.566406 391.160156 C 435.910156 391.160156 436.265625 391.082031 436.621094 390.933594 C 437.648438 390.5 438.0625 389.859375 438.363281 389.390625 C 438.652344 388.941406 439.011719 388.382812 440.765625 387.386719 C 443.667969 385.742188 447.832031 386.429688 447.867188 386.4375 C 448.851562 386.609375 449.789062 385.953125 449.964844 384.96875 C 450.074219 384.351562 449.855469 383.753906 449.433594 383.351562 C 449.273438 383.179688 449.078125 383.039062 448.851562 382.941406 C 448.675781 382.859375 444.410156 381.023438 438.992188 383.089844 C 435.207031 384.53125 433.597656 386.851562 433.367188 388.398438 C 433.226562 389.339844 433.53125 390.175781 434.207031 390.699219 C 434.601562 391.003906 435.070312 391.160156 435.566406 391.160156 Z M 447.195312 395.691406 C 445.578125 398.109375 442.722656 399.488281 440.851562 400.171875 C 439.957031 397.957031 440.527344 395.578125 440.539062 395.523438 C 440.785156 394.558594 440.207031 393.578125 439.242188 393.328125 C 438.273438 393.074219 437.285156 393.652344 437.03125 394.621094 C 436.988281 394.789062 436.074219 398.4375 437.671875 401.925781 C 437.671875 401.929688 437.667969 401.929688 437.667969 401.933594 L 437.003906 403.925781 C 436.800781 404.539062 436.9375 405.21875 437.371094 405.699219 C 437.71875 406.089844 438.210938 406.304688 438.722656 406.304688 C 438.847656 406.304688 438.972656 406.292969 439.097656 406.265625 C 439.496094 406.179688 448.898438 404.121094 450.464844 397.261719 C 450.503906 397.097656 450.519531 396.933594 450.511719 396.773438 C 450.535156 396.164062 450.253906 395.554688 449.707031 395.191406 C 448.875 394.632812 447.75 394.859375 447.195312 395.691406 Z M 530.601562 671.335938 C 530.605469 675.09375 529.148438 678.628906 526.488281 681.289062 C 523.832031 683.949219 520.296875 685.417969 516.53125 685.425781 L 407.578125 685.605469 L 298.601562 685.789062 C 294.847656 685.789062 291.316406 684.332031 288.65625 681.683594 C 285.988281 679.03125 284.519531 675.503906 284.511719 671.746094 L 283.855469 281.089844 C 283.851562 277.332031 285.3125 273.796875 287.96875 271.132812 C 290.625 268.472656 294.160156 267.003906 297.925781 266.996094 L 406.878906 266.816406 L 515.835938 266.632812 L 515.855469 266.632812 C 519.609375 266.632812 523.140625 268.089844 525.800781 270.738281 C 528.46875 273.390625 529.941406 276.921875 529.945312 280.679688 Z M 526.976562 671.339844 L 526.652344 476.011719 L 526.324219 280.683594 C 526.320312 277.796875 525.144531 275.1875 523.246094 273.300781 C 521.351562 271.414062 518.738281 270.25 515.855469 270.25 C 515.847656 270.25 515.84375 270.25 515.835938 270.25 L 406.882812 270.433594 L 297.933594 270.613281 C 295.039062 270.617188 292.425781 271.792969 290.535156 273.6875 C 288.640625 275.582031 287.476562 278.195312 287.480469 281.082031 L 287.804688 476.410156 L 288.132812 671.738281 C 288.136719 674.625 289.316406 677.238281 291.210938 679.125 C 293.105469 681.007812 295.71875 682.171875 298.601562 682.171875 C 298.609375 682.171875 298.617188 682.171875 298.621094 682.171875 L 407.574219 681.992188 L 516.527344 681.808594 C 519.417969 681.804688 522.03125 680.632812 523.925781 678.734375 C 525.816406 676.839844 526.984375 674.226562 526.976562 671.339844 Z M 334.914062 653.8125 L 322.394531 653.8125 C 321.832031 653.8125 321.359375 654.011719 320.96875 654.410156 C 320.578125 654.796875 320.382812 655.269531 320.382812 655.820312 C 320.382812 656.371094 320.578125 656.839844 320.96875 657.230469 C 321.359375 657.617188 321.832031 657.8125 322.394531 657.8125 L 326.644531 657.8125 L 326.644531 670.820312 C 326.644531 671.378906 326.835938 671.851562 327.226562 672.242188 C 327.625 672.632812 328.101562 672.828125 328.652344 672.828125 C 329.203125 672.828125 329.675781 672.632812 330.066406 672.242188 C 330.453125 671.851562 330.648438 671.378906 330.648438 670.820312 L 330.648438 657.8125 L 334.914062 657.8125 C 335.464844 657.8125 335.941406 657.617188 336.339844 657.230469 C 336.726562 656.839844 336.921875 656.371094 336.921875 655.820312 C 336.921875 655.269531 336.726562 654.800781 336.339844 654.410156 C 335.941406 654.011719 335.464844 653.8125 334.914062 653.8125 Z M 356.503906 653.8125 C 355.953125 653.8125 355.480469 654.011719 355.09375 654.410156 C 354.703125 654.796875 354.507812 655.269531 354.507812 655.820312 L 354.507812 661.320312 L 345.980469 661.320312 L 345.980469 655.820312 C 345.980469 655.269531 345.785156 654.800781 345.398438 654.410156 C 345.007812 654.011719 344.535156 653.8125 343.984375 653.8125 C 343.425781 653.8125 342.949219 654.011719 342.558594 654.410156 C 342.167969 654.796875 341.976562 655.269531 341.976562 655.820312 L 341.976562 670.820312 C 341.976562 671.378906 342.167969 671.851562 342.558594 672.242188 C 342.949219 672.632812 343.425781 672.828125 343.984375 672.828125 C 344.535156 672.828125 345.007812 672.632812 345.398438 672.242188 C 345.785156 671.851562 345.980469 671.378906 345.980469 670.820312 L 345.980469 665.320312 L 354.507812 665.320312 L 354.507812 670.820312 C 354.507812 671.378906 354.703125 671.851562 355.09375 672.242188 C 355.480469 672.632812 355.953125 672.828125 356.503906 672.828125 C 357.054688 672.828125 357.53125 672.632812 357.929688 672.242188 C 358.320312 671.851562 358.515625 671.378906 358.515625 670.820312 L 358.515625 655.820312 C 358.515625 655.269531 358.320312 654.800781 357.929688 654.410156 C 357.53125 654.011719 357.054688 653.8125 356.503906 653.8125 Z M 379.597656 657.8125 C 380.148438 657.8125 380.625 657.617188 381.023438 657.230469 C 381.414062 656.839844 381.609375 656.371094 381.609375 655.820312 C 381.609375 655.269531 381.414062 654.800781 381.023438 654.410156 C 380.625 654.011719 380.148438 653.8125 379.597656 653.8125 L 367.078125 653.8125 C 366.519531 653.8125 366.042969 654.011719 365.652344 654.410156 C 365.261719 654.796875 365.070312 655.269531 365.070312 655.820312 L 365.070312 670.820312 C 365.070312 671.378906 365.261719 671.851562 365.652344 672.242188 C 366.042969 672.632812 366.519531 672.828125 367.078125 672.828125 L 379.597656 672.828125 C 380.148438 672.828125 380.625 672.632812 381.023438 672.242188 C 381.414062 671.851562 381.609375 671.378906 381.609375 670.820312 C 381.609375 670.269531 381.414062 669.800781 381.023438 669.410156 C 380.625 669.019531 380.148438 668.824219 379.597656 668.824219 L 369.074219 668.824219 L 369.074219 665.320312 L 377.09375 665.320312 C 377.644531 665.320312 378.117188 665.125 378.515625 664.734375 C 378.90625 664.347656 379.101562 663.875 379.101562 663.324219 C 379.101562 662.765625 378.90625 662.292969 378.515625 661.902344 C 378.117188 661.515625 377.644531 661.320312 377.09375 661.320312 L 369.074219 661.320312 L 369.074219 657.8125 Z M 418.519531 653.964844 C 418.148438 653.8125 417.761719 653.773438 417.363281 653.851562 C 416.972656 653.933594 416.632812 654.121094 416.34375 654.410156 L 410.238281 660.492188 L 404.140625 654.410156 C 403.855469 654.121094 403.511719 653.933594 403.113281 653.851562 C 402.710938 653.773438 402.328125 653.8125 401.953125 653.964844 C 401.582031 654.125 401.285156 654.371094 401.0625 654.703125 C 400.835938 655.039062 400.71875 655.414062 400.71875 655.820312 L 400.71875 670.820312 C 400.71875 671.378906 400.914062 671.855469 401.304688 672.242188 C 401.695312 672.632812 402.171875 672.828125 402.730469 672.828125 C 403.28125 672.828125 403.753906 672.632812 404.140625 672.242188 C 404.53125 671.855469 404.726562 671.378906 404.726562 670.820312 L 404.726562 660.648438 L 408.824219 664.734375 C 409.214844 665.125 409.6875 665.320312 410.238281 665.320312 C 410.796875 665.320312 411.273438 665.125 411.664062 664.734375 L 415.757812 660.648438 L 415.757812 670.820312 C 415.757812 671.378906 415.953125 671.855469 416.34375 672.242188 C 416.734375 672.632812 417.203125 672.828125 417.757812 672.828125 C 418.308594 672.828125 418.777344 672.632812 419.167969 672.242188 C 419.566406 671.855469 419.765625 671.378906 419.765625 670.820312 L 419.765625 655.820312 C 419.765625 655.414062 419.652344 655.039062 419.421875 654.703125 C 419.203125 654.371094 418.902344 654.125 418.519531 653.964844 Z M 441.550781 656.605469 C 443.417969 658.460938 444.351562 660.699219 444.351562 663.324219 C 444.351562 665.941406 443.417969 668.183594 441.550781 670.042969 C 439.691406 671.898438 437.449219 672.828125 434.820312 672.828125 C 432.199219 672.828125 429.953125 671.898438 428.089844 670.042969 C 426.230469 668.179688 425.304688 665.941406 425.304688 663.324219 C 425.304688 660.699219 426.230469 658.460938 428.089844 656.605469 C 429.953125 654.746094 432.199219 653.8125 434.820312 653.8125 C 437.449219 653.8125 439.691406 654.746094 441.550781 656.605469 Z M 440.34375 663.324219 C 440.34375 661.808594 439.804688 660.515625 438.726562 659.4375 C 437.640625 658.355469 436.335938 657.8125 434.820312 657.8125 C 433.300781 657.8125 432.003906 658.355469 430.925781 659.4375 C 429.847656 660.515625 429.3125 661.808594 429.3125 663.324219 C 429.3125 664.839844 429.847656 666.136719 430.925781 667.210938 C 432.003906 668.289062 433.300781 668.824219 434.820312 668.824219 C 436.339844 668.824219 437.640625 668.289062 438.726562 667.210938 C 439.804688 666.136719 440.34375 664.839844 440.34375 663.324219 Z M 465.140625 656.605469 C 467.007812 658.460938 467.941406 660.699219 467.941406 663.324219 C 467.941406 665.941406 467.007812 668.183594 465.140625 670.042969 C 463.285156 671.898438 461.039062 672.828125 458.410156 672.828125 C 455.789062 672.828125 453.546875 671.898438 451.679688 670.042969 C 449.820312 668.179688 448.894531 665.941406 448.894531 663.324219 C 448.894531 660.699219 449.820312 658.460938 451.679688 656.605469 C 453.546875 654.746094 455.789062 653.8125 458.410156 653.8125 C 461.039062 653.8125 463.285156 654.746094 465.140625 656.605469 Z M 463.933594 663.324219 C 463.933594 661.808594 463.394531 660.515625 462.316406 659.4375 C 461.230469 658.355469 459.929688 657.8125 458.410156 657.8125 C 456.890625 657.8125 455.59375 658.355469 454.515625 659.4375 C 453.4375 660.515625 452.902344 661.808594 452.902344 663.324219 C 452.902344 664.839844 453.4375 666.136719 454.515625 667.210938 C 455.59375 668.289062 456.890625 668.824219 458.410156 668.824219 C 459.929688 668.824219 461.230469 668.289062 462.316406 667.210938 C 463.394531 666.136719 463.933594 664.839844 463.933594 663.324219 Z M 488.019531 653.8125 C 487.464844 653.8125 486.996094 654.011719 486.605469 654.410156 C 486.214844 654.796875 486.019531 655.269531 486.019531 655.820312 L 486.019531 665.292969 L 477.039062 654.535156 C 476.765625 654.214844 476.425781 654 476.019531 653.890625 C 475.613281 653.777344 475.210938 653.796875 474.8125 653.941406 C 474.414062 654.082031 474.09375 654.324219 473.855469 654.664062 C 473.609375 655.011719 473.488281 655.394531 473.488281 655.820312 L 473.488281 670.820312 C 473.488281 671.378906 473.683594 671.851562 474.074219 672.242188 C 474.464844 672.632812 474.9375 672.828125 475.496094 672.828125 C 476.050781 672.828125 476.519531 672.632812 476.910156 672.242188 C 477.300781 671.851562 477.496094 671.378906 477.496094 670.820312 L 477.496094 661.34375 L 486.476562 672.101562 C 486.878906 672.582031 487.390625 672.824219 488.019531 672.824219 C 488.253906 672.824219 488.484375 672.785156 488.707031 672.710938 C 489.105469 672.566406 489.421875 672.320312 489.660156 671.972656 C 489.90625 671.628906 490.027344 671.242188 490.027344 670.820312 L 490.027344 655.820312 C 490.027344 655.269531 489.832031 654.796875 489.445312 654.410156 C 489.046875 654.011719 488.570312 653.8125 488.019531 653.8125 Z M 372.328125 307.539062 C 372.378906 308.089844 372.613281 308.539062 373.039062 308.882812 C 373.402344 309.199219 373.832031 309.355469 374.324219 309.355469 C 374.941406 309.355469 375.457031 309.113281 375.863281 308.632812 L 380.585938 302.980469 L 385.304688 308.632812 C 385.710938 309.113281 386.226562 309.355469 386.84375 309.355469 C 387.328125 309.355469 387.753906 309.199219 388.128906 308.882812 C 388.554688 308.539062 388.789062 308.089844 388.839844 307.539062 C 388.894531 306.988281 388.738281 306.5 388.382812 306.078125 L 383.191406 299.855469 L 388.382812 293.628906 C 388.738281 293.207031 388.894531 292.71875 388.839844 292.171875 C 388.789062 291.621094 388.554688 291.167969 388.128906 290.8125 C 387.703125 290.457031 387.214844 290.304688 386.664062 290.355469 C 386.113281 290.402344 385.660156 290.640625 385.304688 291.066406 L 380.585938 296.730469 L 375.863281 291.066406 C 375.507812 290.640625 375.054688 290.40625 374.503906 290.355469 C 373.949219 290.304688 373.460938 290.457031 373.039062 290.8125 C 372.613281 291.167969 372.378906 291.621094 372.328125 292.171875 C 372.273438 292.722656 372.429688 293.207031 372.785156 293.632812 L 377.976562 299.855469 L 372.785156 306.078125 C 372.429688 306.5 372.273438 306.988281 372.328125 307.539062 Z M 400.625 308.25 C 400.792969 308.589844 401.039062 308.855469 401.359375 309.050781 C 401.683594 309.253906 402.035156 309.355469 402.417969 309.355469 C 402.796875 309.355469 403.152344 309.253906 403.472656 309.050781 C 403.796875 308.855469 404.039062 308.589844 404.210938 308.25 L 411.71875 293.238281 C 411.972656 292.746094 412.011719 292.238281 411.832031 291.710938 C 411.65625 291.1875 411.320312 290.804688 410.828125 290.558594 C 410.335938 290.3125 409.828125 290.273438 409.300781 290.441406 C 408.773438 290.621094 408.386719 290.957031 408.140625 291.445312 L 402.417969 302.878906 L 396.691406 291.472656 C 396.445312 290.972656 396.058594 290.636719 395.53125 290.46875 C 395.007812 290.289062 394.492188 290.324219 393.992188 290.570312 C 393.5 290.816406 393.171875 291.199219 393 291.726562 C 392.824219 292.25 392.855469 292.761719 393.101562 293.261719 Z M 418.996094 309.355469 C 419.546875 309.355469 420.019531 309.160156 420.410156 308.769531 C 420.796875 308.382812 420.996094 307.90625 420.996094 307.347656 L 420.996094 292.347656 C 420.996094 291.796875 420.796875 291.328125 420.410156 290.9375 C 420.019531 290.539062 419.546875 290.339844 418.996094 290.339844 C 418.4375 290.339844 417.960938 290.539062 417.570312 290.9375 C 417.179688 291.328125 416.988281 291.796875 416.988281 292.347656 L 416.988281 307.347656 C 416.988281 307.90625 417.179688 308.382812 417.570312 308.769531 C 417.960938 309.160156 418.4375 309.355469 418.996094 309.355469 Z M 429.570312 309.355469 C 430.121094 309.355469 430.59375 309.160156 430.984375 308.769531 C 431.371094 308.382812 431.566406 307.90625 431.566406 307.347656 L 431.566406 292.347656 C 431.566406 291.796875 431.371094 291.328125 430.984375 290.9375 C 430.59375 290.539062 430.121094 290.339844 429.570312 290.339844 C 429.011719 290.339844 428.535156 290.539062 428.144531 290.9375 C 427.753906 291.328125 427.558594 291.796875 427.558594 292.347656 L 427.558594 307.347656 C 427.558594 307.90625 427.753906 308.382812 428.144531 308.769531 C 428.535156 309.160156 429.007812 309.355469 429.570312 309.355469 Z M 440.144531 309.355469 C 440.695312 309.355469 441.164062 309.160156 441.554688 308.769531 C 441.945312 308.382812 442.140625 307.90625 442.140625 307.347656 L 442.140625 292.347656 C 442.140625 291.796875 441.945312 291.328125 441.554688 290.9375 C 441.164062 290.539062 440.695312 290.339844 440.144531 290.339844 C 439.582031 290.339844 439.109375 290.539062 438.71875 290.9375 C 438.328125 291.328125 438.132812 291.796875 438.132812 292.347656 L 438.132812 307.347656 C 438.132812 307.90625 438.328125 308.382812 438.71875 308.769531 C 439.109375 309.160156 439.582031 309.355469 440.144531 309.355469 Z M 520.585938 476.210938 L 520.597656 639.238281 C 520.597656 640.949219 519.109375 642.441406 517.390625 642.441406 L 296.960938 642.441406 C 295.261719 642.441406 293.890625 641.082031 293.855469 639.394531 L 293.855469 280.882812 C 293.855469 279.707031 294.316406 278.601562 295.148438 277.769531 C 295.984375 276.9375 297.089844 276.480469 298.269531 276.480469 L 516.171875 276.480469 C 517.351562 276.480469 518.460938 276.9375 519.292969 277.769531 C 520.125 278.601562 520.585938 279.707031 520.585938 280.882812 Z M 297.492188 559.410156 L 375.992188 559.410156 C 379.460938 545.96875 385.132812 537.132812 385.132812 537.132812 C 386.042969 522.054688 390.140625 513.539062 392.535156 509.761719 C 392.097656 509.378906 391.691406 508.964844 391.316406 508.519531 C 389.441406 506.308594 388.492188 503.457031 388.210938 500.574219 C 348.890625 491.902344 319.46875 456.921875 319.46875 415.058594 C 319.46875 415.019531 319.472656 414.980469 319.472656 414.941406 C 319.472656 414.898438 319.46875 414.859375 319.46875 414.820312 C 319.46875 413.78125 319.5 412.753906 319.554688 411.730469 C 321.308594 364.894531 359.878906 327.457031 407.230469 327.457031 C 455.695312 327.457031 494.988281 366.679688 494.988281 415.058594 C 494.988281 457.167969 465.21875 492.324219 425.546875 500.738281 C 425.511719 500.914062 425.492188 501.089844 425.457031 501.265625 C 424.753906 504.644531 422.941406 507.878906 420.222656 510.046875 C 422.636719 513.960938 426.554688 522.429688 427.445312 537.132812 C 427.445312 537.132812 433.117188 545.96875 436.589844 559.410156 L 516.957031 559.410156 L 516.949219 476.210938 L 516.949219 280.882812 C 516.949219 280.667969 516.871094 280.484375 516.722656 280.335938 C 516.570312 280.183594 516.386719 280.109375 516.171875 280.109375 L 298.269531 280.109375 C 298.054688 280.109375 297.871094 280.183594 297.71875 280.335938 C 297.570312 280.484375 297.492188 280.671875 297.492188 280.882812 Z M 387.898438 476.507812 C 391.402344 475.007812 398.40625 482.5 398.40625 482.5 C 398.40625 482.5 401.332031 478.625 407.164062 478.515625 C 412.496094 478.617188 415.390625 481.855469 415.847656 482.410156 C 416.09375 482.207031 416.351562 482 416.625 481.785156 C 418.484375 479.953125 423.601562 475.296875 426.429688 476.507812 C 429.933594 478.003906 427.929688 492.492188 425.929688 495.488281 C 425.910156 495.515625 425.914062 495.601562 425.925781 495.695312 C 462.671875 487.207031 490.15625 454.289062 490.15625 415.0625 C 490.15625 369.414062 452.957031 332.28125 407.226562 332.28125 C 375.199219 332.28125 347.375 350.511719 333.566406 377.113281 C 344.148438 364.917969 359.765625 357.191406 377.199219 357.191406 C 400.011719 357.191406 419.730469 370.402344 429.105469 389.578125 L 429.457031 390.480469 C 431.308594 395.882812 430.691406 402.046875 427.800781 406.421875 C 422.3125 414.722656 418.152344 412.066406 419.652344 416.382812 C 420.433594 418.636719 425.730469 418.628906 428.464844 419.203125 C 429.742188 419.472656 426.800781 423.519531 426.800781 423.519531 C 426.800781 423.519531 424.640625 426.011719 426.46875 427.835938 C 429.535156 430.898438 425.972656 431.65625 429.464844 433.980469 C 430.042969 434.363281 428.792969 438.78125 428.664062 439.273438 C 428.257812 440.84375 427.714844 442.375 427.058594 443.859375 C 417.042969 460.953125 398.472656 472.445312 377.199219 472.445312 C 359.433594 472.445312 343.546875 464.425781 332.957031 451.824219 C 343.835938 473.640625 364.074219 490 388.398438 495.660156 C 388.410156 495.582031 388.414062 495.511719 388.398438 495.488281 C 386.398438 492.492188 384.394531 478.003906 387.898438 476.507812 Z M 516.964844 638.8125 L 516.964844 632.777344 C 516.730469 632.890625 516.46875 632.957031 516.191406 632.957031 L 478.382812 632.957031 C 477.382812 632.957031 476.566406 632.144531 476.566406 631.140625 C 476.566406 630.140625 477.382812 629.328125 478.382812 629.328125 L 516.191406 629.328125 C 516.46875 629.328125 516.730469 629.394531 516.964844 629.503906 L 516.960938 621.921875 L 444.019531 621.921875 C 443.015625 621.921875 442.203125 621.109375 442.203125 620.109375 C 442.203125 619.105469 443.015625 618.292969 444.019531 618.292969 L 516.960938 618.292969 L 516.960938 609.121094 C 516.628906 609.492188 516.148438 609.730469 515.613281 609.730469 L 455.699219 609.730469 C 454.695312 609.730469 453.882812 608.917969 453.882812 607.914062 C 453.882812 606.914062 454.695312 606.101562 455.699219 606.101562 L 515.613281 606.101562 C 516.148438 606.101562 516.628906 606.339844 516.960938 606.710938 L 516.960938 597.539062 L 484.203125 597.539062 C 483.199219 597.539062 482.382812 596.726562 482.382812 595.722656 C 482.382812 594.722656 483.199219 593.910156 484.203125 593.910156 L 516.960938 593.910156 L 516.960938 585.925781 L 466.753906 585.925781 C 465.75 585.925781 464.933594 585.113281 464.933594 584.109375 C 464.933594 583.109375 465.75 582.296875 466.753906 582.296875 L 516.957031 582.296875 L 516.957031 573.714844 C 516.898438 573.71875 516.835938 573.730469 516.773438 573.730469 L 455.699219 573.730469 C 454.695312 573.730469 453.882812 572.917969 453.882812 571.917969 C 453.882812 570.914062 454.695312 570.101562 455.699219 570.101562 L 516.777344 570.101562 C 516.839844 570.101562 516.898438 570.113281 516.957031 570.121094 L 516.957031 563.039062 L 437.441406 563.039062 C 438.515625 568.066406 439.226562 573.621094 439.226562 579.523438 C 439.226562 603.574219 424.828125 610.097656 424.828125 610.097656 C 424.828125 610.097656 421.21875 611.472656 416.519531 612.542969 C 411.625 614.761719 405.023438 618.347656 392.734375 623.546875 C 369.613281 633.332031 352.820312 627.011719 345.839844 624.976562 C 338.859375 622.9375 339.949219 615.601562 347.800781 617.027344 C 351.679688 617.730469 365.46875 622.53125 378.558594 617.636719 C 383.9375 615.625 386.808594 613.101562 390.105469 610.824219 C 388.652344 610.398438 387.75 610.097656 387.75 610.097656 C 387.75 610.097656 373.351562 603.574219 373.351562 579.523438 C 373.351562 573.621094 374.0625 568.066406 375.136719 563.039062 L 297.492188 563.039062 L 297.492188 570.101562 L 358.5625 570.101562 C 359.566406 570.101562 360.378906 570.914062 360.378906 571.917969 C 360.378906 572.917969 359.566406 573.730469 358.5625 573.730469 L 297.492188 573.730469 L 297.492188 582.296875 L 347.511719 582.296875 C 348.515625 582.296875 349.328125 583.109375 349.328125 584.109375 C 349.328125 585.113281 348.515625 585.925781 347.511719 585.925781 L 297.492188 585.925781 L 297.492188 593.910156 L 330.0625 593.910156 C 331.066406 593.910156 331.878906 594.722656 331.878906 595.722656 C 331.878906 596.726562 331.066406 597.539062 330.0625 597.539062 L 297.492188 597.539062 L 297.492188 606.527344 C 297.808594 606.265625 298.210938 606.101562 298.652344 606.101562 L 358.5625 606.101562 C 359.566406 606.101562 360.378906 606.914062 360.378906 607.914062 C 360.378906 608.917969 359.566406 609.730469 358.5625 609.730469 L 298.652344 609.730469 C 298.210938 609.730469 297.808594 609.566406 297.492188 609.300781 L 297.492188 618.296875 L 309.703125 618.296875 C 310.707031 618.296875 311.519531 619.109375 311.519531 620.109375 C 311.519531 621.109375 310.707031 621.925781 309.703125 621.925781 L 297.492188 621.925781 L 297.492188 629.429688 C 297.675781 629.367188 297.867188 629.328125 298.070312 629.328125 L 335.878906 629.328125 C 336.882812 629.328125 337.695312 630.140625 337.695312 631.140625 C 337.695312 632.144531 336.882812 632.957031 335.878906 632.957031 L 298.070312 632.957031 C 297.867188 632.957031 297.675781 632.914062 297.492188 632.855469 L 297.492188 638.8125 Z M 468.097656 304.160156 C 470.238281 304.160156 471.980469 305.898438 471.980469 308.039062 C 471.980469 308.964844 472.734375 309.714844 473.660156 309.714844 C 474.585938 309.714844 475.335938 308.964844 475.335938 308.039062 C 475.335938 305.898438 477.078125 304.160156 479.222656 304.160156 C 480.148438 304.160156 480.898438 303.410156 480.898438 302.484375 C 480.898438 301.5625 480.148438 300.8125 479.222656 300.8125 C 477.078125 300.8125 475.335938 299.070312 475.335938 296.933594 C 475.335938 296.007812 474.585938 295.257812 473.660156 295.257812 C 472.734375 295.257812 471.980469 296.007812 471.980469 296.933594 C 471.980469 299.070312 470.238281 300.8125 468.097656 300.8125 C 467.171875 300.8125 466.417969 301.5625 466.417969 302.484375 C 466.417969 303.410156 467.171875 304.160156 468.097656 304.160156 Z M 335.234375 303.628906 C 337.378906 303.628906 339.121094 305.367188 339.121094 307.507812 C 339.121094 308.429688 339.871094 309.179688 340.796875 309.179688 C 341.722656 309.179688 342.472656 308.429688 342.472656 307.507812 C 342.472656 305.367188 344.21875 303.628906 346.359375 303.628906 C 347.285156 303.628906 348.039062 302.878906 348.039062 301.953125 C 348.039062 301.03125 347.285156 300.28125 346.359375 300.28125 C 344.21875 300.28125 342.472656 298.539062 342.472656 296.402344 C 342.472656 295.476562 341.722656 294.726562 340.796875 294.726562 C 339.871094 294.726562 339.121094 295.476562 339.121094 296.402344 C 339.121094 298.539062 337.378906 300.28125 335.234375 300.28125 C 334.308594 300.28125 333.558594 301.03125 333.558594 301.953125 C 333.558594 302.878906 334.308594 303.628906 335.234375 303.628906 Z M 489.789062 331.886719 C 491.929688 331.886719 493.671875 333.625 493.671875 335.765625 C 493.671875 336.6875 494.425781 337.4375 495.351562 337.4375 C 496.277344 337.4375 497.027344 336.6875 497.027344 335.765625 C 497.027344 333.625 498.769531 331.886719 500.914062 331.886719 C 501.839844 331.886719 502.589844 331.136719 502.589844 330.210938 C 502.589844 329.285156 501.839844 328.535156 500.914062 328.535156 C 498.769531 328.535156 497.027344 326.796875 497.027344 324.65625 C 497.027344 323.734375 496.277344 322.984375 495.351562 322.984375 C 494.425781 322.984375 493.671875 323.734375 493.671875 324.65625 C 493.671875 326.796875 491.929688 328.535156 489.789062 328.535156 C 488.859375 328.535156 488.109375 329.285156 488.109375 330.210938 C 488.109375 331.136719 488.859375 331.886719 489.789062 331.886719 Z M 317.429688 335.765625 C 317.429688 336.6875 318.179688 337.4375 319.105469 337.4375 C 320.03125 337.4375 320.785156 336.6875 320.785156 335.765625 C 320.785156 333.625 322.527344 331.886719 324.671875 331.886719 C 325.597656 331.886719 326.347656 331.136719 326.347656 330.210938 C 326.347656 329.285156 325.597656 328.535156 324.671875 328.535156 C 322.527344 328.535156 320.785156 326.796875 320.785156 324.65625 C 320.785156 323.734375 320.03125 322.984375 319.105469 322.984375 C 318.179688 322.984375 317.429688 323.734375 317.429688 324.65625 C 317.429688 326.796875 315.6875 328.535156 313.542969 328.535156 C 312.617188 328.535156 311.867188 329.285156 311.867188 330.210938 C 311.867188 331.136719 312.617188 331.886719 313.542969 331.886719 C 315.6875 331.886719 317.429688 333.625 317.429688 335.765625 Z M 329.90625 495.371094 C 327.761719 495.371094 326.019531 493.628906 326.019531 491.488281 C 326.019531 490.566406 325.265625 489.816406 324.34375 489.816406 C 323.414062 489.816406 322.664062 490.566406 322.664062 491.488281 C 322.664062 493.628906 320.921875 495.371094 318.777344 495.371094 C 317.851562 495.371094 317.101562 496.117188 317.101562 497.042969 C 317.101562 497.96875 317.851562 498.71875 318.777344 498.71875 C 320.921875 498.71875 322.664062 500.457031 322.664062 502.597656 C 322.664062 503.519531 323.414062 504.269531 324.34375 504.269531 C 325.269531 504.269531 326.019531 503.519531 326.019531 502.597656 C 326.019531 500.457031 327.761719 498.71875 329.90625 498.71875 C 330.832031 498.71875 331.582031 497.96875 331.582031 497.042969 C 331.582031 496.117188 330.832031 495.371094 329.90625 495.371094 Z M 488.4375 502.597656 C 488.4375 503.519531 489.1875 504.269531 490.113281 504.269531 C 491.042969 504.269531 491.792969 503.519531 491.792969 502.597656 C 491.792969 500.457031 493.535156 498.71875 495.679688 498.71875 C 496.605469 498.71875 497.355469 497.96875 497.355469 497.042969 C 497.355469 496.121094 496.605469 495.371094 495.679688 495.371094 C 493.535156 495.371094 491.792969 493.628906 491.792969 491.492188 C 491.792969 490.566406 491.039062 489.816406 490.113281 489.816406 C 489.1875 489.816406 488.4375 490.566406 488.4375 491.492188 C 488.4375 493.628906 486.695312 495.371094 484.550781 495.371094 C 483.625 495.371094 482.875 496.121094 482.875 497.042969 C 482.875 497.96875 483.625 498.71875 484.550781 498.71875 C 486.695312 498.71875 488.4375 500.457031 488.4375 502.597656 Z M 463.394531 523.820312 C 461.253906 523.820312 459.511719 522.078125 459.511719 519.941406 C 459.511719 519.015625 458.757812 518.265625 457.832031 518.265625 C 456.90625 518.265625 456.15625 519.015625 456.15625 519.941406 C 456.15625 522.078125 454.414062 523.820312 452.269531 523.820312 C 451.34375 523.820312 450.59375 524.570312 450.59375 525.496094 C 450.59375 526.417969 451.34375 527.167969 452.269531 527.167969 C 454.414062 527.167969 456.15625 528.90625 456.15625 531.046875 C 456.15625 531.972656 456.90625 532.722656 457.832031 532.722656 C 458.757812 532.722656 459.511719 531.972656 459.511719 531.046875 C 459.511719 528.910156 461.253906 527.167969 463.394531 527.167969 C 464.324219 527.167969 465.074219 526.417969 465.074219 525.496094 C 465.074219 524.570312 464.324219 523.820312 463.394531 523.820312 Z M 362.1875 523.820312 C 360.042969 523.820312 358.300781 522.078125 358.300781 519.941406 C 358.300781 519.015625 357.550781 518.265625 356.625 518.265625 C 355.699219 518.265625 354.945312 519.015625 354.945312 519.941406 C 354.945312 522.078125 353.203125 523.820312 351.0625 523.820312 C 350.136719 523.820312 349.382812 524.570312 349.382812 525.496094 C 349.382812 526.417969 350.136719 527.167969 351.0625 527.167969 C 353.203125 527.167969 354.945312 528.90625 354.945312 531.046875 C 354.945312 531.972656 355.699219 532.722656 356.625 532.722656 C 357.550781 532.722656 358.300781 531.972656 358.300781 531.046875 C 358.300781 528.910156 360.042969 527.167969 362.1875 527.167969 C 363.113281 527.167969 363.863281 526.417969 363.863281 525.496094 C 363.863281 524.570312 363.113281 523.820312 362.1875 523.820312 Z M 326.132812 531.875 C 323.992188 531.875 322.246094 530.132812 322.246094 527.996094 C 322.246094 527.070312 321.496094 526.320312 320.570312 526.320312 C 319.644531 526.320312 318.894531 527.070312 318.894531 527.996094 C 318.894531 530.132812 317.148438 531.875 315.007812 531.875 C 314.082031 531.875 313.332031 532.625 313.332031 533.546875 C 313.332031 534.472656 314.082031 535.222656 315.007812 535.222656 C 317.148438 535.222656 318.894531 536.960938 318.894531 539.101562 C 318.894531 540.027344 319.644531 540.777344 320.570312 540.777344 C 321.496094 540.777344 322.246094 540.027344 322.246094 539.101562 C 322.246094 536.964844 323.992188 535.222656 326.132812 535.222656 C 327.058594 535.222656 327.808594 534.472656 327.808594 533.546875 C 327.808594 532.625 327.058594 531.875 326.132812 531.875 Z M 499.449219 531.875 C 497.308594 531.875 495.5625 530.132812 495.5625 527.996094 C 495.5625 527.070312 494.8125 526.320312 493.886719 526.320312 C 492.960938 526.320312 492.210938 527.070312 492.210938 527.996094 C 492.210938 530.132812 490.46875 531.875 488.324219 531.875 C 487.398438 531.875 486.648438 532.625 486.648438 533.546875 C 486.648438 534.472656 487.398438 535.222656 488.324219 535.222656 C 490.46875 535.222656 492.210938 536.960938 492.210938 539.101562 C 492.210938 540.027344 492.960938 540.777344 493.886719 540.777344 C 494.8125 540.777344 495.5625 540.027344 495.5625 539.101562 C 495.5625 536.964844 497.308594 535.222656 499.449219 535.222656 C 500.375 535.222656 501.128906 534.472656 501.128906 533.546875 C 501.128906 532.625 500.375 531.875 499.449219 531.875 Z M 408.910156 478.503906 L 408.410156 478.503906 C 408.496094 478.503906 408.578125 478.511719 408.660156 478.515625 C 408.746094 478.511719 408.824219 478.503906 408.910156 478.503906 Z M 363.289062 583.53125 C 363.289062 582.527344 362.476562 581.714844 361.472656 581.714844 L 355.074219 581.714844 C 354.070312 581.714844 353.253906 582.527344 353.253906 583.53125 C 353.253906 584.53125 354.070312 585.34375 355.074219 585.34375 L 361.472656 585.34375 C 362.476562 585.34375 363.289062 584.53125 363.289062 583.53125 Z M 348.09375 593.910156 L 338.785156 593.910156 C 337.78125 593.910156 336.96875 594.722656 336.96875 595.722656 C 336.96875 596.726562 337.78125 597.539062 338.785156 597.539062 L 348.09375 597.539062 C 349.097656 597.539062 349.910156 596.726562 349.910156 595.722656 C 349.910156 594.722656 349.097656 593.910156 348.09375 593.910156 Z M 330.0625 617.714844 L 319.011719 617.714844 C 318.007812 617.714844 317.191406 618.527344 317.191406 619.53125 C 317.191406 620.53125 318.007812 621.34375 319.011719 621.34375 L 330.0625 621.34375 C 331.066406 621.34375 331.878906 620.53125 331.878906 619.53125 C 331.878906 618.527344 331.066406 617.714844 330.0625 617.714844 Z M 452.792969 585.34375 L 459.191406 585.34375 C 460.195312 585.34375 461.007812 584.53125 461.007812 583.53125 C 461.007812 582.527344 460.195312 581.714844 459.191406 581.714844 L 452.792969 581.714844 C 451.789062 581.714844 450.972656 582.527344 450.972656 583.53125 C 450.972656 584.53125 451.789062 585.34375 452.792969 585.34375 Z M 466.171875 597.539062 L 475.476562 597.539062 C 476.480469 597.539062 477.296875 596.726562 477.296875 595.722656 C 477.296875 594.722656 476.480469 593.910156 475.476562 593.910156 L 466.171875 593.910156 C 465.167969 593.910156 464.351562 594.722656 464.351562 595.722656 C 464.351562 596.726562 465.167969 597.539062 466.171875 597.539062 Z M 465.832031 629.375 L 452.742188 629.375 C 451.738281 629.375 450.925781 630.1875 450.925781 631.191406 C 450.925781 632.191406 451.738281 633.003906 452.742188 633.003906 L 465.832031 633.003906 C 466.835938 633.003906 467.648438 632.191406 467.648438 631.191406 C 467.648438 630.1875 466.835938 629.375 465.832031 629.375 Z M 420.65625 629.375 L 395.691406 629.375 C 394.6875 629.375 393.875 630.1875 393.875 631.191406 C 393.875 632.191406 394.6875 633.003906 395.691406 633.003906 L 420.65625 633.003906 C 421.660156 633.003906 422.472656 632.191406 422.472656 631.191406 C 422.472656 630.1875 421.660156 629.375 420.65625 629.375 Z M 420.65625 629.375 " fill-opacity="1" fill-rule="nonzero"/></g></svg>