<svg xmlns="http://www.w3.org/2000/svg" xmlns:xlink="http://www.w3.org/1999/xlink" width="1080" zoomAndPan="magnify" viewBox="0 0 810 809.999993" height="1080" preserveAspectRatio="xMidYMid meet" version="1.0"><defs><clipPath id="43e58cdae2"><path d="M 284.015625 234.839844 L 526.265625 234.839844 L 526.265625 647.339844 L 284.015625 647.339844 Z M 284.015625 234.839844 " clip-rule="nonzero"/></clipPath></defs><g clip-path="url(#43e58cdae2)"><path fill="#2e2e2e" d="M 512.398438 238.507812 C 515.246094 238.507812 517.824219 239.65625 519.6875 241.519531 C 521.554688 243.382812 522.707031 245.953125 522.707031 248.796875 L 522.707031 633.382812 C 522.707031 636.222656 521.554688 638.796875 519.6875 640.65625 C 517.824219 642.519531 515.246094 643.671875 512.398438 643.671875 L 297.882812 643.671875 C 295.035156 643.671875 292.460938 642.519531 290.59375 640.65625 C 288.726562 638.796875 287.574219 636.222656 287.574219 633.382812 L 287.574219 248.796875 C 287.574219 245.953125 288.726562 243.382812 290.59375 241.519531 C 292.460938 239.660156 295.035156 238.507812 297.882812 238.507812 L 512.398438 238.507812 M 512.398438 234.949219 L 297.882812 234.949219 C 294.175781 234.949219 290.695312 236.390625 288.074219 239.003906 C 285.453125 241.621094 284.011719 245.097656 284.011719 248.796875 L 284.011719 633.382812 C 284.011719 637.082031 285.453125 640.558594 288.074219 643.171875 C 290.695312 645.789062 294.175781 647.226562 297.882812 647.226562 L 512.398438 647.226562 C 516.105469 647.226562 519.589844 645.789062 522.207031 643.171875 C 524.828125 640.558594 526.269531 637.082031 526.269531 633.382812 L 526.269531 248.796875 C 526.269531 245.097656 524.828125 241.621094 522.207031 239.003906 C 519.589844 236.390625 516.105469 234.949219 512.398438 234.949219 Z M 399.710938 348.148438 L 403.382812 348.148438 L 403.382812 359.386719 C 403.382812 359.871094 403.550781 360.28125 403.890625 360.617188 C 404.234375 360.953125 404.644531 361.121094 405.121094 361.121094 C 405.597656 361.121094 406.003906 360.953125 406.34375 360.617188 C 406.679688 360.28125 406.847656 359.871094 406.847656 359.386719 L 406.847656 348.148438 L 410.53125 348.148438 C 411.007812 348.148438 411.417969 347.980469 411.761719 347.644531 C 412.097656 347.308594 412.269531 346.902344 412.269531 346.425781 C 412.269531 345.949219 412.097656 345.542969 411.761719 345.207031 C 411.417969 344.863281 411.007812 344.691406 410.53125 344.691406 L 399.710938 344.691406 C 399.226562 344.691406 398.816406 344.863281 398.480469 345.207031 C 398.144531 345.542969 397.972656 345.949219 397.972656 346.425781 C 397.972656 346.902344 398.144531 347.308594 398.480469 347.644531 C 398.816406 347.980469 399.226562 348.148438 399.710938 348.148438 Z M 487.734375 427.738281 C 487.558594 427.460938 487.324219 427.25 487.03125 427.105469 L 474.03125 420.617188 C 473.609375 420.40625 473.167969 420.375 472.714844 420.527344 C 472.261719 420.675781 471.925781 420.964844 471.714844 421.398438 C 471.5 421.820312 471.472656 422.257812 471.625 422.714844 C 471.773438 423.167969 472.0625 423.5 472.492188 423.710938 L 474.78125 424.855469 L 474.78125 432.4375 L 472.492188 433.589844 C 472.191406 433.738281 471.953125 433.953125 471.777344 434.238281 C 471.609375 434.515625 471.527344 434.816406 471.527344 435.136719 C 471.527344 435.410156 471.589844 435.664062 471.714844 435.90625 C 471.925781 436.332031 472.257812 436.621094 472.714844 436.773438 C 473.167969 436.925781 473.609375 436.894531 474.03125 436.675781 L 487.03125 430.199219 C 487.324219 430.050781 487.558594 429.839844 487.734375 429.5625 C 487.902344 429.285156 487.988281 428.980469 487.988281 428.652344 C 487.988281 428.320312 487.902344 428.019531 487.734375 427.738281 Z M 478.246094 430.714844 L 478.246094 426.585938 L 482.378906 428.652344 Z M 409.296875 492.035156 C 408.820312 492.035156 408.414062 492.203125 408.078125 492.539062 C 407.738281 492.875 407.570312 493.285156 407.570312 493.769531 L 407.570312 496.359375 L 403.523438 496.359375 L 399.699219 492.539062 C 399.359375 492.203125 398.953125 492.035156 398.476562 492.035156 C 398 492.035156 397.589844 492.203125 397.246094 492.539062 C 396.910156 492.875 396.742188 493.285156 396.742188 493.769531 C 396.742188 494.246094 396.910156 494.652344 397.246094 494.988281 L 399.566406 497.304688 C 398.703125 497.851562 398.019531 498.570312 397.519531 499.453125 C 397 500.367188 396.742188 501.351562 396.742188 502.40625 C 396.742188 504.074219 397.332031 505.5 398.519531 506.6875 C 399.710938 507.871094 401.136719 508.464844 402.808594 508.464844 L 409.296875 508.464844 C 409.78125 508.464844 410.191406 508.292969 410.527344 507.949219 C 410.867188 507.613281 411.035156 507.207031 411.035156 506.730469 L 411.035156 493.769531 C 411.035156 493.285156 410.863281 492.875 410.527344 492.539062 C 410.191406 492.203125 409.78125 492.035156 409.296875 492.035156 Z M 407.570312 505.007812 L 402.808594 505.007812 C 402.089844 505.007812 401.480469 504.75 400.972656 504.238281 C 400.460938 503.734375 400.203125 503.125 400.203125 502.40625 C 400.203125 501.695312 400.460938 501.085938 400.972656 500.574219 C 401.480469 500.066406 402.089844 499.816406 402.808594 499.816406 L 407.570312 499.816406 Z M 331.671875 418.929688 C 329.40625 418.929688 327.464844 419.734375 325.855469 421.34375 C 324.25 422.945312 323.445312 424.882812 323.445312 427.152344 C 323.445312 429.410156 324.25 431.347656 325.855469 432.957031 C 327.464844 434.558594 329.40625 435.359375 331.671875 435.359375 C 333.941406 435.359375 335.882812 434.558594 337.488281 432.957031 C 339.101562 431.347656 339.90625 429.410156 339.90625 427.152344 C 339.90625 424.882812 339.101562 422.945312 337.488281 421.34375 C 335.882812 419.734375 333.941406 418.929688 331.671875 418.929688 Z M 335.046875 430.507812 C 334.109375 431.4375 332.984375 431.902344 331.671875 431.902344 C 330.359375 431.902344 329.238281 431.4375 328.304688 430.507812 C 327.375 429.578125 326.910156 428.460938 326.910156 427.152344 C 326.910156 425.839844 327.375 424.722656 328.304688 423.792969 C 329.238281 422.855469 330.359375 422.386719 331.671875 422.386719 C 332.984375 422.386719 334.109375 422.855469 335.046875 423.792969 C 335.976562 424.722656 336.441406 425.839844 336.441406 427.152344 C 336.441406 428.460938 335.976562 429.578125 335.046875 430.507812 Z M 325.0625 615.195312 L 312.734375 615.195312 C 312.183594 615.195312 311.71875 615.390625 311.332031 615.78125 C 310.949219 616.167969 310.757812 616.628906 310.757812 617.171875 C 310.757812 617.714844 310.949219 618.175781 311.332031 618.558594 C 311.71875 618.941406 312.183594 619.132812 312.734375 619.132812 L 316.921875 619.132812 L 316.921875 631.9375 C 316.921875 632.488281 317.113281 632.957031 317.496094 633.339844 C 317.890625 633.722656 318.355469 633.914062 318.898438 633.914062 C 319.441406 633.914062 319.90625 633.722656 320.289062 633.339844 C 320.671875 632.957031 320.867188 632.488281 320.867188 631.9375 L 320.867188 619.132812 L 325.0625 619.132812 C 325.605469 619.132812 326.074219 618.941406 326.464844 618.558594 C 326.847656 618.175781 327.042969 617.714844 327.042969 617.171875 C 327.042969 616.628906 326.847656 616.167969 326.464844 615.78125 C 326.074219 615.390625 325.605469 615.195312 325.0625 615.195312 Z M 346.316406 615.195312 C 345.777344 615.195312 345.3125 615.390625 344.929688 615.78125 C 344.542969 616.167969 344.351562 616.628906 344.351562 617.171875 L 344.351562 622.585938 L 335.957031 622.585938 L 335.957031 617.171875 C 335.957031 616.628906 335.765625 616.167969 335.382812 615.78125 C 335 615.390625 334.535156 615.195312 333.992188 615.195312 C 333.441406 615.195312 332.972656 615.390625 332.589844 615.78125 C 332.203125 616.167969 332.015625 616.628906 332.015625 617.171875 L 332.015625 631.9375 C 332.015625 632.488281 332.203125 632.957031 332.589844 633.339844 C 332.972656 633.722656 333.441406 633.914062 333.992188 633.914062 C 334.535156 633.914062 335 633.722656 335.382812 633.339844 C 335.765625 632.957031 335.957031 632.488281 335.957031 631.9375 L 335.957031 626.523438 L 344.351562 626.523438 L 344.351562 631.9375 C 344.351562 632.488281 344.542969 632.957031 344.929688 633.339844 C 345.3125 633.722656 345.777344 633.914062 346.316406 633.914062 C 346.859375 633.914062 347.328125 633.722656 347.722656 633.339844 C 348.105469 632.957031 348.296875 632.488281 348.296875 631.9375 L 348.296875 617.171875 C 348.296875 616.628906 348.105469 616.167969 347.722656 615.78125 C 347.328125 615.390625 346.859375 615.195312 346.316406 615.195312 Z M 369.054688 619.132812 C 369.597656 619.132812 370.0625 618.941406 370.457031 618.558594 C 370.839844 618.175781 371.03125 617.714844 371.03125 617.171875 C 371.03125 616.628906 370.839844 616.167969 370.457031 615.78125 C 370.0625 615.390625 369.597656 615.195312 369.054688 615.195312 L 356.726562 615.195312 C 356.175781 615.195312 355.710938 615.390625 355.324219 615.78125 C 354.941406 616.167969 354.75 616.628906 354.75 617.171875 L 354.75 631.9375 C 354.75 632.488281 354.941406 632.957031 355.324219 633.339844 C 355.710938 633.722656 356.175781 633.914062 356.726562 633.914062 L 369.054688 633.914062 C 369.597656 633.914062 370.0625 633.722656 370.457031 633.339844 C 370.839844 632.957031 371.03125 632.488281 371.03125 631.9375 C 371.03125 631.394531 370.839844 630.933594 370.457031 630.550781 C 370.0625 630.167969 369.597656 629.976562 369.054688 629.976562 L 358.695312 629.976562 L 358.695312 626.523438 L 366.585938 626.523438 C 367.128906 626.523438 367.59375 626.332031 367.988281 625.949219 C 368.371094 625.566406 368.566406 625.101562 368.566406 624.558594 C 368.566406 624.011719 368.371094 623.542969 367.988281 623.160156 C 367.59375 622.777344 367.128906 622.585938 366.585938 622.585938 L 358.695312 622.585938 L 358.695312 619.132812 Z M 413.417969 615.410156 C 412.925781 615.167969 412.679688 615.046875 412.679688 615.046875 C 412.679688 615.046875 412.421875 615.128906 411.902344 615.296875 C 411.394531 615.472656 411.015625 615.800781 410.765625 616.28125 L 405.128906 627.535156 L 403.636719 624.5625 L 406.894531 618.046875 C 407.144531 617.5625 407.183594 617.0625 407.007812 616.546875 C 406.832031 616.027344 406.503906 615.648438 406.019531 615.40625 C 405.535156 615.164062 405.03125 615.128906 404.515625 615.296875 C 403.996094 615.472656 403.617188 615.800781 403.375 616.28125 L 401.433594 620.160156 L 399.503906 616.308594 C 399.253906 615.816406 398.875 615.488281 398.363281 615.320312 C 397.847656 615.144531 397.339844 615.179688 396.847656 615.421875 C 396.363281 615.664062 396.035156 616.042969 395.859375 616.558594 C 395.691406 617.074219 395.730469 617.578125 395.972656 618.070312 L 399.226562 624.5625 L 397.738281 627.535156 L 392.101562 616.308594 C 391.859375 615.816406 391.476562 615.488281 390.960938 615.320312 C 390.441406 615.144531 389.9375 615.179688 389.445312 615.421875 C 388.960938 615.664062 388.636719 616.042969 388.46875 616.558594 C 388.292969 617.078125 388.324219 617.578125 388.566406 618.070312 L 395.972656 632.824219 C 396.136719 633.160156 396.378906 633.421875 396.695312 633.613281 C 397.015625 633.8125 397.359375 633.914062 397.738281 633.914062 C 398.113281 633.914062 398.460938 633.8125 398.777344 633.613281 C 399.09375 633.421875 399.335938 633.160156 399.503906 632.824219 L 401.433594 628.960938 L 403.375 632.824219 C 403.542969 633.160156 403.78125 633.421875 404.101562 633.613281 C 404.417969 633.8125 404.765625 633.914062 405.140625 633.914062 C 405.507812 633.914062 405.847656 633.8125 406.167969 633.613281 C 406.484375 633.421875 406.726562 633.160156 406.894531 632.824219 L 414.296875 618.046875 C 414.539062 617.5625 414.574219 617.0625 414.410156 616.546875 C 414.234375 616.03125 413.90625 615.648438 413.417969 615.410156 Z M 433.789062 615.195312 C 433.246094 615.195312 432.78125 615.390625 432.398438 615.78125 C 432.011719 616.167969 431.820312 616.628906 431.820312 617.171875 L 431.820312 622.585938 L 423.429688 622.585938 L 423.429688 617.171875 C 423.429688 616.628906 423.234375 616.167969 422.851562 615.78125 C 422.46875 615.390625 422.003906 615.195312 421.460938 615.195312 C 420.910156 615.195312 420.441406 615.390625 420.058594 615.78125 C 419.675781 616.167969 419.484375 616.628906 419.484375 617.171875 L 419.484375 631.9375 C 419.484375 632.488281 419.675781 632.957031 420.058594 633.339844 C 420.441406 633.722656 420.910156 633.914062 421.460938 633.914062 C 422.003906 633.914062 422.46875 633.722656 422.851562 633.339844 C 423.234375 632.957031 423.429688 632.488281 423.429688 631.9375 L 423.429688 626.523438 L 431.820312 626.523438 L 431.820312 631.9375 C 431.820312 632.488281 432.011719 632.957031 432.398438 633.339844 C 432.78125 633.722656 433.246094 633.914062 433.789062 633.914062 C 434.332031 633.914062 434.800781 633.722656 435.191406 633.339844 C 435.574219 632.957031 435.765625 632.488281 435.765625 631.9375 L 435.765625 617.171875 C 435.765625 616.628906 435.574219 616.167969 435.191406 615.78125 C 434.800781 615.390625 434.332031 615.195312 433.789062 615.195312 Z M 456.523438 619.132812 C 457.066406 619.132812 457.53125 618.941406 457.925781 618.558594 C 458.308594 618.175781 458.503906 617.714844 458.503906 617.171875 C 458.503906 616.628906 458.308594 616.167969 457.925781 615.78125 C 457.53125 615.390625 457.066406 615.195312 456.523438 615.195312 L 444.195312 615.195312 C 443.644531 615.195312 443.175781 615.390625 442.792969 615.78125 C 442.410156 616.167969 442.21875 616.628906 442.21875 617.171875 L 442.21875 631.9375 C 442.21875 632.488281 442.410156 632.957031 442.792969 633.339844 C 443.175781 633.722656 443.644531 633.914062 444.195312 633.914062 L 456.523438 633.914062 C 457.066406 633.914062 457.53125 633.722656 457.925781 633.339844 C 458.308594 632.957031 458.503906 632.488281 458.503906 631.9375 C 458.503906 631.394531 458.308594 630.933594 457.925781 630.550781 C 457.53125 630.167969 457.066406 629.976562 456.523438 629.976562 L 446.164062 629.976562 L 446.164062 626.523438 L 454.054688 626.523438 C 454.597656 626.523438 455.066406 626.332031 455.457031 625.949219 C 455.84375 625.566406 456.035156 625.101562 456.035156 624.558594 C 456.035156 624.011719 455.84375 623.542969 455.457031 623.160156 C 455.066406 622.777344 454.597656 622.585938 454.054688 622.585938 L 446.164062 622.585938 L 446.164062 619.132812 Z M 478.265625 619.132812 C 478.808594 619.132812 479.277344 618.941406 479.671875 618.558594 C 480.054688 618.175781 480.246094 617.714844 480.246094 617.171875 C 480.246094 616.628906 480.054688 616.167969 479.671875 615.78125 C 479.277344 615.390625 478.808594 615.195312 478.265625 615.195312 L 465.941406 615.195312 C 465.390625 615.195312 464.921875 615.390625 464.539062 615.78125 C 464.152344 616.167969 463.964844 616.628906 463.964844 617.171875 L 463.964844 631.9375 C 463.964844 632.488281 464.152344 632.957031 464.539062 633.339844 C 464.921875 633.722656 465.390625 633.914062 465.941406 633.914062 L 478.265625 633.914062 C 478.808594 633.914062 479.277344 633.722656 479.671875 633.339844 C 480.054688 632.957031 480.246094 632.488281 480.246094 631.9375 C 480.246094 631.394531 480.054688 630.933594 479.671875 630.550781 C 479.277344 630.167969 478.808594 629.976562 478.265625 629.976562 L 467.90625 629.976562 L 467.90625 626.523438 L 475.800781 626.523438 C 476.34375 626.523438 476.808594 626.332031 477.203125 625.949219 C 477.585938 625.566406 477.777344 625.101562 477.777344 624.558594 C 477.777344 624.011719 477.585938 623.542969 477.203125 623.160156 C 476.808594 622.777344 476.34375 622.585938 475.800781 622.585938 L 467.90625 622.585938 L 467.90625 619.132812 Z M 497.542969 629.976562 L 489.652344 629.976562 L 489.652344 617.171875 C 489.652344 616.628906 489.460938 616.167969 489.078125 615.78125 C 488.691406 615.390625 488.230469 615.195312 487.6875 615.195312 C 487.136719 615.195312 486.667969 615.390625 486.285156 615.78125 C 485.898438 616.167969 485.707031 616.628906 485.707031 617.171875 L 485.707031 631.9375 C 485.707031 632.488281 485.898438 632.957031 486.285156 633.339844 C 486.667969 633.722656 487.136719 633.914062 487.6875 633.914062 L 497.542969 633.914062 C 498.085938 633.914062 498.554688 633.722656 498.949219 633.339844 C 499.332031 632.957031 499.523438 632.488281 499.523438 631.9375 C 499.523438 631.398438 499.332031 630.933594 498.949219 630.550781 C 498.554688 630.167969 498.085938 629.976562 497.542969 629.976562 Z M 397.011719 275.035156 C 397.0625 275.578125 397.296875 276.019531 397.710938 276.363281 C 398.070312 276.671875 398.492188 276.824219 398.976562 276.824219 C 399.585938 276.824219 400.09375 276.585938 400.492188 276.113281 L 405.140625 270.546875 L 409.789062 276.113281 C 410.1875 276.585938 410.695312 276.824219 411.304688 276.824219 C 411.78125 276.824219 412.199219 276.671875 412.570312 276.363281 C 412.984375 276.019531 413.21875 275.578125 413.269531 275.035156 C 413.320312 274.496094 413.171875 274.015625 412.820312 273.597656 L 407.707031 267.472656 L 412.820312 261.34375 C 413.171875 260.929688 413.320312 260.449219 413.269531 259.90625 C 413.21875 259.363281 412.984375 258.917969 412.570312 258.570312 C 412.152344 258.21875 411.671875 258.070312 411.128906 258.117188 C 410.585938 258.167969 410.140625 258.402344 409.789062 258.820312 L 405.140625 264.394531 L 400.492188 258.820312 C 400.144531 258.402344 399.695312 258.167969 399.152344 258.117188 C 398.609375 258.070312 398.128906 258.21875 397.714844 258.570312 C 397.296875 258.917969 397.0625 259.363281 397.011719 259.90625 C 396.960938 260.449219 397.113281 260.929688 397.460938 261.34375 L 402.574219 267.472656 L 397.460938 273.597656 C 397.113281 274.015625 396.960938 274.496094 397.011719 275.035156 Z M 499.082031 585.597656 C 498.742188 585.355469 498.351562 585.238281 497.964844 585.238281 C 497.371094 585.238281 496.789062 585.511719 496.414062 586.03125 C 495.898438 586.746094 494.859375 587.515625 493.800781 587.515625 C 493.699219 587.515625 493.558594 587.523438 493.386719 587.539062 C 493.234375 587.550781 493.085938 587.5625 492.949219 587.5625 C 492.691406 587.5625 492.46875 587.527344 492.335938 587.402344 C 492.214844 587.289062 491.820312 586.796875 491.820312 585.132812 C 491.820312 583.289062 492.96875 580.984375 494.191406 578.542969 C 495.910156 575.101562 497.859375 571.199219 497.859375 566.578125 C 497.859375 561.789062 494.945312 556.957031 488.429688 556.957031 C 485.949219 556.957031 483.839844 557.800781 482.328125 559.394531 C 480.644531 561.164062 479.730469 563.886719 479.882812 566.679688 C 479.953125 567.972656 480.253906 569.171875 480.652344 570.296875 C 480.484375 570.285156 480.316406 570.273438 480.144531 570.273438 C 476.125 570.273438 472.851562 573.539062 472.851562 577.550781 C 472.851562 581.5625 476.125 584.828125 480.144531 584.828125 C 484.164062 584.828125 487.433594 581.5625 487.433594 577.550781 C 487.433594 576.417969 487.164062 575.347656 486.703125 574.390625 C 486.394531 573.644531 486.027344 572.898438 485.644531 572.128906 C 484.738281 570.3125 483.804688 568.429688 483.699219 566.472656 C 483.625 565.109375 483.953125 563.222656 485.101562 562.015625 C 485.898438 561.179688 486.984375 560.769531 488.429688 560.769531 C 493.632812 560.769531 494.039062 565.214844 494.039062 566.578125 C 494.039062 570.300781 492.378906 573.625 490.769531 576.84375 C 489.34375 579.695312 487.996094 582.390625 487.996094 585.136719 C 487.996094 587.433594 488.585938 589.144531 489.75 590.210938 C 490.832031 591.203125 492.109375 591.375 492.976562 591.375 C 493.277344 591.375 493.527344 591.355469 493.707031 591.339844 L 493.800781 591.332031 C 496.378906 591.332031 498.492188 589.675781 499.515625 588.261719 C 500.132812 587.40625 499.9375 586.214844 499.082031 585.597656 Z M 480.144531 581.011719 C 478.230469 581.011719 476.675781 579.460938 476.675781 577.550781 C 476.675781 575.640625 478.230469 574.085938 480.144531 574.085938 C 481.492188 574.085938 482.652344 574.867188 483.226562 575.996094 C 483.457031 576.582031 483.613281 577.117188 483.613281 577.550781 C 483.613281 579.460938 482.058594 581.011719 480.144531 581.011719 Z M 338.984375 558.75 C 335.648438 558.75 333.789062 561.53125 331.988281 564.222656 C 330.03125 567.152344 328.179688 569.917969 324.5625 569.917969 C 320.945312 569.917969 319.09375 567.148438 317.136719 564.222656 C 315.335938 561.53125 313.476562 558.75 310.136719 558.75 C 309.132812 558.75 308.316406 559.566406 308.316406 560.570312 C 308.316406 561.570312 309.132812 562.386719 310.136719 562.386719 C 311.433594 562.386719 312.5 563.84375 314.105469 566.242188 C 315.320312 568.058594 316.703125 570.121094 318.65625 571.59375 C 315.410156 573.582031 313.234375 577.152344 313.234375 581.222656 C 313.234375 587.460938 318.316406 592.535156 324.5625 592.535156 C 330.808594 592.535156 335.890625 587.460938 335.890625 581.222656 C 335.890625 577.152344 333.714844 573.582031 330.46875 571.59375 C 332.417969 570.121094 333.800781 568.058594 335.019531 566.242188 C 336.625 563.84375 337.691406 562.386719 338.988281 562.386719 C 339.992188 562.386719 340.808594 561.570312 340.808594 560.570312 C 340.808594 559.566406 339.992188 558.75 338.984375 558.75 Z M 332.25 581.226562 C 332.25 585.457031 328.800781 588.898438 324.5625 588.898438 C 320.324219 588.898438 316.875 585.457031 316.875 581.226562 C 316.875 576.992188 320.324219 573.550781 324.5625 573.550781 C 328.800781 573.550781 332.25 576.992188 332.25 581.226562 Z M 497.03125 426.351562 C 497.03125 375.773438 455.808594 334.625 405.140625 334.625 C 354.472656 334.625 313.253906 375.773438 313.253906 426.351562 C 313.253906 476.929688 354.472656 518.078125 405.140625 518.078125 C 455.808594 518.078125 497.03125 476.929688 497.03125 426.351562 Z M 405.140625 514.503906 C 356.449219 514.503906 316.832031 474.960938 316.832031 426.351562 C 316.832031 377.746094 356.449219 338.199219 405.140625 338.199219 C 453.835938 338.199219 493.449219 377.746094 493.449219 426.351562 C 493.449219 474.960938 453.835938 514.503906 405.140625 514.503906 Z M 466.285156 426.5625 C 466.285156 393.367188 439.230469 366.363281 405.980469 366.363281 C 372.726562 366.363281 345.671875 393.367188 345.671875 426.5625 C 345.671875 459.753906 372.726562 486.757812 405.980469 486.757812 C 439.230469 486.757812 466.285156 459.753906 466.285156 426.5625 Z M 349.25 426.5625 C 349.25 395.335938 374.699219 369.933594 405.980469 369.933594 C 437.257812 369.933594 462.703125 395.335938 462.703125 426.5625 C 462.703125 457.785156 437.257812 483.1875 405.980469 483.1875 C 374.699219 483.1875 349.25 457.785156 349.25 426.5625 Z M 410.574219 474.394531 C 410.574219 473.40625 409.773438 472.609375 408.785156 472.609375 L 406.722656 472.609375 L 406.722656 448.441406 C 411.550781 448.007812 415.921875 446.003906 419.34375 442.949219 L 436.761719 460.335938 L 435.296875 461.800781 C 434.597656 462.5 434.597656 463.632812 435.296875 464.328125 C 435.644531 464.675781 436.101562 464.851562 436.5625 464.851562 C 437.019531 464.851562 437.476562 464.675781 437.824219 464.328125 L 440.539062 461.617188 C 440.546875 461.613281 440.554688 461.609375 440.5625 461.605469 C 440.566406 461.597656 440.570312 461.589844 440.574219 461.582031 L 443.289062 458.871094 C 443.988281 458.175781 443.988281 457.042969 443.289062 456.347656 C 442.589844 455.648438 441.457031 455.648438 440.757812 456.347656 L 439.292969 457.8125 L 421.820312 440.371094 C 424.554688 436.992188 426.292969 432.789062 426.621094 428.199219 L 451.210938 428.199219 L 451.210938 430.257812 C 451.210938 431.246094 452.011719 432.042969 453 432.042969 C 453.988281 432.042969 454.789062 431.246094 454.789062 430.257812 L 454.789062 422.542969 C 454.789062 421.554688 453.988281 420.757812 453 420.757812 C 452.011719 420.757812 451.210938 421.554688 451.210938 422.542969 L 451.210938 424.628906 L 426.597656 424.628906 C 426.1875 420.09375 424.394531 415.957031 421.636719 412.640625 L 439.285156 395.023438 L 440.539062 396.277344 C 440.890625 396.625 441.347656 396.800781 441.804688 396.800781 C 442.265625 396.800781 442.722656 396.625 443.070312 396.277344 C 443.769531 395.578125 443.769531 394.445312 443.070312 393.75 L 440.601562 391.285156 C 440.582031 391.265625 440.578125 391.242188 440.5625 391.222656 C 440.542969 391.207031 440.519531 391.203125 440.5 391.183594 L 437.605469 388.296875 C 436.90625 387.597656 435.773438 387.597656 435.074219 388.296875 C 434.378906 388.992188 434.375 390.125 435.074219 390.820312 L 436.753906 392.496094 L 419.125 410.097656 C 415.734375 407.15625 411.445312 405.226562 406.722656 404.804688 L 406.722656 380.195312 L 408.785156 380.195312 C 409.773438 380.195312 410.574219 379.394531 410.574219 378.40625 C 410.574219 377.421875 409.773438 376.621094 408.785156 376.621094 L 401.054688 376.621094 C 400.070312 376.621094 399.265625 377.421875 399.265625 378.40625 C 399.265625 379.394531 400.070312 380.195312 401.054688 380.195312 L 403.140625 380.195312 L 403.140625 404.785156 C 398.550781 405.117188 394.351562 406.847656 390.96875 409.574219 L 373.828125 392.464844 L 375.296875 391 C 375.996094 390.304688 375.996094 389.171875 375.296875 388.472656 C 374.597656 387.777344 373.464844 387.777344 372.765625 388.472656 L 367.300781 393.929688 C 366.601562 394.625 366.601562 395.757812 367.300781 396.453125 C 367.652344 396.804688 368.109375 396.976562 368.566406 396.976562 C 369.023438 396.976562 369.480469 396.804688 369.832031 396.453125 L 371.300781 394.988281 L 388.386719 412.046875 C 385.335938 415.460938 383.324219 419.816406 382.886719 424.628906 L 358.632812 424.628906 L 358.632812 422.542969 C 358.632812 421.554688 357.832031 420.757812 356.84375 420.757812 C 355.855469 420.757812 355.054688 421.554688 355.054688 422.542969 L 355.054688 430.257812 C 355.054688 431.246094 355.855469 432.042969 356.84375 432.042969 C 357.832031 432.042969 358.632812 431.246094 358.632812 430.257812 L 358.632812 428.199219 L 382.863281 428.199219 C 383.214844 433.074219 385.160156 437.5 388.1875 440.976562 L 371.292969 457.84375 L 369.613281 456.167969 C 368.914062 455.46875 367.78125 455.46875 367.082031 456.167969 C 366.382812 456.863281 366.382812 457.996094 367.082031 458.695312 L 372.546875 464.148438 C 372.894531 464.496094 373.355469 464.671875 373.8125 464.671875 C 374.269531 464.671875 374.726562 464.496094 375.078125 464.148438 C 375.777344 463.453125 375.777344 462.320312 375.078125 461.621094 L 373.824219 460.371094 L 390.734375 443.488281 C 394.152344 446.320312 398.449219 448.121094 403.140625 448.460938 L 403.140625 472.609375 L 401.058594 472.609375 C 400.070312 472.609375 399.265625 473.40625 399.265625 474.394531 C 399.265625 475.382812 400.070312 476.179688 401.058594 476.179688 L 408.785156 476.179688 C 409.773438 476.179688 410.574219 475.382812 410.574219 474.394531 Z M 419.269531 437.824219 L 409.628906 428.199219 L 423.042969 428.199219 C 422.730469 431.808594 421.371094 435.113281 419.269531 437.824219 Z M 423.007812 424.628906 L 409.628906 424.628906 L 419.089844 415.183594 C 421.214844 417.835938 422.621094 421.078125 423.007812 424.628906 Z M 406.722656 408.386719 C 410.460938 408.789062 413.863281 410.316406 416.59375 412.621094 L 406.722656 422.476562 Z M 406.722656 430.351562 L 416.8125 440.425781 C 414.046875 442.835938 410.566406 444.445312 406.722656 444.859375 Z M 390.917969 414.574219 L 400.988281 424.628906 L 386.476562 424.628906 C 386.894531 420.796875 388.503906 417.328125 390.917969 414.574219 Z M 390.71875 438.453125 C 388.328125 435.632812 386.777344 432.089844 386.445312 428.199219 L 400.988281 428.199219 Z M 403.140625 444.890625 C 399.429688 444.566406 396.035156 443.144531 393.285156 440.945312 L 403.140625 431.101562 Z M 403.140625 421.726562 L 393.523438 412.125 C 396.234375 410.027344 399.535156 408.671875 403.140625 408.359375 Z M 456.910156 375.695312 C 458.121094 376.824219 461.101562 376.070312 462.234375 374.191406 C 463.363281 372.308594 462.796875 369.609375 462.796875 369.609375 C 462.796875 369.609375 461.703125 364.425781 459.820312 364.507812 C 457.933594 364.59375 456.238281 366.476562 457.179688 368.734375 C 458.121094 370.992188 459.144531 372.035156 458.527344 372.558594 C 457.90625 373.082031 455.699219 374.566406 456.910156 375.695312 Z M 463.480469 478.941406 C 461.40625 480.382812 458.140625 484.585938 458.140625 484.585938 C 458.140625 484.585938 450.914062 476.117188 449.46875 475.679688 C 448.023438 475.242188 447.207031 475.992188 446.953125 477.371094 C 446.703125 478.753906 453.363281 484.335938 453.804688 484.898438 C 454.242188 485.464844 457.382812 487.722656 457.382812 488.285156 C 457.382812 488.851562 457.886719 490.355469 459.582031 490.417969 C 461.28125 490.480469 460.714844 488.347656 460.714844 486.96875 C 460.714844 485.589844 464.359375 482.703125 466.304688 481.636719 C 468.253906 480.570312 469.257812 478.4375 468.566406 477.371094 C 467.878906 476.304688 465.554688 477.5 463.480469 478.941406 Z M 454.976562 468.554688 C 454.042969 469.320312 454.054688 471.101562 456.695312 473.234375 C 459.332031 475.367188 460.652344 476.808594 461.785156 475.867188 C 462.914062 474.925781 461.71875 472.605469 459.835938 470.535156 C 457.949219 468.464844 456.359375 467.425781 454.976562 468.554688 Z M 353.253906 368.144531 C 353.253906 368.144531 360.480469 376.613281 361.925781 377.050781 C 363.371094 377.488281 364.1875 376.738281 364.4375 375.359375 C 364.6875 373.976562 358.027344 368.394531 357.589844 367.832031 C 357.148438 367.265625 354.007812 365.007812 354.007812 364.445312 C 354.007812 363.878906 353.503906 362.375 351.808594 362.3125 C 350.113281 362.25 350.675781 364.382812 350.675781 365.761719 C 350.675781 367.140625 347.035156 370.027344 345.085938 371.09375 C 343.136719 372.160156 342.132812 374.292969 342.824219 375.359375 C 343.515625 376.421875 345.839844 375.230469 347.914062 373.789062 C 349.988281 372.347656 353.253906 368.144531 353.253906 368.144531 Z M 349.609375 376.863281 C 348.476562 377.804688 349.671875 380.125 351.558594 382.195312 C 353.441406 384.265625 355.03125 385.304688 356.414062 384.175781 C 357.347656 383.410156 357.335938 381.628906 354.699219 379.496094 C 352.058594 377.363281 350.738281 375.921875 349.609375 376.863281 Z M 348.90625 477.445312 C 347.398438 479.203125 346.394531 479.515625 346.519531 483.78125 C 346.644531 488.046875 347.460938 488.027344 348.53125 488.046875 C 350.730469 488.082031 350.667969 485.703125 350.667969 483.113281 C 350.667969 480.519531 352.386719 479.125 354.144531 477.089844 C 355.488281 475.53125 360.089844 472.492188 357.828125 470.484375 C 356.082031 468.933594 350.414062 475.691406 348.90625 477.445312 Z M 516.734375 441.089844 L 516.734375 248.796875 C 516.734375 247.636719 516.28125 246.550781 515.460938 245.730469 C 514.644531 244.910156 513.550781 244.460938 512.390625 244.460938 L 297.875 244.460938 C 296.714844 244.460938 295.625 244.910156 294.804688 245.730469 C 293.984375 246.550781 293.53125 247.636719 293.53125 248.796875 L 293.53125 474.300781 C 293.484375 474.5 293.46875 474.703125 293.492188 474.917969 C 293.5 474.976562 293.519531 475.035156 293.53125 475.09375 L 293.53125 502.84375 C 293.464844 503.125 293.472656 503.402344 293.53125 503.664062 L 293.53125 524.355469 C 293.5 524.5 293.476562 524.648438 293.480469 524.804688 C 293.484375 524.929688 293.503906 525.054688 293.53125 525.171875 L 293.53125 601.738281 C 293.5625 603.398438 294.914062 604.734375 296.585938 604.734375 L 384.570312 604.734375 C 384.574219 604.734375 384.574219 604.734375 384.574219 604.734375 C 384.578125 604.734375 384.578125 604.734375 384.578125 604.734375 L 513.589844 604.734375 C 515.28125 604.734375 516.75 603.269531 516.75 601.582031 Z M 456.222656 248.035156 L 512.390625 248.035156 C 512.601562 248.035156 512.785156 248.109375 512.933594 248.257812 C 513.082031 248.40625 513.15625 248.585938 513.15625 248.796875 L 513.15625 330.953125 C 497.691406 337.410156 485.6875 337.851562 477.488281 332.253906 C 464.863281 323.636719 465.269531 303.234375 465.273438 303.027344 C 465.285156 302.539062 465.101562 302.066406 464.753906 301.722656 C 464.414062 301.375 463.925781 301.15625 463.453125 301.191406 C 454.210938 301.34375 447.042969 298.90625 442.113281 293.894531 C 436.484375 288.175781 435.207031 280.457031 435.339844 276.796875 C 436.058594 256.871094 448.703125 250.234375 456.175781 248.050781 C 456.191406 248.046875 456.207031 248.039062 456.222656 248.035156 Z M 297.109375 248.796875 C 297.109375 248.585938 297.1875 248.40625 297.335938 248.257812 C 297.484375 248.109375 297.664062 248.035156 297.875 248.035156 L 378.082031 248.035156 C 378.445312 249.648438 378.578125 250.976562 378.605469 251.859375 C 378.9375 261.878906 376.46875 269.730469 371.273438 275.183594 C 363.851562 282.976562 353.207031 283.253906 353.105469 283.253906 C 352.199219 283.265625 351.445312 283.953125 351.351562 284.851562 C 349.625 300.980469 343.960938 311.957031 334.507812 317.476562 C 319.074219 326.484375 298.253906 318.078125 297.109375 317.601562 Z M 297.109375 476.460938 C 299.652344 476.589844 304.46875 477.539062 306.335938 482.738281 C 306.554688 483.34375 307.082031 483.785156 307.714844 483.894531 C 307.769531 483.90625 313.21875 484.898438 315.3125 488.628906 C 316.445312 490.648438 316.410156 493.21875 315.210938 496.269531 C 312.261719 503.753906 301.074219 502.515625 297.109375 501.816406 Z M 384.0625 601.160156 L 297.109375 601.160156 L 297.109375 526.546875 C 319.773438 527.125 325.003906 550.792969 325.222656 551.824219 C 325.367188 552.515625 325.910156 553.058594 326.601562 553.207031 C 327.296875 553.347656 328.007812 553.078125 328.421875 552.503906 C 338.328125 538.8125 355.082031 541.8125 357.75 542.933594 C 365.390625 546.144531 370.457031 550.71875 372.808594 556.535156 C 376.230469 565.003906 372.707031 573.394531 372.675781 573.472656 C 372.382812 574.140625 372.527344 574.914062 373.035156 575.433594 C 373.542969 575.953125 374.320312 576.109375 374.988281 575.839844 C 386.855469 571.011719 392.710938 580.363281 392.765625 580.457031 C 397.539062 588.652344 390.3125 597.203125 384.0625 601.160156 Z M 390 601.160156 C 396.71875 595.203125 400.441406 586.523438 395.859375 578.664062 C 394.0625 575.578125 387.449219 568.945312 377.0625 571.425781 C 377.960938 567.738281 378.695312 561.589844 376.144531 555.242188 C 373.429688 548.488281 367.707031 543.242188 359.140625 539.640625 C 354.40625 537.652344 338.320312 536.226562 327.730469 547.710938 C 325.1875 540.332031 317.191406 523.382812 297.109375 522.960938 L 297.109375 505.449219 C 298.605469 505.691406 300.703125 505.941406 303.03125 505.941406 C 308.757812 505.941406 315.839844 504.429688 318.539062 497.574219 C 320.15625 493.46875 320.117188 489.863281 318.421875 486.859375 C 316.113281 482.777344 311.410156 481.144531 309.332031 480.601562 C 306.734375 474.714844 301.050781 473.003906 297.109375 472.859375 L 297.109375 321.441406 C 300.328125 322.640625 308.355469 325.238281 317.53125 325.238281 C 323.652344 325.238281 330.273438 324.078125 336.296875 320.570312 C 346.492188 314.625 352.691406 303.242188 354.738281 286.71875 C 358.296875 286.351562 367.082031 284.742188 373.832031 277.683594 C 379.738281 271.503906 382.546875 262.777344 382.183594 251.738281 C 382.152344 250.84375 382.042969 249.566406 381.746094 248.035156 L 447.359375 248.035156 C 440.320312 252.226562 432.34375 260.515625 431.761719 276.667969 C 431.570312 281.921875 433.5 290.242188 439.558594 296.398438 C 444.871094 301.796875 452.316406 304.605469 461.710938 304.765625 C 461.890625 310.34375 463.453125 326.992188 475.453125 335.195312 C 479.867188 338.210938 485.160156 339.71875 491.296875 339.71875 C 497.683594 339.71875 504.992188 338.066406 513.15625 334.800781 L 513.15625 354.296875 C 507.890625 355.296875 504.234375 357.992188 502.582031 362.1875 C 500.964844 366.296875 501.003906 369.902344 502.699219 372.902344 C 505.648438 378.117188 512.507812 379.339844 512.800781 379.386719 C 512.902344 379.40625 513.003906 379.414062 513.105469 379.414062 C 513.121094 379.414062 513.136719 379.40625 513.15625 379.402344 L 513.15625 441.089844 L 513.164062 528.761719 C 511.730469 527.066406 509.957031 525.699219 507.839844 524.699219 C 502.121094 521.992188 494.910156 522.507812 490.296875 524.21875 C 478.328125 528.65625 476.484375 540.441406 476.296875 545.921875 C 467.441406 542.59375 458.523438 542.578125 450.921875 545.925781 C 443.351562 549.261719 437.839844 555.628906 434.984375 564.335938 C 430.949219 576.636719 434.339844 590.722656 443.582031 601.164062 L 390 601.164062 Z M 513.15625 357.917969 L 513.15625 375.8125 C 512.070312 375.566406 507.648438 374.386719 505.820312 371.148438 C 504.675781 369.128906 504.707031 366.550781 505.914062 363.496094 C 507.042969 360.628906 509.476562 358.757812 513.15625 357.917969 Z M 448.519531 601.160156 C 438.414062 591.5 434.433594 577.492188 438.386719 565.449219 C 440.917969 557.730469 445.753906 552.109375 452.367188 549.195312 C 459.761719 545.9375 468.648438 546.304688 477.394531 550.234375 C 477.976562 550.496094 478.65625 550.429688 479.175781 550.054688 C 479.695312 549.679688 479.972656 549.054688 479.90625 548.417969 C 479.890625 548.261719 478.375 532.449219 491.542969 527.566406 C 495.324219 526.164062 501.558594 525.679688 506.304688 527.925781 C 509.445312 529.414062 511.640625 531.921875 512.832031 535.382812 C 512.90625 535.605469 513.023438 535.796875 513.164062 535.964844 L 513.171875 601.160156 Z M 308.671875 267.402344 C 308.953125 267.402344 309.238281 267.324219 309.492188 267.164062 L 315.558594 263.339844 L 316.960938 266.484375 C 317.148438 266.90625 317.515625 267.222656 317.960938 267.347656 C 318.097656 267.382812 318.234375 267.402344 318.371094 267.402344 C 318.6875 267.402344 319 267.304688 319.261719 267.121094 L 324.464844 263.453125 L 325.714844 266.453125 C 325.898438 266.882812 326.265625 267.210938 326.714844 267.339844 C 326.855469 267.382812 327 267.402344 327.140625 267.402344 C 327.457031 267.402344 327.769531 267.304688 328.035156 267.121094 L 333.273438 263.425781 L 334.636719 266.484375 C 334.890625 267.058594 335.457031 267.402344 336.050781 267.402344 C 336.257812 267.402344 336.472656 267.359375 336.675781 267.269531 C 337.457031 266.921875 337.804688 266.011719 337.460938 265.234375 L 335.335938 260.457031 C 335.144531 260.035156 334.777344 259.71875 334.332031 259.597656 C 334.199219 259.558594 334.058594 259.539062 333.921875 259.539062 C 333.605469 259.539062 333.292969 259.636719 333.03125 259.824219 L 327.828125 263.488281 L 326.578125 260.488281 C 326.398438 260.058594 326.027344 259.730469 325.578125 259.601562 C 325.4375 259.5625 325.292969 259.542969 325.148438 259.542969 C 324.835938 259.542969 324.523438 259.636719 324.257812 259.824219 L 319.019531 263.515625 L 317.65625 260.457031 C 317.472656 260.046875 317.125 259.738281 316.695312 259.605469 C 316.546875 259.5625 316.398438 259.542969 316.246094 259.542969 C 315.957031 259.542969 315.671875 259.621094 315.421875 259.777344 L 307.84375 264.554688 C 307.125 265.011719 306.90625 265.964844 307.363281 266.683594 C 307.65625 267.148438 308.160156 267.402344 308.671875 267.402344 Z M 318.371094 279.425781 C 318.6875 279.425781 319 279.328125 319.261719 279.144531 L 324.464844 275.476562 L 325.714844 278.476562 C 325.898438 278.90625 326.265625 279.234375 326.714844 279.363281 C 326.855469 279.40625 327 279.425781 327.140625 279.425781 C 327.457031 279.425781 327.769531 279.328125 328.035156 279.144531 L 333.273438 275.449219 L 334.636719 278.507812 C 334.890625 279.082031 335.457031 279.425781 336.050781 279.425781 C 336.257812 279.425781 336.472656 279.382812 336.675781 279.292969 C 337.457031 278.945312 337.804688 278.035156 337.460938 277.253906 L 335.335938 272.480469 C 335.144531 272.058594 334.777344 271.742188 334.332031 271.621094 C 334.199219 271.582031 334.058594 271.5625 333.921875 271.5625 C 333.605469 271.5625 333.296875 271.660156 333.03125 271.847656 L 327.828125 275.511719 L 326.578125 272.511719 C 326.394531 272.082031 326.027344 271.753906 325.578125 271.625 C 325.4375 271.585938 325.292969 271.5625 325.152344 271.5625 C 324.835938 271.5625 324.523438 271.660156 324.257812 271.847656 L 319.019531 275.539062 L 317.660156 272.480469 C 317.476562 272.070312 317.125 271.761719 316.695312 271.628906 C 316.550781 271.585938 316.398438 271.566406 316.25 271.566406 C 315.960938 271.566406 315.671875 271.644531 315.421875 271.800781 L 307.84375 276.578125 C 307.125 277.03125 306.90625 277.984375 307.363281 278.707031 C 307.65625 279.171875 308.160156 279.425781 308.671875 279.425781 C 308.953125 279.425781 309.238281 279.347656 309.496094 279.1875 L 315.558594 275.363281 L 316.960938 278.507812 C 317.148438 278.929688 317.515625 279.246094 317.960938 279.367188 C 318.097656 279.40625 318.234375 279.425781 318.371094 279.425781 Z M 473.464844 259.792969 C 473.542969 259.832031 475.320312 260.808594 475.320312 264.734375 L 475.320312 279.949219 C 475.320312 280.976562 476.15625 281.8125 477.1875 281.8125 C 478.21875 281.8125 479.054688 280.976562 479.054688 279.949219 L 479.054688 267.414062 C 479.054688 262.609375 481.925781 260.789062 482.539062 260.761719 C 482.882812 260.761719 483.035156 260.785156 483.070312 260.785156 C 483.078125 260.785156 483.082031 260.78125 483.078125 260.78125 C 483.140625 260.847656 483.59375 261.460938 483.59375 264.734375 L 483.59375 279.949219 C 483.59375 280.976562 484.429688 281.8125 485.460938 281.8125 C 486.492188 281.8125 487.328125 280.976562 487.328125 279.949219 L 487.328125 267.414062 C 487.328125 262.609375 490.199219 260.789062 490.8125 260.761719 C 491.15625 260.761719 491.308594 260.785156 491.34375 260.785156 C 491.351562 260.785156 491.355469 260.78125 491.355469 260.78125 C 491.410156 260.84375 491.867188 261.457031 491.867188 264.734375 L 491.867188 278.6875 C 491.867188 284.855469 495.226562 286.269531 498.660156 286.597656 L 498.628906 286.625 C 497.875 287.324219 497.832031 288.503906 498.535156 289.257812 C 498.902344 289.652344 499.402344 289.851562 499.902344 289.851562 C 500.355469 289.851562 500.8125 289.6875 501.171875 289.355469 L 504.570312 286.199219 C 504.953125 285.84375 505.167969 285.34375 505.164062 284.824219 C 505.160156 284.300781 504.9375 283.804688 504.550781 283.457031 L 501.15625 280.378906 C 500.796875 280.058594 500.347656 279.898438 499.902344 279.898438 C 499.394531 279.898438 498.886719 280.101562 498.519531 280.507812 C 497.914062 281.171875 497.914062 282.140625 498.421875 282.839844 C 496.304688 282.546875 495.601562 281.621094 495.601562 278.6875 L 495.601562 264.734375 C 495.601562 259.980469 494.800781 257.035156 490.8125 257.035156 C 489.472656 257.035156 487.863281 257.804688 486.503906 259.265625 C 485.816406 257.835938 484.609375 257.035156 482.539062 257.035156 C 481.117188 257.035156 479.390625 257.902344 477.980469 259.542969 C 476.875 257.296875 475.273438 256.515625 475.007812 256.398438 C 474.761719 256.296875 474.507812 256.246094 474.253906 256.246094 C 473.527344 256.246094 472.824219 256.65625 472.523438 257.359375 C 472.113281 258.300781 472.519531 259.386719 473.464844 259.792969 Z M 473.464844 259.792969 " fill-opacity="1" fill-rule="nonzero"/></g></svg>