<?xml version="1.0" encoding="UTF-8"?>
<svg id="Layer_1" data-name="Layer 1" xmlns="http://www.w3.org/2000/svg" viewBox="0 0 1215.18 1453.46">
  <defs>
    <style>
      .cls-1 {
        fill: none;
        stroke: #000;
        stroke-linecap: round;
        stroke-linejoin: round;
        stroke-width: 15.18px;
      }
    </style>
  </defs>
  <path class="cls-1" d="M696.85,1343.43h510.74V13.35c-15.95-7.85-29.04-5.4-41.74-5.4-319.98-.12-639.97.34-959.95-.33C90.39,7.38,6.17,85.94,7.61,205.16c3.19,265.56-.79,531.21,2.48,796.76.67,54.51-2.36,108.77-1.79,163.17,1.07,102.62,76.01,178.33,178.64,178.33h324.41"/>
  <path class="cls-1" d="M1196.21,964c-336.42,0-672.85.33-1009.27-.32-59.01-.11-106.94,17.94-140.69,68.41-6.34,9.47-25.95,31.3-36.7,36.68"/>
  <path class="cls-1" d="M930.61,1153.71H285.58"/>
  <path class="cls-1" d="M699.16,1161.3c-.73,104.98-4.03,179.67-11.38,284.57"/>
  <path class="cls-1" d="M517.03,1161.3c.74,104.98,4.2,179.67,11.38,284.57"/>
  <path class="cls-1" d="M528.42,1445.87c23.1-1.76,34.02-20.95,49.49-33.95,21.95-18.44,43.84-21.84,64.5,3.46,11.84,14.49,26.27,26.25,45.36,30.49"/>
  <path class="cls-1" d="M315.94,182.39c-75.92,13.68-88.24,56.53-87.68,113.83,1.29,130.26.31,260.53.45,390.8.07,62.22,32.92,94.86,94.81,94.86h569.14c58.92,0,93.72-29.62,94.35-87.27,1.55-141.64,1.69-283.31-.08-424.94-.7-56.17-40.58-87.05-105.65-87.16-187.18-.33-374.37-.11-561.55-.11"/>
  <path class="cls-1" d="M232.46,98.91c-84.47,21.18-109.86,53.21-109.97,140.39-.21,164.42-.05,328.84-.07,493.25,0,47.22,10.96,89.7,53.24,117.45,15.79,10.36,33.04,15.76,53.01,15.72,252.95-.55,505.9-.22,758.85-.47,59.94-.06,104.85-46.85,105.62-117.52,1.9-174.51,2.48-349.09-.11-523.59-1.43-96.32-63.58-125.33-132.07-125.28-241.57.16-483.14.06-724.7.06"/>
  <path d="M588.98,284.72c10.51,0,20.5,2.97,26.09,7.76,2.29,1.96,6.39,8.09,9.8,16.02,3.31,7.7,4.35,13.27,3.95,15.77-.86.33-3.02.81-7.11.81-3.85,0-7.52-.42-9.71-.81-.38-1.26-.74-2.55-1.08-3.81-2.52-9.17-5.67-20.59-21-20.59-.24,0-.49,0-.74,0-12.58.29-17.48,9.07-20.62,17.62-6.04,16.43-5.14,34.08-4.28,51.15.34,6.65.66,12.98.6,19.21-1.34.18-2.77.43-4.25.69-3.04.53-6.49,1.13-9.29,1.13-3.76,0-4.32-.92-4.48-1.73.28-6.75.14-13.93-.01-21.54-.55-27.75-1.18-59.19,20.39-75.8,4.88-3.75,12.8-5.9,21.74-5.9h0M709.14,288.53c10.92,0,20.07,3.16,25.1,8.66,9.21,10.08,13.13,19.82,11.95,29.69-2.15.58-4.55.84-7.5.84-2.09,0-4.19-.13-6.42-.26-.2-.01-.41-.02-.61-.04-.61-1.18-1.18-2.38-1.74-3.54-2.64-5.52-5.37-11.22-11.96-15.38-3.37-2.12-6.25-3.54-9.4-3.54-3.74,0-6.86,2.02-10.26,4.46-15.61,11.19-15.2,34.55-14.87,53.32.07,4.11.14,7.99.02,11.34-.06,1.77-.36,3.67-.67,5.68-.25,1.61-.51,3.25-.66,4.93-2.55.64-5.28.95-8.26.95-2.57,0-5.27-.23-8.22-.71-.07-.4-.12-.8-.15-1.16-.65-6.75-2.43-30.54,2.15-53.14,4.36-21.52,12.83-34.77,25.18-39.39,4.68-1.75,10.48-2.71,16.34-2.71M490.63,293.3c1.6,0,4.34.66,6.99,1.3,3.56.86,7.24,1.74,10.57,1.78,1.73,5.66,1.41,11.61,1.08,17.87-.08,1.45-.15,2.93-.21,4.42-2.01.01-4.09.14-6.1.27-2.08.13-4.05.25-5.89.25-1.53,0-2.78-.09-3.8-.27h0c-2.16-.38-2.61-.92-2.61-.93-.2-.36.02-1.99.14-2.87.17-1.18.35-2.52.29-3.92-.04-.88-.18-2.07-.36-3.59-.3-2.54-.72-6.03-.74-9.12-.03-3.24.39-4.67.62-5.21,0,0,.01,0,.02,0M493.81,337.2c7.86,0,15.75.45,23.37.89,4.08.24,7.97.46,11.75.61v14.13c-1.88.22-4,.32-6.47.32-4.52,0-9.48-.35-14.74-.72-5.66-.4-11.51-.81-17.27-.81-21.82,0-30.05,6.86-34.34,12.02-7.63,9.18-5.16,17.97-1.73,25.35,1.31,2.82,6.84,10.8,11.15,12.76,1.45.66,2.88.74,3.82.74.68,0,1.34-.05,1.98-.09.56-.04,1.09-.08,1.57-.08,1.2,0,1.92,0,2.74,2.6,1.57,4.99,1.92,10.35.81,12.2-.17.28-.29.36-.6.42-1.23.23-2.52.35-3.82.35-15,0-31.91-15.37-36.45-28.6-3.61-10.53.85-32.53,10.2-39.78,10.99-8.52,25.8-12.33,48.02-12.33M581.75,342.98l65.86,1.19c.07.67.15,1.32.23,1.97.48,3.94.86,7.05-.36,10.47-.37,1.02-.66,1.53-.82,1.76-.36-.03-.9-.13-1.47-.23-1.1-.2-2.47-.46-4.06-.47-1.34-.01-2.7-.02-4.09-.02-4.07,0-8.24.04-12.65.09-4.46.05-9.07.1-13.62.1-11.73,0-20.08-.34-27.1-1.1h-.13c-.39-.06-1.17-.14-1.69-.26-.54-1.37-1.17-4.65-1.15-6.18.02-1.6.52-5.21,1.05-7.33M786.04,343.9v13.55c-2.84.71-6.97,1-9.69,1.19l-1.07.08c-11.05.81-23.38,1.21-37.7,1.21-5.95,0-12.23-.06-19.74-.2-.21,0-.43,0-.65,0-1.35,0-3,.06-4.75.13-1.97.08-4.01.16-5.87.16-2.49,0-3.65-.15-4.15-.26-.48-.63-1.3-2.91-1.33-7-.02-3.15.44-5.59.86-6.86l84.09-1.99M493.26,371.24l16.06.5c1.94,8.33,2.19,42.04,1.72,55.15-.09,2.54-.34,5.15-.61,7.91-.38,3.94-.77,7.98-.71,12.08l-15.68-.38-.78-75.27M611.65,376.3c3.05.42,6.13.51,9.13.59,3.02.09,5.88.17,8.57.56l-2.71,69.25c-2.95.67-11.01,1.77-13.9,1.77-.1,0-.18,0-.25,0-4.8-.4-5.6-2.3-5.02-11.95.07-1.14.14-2.31.17-3.47.53-16.88,1.94-35.72,3.03-48.56l.02-.24c.34-4.06.69-6.5.96-7.95M743.24,378.75c2.88,0,3.99.78,4.71,2.31l-4.52,70.16-15.02-.65,2.68-70.59c2.16-.05,4.32-.36,6.43-.66,2.07-.29,4.02-.57,5.72-.57M591.72,405.31v14.29c-7.15.83-17.79.9-28.08.9h-1.92s-1.86,0-1.86,0c-3.03,0-6.51,0-9.5.05-.59,0-1.33.03-2.18.05-2.06.05-4.89.11-7.81.11-6.22,0-9.6-.31-11.4-.6v-13.66c3.11-.45,10.79-.99,29.73-.99,6.91,0,13.78.07,19.31.12,3.74.04,6.98.07,9.18.07.9,0,1.64,0,2.19-.02.87-.02,1.66-.16,2.35-.32M711.29,405.58v11.39c-2.51-.23-5.12-.35-7.88-.35-7.28,0-14.55.81-21.59,1.6-4.32.48-8.8.98-13.15,1.27-1.56.1-3.31.25-5.17.41-4.36.37-9.29.78-13.33.78-1.46,0-2.72-.06-3.74-.17-1.14-.12-1.65-.3-1.85-.39-.2-.67-.15-2.6-.12-4.02.14-5.83,1.03-9.3,1.7-10.52h65.12M763.53,405.93c1.33,0,3.31.27,6.06.81,14.02,2.77,24.97,12.92,29.29,27.15,4.21,13.86.97,27.97-8.66,37.88l-.38.38c-5.76,5.75-13.3,9.73-23.06,12.15-7.97,1.97-17.27,2.89-29.25,2.89-6.72,0-13.41-.28-19.87-.56-4.74-.2-9.26-.39-13.55-.46-.86-2.58-1.78-8.14-1.83-10.43-.07-3.13.18-4.5.41-5.1,9.04.53,16.51.77,23.44.77,8.32,0,15.82-.36,22.95-1.09,3.81-.39,16.6-1.82,21.49-3.71,7.07-2.74,11.56-9.62,12-18.43.52-10.29-4.53-20.21-12.28-24.14-2.27-1.15-4.62-1.36-6.5-1.52-3.04-.26-3.04-.29-3.33-1.75-.16-.82,0-1.26.49-2.52.39-.99.88-2.22,1.08-3.79.26-2.03.36-3.83.45-5.27.07-1.14.14-2.52.29-3.23.17-.02.42-.04.75-.04M678.03,438.24c2.98,0,4.47.28,5.18.49l1,72.35c-1.68.36-3.54.53-5.75.53-1.86,0-3.74-.11-5.73-.24-2.05-.13-4.16-.25-6.32-.25-.29,0-.56,0-.84,0-.35-23.42-.45-48.18,1.74-72.44,1.28-.02,2.76-.11,4.33-.2,2.02-.12,4.3-.25,6.38-.25M557.31,439.79c3.43,0,5.38.27,6.42.5l2.05,69.58c-.59.38-1.85.89-3.35,1.14-.4.07-1.66.18-3.86.18-4.38,0-7.73-.41-9.49-.82l1.85-70.28c1.76-.16,4.04-.29,6.37-.29M493.02,465.07c4.63,0,9.39.14,14,.27,4.62.13,9.41.27,14.08.27,3.9,0,7.36-.1,10.56-.29.88.81,2.13,3.42,2.25,4.58v10.98c-3.38.43-7.3.64-12.05.64-3.78,0-7.62-.12-11.67-.25-4.05-.13-8.23-.26-12.35-.26-12.69,0-27.13,1.15-38.04,9.69-9.31,7.28-11.3,16.47-5.77,26.57,4.21,7.69,10.87,10.11,17.26,11.33.02.1.04.2.06.3,1.56,7.42,2.21,12.25,1.92,14.37-1.12.16-2.29.24-3.5.24-14.97,0-32.15-12.18-35.36-25.06-1.54-6.2-.69-15.51,2.22-24.3,3.03-9.14,7.88-16.47,12.99-19.6,7.65-4.69,18.79-9.48,43.39-9.48h0M586.41,466.34l60.54,3.09c1.15,2.59,2.29,9.06,2.31,12.67l-65.08-.83c-.73-4.45-1.5-11.14.48-13.87.31-.42.75-.87,1.75-1.07M501.19,501.59h0c5.4,0,9.09,1.56,9.77,2.49l-4.85,67.36c-2.99.37-7.7.73-11.9.73-1.58,0-2.73-.05-3.57-.12l2.42-68.58c.62-.69,3.47-1.88,8.12-1.88M618.29,503.04c4.03,0,6.1.36,7.1.64l-3.1,67.3h-14.69c-1.34-11.57-.37-27.27.49-41.13.24-3.88.47-7.54.63-10.94.14-2.79.06-5.57-.01-8.26-.07-2.47-.13-4.85-.04-7.17,2.53-.18,6.19-.44,9.63-.44M738.3,507.19c1.98,0,3.17.25,3.79.46-.33,4.6-.35,14.38-.38,25.52-.03,13.69-.07,36.18-1.1,41.12-.54.24-1.83.61-4.62.61-2.45,0-5.24-.28-7.69-.52-.69-.07-1.34-.13-1.97-.19l1.04-65.16c2.16-.78,6.66-1.83,10.93-1.83M587.95,527.9c.74,0,1.31.07,1.77.17v15.79c-.26.07-.53.13-.79.2-1.78.45-3.47.87-5.05,1.01-2.55.23-5.35.34-8.55.34s-6.17-.1-9.19-.19c-3.04-.1-6.19-.19-9.29-.19-.5,0-1,0-1.5,0-3.85.04-7.73.21-11.48.37-4.24.18-8.63.37-12.87.37-1.94,0-3.72-.04-5.42-.12-.3-.66-.79-2.28-.77-5.89.02-3.57.51-7.43.87-10.26.5-.05,1.19-.08,2.13-.08,2.66,0,6.03.28,9.3.55,3.14.26,6.11.51,8.43.51,1.67,0,2.87-.13,3.85-.41,4.47-.89,9.04-1,12.53-1,1.97,0,4,.04,5.97.08,2.01.04,4.08.08,6.13.08,1.22,0,2.33-.01,3.39-.05,1.72-.05,3.52-.36,5.27-.66,1.8-.31,3.66-.63,5.25-.63M659.28,529.33c5.52,0,11.16.25,16.61.49,2.9.13,5.89.26,8.85.36.58.02,1.19.03,1.82.03,2.47,0,5.19-.13,8.06-.26,2.87-.13,5.83-.27,8.49-.27,2.1,0,3.78.09,5.11.26.56,1.32,1.14,4.57,1.18,7.71.05,4.89-.89,6.38-1.31,6.8-.17.17-.62.63-2.63.63-1.38,0-3.08-.22-4.88-.45-1.99-.26-4.24-.55-6.56-.6-3.76-.09-7.76-.13-12.25-.13-5.62,0-11.33.07-16.85.13-5.5.07-11.18.13-16.75.13-2.33,0-4.51-.01-6.59-.04v-12.5c0-.52,1.38-1.34,2.92-1.52,4.45-.52,9.29-.77,14.79-.77M760.83,529.55c5.61,0,15.31,4.75,18.73,7.34,5.23,3.97,14.86,15.42,16.92,20.84,4.91,12.98-4.08,37.45-16.59,45.14-12.75,7.84-29.12,8.73-46.18,9-3.01.05-5.52.07-7.91.07-8.11,0-14.87-.28-21.02-.88-1.11-5.39-2.2-10.91-.44-15.3,1.76-.09,3.63-.13,5.68-.13,4.25,0,8.72.18,13.04.36,4.39.18,8.94.37,13.35.37,3.94,0,7.38-.15,10.49-.46h0s.18-.02.18-.02c5.76-.58,29.2-6.76,31.69-17.76,1.99-8.81-.89-24.04-10.12-28.84-1.52-.79-3.56-1.31-5.93-1.91-1.53-.39-4.16-1.06-5.47-1.66.09-3.66.77-13.51,1.02-15.06.12-.51.33-1.12,2.54-1.12M668.78,562.68l15.87.29,2.81,41.32c-.35,3.34-.59,6.78-.83,10.1-.97,13.63-1.96,27.73-10.36,38.28-7.71,9.7-19.18,15.26-31.46,15.26-9.44,0-18.5-3.46-25.51-9.74-9.2-8.24-13.31-22.87-13.51-34.16,3.83-.89,7.76-1.34,11.71-1.34,1.97,0,3.93.11,5.86.34.48,1.32,1.08,3.68,1.55,5.52,2.22,8.73,5.26,20.69,14.4,23.53,1.94.6,3.82.91,5.6.91,9.49,0,14.08-8.57,16.28-12.69,8.5-15.88,7.82-33.54,7.17-50.62-.36-9.45-.71-18.45.41-27.01M554.54,564c3.5,0,7.07.3,9.58.6,3.18,27.17,6.29,57.51-4.76,82.15-4.21,9.38-7.17,13.22-16.43,17.44-7.52,3.43-14.47,5.17-20.63,5.17-11.59,0-20.95-6.04-28.6-18.46-1-1.63-5.68-10.88-6.58-13.21v-12.89h17.43c1.25,2.16,1.56,5.02,1.9,8.24.53,5.03,1.2,11.29,6.47,15.74,1.13.96,7.01,4.66,10.35,4.66h.1s.06,0,.06,0c2.7-.08,14.36-5.47,16.06-7.15,1.81-1.8,5.9-11.91,5.93-12.01,5.43-15.68,4.34-31.28,3.29-46.35-.53-7.65-1.09-15.55-.76-23.34.94-.26,2.9-.6,6.6-.6M594.9,589.58c2.6,0,5.04.12,7.01.21.85.04,1.6.08,2.2.1,4.29.14,10.53.53,16.67,1.04,3.9.33,20.82,2.53,27.23,3.84l-.38,14.01-63.48-1.07c-.53-1.87-.54-6.17-.54-8.62,0-2.95-.02-5.61-.39-7.77.95-.61,3.77-1.74,11.69-1.74M529.17,589.88c.64,2.72,1.45,6.36,1.92,9.81.67,5.02.27,7.12.03,7.85-1.09.2-4.06.54-11.81.54-8.85,0-20.31-.41-30.42-.77-7.7-.28-14.36-.51-18.32-.51-.84,0-1.52.01-2.1.03-3.85.14-8.05.71-12.12,1.25-1.42.19-2.79.37-4.12.54v-15.99l32.5-2.71,44.44-.02M730.4,628.63c3.46,0,6.23.19,7.95.4,1.48,15.46,1.37,26.15.47,29.49-1.12.18-3.2.37-6.14.37-4.27,0-7.43-.37-8.58-.67-.42-.7-1.83-3.84-1.47-14.17.21-5.96.92-11.68,1.53-15.12,1.31-.15,3.41-.28,6.24-.28M588.98,280.72c-9.23,0-18.26,2.17-24.18,6.73-29.3,22.56-20.51,68.56-21.95,100.72.58,4.29,4.11,5.51,8.5,5.51,5.75,0,12.98-2.09,16.96-2.09.17,0,.34,0,.5.01.86-23.81-4.91-49.76,3.52-72.71,3.06-8.33,7.14-14.77,16.96-15,.22,0,.43,0,.65,0,15.01,0,15.17,12.66,18.96,23.75h0c1.98.71,7.58,1.46,12.83,1.46s9.99-.72,10.74-2.88c2.76-8-8.25-31.17-14.78-36.77-6.65-5.69-17.8-8.72-28.69-8.72h0ZM709.14,284.53c-6.39,0-12.66,1.07-17.74,2.97-31.3,11.71-32.58,68.98-29.9,96.66.14,1.48.42,3.01,1.17,4.31h0c3.68.72,7.44,1.18,11.18,1.18,4.11,0,8.19-.55,12.13-1.94-.04-4.47,1.31-9.1,1.46-13.48.64-18.2-3.98-49.25,13.19-61.55,3.41-2.45,5.6-3.71,7.93-3.71,2.02,0,4.15.95,7.26,2.92,7.61,4.8,9.22,12.09,13.38,19.41,3.15.16,6.33.43,9.48.43,3.74,0,7.45-.39,11.07-1.82,2.74-13.8-3.59-25.6-12.56-35.41-6.39-7-17.39-9.96-28.05-9.96h0ZM490.63,289.3c-.39,0-.76.02-1.09.08-5.99.96-2.62,17.96-2.43,22.02.2,4.41-3.27,9.92,5.48,11.46h0c1.38.24,2.9.33,4.5.33,3.93,0,8.35-.52,12.31-.52,1.26,0,2.48.05,3.61.19-.1-10.51,2.23-20.76-2.13-30.75-.74.19-1.57.27-2.46.27-5.52,0-13.39-3.08-17.78-3.08h0ZM493.81,333.2c-18.36,0-36.64,2.44-50.47,13.17-10.55,8.18-15.74,31.96-11.53,44.24,5.1,14.87,23.32,31.3,40.23,31.3,1.54,0,3.06-.14,4.57-.42,6.68-1.26,4.35-12.99,2.85-17.75-1.46-4.65-4-5.4-6.56-5.4-1.22,0-2.44.17-3.55.17-.79,0-1.52-.09-2.16-.38-2.78-1.27-7.85-7.95-9.19-10.81-3.56-7.67-4.55-14.22,1.18-21.11,7.13-8.58,18.8-10.58,31.26-10.58,10.89,0,22.39,1.53,32.01,1.53,2.49,0,4.85-.1,7.04-.36,1.45-.17,2.56-.12,3.44-1.55h0v-17.94c0-.28-1.02-2.32-1.68-2.53-11.48-.37-24.48-1.59-37.44-1.59h0ZM579.41,338.94c-1.64.54-2.68,9.11-2.71,11.32-.03,2.21.96,7.89,2.31,9.23h0c.9.9,2.95,1.09,4.23,1.23,8.35.9,17.89,1.12,27.53,1.12,8.96,0,18-.19,26.27-.19,1.37,0,2.73,0,4.05.02,2.3.02,4.15.71,5.73.71,1.75,0,3.15-.85,4.43-4.42,2.05-5.74.53-10.71.12-16.53l-.78-1.21-71.18-1.29h0ZM790.04,339.8h0l-90.05,2.13c-3.49,1.18-4.57,19.91,1.05,21.59,1.24.37,3.26.48,5.53.48,3.62,0,7.88-.29,10.62-.29.2,0,.4,0,.58,0,6.51.12,13.14.2,19.81.2,12.67,0,25.49-.3,37.99-1.22,4.34-.32,11.07-.66,14.46-2.48v-20.43h0ZM490.02,367.14l-.79,1.2.85,82.08,22.99.55.79-1.19c-.62-7.61.92-15.45,1.18-22.74.27-7.63.78-56.64-3.16-59.21h0l-21.86-.69h0ZM609.24,371.8h0c-1.59.38-2.34,9.81-2.56,12.35-1.31,15.45-2.56,33.32-3.04,48.78-.27,8.5-2.51,18.61,8.52,19.53.16.01.35.02.58.02,3.42,0,13.97-1.43,16.17-2.26,1.22-.46,1.65-.97,1.69-2.29l2.84-72.61c-.33-1.32-1.21-1.42-2.36-1.63-7.04-1.29-14.85-.26-21.84-1.89h0ZM743.24,374.75c-4,0-8.64,1.24-12.77,1.24-1.12,0-2.2-.09-3.22-.32l-2.99,78.72,22.91.99h0s4.83-74.99,4.83-74.99c-1.65-4.5-4.91-5.65-8.76-5.65h0ZM593.59,400.84c-1.27,0-2.75.76-4.3.79-.53.01-1.24.02-2.11.02-5.39,0-16.84-.19-28.48-.19-16.14,0-32.61.37-33.73,2.12v17.44c0,.22-.74.54-.77,1l.72.99c2.16,1.4,9.13,1.7,15.45,1.7,4.13,0,7.99-.13,10.05-.16,2.83-.05,6.04-.05,9.43-.05,1.24,0,2.5,0,3.78,0,10.06,0,21.08-.05,28.64-.94,1.45-.17,2.56-.12,3.44-1.55v-19.93c-.62-.95-1.33-1.24-2.13-1.24h0ZM715.29,401.58h0s-70.25,0-70.25,0c-3.87.72-4.47,10.74-4.56,14.42-.13,5.37-.16,7.88,5.54,8.49,1.23.13,2.65.19,4.17.19,5.95,0,13.56-.85,18.76-1.2,11.48-.77,22.96-2.86,34.47-2.86,3.96,0,7.91.25,11.88.88v-19.93h0ZM763.53,401.93c-6.06,0-4.43,4.01-5.46,12.03-.36,2.79-2.16,4.33-1.53,7.58,1.32,6.82,7.4,3.77,11.95,6.07,12.24,6.21,14.45,29.93.64,35.27-4.11,1.59-15.59,2.96-20.45,3.46-7.48.77-15.01,1.07-22.54,1.07-8.04,0-16.08-.34-24.07-.82-3.88.3-3.85,6.09-3.77,9.24.06,2.65,1.62,13.6,3.69,14.31,10.6.07,23.03,1.04,35.57,1.04,20.63,0,41.55-2.63,55.14-16.21h0c23.54-23.53,10.47-65.67-22.31-72.16-2.98-.59-5.2-.89-6.84-.89h0ZM678.03,434.24c-4.03,0-8.45.45-11.26.45-.65,0-1.22-.02-1.67-.08l-1.64,2.35c-2.39,25.46-2.25,51.01-1.85,76.6l2.35,1.64c.82-.05,1.64-.07,2.45-.07,4.05,0,8.07.49,12.04.49,3.29,0,6.55-.34,9.78-1.56h0s-1.06-76.89-1.06-76.89c-.7-2.36-4.68-2.92-9.16-2.92h0ZM557.31,435.79c-4.3,0-8.66.42-10.28.82l-2,75.96c.66,1.98,8.25,2.62,13.54,2.62,1.99,0,3.66-.09,4.52-.23,2.31-.39,6.44-1.68,6.72-4.24l-2.13-72.61c-.58-1.76-5.43-2.31-10.36-2.31h0ZM493.02,461.07c-15.96,0-31.61,1.57-45.48,10.07-12.97,7.95-20.56,33.97-17,48.28,3.76,15.12,22.93,28.09,39.24,28.09,1.96,0,3.87-.19,5.72-.58,4.23-1.39-.19-17.94-.81-21.83-7.29-1.1-13.34-2.82-17.14-9.76-4.8-8.76-2.69-15.69,4.73-21.5,9.5-7.44,22.31-8.84,35.58-8.84,8.05,0,16.26.52,24.03.52,5.67,0,11.1-.28,16.05-1.23h0v-14.45c0-2.06-2.67-8.57-5.91-8.57-.17,0-.34.02-.52.06-3.42.21-6.89.29-10.39.29-9.26,0-18.72-.54-28.08-.54h0ZM586.19,462.33c-9.64,1.31-6.56,16.29-5.37,22.91l71.55.91c2.3-1.45-.43-19.59-3.51-20.62l-62.67-3.2h0ZM501.19,497.59c-5.83,0-11.44,1.67-12.1,5.14l-2.55,72.31c.57.82,3.78,1.12,7.67,1.12,5.94,0,13.46-.7,15.67-1.33h0l5.12-71.09c-.37-4.04-7.23-6.16-13.81-6.16h0ZM618.29,499.04c-5.16,0-10.58.54-12.67.64l-.8,1.2c-.53,5.92.19,11.92-.1,17.84-.76,15.59-2.88,37.6-1.09,52.83.17,1.45.12,2.56,1.55,3.44h20.93l3.37-73.06c-.74-2.29-5.82-2.88-11.18-2.88h0ZM738.3,503.19c-6.39,0-14.4,2.19-14.9,3.65l-1.13,71.13c.13,0,.26,0,.4,0,3.04,0,8.55.93,13.32.93,3.45,0,6.52-.49,7.97-2.17h0c2.73-3.16,1.12-61.14,2.23-70.01-.31-2.61-3.76-3.53-7.89-3.53h0ZM587.95,523.9c-3.59,0-7.52,1.21-10.63,1.3-1.09.03-2.19.04-3.28.04-4.03,0-8.07-.17-12.1-.17-4.54,0-9.06.21-13.51,1.12-.62.21-1.62.29-2.87.29-4.51,0-12.33-1.06-17.73-1.06-3.11,0-5.42.35-5.84,1.46-.54,4.96-3.2,20.24,1.99,22.69,2.34.14,4.69.2,7.04.2,8.08,0,16.26-.66,24.4-.75.49,0,.97,0,1.46,0,6.1,0,12.27.39,18.47.39,2.96,0,5.93-.09,8.9-.35,3.19-.28,6.35-1.43,9.48-1.98h0v-21.42c-1.64-1.33-3.64-1.75-5.77-1.75h0ZM659.28,525.33c-5.07,0-10.16.2-15.25.8-3,.35-6.46,2.2-6.46,5.5v16.44c3.53.07,7.06.1,10.59.1,11.19,0,22.4-.27,33.6-.27,4.05,0,8.1.04,12.15.13,4.19.1,8.23,1.05,11.54,1.05,4.79,0,8.04-2,7.93-11.47-.03-2.92-.69-10.93-3.57-11.46-1.86-.35-4.18-.46-6.71-.46-5.37,0-11.68.53-16.55.53-.59,0-1.15,0-1.69-.02-8.51-.27-17.03-.85-25.58-.85h0ZM760.83,525.55c-3.25,0-5.75,1.16-6.46,4.3-.31,1.4-1.35,16.72-1.07,17.55.97,2.92,10.42,3.84,13.52,5.45,7.27,3.78,9.71,17.09,8.06,24.41-1.74,7.71-21.17,13.95-28.19,14.66h0c-3.32.34-6.76.46-10.27.46-8.65,0-17.72-.73-26.39-.73-2.78,0-5.51.07-8.18.27-4.33,6.81-1.84,15.36-.4,22.82,8.09.95,16.21,1.21,24.36,1.21,2.65,0,5.31-.03,7.97-.07,15.92-.25,34.09-.91,48.21-9.59,13.7-8.42,24.06-34.59,18.24-49.97-2.43-6.41-12.7-18.41-18.24-22.61-3.64-2.76-14.14-8.16-21.14-8.16h0ZM665.36,558.61c-4.66,25.74,5.37,55.41-7.69,79.81-3.07,5.74-6.61,10.58-12.76,10.58-1.34,0-2.8-.23-4.41-.73-10.84-3.37-11.44-27.24-14.88-28.96-2.68-.41-5.4-.61-8.12-.61-5.31,0-10.62.77-15.67,2.25-.63,13.87,4.34,30.87,14.8,40.23,8.13,7.28,18.17,10.76,28.18,10.76,12.97,0,25.89-5.83,34.59-16.77,11.4-14.33,10.23-33.58,12.07-50.8l-3.08-45.33h0l-23.02-.43h0ZM554.54,560c-5.11,0-9.82.62-10.51,2.64-1.41,23.88,5.67,47.03-2.4,70.34-.56,1.62-4.22,9.73-4.97,10.48-1.08,1.07-11.73,5.94-13.36,5.99-.01,0-.03,0-.04,0-1.67,0-6.46-2.61-7.77-3.72-7.66-6.48-2.66-18.13-8.96-24.93h0s-21.92,0-21.92,0l-1.49,1.49v15.94c0,1.05,6.05,12.92,7.17,14.75,8.58,13.93,19.35,20.37,32.01,20.37,6.88,0,14.33-1.9,22.29-5.53,10.27-4.69,13.84-9.23,18.42-19.45,11.91-26.57,8.04-59.12,4.73-87.28-2.14-.44-7.89-1.11-13.19-1.11h0ZM594.9,585.58c-6.96,0-14.87.82-15.98,5.07,1.75,4.53-1.01,19.51,3.51,21.04l69.1,1.16h0s.56-21,.56-21c-.92-1.27-27.09-4.58-30.97-4.91-5.12-.43-11.79-.89-16.88-1.06-1.96-.06-5.51-.31-9.33-.31h0ZM532.32,585.88l-47.76.02-36.33,3.03h0v21.42c0,.24-1.16.76-.57,1.5l2.07,1.06c5.97-.59,12.99-1.88,18.88-2.1.53-.02,1.19-.03,1.95-.03,9.02,0,33.05,1.29,48.74,1.29,7.44,0,13-.29,14.2-1.14,4.48-3.2.02-19.93-1.18-25.05h0ZM730.4,624.63c-4.69,0-9.12.36-9.66,1.13-1.64,6.56-4.41,32.05,1.12,35.84,1.22.83,6.16,1.29,10.83,1.29,4.29,0,8.34-.38,9.03-1.2,3.36-3.94,1-29.41.35-35.74h0c-.51-.85-6.26-1.32-11.66-1.32h0Z"/>
</svg>