<?xml version="1.0" encoding="UTF-8"?>
<svg id="Layer_1" xmlns="http://www.w3.org/2000/svg" version="1.1" viewBox="0 0 1024 1024">
  <!-- Generator: Adobe Illustrator 29.8.1, SVG Export Plug-In . SVG Version: 2.1.1 Build 2)  -->
  <defs>
    <style>
      .st0 {
        fill: #fff;
      }
    </style>
  </defs>
  <path class="st0" d="M377,288h-101.5c-3.55,0-6.96,8.02-5.4,11.39l138.41,429.59c5.22,11.75,16.93,9.07,20.66-2.3,25.27-64.99,47.42-131.65,75.79-195.21,6.54-8.03,14.15-4.51,18.52,3.53l70.63,194.37c5.31,9.93,15.14,9.13,19.66-1.1,6.19-14.03,11.22-33.69,16.24-48.76,41.57-124.87,80.38-250.68,122.69-375.31.93-3.28,1.93-7.29,1.26-10.69-.28-1.45-3.9-5.52-4.48-5.52h-104.5l15.52,21.98c32.93,57.89,34.69,193.86-6.1,247.94-17.68,23.43-26.05,7.75-33.44-11.4-30.53-79.2-49.87-166.27-78.5-246.5-.92-5.28-11.34-12.02-15.98-12.02h-86.5c3.35,6.86,7.19,13.33,10.03,20.47,15.88,40.03,31.77,92.93,43.24,134.76,8.7,31.72,5.97,65.47-3.77,96.76-12.88,41.41-39.12,68.99-76.01,28.02-43.18-47.96-74.17-172.67-62.04-235.06,3.51-18.07,11.05-33.4,25.55-44.95Z"/>
  <path d="M377,288c-14.5,11.55-22.04,26.88-25.55,44.95-12.13,62.4,18.86,187.1,62.04,235.06,36.89,40.98,63.13,13.39,76.01-28.02,9.73-31.29,12.47-65.04,3.77-96.76-11.47-41.83-27.36-94.73-43.24-134.76-2.83-7.14-6.68-13.62-10.03-20.47h86.5c4.64,0,15.06,6.73,15.98,12.02,28.63,80.23,47.97,167.3,78.5,246.5,7.38,19.16,15.76,34.83,33.44,11.4,40.8-54.08,39.03-190.06,6.1-247.94l-15.52-21.98h104.5c.57,0,4.19,4.07,4.48,5.52.67,3.4-.33,7.41-1.26,10.69-42.31,124.62-81.13,250.43-122.69,375.31-5.02,15.07-10.05,34.72-16.24,48.76-4.52,10.24-14.35,11.04-19.66,1.1l-70.63-194.37c-4.38-8.05-11.98-11.57-18.52-3.53-28.37,63.56-50.52,130.21-75.79,195.21-3.74,11.38-15.44,14.06-20.66,2.3l-138.41-429.59c-1.56-3.37,1.84-11.39,5.4-11.39h101.5Z"/>
</svg>