<?xml version="1.0" encoding="UTF-8"?>
<svg id="Layer_1" xmlns="http://www.w3.org/2000/svg" version="1.1" viewBox="0 0 2000 2000">
  <!-- Generator: Adobe Illustrator 29.8.1, SVG Export Plug-In . SVG Version: 2.1.1 Build 2)  -->
  <path d="M973.57,442.07c14.65,5.27,82.38,10.98,88.01-5.32,10.32-29.87-30.82-116.41-55.2-137.29-45.85-39.28-149.19-44.55-197.44-7.41-109.42,84.23-76.57,256.02-81.96,376.11,5.11,37.96,72.04,11.53,96.9,12.8,3.23-88.91-18.34-185.83,13.14-271.53,11.42-31.1,26.65-55.15,63.34-56.01,58.44-1.37,58.86,46.65,73.2,88.64ZM1174.36,669.21c28.77,5.6,58.94,7.04,87.04-2.84-.14-16.68,4.9-33.98,5.47-50.34,2.39-67.97-14.86-183.89,49.24-229.85,23.8-17.07,31.73-18.72,56.74-2.95,28.41,17.91,34.42,45.15,49.97,72.47,25.72,1.29,51.82,4.68,76.74-5.16,10.22-51.53-13.42-95.59-46.89-132.24-38.17-41.8-120.36-45.07-171.01-26.13-116.89,43.73-121.67,257.59-111.67,360.94.54,5.54,1.55,11.24,4.38,16.09ZM539.25,424.24c21.82,3.86,53.25-2.83,76.28,0-.39-39.23,8.31-77.54-7.95-114.84-21.52,5.39-62.28-13-79.69-10.2-22.37,3.6-9.78,67.07-9.08,82.24.75,16.45-12.22,37.03,20.45,42.8ZM689.96,545.17v-66.98c0-1.03-3.81-8.68-6.28-9.43-103.55-3.33-240.17-25.12-328.3,43.24-39.38,30.54-58.78,119.36-43.05,165.2,20.79,60.58,99.84,128.09,167.3,115.32,24.94-4.72,16.24-48.51,10.66-66.28-9.89-31.48-32.99-15.09-45.79-20.94-10.39-4.75-29.33-29.67-34.3-40.37-13.29-28.64-17-53.11,4.39-78.83,55.95-67.28,186.47-26.23,262.54-35.15,5.42-.64,9.57-.46,12.83-5.77ZM862,561.04c3.37,3.36,11,4.08,15.81,4.6,64.98,7.03,149.21,2.94,216.03,3.55,18.09.16,28.86,11.48,37.92-13.86,7.67-21.45,1.98-39.99.46-61.71l-2.93-4.51-265.79-4.82c-6.12,2.02-10.02,34-10.12,42.27s3.59,29.46,8.62,34.48ZM1650.01,487.5l-336.25,7.95c-13.04,4.42-17.08,74.33,3.93,80.63,12.51,3.75,46.59.46,62.5.75,70.56,1.29,144.6,1.44,215.83-3.79,16.22-1.19,41.34-2.47,54-9.26v-76.28ZM611.34,592.15l-81.63-2.56-2.96,4.48,3.18,306.49,85.85,2.06,2.95-4.46c-2.32-28.41,3.43-57.71,4.39-84.91,1.02-28.51,2.93-211.52-11.79-221.1ZM974.91,607.01c-5.94,1.42-8.75,36.63-9.56,46.12-4.9,57.69-9.55,124.42-11.35,182.14-.99,31.75-9.39,69.49,31.8,72.91,9.59.79,53.79-5.08,62.53-8.35,4.55-1.7,6.17-3.64,6.32-8.56l10.61-271.15c-1.25-4.92-4.53-5.29-8.81-6.08-26.27-4.8-55.47-.98-81.55-7.04ZM1489.97,919.12l18.02-280.01c-14.33-39.04-61.03-10.55-92.43-17.67l-11.15,293.97,85.56,3.71ZM660.19,725.65v65.12c0,.83-2.76,2.02-2.86,3.75l2.67,3.7c13.34,8.62,75.78,6.04,95.24,5.73,44.77-.72,114.66,1.2,156.32-3.69,5.42-.64,9.57-.46,12.83-5.77v-74.42c-5.99-9.2-14.57-1.88-24.02-1.68-31.15.68-232.53-4.76-240.18,7.26ZM1370.92,718.21h-262.34c-14.45,2.68-16.68,40.1-17.02,53.86-.5,20.04-.58,29.43,20.68,31.72,22.62,2.44,61.23-2.12,85.61-3.76,57.62-3.87,115.21-16.65,173.07-7.41v-74.42ZM1659.87,992.27c87.89-87.89,39.11-245.24-83.3-269.47-52.22-10.34-41.04,3.55-45.93,41.62-1.34,10.42-8.07,16.17-5.72,28.31,4.94,25.45,27.62,14.07,44.61,22.68,45.72,23.19,53.97,111.76,2.39,131.71-15.35,5.94-58.22,11.05-76.38,12.92-57.69,5.94-116.26,4.39-174.08.94-14.5,1.11-14.37,22.75-14.09,34.5.24,9.88,6.06,50.78,13.78,53.42,104.7.71,257.15,24.91,338.71-56.64ZM1269.94,1138.17l-3.96-287.11c-5.47-18.57-65.46-7.27-82.46-9.53l-6.13,8.76c-8.92,95.09-8.4,190.47-6.9,286.03l8.78,6.11c30.75-1.8,61.05,6.98,90.66-4.25ZM742.6,848.98l-7.48,283.63c3.41,10.19,55.74,10.88,67.45,8.92,8.62-1.45,24.03-6.28,25.08-15.85l-7.97-271.13c-4.06-12.3-64.1-8.75-77.08-5.57ZM708.56,1027.06v-53.96c0-8.09-11.05-34.62-24-31.81-104.39,6.47-219.87-20.72-313.48,36.68-48.42,29.69-76.78,126.85-63.49,180.27,15.73,63.23,103.66,116.41,167.88,102.73,15.78-5.18-.7-66.98-3.04-81.51-27.24-4.12-49.8-10.53-64.01-36.46-17.92-32.7-10.05-58.6,17.65-80.27,72.72-56.9,197.1-19.21,282.49-35.67ZM1135.94,1033.98c8.57-5.41-1.6-73.14-13.09-77l-234.03-11.95c-36,4.89-24.49,60.84-20.07,85.56l267.19,3.39ZM603.85,1365.17l19.13-265.47c-2.62-28.45-91.52-31.39-96.75-3.79l-9.54,270.01c5.4,7.76,73.54,3.11,87.17-.75ZM959.74,1365.69h78.14l12.57-272.83c-5.4-16.76-73.17-9.09-89.09-8.35l-2.97,4.48c-1.99,22.11.71,44.51-.37,66.61-2.83,58.21-10.74,140.39-4.06,197.26.64,5.42.46,9.57,5.77,12.83ZM1477.95,1372.22c10.21-11.81,4.17-228.31,8.34-261.43-2.94-24.84-82.03-8.54-85.11.48l-4.22,265.6c18.56-.59,67.74,10.69,81-4.65ZM916.94,1261.49v-80c-16.47-13.35-42.73-2.24-61.25-1.71-35.98,1.04-72.5-3.49-107.91,3.72-15.54,5.19-93.7-10.74-98.75,2.57-2.03,18.51-11.95,75.58,7.42,84.74,38.69,2.35,78.14-1.62,117.4-2.05,35.4-.39,71.56,3.3,107.67.11,11.9-1.05,23.71-5.33,35.41-7.38ZM1080.67,1265.21c70.01,1.39,140.36-1.8,210.4-.15,38.27.9,73.39,20.9,72.72-38.92-.12-10.9-2.59-40.8-13.33-42.8-23.53-4.37-66.52,1.01-93.19.16-50.62-1.63-101.41-6.16-152.47-.21-11.19,1.3-24.13,8.21-24.13,20.52v61.4ZM1488.14,1428.94c-52.77,5.35-113.74-3.97-167.45,0-16.17,25.43-6.86,57.36-1.5,85.21,40.03,4.68,80.32,4.9,120.73,4.26,59.45-.94,127.3-3.4,180.03-35.81,51.14-31.44,89.83-129.18,68.1-186.58-9.06-23.92-47.44-68.75-68.12-84.44-19.91-15.11-94.77-51.3-103.07-14.41-1.17,5.21-5.03,62.43-3.99,65.55,3.61,10.92,38.9,14.33,50.47,20.34,27.15,14.12,36.27,63.82,30.09,91.14-6.51,28.78-79.05,52.08-105.27,54.74ZM1270.43,1306.18l-85.97-1.59c-17.39,96.1,20.05,206.92-28.72,298.02-13.97,26.09-30.53,47.22-64.1,36.78-40.49-12.59-42.73-101.73-55.57-108.15-29.58-4.51-60.32-2.26-88.84,6.13-2.37,51.79,16.2,115.26,55.26,150.24,69.67,62.39,176.8,49.96,234.4-22.46,42.57-53.52,38.2-125.4,45.06-189.71l-11.51-169.26ZM591.35,1536.86h-81.87l-5.58,5.58v59.54c0,3.93,22.59,48.26,26.79,55.08,49.47,80.31,118.34,93.89,202.76,55.39,38.35-17.5,51.67-34.45,68.79-72.62,44.49-99.2,30.02-220.77,17.65-325.91-15.68-3.25-83.23-9.7-88.51,5.73-5.27,89.18,21.16,175.61-8.96,262.68-2.1,6.06-15.75,36.35-18.55,39.13-4.03,3.99-43.82,22.19-49.9,22.37s-24.24-9.71-29.17-13.88c-28.61-24.18-9.94-67.69-33.44-93.08ZM373.66,1417.78v80c0,.9-4.32,2.84-2.13,5.6l7.74,3.94c22.31-2.19,48.5-7.01,70.51-7.83,36.83-1.37,227.62,10.9,242.3.43,16.73-11.94.09-74.43-4.42-93.53l-178.34.07-135.67,11.32ZM1132.78,1507.11l2.1-78.41c-3.44-4.76-101.15-17.09-115.64-18.32-19.11-1.61-44.01-3.34-63.04-3.94-20.68-.65-88.11-6.82-94.53,17.77,6.53,16.92-3.77,72.87,13.1,78.55l258.02,4.35ZM1470.86,1556.01c-3.59-5.9-75.27-6.93-79.63-.7-6.12,24.49-16.46,119.68,4.17,133.82,8.73,5.98,68.75,6.69,74.17.33,12.54-14.71,3.74-109.81,1.29-133.45Z"/>
</svg>